<?xml version="1.0" encoding="utf-8"?>
<!-- Generator: Adobe Illustrator 15.0.2, SVG Export Plug-In . SVG Version: 6.00 Build 0)  -->
<!DOCTYPE svg PUBLIC "-//W3C//DTD SVG 1.1//EN" "http://www.w3.org/Graphics/SVG/1.1/DTD/svg11.dtd">
<svg version="1.1" id="_x30_2_5_" xmlns="http://www.w3.org/2000/svg" xmlns:xlink="http://www.w3.org/1999/xlink" x="0px" y="0px"
	 width="64px" height="64px" viewBox="0 0 64 64" enable-background="new 0 0 64 64" xml:space="preserve">
<polygon fill="#249AFC" points="27.615,55.511 27.615,46.084 18.025,46.084 18.025,55.511 16.262,55.511 16.262,58.215 
	29.377,58.215 29.377,55.511 "/>
<polygon fill="#249AFC" points="45.636,54.006 45.636,44.579 36.046,44.579 36.046,54.006 34.283,54.006 34.283,56.71 47.398,56.71 
	47.398,54.006 "/>
<g>
	<path fill="#249AFC" d="M52.365,31.494c0,13.012-9.119,19.15-20.365,19.15c-11.248,0-20.365-6.139-20.365-19.15
		c0-13.014,8.778-26.595,20.025-26.595C42.908,4.899,52.365,18.48,52.365,31.494z"/>
	<g>
		<rect x="47.398" y="34.707" fill="#249AFC" width="10.901" height="5.901"/>
		<path fill="#249AFC" d="M54.694,22.657v16.791c0,1.665,1.449,3.016,3.237,3.016c1.787,0,3.236-1.351,3.236-3.016V22.657H54.694z"
			/>
		<rect x="55.759" y="20.608" fill="#249AFC" width="4.508" height="3.033"/>
		<polygon fill="#249AFC" points="59.831,13.969 59.831,17.657 59.119,17.657 59.119,15.28 56.742,15.28 56.742,17.657 
			56.056,17.657 56.056,13.969 53.382,13.969 53.382,20.608 53.813,20.608 56.056,20.608 56.742,20.608 56.742,21.633 
			59.119,21.633 59.119,20.608 59.831,20.608 62.05,20.608 62.505,20.608 62.505,13.969 		"/>
	</g>
	<g>
		<rect x="5.7" y="34.707" fill="#249AFC" width="10.901" height="5.901"/>
		<path fill="#249AFC" d="M9.306,22.657v16.791c0,1.665-1.449,3.016-3.237,3.016c-1.787,0-3.236-1.351-3.236-3.016V22.657H9.306z"/>
		<rect x="3.733" y="20.608" fill="#249AFC" width="4.508" height="3.033"/>
		<polygon fill="#249AFC" points="4.169,13.969 4.169,17.657 4.881,17.657 4.881,15.28 7.258,15.28 7.258,17.657 7.944,17.657 
			7.944,13.969 10.618,13.969 10.618,20.608 10.188,20.608 7.944,20.608 7.258,20.608 7.258,21.633 4.881,21.633 4.881,20.608 
			4.169,20.608 1.95,20.608 1.495,20.608 1.495,13.969 		"/>
	</g>
	<g>
		
			<rect x="14.017" y="8.235" transform="matrix(0.7352 -0.6778 0.6778 0.7352 -5.2709 13.7146)" fill="#249AFC" width="1.804" height="10.738"/>
		
			<rect x="48.18" y="8.235" transform="matrix(-0.735 -0.6781 0.6781 -0.735 75.9293 56.8844)" fill="#249AFC" width="1.803" height="10.738"/>
	</g>
	<path fill="#FFFFFF" d="M44.777,18.682c0,0.929-0.752,1.681-1.681,1.681H21.468c-0.928,0-1.681-0.752-1.681-1.681l0,0
		c0-0.928,0.752-1.68,1.681-1.68h21.629C44.025,17.002,44.777,17.754,44.777,18.682L44.777,18.682z"/>
	<path fill="#FFFFFF" d="M19.864,34.707c0.124,0.481,0.292,1.747,0.503,2.217c1.732,3.867,6.286,6.394,11.633,6.394
		c5.196,0,9.641-2.67,11.479-6.394c0.283-0.575,0.506-1.622,0.658-2.217H19.864z"/>
</g>
<circle fill="#F5B32C" stroke="#E75513" stroke-width="0.2" stroke-miterlimit="10" cx="35.359" cy="18.683" r="1.68"/>
</svg>
