<?xml version="1.0" encoding="utf-8"?>
<!-- Generator: Adobe Illustrator 15.0.2, SVG Export Plug-In . SVG Version: 6.00 Build 0)  -->
<!DOCTYPE svg PUBLIC "-//W3C//DTD SVG 1.1//EN" "http://www.w3.org/Graphics/SVG/1.1/DTD/svg11.dtd">
<svg version="1.1" id="_x30_3_5_" xmlns="http://www.w3.org/2000/svg" xmlns:xlink="http://www.w3.org/1999/xlink" x="0px" y="0px"
	 width="64px" height="64px" viewBox="0 0 64 64" enable-background="new 0 0 64 64" xml:space="preserve">
<polygon fill="#249AFC" points="27.615,55.511 27.615,41.558 18.025,41.558 18.025,55.511 16.262,55.511 16.262,58.215 
	29.377,58.215 29.377,55.511 "/>
<polygon fill="#249AFC" points="45.636,51.744 45.636,42.317 36.046,42.317 36.046,51.744 34.283,51.744 34.283,54.448 
	47.398,54.448 47.398,51.744 "/>
<g>
	<path fill="#249AFC" d="M52.365,30.167c0,13.012-9.119,19.151-20.365,19.151c-11.248,0-20.365-6.139-20.365-19.151
		c0-13.014,8.778-26.595,20.025-26.595C42.908,3.573,52.365,17.154,52.365,30.167z"/>
	<g>
		<rect x="47.398" y="33.381" fill="#249AFC" width="10.901" height="5.9"/>
		<path fill="#249AFC" d="M54.694,21.331v16.791c0,1.666,1.449,3.016,3.237,3.016c1.787,0,3.236-1.35,3.236-3.016V21.331H54.694z"/>
		<rect x="55.759" y="19.282" fill="#249AFC" width="4.508" height="3.033"/>
		<polygon fill="#249AFC" points="59.831,12.642 59.831,16.331 59.119,16.331 59.119,13.954 56.742,13.954 56.742,16.331 
			56.056,16.331 56.056,12.642 53.382,12.642 53.382,19.282 53.813,19.282 56.056,19.282 56.742,19.282 56.742,20.306 
			59.119,20.306 59.119,19.282 59.831,19.282 62.05,19.282 62.505,19.282 62.505,12.642 		"/>
	</g>
	<g>
		<rect x="5.7" y="33.381" fill="#249AFC" width="10.901" height="5.9"/>
		<path fill="#249AFC" d="M9.306,21.331v16.791c0,1.666-1.449,3.016-3.237,3.016c-1.787,0-3.236-1.35-3.236-3.016V21.331H9.306z"/>
		<rect x="3.733" y="19.282" fill="#249AFC" width="4.508" height="3.033"/>
		<polygon fill="#249AFC" points="4.169,12.642 4.169,16.331 4.881,16.331 4.881,13.954 7.258,13.954 7.258,16.331 7.944,16.331 
			7.944,12.642 10.618,12.642 10.618,19.282 10.188,19.282 7.944,19.282 7.258,19.282 7.258,20.306 4.881,20.306 4.881,19.282 
			4.169,19.282 1.95,19.282 1.495,19.282 1.495,12.642 		"/>
	</g>
	<g>
		
			<rect x="14.017" y="6.909" transform="matrix(0.7352 -0.6778 0.6778 0.7352 -4.3717 13.3633)" fill="#249AFC" width="1.804" height="10.738"/>
		
			<rect x="48.18" y="6.908" transform="matrix(-0.735 -0.6781 0.6781 -0.735 76.8289 54.5827)" fill="#249AFC" width="1.803" height="10.738"/>
	</g>
	<path fill="#FFFFFF" d="M44.777,17.355c0,0.929-0.752,1.681-1.681,1.681H21.468c-0.928,0-1.681-0.752-1.681-1.681l0,0
		c0-0.928,0.752-1.68,1.681-1.68h21.629C44.025,15.675,44.777,16.427,44.777,17.355L44.777,17.355z"/>
	<path fill="#FFFFFF" d="M19.864,33.381c0.124,0.48,0.292,1.746,0.503,2.217C22.099,39.465,26.652,41.99,32,41.99
		c5.196,0,9.641-2.67,11.479-6.393c0.283-0.576,0.506-1.623,0.658-2.217H19.864z"/>
</g>
<circle fill="#F5B32C" stroke="#E75513" stroke-width="0.2" stroke-miterlimit="10" cx="38.718" cy="17.355" r="1.68"/>
</svg>
