<?xml version="1.0" encoding="utf-8"?>
<!-- Generator: Adobe Illustrator 15.0.2, SVG Export Plug-In . SVG Version: 6.00 Build 0)  -->
<!DOCTYPE svg PUBLIC "-//W3C//DTD SVG 1.1//EN" "http://www.w3.org/Graphics/SVG/1.1/DTD/svg11.dtd">
<svg version="1.1" id="_x30_5_x28_01_x29_" xmlns="http://www.w3.org/2000/svg" xmlns:xlink="http://www.w3.org/1999/xlink" x="0px"
	 y="0px" width="64px" height="64px" viewBox="0 0 64 64" enable-background="new 0 0 64 64" xml:space="preserve">
<polygon fill="#249AFC" points="27.615,55.511 27.615,33.607 18.025,33.607 18.025,55.511 16.262,55.511 16.262,58.215 
	29.377,58.215 29.377,55.511 "/>
<polygon fill="#249AFC" points="45.636,55.511 45.636,37.889 36.046,37.889 36.046,55.511 34.283,55.511 34.283,58.215 
	47.398,58.215 47.398,55.511 "/>
<g>
	<path fill="#249AFC" d="M52.365,32.38c0,13.012-9.119,19.15-20.365,19.15c-11.248,0-20.365-6.139-20.365-19.15
		c0-13.014,8.778-26.595,20.025-26.595C42.908,5.785,52.365,19.366,52.365,32.38z"/>
	<g>
		<rect x="47.398" y="35.593" fill="#249AFC" width="10.901" height="5.901"/>
		<path fill="#249AFC" d="M54.694,23.543v16.791c0,1.665,1.449,3.016,3.237,3.016c1.787,0,3.236-1.351,3.236-3.016V23.543H54.694z"
			/>
		<rect x="55.759" y="21.494" fill="#249AFC" width="4.508" height="3.033"/>
		<polygon fill="#249AFC" points="59.831,14.854 59.831,18.543 59.119,18.543 59.119,16.166 56.742,16.166 56.742,18.543 
			56.056,18.543 56.056,14.854 53.382,14.854 53.382,21.494 53.813,21.494 56.056,21.494 56.742,21.494 56.742,22.519 
			59.119,22.519 59.119,21.494 59.831,21.494 62.05,21.494 62.505,21.494 62.505,14.854 		"/>
	</g>
	<g>
		<rect x="5.7" y="35.593" fill="#249AFC" width="10.901" height="5.901"/>
		<path fill="#249AFC" d="M9.306,23.543v16.791c0,1.665-1.449,3.016-3.237,3.016c-1.787,0-3.236-1.351-3.236-3.016V23.543H9.306z"/>
		<rect x="3.733" y="21.494" fill="#249AFC" width="4.508" height="3.033"/>
		<polygon fill="#249AFC" points="4.169,14.854 4.169,18.543 4.881,18.543 4.881,16.166 7.258,16.166 7.258,18.543 7.944,18.543 
			7.944,14.854 10.618,14.854 10.618,21.494 10.188,21.494 7.944,21.494 7.258,21.494 7.258,22.519 4.881,22.519 4.881,21.494 
			4.169,21.494 1.95,21.494 1.495,21.494 1.495,14.854 		"/>
	</g>
	<g>
		
			<rect x="14.017" y="9.121" transform="matrix(0.7352 -0.6778 0.6778 0.7352 -5.8713 13.9491)" fill="#249AFC" width="1.804" height="10.738"/>
		
			<rect x="48.18" y="9.121" transform="matrix(-0.735 -0.6781 0.6781 -0.735 75.3286 58.4211)" fill="#249AFC" width="1.803" height="10.738"/>
	</g>
	<path fill="#FFFFFF" d="M44.777,19.567c0,0.929-0.752,1.681-1.681,1.681H21.468c-0.928,0-1.681-0.752-1.681-1.681l0,0
		c0-0.928,0.752-1.68,1.681-1.68h21.629C44.025,17.888,44.777,18.64,44.777,19.567L44.777,19.567z"/>
	<path fill="#FFFFFF" d="M19.864,35.593c0.124,0.481,0.292,1.747,0.503,2.217c1.732,3.867,6.286,6.394,11.633,6.394
		c5.196,0,9.641-2.67,11.479-6.394c0.283-0.575,0.506-1.622,0.658-2.217H19.864z"/>
</g>
<circle fill="#F5B32C" stroke="#E75513" stroke-width="0.2" stroke-miterlimit="10" cx="32" cy="19.568" r="1.68"/>
</svg>
