<?xml version="1.0" encoding="utf-8"?>
<!-- Generator: Adobe Illustrator 15.0.2, SVG Export Plug-In . SVG Version: 6.00 Build 0)  -->
<!DOCTYPE svg PUBLIC "-//W3C//DTD SVG 1.1//EN" "http://www.w3.org/Graphics/SVG/1.1/DTD/svg11.dtd">
<svg version="1.1" xmlns="http://www.w3.org/2000/svg" xmlns:xlink="http://www.w3.org/1999/xlink" x="0px" y="0px" width="64px"
	 height="64px" viewBox="0 0 64 64" enable-background="new 0 0 64 64" xml:space="preserve">
<g id="_x31_0_1_">
	<path fill="none" stroke="#7FC426" stroke-width="2.5046" stroke-miterlimit="10" d="M27.077,53.67c0,0-0.868-5.714,0.481-7.271
		c1.701-1.964,4.204-1.367,5.835,3.499"/>
	<path fill="#3A271D" d="M37.761,49.396c-0.381-0.147-0.818-0.243-1.239-0.312c-0.686-1.021-1.983-2.282-2.815-2.282
		c-0.475,0-0.839,0.178-1.112,0.438c-0.337-0.062-1.033,0.846-1.429,0.956c-1.273,0.356-2.377,1.229-2.377,1.229
		c-1.147,0.082-4.18,2.049-4.18,2.049l16.393,1.558C41.001,53.032,39.146,49.932,37.761,49.396z"/>
	<g>
		
			<line fill="none" stroke="#009DE6" stroke-width="2" stroke-linecap="round" stroke-miterlimit="10" x1="37.425" y1="41.718" x2="48.071" y2="65.622"/>
		
			<line fill="none" stroke="#009DE6" stroke-width="3" stroke-linecap="round" stroke-miterlimit="10" x1="56.469" y1="27.982" x2="72.768" y2="62.777"/>
		
			<line fill="none" stroke="#009DE6" stroke-width="3" stroke-linecap="round" stroke-miterlimit="10" x1="7.394" y1="45.38" x2="18.041" y2="69.284"/>
		
			<line fill="none" stroke="#009DE6" stroke-width="2" stroke-linecap="round" stroke-miterlimit="10" x1="52.892" y1="52.048" x2="63.538" y2="75.951"/>
		
			<line fill="none" stroke="#009DE6" stroke-width="2" stroke-linecap="round" stroke-miterlimit="10" x1="22.158" y1="53.032" x2="32.805" y2="76.936"/>
	</g>
	<path fill="#3A271D" d="M22.158,51.229c0,0,0.728-1.474,1.384-1.311s1.263-0.564,1.64-0.408c0.983,0.408,1.656,1.719,1.656,1.719
		H22.158z"/>
</g>
<g id="ground">
	<path fill="#3A271D" d="M64,56.065c-7.835-3.442-17.255-4.54-30.599-5.195C10.943,49.768,0,55.573,0,55.573V64h64V56.065z"/>
</g>
</svg>
