<?xml version="1.0" encoding="utf-8"?>
<!-- Generator: Adobe Illustrator 15.0.2, SVG Export Plug-In . SVG Version: 6.00 Build 0)  -->
<!DOCTYPE svg PUBLIC "-//W3C//DTD SVG 1.1//EN" "http://www.w3.org/Graphics/SVG/1.1/DTD/svg11.dtd">
<svg version="1.1" xmlns="http://www.w3.org/2000/svg" xmlns:xlink="http://www.w3.org/1999/xlink" x="0px" y="0px" width="64px"
	 height="64px" viewBox="0 0 64 64" enable-background="new 0 0 64 64" xml:space="preserve">
<g id="_x31_4_1_">
	<g>
		<path fill="none" stroke="#7FC426" stroke-width="2.5046" stroke-miterlimit="10" d="M34.614,25.491
			c0,0,1.101,11.967,0.731,15.492c-0.486,4.647-1.295,9.748-2.32,11.065"/>
		<path fill="#7FC426" d="M31.62,14.037c0,0,9.086,8.241,3.502,14.896C35.122,28.934,26.751,26.064,31.62,14.037z"/>
	</g>
	<path fill="#3A271D" d="M38.706,51.45c-0.381-0.136-1.71-1.06-2.131-1.123c-1.176,0.767-2.524,0.78-5.249-0.242
		c-1.273,0.328-2.459,1.234-2.459,1.234c-1.147,0.076-4.26,0.814-4.26,0.814l16.393,1.433C41.001,53.566,40.092,51.942,38.706,51.45
		z"/>
</g>
<g id="ground">
	<path fill="#3A271D" d="M64,56.065c-7.835-3.442-17.255-4.54-30.599-5.195C10.943,49.768,0,55.573,0,55.573V64h64V56.065z"/>
</g>
</svg>
