<?xml version="1.0" encoding="utf-8"?>
<!-- Generator: Adobe Illustrator 15.0.2, SVG Export Plug-In . SVG Version: 6.00 Build 0)  -->
<!DOCTYPE svg PUBLIC "-//W3C//DTD SVG 1.1//EN" "http://www.w3.org/Graphics/SVG/1.1/DTD/svg11.dtd">
<svg version="1.1" xmlns="http://www.w3.org/2000/svg" xmlns:xlink="http://www.w3.org/1999/xlink" x="0px" y="0px" width="64px"
	 height="64px" viewBox="0 0 64 64" enable-background="new 0 0 64 64" xml:space="preserve">
<g id="_x30_3_11_">
	<g>
		<g>
			<path fill="none" stroke="#231815" stroke-width="2.2351" stroke-miterlimit="10" d="M32.668,47.721
				c3.004-0.199,3.498,5.496,1.041,8.216C31.72,58.143,28.945,47.965,32.668,47.721z"/>
			<path fill="#93604C" d="M32.668,47.721c3.004-0.199,3.498,5.496,1.041,8.216C31.72,58.143,28.945,47.965,32.668,47.721z"/>
		</g>
		<path fill="#60392D" d="M31.535,48.268c0,0,0.916,6.472,1.749,7.822C33.283,56.09,30.075,56.363,31.535,48.268z"/>
	</g>
	<path fill="#3A271D" d="M39.314,50.602c-0.203,0-0.396,0.04-0.583,0.098c-0.977-0.622-0.894-1.766-2.566-1.766
		c-1.523,0-1.476,1.797-5.417,1.601c-0.203-0.431-0.783-0.781-1.548-0.963c-1.548-0.958-6.887,1.74-6.887,1.74l3.483,0.408
		c0.509,0.354,1.32,0.585,2.241,0.585c0.47,0,0.905-0.065,1.294-0.17l0.004,0.001c-0.019,0.094-0.055,0.186-0.055,0.282
		c0,1.517,2.385,2.746,5.328,2.746c1.209,0,2.312-0.216,3.206-0.565c0.388,0.409,0.916,0.664,1.501,0.664
		c1.188,0,2.151-1.044,2.151-2.331C41.466,51.646,40.502,50.602,39.314,50.602z"/>
</g>
<g id="ground">
	<path fill="#3A271D" d="M64,56.065c-7.835-3.442-17.255-4.54-30.599-5.195C10.943,49.768,0,55.573,0,55.573V64h64V56.065z"/>
</g>
</svg>
