<?xml version="1.0" encoding="utf-8"?>
<!-- Generator: Adobe Illustrator 15.0.2, SVG Export Plug-In . SVG Version: 6.00 Build 0)  -->
<!DOCTYPE svg PUBLIC "-//W3C//DTD SVG 1.1//EN" "http://www.w3.org/Graphics/SVG/1.1/DTD/svg11.dtd">
<svg version="1.1" xmlns="http://www.w3.org/2000/svg" xmlns:xlink="http://www.w3.org/1999/xlink" x="0px" y="0px" width="64px"
	 height="64px" viewBox="0 0 64 64" enable-background="new 0 0 64 64" xml:space="preserve">
<g id="_x30_6_8_">
	<g>
		
			<line fill="none" stroke="#009DE6" stroke-width="2" stroke-linecap="round" stroke-miterlimit="10" x1="52.488" y1="10.031" x2="63.135" y2="33.935"/>
		
			<line fill="none" stroke="#009DE6" stroke-width="2" stroke-linecap="round" stroke-miterlimit="10" x1="57.319" y1="46.623" x2="67.966" y2="70.527"/>
		
			<line fill="none" stroke="#009DE6" stroke-width="3" stroke-linecap="round" stroke-miterlimit="10" x1="48.568" y1="-19.564" x2="59.215" y2="4.339"/>
		
			<line fill="none" stroke="#009DE6" stroke-width="3" stroke-linecap="round" stroke-miterlimit="10" x1="40.419" y1="33.935" x2="56.718" y2="68.729"/>
		
			<line fill="none" stroke="#009DE6" stroke-width="3" stroke-linecap="round" stroke-miterlimit="10" x1="9.875" y1="24.671" x2="20.521" y2="48.575"/>
		
			<line fill="none" stroke="#009DE6" stroke-width="2.2983" stroke-linecap="round" stroke-miterlimit="10" x1="26.182" y1="38.517" x2="34.336" y2="56.829"/>
		
			<line fill="none" stroke="#009DE6" stroke-width="2" stroke-linecap="round" stroke-miterlimit="10" x1="-7.936" y1="17.852" x2="2.71" y2="41.756"/>
		
			<line fill="none" stroke="#009DE6" stroke-width="2" stroke-linecap="round" stroke-miterlimit="10" x1="25.207" y1="-14.509" x2="35.854" y2="9.395"/>
		
			<line fill="none" stroke="#009DE6" stroke-width="2" stroke-linecap="round" stroke-miterlimit="10" x1="-4.142" y1="-15.318" x2="6.505" y2="8.586"/>
	</g>
	<path fill="#3A271D" d="M39.525,51.228c-0.203,0-1.951-0.197-2.138-0.14c-0.979-0.388-1.664-1.252-3.337-1.252
		c-1.523,0-1.596-0.578-2.737-0.044c-0.203-0.431-2.252,0.635-3.018,0.453c-1.805-0.206-5.984,1.066-5.984,1.066l3.483,0.408
		c0.509,0.354,1.32,0.585,2.241,0.585c0.47,0,0.905-0.065,1.294-0.17l0.004,0.001c-0.019,0.094-0.055,0.186-0.055,0.282
		c0,1.517,2.385,2.746,5.328,2.746c1.209,0,2.312-0.216,3.206-0.565c0.388,0.409,0.916,0.664,1.501,0.664
		c1.188,0,2.151-1.044,2.151-2.331C41.466,51.646,40.713,51.228,39.525,51.228z"/>
</g>
<g id="ground">
	<path fill="#3A271D" d="M64,56.065c-7.835-3.442-17.255-4.54-30.599-5.195C10.943,49.768,0,55.573,0,55.573V64h64V56.065z"/>
</g>
</svg>
