<?xml version="1.0" encoding="utf-8"?>
<!-- Generator: Adobe Illustrator 15.0.2, SVG Export Plug-In . SVG Version: 6.00 Build 0)  -->
<!DOCTYPE svg PUBLIC "-//W3C//DTD SVG 1.1//EN" "http://www.w3.org/Graphics/SVG/1.1/DTD/svg11.dtd">
<svg version="1.1" id="_x30_2_16_" xmlns="http://www.w3.org/2000/svg" xmlns:xlink="http://www.w3.org/1999/xlink" x="0px" y="0px"
	 width="64px" height="64px" viewBox="0 0 64 64" enable-background="new 0 0 64 64" xml:space="preserve">
<g>
	<path fill="#43B7FF" d="M14.575,13.779c0-0.644,0.237-1.181,0.785-1.181c0.589,0,0.767,0.598,0.767,1.166
		c0,0.746-0.289,1.185-0.776,1.185C14.768,14.949,14.575,14.354,14.575,13.779z M15.597,13.773c0-0.49-0.075-0.755-0.24-0.755
		c-0.156,0-0.253,0.235-0.253,0.755s0.087,0.754,0.253,0.754C15.483,14.528,15.597,14.396,15.597,13.773z"/>
	<path fill="#43B7FF" d="M15.204,18.416V16.6h-0.006l-0.394,0.201l-0.117-0.382l0.586-0.289h0.448v2.285H15.204z"/>
	<path fill="#43B7FF" d="M14.575,20.779c0-0.644,0.237-1.181,0.785-1.181c0.589,0,0.767,0.598,0.767,1.166
		c0,0.746-0.289,1.185-0.776,1.185C14.768,21.949,14.575,21.354,14.575,20.779z M15.597,20.773c0-0.49-0.075-0.755-0.24-0.755
		c-0.156,0-0.253,0.235-0.253,0.755s0.087,0.754,0.253,0.754C15.483,21.528,15.597,21.396,15.597,20.773z"/>
	<path fill="#43B7FF" d="M15.204,25.416V23.6h-0.006l-0.394,0.201l-0.117-0.382l0.586-0.289h0.448v2.285H15.204z"/>
	<path fill="#43B7FF" d="M14.575,27.779c0-0.644,0.237-1.181,0.785-1.181c0.589,0,0.767,0.598,0.767,1.166
		c0,0.746-0.289,1.185-0.776,1.185C14.768,28.949,14.575,28.354,14.575,27.779z M15.597,27.773c0-0.49-0.075-0.755-0.24-0.755
		c-0.156,0-0.253,0.235-0.253,0.755s0.087,0.754,0.253,0.754C15.483,28.528,15.597,28.396,15.597,27.773z"/>
	<path fill="#43B7FF" d="M15.204,32.416V30.6h-0.006l-0.394,0.201l-0.117-0.382l0.586-0.289h0.448v2.285H15.204z"/>
</g>
<g>
	<path fill="none" stroke="#43B7FF" stroke-width="0.495" stroke-miterlimit="10" d="M11.114,43.452c0,0-2.033,0.232-2.366,1.603
		c-0.334,1.371,1.985,1.559,2.222,0.572s-1.278-2.27-2.621-1.404S5.333,48.1,7.27,48.58c1.935,0.479,1.688-2.16,0.684-2.123
		c-1.003,0.037-1.992,0.422-2.358,2.846"/>
	<path fill="#FFFFFF" stroke="#43B7FF" stroke-width="0.6187" stroke-miterlimit="10" d="M15.181,41.302l-1.59-0.808
		c0,0-0.361-0.075-0.709,0.042c-0.176-1.192,0.329-2.414,1.12-3.641c0.8-1.243,1.719-2.217,2.9-2.536
		c0.04,0.354,0.263,0.631,0.263,0.631l1.313,1.259c0,0,0.405,0.061,0.768-0.506l1.637-2.538c0.364-0.565,0.012-0.705,0.012-0.705
		l-1.59-0.807c0,0-0.134-0.025-0.315-0.023c-2.343-0.713-4.229-0.406-7.018,3.917c-2.944,4.567-2.279,6.236-0.598,8.095
		c0.043,0.069,0.076,0.11,0.076,0.11l1.314,1.259c0,0,0.405,0.061,0.769-0.506l1.637-2.539
		C15.533,41.439,15.181,41.302,15.181,41.302z"/>
</g>
<g>
	<path fill="#43B7FF" d="M18.217,16.018c-0.022-0.643,0.197-1.188,0.744-1.207c0.589-0.02,0.786,0.572,0.806,1.14
		c0.024,0.745-0.249,1.194-0.735,1.21C18.449,17.18,18.236,16.591,18.217,16.018z M19.238,15.978
		c-0.016-0.49-0.101-0.752-0.266-0.747c-0.156,0.005-0.244,0.243-0.227,0.763c0.018,0.52,0.112,0.751,0.277,0.745
		C19.149,16.735,19.259,16.599,19.238,15.978z"/>
	<path fill="#43B7FF" d="M18.334,19.516c-0.021-0.643,0.198-1.188,0.745-1.207c0.589-0.02,0.786,0.572,0.805,1.14
		c0.025,0.745-0.248,1.193-0.735,1.21C18.567,20.678,18.354,20.089,18.334,19.516z M19.356,19.476
		c-0.017-0.49-0.101-0.752-0.266-0.747c-0.156,0.005-0.244,0.243-0.227,0.763c0.018,0.52,0.112,0.751,0.277,0.745
		C19.267,20.233,19.377,20.097,19.356,19.476z"/>
	<path fill="#43B7FF" d="M19.119,24.128l-0.061-1.814h-0.007l-0.386,0.214l-0.131-0.377l0.576-0.309l0.448-0.015l0.077,2.283
		L19.119,24.128z"/>
	<path fill="#43B7FF" d="M19.237,27.626l-0.062-1.814h-0.006l-0.387,0.215l-0.13-0.377l0.576-0.309l0.448-0.015l0.077,2.283
		L19.237,27.626z"/>
	<path fill="#43B7FF" d="M18.689,30.01c-0.022-0.644,0.197-1.188,0.744-1.207c0.589-0.02,0.786,0.572,0.806,1.14
		c0.024,0.745-0.249,1.193-0.736,1.21C18.92,31.172,18.708,30.583,18.689,30.01z M19.709,29.97c-0.017-0.49-0.101-0.752-0.266-0.747
		c-0.156,0.005-0.244,0.244-0.227,0.764c0.018,0.52,0.112,0.751,0.277,0.745C19.621,30.728,19.731,30.591,19.709,29.97z"/>
</g>
<g>
	<linearGradient id="SVGID_1_" gradientUnits="userSpaceOnUse" x1="30.7354" y1="6.8486" x2="36.7077" y2="38.9153">
		<stop  offset="0" style="stop-color:#FFFFFF"/>
		<stop  offset="0.418" style="stop-color:#FCFFFF"/>
		<stop  offset="0.6985" style="stop-color:#F3FFFF"/>
		<stop  offset="0.9381" style="stop-color:#E4FEFF"/>
		<stop  offset="1" style="stop-color:#DFFEFF"/>
	</linearGradient>
	<path fill="url(#SVGID_1_)" d="M49.22,12.501c-0.303,0-0.596,0.028-0.885,0.068c-1.586-1.519-3.73-2.458-6.099-2.458
		c-1.043,0-2.038,0.191-2.965,0.522c0.01-0.173,0.024-0.346,0.024-0.522c0-4.871-3.947-8.82-8.819-8.82
		c-4.872,0-8.821,3.949-8.821,8.82c0,0.1,0.012,0.196,0.016,0.293c-1.198,0.6-2.238,1.46-3.046,2.512
		c-0.445-0.092-0.907-0.14-1.379-0.14c-3.755,0-6.799,3.044-6.799,6.798c0,3.755,3.044,6.8,6.799,6.8c1.202,0,2.33-0.316,3.31-0.863
		c1.37,0.961,3.022,1.537,4.81,1.585c1.612,1.754,3.919,2.862,6.488,2.862c2.659,0,5.037-1.182,6.652-3.042
		c1.137,0.532,2.396,0.837,3.73,0.837c2.368,0,4.513-0.939,6.097-2.458c0.291,0.041,0.584,0.069,0.887,0.069
		c3.552,0,6.432-2.88,6.432-6.432S52.771,12.501,49.22,12.501z"/>
	<path fill="none" stroke="#43B7FF" stroke-width="1.2198" stroke-miterlimit="10" d="M49.22,12.501
		c-0.303,0-0.596,0.028-0.885,0.068c-1.586-1.519-3.73-2.458-6.099-2.458c-1.043,0-2.038,0.191-2.965,0.522
		c0.01-0.173,0.024-0.346,0.024-0.522c0-4.871-3.947-8.82-8.819-8.82c-4.872,0-8.821,3.949-8.821,8.82
		c0,0.1,0.012,0.196,0.016,0.293c-1.198,0.6-2.238,1.46-3.046,2.512c-0.445-0.092-0.907-0.14-1.379-0.14
		c-3.755,0-6.799,3.044-6.799,6.798c0,3.755,3.044,6.8,6.799,6.8c1.202,0,2.33-0.316,3.31-0.863c1.37,0.961,3.022,1.537,4.81,1.585
		c1.612,1.754,3.919,2.862,6.488,2.862c2.659,0,5.037-1.182,6.652-3.042c1.137,0.532,2.396,0.837,3.73,0.837
		c2.368,0,4.513-0.939,6.097-2.458c0.291,0.041,0.584,0.069,0.887,0.069c3.552,0,6.432-2.88,6.432-6.432S52.771,12.501,49.22,12.501
		z"/>
</g>
</svg>
