<?xml version="1.0" encoding="utf-8"?>
<!-- Generator: Adobe Illustrator 15.0.2, SVG Export Plug-In . SVG Version: 6.00 Build 0)  -->
<!DOCTYPE svg PUBLIC "-//W3C//DTD SVG 1.1//EN" "http://www.w3.org/Graphics/SVG/1.1/DTD/svg11.dtd">
<svg version="1.1" id="_x30_5_14_" xmlns="http://www.w3.org/2000/svg" xmlns:xlink="http://www.w3.org/1999/xlink" x="0px" y="0px"
	 width="64px" height="64px" viewBox="0 0 64 64" enable-background="new 0 0 64 64" xml:space="preserve">
<g>
	<g>
		
			<rect x="24.945" y="32.895" fill="none" stroke="#43B7FF" stroke-width="0.9601" stroke-miterlimit="10" width="13.741" height="9.778"/>
		<rect x="24.945" y="32.895" fill="#FFFFFF" width="13.741" height="9.778"/>
	</g>
	<g>
		
			<rect x="26.287" y="34.045" fill="none" stroke="#43B7FF" stroke-width="1.0571" stroke-miterlimit="10" width="11.058" height="7.479"/>
		<rect x="26.287" y="34.045" fill="#FFFFFF" width="11.058" height="7.479"/>
	</g>
	<g>
		<g>
			<polygon fill="none" stroke="#43B7FF" stroke-width="0.9455" stroke-miterlimit="10" points="36.122,47.276 23.698,47.276 
				25.079,44.528 37.504,44.528 			"/>
			<polygon fill="#FFFFFF" points="36.122,47.276 23.698,47.276 25.079,44.528 37.504,44.528 			"/>
		</g>
		
			<line fill="none" stroke="#43B7FF" stroke-width="0.3931" stroke-miterlimit="10" x1="24.16" y1="45.423" x2="37.209" y2="45.423"/>
		
			<line fill="none" stroke="#43B7FF" stroke-width="0.3904" stroke-miterlimit="10" x1="23.698" y1="46.356" x2="36.8" y2="46.356"/>
		<g>
			
				<line fill="none" stroke="#43B7FF" stroke-width="0.4176" stroke-miterlimit="10" x1="24.945" y1="47.532" x2="26.287" y2="44.272"/>
			
				<line fill="none" stroke="#43B7FF" stroke-width="0.4176" stroke-miterlimit="10" x1="26.953" y1="47.532" x2="28.294" y2="44.272"/>
			
				<line fill="none" stroke="#43B7FF" stroke-width="0.4176" stroke-miterlimit="10" x1="28.958" y1="47.532" x2="30.301" y2="44.272"/>
			
				<line fill="none" stroke="#43B7FF" stroke-width="0.4176" stroke-miterlimit="10" x1="30.966" y1="47.532" x2="32.308" y2="44.272"/>
			
				<line fill="none" stroke="#43B7FF" stroke-width="0.4176" stroke-miterlimit="10" x1="32.973" y1="47.532" x2="34.313" y2="44.272"/>
			
				<line fill="none" stroke="#43B7FF" stroke-width="0.4176" stroke-miterlimit="10" x1="34.979" y1="47.532" x2="36.321" y2="44.272"/>
		</g>
	</g>
	<g>
		<g>
			<path fill="none" stroke="#43B7FF" stroke-width="0.767" stroke-miterlimit="10" d="M39.613,47.276
				c-1.471,0-0.972-2.172,0.568-2.748S41.722,47.276,39.613,47.276z"/>
			<path fill="#FFFFFF" d="M39.613,47.276c-1.471,0-0.972-2.172,0.568-2.748S41.722,47.276,39.613,47.276z"/>
		</g>
		
			<line fill="#FFFFFF" stroke="#43B7FF" stroke-width="0.2439" stroke-miterlimit="10" x1="39.987" y1="45.009" x2="40.49" y2="44.411"/>
		<path fill="#FFFFFF" stroke="#43B7FF" stroke-width="0.2439" stroke-miterlimit="10" d="M38.734,45.423c0,0,0.813-0.895,2.54,0"/>
	</g>
</g>
<g>
	<path fill="none" stroke="#43B7FF" stroke-width="0.495" stroke-miterlimit="10" d="M9.546,54.603c0,0-2.033,0.232-2.366,1.603
		c-0.334,1.371,1.985,1.559,2.222,0.572s-1.278-2.27-2.621-1.404s-3.017,3.877-1.08,4.357c1.935,0.479,1.688-2.16,0.684-2.123
		c-1.003,0.037-1.992,0.422-2.358,2.846"/>
	<path fill="#FFFFFF" stroke="#43B7FF" stroke-width="0.6187" stroke-miterlimit="10" d="M13.613,52.452l-1.59-0.808
		c0,0-0.361-0.075-0.709,0.042c-0.176-1.192,0.329-2.414,1.12-3.641c0.8-1.243,1.719-2.217,2.9-2.536
		c0.04,0.354,0.263,0.631,0.263,0.631l1.313,1.259c0,0,0.405,0.061,0.768-0.506l1.637-2.538c0.364-0.565,0.012-0.705,0.012-0.705
		l-1.59-0.808c0,0-0.134-0.025-0.315-0.023c-2.343-0.713-4.229-0.406-7.018,3.918c-2.944,4.567-2.279,6.236-0.598,8.095
		c0.043,0.069,0.076,0.11,0.076,0.11l1.314,1.259c0,0,0.405,0.061,0.769-0.506l1.637-2.539
		C13.965,52.59,13.613,52.452,13.613,52.452z"/>
</g>
<g>
	<path fill="#43B7FF" d="M14.063,23.531c0.023-0.643,0.28-1.172,0.827-1.151c0.588,0.021,0.744,0.626,0.724,1.193
		c-0.027,0.745-0.331,1.173-0.818,1.155C14.212,24.707,14.041,24.105,14.063,23.531z M15.084,23.563
		c0.018-0.49-0.048-0.757-0.213-0.763c-0.156-0.006-0.261,0.226-0.279,0.745c-0.02,0.52,0.059,0.757,0.225,0.763
		C14.942,24.313,15.062,24.185,15.084,23.563z"/>
	<path fill="#43B7FF" d="M13.935,27.029c0.023-0.644,0.28-1.172,0.827-1.151c0.589,0.021,0.745,0.625,0.724,1.192
		c-0.026,0.745-0.331,1.173-0.818,1.155C14.085,28.205,13.914,27.603,13.935,27.029z M14.957,27.061
		c0.018-0.49-0.048-0.757-0.213-0.763c-0.156-0.006-0.261,0.226-0.28,0.745c-0.019,0.52,0.06,0.757,0.226,0.763
		C14.815,27.811,14.934,27.682,14.957,27.061z"/>
	<path fill="#43B7FF" d="M14.395,31.686l0.065-1.814h-0.006l-0.4,0.187l-0.104-0.387l0.596-0.267l0.448,0.017l-0.083,2.283
		L14.395,31.686z"/>
	<path fill="#43B7FF" d="M13.681,34.024c0.023-0.644,0.28-1.172,0.827-1.151c0.588,0.021,0.744,0.625,0.724,1.193
		c-0.027,0.745-0.331,1.173-0.818,1.155C13.83,35.2,13.659,34.599,13.681,34.024z M14.702,34.056
		c0.018-0.49-0.048-0.757-0.213-0.763c-0.156-0.006-0.261,0.226-0.28,0.745c-0.019,0.52,0.06,0.757,0.226,0.763
		C14.561,34.806,14.68,34.678,14.702,34.056z"/>
	<path fill="#43B7FF" d="M14.14,38.681l0.066-1.814h-0.007l-0.4,0.187l-0.104-0.386l0.597-0.268l0.448,0.017l-0.084,2.283
		L14.14,38.681z"/>
	<path fill="#43B7FF" d="M13.426,41.02c0.023-0.643,0.28-1.171,0.827-1.151c0.588,0.021,0.744,0.626,0.724,1.193
		c-0.027,0.745-0.331,1.173-0.818,1.155C13.575,42.195,13.404,41.594,13.426,41.02z M14.447,41.051
		c0.018-0.489-0.048-0.757-0.213-0.763c-0.156-0.006-0.261,0.226-0.279,0.745c-0.02,0.52,0.059,0.757,0.225,0.763
		C14.306,41.801,14.425,41.673,14.447,41.051z"/>
</g>
<g>
	<path fill="#43B7FF" d="M27.875,13.743c-0.017-0.644,0.207-1.188,0.754-1.201c0.589-0.015,0.782,0.579,0.796,1.146
		c0.02,0.745-0.258,1.191-0.745,1.204C28.097,14.907,27.89,14.316,27.875,13.743z M28.896,13.711
		c-0.013-0.49-0.095-0.753-0.26-0.749c-0.156,0.004-0.247,0.241-0.233,0.761c0.013,0.52,0.106,0.752,0.271,0.748
		C28.801,14.468,28.912,14.333,28.896,13.711z"/>
	<path fill="#43B7FF" d="M27.963,17.241c-0.016-0.643,0.207-1.187,0.755-1.201c0.589-0.015,0.781,0.579,0.796,1.146
		c0.019,0.746-0.259,1.192-0.746,1.204C28.185,18.406,27.978,17.815,27.963,17.241z M28.984,17.209
		c-0.012-0.49-0.094-0.752-0.259-0.749c-0.156,0.004-0.247,0.241-0.234,0.761c0.014,0.52,0.106,0.752,0.272,0.748
		C28.89,17.967,29,17.832,28.984,17.209z"/>
	<path fill="#43B7FF" d="M28.709,21.86l-0.046-1.814h-0.007l-0.389,0.211l-0.126-0.378l0.578-0.303l0.448-0.012l0.058,2.284
		L28.709,21.86z"/>
	<path fill="#43B7FF" d="M28.141,24.239c-0.017-0.644,0.207-1.187,0.754-1.201c0.589-0.015,0.782,0.578,0.796,1.146
		c0.02,0.745-0.258,1.191-0.745,1.204C28.362,25.403,28.155,24.813,28.141,24.239z M29.162,24.208
		c-0.013-0.49-0.095-0.753-0.26-0.749c-0.156,0.004-0.247,0.241-0.233,0.761c0.013,0.52,0.106,0.752,0.271,0.748
		C29.066,24.964,29.178,24.829,29.162,24.208z"/>
	<path fill="#43B7FF" d="M28.886,28.858l-0.046-1.815h-0.007l-0.388,0.211l-0.127-0.379l0.578-0.303l0.448-0.012l0.058,2.284
		L28.886,28.858z"/>
	<path fill="#43B7FF" d="M28.317,31.237c-0.017-0.643,0.207-1.187,0.755-1.201c0.589-0.015,0.781,0.579,0.796,1.146
		c0.019,0.746-0.259,1.191-0.746,1.204C28.539,32.401,28.332,31.811,28.317,31.237z M29.339,31.205
		c-0.013-0.49-0.095-0.752-0.26-0.749c-0.156,0.004-0.246,0.241-0.233,0.761c0.013,0.52,0.106,0.752,0.272,0.748
		C29.244,31.962,29.354,31.827,29.339,31.205z"/>
</g>
<g>
	<path fill="#43B7FF" d="M20.947,21.397l0.237-1.8l-0.006-0.001l-0.416,0.148l-0.066-0.394l0.619-0.21l0.444,0.059l-0.299,2.265
		L20.947,21.397z"/>
	<path fill="#43B7FF" d="M20.488,24.868l0.238-1.8l-0.006-0.001l-0.417,0.147l-0.066-0.394l0.619-0.21L21.3,22.67l-0.299,2.266
		L20.488,24.868z"/>
	<path fill="#43B7FF" d="M19.556,27.129c0.084-0.639,0.39-1.14,0.932-1.068c0.584,0.077,0.682,0.693,0.608,1.256
		c-0.098,0.739-0.441,1.138-0.924,1.073C19.594,28.313,19.481,27.698,19.556,27.129z M20.57,27.257
		c0.064-0.486,0.024-0.758-0.14-0.779c-0.155-0.021-0.281,0.199-0.35,0.715c-0.068,0.516-0.012,0.76,0.152,0.781
		C20.358,27.989,20.489,27.873,20.57,27.257z"/>
	<path fill="#43B7FF" d="M19.098,30.599c0.084-0.638,0.39-1.14,0.932-1.068c0.584,0.077,0.682,0.693,0.608,1.257
		c-0.098,0.739-0.441,1.137-0.925,1.072C19.136,31.783,19.023,31.168,19.098,30.599z M20.112,30.727
		c0.064-0.486,0.024-0.758-0.139-0.779c-0.155-0.021-0.281,0.199-0.35,0.715c-0.068,0.516-0.012,0.759,0.152,0.781
		C19.9,31.46,20.03,31.344,20.112,30.727z"/>
	<path fill="#43B7FF" d="M19.114,35.277l0.237-1.8l-0.006-0.001l-0.417,0.147l-0.066-0.394l0.619-0.209l0.444,0.059l-0.299,2.265
		L19.114,35.277z"/>
	<path fill="#43B7FF" d="M18.656,38.747l0.237-1.8l-0.006-0.001l-0.417,0.148L18.405,36.7l0.619-0.209l0.444,0.059l-0.299,2.265
		L18.656,38.747z"/>
	<path fill="#43B7FF" d="M17.724,41.008c0.084-0.638,0.39-1.14,0.933-1.067c0.584,0.076,0.682,0.693,0.607,1.256
		c-0.098,0.739-0.441,1.137-0.924,1.073C17.762,42.193,17.648,41.577,17.724,41.008z M18.738,41.137
		c0.064-0.486,0.024-0.759-0.14-0.78c-0.155-0.021-0.281,0.2-0.349,0.716c-0.068,0.515-0.013,0.759,0.151,0.78
		C18.525,41.869,18.656,41.753,18.738,41.137z"/>
</g>
<g>
	<path fill="#43B7FF" d="M37.927,11.731l0.237-1.8L38.158,9.93l-0.416,0.148l-0.066-0.394l0.618-0.21l0.444,0.059l-0.299,2.265
		L37.927,11.731z"/>
	<path fill="#43B7FF" d="M37.469,15.202l0.237-1.8L37.7,13.401l-0.417,0.147l-0.065-0.394l0.618-0.21l0.444,0.059l-0.299,2.266
		L37.469,15.202z"/>
	<path fill="#43B7FF" d="M36.536,17.462c0.085-0.639,0.391-1.14,0.933-1.068c0.584,0.077,0.682,0.693,0.607,1.256
		c-0.098,0.739-0.44,1.138-0.924,1.073C36.574,18.647,36.461,18.032,36.536,17.462z M37.551,17.59
		c0.063-0.486,0.023-0.758-0.14-0.779c-0.155-0.021-0.281,0.199-0.35,0.715s-0.013,0.76,0.151,0.781
		C37.338,18.323,37.469,18.207,37.551,17.59z"/>
	<path fill="#43B7FF" d="M36.078,20.932c0.084-0.638,0.39-1.14,0.933-1.068c0.584,0.077,0.682,0.693,0.607,1.257
		c-0.098,0.739-0.441,1.137-0.925,1.072C36.116,22.117,36.003,21.501,36.078,20.932z M37.092,21.06
		c0.064-0.486,0.024-0.758-0.139-0.779c-0.155-0.021-0.281,0.199-0.35,0.715s-0.013,0.759,0.151,0.781
		C36.88,21.793,37.011,21.677,37.092,21.06z"/>
	<path fill="#43B7FF" d="M36.095,25.611l0.237-1.8l-0.006-0.001l-0.417,0.147l-0.066-0.394l0.619-0.209l0.444,0.059l-0.299,2.265
		L36.095,25.611z"/>
	<path fill="#43B7FF" d="M35.637,29.081l0.237-1.8l-0.006-0.001l-0.417,0.148l-0.066-0.395l0.619-0.209l0.444,0.059l-0.299,2.265
		L35.637,29.081z"/>
	<path fill="#43B7FF" d="M34.704,31.341c0.084-0.638,0.39-1.14,0.933-1.067c0.584,0.076,0.682,0.693,0.607,1.256
		c-0.098,0.739-0.441,1.137-0.925,1.073C34.742,32.527,34.629,31.911,34.704,31.341z M35.718,31.47
		c0.064-0.486,0.024-0.759-0.14-0.78c-0.154-0.021-0.281,0.2-0.349,0.716c-0.068,0.515-0.013,0.759,0.151,0.78
		C35.506,32.203,35.637,32.086,35.718,31.47z"/>
</g>
<g>
	<linearGradient id="SVGID_1_" gradientUnits="userSpaceOnUse" x1="30.7354" y1="6.8486" x2="36.7077" y2="38.9153">
		<stop  offset="0" style="stop-color:#FFFFFF"/>
		<stop  offset="0.418" style="stop-color:#FCFFFF"/>
		<stop  offset="0.6985" style="stop-color:#F3FFFF"/>
		<stop  offset="0.9381" style="stop-color:#E4FEFF"/>
		<stop  offset="1" style="stop-color:#DFFEFF"/>
	</linearGradient>
	<path fill="url(#SVGID_1_)" d="M49.22,12.501c-0.303,0-0.596,0.028-0.885,0.068c-1.586-1.519-3.73-2.458-6.099-2.458
		c-1.043,0-2.038,0.191-2.965,0.522c0.01-0.173,0.024-0.346,0.024-0.522c0-4.871-3.947-8.82-8.819-8.82
		c-4.872,0-8.821,3.949-8.821,8.82c0,0.1,0.012,0.196,0.016,0.293c-1.198,0.6-2.238,1.46-3.046,2.512
		c-0.445-0.092-0.907-0.14-1.379-0.14c-3.755,0-6.799,3.044-6.799,6.798c0,3.755,3.044,6.8,6.799,6.8c1.202,0,2.33-0.316,3.31-0.863
		c1.37,0.961,3.022,1.537,4.81,1.585c1.612,1.754,3.919,2.862,6.488,2.862c2.659,0,5.037-1.182,6.652-3.042
		c1.137,0.532,2.396,0.837,3.73,0.837c2.368,0,4.513-0.939,6.097-2.458c0.291,0.041,0.584,0.069,0.887,0.069
		c3.552,0,6.432-2.88,6.432-6.432S52.771,12.501,49.22,12.501z"/>
	<path fill="none" stroke="#43B7FF" stroke-width="1.2198" stroke-miterlimit="10" d="M49.22,12.501
		c-0.303,0-0.596,0.028-0.885,0.068c-1.586-1.519-3.73-2.458-6.099-2.458c-1.043,0-2.038,0.191-2.965,0.522
		c0.01-0.173,0.024-0.346,0.024-0.522c0-4.871-3.947-8.82-8.819-8.82c-4.872,0-8.821,3.949-8.821,8.82
		c0,0.1,0.012,0.196,0.016,0.293c-1.198,0.6-2.238,1.46-3.046,2.512c-0.445-0.092-0.907-0.14-1.379-0.14
		c-3.755,0-6.799,3.044-6.799,6.798c0,3.755,3.044,6.8,6.799,6.8c1.202,0,2.33-0.316,3.31-0.863c1.37,0.961,3.022,1.537,4.81,1.585
		c1.612,1.754,3.919,2.862,6.488,2.862c2.659,0,5.037-1.182,6.652-3.042c1.137,0.532,2.396,0.837,3.73,0.837
		c2.368,0,4.513-0.939,6.097-2.458c0.291,0.041,0.584,0.069,0.887,0.069c3.552,0,6.432-2.88,6.432-6.432S52.771,12.501,49.22,12.501
		z"/>
</g>
</svg>
