<?xml version="1.0" encoding="utf-8"?>
<!-- Generator: Adobe Illustrator 15.0.2, SVG Export Plug-In . SVG Version: 6.00 Build 0)  -->
<!DOCTYPE svg PUBLIC "-//W3C//DTD SVG 1.1//EN" "http://www.w3.org/Graphics/SVG/1.1/DTD/svg11.dtd">
<svg version="1.1" id="_x30_8_7_" xmlns="http://www.w3.org/2000/svg" xmlns:xlink="http://www.w3.org/1999/xlink" x="0px" y="0px"
	 width="64px" height="64px" viewBox="0 0 64 64" enable-background="new 0 0 64 64" xml:space="preserve">
<g>
	<rect x="50.684" y="36.375" fill="#43B7FF" width="2.631" height="2.129"/>
	<g>
		<path fill="none" stroke="#43B7FF" stroke-width="1.1828" stroke-miterlimit="10" d="M50.973,43.787
			c0,1.065-0.871,1.937-1.937,1.937h-2.889c-1.065,0-1.937-0.871-1.937-1.937v-8.515c0-1.065,0.871-1.937,1.937-1.937h2.889
			c1.065,0,1.937,0.871,1.937,1.937V43.787z"/>
		<path fill="#FFFFFF" d="M50.973,43.787c0,1.065-0.871,1.937-1.937,1.937h-2.889c-1.065,0-1.937-0.871-1.937-1.937v-8.515
			c0-1.065,0.871-1.937,1.937-1.937h2.889c1.065,0,1.937,0.871,1.937,1.937V43.787z"/>
	</g>
	<g>
		
			<rect x="52.691" y="34.566" fill="none" stroke="#43B7FF" stroke-width="0.9273" stroke-miterlimit="10" width="5.813" height="5.746"/>
		<rect x="52.691" y="34.566" fill="#FFFFFF" width="5.813" height="5.746"/>
	</g>
	<circle fill="#FFFFFF" stroke="#43B7FF" stroke-width="0.9699" stroke-miterlimit="10" cx="47.592" cy="37.018" r="2.319"/>
	<path fill="#43B7FF" d="M49.911,41.821c0-0.139-0.157-0.25-0.353-0.25l0,0c-0.194,0-0.352,0.111-0.352,0.25v2.014
		c0,0.139,0.157,0.25,0.352,0.25l0,0c0.195,0,0.353-0.111,0.353-0.25V41.821z"/>
</g>
<g>
	<g>
		
			<rect x="24.459" y="44.507" fill="none" stroke="#43B7FF" stroke-width="0.9601" stroke-miterlimit="10" width="13.741" height="9.778"/>
		<rect x="24.459" y="44.507" fill="#FFFFFF" width="13.741" height="9.778"/>
	</g>
	<g>
		
			<rect x="25.801" y="45.657" fill="none" stroke="#43B7FF" stroke-width="1.0571" stroke-miterlimit="10" width="11.058" height="7.479"/>
		<rect x="25.801" y="45.657" fill="#FFFFFF" width="11.058" height="7.479"/>
	</g>
	<g>
		<g>
			<polygon fill="none" stroke="#43B7FF" stroke-width="0.9455" stroke-miterlimit="10" points="35.636,58.889 23.212,58.889 
				24.592,56.141 37.018,56.141 			"/>
			<polygon fill="#FFFFFF" points="35.636,58.889 23.212,58.889 24.592,56.141 37.018,56.141 			"/>
		</g>
		
			<line fill="none" stroke="#43B7FF" stroke-width="0.3931" stroke-miterlimit="10" x1="23.673" y1="57.035" x2="36.723" y2="57.035"/>
		
			<line fill="none" stroke="#43B7FF" stroke-width="0.3904" stroke-miterlimit="10" x1="23.212" y1="57.969" x2="36.313" y2="57.969"/>
		<g>
			
				<line fill="none" stroke="#43B7FF" stroke-width="0.4176" stroke-miterlimit="10" x1="24.459" y1="59.145" x2="25.801" y2="55.885"/>
			
				<line fill="none" stroke="#43B7FF" stroke-width="0.4176" stroke-miterlimit="10" x1="26.466" y1="59.145" x2="27.808" y2="55.885"/>
			
				<line fill="none" stroke="#43B7FF" stroke-width="0.4176" stroke-miterlimit="10" x1="28.472" y1="59.145" x2="29.814" y2="55.885"/>
			
				<line fill="none" stroke="#43B7FF" stroke-width="0.4176" stroke-miterlimit="10" x1="30.479" y1="59.145" x2="31.821" y2="55.885"/>
			
				<line fill="none" stroke="#43B7FF" stroke-width="0.4176" stroke-miterlimit="10" x1="32.486" y1="59.145" x2="33.827" y2="55.885"/>
			
				<line fill="none" stroke="#43B7FF" stroke-width="0.4176" stroke-miterlimit="10" x1="34.493" y1="59.145" x2="35.835" y2="55.885"/>
		</g>
	</g>
	<g>
		<g>
			<path fill="none" stroke="#43B7FF" stroke-width="0.767" stroke-miterlimit="10" d="M39.127,58.889
				c-1.471,0-0.972-2.172,0.568-2.748S41.235,58.889,39.127,58.889z"/>
			<path fill="#FFFFFF" d="M39.127,58.889c-1.471,0-0.972-2.172,0.568-2.748S41.235,58.889,39.127,58.889z"/>
		</g>
		
			<line fill="#FFFFFF" stroke="#43B7FF" stroke-width="0.2439" stroke-miterlimit="10" x1="39.501" y1="56.621" x2="40.004" y2="56.023"/>
		<path fill="#FFFFFF" stroke="#43B7FF" stroke-width="0.2439" stroke-miterlimit="10" d="M38.248,57.035c0,0,0.813-0.895,2.54,0"/>
	</g>
</g>
<g>
	<path fill="none" stroke="#43B7FF" stroke-width="0.495" stroke-miterlimit="10" d="M9.546,54.603c0,0-2.033,0.232-2.366,1.603
		c-0.334,1.371,1.985,1.559,2.222,0.572s-1.278-2.27-2.621-1.404s-3.017,3.877-1.08,4.357c1.935,0.479,1.688-2.16,0.684-2.123
		c-1.003,0.037-1.992,0.422-2.358,2.846"/>
	<path fill="#FFFFFF" stroke="#43B7FF" stroke-width="0.6187" stroke-miterlimit="10" d="M13.613,52.452l-1.59-0.808
		c0,0-0.361-0.075-0.709,0.042c-0.176-1.192,0.329-2.414,1.12-3.641c0.8-1.243,1.719-2.217,2.9-2.536
		c0.04,0.354,0.263,0.631,0.263,0.631l1.313,1.259c0,0,0.405,0.061,0.768-0.506l1.637-2.538c0.364-0.565,0.012-0.705,0.012-0.705
		l-1.59-0.808c0,0-0.134-0.025-0.315-0.023c-2.343-0.713-4.229-0.406-7.018,3.918c-2.944,4.567-2.279,6.236-0.598,8.095
		c0.043,0.069,0.076,0.11,0.076,0.11l1.314,1.259c0,0,0.405,0.061,0.769-0.506l1.637-2.539
		C13.965,52.59,13.613,52.452,13.613,52.452z"/>
</g>
<g>
	<path fill="#43B7FF" d="M20.947,21.397l0.237-1.8l-0.006-0.001l-0.416,0.148l-0.066-0.394l0.619-0.21l0.444,0.059l-0.299,2.265
		L20.947,21.397z"/>
	<path fill="#43B7FF" d="M20.488,24.868l0.238-1.8l-0.006-0.001l-0.417,0.147l-0.066-0.394l0.619-0.21L21.3,22.67l-0.299,2.266
		L20.488,24.868z"/>
	<path fill="#43B7FF" d="M20.03,28.338l0.238-1.8l-0.006-0.001l-0.417,0.147l-0.066-0.394l0.619-0.21l0.444,0.059l-0.299,2.266
		L20.03,28.338z"/>
	<path fill="#43B7FF" d="M19.098,30.599c0.084-0.638,0.39-1.14,0.932-1.068c0.584,0.077,0.682,0.693,0.608,1.257
		c-0.098,0.739-0.441,1.137-0.925,1.072C19.136,31.783,19.023,31.168,19.098,30.599z M20.112,30.727
		c0.064-0.486,0.024-0.758-0.139-0.779c-0.155-0.021-0.281,0.199-0.35,0.715c-0.068,0.516-0.012,0.759,0.152,0.781
		C19.9,31.46,20.03,31.344,20.112,30.727z"/>
	<path fill="#43B7FF" d="M18.64,34.068c0.084-0.638,0.39-1.14,0.933-1.067c0.584,0.076,0.682,0.692,0.607,1.256
		c-0.097,0.739-0.441,1.137-0.924,1.072C18.678,35.253,18.564,34.638,18.64,34.068z M19.654,34.196
		c0.064-0.485,0.024-0.758-0.139-0.779c-0.155-0.021-0.281,0.199-0.35,0.715c-0.068,0.516-0.012,0.76,0.152,0.781
		C19.442,34.93,19.572,34.813,19.654,34.196z"/>
	<path fill="#43B7FF" d="M18.656,38.747l0.237-1.8l-0.006-0.001l-0.417,0.148L18.405,36.7l0.619-0.209l0.444,0.059l-0.299,2.265
		L18.656,38.747z"/>
	<path fill="#43B7FF" d="M17.724,41.008c0.084-0.638,0.39-1.14,0.933-1.067c0.584,0.076,0.682,0.693,0.607,1.256
		c-0.098,0.739-0.441,1.137-0.924,1.073C17.762,42.193,17.648,41.577,17.724,41.008z M18.738,41.137
		c0.064-0.486,0.024-0.759-0.14-0.78c-0.155-0.021-0.281,0.2-0.349,0.716c-0.068,0.515-0.013,0.759,0.151,0.78
		C18.525,41.869,18.656,41.753,18.738,41.137z"/>
</g>
<g>
	<path fill="#43B7FF" d="M14.063,23.531c0.023-0.643,0.28-1.172,0.827-1.151c0.588,0.021,0.744,0.626,0.724,1.193
		c-0.027,0.745-0.331,1.173-0.818,1.155C14.212,24.707,14.041,24.105,14.063,23.531z M15.084,23.563
		c0.018-0.49-0.048-0.757-0.213-0.763c-0.156-0.006-0.261,0.226-0.279,0.745c-0.02,0.52,0.059,0.757,0.225,0.763
		C14.942,24.313,15.062,24.185,15.084,23.563z"/>
	<path fill="#43B7FF" d="M13.935,27.029c0.023-0.644,0.28-1.172,0.827-1.151c0.589,0.021,0.745,0.625,0.724,1.192
		c-0.026,0.745-0.331,1.173-0.818,1.155C14.085,28.205,13.914,27.603,13.935,27.029z M14.957,27.061
		c0.018-0.49-0.048-0.757-0.213-0.763c-0.156-0.006-0.261,0.226-0.28,0.745c-0.019,0.52,0.06,0.757,0.226,0.763
		C14.815,27.811,14.934,27.682,14.957,27.061z"/>
	<path fill="#43B7FF" d="M13.808,30.526c0.023-0.643,0.28-1.171,0.827-1.151c0.589,0.021,0.744,0.626,0.724,1.193
		c-0.027,0.745-0.331,1.173-0.818,1.155C13.957,31.703,13.787,31.101,13.808,30.526z M14.829,30.558
		c0.019-0.489-0.048-0.757-0.213-0.763c-0.156-0.006-0.261,0.226-0.279,0.745c-0.02,0.521,0.06,0.757,0.225,0.764
		C14.688,31.308,14.807,31.18,14.829,30.558z"/>
	<path fill="#43B7FF" d="M14.267,35.183l0.066-1.814h-0.007l-0.4,0.187l-0.103-0.386l0.596-0.267l0.448,0.017l-0.083,2.283
		L14.267,35.183z"/>
	<path fill="#43B7FF" d="M13.553,37.522c0.023-0.644,0.28-1.172,0.827-1.152c0.589,0.021,0.744,0.626,0.724,1.193
		c-0.027,0.745-0.331,1.173-0.818,1.155C13.703,38.698,13.532,38.096,13.553,37.522z M14.574,37.554
		c0.019-0.49-0.047-0.757-0.212-0.764c-0.156-0.005-0.262,0.226-0.28,0.746c-0.019,0.52,0.06,0.757,0.225,0.763
		C14.433,38.304,14.552,38.175,14.574,37.554z"/>
	<path fill="#43B7FF" d="M14.012,42.178l0.066-1.813h-0.006l-0.4,0.187l-0.104-0.386l0.596-0.268l0.448,0.017l-0.083,2.283
		L14.012,42.178z"/>
</g>
<g>
	<path fill="#43B7FF" d="M46.442,13.865c0.023-0.643,0.28-1.172,0.827-1.151c0.588,0.021,0.744,0.626,0.724,1.193
		c-0.027,0.745-0.331,1.173-0.818,1.155C46.592,15.041,46.421,14.439,46.442,13.865z M47.464,13.896
		c0.018-0.49-0.048-0.757-0.213-0.763c-0.156-0.006-0.261,0.226-0.279,0.745c-0.02,0.52,0.059,0.757,0.225,0.763
		C47.322,14.646,47.441,14.518,47.464,13.896z"/>
	<path fill="#43B7FF" d="M46.314,17.363c0.023-0.644,0.28-1.172,0.827-1.151c0.589,0.021,0.745,0.625,0.724,1.192
		c-0.026,0.745-0.331,1.173-0.818,1.155C46.465,18.539,46.294,17.936,46.314,17.363z M47.337,17.394
		c0.018-0.49-0.048-0.757-0.213-0.763c-0.156-0.006-0.261,0.226-0.28,0.745c-0.019,0.52,0.06,0.757,0.226,0.763
		C47.195,18.144,47.313,18.015,47.337,17.394z"/>
	<path fill="#43B7FF" d="M46.188,20.86c0.023-0.643,0.28-1.171,0.827-1.151c0.589,0.021,0.744,0.626,0.724,1.193
		c-0.027,0.745-0.331,1.173-0.818,1.155C46.337,22.037,46.167,21.434,46.188,20.86z M47.209,20.891
		c0.019-0.489-0.048-0.757-0.213-0.763c-0.156-0.006-0.261,0.226-0.279,0.745c-0.02,0.521,0.06,0.757,0.225,0.764
		C47.067,21.641,47.187,21.513,47.209,20.891z"/>
	<path fill="#43B7FF" d="M46.646,25.516l0.066-1.814h-0.007l-0.4,0.187l-0.103-0.386l0.596-0.267l0.448,0.017l-0.083,2.283
		L46.646,25.516z"/>
	<path fill="#43B7FF" d="M45.933,27.856c0.023-0.644,0.28-1.172,0.827-1.152c0.589,0.021,0.744,0.626,0.724,1.193
		c-0.027,0.745-0.331,1.173-0.818,1.155C46.083,29.032,45.912,28.429,45.933,27.856z M46.954,27.887
		c0.019-0.49-0.047-0.757-0.212-0.764c-0.156-0.005-0.262,0.226-0.28,0.746c-0.019,0.52,0.06,0.757,0.225,0.763
		C46.813,28.637,46.932,28.508,46.954,27.887z"/>
	<path fill="#43B7FF" d="M46.392,32.511l0.066-1.813h-0.006l-0.4,0.187l-0.104-0.386l0.596-0.268l0.448,0.017l-0.083,2.283
		L46.392,32.511z"/>
</g>
<g>
	<path fill="#43B7FF" d="M27.672,24.791c-0.043-0.642,0.159-1.194,0.705-1.23c0.588-0.039,0.804,0.546,0.842,1.113
		c0.049,0.744-0.21,1.201-0.696,1.233C27.941,25.945,27.709,25.363,27.672,24.791z M28.692,24.717
		c-0.032-0.489-0.125-0.748-0.29-0.737c-0.155,0.01-0.236,0.251-0.202,0.77s0.137,0.747,0.302,0.736
		C28.626,25.478,28.733,25.338,28.692,24.717z"/>
	<path fill="#43B7FF" d="M27.902,28.283c-0.042-0.642,0.159-1.194,0.706-1.229c0.587-0.039,0.804,0.546,0.841,1.113
		c0.049,0.744-0.21,1.201-0.696,1.233C28.17,29.437,27.94,28.856,27.902,28.283z M28.921,28.209
		c-0.032-0.488-0.125-0.748-0.289-0.737c-0.156,0.01-0.237,0.251-0.203,0.77c0.034,0.519,0.137,0.747,0.302,0.736
		C28.857,28.97,28.962,28.831,28.921,28.209z"/>
	<path fill="#43B7FF" d="M28.131,31.775c-0.042-0.642,0.16-1.194,0.706-1.23c0.587-0.039,0.804,0.546,0.841,1.113
		c0.05,0.744-0.209,1.201-0.695,1.233C28.401,32.93,28.169,32.348,28.131,31.775z M29.152,31.703
		c-0.032-0.489-0.125-0.749-0.29-0.738c-0.155,0.01-0.236,0.251-0.202,0.77s0.137,0.747,0.302,0.736
		C29.086,32.463,29.192,32.323,29.152,31.703z"/>
	<path fill="#43B7FF" d="M29.064,36.36l-0.119-1.812h-0.007l-0.38,0.228l-0.142-0.374l0.565-0.326l0.447-0.029l0.15,2.279
		L29.064,36.36z"/>
	<path fill="#43B7FF" d="M28.591,38.761c-0.042-0.643,0.159-1.194,0.706-1.23c0.587-0.039,0.804,0.547,0.841,1.113
		c0.049,0.744-0.21,1.201-0.696,1.233C28.86,39.915,28.629,39.333,28.591,38.761z M29.611,38.688
		c-0.032-0.489-0.124-0.748-0.289-0.737c-0.155,0.01-0.237,0.251-0.203,0.77c0.034,0.52,0.138,0.747,0.303,0.736
		C29.546,39.448,29.652,39.309,29.611,38.688z"/>
	<path fill="#43B7FF" d="M29.524,43.346l-0.119-1.812h-0.007l-0.38,0.227l-0.142-0.373l0.565-0.326l0.447-0.029l0.15,2.279
		L29.524,43.346z"/>
</g>
<g>
	<path fill="#43B7FF" d="M36.554,22.23l0.237-1.8l-0.007-0.001l-0.416,0.148l-0.066-0.394l0.619-0.21l0.444,0.059l-0.299,2.265
		L36.554,22.23z"/>
	<path fill="#43B7FF" d="M36.095,25.701l0.238-1.8L36.326,23.9l-0.416,0.147l-0.066-0.394l0.619-0.21l0.444,0.059l-0.3,2.266
		L36.095,25.701z"/>
	<path fill="#43B7FF" d="M35.637,29.171l0.238-1.8l-0.007-0.001l-0.416,0.147l-0.066-0.394l0.619-0.21l0.444,0.059l-0.3,2.266
		L35.637,29.171z"/>
	<path fill="#43B7FF" d="M34.705,31.432c0.084-0.638,0.39-1.14,0.932-1.068c0.584,0.077,0.683,0.693,0.608,1.257
		c-0.098,0.739-0.441,1.137-0.925,1.072C34.742,32.616,34.63,32.001,34.705,31.432z M35.719,31.56
		c0.064-0.486,0.023-0.758-0.14-0.779c-0.155-0.021-0.281,0.199-0.35,0.715c-0.067,0.516-0.012,0.759,0.152,0.781
		C35.507,32.293,35.637,32.177,35.719,31.56z"/>
	<path fill="#43B7FF" d="M34.246,34.901c0.085-0.638,0.391-1.14,0.933-1.067c0.584,0.076,0.683,0.692,0.607,1.256
		c-0.097,0.739-0.44,1.137-0.924,1.072C34.284,36.086,34.171,35.471,34.246,34.901z M35.261,35.029
		c0.063-0.485,0.023-0.758-0.14-0.779c-0.155-0.021-0.281,0.199-0.35,0.715c-0.067,0.516-0.012,0.76,0.152,0.781
		C35.049,35.763,35.179,35.646,35.261,35.029z"/>
	<path fill="#43B7FF" d="M34.263,39.58l0.237-1.8l-0.006-0.001l-0.417,0.148l-0.065-0.395l0.618-0.209l0.444,0.059l-0.299,2.265
		L34.263,39.58z"/>
	<path fill="#43B7FF" d="M33.33,41.841c0.085-0.638,0.391-1.14,0.933-1.067c0.584,0.076,0.682,0.693,0.607,1.256
		c-0.098,0.739-0.44,1.137-0.924,1.073C33.368,43.026,33.255,42.41,33.33,41.841z M34.345,41.97c0.063-0.486,0.023-0.759-0.14-0.78
		c-0.155-0.021-0.281,0.2-0.35,0.716c-0.068,0.515-0.013,0.759,0.151,0.78C34.132,42.702,34.263,42.586,34.345,41.97z"/>
</g>
<g>
	<path fill="#43B7FF" d="M49.553,20.765c0.084-0.638,0.39-1.14,0.933-1.068c0.584,0.077,0.682,0.693,0.607,1.257
		c-0.098,0.739-0.441,1.137-0.925,1.072C49.591,21.949,49.478,21.334,49.553,20.765z M50.566,20.893
		c0.064-0.486,0.024-0.758-0.139-0.779c-0.155-0.021-0.281,0.199-0.35,0.715s-0.013,0.759,0.151,0.781
		C50.354,21.626,50.485,21.51,50.566,20.893z"/>
	<path fill="#43B7FF" d="M49.095,24.234c0.084-0.638,0.39-1.14,0.933-1.067c0.584,0.076,0.682,0.692,0.607,1.256
		c-0.098,0.739-0.441,1.137-0.925,1.072C49.133,25.419,49.02,24.804,49.095,24.234z M50.108,24.362
		c0.064-0.485,0.024-0.758-0.139-0.779c-0.155-0.021-0.281,0.199-0.35,0.715s-0.013,0.76,0.151,0.781
		C49.896,25.096,50.027,24.979,50.108,24.362z"/>
	<path fill="#43B7FF" d="M49.111,28.913l0.237-1.8l-0.006-0.001l-0.417,0.148l-0.066-0.395l0.619-0.209l0.444,0.059l-0.299,2.265
		L49.111,28.913z"/>
	<path fill="#43B7FF" d="M48.179,31.174c0.084-0.638,0.39-1.14,0.933-1.067c0.584,0.076,0.682,0.693,0.607,1.256
		c-0.098,0.739-0.441,1.137-0.925,1.073C48.217,32.359,48.104,31.743,48.179,31.174z M49.192,31.303
		c0.064-0.486,0.024-0.759-0.14-0.78c-0.154-0.021-0.281,0.2-0.349,0.716c-0.068,0.515-0.013,0.759,0.151,0.78
		C48.98,32.035,49.111,31.919,49.192,31.303z"/>
</g>
<g>
	<linearGradient id="SVGID_1_" gradientUnits="userSpaceOnUse" x1="30.7354" y1="6.8486" x2="36.7077" y2="38.9153">
		<stop  offset="0" style="stop-color:#FFFFFF"/>
		<stop  offset="0.418" style="stop-color:#FCFFFF"/>
		<stop  offset="0.6985" style="stop-color:#F3FFFF"/>
		<stop  offset="0.9381" style="stop-color:#E4FEFF"/>
		<stop  offset="1" style="stop-color:#DFFEFF"/>
	</linearGradient>
	<path fill="url(#SVGID_1_)" d="M49.22,12.501c-0.303,0-0.596,0.028-0.885,0.068c-1.586-1.519-3.73-2.458-6.099-2.458
		c-1.043,0-2.038,0.191-2.965,0.522c0.01-0.173,0.024-0.346,0.024-0.522c0-4.871-3.947-8.82-8.819-8.82
		c-4.872,0-8.821,3.949-8.821,8.82c0,0.1,0.012,0.196,0.016,0.293c-1.198,0.6-2.238,1.46-3.046,2.512
		c-0.445-0.092-0.907-0.14-1.379-0.14c-3.755,0-6.799,3.044-6.799,6.798c0,3.755,3.044,6.8,6.799,6.8c1.202,0,2.33-0.316,3.31-0.863
		c1.37,0.961,3.022,1.537,4.81,1.585c1.612,1.754,3.919,2.862,6.488,2.862c2.659,0,5.037-1.182,6.652-3.042
		c1.137,0.532,2.396,0.837,3.73,0.837c2.368,0,4.513-0.939,6.097-2.458c0.291,0.041,0.584,0.069,0.887,0.069
		c3.552,0,6.432-2.88,6.432-6.432S52.771,12.501,49.22,12.501z"/>
	<path fill="none" stroke="#43B7FF" stroke-width="1.2198" stroke-miterlimit="10" d="M49.22,12.501
		c-0.303,0-0.596,0.028-0.885,0.068c-1.586-1.519-3.73-2.458-6.099-2.458c-1.043,0-2.038,0.191-2.965,0.522
		c0.01-0.173,0.024-0.346,0.024-0.522c0-4.871-3.947-8.82-8.819-8.82c-4.872,0-8.821,3.949-8.821,8.82
		c0,0.1,0.012,0.196,0.016,0.293c-1.198,0.6-2.238,1.46-3.046,2.512c-0.445-0.092-0.907-0.14-1.379-0.14
		c-3.755,0-6.799,3.044-6.799,6.798c0,3.755,3.044,6.8,6.799,6.8c1.202,0,2.33-0.316,3.31-0.863c1.37,0.961,3.022,1.537,4.81,1.585
		c1.612,1.754,3.919,2.862,6.488,2.862c2.659,0,5.037-1.182,6.652-3.042c1.137,0.532,2.396,0.837,3.73,0.837
		c2.368,0,4.513-0.939,6.097-2.458c0.291,0.041,0.584,0.069,0.887,0.069c3.552,0,6.432-2.88,6.432-6.432S52.771,12.501,49.22,12.501
		z"/>
</g>
</svg>
