<?xml version="1.0" encoding="utf-8"?>
<!-- Generator: Adobe Illustrator 15.0.2, SVG Export Plug-In . SVG Version: 6.00 Build 0)  -->
<!DOCTYPE svg PUBLIC "-//W3C//DTD SVG 1.1//EN" "http://www.w3.org/Graphics/SVG/1.1/DTD/svg11.dtd">
<svg version="1.1" id="_x30_3" xmlns="http://www.w3.org/2000/svg" xmlns:xlink="http://www.w3.org/1999/xlink" x="0px" y="0px"
	 width="64px" height="64px" viewBox="0 0 64 64" enable-background="new 0 0 64 64" xml:space="preserve">
<path fill="#F19500" stroke="#330E03" stroke-width="1.5614" stroke-miterlimit="10" d="M29.228,59.543l1.681-1.821l-5.604-7.729
	L23.436,50.6l3.737,7.022l-1.961,2.729c-2.71-0.809-7.567,2.023-7.567,2.023h8.967l1.518-1.645l2.499,0.33L29.228,59.543z"/>
<g>
	<path fill="#FFFFFF" stroke="#330E03" stroke-width="1.5534" stroke-miterlimit="10" d="M25.576,34.945l1.955,0.718
		c0,0,3.369-9.34,11.03-7.325l-0.285,1.091c0,0,5.851-5.834,10.937-4.84l-0.18,1.098l3.825,0.581c0,0-1.874,2.429-2.799,3.479
		c0,0,3.98,1.478,2.939,5.959l-3.269-0.878l0.634,1.816l-2.359-0.042c0,0,1.645,6.098-0.835,9.597l-1.396-3.307
		c0,0,1.068,3.398-1.385,6.458l-0.881-4.608c0,0,0.697,4.151-2.958,7.576l-0.824-3.826c0,0-0.065,4.322-2.26,6.731l-5.206-2.443
		l-0.201,1.429l-4.139-2.377"/>
	
		<line fill="none" stroke="#CDCCCB" stroke-width="1.5534" stroke-miterlimit="10" x1="31.123" y1="52.351" x2="31.193" y2="51.271"/>
	<path fill="none" stroke="#CDCCCB" stroke-width="1.5534" stroke-miterlimit="10" d="M36.944,53.712c0,0,1.354-0.306,2.09-11.688"
		/>
	
		<line fill="none" stroke="#CDCCCB" stroke-width="1.5534" stroke-miterlimit="10" x1="41.418" y1="49.37" x2="42.652" y2="45.017"/>
	
		<line fill="none" stroke="#CDCCCB" stroke-width="1.5534" stroke-miterlimit="10" x1="44.799" y1="45.746" x2="44.47" y2="43.459"/>
	
		<line fill="none" stroke="#CDCCCB" stroke-width="1.5534" stroke-miterlimit="10" x1="47.14" y1="41.956" x2="46.775" y2="35.823"/>
	
		<line fill="none" stroke="#CDCCCB" stroke-width="1.5534" stroke-miterlimit="10" x1="48.628" y1="35.155" x2="48.427" y2="33.861"/>
</g>
<g>
	<g>
		<path fill="#C20D23" stroke="#330E03" stroke-width="1.5684" stroke-miterlimit="10" d="M20.154,14.831
			c0,0,1.568-6.802,2.753-6.526c1.184,0.276,2.83,2.678,2.83,2.678s0.758-2.94,1.689-0.736c0.934,2.204-0.258,5.402-0.258,5.402
			l-1.146,2.904C26.021,18.553,23.986,14.691,20.154,14.831z"/>
		<path fill="#C20D23" stroke="#330E03" stroke-width="1.5684" stroke-miterlimit="10" d="M18.559,19.745l0.807,2.864
			c0,0-3.926,7.411-5.967,7.914c0,0-5.636,4.563-5.211,1.028c0.424-3.536,5.896-6.427,5.896-6.427S13.621,20.675,18.559,19.745z"/>
		<path fill="#FFFFFF" stroke="#330E03" stroke-width="1.5684" stroke-miterlimit="10" d="M29.814,51.551
			c-4.345,2.043-6.925-1.073-6.925-1.073l-0.608,1.674c0,0-20.745-8.812-7.358-24.911c0,0,0.969-3.906,2.637-5.183l-2.793-4.128
			l0.608-1.675c0,0,3.324-2.679,6.952-1.539c6.961,2.188,7.073,7.376,5.585,18.373l0.264,2.735"/>
		<path fill="#F6B42C" stroke="#330E03" stroke-width="1.5614" stroke-miterlimit="10" d="M17.229,20.888l-0.835-4.568
			c0,0-1.227-2.642-5.001-1.49L17.229,20.888z"/>
		
			<ellipse transform="matrix(0.8945 0.447 -0.447 0.8945 11.3735 -8.8167)" fill="none" stroke="#330E03" stroke-width="0.7842" stroke-miterlimit="10" cx="24.37" cy="19.693" rx="0.987" ry="1.491"/>
		
			<line fill="none" stroke="#F85A83" stroke-width="2.3526" stroke-miterlimit="10" x1="22.585" y1="23.396" x2="24.018" y2="23.175"/>
		
			<line fill="none" stroke="#F85A83" stroke-width="2.3526" stroke-miterlimit="10" x1="23.584" y1="24.247" x2="25.668" y2="24.351"/>
		<path fill="none" stroke="#CDCCCB" stroke-width="1.5684" stroke-miterlimit="10" d="M19.002,22.427c0,0-2.357,1.869-2.845,5.491
			c0,0-4.716,4.555-4.396,10.223c0.321,5.666,6.454,10.485,10.5,12.155"/>
	</g>
	<g>
		<polygon fill="none" stroke="#330E03" stroke-width="1.9518" stroke-miterlimit="10" points="15.424,21.421 12.737,21.101 
			14.336,19.437 		"/>
		<polygon fill="#F6B42C" points="15.424,21.421 12.737,21.101 14.336,19.437 		"/>
	</g>
</g>
</svg>
