<?xml version="1.0" encoding="utf-8"?>
<!-- Generator: Adobe Illustrator 15.0.2, SVG Export Plug-In . SVG Version: 6.00 Build 0)  -->
<!DOCTYPE svg PUBLIC "-//W3C//DTD SVG 1.1//EN" "http://www.w3.org/Graphics/SVG/1.1/DTD/svg11.dtd">
<svg version="1.1" id="_x30_5_1_" xmlns="http://www.w3.org/2000/svg" xmlns:xlink="http://www.w3.org/1999/xlink" x="0px" y="0px"
	 width="64px" height="64px" viewBox="0 0 64 64" enable-background="new 0 0 64 64" xml:space="preserve">
<path fill="#F19500" stroke="#330E03" stroke-width="1.5614" stroke-miterlimit="10" d="M29.228,59.543l1.681-1.821l-4.764-8.835
	l-1.868,0.607l2.896,8.128l-1.961,2.729c-2.71-0.809-7.567,2.023-7.567,2.023h8.967l1.518-1.645l2.499,0.33L29.228,59.543z"/>
<g>
	<g>
		<path fill="#C20D23" stroke="#330E03" stroke-width="1.5906" stroke-miterlimit="10" d="M25.55,10.803
			c0,0,3.105-6.433,4.192-5.875c1.089,0.557,2.133,3.352,2.133,3.352s1.419-2.76,1.813-0.333c0.396,2.426-1.504,5.343-1.504,5.343
			l-1.789,2.633C30.396,15.922,29.31,11.574,25.55,10.803z"/>
		<path fill="#C20D23" stroke="#330E03" stroke-width="1.5906" stroke-miterlimit="10" d="M22.859,15.341l0.12,3.057
			c0,0-5.54,6.481-7.642,6.499c0,0-6.541,3.227-5.307-0.209c1.233-3.438,7.226-5.029,7.226-5.029S17.84,15.098,22.859,15.341z"/>
		<path fill="#FFFFFF" stroke="#330E03" stroke-width="1.5906" stroke-miterlimit="10" d="M28.859,30.916
			c3.998-10.649,5.093-15.867-1.169-19.712c-3.263-2.003-7.119-0.113-7.119-0.113l-0.979,1.531l1.758,4.795
			c-1.918,0.88-3.768,4.558-3.768,4.558C0.824,34.902,18.958,48.65,18.958,48.65l1.19-1.166c0,0,0.41,3.411,1.961,4.482l2.168-1.071
			c0,0,2.02,0.389,3.427-0.076s2.552-1.667,2.552-1.667L33.742,32C33.742,32,29.948,30.684,28.859,30.916z"/>
		<path fill="#F6B42C" stroke="#330E03" stroke-width="1.5835" stroke-miterlimit="10" d="M21.3,16.167l0.248-4.769
			c0,0-0.58-2.935-4.519-2.68L21.3,16.167z"/>
		<path fill="none" stroke="#330E03" stroke-width="0.7953" stroke-miterlimit="10" d="M29.28,17.322
			c-0.529,0.649-1.298,0.885-1.715,0.525s-0.327-1.179,0.201-1.828c0.529-0.648,1.296-0.884,1.714-0.524
			C29.897,15.854,29.808,16.673,29.28,17.322z"/>
		
			<line fill="none" stroke="#F85A83" stroke-width="2.3858" stroke-miterlimit="10" x1="25.927" y1="19.951" x2="27.372" y2="20.071"/>
		
			<line fill="none" stroke="#F85A83" stroke-width="2.3858" stroke-miterlimit="10" x1="26.702" y1="21.04" x2="28.705" y2="21.64"/>
		<path fill="none" stroke="#CDCCCB" stroke-width="1.5906" stroke-miterlimit="10" d="M22.667,18.129c0,0-2.727,1.309-4.042,4.818
			c0,0-5.645,3.436-6.648,9.183c-1.002,5.747,3.844,12.028,7.392,14.66"/>
	</g>
	<g>
		<polygon fill="none" stroke="#330E03" stroke-width="1.9794" stroke-miterlimit="10" points="19.42,16.272 16.88,15.313 
			18.823,14.028 		"/>
		<polygon fill="#F6B42C" points="19.42,16.272 16.88,15.313 18.823,14.028 		"/>
	</g>
</g>
<g>
	<path fill="#FFFFFF" stroke="#330E03" stroke-width="1.5671" stroke-miterlimit="10" d="M30.332,31.072l1.525,1.485
		c0,0,6.977-7.008,13.278-1.91l-0.715,0.865c0,0,7.845-2.776,12.168,0.298l-0.618,0.917l3.319,2.161c0,0-2.741,1.396-4.035,1.95
		c0,0,3.097,3.039,0.284,6.647l-2.681-2.191L52.7,43.209l-2.179-1.047c0,0-0.978,6.22-4.725,8.324l0.062-3.588
		c0,0-0.403,3.531-3.944,5.25l1.075-4.547c0,0-1.059,4.055-5.868,5.59l0.806-3.813c0,0-1.838,3.881-4.871,5.123l-3.84-4.437
		l-0.775,1.206l-1.739-1.106"/>
	
		<line fill="none" stroke="#CDCCCB" stroke-width="1.5671" stroke-miterlimit="10" x1="28.117" y1="49.991" x2="28.626" y2="49.047"/>
	<path fill="none" stroke="#CDCCCB" stroke-width="1.5671" stroke-miterlimit="10" d="M33.191,52.91c0,0,1.385,0.302,6.752-9.68"/>
	
		<line fill="none" stroke="#CDCCCB" stroke-width="1.5671" stroke-miterlimit="10" x1="39.14" y1="50.896" x2="42.079" y2="47.484"/>
	
		<line fill="none" stroke="#CDCCCB" stroke-width="1.5671" stroke-miterlimit="10" x1="43.777" y1="49.063" x2="44.411" y2="46.853"/>
	
		<line fill="none" stroke="#CDCCCB" stroke-width="1.5671" stroke-miterlimit="10" x1="47.515" y1="46.635" x2="49.699" y2="40.931"/>
	
		<line fill="none" stroke="#CDCCCB" stroke-width="1.5671" stroke-miterlimit="10" x1="51.697" y1="41.119" x2="52.043" y2="39.862"/>
</g>
</svg>
