<?xml version="1.0" encoding="utf-8"?>
<!-- Generator: Adobe Illustrator 15.0.2, SVG Export Plug-In . SVG Version: 6.00 Build 0)  -->
<!DOCTYPE svg PUBLIC "-//W3C//DTD SVG 1.1//EN" "http://www.w3.org/Graphics/SVG/1.1/DTD/svg11.dtd">
<svg version="1.1" id="_x30_6" xmlns="http://www.w3.org/2000/svg" xmlns:xlink="http://www.w3.org/1999/xlink" x="0px" y="0px"
	 width="64px" height="64px" viewBox="0 0 64 64" enable-background="new 0 0 64 64" xml:space="preserve">
<path fill="#F19500" stroke="#330E03" stroke-width="1.5614" stroke-miterlimit="10" d="M29.228,59.543l1.681-1.821l-4.764-10.104
	l-1.868,0.607l2.896,9.396l-1.961,2.729c-2.71-0.809-7.567,2.023-7.567,2.023h8.967l1.518-1.645l2.499,0.33L29.228,59.543z"/>
<g>
	<g>
		<path fill="#C20D23" stroke="#330E03" stroke-width="1.6259" stroke-miterlimit="10" d="M27.214,8.363c0,0,3.819-6.97,4.826-6.419
			c1.009,0.548,1.71,3.481,1.71,3.481s1.724-2.994,1.828-0.428c0.104,2.567-2.115,5.747-2.115,5.747l-2.074,2.874
			C31.389,13.617,30.831,9.034,27.214,8.363z"/>
		<path fill="#C20D23" stroke="#330E03" stroke-width="1.6867" stroke-miterlimit="10" d="M24.115,12.959l-0.012,3.324
			c0,0-6.011,6.158-8.184,5.854c0,0-6.903,2.484-5.476-1.042c1.426-3.529,7.69-4.328,7.69-4.328S18.938,11.925,24.115,12.959z"/>
		<path fill="#FFFFFF" stroke="#330E03" stroke-width="1.621" stroke-miterlimit="10" d="M20.401,46.229
			c0,0-0.175,5.162,1.592,6.153l6.652-3.25c0,0,5.954-12.967,4.461-17.134c-0.336-2.063-3.788-2.75-3.788-2.75
			c4.354-10.997,5.63-16.417-0.438-20.667c-3.162-2.214-7.053-0.377-7.053-0.377L20.8,9.771l1.568,5.081
			c-1.934,0.852-3.901,4.633-3.901,4.633c-17.085,12.917,0.387,27.962,0.387,27.962l1.028-1.564"/>
		<path fill="#F6B42C" stroke="#330E03" stroke-width="1.6489" stroke-miterlimit="10" d="M21.519,12.905l1.469-5.004
			c0,0,0.171-3.165-3.832-3.351L21.519,12.905z"/>
		<path fill="none" stroke="#330E03" stroke-width="0.8105" stroke-miterlimit="10" d="M30.231,15.041
			c-0.547,0.66-1.317,0.879-1.718,0.486c-0.4-0.391-0.281-1.245,0.267-1.905s1.317-0.878,1.718-0.487
			C30.899,13.528,30.781,14.381,30.231,15.041z"/>
		
			<line fill="none" stroke="#F85A83" stroke-width="2.4315" stroke-miterlimit="10" x1="26.813" y1="17.67" x2="28.241" y2="17.848"/>
		
			<line fill="none" stroke="#F85A83" stroke-width="2.4315" stroke-miterlimit="10" x1="27.541" y1="18.838" x2="29.504" y2="19.539"/>
		<path fill="none" stroke="#CDCCCB" stroke-width="1.621" stroke-miterlimit="10" d="M23.648,15.646c0,0-2.751,1.27-4.184,4.894
			c0,0-5.721,3.391-6.926,9.366c-1.205,5.977,3.37,12.725,6.792,15.611"/>
	</g>
	<g>
		<polygon fill="none" stroke="#330E03" stroke-width="2.0172" stroke-miterlimit="10" points="20.689,13.678 18.206,12.582 
			20.178,11.309 		"/>
		<polygon fill="#F6B42C" points="20.689,13.678 18.206,12.582 20.178,11.309 		"/>
	</g>
</g>
<g>
	<path fill="#FFFFFF" stroke="#330E03" stroke-width="1.5671" stroke-miterlimit="10" d="M31.851,30.281l1.346,1.649
		c0,0,7.607-8.191,13.41-0.389l-0.81,0.778c0,0,8.11-1.866,12.055,1.681l-0.717,0.84l3.052,2.524c0,0-2.882,1.075-4.231,1.479
		c0,0,2.731,3.372-0.473,6.637l-2.414-2.482l-0.374,1.885l-2.046-1.288c0,0-1.678,6.068-5.641,7.733l0.47-3.558
		c0,0-0.803,3.462-4.516,4.768l1.585-4.396c0,0-1.512,3.907-6.466,4.887l1.234-3.697c0,0-2.267,3.646-5.422,4.536l-3.311-4.845
		l-0.907,1.11l-2.929,0.722"/>
	<line fill="none" stroke="#CDCCCB" stroke-miterlimit="10" x1="26.989" y1="49.782" x2="28.446" y2="47.647"/>
	<path fill="none" stroke="#CDCCCB" stroke-width="1.5671" stroke-miterlimit="10" d="M32.301,52.38c0,0,1.345,0.444,7.729-8.919"/>
	
		<line fill="none" stroke="#CDCCCB" stroke-width="1.5671" stroke-miterlimit="10" x1="38.428" y1="50.999" x2="41.708" y2="47.915"/>
	
		<line fill="none" stroke="#CDCCCB" stroke-width="1.5671" stroke-miterlimit="10" x1="43.231" y1="49.662" x2="44.094" y2="47.531"/>
	
		<line fill="none" stroke="#CDCCCB" stroke-width="1.5671" stroke-miterlimit="10" x1="47.203" y1="47.64" x2="49.974" y2="42.195"/>
	
		<line fill="none" stroke="#CDCCCB" stroke-width="1.5671" stroke-miterlimit="10" x1="51.94" y1="42.593" x2="52.416" y2="41.379"/>
</g>
</svg>
