<?xml version="1.0" encoding="utf-8"?>
<!-- Generator: Adobe Illustrator 15.0.2, SVG Export Plug-In . SVG Version: 6.00 Build 0)  -->
<!DOCTYPE svg PUBLIC "-//W3C//DTD SVG 1.1//EN" "http://www.w3.org/Graphics/SVG/1.1/DTD/svg11.dtd">
<svg version="1.1" id="_x30_3_8_" xmlns="http://www.w3.org/2000/svg" xmlns:xlink="http://www.w3.org/1999/xlink" x="0px" y="0px"
	 width="64px" height="64px" viewBox="0 0 64 64" enable-background="new 0 0 64 64" xml:space="preserve">
<g id="_x30_3_6_">
	<g>
		<g>
			<path d="M12.174,38.463c-0.643-1.678-0.552-5.832,2.352-5.148c1.765,0.415,2.793,2.589,3.592,4.017
				c1.591,2.845,3.597,4.268,6.865,3.671c2.627-0.48,0.819-4.866-1.4-3.32c-1.643,1.145-3.95-3.396-4.766-4.426
				c-1.219-1.542-3.053-2.627-5.028-2.658c-3.899-0.06-5.728,6.574-2.167,8.289C11.887,39.014,12.303,38.8,12.174,38.463
				L12.174,38.463z"/>
		</g>
	</g>
</g>
<path fill="#9CDAF1" d="M49.608,52.727c0,3.356-7.777,6.078-17.366,6.078c-9.592,0-17.366-2.722-17.366-6.078
	s7.774-6.077,17.366-6.077C41.831,46.649,49.608,49.37,49.608,52.727L49.608,52.727z M49.608,52.727"/>
<g>
	<defs>
		<path id="SVGID_1_" d="M49.608,52.727c0,3.356-7.777,6.078-17.366,6.078c-9.592,0-17.366-2.722-17.366-6.078
			s7.774-6.077,17.366-6.077C41.831,46.649,49.608,49.37,49.608,52.727L49.608,52.727z M49.608,52.727"/>
	</defs>
	<clipPath id="SVGID_2_">
		<use xlink:href="#SVGID_1_"  overflow="visible"/>
	</clipPath>
	<path clip-path="url(#SVGID_2_)" fill="#7DBBE6" d="M36.977,69.6c1.389-0.428,4.867-2.987,4.523-5.885
		c-0.211-1.778-2.093-9.465-2.093-9.465s0.153-1.852,1.852-2.468c0,0,1.003-0.695-0.077-1.081c0,0-4.706-0.387-4.706,3.473
		c0,0,1.89,8.544,1.69,9.541C38,64.548,36,66.132,35.549,65.438c-0.549-2.806,0-9.297,0-9.297s0.076-2.238,1.234-3.087
		c0,0,0.772-1.39-0.925-1.004c0,0-3.241,0.464-3.396,4.244c0,0-0.129,6.421-0.074,9.492c-0.123,0.151-0.64,0.137-0.778,0
		c-0.193-4.071-0.074-9.492-0.074-9.492c-0.154-3.78-3.395-4.244-3.395-4.244c-1.698-0.386-0.926,1.004-0.926,1.004
		c1.157,0.849,1.234,3.087,1.234,3.087s0.883,6.491,0,9.379c-1.283-0.055-2.302-1.524-2.283-2.721
		c0.017-1.067,1.357-8.549,1.357-8.549c0-3.859-4.707-3.473-4.707-3.473c-1.081,0.386-0.078,1.081-0.078,1.081
		c1.698,0.616,1.853,2.468,1.853,2.468s-2.508,8.057-2.008,10.723c0.404,2.155,3.382,4.235,4.457,4.563
		C29.417,70.335,34.603,70.33,36.977,69.6z"/>
</g>
<g id="_x30_3_7_">
	<path d="M27.04,34.438c-1.074,0.327-4.052,2.407-4.457,4.563c-0.5,2.666,2.008,8.215,2.008,8.215s-0.154,1.852-1.853,2.468
		c0,0-1.003,0.695,0.078,1.081c0,0,4.707,0.387,4.707-3.473c0,0-1.341-4.974-1.357-6.041c-0.019-1.196,1-2.666,2.283-2.721
		c0.883,2.888,0,9.379,0,9.379s-0.077,2.238-1.234,3.087c0,0-0.772,1.39,0.926,1.004c0,0,3.24-0.464,3.395-4.244
		c0,0-0.119-5.421,0.074-9.492c0.138-0.137,0.655-0.151,0.778,0c-0.055,3.071,0.074,9.492,0.074,9.492
		c0.154,3.78,3.396,4.244,3.396,4.244c1.697,0.386,0.925-1.004,0.925-1.004c-1.158-0.849-1.234-3.087-1.234-3.087
		s-0.549-6.491,0-9.297C36,37.917,38,39.501,38.166,40.334c0.199,0.997-1.69,6.957-1.69,6.957c0,3.859,4.706,3.473,4.706,3.473
		c1.08-0.386,0.077-1.081,0.077-1.081c-1.698-0.616-1.852-2.468-1.852-2.468s1.882-5.103,2.093-6.881
		c0.344-2.897-3.135-5.457-4.523-5.885C34.603,33.719,29.417,33.714,27.04,34.438z"/>
</g>
<g>
	<path fill="#C3E4D8" d="M10.666,33.479c0.188,0.042,0.292,0.294,0.234,0.565c-0.059,0.27-0.259,0.457-0.446,0.417
		c-0.189-0.042-0.292-0.295-0.234-0.565C10.279,33.626,10.478,33.438,10.666,33.479L10.666,33.479z M10.666,33.479"/>
	<path fill="#C3E4D8" d="M11.746,31.975c0.16,0.106,0.167,0.38,0.013,0.611c-0.152,0.23-0.407,0.332-0.566,0.228
		c-0.159-0.106-0.167-0.379-0.013-0.611C11.332,31.972,11.586,31.87,11.746,31.975L11.746,31.975z M11.746,31.975"/>
	<path fill="#C3E4D8" d="M13.652,31.141c0.055,0.183-0.116,0.397-0.382,0.477c-0.265,0.078-0.524-0.009-0.579-0.192
		c-0.054-0.184,0.116-0.397,0.381-0.476C13.338,30.872,13.598,30.958,13.652,31.141L13.652,31.141z M13.652,31.141"/>
	<path fill="#C3E4D8" d="M15.811,31.63c-0.026,0.188-0.271,0.312-0.543,0.272c-0.275-0.039-0.476-0.224-0.449-0.414
		c0.027-0.191,0.271-0.313,0.545-0.274C15.637,31.253,15.838,31.438,15.811,31.63L15.811,31.63z M15.811,31.63"/>
	<path fill="#C3E4D8" d="M17.602,32.978c-0.135,0.135-0.405,0.088-0.599-0.11c-0.196-0.196-0.244-0.467-0.108-0.601
		c0.136-0.136,0.406-0.085,0.602,0.111C17.691,32.574,17.738,32.842,17.602,32.978L17.602,32.978z M17.602,32.978"/>
	<path fill="#C3E4D8" d="M18.79,34.758c-0.161,0.108-0.415,0.006-0.568-0.224c-0.154-0.231-0.149-0.504,0.012-0.61
		c0.159-0.107,0.413-0.006,0.566,0.225C18.953,34.379,18.949,34.652,18.79,34.758L18.79,34.758z M18.79,34.758"/>
	<path fill="#C3E4D8" d="M19.913,36.554c-0.164,0.1-0.413-0.012-0.557-0.248c-0.145-0.237-0.129-0.51,0.034-0.609
		c0.165-0.101,0.414,0.011,0.559,0.248C20.093,36.181,20.077,36.453,19.913,36.554L19.913,36.554z M19.913,36.554"/>
	<path fill="#C3E4D8" d="M21.181,37.79c-0.118,0.15-0.391,0.134-0.608-0.036c-0.219-0.172-0.3-0.433-0.182-0.583
		c0.119-0.151,0.391-0.135,0.61,0.036C21.219,37.378,21.3,37.639,21.181,37.79L21.181,37.79z M21.181,37.79"/>
	<path fill="#C3E4D8" d="M22.484,38.55c-0.059,0.184-0.32,0.264-0.583,0.18c-0.265-0.084-0.431-0.301-0.372-0.484
		c0.058-0.183,0.319-0.264,0.584-0.179C22.376,38.15,22.542,38.367,22.484,38.55L22.484,38.55z M22.484,38.55"/>
</g>
<g>
	<path d="M36.977,34.449c7.006-0.695,10.369-2.958,11.919-6.473c3.068,0.084,8.536-0.408,13.819,1.082l0.062-0.222
		c-5.253-1.481-10.685-0.999-13.783-1.089c0.146-0.355,0.274-0.724,0.389-1.104c3.141-0.134,8.338-0.999,13.452,0.024l0,0
		l0.046-0.228c-5.095-1.019-10.267-0.162-13.43-0.031c0.52-1.872,0.675-4.026,0.675-6.428c0-3.445-1.293-6.201-3.395-8.299
		c0.367-1.185,1.534-3.563,0.187-6.932c0,0-3.054-1.01-8.431,2.589c-2.107-0.527-4.349-0.786-6.593-0.786
		c-2.47,0-4.966,0.314-7.294,0.953c-5.549-3.787-8.266-2.589-8.266-2.589c-1.599,3.998-0.343,6.537-0.042,7.272
		c-1.879,2.028-3.026,4.618-3.026,7.792c0,2.396,0.272,4.546,0.938,6.414c-3.189-0.116-8.003-1.271-12.916-0.289l0.046,0.228
		c4.941-0.989,9.788,0.177,12.957,0.296c0.147,0.387,0.311,0.763,0.494,1.125c-3.135,0.101-8.264-0.699-13.395,0.748l0.063,0.222
		c5.17-1.458,10.347-0.648,13.452-0.743c1.873,3.492,5.565,5.746,12.136,6.455 M62.834,26.667"/>
	<path fill="#F4CBB2" d="M43.271,19.818c1.509,1.367,2.392,3.018,2.392,4.797c0,8.306-6.19,8.53-13.827,8.53
		c-7.638,0-13.828-1.15-13.828-8.53c0-1.767,0.87-3.408,2.361-4.77c2.486-2.269,6.693-1.067,11.467-1.067
		C36.591,18.778,40.782,17.564,43.271,19.818L43.271,19.818z M43.271,19.818"/>
	<path fill="#AD5B50" d="M32.597,28.717c0,0.397-0.322,0.72-0.72,0.72s-0.72-0.322-0.72-0.72s0.322-0.719,0.72-0.719
		S32.597,28.319,32.597,28.717L32.597,28.717z M32.597,28.717"/>
	<path fill="#AD5B50" d="M30.2,30.536c-0.042-0.121,0.021-0.253,0.141-0.295c0.121-0.043,0.253,0.021,0.295,0.141
		c0.186,0.523,0.682,0.874,1.234,0.874c0.554,0,1.05-0.351,1.235-0.874c0.042-0.121,0.175-0.184,0.295-0.141
		c0.12,0.042,0.184,0.174,0.141,0.295c-0.25,0.707-0.922,1.182-1.671,1.182C31.122,31.718,30.451,31.243,30.2,30.536L30.2,30.536z
		 M30.2,30.536"/>
	<path fill="#FFFFFF" d="M27.237,25.039c0,2.288-1.288,4.142-2.876,4.142c-1.59,0-2.879-1.854-2.879-4.142
		c0-2.287,1.289-4.141,2.879-4.141C25.949,20.898,27.237,22.751,27.237,25.039L27.237,25.039z M27.237,25.039"/>
	<path fill="#AD5B50" d="M26.314,25.09c0,1.525-0.859,2.761-1.918,2.761c-1.06,0-1.918-1.236-1.918-2.761
		c0-1.525,0.858-2.762,1.918-2.762C25.455,22.329,26.314,23.565,26.314,25.09L26.314,25.09z M26.314,25.09"/>
	<path fill="#FFFFFF" d="M42.674,25.039c0,2.288-1.288,4.142-2.878,4.142c-1.589,0-2.877-1.854-2.877-4.142
		c0-2.287,1.288-4.141,2.877-4.141C41.386,20.898,42.674,22.751,42.674,25.039L42.674,25.039z M42.674,25.039"/>
	<path fill="#AD5B50" d="M41.751,25.09c0,1.525-0.859,2.761-1.919,2.761s-1.919-1.236-1.919-2.761c0-1.525,0.859-2.762,1.919-2.762
		S41.751,23.565,41.751,25.09L41.751,25.09z M41.751,25.09"/>
</g>
</svg>
