<?xml version="1.0" encoding="utf-8"?>
<!-- Generator: Adobe Illustrator 15.0.2, SVG Export Plug-In . SVG Version: 6.00 Build 0)  -->
<!DOCTYPE svg PUBLIC "-//W3C//DTD SVG 1.1//EN" "http://www.w3.org/Graphics/SVG/1.1/DTD/svg11.dtd">
<svg version="1.1" id="_x30_4_7_" xmlns="http://www.w3.org/2000/svg" xmlns:xlink="http://www.w3.org/1999/xlink" x="0px" y="0px"
	 width="64px" height="64px" viewBox="0 0 64 64" enable-background="new 0 0 64 64" xml:space="preserve">
<path fill="#9CDAF1" d="M49.608,52.727c0,3.356-7.777,6.078-17.366,6.078c-9.592,0-17.366-2.722-17.366-6.078
	s7.774-6.077,17.366-6.077C41.831,46.649,49.608,49.37,49.608,52.727L49.608,52.727z"/>
<g>
	<defs>
		<path id="SVGID_1_" d="M49.608,52.727c0,3.356-7.777,6.078-17.366,6.078c-9.592,0-17.366-2.722-17.366-6.078
			s7.774-6.077,17.366-6.077C41.831,46.649,49.608,49.37,49.608,52.727L49.608,52.727z"/>
	</defs>
	<clipPath id="SVGID_2_">
		<use xlink:href="#SVGID_1_"  overflow="visible"/>
	</clipPath>
	<path clip-path="url(#SVGID_2_)" fill="#7DBBE6" d="M36.977,69.678c0.773-1.468,4.951-5.403,4.607-8.301
		c-0.211-1.778-2.177-7.078-2.177-7.078s0.153-1.852,1.852-2.468c0,0,1.003-0.695-0.077-1.081c0,0-4.706-0.387-4.706,3.473
		c0,0,1.974,6.157,1.774,7.154c-0.166,0.833-2.25,4.833-2.701,4.139c-1.215-2.889,0-9.297,0-9.297s0.076-2.238,1.234-3.087
		c0,0,0.772-1.39-0.925-1.004c0,0-3.241,0.464-3.396,4.244c0,0-0.379,6.088-0.074,9.492c0.018,0.193-0.807,0.191-0.778,0
		c0.473-3.154-0.074-9.492-0.074-9.492c-0.154-3.78-3.395-4.244-3.395-4.244c-1.698-0.386-0.926,1.004-0.926,1.004
		c1.157,0.849,1.234,3.087,1.234,3.087s1.383,6.741,0,9.379c-1.283-0.055-2.385-4.108-2.367-5.305
		c0.017-1.067,1.441-6.07,1.441-6.07c0-3.859-4.707-3.473-4.707-3.473c-1.081,0.386-0.078,1.081-0.078,1.081
		c1.698,0.616,1.853,2.468,1.853,2.468S22,59.877,22.5,62.543c0.404,2.155,3.5,6.167,4.54,7.146
		C28.849,71.393,35.818,71.875,36.977,69.678z"/>
</g>
<g id="_x30_4_5_">
	<g>
		<g>
			<g>
				<path d="M9.625,32.508c4.875-0.086,3.605,6.165,6.646,8.532c2.922,2.273,8.24,1.118,9.904-2.139
					c0.266-0.521-0.172-1.252-0.802-1.044c-0.872,0.289-0.997,0.345-1.595,1.061c-1.719,2.062-3.424,2.354-5.678,1.103
					c-2.127-1.182-2.657-2.441-3.417-4.542c-0.832-2.303-2.477-4.466-5.149-3.632C9.179,31.958,9.235,32.515,9.625,32.508
					L9.625,32.508z"/>
			</g>
		</g>
		<g>
			<g>
				<path d="M9.673,32.061c0,0.048,0,0.096,0,0.145c0.001,0.206,0.135,0.353,0.32,0.42c3.003,1.093,2.702,4.225,4.088,6.567
					c1.073,1.813,2.383,2.887,4.357,3.591c3.366,1.2,9.365-2.306,9.507-5.833c0.013-0.313-0.27-0.569-0.571-0.571
					c-2.278-0.017-3.383,1.925-5.228,3.124c-4.996,3.249-7.057-3.782-8.926-6.602C12.932,32.465,9.668,30.76,9.673,32.061
					L9.673,32.061z"/>
			</g>
		</g>
	</g>
</g>
<g id="_x30_4_6_">
	<path d="M27.04,34.438c-1.04,0.979-4.136,4.991-4.54,7.146c-0.5,2.666,2.092,5.631,2.092,5.631s-0.154,1.852-1.853,2.468
		c0,0-1.003,0.695,0.078,1.081c0,0,4.707,0.387,4.707-3.473c0,0-1.424-2.39-1.441-3.457c-0.019-1.196,1.083-5.25,2.367-5.305
		c1.383,2.638,0,9.379,0,9.379s-0.077,2.238-1.234,3.087c0,0-0.772,1.39,0.926,1.004c0,0,3.24-0.464,3.395-4.244
		c0,0,0.547-6.338,0.074-9.492c-0.029-0.191,0.796-0.193,0.778,0c-0.305,3.404,0.074,9.492,0.074,9.492
		c0.154,3.78,3.396,4.244,3.396,4.244c1.697,0.386,0.925-1.004,0.925-1.004c-1.158-0.849-1.234-3.087-1.234-3.087
		s-1.215-6.408,0-9.297c0.451-0.694,2.535,3.306,2.701,4.139c0.199,0.997-1.774,4.541-1.774,4.541c0,3.859,4.706,3.473,4.706,3.473
		c1.08-0.386,0.077-1.081,0.077-1.081c-1.698-0.616-1.852-2.468-1.852-2.468s1.966-2.687,2.177-4.465
		c0.344-2.897-3.834-6.833-4.607-8.301C35.818,32.252,28.849,32.734,27.04,34.438z"/>
	<g>
		<path fill="#C3E4D8" d="M11.997,32.657c0.12-0.15,0.393-0.132,0.61,0.039c0.217,0.171,0.297,0.435,0.179,0.585
			c-0.121,0.152-0.394,0.131-0.61-0.039C11.959,33.069,11.878,32.808,11.997,32.657L11.997,32.657z M11.997,32.657"/>
		<path fill="#C3E4D8" d="M13.785,34.798c-0.17,0.09-0.414-0.036-0.541-0.283c-0.129-0.244-0.095-0.516,0.074-0.604
			c0.169-0.089,0.413,0.036,0.541,0.283C13.987,34.438,13.954,34.71,13.785,34.798L13.785,34.798z M13.785,34.798"/>
		<path fill="#C3E4D8" d="M14.504,36.695c-0.18,0.063-0.402-0.098-0.494-0.359c-0.09-0.262-0.016-0.524,0.165-0.588
			c0.181-0.063,0.402,0.098,0.492,0.358C14.758,36.368,14.685,36.632,14.504,36.695L14.504,36.695z M14.504,36.695"/>
		<path fill="#C3E4D8" d="M15.532,38.362c-0.162,0.1-0.412-0.011-0.556-0.246c-0.145-0.237-0.131-0.509,0.033-0.609
			c0.165-0.102,0.415,0.009,0.559,0.245C15.712,37.989,15.698,38.262,15.532,38.362L15.532,38.362z M15.532,38.362"/>
		<path fill="#C3E4D8" d="M16.776,39.781c-0.14,0.131-0.407,0.073-0.595-0.131c-0.188-0.203-0.227-0.475-0.087-0.604
			c0.141-0.131,0.409-0.07,0.597,0.132C16.879,39.382,16.917,39.65,16.776,39.781L16.776,39.781z M16.776,39.781"/>
		<path fill="#C3E4D8" d="M18.362,40.605c-0.062,0.183-0.325,0.258-0.587,0.169c-0.263-0.088-0.426-0.307-0.365-0.489
			c0.061-0.182,0.324-0.257,0.586-0.168C18.259,40.205,18.423,40.424,18.362,40.605L18.362,40.605z M18.362,40.605"/>
		<path fill="#C3E4D8" d="M20.008,40.875c0,0.191-0.225,0.347-0.501,0.347c-0.278,0-0.503-0.155-0.503-0.347
			c0-0.192,0.225-0.348,0.503-0.348C19.784,40.527,20.008,40.683,20.008,40.875L20.008,40.875z M20.008,40.875"/>
		<path fill="#C3E4D8" d="M21.608,40.512c0.043,0.187-0.141,0.389-0.41,0.451c-0.271,0.063-0.525-0.038-0.568-0.225
			c-0.043-0.188,0.14-0.39,0.411-0.452C21.311,40.224,21.565,40.324,21.608,40.512L21.608,40.512z M21.608,40.512"/>
		<path fill="#C3E4D8" d="M23.028,39.963c0.055,0.184-0.116,0.397-0.381,0.477c-0.267,0.079-0.525-0.007-0.581-0.191
			c-0.054-0.183,0.115-0.396,0.382-0.476C22.714,39.693,22.974,39.779,23.028,39.963L23.028,39.963z M23.028,39.963"/>
	</g>
	<g>
		<path d="M36.977,34.449c7.006-0.695,10.369-2.958,11.919-6.473c3.068,0.084,8.406,0.319,13.689,1.81l0.062-0.222
			c-5.253-1.481-10.555-1.727-13.653-1.816c0.146-0.355,0.274-0.724,0.389-1.104c3.141-0.134,8.208-0.271,13.322,0.751l0,0
			l0.046-0.228c-5.095-1.019-10.137-0.89-13.3-0.758c0.52-1.872,0.675-4.026,0.675-6.428c0-3.445-1.293-6.201-3.395-8.299
			c0.367-1.185,1.451-2.813,0.104-6.182c0,0-2.971-1.76-8.348,1.839c-2.107-0.527-4.349-0.786-6.593-0.786
			c-2.47,0-4.966,0.314-7.294,0.953c-5.549-3.787-7.933-1.673-7.933-1.673c-1.599,3.998-0.677,5.62-0.376,6.355
			c-1.879,2.028-3.026,4.618-3.026,7.792c0,2.396,0.272,4.546,0.938,6.414c-3.189-0.116-7.958-0.127-12.87,0.855l0.046,0.228
			c4.941-0.989,9.742-0.967,12.911-0.848c0.147,0.387,0.311,0.763,0.494,1.125c-3.135,0.101-8.218,0.445-13.349,1.892l0.063,0.222
			c5.17-1.458,10.301-1.792,13.406-1.887c1.873,3.492,5.565,5.746,12.136,6.455 M62.704,27.395"/>
		<path fill="#F4CBB2" d="M43.271,19.818c1.509,1.367,2.392,3.018,2.392,4.797c0,8.306-6.19,8.53-13.827,8.53
			c-7.638,0-13.828-1.15-13.828-8.53c0-1.767,0.87-3.408,2.361-4.77c2.486-2.269,6.693-1.067,11.467-1.067
			C36.591,18.778,40.782,17.564,43.271,19.818L43.271,19.818z M43.271,19.818"/>
		<path fill="#FFFFFF" d="M27.237,25.039c0,2.288-1.288,4.142-2.876,4.142c-1.59,0-2.879-1.854-2.879-4.142
			c0-2.287,1.289-4.141,2.879-4.141C25.949,20.898,27.237,22.751,27.237,25.039L27.237,25.039z M27.237,25.039"/>
		<path fill="#AD5B50" d="M26.314,25.09c0,1.525-0.859,2.761-1.918,2.761c-1.06,0-1.918-1.236-1.918-2.761
			c0-1.525,0.858-2.762,1.918-2.762C25.455,22.329,26.314,23.565,26.314,25.09L26.314,25.09z M26.314,25.09"/>
		<path fill="#FFFFFF" d="M42.674,25.039c0,2.288-1.288,4.142-2.878,4.142c-1.589,0-2.877-1.854-2.877-4.142
			c0-2.287,1.288-4.141,2.877-4.141C41.386,20.898,42.674,22.751,42.674,25.039L42.674,25.039z M42.674,25.039"/>
		<path fill="#AD5B50" d="M41.751,25.09c0,1.525-0.859,2.761-1.919,2.761s-1.919-1.236-1.919-2.761c0-1.525,0.859-2.762,1.919-2.762
			S41.751,23.565,41.751,25.09L41.751,25.09z M41.751,25.09"/>
		<path fill="#AD5B50" d="M32.597,28.717c0,0.397-0.322,0.72-0.72,0.72s-0.72-0.322-0.72-0.72s0.322-0.719,0.72-0.719
			S32.597,28.319,32.597,28.717L32.597,28.717z M32.597,28.717"/>
		<path fill="#AD5B50" d="M30.2,30.536c-0.042-0.121,0.021-0.253,0.141-0.295c0.121-0.043,0.253,0.021,0.295,0.141
			c0.186,0.523,0.682,0.874,1.234,0.874c0.554,0,1.05-0.351,1.235-0.874c0.042-0.121,0.175-0.184,0.295-0.141
			c0.12,0.042,0.184,0.174,0.141,0.295c-0.25,0.707-0.922,1.182-1.671,1.182C31.122,31.718,30.451,31.243,30.2,30.536L30.2,30.536z
			 M30.2,30.536"/>
	</g>
</g>
</svg>
