<?xml version="1.0" encoding="utf-8"?>
<!-- Generator: Adobe Illustrator 15.0.2, SVG Export Plug-In . SVG Version: 6.00 Build 0)  -->
<!DOCTYPE svg PUBLIC "-//W3C//DTD SVG 1.1//EN" "http://www.w3.org/Graphics/SVG/1.1/DTD/svg11.dtd">
<svg version="1.1" id="_x30_5_6_" xmlns="http://www.w3.org/2000/svg" xmlns:xlink="http://www.w3.org/1999/xlink" x="0px" y="0px"
	 width="64px" height="64px" viewBox="0 0 64 64" enable-background="new 0 0 64 64" xml:space="preserve">
<g id="_x30_5_4_">
	<g>
		<g>
			<path d="M13.392,33.441c-1.44,2.715-5.433,7.889-0.865,10.26c2.184,1.133,4.287,1.285,6.646,0.635
				c1.202-0.331,2.294-1.043,3.28-1.775c0.713-0.53,1.444-1.989,2.407-1.324c1.452,1.003,2.662-1.077,1.735-2.249
				c-2.431-3.075-4.948,0.565-7.054,1.937c-2.711,1.766-8.548,0.935-6.463-3.449c0.667-1.403,1.543-2.321,1.204-3.917
				C14.195,33.147,13.584,33.078,13.392,33.441L13.392,33.441z"/>
		</g>
	</g>
	<g>
		<path fill="#C3E4D8" d="M12.214,37.98c0.187,0.045,0.287,0.299,0.225,0.568c-0.063,0.27-0.267,0.454-0.453,0.41
			c-0.188-0.044-0.287-0.3-0.225-0.568C11.825,38.121,12.027,37.937,12.214,37.98L12.214,37.98z M12.214,37.98"/>
		<path fill="#C3E4D8" d="M12.01,40.032c0.179-0.071,0.407,0.079,0.51,0.337c0.103,0.256,0.042,0.523-0.135,0.595
			c-0.178,0.071-0.407-0.078-0.51-0.337C11.771,40.37,11.833,40.104,12.01,40.032L12.01,40.032z M12.01,40.032"/>
		<path fill="#C3E4D8" d="M14.019,42.248c-0.121,0.147-0.394,0.127-0.609-0.049c-0.213-0.175-0.288-0.438-0.167-0.586
			c0.121-0.148,0.394-0.128,0.607,0.048C14.064,41.837,14.14,42.1,14.019,42.248L14.019,42.248z M14.019,42.248"/>
		<path fill="#C3E4D8" d="M16.207,42.58c-0.022,0.188-0.265,0.315-0.538,0.282c-0.276-0.034-0.48-0.216-0.457-0.405
			c0.024-0.192,0.266-0.319,0.541-0.286C16.027,42.206,16.231,42.387,16.207,42.58L16.207,42.58z M16.207,42.58"/>
		<path fill="#C3E4D8" d="M18.829,42.137c0.027,0.189-0.173,0.376-0.448,0.414c-0.273,0.039-0.519-0.084-0.545-0.273
			c-0.027-0.19,0.175-0.376,0.449-0.415C18.559,41.824,18.802,41.946,18.829,42.137L18.829,42.137z M18.829,42.137"/>
		<path fill="#C3E4D8" d="M20.696,40.986c0.08,0.175-0.06,0.41-0.312,0.525c-0.252,0.115-0.521,0.067-0.601-0.107
			c-0.08-0.174,0.06-0.408,0.312-0.524C20.347,40.765,20.617,40.813,20.696,40.986L20.696,40.986z M20.696,40.986"/>
		<path fill="#C3E4D8" d="M22.335,39.56c0.12,0.148,0.043,0.411-0.171,0.585c-0.216,0.176-0.488,0.196-0.609,0.048
			c-0.121-0.149-0.044-0.412,0.171-0.588C21.941,39.431,22.213,39.41,22.335,39.56L22.335,39.56z M22.335,39.56"/>
		<path fill="#C3E4D8" d="M13.002,36.349c0.169,0.091,0.2,0.362,0.07,0.605c-0.13,0.246-0.374,0.371-0.542,0.28
			c-0.17-0.09-0.201-0.361-0.07-0.606C12.589,36.383,12.833,36.258,13.002,36.349L13.002,36.349z M22.722,39.084"/>
		<path fill="#C3E4D8" d="M23.991,38.56c0.073,0.178-0.076,0.408-0.331,0.513c-0.257,0.105-0.524,0.046-0.597-0.132
			c-0.073-0.177,0.075-0.406,0.332-0.512C23.651,38.323,23.918,38.383,23.991,38.56L23.991,38.56z M23.991,38.56"/>
	</g>
</g>
<path fill="#9CDAF1" d="M49.608,52.727c0,3.356-7.777,6.078-17.366,6.078c-9.592,0-17.366-2.722-17.366-6.078
	s7.774-6.077,17.366-6.077C41.831,46.649,49.608,49.37,49.608,52.727L49.608,52.727z"/>
<g>
	<defs>
		<path id="SVGID_1_" d="M49.608,52.727c0,3.356-7.777,6.078-17.366,6.078c-9.592,0-17.366-2.722-17.366-6.078
			s7.774-6.077,17.366-6.077C41.831,46.649,49.608,49.37,49.608,52.727L49.608,52.727z"/>
	</defs>
	<clipPath id="SVGID_2_">
		<use xlink:href="#SVGID_1_"  overflow="visible"/>
	</clipPath>
	<path clip-path="url(#SVGID_2_)" fill="#7DBBE6" d="M36.977,69.571c0.357-2.385,3.524-7.904,4.607-11.987
		c0.459-1.73-2.177-3.285-2.177-3.285s0.153-1.852,1.852-2.468c0,0,1.003-0.695-0.077-1.081c0,0-4.706-0.387-4.706,3.473
		c0,0,0.942,1.611,1.108,2.777c-0.166,0.833-1.584,9.104-2.035,8.409c0.535-2.889,0-9.297,0-9.297s0.076-2.238,1.234-3.087
		c0,0,0.772-1.39-0.925-1.004c0,0-3.241,0.464-3.396,4.244c0,0,0.454,6.921-0.074,9.492c-0.039,0.19-0.741,0.19-0.778,0
		c-0.61-3.154-0.074-9.492-0.074-9.492c-0.154-3.78-3.395-4.244-3.395-4.244c-1.698-0.386-0.926,1.004-0.926,1.004
		c1.157,0.849,1.234,3.087,1.234,3.087s-0.95,5.741,0,9.379c-1.283-0.055-2.635-7.587-2.617-8.783
		c0.833-1.333,1.691-2.541,1.691-2.541c0-3.859-4.707-3.473-4.707-3.473c-1.081,0.386-0.078,1.081-0.078,1.081
		c1.698,0.616,1.853,2.468,1.853,2.468s-3.429,1.208-1.925,3.465C24,59.708,26,68.604,27.04,69.583
		C28.849,71.286,36.608,72.028,36.977,69.571z"/>
</g>
<g id="_x30_5_5_">
	<path d="M27.04,34.438C26,35.417,24,41.75,22.667,43.75c-1.504,2.257,1.925,3.465,1.925,3.465s-0.154,1.852-1.853,2.468
		c0,0-1.003,0.695,0.078,1.081c0,0,4.707,0.387,4.707-3.473c0,0-0.857-1.208-1.691-2.541c-0.019-1.196,1.333-6.166,2.617-6.221
		c-0.95,3.638,0,9.379,0,9.379s-0.077,2.238-1.234,3.087c0,0-0.772,1.39,0.926,1.004c0,0,3.24-0.464,3.395-4.244
		c0,0-0.536-6.338,0.074-9.492c0.037-0.19,0.739-0.19,0.778,0c0.528,2.571,0.074,9.492,0.074,9.492
		c0.154,3.78,3.396,4.244,3.396,4.244c1.697,0.386,0.925-1.004,0.925-1.004c-1.158-0.849-1.234-3.087-1.234-3.087
		s0.535-6.408,0-9.297c0.451-0.694,1.785,5.89,1.951,6.723c-0.166,1.166-1.024,1.957-1.024,1.957c0,3.859,4.706,3.473,4.706,3.473
		c1.08-0.386,0.077-1.081,0.077-1.081c-1.698-0.616-1.852-2.468-1.852-2.468s2.552-0.734,2.093-2.465
		c-1.083-4.083-4.166-7.916-4.523-10.301C36.608,31.993,28.849,32.734,27.04,34.438z"/>
	<g>
		<path d="M36.977,34.449c7.006-0.695,10.369-2.958,11.919-6.473c3.068,0.084,8.49-0.098,13.773,1.393l0.062-0.222
			c-5.253-1.481-10.639-1.31-13.737-1.399c0.146-0.355,0.274-0.724,0.389-1.104c3.141-0.134,8.292-0.688,13.406,0.334l0,0
			l0.046-0.228c-5.095-1.019-10.221-0.473-13.384-0.341c0.52-1.872,0.675-4.026,0.675-6.428c0-3.445-1.293-6.201-3.395-8.299
			c0.367-1.185,0.701-3.979-0.646-7.349c0,0-2.221-0.593-7.598,3.006c-2.107-0.527-4.349-0.786-6.593-0.786
			c-2.47,0-4.966,0.314-7.294,0.953C19.051,3.72,16.917,4.5,16.917,4.5c-1.599,3.998-0.927,6.954-0.626,7.689
			c-1.879,2.028-3.026,4.618-3.026,7.792c0,2.396,0.272,4.546,0.938,6.414c-3.189-0.116-8.17-0.605-13.082,0.377L1.167,27
			c4.941-0.989,9.954-0.49,13.123-0.37c0.147,0.387,0.311,0.763,0.494,1.125c-3.135,0.101-8.431-0.033-13.562,1.415l0.063,0.222
			c5.17-1.458,10.514-1.314,13.618-1.409c1.873,3.492,5.565,5.746,12.136,6.455 M62.788,26.978"/>
		<path fill="#F4CBB2" d="M43.271,19.818c1.509,1.367,2.392,3.018,2.392,4.797c0,8.306-6.19,8.53-13.827,8.53
			c-7.638,0-13.828-1.15-13.828-8.53c0-1.767,0.87-3.408,2.361-4.77c2.486-2.269,6.693-1.067,11.467-1.067
			C36.591,18.778,40.782,17.564,43.271,19.818L43.271,19.818z M43.271,19.818"/>
		<path fill="#AD5B50" d="M32.597,28.717c0,0.397-0.322,0.72-0.72,0.72s-0.72-0.322-0.72-0.72s0.322-0.719,0.72-0.719
			S32.597,28.319,32.597,28.717L32.597,28.717z M32.597,28.717"/>
		<path fill="#AD5B50" d="M30.2,30.536c-0.042-0.121,0.021-0.253,0.141-0.295c0.121-0.043,0.253,0.021,0.295,0.141
			c0.186,0.523,0.682,0.874,1.234,0.874c0.554,0,1.05-0.351,1.235-0.874c0.042-0.121,0.175-0.184,0.295-0.141
			c0.12,0.042,0.184,0.174,0.141,0.295c-0.25,0.707-0.922,1.182-1.671,1.182C31.122,31.718,30.451,31.243,30.2,30.536L30.2,30.536z
			 M30.2,30.536"/>
		<path fill="#AD5B50" d="M21.295,25.384c-0.083-0.162,0.042-0.339,0.277-0.395c0.239-0.058,0.499,0.027,0.582,0.188
			c0.366,0.701,1.343,1.171,2.433,1.171c1.091,0,2.069-0.47,2.435-1.171c0.083-0.162,0.345-0.247,0.582-0.188
			c0.236,0.056,0.362,0.233,0.277,0.395c-0.493,0.947-1.817,1.584-3.293,1.584C23.112,26.968,21.79,26.331,21.295,25.384
			L21.295,25.384z M21.295,25.384"/>
		<path fill="#AD5B50" d="M36.545,25.384c-0.082-0.162,0.043-0.339,0.277-0.395c0.238-0.058,0.498,0.027,0.582,0.188
			c0.365,0.701,1.343,1.171,2.432,1.171c1.092,0,2.069-0.47,2.436-1.171c0.082-0.162,0.344-0.247,0.581-0.188
			c0.236,0.056,0.362,0.233,0.276,0.395c-0.492,0.947-1.816,1.584-3.293,1.584C38.362,26.968,37.04,26.331,36.545,25.384
			L36.545,25.384z M36.545,25.384"/>
	</g>
</g>
</svg>
