<?xml version="1.0" encoding="utf-8"?>
<!-- Generator: Adobe Illustrator 15.0.2, SVG Export Plug-In . SVG Version: 6.00 Build 0)  -->
<!DOCTYPE svg PUBLIC "-//W3C//DTD SVG 1.1//EN" "http://www.w3.org/Graphics/SVG/1.1/DTD/svg11.dtd">
<svg version="1.1" id="_x30_6_5_" xmlns="http://www.w3.org/2000/svg" xmlns:xlink="http://www.w3.org/1999/xlink" x="0px" y="0px"
	 width="64px" height="64px" viewBox="0 0 64 64" enable-background="new 0 0 64 64" xml:space="preserve">
<g id="_x30_6_3_">
	<g>
		<g>
			<path d="M9.194,38.944c-1.756,2.789,0.195,6.373,3.772,5.596c2.083-0.452,10.33-6.187,11.744-3.148
				c0.737,1.584,3.248,0.453,2.776-1.17c-0.869-2.992-3.739-3.186-6.374-2.561c-1.375,0.327-2.723,1.051-3.949,1.73
				c-2.152,1.192-7.985,5.546-7.532-0.329C9.649,38.817,9.31,38.76,9.194,38.944L9.194,38.944z"/>
		</g>
	</g>
	<g>
		<path fill="#C3E4D8" d="M10.646,42.651c0.036-0.188,0.284-0.302,0.556-0.254c0.272,0.05,0.467,0.243,0.433,0.432
			c-0.034,0.191-0.285,0.303-0.556,0.254C10.807,43.033,10.612,42.841,10.646,42.651L10.646,42.651z M10.646,42.651"/>
		<path fill="#C3E4D8" d="M12.479,42.489c-0.044-0.188,0.14-0.391,0.41-0.453c0.269-0.063,0.524,0.038,0.567,0.224
			c0.044,0.187-0.138,0.391-0.41,0.453C12.777,42.776,12.522,42.676,12.479,42.489L12.479,42.489z M12.479,42.489"/>
		<path fill="#C3E4D8" d="M15.288,41.297c0.099,0.163-0.012,0.414-0.249,0.558c-0.236,0.143-0.508,0.125-0.608-0.038
			c-0.1-0.164,0.011-0.414,0.248-0.557C14.916,41.116,15.188,41.133,15.288,41.297L15.288,41.297z M15.288,41.297"/>
		<path fill="#C3E4D8" d="M17.13,40.22c0.075,0.175-0.073,0.405-0.326,0.513c-0.256,0.107-0.524,0.052-0.598-0.125
			c-0.075-0.179,0.071-0.409,0.327-0.517C16.789,39.984,17.056,40.04,17.13,40.22L17.13,40.22z M17.13,40.22"/>
		<path fill="#C3E4D8" d="M18.995,39.159c0.081,0.173-0.054,0.41-0.306,0.528c-0.25,0.117-0.521,0.072-0.602-0.102
			c-0.082-0.174,0.056-0.41,0.306-0.528C18.644,38.94,18.913,38.985,18.995,39.159L18.995,39.159z M18.995,39.159"/>
		<path fill="#C3E4D8" d="M20.801,38.382c0.08,0.175-0.06,0.41-0.312,0.525c-0.252,0.115-0.521,0.067-0.601-0.107
			c-0.08-0.174,0.06-0.408,0.312-0.524C20.451,38.16,20.721,38.208,20.801,38.382L20.801,38.382z M20.801,38.382"/>
		<path fill="#C3E4D8" d="M23.007,38.152c-0.019,0.19-0.257,0.324-0.532,0.297c-0.277-0.025-0.485-0.202-0.467-0.393
			c0.019-0.191,0.257-0.325,0.534-0.298C22.817,37.784,23.025,37.961,23.007,38.152L23.007,38.152z M23.007,38.152"/>
		<path fill="#C3E4D8" d="M9.596,41.575c0.17-0.088,0.412,0.038,0.54,0.283c0.13,0.246,0.096,0.518-0.074,0.605
			c-0.17,0.09-0.412-0.038-0.541-0.283C9.391,41.936,9.425,41.664,9.596,41.575L9.596,41.575z"/>
		<path fill="#C3E4D8" d="M24.877,38.365c-0.028,0.189-0.273,0.312-0.546,0.271c-0.275-0.041-0.474-0.229-0.445-0.419
			c0.028-0.188,0.272-0.31,0.547-0.27C24.706,37.988,24.905,38.176,24.877,38.365L24.877,38.365z M24.877,38.365"/>
	</g>
</g>
<path fill="#9CDAF1" d="M49.608,52.727c0,3.356-7.777,6.078-17.366,6.078c-9.592,0-17.366-2.722-17.366-6.078
	s7.774-6.077,17.366-6.077C41.831,46.649,49.608,49.37,49.608,52.727L49.608,52.727z"/>
<g id="_x30_6_4_">
	<path d="M27.04,34.438c-1.873,1.313-2.123,7.479-2.873,10.313c-0.694,2.622,0.425,2.465,0.425,2.465s-0.154,1.852-1.853,2.468
		c0,0-1.003,0.695,0.078,1.081c0,0,4.707,0.387,4.707-3.473c0,0,0.143-0.124-0.107-1.541c-0.019-1.196-0.25-7.166,1.033-7.221
		c0.217,2.055,0,9.379,0,9.379s-0.077,2.238-1.234,3.087c0,0-0.772,1.39,0.926,1.004c0,0,3.24-0.464,3.395-4.244l0.074-9.492h0.778
		l0.074,9.492c0.154,3.78,3.396,4.244,3.396,4.244c1.697,0.386,0.925-1.004,0.925-1.004c-1.158-0.849-1.234-3.087-1.234-3.087
		s-0.132-6.908,0-9.297c0.451-0.694,0.952,7.056,1.118,7.889c-0.166,1.166-0.191,0.791-0.191,0.791c0,3.859,4.706,3.473,4.706,3.473
		c1.08-0.386,0.077-1.081,0.077-1.081c-1.698-0.616-1.852-2.468-1.852-2.468s0.325,0.236,0.177-1.548
		C39.18,40.814,38.667,37,36.977,34.449C35.604,32.378,29.075,33.012,27.04,34.438z"/>
</g>
<g>
	<defs>
		<path id="SVGID_1_" d="M49.608,52.727c0,3.356-7.777,6.078-17.366,6.078c-9.592,0-17.366-2.722-17.366-6.078
			s7.774-6.077,17.366-6.077C41.831,46.649,49.608,49.37,49.608,52.727L49.608,52.727z"/>
	</defs>
	<clipPath id="SVGID_2_">
		<use xlink:href="#SVGID_1_"  overflow="visible"/>
	</clipPath>
	<path clip-path="url(#SVGID_2_)" fill="#7DBBE6" d="M36.977,69.673c1.69-2.551,2.203-8.904,2.607-13.757
		c0.148-1.784-0.177-1.548-0.177-1.548s0.153-1.852,1.852-2.468c0,0,1.003-0.695-0.077-1.081c0,0-4.706-0.387-4.706,3.473
		c0,0,0.025-0.375,0.191,0.791C36.501,55.916,36,66.205,35.549,65.511c-0.132-2.389,0-9.297,0-9.297s0.076-2.238,1.234-3.087
		c0,0,0.772-1.39-0.925-1.004c0,0-3.241,0.464-3.396,4.244l-0.074,9.492H31.61l-0.074-9.492c-0.154-3.78-3.395-4.244-3.395-4.244
		c-1.698-0.386-0.926,1.004-0.926,1.004c1.157,0.849,1.234,3.087,1.234,3.087s0.217,7.324,0,9.379
		c-1.283-0.055-1.052-8.593-1.033-9.789c0.25-1.417,0.107-1.541,0.107-1.541c0-3.859-4.707-3.473-4.707-3.473
		c-1.081,0.386-0.078,1.081-0.078,1.081c1.698,0.616,1.853,2.468,1.853,2.468s-1.119-0.157-0.425,2.465
		c0.75,2.834,1,11.568,2.873,12.881C29.075,71.11,35.604,71.743,36.977,69.673z"/>
</g>
<g>
	<path d="M36.977,34.449c7.006-0.695,10.369-2.958,11.919-6.473c3.068,0.084,8.536,0.675,13.819,2.165l0.062-0.222
		c-5.253-1.481-10.685-2.082-13.783-2.172c0.146-0.355,0.274-0.724,0.389-1.104c3.141-0.134,8.338,0.084,13.452,1.107l0,0
		l0.046-0.228c-5.095-1.019-10.267-1.245-13.43-1.114c0.52-1.872,0.675-4.026,0.675-6.428c0-3.445-1.293-6.201-3.395-8.299
		c0.367-1.185,0.284-4.063-1.063-7.432c0,0-1.804-0.51-7.181,3.089c-2.107-0.527-4.349-0.786-6.593-0.786
		c-2.47,0-4.966,0.314-7.294,0.953C19.051,3.72,17.167,4.25,17.167,4.25c-1.599,3.998-1.177,7.204-0.876,7.939
		c-1.879,2.028-3.026,4.618-3.026,7.792c0,2.396,0.272,4.546,0.938,6.414c-3.189-0.116-8.143,0.226-13.055,1.208l0.046,0.228
		c4.941-0.989,9.927-1.32,13.096-1.201c0.147,0.387,0.311,0.763,0.494,1.125C11.649,27.855,6.381,28.553,1.25,30l0.063,0.222
		c5.17-1.458,10.486-2.145,13.591-2.24c1.873,3.492,5.565,5.746,12.136,6.455 M62.834,27.75"/>
	<path fill="#F4CBB2" d="M43.271,19.818c1.509,1.367,2.392,3.018,2.392,4.797c0,8.306-6.19,8.53-13.827,8.53
		c-7.638,0-13.828-1.15-13.828-8.53c0-1.767,0.87-3.408,2.361-4.77c2.486-2.269,6.693-1.067,11.467-1.067
		C36.591,18.778,40.782,17.564,43.271,19.818L43.271,19.818z M43.271,19.818"/>
	<path fill="#FFFFFF" d="M27.237,25.039c0,2.288-1.288,4.142-2.876,4.142c-1.59,0-2.879-1.854-2.879-4.142
		c0-2.287,1.289-4.141,2.879-4.141C25.949,20.898,27.237,22.751,27.237,25.039L27.237,25.039z M27.237,25.039"/>
	<path fill="#AD5B50" d="M26.314,25.09c0,1.525-0.859,2.761-1.918,2.761c-1.06,0-1.918-1.236-1.918-2.761
		c0-1.525,0.858-2.762,1.918-2.762C25.455,22.329,26.314,23.565,26.314,25.09L26.314,25.09z M26.314,25.09"/>
	<path fill="#FFFFFF" d="M42.674,25.039c0,2.288-1.288,4.142-2.878,4.142c-1.589,0-2.877-1.854-2.877-4.142
		c0-2.287,1.288-4.141,2.877-4.141C41.386,20.898,42.674,22.751,42.674,25.039L42.674,25.039z M42.674,25.039"/>
	<path fill="#AD5B50" d="M41.751,25.09c0,1.525-0.859,2.761-1.919,2.761s-1.919-1.236-1.919-2.761c0-1.525,0.859-2.762,1.919-2.762
		S41.751,23.565,41.751,25.09L41.751,25.09z M41.751,25.09"/>
	<path fill="#AD5B50" d="M32.597,28.717c0,0.397-0.322,0.72-0.72,0.72s-0.72-0.322-0.72-0.72s0.322-0.719,0.72-0.719
		S32.597,28.319,32.597,28.717L32.597,28.717z M32.597,28.717"/>
	<path fill="#AD5B50" d="M30.2,30.536c-0.042-0.121,0.021-0.253,0.141-0.295c0.121-0.043,0.253,0.021,0.295,0.141
		c0.186,0.523,0.682,0.874,1.234,0.874c0.554,0,1.05-0.351,1.235-0.874c0.042-0.121,0.175-0.184,0.295-0.141
		c0.12,0.042,0.184,0.174,0.141,0.295c-0.25,0.707-0.922,1.182-1.671,1.182C31.122,31.718,30.451,31.243,30.2,30.536L30.2,30.536z
		 M30.2,30.536"/>
</g>
</svg>
