<?xml version="1.0" encoding="iso-8859-1"?>
<!-- Generator: Adobe Illustrator 15.0.2, SVG Export Plug-In . SVG Version: 6.00 Build 0)  -->
<!DOCTYPE svg PUBLIC "-//W3C//DTD SVG 1.1//EN" "http://www.w3.org/Graphics/SVG/1.1/DTD/svg11.dtd">
<svg version="1.1" id="BACTRIAN_CAMEL" xmlns="http://www.w3.org/2000/svg" xmlns:xlink="http://www.w3.org/1999/xlink" x="0px"
	 y="0px" width="64px" height="64px" viewBox="0 0 64 64" style="enable-background:new 0 0 64 64;" xml:space="preserve">
<g>
	<path style="fill:none;stroke:#4C1B02;stroke-width:2;stroke-miterlimit:10;" d="M56.071,21.061c0,0,4.437,0.934,4.93,6.726
		s-1.232,7.68-1.232,7.68l2.958,2.796"/>
	<path style="fill:#E88A36;stroke:#4C1B02;stroke-width:2;stroke-miterlimit:10;" d="M59.769,44.918l-3.109-6.532
		c0,0,6.675-13.47-3.237-21.648c0,0-0.062-9.37-5.115-10.869c-5.053-1.5-8.257,4.13-7.395,7.601l-2.703,0.513
		c0,0-2.843-5.053-8.204-6.902c-5.361-1.849-6.34,8.14-6.286,9.49l-3.944,6.285l-2.033,0.247l-2.095-7.025
		c0,0,0.172-0.783,0.16-1.793c0.625-0.013,1.339-0.316,1.936-1.343c1.398-2.407-0.37-3.889-1.511-4.386
		c-0.735-0.319-1.683,0.895-2.267,1.802c-0.165-0.098-0.341-0.188-0.536-0.263c-3.281-1.271-2.958,0.312-2.958,0.312l-5.792,1.538
		c0,0-2.219-2.399-3.205,1.174c-0.986,3.574,1.849,6.779,4.499,5.978c0,0-1.901,17.07,12.021,17.439c0,0,3.343,6.502,5.281,7.271
		c1.938,0.77,0.885,11.339,0.885,11.339l-3.323,1.972c0,0-2.309,1.261,0.256,1.261h8.789c0,0,0.678-3.603-1.417-4.219l0.89-8.381
		c0,0,2.468-0.33,3.301-2.711c0,0,8.503,4.807,18.364-2.835l2.958,4.93l-2.958,8.997l-3.205,2.098c0,0-2.815,1.97-0.123,1.97h9.12
		c0,0-0.127-3.032-1.109-4.067C55.701,54.161,55.948,48.122,59.769,44.918z"/>
	<line style="fill:none;stroke:#231815;stroke-miterlimit:10;" x1="10.078" y1="11.813" x2="13.078" y2="12.438"/>
	<line style="fill:none;stroke:#231815;stroke-miterlimit:10;" x1="10.147" y1="13.261" x2="12.634" y2="13.115"/>
	<path style="fill:#AD5F1F;" d="M10.703,32c0,0,1.375,3.751,8.125,3.501c0,0,2.875,6.875,5.25,7.75l-3-8.125L10.703,32z"/>
	<path style="fill:#AD5F1F;" d="M56.071,38.263l-3.493-0.637l4.5-5.626C57.078,32,57.189,33.399,56.071,38.263z"/>
	<path style="fill:#AD5F1F;" d="M58,45.141l-4.797,8.11l1.627,1.5C54.83,54.751,54.25,50.141,58,45.141z"/>
	<path style="fill:#AD5F1F;" d="M27.208,55.038l0.62-10.162h1.125c0,0-1.625,7.496-1.125,10.5"/>
	<path style="fill:#AD5F1F;" d="M32.953,9.75l1.625,6.75l3-1.125C37.578,15.375,38.203,14,32.953,9.75z"/>
	<path style="fill:#AD5F1F;" d="M52.578,17l-2.875-2.375c0,0,1.396-5.244,0-7C49.703,7.625,52.453,11.625,52.578,17z"/>
	<path style="fill:#FFBE78;" d="M24.789,16.988c0,0,0.22-7.185,3.006-8.724L24.789,16.988z"/>
	<path style="fill:#FFBE78;" d="M41.953,14.625c0,0-0.857-3.928,1.25-6.375s3-1.5,3-1.5L41.953,14.625z"/>
	<path style="fill:#FFBE78;" d="M4.953,13.125l4.75-0.688C9.703,12.438,7.953,11.75,4.953,13.125z"/>
	<line style="fill:none;stroke:#AF5009;stroke-miterlimit:10;" x1="40.078" y1="32" x2="43.078" y2="36.376"/>
	<line style="fill:none;stroke:#AF5009;stroke-miterlimit:10;" x1="43.828" y1="32.5" x2="48.578" y2="35.875"/>
	<line style="fill:none;stroke:#AF5009;stroke-miterlimit:10;" x1="46.203" y1="31.935" x2="51.891" y2="34.066"/>
</g>
</svg>
