<?xml version="1.0" encoding="iso-8859-1"?>
<!-- Generator: Adobe Illustrator 15.0.2, SVG Export Plug-In . SVG Version: 6.00 Build 0)  -->
<!DOCTYPE svg PUBLIC "-//W3C//DTD SVG 1.1//EN" "http://www.w3.org/Graphics/SVG/1.1/DTD/svg11.dtd">
<svg version="1.1" id="&#x30EC;&#x30A4;&#x30E4;&#x30FC;_1"
	 xmlns="http://www.w3.org/2000/svg" xmlns:xlink="http://www.w3.org/1999/xlink" x="0px" y="0px" width="64px" height="64px"
	 viewBox="0 0 64 64" style="enable-background:new 0 0 64 64;" xml:space="preserve">
<g>
	<path style="fill:none;stroke:#40210F;stroke-width:2;stroke-miterlimit:10;" d="M53.404,5.313c0,0,11.008,3.144,7.457,7.389
		c-3.552,4.245-6.215-0.787-4.616-2.044c1.598-1.257,9.941,1.73-1.421,16.508"/>
	<path style="fill:#9B5537;stroke:#40210F;stroke-width:2;stroke-miterlimit:10;" d="M17.71,22.016c0,0,0.866-5.023-0.124-7.786
		c-0.99-2.763-4.702-1.382-7.176-2.763c0,0-0.99,10.926,3.959,11.68L17.71,22.016z"/>
	<path style="fill:#9B5537;stroke:#40210F;stroke-width:2;stroke-miterlimit:10;" d="M11.524,24.025l-6.186-3.391
		c0,0-1.608,3.893,0.99,5.526s4.578,0.879,4.578,0.879L11.524,24.025z"/>
	<polygon style="fill:#9B5537;stroke:#40210F;stroke-width:2;stroke-miterlimit:2;" points="20.803,42.612 21.917,52.031 
		18.7,56.302 29.464,51.403 26.989,42.486 	"/>
	<polygon style="fill:#9B5537;stroke:#40210F;stroke-width:2;stroke-miterlimit:10;" points="45.053,43.114 44.558,51.277 
		43.197,53.161 47.774,53.287 50.62,43.742 	"/>
	<path style="fill:#9B5537;stroke:#40210F;stroke-width:2;stroke-miterlimit:10;" d="M34.289,14.104
		c7.472-1.238,14.723-0.753,19.919,2.01c5.196,2.763,8.042,9.419,8.042,12.308c0,2.888-4.701,15.573-5.567,17.457l-0.247,9.544
		l-6.929,3.266l2.475-5.902l-0.248-6.154c0,0-8.413,0.126-10.393-6.028l-8.66,2.764l1.979,11.68l-7.052,3.14l1.361-5.903
		l-2.351-7.158l-5.815-0.754c0,0-1.237,1.131-2.475,1.508C17.091,46.254,6.08,49.896,6.08,49.896l-4.33-6.907l1.856-0.377
		l5.196-11.931c0,0,0.495-5.526,5.567-8.666S28.227,15.108,34.289,14.104z"/>
	<path style="fill:#D1A882;" d="M20.927,21.011c0,0,11.754-4.396,15.713-4.898c3.959-0.502,11.63,0.376,11.63,0.376"/>
	<polyline style="fill:#D1A882;" points="26.247,22.267 53.342,22.016 44.558,19.127 	"/>
	<polyline style="fill:#D1A882;" points="46.166,25.03 58.786,25.658 51.981,23.271 	"/>
	<path style="fill:#D1A882;" d="M18.081,44.245c0,0,2.475-5.4,2.599-7.535c0.124-2.136,5.938,3.768,5.938,3.768v3.517l-4.083-1.382
		L18.081,44.245z"/>
	<polyline style="fill:#D1A882;" points="53.59,42.989 53.219,39.975 56.188,41.733 	"/>
	<polygon style="fill:#40210F;" points="5.287,44.245 7.565,46.955 5.997,48.39 4.843,44.483 	"/>
	<line style="fill:none;stroke:#231815;stroke-width:2;stroke-miterlimit:10;" x1="14.741" y1="30.305" x2="15.112" y2="33.821"/>
	<line style="fill:none;stroke:#40210F;stroke-width:3;stroke-miterlimit:10;" x1="11.895" y1="32.691" x2="16.102" y2="26.035"/>
	<polygon style="fill:#F7F7F7;" points="12.692,44.827 12.761,36.207 17.042,44.901 	"/>
	<polyline style="fill:#D1A882;" points="54.827,39.85 54.455,36.835 57.425,38.594 	"/>
</g>
</svg>
