<?xml version="1.0" encoding="UTF-8" standalone="no"?>
<!-- Created with Inkscape (http://www.inkscape.org/) -->

<svg
   xmlns:dc="http://purl.org/dc/elements/1.1/"
   xmlns:cc="http://creativecommons.org/ns#"
   xmlns:rdf="http://www.w3.org/1999/02/22-rdf-syntax-ns#"
   xmlns:svg="http://www.w3.org/2000/svg"
   xmlns="http://www.w3.org/2000/svg"
   xmlns:xlink="http://www.w3.org/1999/xlink"
   xmlns:sodipodi="http://sodipodi.sourceforge.net/DTD/sodipodi-0.dtd"
   xmlns:inkscape="http://www.inkscape.org/namespaces/inkscape"
   width="64px"
   height="64px"
   id="svg3713"
   version="1.1"
   inkscape:version="0.48.2 r9819"
   sodipodi:docname="genshin-logo-revised-s2.svg"
   inkscape:export-filename="/home/zero/デスクトップ/genshin-logo-revised-s2.png"
   inkscape:export-xdpi="90.349998"
   inkscape:export-ydpi="90.349998">
  <defs
     id="defs3715">
    <linearGradient
       id="linearGradient4528">
      <stop
         style="stop-color:#d70b3a;stop-opacity:1;"
         offset="0"
         id="stop4530" />
      <stop
         style="stop-color:#d70b3a;stop-opacity:0;"
         offset="1"
         id="stop4532" />
    </linearGradient>
    <radialGradient
       inkscape:collect="always"
       xlink:href="#linearGradient4528"
       id="radialGradient4534"
       cx="31.954546"
       cy="32.045456"
       fx="31.954546"
       fy="32.045456"
       r="31.863636"
       gradientUnits="userSpaceOnUse"
       gradientTransform="matrix(0.9985415,-1.6601007e-5,1.6156097e-5,0.97684882,0.04608723,0.74242019)" />
  </defs>
  <sodipodi:namedview
     id="base"
     pagecolor="#ffffff"
     bordercolor="#666666"
     borderopacity="1.0"
     inkscape:pageopacity="0.0"
     inkscape:pageshadow="2"
     inkscape:zoom="5.6568543"
     inkscape:cx="-54.952613"
     inkscape:cy="18.847043"
     inkscape:current-layer="g3"
     showgrid="true"
     inkscape:document-units="px"
     inkscape:grid-bbox="true"
     inkscape:window-width="1920"
     inkscape:window-height="999"
     inkscape:window-x="0"
     inkscape:window-y="26"
     inkscape:window-maximized="1" />
  <metadata
     id="metadata3718">
    <rdf:RDF>
      <cc:Work
         rdf:about="">
        <dc:format>image/svg+xml</dc:format>
        <dc:type
           rdf:resource="http://purl.org/dc/dcmitype/StillImage" />
        <dc:title></dc:title>
      </cc:Work>
    </rdf:RDF>
  </metadata>
  <g
     id="layer1"
     inkscape:label="Layer 1"
     inkscape:groupmode="layer">
    <g
       transform="matrix(0.57354429,0,0,0.57354429,-9.3948988,-4.8771052)"
       id="g3"
       style="fill:#eaf4fc;fill-opacity:1"
       inkscape:export-filename="/home/zero/repo/genshin.org/public/images/logo.png"
       inkscape:export-xdpi="899.45599"
       inkscape:export-ydpi="899.45599">
      <path
         style="fill:#000b00;fill-opacity:1"
         inkscape:connector-curvature="0"
         d="M 25.836,60.884 C 24.166,40.446 48.553,29.302 56.569,21.716 -18.048,34.763 21.127285,141.272 92.968,116.101 55.66,114.913 61,104.364 53.038,102.823 34.947,99.318 23.875,84.208 23.875,77.524 c 0,-5.82 3.127,-11.227 1.961,-16.64 z"
         id="path5"
         sodipodi:nodetypes="ccccsc" />
      <path
         style="fill:#000b00;fill-opacity:1"
         inkscape:connector-curvature="0"
         d="m 113.716,93.582 c -2.866,6.521 -6.899,12.655 -12.102,18.097 14.903,-9.178 23.524,-23.791 25.886,-39.501 -2.569,7.972 -7.767,15.337 -13.784,21.404 z"
         id="path7" />
      <path
         style="fill:#000b00;fill-opacity:1"
         inkscape:connector-curvature="0"
         d="M 103.22,17.748 C 90.066,15.033 74.921,11.61 64.736,17.282 47.742,14.826 29.859,28.196 27.575,30.997 49.169,1.381 87.748,5.928 103.22,17.748 z"
         id="path9" />
    </g>
    <g
       transform="matrix(0.57354429,0,0,0.57354429,-9.3948988,-4.8771052)"
       id="g19"
       style="fill:#d7003a;fill-opacity:1"
       inkscape:export-filename="/home/zero/repo/genshin.org/public/images/logo.png"
       inkscape:export-xdpi="899.45599"
       inkscape:export-ydpi="899.45599">
      <path
         style="fill:#d7003a;fill-opacity:1"
         inkscape:connector-curvature="0"
         d="M 51.111,43.19 C 58.462774,38.269206 66.017957,33.761108 74,28.841 l 0,-4.095 c -8.247318,5.125197 -15.321401,9.30897 -22.829,14.275 -8.797,5.749 -14.357,9.711 -14.357,16.446 0,5.879 4.211,9.647 11.136,14.334 C 46.919651,70.483832 45.873425,71.246791 45,71.879 40,75.676 36.801,79 36.801,84 l -0.004,0 -10e-4,-0.047 c 0,0.011 0.003,4.047 4.094,4.047 4.095,0 20.477,0 20.477,0 0,0 2.566,-0.008 3.633,-1.999 l 0,16.469 c 0,0 9,-4.095 9,-12.287 0,-8.191 0,-15.061 0,-15.061 C 74,75.122 73.654,71 69.558,71 65.462,71 65,71 65,71 l 0,13 -20.016,0 c 0,-6 0.007,-7.794 6.247,-12.221 2.081315,-1.349288 4.033477,-2.724396 5.769,-4.064 5,-3.797 8,-7.267 8,-12.252 L 65,51 57,51 c -0.07924,1.223929 0.04302,3.037425 0.136,4 0,7 0.061,8.075 -6.077,12.445 -6.143,-4.371 -6.109,-5.598 -6.109,-12.099 0,-6.501 0.017,-7.784 6.161,-12.156 z"
         id="path21"
         sodipodi:nodetypes="ccccscccccscccscsccccccsccccc" />
      <path
         style="fill:#d7003a;fill-opacity:1"
         inkscape:connector-curvature="0"
         d="m 116.841,37 c 0,0 -0.08,-4.199 -4.175,-4.199 -4.096,0 -4.142,-0.052 -16.428,8.14 C 92.937,43.141 90,44.684 88,45.861 V 27.106 C 88,27.106 88.014,23 83.917,23 80.264,23 80.012,23 80,23 v 26 4.176 c 4,0 3.761,0 16.048,-8.191 7.257,-4.838 9.952,-6.818 11.952,-7.629 0,3.689 0,24.739 0,32.203 0,8.19 0.358,8.19 -11.928,16.381 C 83.785,94.132 78,98.228 78,98.228 v 4.095 c 0,0 6.189,-4.095 18.477,-12.288 C 108.763,81.844 117,77.749 117,69.558 117,61.366 117,37 117,37 h -0.159 z"
         id="path23" />
    </g>
  </g>
</svg>
