<?xml version="1.0" encoding="iso-8859-1"?>
<!-- Generator: Adobe Illustrator 15.0.2, SVG Export Plug-In . SVG Version: 6.00 Build 0)  -->
<!DOCTYPE svg PUBLIC "-//W3C//DTD SVG 1.1//EN" "http://www.w3.org/Graphics/SVG/1.1/DTD/svg11.dtd">
<svg version="1.1" id="&#x30EC;&#x30A4;&#x30E4;&#x30FC;_1"
	 xmlns="http://www.w3.org/2000/svg" xmlns:xlink="http://www.w3.org/1999/xlink" x="0px" y="0px" width="64px" height="64px"
	 viewBox="0 0 64 64" style="enable-background:new 0 0 64 64;" xml:space="preserve">
<g>
	<path style="fill-rule:evenodd;clip-rule:evenodd;" d="M18.396-3.165c0.251,0.141,0.268,0.107,0.615,0.068c0,0.068,0,0.137,0,0.205
		c-0.261-0.057-0.512-0.11-0.615,0.137c-0.056-0.172-0.312-0.144-0.546-0.137c0.013-0.055,0.069-0.068,0.068-0.136
		c0.058,0.012,0.064-0.027,0.068-0.068C18.096-2.854,18.303-3.018,18.396-3.165z"/>
	<path style="fill-rule:evenodd;clip-rule:evenodd;" d="M20.717-2.892c0.184-0.122,0.132,0.301,0.205,0.068
		c0.205,0.102-0.05,0.306-0.205,0.273C20.717-2.665,20.717-2.778,20.717-2.892z"/>
	<path style="fill-rule:evenodd;clip-rule:evenodd;" d="M15.733-2.073c-0.137,0.296-0.329,0.536-0.751,0.546
		C15.189-1.752,15.455-1.919,15.733-2.073z"/>
	<path style="fill-rule:evenodd;clip-rule:evenodd;" d="M18.396-0.98c-0.044,0.069-0.157,0.07-0.137,0.205
		c-0.055-0.036-0.111-0.071-0.205-0.068C18.165-0.922,18.271-1.112,18.396-0.98z"/>
	<path style="fill-rule:evenodd;clip-rule:evenodd;" d="M49.598-0.57c0,0.068,0,0.136,0,0.205C49.52-0.486,49.205-0.516,49.598-0.57
		z"/>
	<path style="fill-rule:evenodd;clip-rule:evenodd;" d="M18.874,0.044c0.17,0.01,0.02,0.231,0,0.273
		C18.704,0.307,18.854,0.086,18.874,0.044z"/>
	<path style="fill-rule:evenodd;clip-rule:evenodd;" d="M13.48,0.727c-0.049,0.202-0.078,0.423-0.205,0.546
		C13.094,1.109,13.279,0.734,13.48,0.727z"/>
	<path style="fill-rule:evenodd;clip-rule:evenodd;" d="M16.348,1.205c0.031-0.182,0.266-0.341,0.41-0.205
		C16.695,1.143,16.556,1.208,16.348,1.205z"/>
	<path style="fill-rule:evenodd;clip-rule:evenodd;" d="M13.139,1.341c0.163,0.354-0.385,1.156-0.41,1.775
		C12.637,2.568,12.999,1.884,13.139,1.341z"/>
	<path style="fill-rule:evenodd;clip-rule:evenodd;" d="M12.592,3.39c0.153,0.029,0.028,0.336,0.068,0.478
		C12.449,3.744,12.625,3.658,12.592,3.39z"/>
	<path style="fill-rule:evenodd;clip-rule:evenodd;" d="M53.559,3.731c-0.02,0.139-0.137,0.182-0.205,0.273
		C53.182,3.936,53.408,3.702,53.559,3.731z"/>
	<path style="fill-rule:evenodd;clip-rule:evenodd;" d="M12.524,4.55c0.199-0.101,0.199,0.305,0,0.205
		C12.524,4.687,12.524,4.619,12.524,4.55z"/>
	<path style="fill-rule:evenodd;clip-rule:evenodd;" d="M14.095,5.301c0.061-0.03,0.122-0.06,0.136-0.137
		c0.196,0.262-0.213,0.413-0.341,0.273c0.037-0.191,0.101-0.355,0.137-0.546C14.241,4.987,13.933,5.229,14.095,5.301z"/>
	<path style="fill-rule:evenodd;clip-rule:evenodd;" d="M14.436,5.097c0.091,0,0.182,0,0.273,0c0,0.045,0,0.091,0,0.136
		c-0.091,0-0.182,0-0.273,0C14.436,5.188,14.436,5.142,14.436,5.097z"/>
	<path style="fill-rule:evenodd;clip-rule:evenodd;" d="M12.729,5.984c0.186-0.049-0.049,0.322,0.137,0.273
		C12.75,6.496,12.69,6.124,12.729,5.984z"/>
	<path style="fill-rule:evenodd;clip-rule:evenodd;" d="M12.115,6.121c0.153,0.256-0.164,1.194-0.41,1.502
		C11.812,7.093,12.031,6.674,12.115,6.121z"/>
	<path style="fill-rule:evenodd;clip-rule:evenodd;" d="M9.998,9.535C9.791,8.941,10.106,8.147,9.998,9.535L9.998,9.535z"/>
	<path style="fill-rule:evenodd;clip-rule:evenodd;" d="M12.183,8.783c0.167,0.043,0.037,0.345-0.136,0.273
		C11.997,8.87,12.182,8.919,12.183,8.783z"/>
	<path style="fill-rule:evenodd;clip-rule:evenodd;" d="M13.139,9.33c-0.283,0.01,0.065-0.338,0-0.546
		C13.341,8.903,13.099,9.147,13.139,9.33z"/>
	<path style="fill-rule:evenodd;clip-rule:evenodd;" d="M9.998,10.217c0.149,0.01,0.146,0.172,0.137,0.341
		C10.033,10.5,9.988,10.387,9.998,10.217z"/>
	<path style="fill-rule:evenodd;clip-rule:evenodd;" d="M11.568,10.9c0.269-0.034,0.125,0.475-0.068,0.41
		C11.499,11.149,11.618,11.109,11.568,10.9z"/>
	<path style="fill-rule:evenodd;clip-rule:evenodd;" d="M9.793,11.446c-0.068,0.091-0.064,0.254-0.205,0.273
		c0.007,0.054,0.226,0.207,0.205,0.068c0.188,0.193-0.28,0.308-0.205,0.615c-0.271-0.069,0.011-0.276,0.068-0.41
		c-0.045-0.205-0.146,0.065-0.273,0C9.538,11.828,9.501,11.473,9.793,11.446z"/>
	<path style="fill-rule:evenodd;clip-rule:evenodd;" d="M39.357,13.358c-0.057,0.146-0.068,0.332-0.068,0.683
		C39.047,13.982,39.146,13.384,39.357,13.358z"/>
	<path style="fill-rule:evenodd;clip-rule:evenodd;" d="M8.974,13.426c0.068,0,0.137,0,0.205,0c0.014,0.117-0.116,0.177,0,0.205
		C9.103,13.831,8.957,13.544,8.974,13.426z"/>
	<path style="fill-rule:evenodd;clip-rule:evenodd;" d="M38.879,13.973c0.646,0.231,0.236,1.747,0.205,2.116
		C39.018,15.461,38.973,14.575,38.879,13.973z"/>
	<path style="fill-rule:evenodd;clip-rule:evenodd;" d="M38.334,15.27c0-0.091,0-0.182,0-0.273c0.045,0,0.09,0,0.137,0
		c0,0.091,0,0.182,0,0.273C38.424,15.27,38.379,15.27,38.334,15.27z"/>
	<path style="fill-rule:evenodd;clip-rule:evenodd;" d="M38.402,15.679c-0.154-0.028,0.01-0.374-0.205-0.341
		C38.322,15.129,38.602,15.546,38.402,15.679z"/>
	<path style="fill-rule:evenodd;clip-rule:evenodd;" d="M39.016,16.157c0.246,0.028,0.07,0.234,0.068,0.341
		C38.938,16.51,39.055,16.256,39.016,16.157z"/>
	<path style="fill-rule:evenodd;clip-rule:evenodd;" d="M39.016,16.704c0.1,0.016,0.16,0.562-0.068,0.478
		C38.914,16.966,39.07,16.94,39.016,16.704z"/>
	<path style="fill-rule:evenodd;clip-rule:evenodd;" d="M6.789,17.318c0.21-0.104,0.21,0.446,0,0.342
		C6.789,17.545,6.789,17.432,6.789,17.318z"/>
	<path style="fill-rule:evenodd;clip-rule:evenodd;" d="M38.947,17.318c0.307,0.059-0.105,0.691,0.068,0.819
		C38.646,18.316,39.023,17.661,38.947,17.318z"/>
	<path style="fill-rule:evenodd;clip-rule:evenodd;" d="M38.402,17.523c0.229-0.07,0.105,0.212,0.137,0.341
		C38.438,17.807,38.439,17.645,38.402,17.523z"/>
	<path style="fill-rule:evenodd;clip-rule:evenodd;" d="M7.472,17.728c0.093,0.021,0.057,0.171,0.068,0.273
		c-0.117-0.003-0.177,0.051-0.205,0.136C7.108,17.993,7.54,17.939,7.472,17.728z"/>
	<path style="fill-rule:evenodd;clip-rule:evenodd;" d="M7.677,17.728c0.068,0,0.136,0,0.205,0
		c-0.036,0.055-0.071,0.111-0.068,0.205c-0.055-0.013-0.068-0.068-0.136-0.068C7.677,17.819,7.677,17.773,7.677,17.728z"/>
	<path style="fill-rule:evenodd;clip-rule:evenodd;" d="M6.994,18.342c0.108,0.217-0.011,0.409,0,0.683
		C6.86,18.93,6.911,18.446,6.994,18.342z"/>
	<path style="fill-rule:evenodd;clip-rule:evenodd;" d="M7.199,18.479c0.193,0.009,0.198,0.423-0.068,0.409
		C7.129,18.728,7.248,18.688,7.199,18.479z"/>
	<path style="fill-rule:evenodd;clip-rule:evenodd;" d="M6.652,18.547c-0.059,0.1-0.102,0.217-0.273,0.205
		C6.438,18.652,6.481,18.536,6.652,18.547z"/>
	<path style="fill-rule:evenodd;clip-rule:evenodd;" d="M6.652,18.684c0.068,0,0.137,0,0.205,0c0.011,0.193-0.205,0.159-0.205,0.341
		C6.452,18.967,6.741,18.853,6.652,18.684z"/>
	<path style="fill-rule:evenodd;clip-rule:evenodd;" d="M6.379,18.888c0.012,0.149-0.056,0.217-0.205,0.205
		C6.248,19.03,6.196,18.841,6.379,18.888z"/>
	<path style="fill-rule:evenodd;clip-rule:evenodd;" d="M5.833,19.981c0.327,0.016-0.052,0.242,0,0.41
		C5.625,20.306,5.907,20.156,5.833,19.981z"/>
	<path style="fill-rule:evenodd;clip-rule:evenodd;" d="M38.061,20.117c-0.092,0.136-0.131,0.325-0.205,0.478
		C37.723,20.502,37.838,20.081,38.061,20.117z"/>
	<path style="fill-rule:evenodd;clip-rule:evenodd;" d="M5.697,20.732c0.158,0.019,0.157,0.182,0.068,0.273
		C5.606,20.986,5.608,20.823,5.697,20.732z"/>
	<path style="fill-rule:evenodd;clip-rule:evenodd;" d="M5.15,21.21c-0.209-0.05-0.201,0.118-0.41,0.068
		c0.149-0.079,0.219-0.236,0.273-0.41c0.055,0.036,0.111,0.071,0.205,0.068C4.982,21.166,5.054,20.998,5.15,21.21z"/>
	<path style="fill-rule:evenodd;clip-rule:evenodd;" d="M5.423,20.869c0.074,0.017,0.046,0.136,0.137,0.136
		c-0.016,0.099-0.204,0.024-0.205,0.137C5.105,21.034,5.514,21.04,5.423,20.869z"/>
	<path style="fill-rule:evenodd;clip-rule:evenodd;" d="M38.129,21.21c0.26,0.131-0.193,0.528-0.342,0.683
		C37.799,21.563,38.117,21.539,38.129,21.21z"/>
	<path style="fill-rule:evenodd;clip-rule:evenodd;" d="M36.832,22.439c0.213,0.11-0.141,0.216-0.137,0.341
		C36.48,22.67,36.834,22.564,36.832,22.439z"/>
	<path style="fill-rule:evenodd;clip-rule:evenodd;" d="M3.716,25.784c0-0.091,0-0.182,0-0.273
		C3.979,25.458,3.979,25.838,3.716,25.784z"/>
	<path style="fill-rule:evenodd;clip-rule:evenodd;" d="M46.594,25.853c0.152,0.05,0.033,0.39-0.137,0.341
		C46.527,26.104,46.525,25.942,46.594,25.853z"/>
	<path style="fill-rule:evenodd;clip-rule:evenodd;" d="M47.414,26.672c0.146,0.107-0.129,0.368-0.273,0.41
		C47.129,26.842,47.371,26.857,47.414,26.672z"/>
	<path style="fill-rule:evenodd;clip-rule:evenodd;" d="M36.695,28.174c0.186-0.05,0.137,0.135,0.271,0.136
		C36.945,28.456,36.645,28.325,36.695,28.174z"/>
	<path style="fill-rule:evenodd;clip-rule:evenodd;" d="M29.935,30.563c0.027-0.17,0.265-0.004,0.205,0.137
		C29.988,30.737,30.042,30.569,29.935,30.563z"/>
	<path style="fill-rule:evenodd;clip-rule:evenodd;" d="M28.501,31.041c0.064,0.072,0.252,0.021,0.205,0.206
		C28.557,31.258,28.489,31.189,28.501,31.041z"/>
	<path style="fill-rule:evenodd;clip-rule:evenodd;" d="M28.023,31.586c0.2,0.076-0.087,0.223-0.205,0.205
		C27.797,31.635,28.016,31.715,28.023,31.586z"/>
	<path style="fill-rule:evenodd;clip-rule:evenodd;" d="M31.778,31.723c-0.109,0.051,0.016,0.334-0.205,0.273
		C31.554,31.818,31.599,31.703,31.778,31.723z"/>
	<path style="fill-rule:evenodd;clip-rule:evenodd;" d="M51.852,33.566c0.074,0.018,0.047,0.137,0.137,0.137
		c-0.021,0.092-0.172,0.057-0.273,0.068C51.678,33.619,51.846,33.674,51.852,33.566z"/>
	<path style="fill-rule:evenodd;clip-rule:evenodd;" d="M56.221,34.863c0.021,0.158-0.197,0.076-0.203,0.205
		C55.816,34.992,56.104,34.846,56.221,34.863z"/>
	<path style="fill-rule:evenodd;clip-rule:evenodd;" d="M29.389,35.547c0-0.068,0-0.137,0-0.205c0.045,0,0.091,0,0.137,0
		c0,0.068,0,0.137,0,0.205C29.479,35.547,29.434,35.547,29.389,35.547z"/>
	<path style="fill-rule:evenodd;clip-rule:evenodd;" d="M54.582,37.322c0.111,0.066,0.158,0.182,0.068,0.273
		C54.541,37.527,54.494,37.412,54.582,37.322z"/>
	<path style="fill-rule:evenodd;clip-rule:evenodd;" d="M45.092,37.73c-0.02,0.094-0.17,0.057-0.271,0.068
		C44.838,37.641,45.002,37.643,45.092,37.73z"/>
	<path style="fill-rule:evenodd;clip-rule:evenodd;" d="M45.775,38.072c0.121-0.021,0.121,0.383-0.068,0.273
		C45.697,38.223,45.791,38.201,45.775,38.072z"/>
	<path style="fill-rule:evenodd;clip-rule:evenodd;" d="M42.84,44.559c0.299-0.014,0.008,0.244,0,0.342
		C42.639,44.842,42.881,44.68,42.84,44.559z"/>
	<path style="fill-rule:evenodd;clip-rule:evenodd;" d="M42.225,44.695c-0.035,0.102-0.1,0.172-0.135,0.273
		C41.943,44.947,42.074,44.645,42.225,44.695z"/>
	<path style="fill-rule:evenodd;clip-rule:evenodd;" d="M29.593,46.061c0.187-0.049,0.138,0.137,0.273,0.137
		c-0.124,0.059-0.188,0.176-0.341,0.205C29.503,46.244,29.536,46.141,29.593,46.061z"/>
	<path style="fill-rule:evenodd;clip-rule:evenodd;" d="M39.152,46.471c0.121-0.021,0.123,0.383-0.068,0.273
		C39.057,46.602,39.131,46.563,39.152,46.471z"/>
	<path style="fill-rule:evenodd;clip-rule:evenodd;" d="M54.105,46.744c0.313,0.01-0.045,0.307,0,0.479
		C53.898,47.119,54.162,46.922,54.105,46.744z"/>
	<path style="fill-rule:evenodd;clip-rule:evenodd;" d="M29.593,47.359c-0.041-0.156,0.473-0.25,0.41,0
		C29.875,47.492,29.753,47.379,29.593,47.359z"/>
	<path style="fill-rule:evenodd;clip-rule:evenodd;" d="M30.14,47.426c0,0.068,0,0.137,0,0.205
		c-0.049,0.041-0.482,0.082-0.478-0.137C29.916,47.637,29.84,47.396,30.14,47.426z"/>
	<path style="fill-rule:evenodd;clip-rule:evenodd;" d="M50.76,47.563c0.021,0.16,0.107,0.258,0.068,0.479
		c-0.387-0.348-0.611,0.275-1.025,0.068C50.195,48.002,50.311,47.615,50.76,47.563z"/>
	<path style="fill-rule:evenodd;clip-rule:evenodd;" d="M29.935,48.109c0.243-0.105,0.041,0.232,0.205,0.205
		C30.063,48.514,29.918,48.227,29.935,48.109z"/>
	<path style="fill-rule:evenodd;clip-rule:evenodd;" d="M28.842,49.543c0.231,0.033,0.133,0.357-0.136,0.273
		C28.741,49.715,28.807,49.645,28.842,49.543z"/>
	<path style="fill-rule:evenodd;clip-rule:evenodd;" d="M29.252,49.816c0.066,0.002,0.053,0.084,0.068,0.137
		c0.013,0.078,0.068,0.037,0.068,0c0.047,0.428,0.214,0.488,0.273,0.955c-0.165,0.029-0.148-0.125-0.341-0.068
		C29.137,50.406,29.121,50.162,29.252,49.816z"/>
	<path style="fill-rule:evenodd;clip-rule:evenodd;" d="M51.92,51.865c0.186-0.051,0.137,0.135,0.273,0.137
		C52.172,52.146,51.869,52.016,51.92,51.865z"/>
	<path style="fill-rule:evenodd;clip-rule:evenodd;" d="M51.441,52.207c0.111-0.223,0.256,0.238,0.137,0.271
		C51.309,52.457,51.629,52.268,51.441,52.207z"/>
	<path style="fill-rule:evenodd;clip-rule:evenodd;" d="M29.116,52.615c-0.021-0.18,0.143-0.176,0.273-0.205
		c0.009,0.123-0.083,0.145-0.068,0.273C29.266,52.648,29.209,52.613,29.116,52.615z"/>
	<path style="fill-rule:evenodd;clip-rule:evenodd;" d="M29.457,53.025c0.178-0.02,0.293,0.025,0.273,0.205
		C29.552,53.25,29.388,53.254,29.457,53.025z"/>
	<path style="fill-rule:evenodd;clip-rule:evenodd;" d="M30.618,53.844c0.148-0.01,0.031,0.242,0.068,0.342
		c-0.08-0.102-0.284-0.08-0.273-0.273C30.51,53.918,30.606,53.924,30.618,53.844z"/>
	<path style="fill-rule:evenodd;clip-rule:evenodd;" d="M53.9,54.596c0.16,0.018,0.039,0.301,0,0.342
		c-0.061-0.053-0.154-0.074-0.273-0.068C53.67,54.73,53.973,54.85,53.9,54.596z"/>
	<path style="fill-rule:evenodd;clip-rule:evenodd;" d="M30.276,55.961c0.117-0.012,0.269,0.387,0.273,0.068
		c0.09,0.023,0.107,0.121,0.205,0.137c-0.118,0.168-0.246,0.117-0.546,0.205C30.287,56.291,30.285,56.129,30.276,55.961z"/>
	<path style="fill-rule:evenodd;clip-rule:evenodd;" d="M49.598,57.189c0.199,0.014,0.166,0.326-0.066,0.273
		C49.584,57.402,49.604,57.309,49.598,57.189z"/>
	<path style="fill-rule:evenodd;clip-rule:evenodd;" d="M49.121,57.326c0.238-0.061,0.115,0.223,0.068,0.273
		C49.096,57.578,49.133,57.43,49.121,57.326z"/>
	<path style="fill-rule:evenodd;clip-rule:evenodd;" d="M51.51,57.873c0.199,0.076-0.086,0.223-0.205,0.205
		C51.285,57.92,51.502,58.002,51.51,57.873z"/>
	<path style="fill-rule:evenodd;clip-rule:evenodd;" d="M46.389,58.76c0.166-0.027,0.148,0.125,0.342,0.068
		c-0.125,0.125-0.186,0.314-0.477,0.273c0.029-0.084,0.086-0.141,0.203-0.137C46.422,58.91,46.387,58.855,46.389,58.76z"/>
	<path style="fill-rule:evenodd;clip-rule:evenodd;" d="M44.752,60.059c-0.096,0.133-0.246,0.209-0.273,0.408
		c-0.146-0.102,0.049-0.166-0.068-0.34C44.604,60.184,44.586,60.029,44.752,60.059z"/>
	<path style="fill-rule:evenodd;clip-rule:evenodd;" d="M45.707,60.535c0.066,0.002,0.053,0.084,0.068,0.137
		c0.078,0.012,0.121-0.014,0.137-0.068c0.203,0.045-0.066,0.146,0,0.273c-0.055-0.035-0.111-0.07-0.205-0.068
		C45.707,60.719,45.707,60.627,45.707,60.535z"/>
	<path style="fill-rule:evenodd;clip-rule:evenodd;" d="M46.594,60.672c0.158,0.141,0.025,0.568,0.068,0.82
		C46.354,61.43,46.602,60.873,46.594,60.672z"/>
	<path style="fill-rule:evenodd;clip-rule:evenodd;" d="M46.525,61.561c0.199-0.102,0.199,0.305,0,0.205
		C46.525,61.697,46.525,61.629,46.525,61.561z"/>
	<path style="fill-rule:evenodd;clip-rule:evenodd;" d="M45.57,61.766c0.17,0.027,0.004,0.264-0.137,0.203
		C45.396,61.818,45.564,61.873,45.57,61.766z"/>
	<path style="fill-rule:evenodd;clip-rule:evenodd;" d="M44,66.271c0.174,0.008,0.135,0.229,0.137,0.41
		C43.891,66.746,44.041,66.412,44,66.271z"/>
	<path style="fill-rule:evenodd;clip-rule:evenodd;" d="M44.41,66.953c-0.129,0.121,0.08,0.199-0.068,0.342
		c-0.113,0.014-0.074-0.51-0.137-0.137c-0.053-0.107-0.217-0.102-0.205-0.273C44.139,66.74,44.27,66.904,44.41,66.953z"/>
	<path style="fill-rule:evenodd;clip-rule:evenodd;" d="M43.727,68.523c0.061,0.031,0.123,0.061,0.137,0.137
		c0.059,0.014,0.064-0.025,0.068-0.068c0.199,0.076-0.086,0.223-0.205,0.205C43.84,68.662,43.721,68.711,43.727,68.523z"/>
	<path style="fill-rule:evenodd;clip-rule:evenodd;" d="M43.795,69.754c0.303-0.01-0.006,0.166,0.068,0.34
		C43.715,70.105,43.832,69.852,43.795,69.754z"/>
	<path style="fill-rule:evenodd;clip-rule:evenodd;" d="M44.068,70.436c-0.063,0.186-0.238-0.068-0.342-0.068
		C43.813,70.086,43.926,70.395,44.068,70.436z"/>
	<path style="fill-rule:evenodd;clip-rule:evenodd;" d="M43.727,71.598c0.205-0.07,0.121,0.15,0.137,0.271c-0.068,0-0.137,0-0.205,0
		C43.629,71.727,43.705,71.689,43.727,71.598z"/>
	<path style="fill-rule:evenodd;clip-rule:evenodd;" d="M43.59,72.143c0.15,0.01,0.146,0.172,0.137,0.342
		C43.43,72.471,43.604,72.365,43.59,72.143z"/>
	<path style="fill-rule:evenodd;clip-rule:evenodd;" d="M43.727,72.758c0.021,0.158-0.01,0.262-0.068,0.342
		C43.455,73.094,43.477,72.691,43.727,72.758z"/>
	<path style="fill-rule:evenodd;clip-rule:evenodd;" d="M43.521,73.371c0.26,0.063,0.051,0.275,0.068,0.479
		C43.486,73.754,43.396,73.496,43.521,73.371z"/>
	<path d="M2.487,43.604c0.064,1.309-0.052,2.437-0.28,3.453c0.246,2.426,0.571,4.842,0.917,7.256
		c0.013-0.146,0.024-0.294,0.038-0.44c0.319-3.522,0.637-7.39-0.421-10.81C2.657,43.243,2.581,43.432,2.487,43.604z"/>
	<path d="M62.299,16.908c-0.041-1.966-0.412-3.74-1.299-5.325c-0.379-0.281-0.631-0.688-0.818-1.161
		c-1.146-0.423-0.93-2.212-1.912-2.799c-0.09,0.171,0.27,0.214,0.068,0.273c-0.184-0.25-0.527-0.7-0.547-0.888
		c0.189,0.13,0.244,0.395,0.479,0.478c-0.496-0.855-0.893-1.779-1.844-1.98c0.117,0.087,0.27,0.141,0.273,0.341
		c-0.152-0.039-0.449-0.23-0.479,0c0.617,0.203,1.334,0.668,1.23,1.365c-0.125-0.104-0.406-0.258-0.205-0.478
		c-0.084-0.008-0.162-0.021-0.137-0.137c-0.402,0.158-1.105-0.231-1.092-0.478c0.213,0.083,0.297,0.295,0.545,0.341
		c0.119-0.43-0.646-0.525-0.479-1.229c-0.209-0.073-0.443,0.025-0.682-0.136c-0.047-0.228,0.141-0.11,0.205-0.068
		c-0.15-0.3-0.734-0.394-0.684-0.683c-0.209,0.184-0.305-0.328-0.613-0.273c-0.014,0.283-0.338-0.063-0.479,0.137
		c0.154,0.057,0.264,0.019,0.41,0.205c-0.592,0.045-0.934-0.159-1.23-0.41c0.148,0.012,0.031-0.242,0.068-0.341
		c-0.215-0.078-0.166,0.107-0.273,0.137c0.016-0.129-0.076-0.151-0.066-0.273c0.076-0.007,0.105,0.099,0.135,0
		c-0.234-0.221-0.324-0.585-0.545-0.819c0.395,0.016-0.059-0.392,0.41-0.273c-0.152-0.056-0.279-0.238-0.41-0.478
		c-0.07,0.227,0.039,0.296-0.205,0.41c-0.518-0.785-1.127-1.824-1.707-2.321c-0.596-0.331-2.088-0.308-2.459-0.956
		c0.09,0.07,0.252,0.067,0.342,0.137c0.262-0.417-0.133-0.15,0-0.478c-1,0.067-1.084-0.781-1.775-1.024
		c0.096-0.088,0.068-0.297,0.068-0.478c0.156-0.118,0.572,0.026,0.615-0.205c-0.191,0.083-0.305,0.023-0.379-0.068
		c-0.168-0.007-0.338-0.014-0.508-0.021c0.027,0.186-0.283,0.242-0.273,0.157c0.113-0.035,0.141-0.094,0.146-0.161
		c-0.236-0.009-0.475-0.016-0.713-0.025c-0.033,0.052-0.061,0.098-0.049,0.118c-0.137,0.022-0.744,0.415-0.479,0.136
		c-0.227,0.003-0.553,0.262-0.75,0.068c0.219,0.06,0.141-0.177,0.273-0.205c0.041,0.039,0.324,0.16,0.342,0
		c-0.1,0.007-0.131-0.054-0.133-0.146c-0.127-0.004-0.254-0.009-0.381-0.013c0.014,0.03,0.043,0.06,0.104,0.09
		c-0.195,0.014-0.453,0.316-0.615,0.136c0.033-0.083,0.1-0.162,0.176-0.238c-0.281-0.009-0.564-0.02-0.848-0.027
		c0.186,0.06,0.262,0.228,0.398,0.334c-0.057,0.147-0.168,0.242-0.408,0.205c-0.012-0.308-0.055-0.271-0.002-0.54
		c-0.039-0.001-0.08-0.002-0.119-0.003c0.016,0.083-0.002,0.175-0.084,0.269c-0.223,0.117-0.33-0.327-0.342,0
		c-0.186,0.049,0.049-0.322-0.137-0.273c-0.209,0.126,0.078,0.324,0,0.546c-0.242-0.053-0.248-0.009-0.545-0.068
		c0.008-0.151-0.004-0.31-0.137-0.478c0.016,0,0.029-0.02,0.045-0.025c-0.332-0.008-0.664-0.017-0.996-0.024
		c-0.004,0.018,0.004,0.025-0.006,0.049c-0.041-0.006-0.064-0.031-0.094-0.051c-0.082-0.002-0.162-0.004-0.244-0.006
		c0,0.042,0.002,0.087-0.002,0.125c-0.098,0-0.104-0.093-0.164-0.129c-0.035,0-0.07-0.001-0.107-0.002
		c0.068,0.203,0.33,0.211,0.338,0.473c-0.361,0.205-0.459-0.179-0.529-0.478c-0.08-0.001-0.162-0.002-0.242-0.003
		c0.057,0.155,0.018,0.409,0.09,0.549c-0.121-0.062-0.199-0.165-0.342-0.205c0.016-0.098,0.203-0.023,0.205-0.136
		c-0.008-0.242-0.227,0.145-0.205-0.068c-0.119-0.061,0.127-0.005,0.119-0.142C33.885-3.342,28.15-3.316,22.415-3.286
		c-0.219,0.118-0.461,0.197-0.742,0.189c0.015-0.066,0.04-0.123,0.059-0.186c-0.151,0.001-0.302,0.001-0.453,0.002
		c-0.114,0.272-0.265,0.614-0.288,0.866c-0.137-0.023-0.214,0.014-0.205,0.137c-0.155-0.214-0.02-0.169-0.273-0.068
		c-0.1-0.437,0.181-0.687,0.468-0.933c-0.062,0-0.123,0-0.185,0.001c-0.143,0.149-0.289,0.294-0.42,0.454
		c-0.027-0.157-0.038-0.305-0.046-0.451c-0.049,0-0.098,0-0.147,0c0.005,0.222,0.009,0.469,0.058,0.587
		c-0.319,0.478-0.779,0.814-1.024,1.365c-0.222-0.077-0.9,0.496-0.888,0.888c0.144-0.101,0.259-0.458,0.478-0.273
		c-0.003-0.125,0.144-0.437,0.205-0.273c-0.371,0.448-0.609,1.03-0.956,1.502c0.169,0.118,0.122,0.451,0.41,0.273
		c-0.049,0.209,0.118,0.201,0.068,0.41c-0.272-0.022-0.244,0.257-0.41,0.341c0.102,0.012,0.252-0.024,0.273,0.068
		c-0.185,0.271-0.785,0.488-0.956,0.546c0.233-0.699,0.991-0.792,0.615-1.502c0.018,0.314-0.247,0.345-0.341,0.546
		C17.441,1.272,17.508,1,17.235,1.068c0.056,0.295,0.282,0.115,0.41,0.41c-0.153,0.188-0.229,0.454-0.41,0.614
		c-0.073-0.063-0.021-0.252-0.205-0.205c0.145,0.327-0.222,0.356,0.136,0.41c-0.104,0.366-0.393,0.156-0.614,0.341
		c-0.007-0.077,0.099-0.106,0-0.137c-0.084,0.039-0.212,0.001-0.273,0.205C16.271,2.059,16.572,1.213,17.167,1
		c-0.17-0.01-0.02-0.231,0-0.273c-0.17,0.048-0.28,0.067-0.41-0.068c0.187-0.256,0.48-0.846,0.819-1.161
		c-0.519-0.035-0.583,1.245-1.229,1.093c0.119,0.32,0.402,0.135,0.546,0.341c-0.137,0.146-0.256,0.564-0.478,0.41
		c0.002,0.229-0.094,0.361-0.205,0.478c0.015-0.129-0.077-0.151-0.068-0.273c0.271-0.226-0.109-0.456,0.136-0.819
		c-0.321,0.267-0.338,1.263-0.887,0.956c0.112,0.529-0.57,0.774-0.683,1.297c0.472-0.371,0.725-0.96,1.161-1.366
		c-0.074,1.105-0.562,1.968-1.434,2.185c0.096-0.337,0.335-0.587,0.273-0.751c-0.296,0.423-0.348,0.802-0.41,1.092
		c0.055-0.154,0.399-0.37,0.478-0.273c-0.008,0.196-0.291,0.118-0.273,0.341c0.239-0.035,0.244-0.302,0.478-0.341
		c-0.204,0.319-0.324,0.723-0.683,0.887c0.186,0.063-0.069,0.239-0.068,0.342c0.268,0.04,0.174-0.281,0.342-0.342
		c0.193,0.012,0.468-0.059,0.478,0.137c-0.268,0.102-0.013,0.106,0.068,0.205c-0.751,0.828-1.727,1.767-2.117,2.731
		c0.568-0.365,0.812-1.419,1.366-1.57c-0.163,0.383-0.855,0.889-0.546,1.297c-0.156-0.401,0.454-0.883,0.615-0.956
		c-0.778,0.792-0.749,2.392-1.639,3.072c0.008-0.72,0.165-1.292,0.41-1.775c-0.389,0.021-0.388,0.432-0.41,0.819
		c-0.244,0.325-0.558,0.58-0.819,0.887c0.364-0.045,0.386-0.434,0.683-0.546c-0.017,0.275,0.217,0.647-0.136,0.41
		c0.188,0.29,0.403,0.951,0.068,1.161c0.079-0.101,0.079-0.172,0-0.273c0.069,0,0.082,0.055,0.137,0.068
		c-0.03-0.174-0.096-0.313-0.205-0.41c-0.072,0.29,0.086,0.75-0.137,0.478c0.004,0.247,0.17,0.331,0.205,0.546
		c-0.097,0.016-0.115,0.112-0.205,0.137c0.02-0.042,0.17-0.263,0-0.273c-0.152,0.206-0.125,0.283,0,0.478
		c-0.068,0-0.081,0.055-0.137,0.068c0.021-0.134-0.092-0.135-0.136-0.205c0.101-0.013,0.063-0.165,0.068-0.273
		c-0.275,0.089-0.215,0.513-0.546,0.546c-0.088-0.159-0.503,0-0.751,0c0.418,0.183,0.579,0.188,0.819,0.341
		c-0.445-0.016,0.074,0.303,0,0.546c-0.26-0.021-0.144,0.144-0.205,0.273c-0.198-0.166-0.029-0.302-0.136-0.41
		c-0.111,0.278-0.213-0.363-0.342-0.068c0.074,0.017,0.164,0.112,0.068,0.137c-0.17-0.058-0.238-0.218-0.341-0.341
		c-0.004,0.042-0.01,0.081-0.068,0.068c0,0.069-0.055,0.082-0.068,0.137c0.275,0.04,0.882,0.226,0.819,0.819
		c-0.127,0.055-0.25,0.114-0.41,0.137c-0.076-0.214-0.032-0.181,0.068-0.341c-0.219,0.06-0.142-0.177-0.273-0.205
		c0.135,0.263,0.064,0.333,0.137,0.683c-0.25,0.206-0.732,0.179-0.888,0.478c0.117,0.027,0.175-0.101,0.205,0
		c-0.011,0.08-0.108,0.074-0.205,0.068c-0.084,0.221,0.221,0.052,0.136,0.273c-0.224,0.026-0.301,0.2-0.478,0.273
		c-0.028-0.504,0.07-1.306,0.41-1.024c-0.046-0.218-0.227-0.129-0.273-0.205c0.288-1.039,0.5-1.731,1.093-2.458
		c-0.081-0.011-0.194,0.012-0.205-0.068c0.094-0.093,0.322-0.4,0.137-0.546c-0.086,0.301-0.21,0.564-0.41,0.751
		c0.262,0.404-0.407,0.489-0.546,0.546c0.122,0.038,0.284,0.035,0.341,0.137c-0.085,0.281-0.523,0.567-0.41,0.819
		c0.017-0.074,0.113-0.164,0.137-0.068c-0.35,1.007-0.209,2.541-1.297,2.799c-0.054,0.175-0.409,0.636-0.683,0.819
		c-0.016-0.053-0.002-0.135-0.068-0.137c-0.072,0.254,0.144,0.221,0.205,0.341c-0.058,0.124-0.176,0.188-0.205,0.342
		c0.256-0.063,0.279-0.358,0.41-0.546c-0.118-0.027-0.175,0.101-0.205,0c0.176-0.007,0.098-0.267,0.273-0.273
		c-0.004,0.087-0.087,0.094-0.068,0.205c0.272-0.025,0.256-0.552,0.41-0.137c0.026-0.328,0.029-0.525,0.41-0.614
		c-0.009,0.171-0.13,0.214,0.068,0.273c0.255-0.225-0.046-0.138-0.068-0.41c0.15-0.078,0.227-0.228,0.41-0.273
		c-0.019,0.664-0.363,1.003-0.683,1.366c-0.103-0.289,0.283-0.439,0.068-0.615c-0.148,0.237-0.569,0.75-0.136,0.956
		c-0.343,0.042-0.088,0.306-0.41,0.205c-0.021,0.134,0.092,0.136,0.136,0.205c-0.394,0.266-0.29,1.03-0.751,1.229
		c0.04,0.74-0.628,1.166-1.024,1.229c0.073,0.186,0.043,0.32-0.137,0.41c-0.283,0.061-0.567-0.347-0.546-0.41
		c-0.079,0.354-0.141,0.155-0.41,0.273c0.463,0.041,0.16,0.208,0.273,0.41c0.068-0.091,0.064-0.254,0.205-0.273
		c0.15,0.146,0.512,0.08,0.615,0.273c-0.161,0.021-0.041,0.324-0.273,0.273c0.029-0.13,0.147-0.171,0.136-0.341
		c-0.223-0.018-0.197,0.212-0.341,0.273c0.408,0.235-0.241,0.51-0.341,0.683c0.094,0.088,0.018,0.141,0,0.341
		c-0.136-0.114-0.087,0.006-0.273,0c0.05,0.324-0.136,0.787-0.41,0.751c0.181,0.186-0.242,0.709-0.342,0.615
		c0.053-0.069,0.328-0.254,0.137-0.342c-0.576,0.602-0.823,1.507-1.297,1.98c0.104,0.652-0.092,0.956,0,1.297
		c0.122-0.143-0.054-0.256,0.068-0.341c0.018,0.221,0.297,1.001-0.068,0.956c0.038-0.043,0.277-0.207,0.068-0.273
		c-0.008,0.083-0.021,0.162-0.137,0.137c0.062,0.416,0.126,0.831,0.273,1.161c0.03-0.328-0.042-0.91,0-1.024
		c0.127,1.971,0.102,4.381-0.273,6.075c0.336,0.863,0.462,1.928,0.546,3.072c0.099,1.338-0.112,2.646-0.205,3.756
		c-0.228,0.921-0.467,1.829-0.755,2.69c1.455,3.566,1.264,7.741,0.921,11.525c-0.135,1.491-0.234,3.001-0.369,4.503
		c0.823,1.789,1.66,3.565,2.524,5.314c0.869-1.467,1.973-3.016,3.277-3.824c0.062,0.121,0.251,0.113,0.273,0.273
		c0.041,0.121-0.2,0.283,0,0.342c0.069-0.092,0.064-0.254,0.205-0.273c-0.066,0.248,0.333,0.031,0.205,0.342
		c-0.176-0.139-0.051,0.166-0.341,0.205c0.168,0.059,0.25,0.203,0.273,0.408c0.187,0.008,0.138-0.113,0.273,0
		c-0.142,0.178,0.152,0.254,0,0.479c0.08,0.012,0.193-0.012,0.205,0.068c-0.083-0.021-0.235,0.197-0.068,0.205
		c0.004-0.041,0.01-0.08,0.068-0.068c0.004,0.041,0.01,0.08,0.068,0.068c0.078-0.309-0.306-0.51-0.068-0.752
		c0.038,0.385,0.228,0.906,0.615,0.547c0.659,0.186-0.002,1.379,0.273,1.844c-0.016-0.258,0.244-0.445,0.341-0.205
		c0.202-0.883,0.725-1.715,1.161-2.662c0.095,0.195-0.186,0.346,0,0.408c0.173-0.486,0.392-0.928,0.751-1.229
		c0.087,0.164,0.525-0.023,0.478,0.273c-0.042-0.02-0.263-0.17-0.273,0c0.438,0.301,0.915,0.574,0.751,1.297
		c0.139,0.137,0.134-0.029,0.273-0.068c0.167,0.381,0.687,0.406,0.751,0.889c0.209,0.049,0.249-0.07,0.41-0.068
		c0.176,0.439,0.562,0.666,0.751,1.092c-0.092,0.066-0.137,0.182-0.205,0.273c0.349-0.088,0.072,0.199,0.205,0.205
		c0.3-0.004,0.45,0.732,0.614,1.092c0.713,0.238,0.878,0.262,1.434,0.41c0.016-0.053,0.002-0.135,0.068-0.137
		c0.06,0.1,0.103,0.217,0.273,0.205c0.103-0.102,0.02-0.389,0.273-0.342c0.005,0.119-0.015,0.213-0.068,0.273
		c0.142,0.069,0.259-0.056,0.337-0.062c0.123-0.188,0.252-0.373,0.394-0.552c0.397-0.5,0.84-0.953,1.314-1.373
		c0.024-0.044,0.04-0.096,0.071-0.131c-0.006,0.031-0.014,0.058-0.021,0.084c0.038-0.033,0.076-0.064,0.114-0.098
		c-0.008-0.029-0.005-0.052,0.044-0.055c0.011,0.001,0.013,0,0.024,0.001c0.438-0.367,0.901-0.705,1.387-1.017
		c-0.079-0.189-0.143-0.394-0.114-0.691c0.081,0.01,0.155,0.123,0.205,0c-0.038,0-0.078-0.055,0-0.068
		c0.164-0.027-0.038,0.313,0.205,0.205c0.097-0.057-0.174-0.268,0.068-0.41c0.136,0.002,0.087,0.188,0.273,0.137
		c-0.035-0.174-0.116-0.264,0.137-0.271c0.027,0.226,0.151,0.355,0.284,0.477c0.046-0.024,0.093-0.046,0.139-0.07
		c-0.07-0.115-0.145-0.227-0.15-0.406c0.223-0.088,0.329,0.084,0.342-0.137c-0.12-0.039-0.401,0.082-0.41-0.068
		c0.15-0.145-0.088-0.203-0.068-0.41c0.068,0,0.081-0.055,0.136-0.068c0.149,0.01,0.147,0.172,0.137,0.342
		c0.17-0.035,0.412,0.002,0.41-0.205c-0.169-0.09-0.283,0.199-0.341,0c0.299,0.049-0.055-0.137,0.137-0.137
		c0.452-0.064,0.314,0.15,0.478,0.273c-0.266-0.049-0.056,0.291,0,0.342c0.172-0.142,0.183-0.063,0.173,0.055
		c0.494-0.23,1.001-0.44,1.516-0.64c-0.09-0.177,0.124-0.12,0.316-0.124c0.06-0.022,0.121-0.043,0.181-0.064
		c0.024-0.127-0.076-0.379,0.067-0.389c0.219,0.057,0.142,0.059,0.273-0.068c0.018,0.196,0.128,0.248,0.245,0.251
		c0.1-0.034,0.199-0.071,0.299-0.104c-0.102-0.061-0.236-0.088-0.407-0.078c0.135-0.156-0.017-0.076-0.068-0.205
		c0.439,0.01,0.69-0.053,0.956-0.34c0.178,0.141,0.479,0.18,0.478-0.137c-0.512,0.102-0.389-0.432-0.614-0.615
		c0.09,0,0.063-0.119,0.137-0.137c0.058,0.328,0.579,0.344,0.478,0.752c0.421,0.057,0.313-0.416,0.683-0.41
		c0.056-0.193-0.096-0.178-0.068-0.342c-0.171-0.09-0.214,0.27-0.273,0.068c0.076-0.047-0.014-0.227,0.205-0.273
		c0.136,0.002,0.087,0.188,0.273,0.137c-0.224-0.248,0.293-0.219,0.068-0.41c-0.052,0.25-0.545,0.098-0.546,0.068
		c0.161-0.203-0.214-0.115-0.273-0.135c0.01-0.15,0.172-0.148,0.341-0.137c0.029,0.129,0.025,0.293,0.205,0.271
		c0.135-0.047-0.017-0.381,0.137-0.408c0.131,0.027,0.054,0.264,0.273,0.205c0.001-0.137,0.186-0.088,0.137-0.273
		c-0.061-0.168-0.333-0.123-0.41-0.273c0.308,0.006,0.325-0.393,0.136-0.342c0.103-0.283,0.479-0.295,0.751-0.41
		c0.113-0.324-0.209-0.939-0.068-0.477c-0.199,0.141-0.146,0.33-0.205,0.477c-0.133-0.127-0.242-0.373-0.478-0.34
		c0.203-0.227-0.216-0.297-0.068-0.41c0.144,0.145,0.267-0.08,0.41-0.137c0.011-0.17-0.107-0.211-0.136-0.342
		c-0.255,0.199-0.544,0.004-0.751-0.205c0.094-0.002,0.15,0.033,0.205,0.068c-0.016-0.844-1.047-1.52-0.41-2.184
		c0.033,0.262,0.084,0.172,0.273,0.34c0.002-0.453-0.121-0.516,0-0.887c-0.775,0.049-0.399-0.85-0.819-1.023
		c0.012,0.154-0.284,0.549-0.478,0.271c0.408,0.055,0.348-0.479,0.41-0.613c-0.063,0.26-0.274,0.049-0.478,0.068
		c-0.09,0-0.063,0.119-0.137,0.137c-0.012-0.172,0.105-0.215,0.205-0.273c0.081,0.033,0.155,0.072,0.205,0.137
		c0.254,0.025,0.179-0.277,0.478-0.205c0.081-0.287-0.288-0.123-0.341-0.273c0.003-0.094-0.032-0.15-0.068-0.205
		c0.248,0.17,0.111-0.303,0-0.205c0.358-0.381,0.016-0.588-0.068-1.16c-0.177,0.016-0.315-0.145-0.478-0.068
		c0.095,0.361-0.2,0.354,0,0.684c-0.193-0.057-0.177,0.096-0.341,0.068c-0.057-0.57-0.031-0.395-0.205-0.957
		c0.373,0.078-0.003-0.26,0.273-0.342c0.225-0.021,0.201,0.207,0.341,0.342c0.01-0.127,0.231-0.041,0.273-0.137
		c0.058-0.258-0.227-0.32-0.068-0.477c0.102-0.002,0.279,0.252,0.341,0.066c-0.107-0.145-0.488-0.502-0.137-0.682
		c0.129,0.008,0.047,0.225,0.205,0.205c-0.014-0.197,0.017-0.348,0.136-0.41c0.042,0.094,0.263,0.01,0.273,0.137h-0.273
		c-0.014,0.287-0.024,0.57,0.205,0.615c0.012-0.104-0.024-0.252,0.068-0.273c-0.009,0.309,0.133,0.078,0.205,0.342
		c0.161-0.162-0.011-0.336,0-0.547c0.125-0.182,0.232,0.043,0.273-0.273c-0.028-0.117-0.088,0.014-0.205,0
		c0.045-0.25-0.148-0.262-0.137-0.479c0.117-0.191,0.269,0.025,0.273-0.205c-0.017-0.127-0.113,0.039-0.137-0.068
		c0.107-0.051,0.102-0.215,0.273-0.203c-0.22,0.348,0.282,0.289,0.41,0.613c-0.087,0.125-0.365,0.449-0.068,0.547
		c0.397-0.6,0.482,0.59,0.888,0c-0.102-0.104-0.11-0.301-0.136-0.479c0.309,0.195-0.074-0.293,0.205-0.273
		c-0.076,0.1-0.074,0.168,0.068,0.205c-0.013-0.148,0.056-0.217,0.205-0.205c0.062-0.311-0.113-0.387-0.136-0.613
		c-0.352,0.035-0.517,0.123-0.751-0.137c-0.157,0.07,0.032,0.486-0.137,0.545c-0.077-0.014-0.106-0.074-0.137-0.135
		c-0.033-0.281,0.313-0.449,0.068-0.547c0.054-0.133,0.248-0.475,0.341-0.342c0.021,0.18-0.265,0.055-0.205,0.273
		c0.171-0.09,0.166,0.318,0.273,0.068c-0.215-0.131,0.478-0.287,0.205-0.479c-0.013,0.057-0.223-0.08-0.273-0.068
		c-0.014-0.236-0.097-0.322,0.068-0.477c0.114,0.135-0.006,0.086,0,0.271c0.334-0.219,0.282,0.172,0.478,0.273
		c0.083-0.295-0.015-0.252,0.068-0.545c-0.22-0.061-0.094,0.225-0.273,0.203c-0.14-0.391,0.313-0.799-0.068-1.16
		c-0.163,0.188-0.049,0.348-0.342,0.479c0.049-0.141,0.214-0.271,0.068-0.41c0.143-0.078,0.257,0.031,0.341-0.205
		c-0.251-0.203-0.269-0.641-0.614-0.75c0.019,0.178,0.023,0.342-0.205,0.273c0.021-0.094,0.097-0.131,0.068-0.273
		c-0.204,0.082-0.287,0.072-0.341-0.137c0.226,0.217,0.299-0.102,0.41-0.205c0.028,0.086,0.088,0.139,0.205,0.137
		c-0.067-0.295,0.256-0.199,0.273-0.41c-0.193-0.012-0.159,0.205-0.341,0.205c-0.279-0.35-0.143-0.693-0.546-0.889
		c0.206-0.021,0.141-0.521,0.341-0.34c0.031-0.186,0.065-0.32,0-0.41c-0.004,0.041-0.01,0.08-0.068,0.068
		c-0.004-0.041-0.01-0.08-0.068-0.068c-0.003,0.094,0.032,0.15,0.068,0.205c-0.129-0.016-0.15,0.076-0.273,0.068
		c0.184-0.332-0.087-0.029-0.137-0.137c0.085-0.441,0.191-0.754-0.136-0.957c0.467,0.01,0.382-0.656,0.136-0.818
		c0.129,0.016,0.151-0.076,0.273-0.068c-0.179-0.553,0.172-0.838,0.546-1.16c0.05-0.209-0.118-0.201-0.068-0.41
		c-0.216,0.08-0.467,0.125-0.615,0.273c0.393,0.189-0.332,0.742-0.478,0.613c0.128-0.035,0.376-0.299,0.205-0.408
		c-0.001,0.088-0.189,0.086-0.205,0c0.279-0.143,0.584-0.514,0.683-0.82c-0.368-0.08,0.14-0.625-0.205-0.682
		c-0.135,0.156,0.017,0.074,0.068,0.203c-0.899,0.23-0.146-0.924-0.683-0.545c0.279-0.033,0.01,0.184-0.068,0.205
		c0.245-0.266-0.243-0.213-0.205-0.479c0.127-0.064,0.229,0.205,0.273,0c-0.167-0.098-0.25-0.105-0.342-0.137
		c0.227-0.066-0.076-0.135-0.068-0.205c0.23,0.004,0.291-0.123,0.41,0.068c-0.053,0.016-0.08,0.057-0.068,0.137
		c0.207,0.025,0.142-0.223,0.205-0.342c-0.203-0.094-0.419-0.172-0.614-0.273c0.012-0.102-0.024-0.252,0.068-0.271
		c-0.009,0.121,0.067,0.158,0.205,0.137c-0.006-0.256-0.077-0.195,0-0.41c-0.17-0.012-0.211,0.107-0.341,0.137
		c0.059-0.219-0.107-0.211-0.137-0.342c0.242,0.037,0.352-0.059,0.41-0.205c-0.085-0.279-0.484-0.244-0.614-0.479
		c0.139-0.096-0.067-0.234,0.068-0.408c-0.197-0.125-0.214-0.111-0.478-0.068c-0.118-0.301,0.108-0.748-0.137-1.025
		c0.099-0.037,0.167-0.105,0.205-0.203c-0.134-0.021-0.136,0.092-0.205,0.135c0.003-0.094-0.032-0.148-0.068-0.203
		c0.218,0.057,0.259-0.061,0.341-0.137c0.038,0.122,0.035,0.284,0.137,0.34c0.182-0.219,0.082-0.297-0.068-0.477
		c0.225,0.006,0.943-0.721,1.093-0.204c0.005-0.254,0.102-0.221-0.068-0.342c0.699-0.029,1.161-0.295,1.707-0.478
		c0.06-0.22-0.177-0.142-0.205-0.272c0.248-0.157,0.469,0.064,0.341,0.341c0.214-0.014,0.279-0.177,0.41-0.273
		c0.184,0.089,0.314,0.232,0.478,0.342c-0.324,0.21,0,0.306-0.137,0.614c0.474,0.2,0.185,0.739,0.409,1.159
		c0.211,0.051,0.132-0.188,0.342-0.137c0.004,0.094-0.031,0.15-0.068,0.205c0.211-0.012,0.387,0.162,0.547,0
		c-0.175,0.236,0.443,0.295,0.479,0.342c-0.088,0.162,0.133,0.273,0,0.545c0.219,0.107,0.344,0.414,0.682,0.205
		c-0.053-0.266-0.07-0.354,0.068-0.545c-0.09-0.068-0.205-0.113-0.273-0.205c0.33,0.074,0.434-0.352,0.82-0.41
		c0.16,0.021,0.127,0.238,0.342,0.205c0.746-0.236,1.84,0.234,2.389,0.137c-0.404-0.289-0.871-0.686-0.955-1.092
		c0.588-0.225,0.74-0.708,1.16-0.819c1.012,0.219,1.889,0.263,2.732,0.137c-0.021,0.162-0.238,0.127-0.205,0.342
		c0.957-0.449,1.623-0.054,2.525,0.204c0.018-0.518-0.541-0.458-0.479-1.023c0.883-0.281,1.373,0.651,1.775,0.683
		c0.027,0.348,0.49,0.43,0.273,0.817c0.207-0.002,0.17,0.24,0.205,0.41c0.354-0.059,0.35,0.242,0.41,0.479
		c0.322,0.025,0.518,0.111,0.408,0.342c-0.064-0.059-0.221-0.361-0.34-0.137c0.174,0.008,0.135,0.229,0.135,0.408
		c-0.094,0.004-0.148-0.031-0.203-0.068c0.031,0.416,0.07,0.414,0.203,0.684c0.426-0.141,0.391,0.086,0.752,0.137
		c-0.191-0.477,0.139-0.744,0.205-1.365c-0.256-0.072-0.221,0.143-0.342,0.205c-0.1-0.137,0.07-0.24-0.137-0.342
		c0.184-0.139,0.094-0.23,0.273-0.273c-0.127-0.238-0.299-0.428-0.41-0.682c0.063-0.02,0.23-0.254,0.068-0.274
		c-0.008,0.084-0.02,0.162-0.137,0.137c0.227-0.555-0.225-0.928-0.477-1.501c0.309,0.221-0.029-0.333,0.135-0.341
		c0.109,0.006,0.055,0.174,0.205,0.136c0.037-0.222-0.037-0.562-0.137-0.751c0.412,0.066,0.48-0.427,1.025-0.41
		c0.049-0.299-0.137,0.055-0.137-0.136c0.279-0.154,0.723-0.309,0.887-0.751c-0.537,0.031-0.617,0.521-1.023,0.683
		c0.063-0.448,0.639-0.375,0.887-1.024c-0.287-0.216,0.195-0.792,0.273-1.092c-0.375,0.216-0.51,0.674-0.818,0.956
		c0.084-0.256,0.178-0.504,0.205-0.819c-0.256-0.072-0.135,0.23-0.273,0.273c-0.1-0.446-0.166-0.928-0.41-1.229
		c-0.1,0.106-0.092,0.318-0.205,0.41c-0.152-0.166-0.238-0.399-0.479-0.478c-0.094,0.196,0.188,0.347,0,0.41
		c-0.328,0.033-0.166-0.424-0.408-0.478c-0.199,0.11,0.107,0.352-0.068,0.41c-0.129-0.212-0.307-0.376-0.479-0.546
		c-0.045,0.25,0.148,0.262,0.137,0.478c-0.432-0.48-1.053-0.113-1.502-0.478c-0.166,0.342-0.725,0.168-0.955,0.068
		c-0.285,0.282-0.934,0.197-1.229-0.068c0.021,0.47-0.713,0.273-0.82,0.273c0.006-0.107,0.174-0.054,0.137-0.205
		c-0.215,0.076-0.18,0.032-0.342-0.068c0.02,0.155-0.016,0.256-0.137,0.273c-0.041-0.122,0.201-0.284,0-0.341
		c-0.215,0.258-1.234,0.353-1.16,0.136c-0.328,0.036-0.533,0.196-0.82,0.273c-0.135-0.141-0.135-0.064,0-0.205
		c-0.209-0.106-0.48,0.222-0.75,0.273c0.043-0.354-0.326,0.082-0.342-0.137c0.041-0.095,0.262-0.01,0.273-0.137
		c-0.363-0.22-0.584,0.216-0.82,0.341V25.17c-0.277,0.103-0.475,0.374-0.682,0.205c0.83-0.807,1.002-2.274,1.844-3.072
		c-0.082-0.011-0.195,0.012-0.205-0.068c0.279-0.154,0.619-0.606,0.477-0.956c-0.109,0.253-0.146,0.581-0.408,0.683
		c0.137-0.139-0.031-0.134-0.068-0.273c0.086,0.206,0.148-1.036,0.34-0.888c-0.025-0.612,0.414-1.242,0.479-1.98
		c-0.156-0.094-0.256,0.176-0.273,0c0.012-0.103-0.023-0.252,0.068-0.273c0.008,0.107-0.008,0.237,0.137,0.205
		c-0.035-0.377,0.039-0.644,0.068-0.956c-0.242-0.106-0.041,0.232-0.205,0.205c-0.076-0.754,0.24-1.431,0.205-1.639
		c-0.016,0.053-0.002,0.135-0.068,0.136c0.232-0.907,0.008-2.002,0.41-2.458c0.029,1.845-0.096,2.62-0.137,3.892
		c-0.01-0.169,0.035-0.283,0.137-0.341c0.012,0.102-0.023,0.252,0.068,0.273c0.035-0.601,0.244-1.767,0-2.458
		c0.309-0.351,0.021-0.725,0.547-0.751c-0.17-0.451,0.211-1.309,0-1.092c-0.018-0.245,0.006-0.658,0.205-0.478
		c-0.049-0.216-0.059-0.467,0-0.615c0.158,0.297,0.023,0.887,0.068,1.297c0.27-0.088,0.139,0.225,0.408,0.137
		c0.152-0.511-0.27-0.688-0.205-1.297c0.078-0.007,0.107,0.099,0.137,0c-0.076-0.141,0.006-0.06-0.137-0.137
		c0.096-0.042,0.012-0.263,0.137-0.273c0.326,0.274-0.076,0.888,0.342,1.092c0.037-0.258,0.096-0.32-0.068-0.478
		c0.311-0.213,0.938,0.008,0.889,0.341c0.014-0.077,0.074-0.106,0.137-0.137c-0.047,0.296,0.291,0.209,0.34,0.41
		c0.16,0.059,0.295-0.239,0.342-0.068c-0.016,0.098-0.111,0.115-0.137,0.205c0.305,0.083,0.361,0.414,0.615,0.546
		c0.191,0.029-0.172-0.254,0.068-0.273c0.402,0.11,0.676,0.674,1.023,0.614c-0.096,0.419,0.537,0.302,0.684,0.615
		c0.025-0.118-0.102-0.175,0-0.205c0.043,0.23,0.189,0.355,0.477,0.342c-0.004,0.087-0.088,0.094-0.068,0.205
		c0.904,0.431,1.906,0.841,2.459,1.434c0.213-0.078,0.18,0.02,0.34-0.068c0.189,0.507,1.113,0.522,1.162,0.956
		c1.064,0.37,2.518,0.94,3.209,1.912c1.619,1.088,2.813,3.194,3.004,5.94h-0.137c-0.018,0.223,0.266,0.145,0.273,0.341h-0.205
		c0.027,0.322,0.047,0.349,0.273,0.546c-0.453,0.058-0.648,0.019-1.094,0.136c-0.094-0.042-0.01-0.263-0.137-0.273
		c-0.893,0.611-2.031,0.895-2.73,1.434c0.383,0.063-0.281,0.358,0,0.546c-0.547,0.335-0.611,1.148-0.682,1.775
		c0.205-0.269,1.826-0.72,2.594-0.341c-0.199,0.061-0.209,0.061-0.41,0c0.037,0.313-0.23,0.275-0.408,0.204
		c-0.615,0.296-1.186,0.636-1.912,0.819c0.4,0.229-0.074,0.538,0.205,0.817c0.377,0.084,0.414-0.176,0.613-0.271
		c0.215,0.332,0.564-0.256,0.889,0c0.041-0.383-0.541-0.143-0.615-0.41c0.516-0.169,0.738,0.167,0.955,0.478
		c0.166,0.027,0.148-0.125,0.342-0.068c0.082,0.258,0.893,0.389,1.16,0.34c0.117,0.234,0.285,0.264,0.547,0.205
		c0.23,0.211,0.35,0.414,0.547,0.342c0.041,0.406-0.246,0.973-0.615,0.955c0.176,0.527-0.652,0.678-0.41,0.957
		c-0.412,0.072-0.35-0.127-0.408-0.273c-0.086,0.178-0.537,0.188-0.205,0.41c0.125-0.236,0.41-0.061,0.479,0.137
		c0.17,0.01,0.211-0.107,0.34-0.137c0.102,0.285,0.393,0.381,0.752,0.408c0.033,0.297,0.541,1.045,0.818,1.094
		c-0.113-0.188-0.303-0.568-0.137-0.82c-0.264,0.1-0.293-0.381-0.203-0.41c0.156,0.121,0.424,0.082,0.271,0.342
		c0.361,0.006,0.52,0.211,0.82,0.273c1.705-0.619,2.357-1.637,3.277-3.004c0.744-1.106,1.621-2.396,2.049-3.617
		c0.105-0.713,0.223-1.415,0.477-1.98c-0.133-0.567,0.4-0.829,0.205-1.229c-0.016,0.053-0.002,0.134-0.068,0.136
		c0.037-0.099-0.08-0.353,0.068-0.341c0.008,0.083,0.021,0.162,0.137,0.137c-0.027-0.208,0.18-0.348-0.068-0.41
		c0.051,0.111-0.135,0.297-0.137,0.136c0.498-1.056-0.141-2.833,0.479-3.687C61.857,19.924,62.33,18.441,62.299,16.908z
		 M4.809,23.873c0.107-0.098,0.054-0.356,0.273-0.341C4.979,23.633,5.062,23.92,4.809,23.873z M4.331,24.009
		c0.244-0.462,0.732-1.042,0.888-1.366c0.242-0.208-0.023,0.241,0.205,0.273C5.089,23.007,4.881,23.764,4.331,24.009z M5.97,21.688
		c-0.263-0.077,0.263-0.265,0-0.342c0.245-0.073,0.223-0.414,0.41-0.546C6.644,21.226,6.017,21.346,5.97,21.688z M6.652,20.869
		c-0.172-0.129,0.063-0.24-0.068-0.41c0.117,0.003,0.177-0.051,0.205-0.137C6.855,20.497,6.609,20.563,6.652,20.869z M9.247,16.635
		c0.124-0.172,0.124-0.468,0.41-0.478C9.617,16.566,9.425,16.411,9.247,16.635z M9.861,14.997c-0.05-0.186,0.136-0.137,0.137-0.273
		c-0.171-0.012-0.214,0.105-0.273,0.205c-0.187-0.063,0.095-0.213,0-0.41c0.206,0.186,0.27-0.184,0.478-0.205
		c-0.102,0.248-0.176,0.372-0.205,0.546c0.117,0.003,0.177-0.05,0.205-0.136C10.316,14.776,10.077,15.047,9.861,14.997z
		 M14.368,37.799c0.055,0.014,0.068,0.068,0.137,0.068c-0.115-0.223,0.036-0.301,0.136-0.477c0.096,0.023,0.006,0.119-0.068,0.137
		c0.165,0.135,0.068,0.107,0.136,0.34c-0.168-0.105-0.201,0.232-0.068,0.205c-0.312,0.156-0.203,0.307-0.41,0.547
		C14.071,38.291,14.446,38.146,14.368,37.799z M10.886,30.086c-0.002,0.066-0.083,0.053-0.137,0.068
		c0.135,0.077,0.268,0.583-0.068,0.546c-0.035-0.295,0.021-0.423-0.068-0.546C10.68,30.044,10.794,29.997,10.886,30.086z
		 M12.797,37.73c-0.764-2.043-2.577-3.986-2.185-6.348c0.047-0.184-0.141-0.133-0.205-0.206c0.036-0.055,0.071-0.111,0.068-0.203
		c0.361,0.064,0.324,0.446,0.205,0.68c0.155,0.061,0.538,0.051,0.615-0.271c0.224,0.047,0.229,0.316,0.478,0.34
		c-0.297,0.162-0.176,0.508-0.137,0.82c-0.345,0.225-0.555,0.582-0.751,0.955c0.276,0.014,0.226-0.543,0.478-0.342
		c-0.157-0.258,0.318-0.588,0.41-0.613c0.248,0.518,0.112,1.891,0.614,2.389c-0.026,0.27-0.048,0.209-0.137,0.479
		c0.036,0.195,0.101-0.111,0.137-0.137c0.2,0.291,0.484,0.818,0.273,1.297c0.288,0.105-0.015-0.379,0.273-0.273
		C12.87,36.867,13.366,37.336,12.797,37.73z M12.866,10.217c0.061-0.2,0.061-0.21,0-0.41c0.236,0.34,0.281-0.421,0.478-0.546
		C13.324,9.448,13.156,10.074,12.866,10.217z M13.821,34.795c0.135-0.217,0.266,0.139,0.205,0.342
		C13.691,35.203,13.928,34.801,13.821,34.795z M14.777,40.121c-0.196,0.082-0.362,0.143-0.546,0.068
		c-0.083-0.037-0.05-0.531-0.205-0.273c-0.19-0.432,0.054-1.33,0.614-1.434c0.084-0.221-0.221-0.053-0.136-0.273
		c0.055,0.037,0.111,0.072,0.205,0.068c-0.096,0.469-0.036,0.732,0.068,1.229c-0.101-0.035-0.172-0.1-0.273-0.137
		C14.613,39.604,14.863,39.693,14.777,40.121z M18.259,0.522c-0.058-0.292,0.915-1.137,0.819-1.502
		c0.145-0.061,0.202-0.208,0.41-0.205C19.139-0.67,18.748-0.029,18.259,0.522z M17.031,2.639c-0.021,0.161-0.237,0.127-0.205,0.341
		c-0.09-0.024-0.107-0.12-0.205-0.137C16.66,2.678,16.879,2.691,17.031,2.639z M16.075,2.775c-0.248-0.043,0.158-0.319-0.068-0.341
		C16.199,2.201,16.139,2.682,16.075,2.775z M15.938,1.819c0.219,0.016,0.157,0.443-0.068,0.41
		C15.96,2.084,15.836,2.027,15.938,1.819z M15.87,3.526c-0.03-0.113-0.293,0.109-0.341,0.205c-0.176-0.406,0.776-0.633,0.819-0.819
		c0.111-0.193,0.213,0.19,0.341,0.205c-0.518,0.627-0.427,1.471-1.502,1.57C15.124,4.009,15.555,3.826,15.87,3.526z M14.709,4.687
		c-0.167-0.172,0.323-0.266,0.341-0.478c0.139,0.096-0.067,0.235,0.068,0.41C14.948,4.75,14.838,4.514,14.709,4.687z M16.621,42.715
		c-1.028-0.363-2.497-2.43-0.683-2.867c0.298-0.047,0.385,0.117,0.683,0.068c0.037,0.227,0.063,0.418,0.068,0.479
		c0.029,0.152,0.362,0.002,0.41,0.137c-0.252,0.338,0.094,1.023,0.205,0.955C17.245,41.793,16.981,42.484,16.621,42.715z
		 M19.352,42.238c-0.11,0.02-0.118-0.064-0.205-0.068c0.086,0.371-0.003,0.359-0.068,0.682c-0.622,0.131-1.392,0.518-2.185,0.137
		c-0.011-0.602,0.38-0.803,0.478-1.297c1.092,0.256,1.343-0.391,2.116-0.684C19.423,41.33,19.561,41.904,19.352,42.238z
		 M19.352-0.434c0.115,0.225,0.041,0.437,0,0.683c-0.055-0.013-0.068-0.069-0.137-0.068c0.059,0.055,0.041,0.187,0.137,0.205
		c-0.128-0.014-0.214,0.24-0.341,0.41c-0.136-0.001-0.087-0.186-0.273-0.136c-0.177,0.058,0.131,0.299-0.068,0.41
		c-0.296-0.292,0.127-0.467-0.136-0.751c0.532-0.409,0.805-0.926,1.229-1.297C19.655-0.768,19.572-0.532,19.352-0.434z
		 M19.693-1.458C19.681-1.4,19.72-1.394,19.762-1.39c-0.06,0.202-0.103-0.159-0.273-0.068c0.229-0.363,0.585-0.599,0.751-1.024
		c0.118,0.109,0.147,0.308,0.136,0.546c-0.213-0.075-0.218-0.07-0.205,0.205C20.023-1.628,19.747-1.655,19.693-1.458z M20.649-0.707
		c-0.099-0.016-0.024-0.204-0.137-0.205c0.022,0.402-0.136,0.359-0.41,0.819c-0.19-0.519,0.139-0.684,0.341-1.024
		c0.061,0.042,0.122,0.083,0.137,0C20.75-1.021,20.701-0.881,20.649-0.707z M21.195-2.619c-0.056-0.193,0.096-0.177,0.068-0.341
		C21.524-3.011,21.411-2.518,21.195-2.619z M24.131,59.307c0.155-0.117,0.264-0.01,0.546,0
		C24.533,59.539,24.342,59.398,24.131,59.307z M24.678-2.96c-0.208-0.125,0.194-0.209,0.341-0.205
		C24.997-3.005,24.721-3.099,24.678-2.96z M25.087-2.892c-0.102-0.03,0.027-0.087,0-0.205c0.161,0.167,0.127-0.102,0.341-0.068
		C25.472-2.917,25.104-3.081,25.087-2.892z M29.525,57.805c0.247,0.145-0.136,0.221-0.137,0.342
		C29.231,58.092,29.506,57.908,29.525,57.805z M29.184,57.326c0.067,0.275-0.408,0.275-0.341,0
		C28.973,57.455,28.966,57.287,29.184,57.326z M28.501,51.25c0.183,0.158,0.155,0.527,0.273,0.752
		c-0.099,0.201-0.268-0.656-0.41-0.684C28.389,51.211,28.485,51.379,28.501,51.25z M28.569,34.59
		c0.013,0.059-0.027,0.064-0.068,0.068h-0.137c0.073-0.254-0.169-0.193-0.136-0.408C28.5,34.205,28.28,34.652,28.569,34.59z
		 M28.16,58.488c-0.13-0.129-0.171-0.008-0.341,0v-0.342C28.087,58.105,28.121,58.299,28.16,58.488z M28.091,50.227
		c-0.078-0.014-0.038-0.068,0-0.068c0.013-0.148-0.056-0.217-0.205-0.205c0.099-0.127,0.395-0.602,0-0.615
		c0.139-0.154,0.357-0.15,0.478,0C28.26,49.762,28.301,49.908,28.091,50.227z M28.16,48.996c-0.121,0.092-0.289-0.004-0.41,0.205
		C27.579,49.1,28.063,48.848,28.16,48.996z M27.75,58.488c-0.024,0.09-0.12,0.107-0.137,0.205c-0.069-0.045-0.07-0.158-0.205-0.137
		c0.053-0.063,0.073-0.154,0.068-0.273C27.737,58.182,27.49,58.588,27.75,58.488z M27.34,46.471
		c-0.079,0.244,0.207,0.469,0.068,0.547c-0.229-0.057-0.049-0.314-0.137-0.615c0.122,0.02,0.14-0.064,0.068-0.068
		c0.042-0.031,0.285-0.012,0.273,0.137H27.34z M27.545,32.475c-0.17-0.131,0.085-0.297-0.068-0.479
		C27.675,31.998,27.638,32.383,27.545,32.475z M39.084,29.608h-0.205c-0.111-0.106,0.023-0.266,0.068-0.41
		C39.156,29.189,39.141,29.554,39.084,29.608z M40.586,30.495c-0.152-0.113,0.127-0.371,0.137-0.546
		C40.873,30.06,40.701,30.423,40.586,30.495z M35.738,28.038c0.545-0.158,1.141-0.266,1.777-0.614c0,0-0.002,0-0.002,0
		c0.002,0,0.002,0,0.004,0c0.045-0.024,0.088-0.041,0.133-0.067c-0.002,0.065-0.08,0.053-0.133,0.067c-0.002,0-0.002,0-0.002,0.001
		c0.432,0.206,1.297-0.212,1.91,0.068c0.092-0.014,0.127-0.284,0.137,0c0.078-0.288,0.469,0.151,0.547-0.136
		c0.404,0.139,0.588,0.601,1.023,0.341c-0.023,0.293,0.248,0.185,0.41,0.136c-0.277,0.35,0.146,0.208,0.137,0.615
		c0.252-0.099,0.268-0.128,0.613-0.205c-0.012,0.24,0.162,0.294,0.273,0.41c0.004-0.269-0.068-0.141,0.41-0.136
		c-0.107,0.181-0.076,0.212,0.137,0.136c0.088,0.366,0.332,0.578,0.477,0.888c-0.207-0.256-0.213,0.037-0.477,0.068
		c-0.117-0.157-0.172-0.375-0.479-0.341c-0.129-0.121,0.082-0.199-0.068-0.341c-2.004-0.416-4.898-0.779-6.76-0.068
		c-0.021-0.251-0.168-0.378-0.205-0.615C35.871,28.254,35.58,28.138,35.738,28.038z M35.26,28.516
		c0.254-0.026,0.18,0.276,0.479,0.205c0.01,0.192-0.166,0.197-0.342,0.205c-0.008-0.253-0.098-0.172-0.271-0.137
		C35.074,28.602,35.26,28.651,35.26,28.516z M35.396,23.531c-0.078-1.059,0.713-2.215,0.752-2.799
		c-0.004-0.175,0.051-0.083,0.137-0.068c0.047-0.303-0.004-0.452,0.137-0.751C36.459,20.793,35.861,22.505,35.396,23.531z
		 M37.24,15.953c-0.156-0.117-0.025-0.521-0.068-0.751C37.455,15.345,37.182,15.693,37.24,15.953z M37.719,13.358
		c-0.014-0.22,0.121-0.289,0.068-0.546C37.85,12.595,37.982,13.462,37.719,13.358z M38.197,14.587
		c-0.232,0.212-0.082-0.269-0.068-0.41C38.475,14.234,37.936,14.446,38.197,14.587z M38.266,13.631
		c-0.127,0.166-0.047-0.45-0.068-0.615C38.324,12.851,38.242,13.467,38.266,13.631z M44.137-2.141
		c-0.096-0.18,0.25-0.505,0.547-0.342C44.604-2.266,44.234-2.339,44.137-2.141z M47.141-1.595c-0.262,0.108-0.422-0.079-0.752-0.068
		c-0.008-0.168-0.01-0.329,0.068-0.41C46.699-1.927,46.914-1.755,47.141-1.595z M45.092-2.073c-0.172-0.088,0.117-0.496,0.273-0.273
		C45.359-2.17,45.1-2.248,45.092-2.073z M45.707-2.004c-0.143,0.029-0.182-0.047-0.273-0.068c0.029-0.13,0.195-0.124,0.137-0.341
		C45.896-2.405,45.662-2.259,45.707-2.004z M45.912-2.141c0.064-0.208,0.137-0.409,0.205-0.615c0.168-0.088,0.33,0.152,0.34,0
		c0.184,0.209-0.23,0.403-0.203,0.683C46.133-2.201,46.053-1.991,45.912-2.141z M46.936-0.98c0.414,0.356-1.125,0.034-0.75-0.41
		c0.125,0.08,0.23,0.178,0.34,0.273c0.133-0.246,0.213-0.12,0.479-0.205c0.021,0.252,0.291-0.017,0.41,0.137
		c0.057,0.193-0.096,0.177-0.068,0.341C47.232-1.031,47.166-0.876,46.936-0.98z M47.688-0.639c-0.066-0.002-0.053-0.083-0.068-0.137
		c-0.055,0.036-0.111,0.071-0.205,0.068c-0.105-0.288,0.354-0.011,0.342-0.205C47.916-0.893,47.678-0.729,47.688-0.639z
		 M50.486,0.522c0.18-0.132,0.463,0.217,0.547,0.41C50.695,0.951,50.713,0.614,50.486,0.522z M51.988,3.048
		C51.9,2.925,52.049,2.704,51.92,2.502c0.211,0.017,0.164,0.292,0.342,0.341C52.201,2.943,52.158,3.06,51.988,3.048z M54.719,5.233
		c0.209,0.088,0.35-0.092,0.342,0.273h-0.342V5.233z M53.9,5.028c0.15-0.114,0.5-0.202,0.545,0.068
		C54.189,5.149,54.119,5.013,53.9,5.028z M54.105,32.951c-0.027-0.061-0.174-0.391,0.068-0.408
		C54.082,32.686,54.207,32.744,54.105,32.951z M53.148,29.881c0.199-0.456,1.061-0.524,1.57-0.614
		c0.033,0.214-0.184,0.18-0.205,0.341c0.227-0.003,0.34-0.115,0.615-0.068c0.008,0.211-0.084,0.327-0.137,0.478
		C54.16,30.084,53.736,29.771,53.148,29.881z M54.787,33.225c-0.295-0.1,0.295-0.375-0.068-0.342c0.205-0.135,0.182-0.5,0.479-0.545
		C55.029,32.742,55.023,32.889,54.787,33.225z M55.266,32.883c0.139-0.182,0.064-0.258,0.137-0.408
		c0.061,0.053,0.154,0.072,0.273,0.068C55.658,32.775,55.529,32.896,55.266,32.883z M55.471,5.711
		c-0.123,0.009-0.145-0.083-0.273-0.068c0.121-0.225,0.451,0.182,0.41-0.205c0.188,0.039,0.383,0.072,0.342,0.341
		C55.699,5.732,55.652,5.482,55.471,5.711z M57.723,29.198c-0.113-0.343,0.291-0.756,0.479-1.024c-0.029-0.102-0.088,0.027-0.205,0
		c0.164-0.315,0.285-0.672,0.479-0.956c0.146-0.046-0.166,0.538-0.205,0.751c0.219,0.015,0.166-0.244,0.273-0.341
		C58.568,28.177,57.998,28.72,57.723,29.198z"/>
	<path d="M1.458,49.308c-0.207,0.461-0.434,0.902-0.677,1.327c0.385,0.942,0.802,1.852,1.2,2.78
		C1.791,52.047,1.619,50.678,1.458,49.308z"/>
	<path style="fill-rule:evenodd;clip-rule:evenodd;" d="M30.003,46.471c0.091,0,0.182,0,0.273,0c0-0.068,0-0.137,0-0.205
		c-0.068,0-0.137,0-0.205,0C30.074,46.359,30.039,46.416,30.003,46.471z"/>
	<path style="fill-rule:evenodd;clip-rule:evenodd;" d="M7.267,19.298c0.18,0.021,0.176-0.142,0.205-0.273
		C7.292,19.004,7.296,19.167,7.267,19.298z"/>
	<path style="fill-rule:evenodd;clip-rule:evenodd;" d="M42.635-2.55c0.016-0.098,0.111-0.115,0.137-0.205
		c-0.041-0.004-0.082-0.01-0.068-0.068c-0.045,0-0.092,0-0.137,0C42.578-2.722,42.541-2.572,42.635-2.55z"/>
	<path style="fill-rule:evenodd;clip-rule:evenodd;" d="M22.902-2.346c-0.004-0.042-0.01-0.081-0.068-0.068
		c0.09,0.171-0.27,0.214-0.068,0.273c0.06-0.105,0.429-0.247,0.273-0.342C23.024-2.406,22.963-2.376,22.902-2.346z"/>
	<path style="fill-rule:evenodd;clip-rule:evenodd;" d="M22.424-2.141c0.151,0.05,0.281-0.252,0.137-0.273
		C22.525-2.313,22.46-2.242,22.424-2.141z"/>
	<path style="fill-rule:evenodd;clip-rule:evenodd;" d="M39.152-2.073c-0.023-0.055-0.182-0.082-0.205,0
		C38.902-1.915,39.215-1.925,39.152-2.073z"/>
	<path style="fill-rule:evenodd;clip-rule:evenodd;" d="M22.083-1.731c0.021-0.161,0.237-0.127,0.205-0.342
		c-0.068,0-0.136,0-0.205,0C22.124-1.951,21.883-1.789,22.083-1.731z"/>
	<path style="fill-rule:evenodd;clip-rule:evenodd;" d="M21.537-1.731c0.046,0,0.091,0,0.137,0c0.042-0.004,0.081-0.01,0.068-0.068
		c-0.113-0.001-0.038-0.189-0.137-0.205C21.61-1.885,21.59-1.792,21.537-1.731z"/>
	<path style="fill-rule:evenodd;clip-rule:evenodd;" d="M45.912-1.799c0.195,0.013,0.373,0.008,0.342-0.205
		C46.1-1.975,46.035-1.858,45.912-1.799z"/>
	<path style="fill-rule:evenodd;clip-rule:evenodd;" d="M51.783,2.365c-0.008-0.175-0.039-0.325-0.137-0.41
		C51.557,2.158,51.586,2.292,51.783,2.365z"/>
	<path style="fill-rule:evenodd;clip-rule:evenodd;" d="M15.802,2.912c-0.09-0.001-0.063-0.12-0.137-0.137
		c0.015,0.129-0.077,0.151-0.068,0.273c0.181,0.059,0.415-0.167,0.273-0.205C15.866,2.885,15.859,2.924,15.802,2.912z"/>
	<path style="fill-rule:evenodd;clip-rule:evenodd;" d="M17.099,3.048c0.214,0.032,0.193-0.172,0.273-0.273
		C17.179,2.765,17.201,2.968,17.099,3.048z"/>
	<path style="fill-rule:evenodd;clip-rule:evenodd;" d="M15.05,4.004c0.169,0.026,0.3-0.329,0.205-0.341
		C15.179,3.769,15.033,3.805,15.05,4.004z"/>
	<path style="fill-rule:evenodd;clip-rule:evenodd;" d="M16.348,4.072c0.02-0.081,0.275-0.258,0.068-0.341
		C16.402,3.818,16.218,4.065,16.348,4.072z"/>
	<path style="fill-rule:evenodd;clip-rule:evenodd;" d="M14.504,6.189c0.036-0.101,0.101-0.172,0.136-0.273
		C14.489,5.865,14.359,6.167,14.504,6.189z"/>
	<path style="fill-rule:evenodd;clip-rule:evenodd;" d="M57.723,7.555C57.582,7.536,57.66,7.3,57.52,7.281
		C57.459,7.462,57.686,7.696,57.723,7.555z"/>
	<path style="fill-rule:evenodd;clip-rule:evenodd;" d="M38.266,12.812c0.008-0.09,0.01-0.494-0.068-0.273
		C38.188,12.628,38.188,13.033,38.266,12.812z"/>
	<path style="fill-rule:evenodd;clip-rule:evenodd;" d="M37.65,13.699c0.01-0.089,0.012-0.494-0.068-0.273
		C37.572,13.516,37.572,13.92,37.65,13.699z"/>
	<path style="fill-rule:evenodd;clip-rule:evenodd;" d="M61.615,15.338c0.088-0.091,0.09-0.254-0.068-0.273
		C61.559,15.167,61.523,15.317,61.615,15.338z"/>
	<path style="fill-rule:evenodd;clip-rule:evenodd;" d="M9.793,16.157c0.029-0.13,0.147-0.171,0.137-0.341
		c-0.08,0.011-0.194-0.012-0.205,0.068C9.964,15.903,9.554,16.139,9.793,16.157z"/>
	<path style="fill-rule:evenodd;clip-rule:evenodd;" d="M8.906,16.704C8.549,17.233,8.947,17.04,8.906,16.704L8.906,16.704z"/>
	<path style="fill-rule:evenodd;clip-rule:evenodd;" d="M35.533,21.756c-0.041-0.122,0.201-0.283,0-0.341
		C35.574,21.536,35.334,21.698,35.533,21.756z"/>
	<path style="fill-rule:evenodd;clip-rule:evenodd;" d="M6.379,22.917c-0.041-0.122,0.2-0.284,0-0.342
		C6.42,22.697,6.179,22.859,6.379,22.917z"/>
	<path style="fill-rule:evenodd;clip-rule:evenodd;" d="M4.672,24.487c-0.009-0.127-0.045-0.229-0.137-0.273
		C4.551,24.335,4.467,24.556,4.672,24.487z"/>
	<path style="fill-rule:evenodd;clip-rule:evenodd;" d="M58.611,27.423c0.168-0.019,0.314-0.407,0.205-0.478
		C58.785,27.142,58.574,27.159,58.611,27.423z"/>
	<path style="fill-rule:evenodd;clip-rule:evenodd;" d="M43.385,29.813c0.131-0.015,0.152,0.077,0.273,0.068
		C43.678,29.682,43.395,29.619,43.385,29.813z"/>
	<path style="fill-rule:evenodd;clip-rule:evenodd;" d="M52.057,30.769c0-0.091,0-0.182,0-0.273c-0.068,0-0.137,0-0.205,0
		C51.832,30.674,51.828,30.837,52.057,30.769z"/>
	<path style="fill-rule:evenodd;clip-rule:evenodd;" d="M11.432,31.246c0.051-0.153-0.251-0.28-0.273-0.137
		C11.26,31.144,11.331,31.21,11.432,31.246z"/>
	<path style="fill-rule:evenodd;clip-rule:evenodd;" d="M51.783,31.177C51.537,31.5,52.184,31.268,51.783,31.177L51.783,31.177z"/>
	<path style="fill-rule:evenodd;clip-rule:evenodd;" d="M54.992,33.225c0.215,0.033,0.193-0.172,0.273-0.273
		c-0.068,0-0.137,0-0.205,0C55.066,33.07,55.045,33.164,54.992,33.225z"/>
	<path style="fill-rule:evenodd;clip-rule:evenodd;" d="M45.023,33.361c0.172,0.012,0.215-0.105,0.273-0.205
		C45.166,33.186,45.004,33.182,45.023,33.361z"/>
	<path style="fill-rule:evenodd;clip-rule:evenodd;" d="M25.633,45.379c0.151,0.051,0.281-0.252,0.137-0.273
		C25.769,45.24,25.583,45.191,25.633,45.379z"/>
	<path style="fill-rule:evenodd;clip-rule:evenodd;" d="M29.047,46.402c-0.106-0.018-0.047-0.15,0-0.205
		C28.766,46.082,28.95,46.703,29.047,46.402z"/>
	<path style="fill-rule:evenodd;clip-rule:evenodd;" d="M27.545,49.68c0.098,0.016,0.115,0.113,0.205,0.137
		c-0.012-0.102,0.024-0.252-0.068-0.273C27.681,49.633,27.562,49.605,27.545,49.68z"/>
	<path style="fill-rule:evenodd;clip-rule:evenodd;" d="M28.296,50.771c0-0.135,0.186-0.086,0.136-0.271c-0.068,0-0.136,0-0.205,0
		C28.24,50.602,28.204,50.752,28.296,50.771z"/>
	<path style="fill-rule:evenodd;clip-rule:evenodd;" d="M28.296,58.01c-0.008-0.07,0.294-0.139,0.068-0.205
		c-0.038,0.154-0.106-0.082-0.205,0.068c-0.004-0.041-0.01-0.08-0.068-0.068C28.044,57.988,28.232,57.938,28.296,58.01z"/>
	<path style="fill-rule:evenodd;clip-rule:evenodd;" d="M7.813,16.84c0.025-0.116-0.053-0.129-0.136-0.137
		c-0.088,0.185-0.237,0.309-0.273,0.546c-0.065-0.408,0.306-0.968,0.615-1.229c-0.03,0.174-0.096,0.313-0.205,0.41
		c0.119,0.177,0.508,0.083,0.546,0.341c-0.144-0.062-0.304-0.106-0.41-0.205c-0.197,0.246,0.511,0.369,0.137,0.615
		c-0.122-0.05-0.01-0.125,0-0.205c-0.05-0.063-0.125-0.104-0.205-0.136c-0.235,0.106-0.087,0.596-0.273,0.751
		C7.607,17.272,7.595,16.731,7.813,16.84z"/>
	<path style="fill-rule:evenodd;clip-rule:evenodd;" d="M4.263,23.19c0.025,0.116-0.053,0.129-0.137,0.137c0,0.114,0,0.228,0,0.341
		c-0.213,0.008-0.364-0.103-0.41,0.205c-0.224-0.142,0.115-0.288,0.137-0.41c0.11-0.019,0.118,0.064,0.205,0.068
		c-0.036-0.055-0.071-0.111-0.068-0.205C4.21,23.411,4.042,23.105,4.263,23.19z"/>
	<path style="fill-rule:evenodd;clip-rule:evenodd;" d="M17.85-2.824c-0.324,0.114-0.576,0.159-0.819,0.205
		C17.292-2.785,17.67-2.932,17.85-2.824z"/>
	<path style="fill-rule:evenodd;clip-rule:evenodd;" d="M16.553-2.55c-0.024,0.307-0.205,0.198-0.341,0.273
		C16.113-2.314,16.376-2.563,16.553-2.55z"/>
	<path style="fill-rule:evenodd;clip-rule:evenodd;" d="M14.709-1.322c0.058-0.101,0.172-0.146,0.341-0.136
		c-0.026,0.224-0.289,0.212-0.41,0.341C14.396-1.157,14.975-1.26,14.709-1.322z"/>
	<path style="fill-rule:evenodd;clip-rule:evenodd;" d="M13.821,0.249c-0.175-0.066-0.078,0.317-0.341,0.341
		c0.008-0.091,0.128-0.376,0-0.205c0.219-0.215,0.566-1.056,1.093-1.365c0.078,0.2-0.328,0.253-0.137,0.341
		C14.257-0.593,13.792,0.007,13.821,0.249z"/>
	<path style="fill-rule:evenodd;clip-rule:evenodd;" d="M17.986-0.161c-0.098,0.198-0.253,0.338-0.478,0.41
		C17.672,0.116,17.751-0.101,17.986-0.161z"/>
	<path style="fill-rule:evenodd;clip-rule:evenodd;" d="M17.44-0.024c0.097,0.146-0.182,0.499-0.409,0.546
		C17.137,0.31,17.333,0.188,17.44-0.024z"/>
	<path style="fill-rule:evenodd;clip-rule:evenodd;" d="M17.782,0.59c0.27-0.191-0.01,0.307-0.068,0.41
		C17.431,0.864,18.011,0.673,17.782,0.59z"/>
	<path style="fill-rule:evenodd;clip-rule:evenodd;" d="M16.962,1.478c0.077,0.013,0.038,0.068,0,0.068
		c-0.009,0.123,0.083,0.144,0.068,0.273c-0.117-0.088-0.269-0.141-0.273-0.341c0.055,0.013,0.068,0.068,0.137,0.068
		C16.952,1.559,16.958,1.52,16.962,1.478z"/>
	<path style="fill-rule:evenodd;clip-rule:evenodd;" d="M12.524,4.072c0.241-0.239-0.011,0.201,0.136,0.205
		C12.442,4.539,12.615,4.021,12.524,4.072z"/>
	<path style="fill-rule:evenodd;clip-rule:evenodd;" d="M14.163,4.414c0.014-0.146,0.16,0.499-0.137,0.41
		C14.121,4.736,14.068,4.501,14.163,4.414z"/>
	<path style="fill-rule:evenodd;clip-rule:evenodd;" d="M13.958,4.755c-0.077,0.128-0.265,0.146-0.341,0.273
		C13.4,4.873,13.816,4.777,13.958,4.755z"/>
	<path style="fill-rule:evenodd;clip-rule:evenodd;" d="M13.275,4.96c-0.047,0.135-0.182,0.182-0.341,0.205
		C13.036,5.085,13.101,4.968,13.275,4.96z"/>
	<path style="fill-rule:evenodd;clip-rule:evenodd;" d="M11.705,5.097c0.121-0.091-0.168,0.487-0.341,0.546
		C11.397,5.381,11.565,5.253,11.705,5.097z"/>
	<path style="fill-rule:evenodd;clip-rule:evenodd;" d="M12.592,5.165c-0.061,0.03-0.122,0.06-0.136,0.137
		c-0.185-0.062,0.156-0.153,0.136-0.273c0.181-0.022-0.063,0.382,0.205,0.273c-0.146,0.212-0.228,0.18-0.068,0.41
		c-0.333-0.343-0.198,0.32-0.546,0.341C12.239,5.679,12.751,5.544,12.592,5.165z"/>
	<path style="fill-rule:evenodd;clip-rule:evenodd;" d="M12.661,5.984c-0.134-0.205,0.291-0.435,0.478-0.546
		C12.905,5.692,12.864,5.777,12.661,5.984z"/>
	<path style="fill-rule:evenodd;clip-rule:evenodd;" d="M11.295,5.711c0.232,0.086-0.262,0.363,0,0.478
		c-0.404,0.149-0.275,1.129,0,1.639c-0.261,0.009-0.37-0.722-0.341-1.229c-0.141,0.064-0.141,0.269-0.342,0.273
		C10.911,6.555,11.116,6.146,11.295,5.711z"/>
	<path style="fill-rule:evenodd;clip-rule:evenodd;" d="M12.456,6.052c0.213,0.11-0.14,0.216-0.137,0.341
		C12.163,6.34,12.437,6.155,12.456,6.052z"/>
	<path style="fill-rule:evenodd;clip-rule:evenodd;" d="M13.344,7.691c0.125,0.241,0.161-0.007,0.273-0.136
		c0.122,0.119-0.409,0.838-0.205,0.819c0.24,0.117-0.171,0.137-0.136,0.273C13.071,8.366,13.588,8.033,13.344,7.691z"/>
	<path style="fill-rule:evenodd;clip-rule:evenodd;" d="M11.159,10.012c0.187,0.099,0.079,0.172,0,0.342
		c0.405-0.246,0.31-0.179,0.068,0.136c0.062,0.257,0.16,0.478,0.205,0.751c-0.369-0.32-0.126-1.106-0.478-1.297
		c0.281-0.493,0.083-1.464,0.478-1.844c-0.024,0.34-0.191,0.537-0.205,0.888c0.245-0.347,0.279-0.905,0.478-1.297
		c0.043,0.714-0.53,1.496-0.546,2.185c0.069-0.044,0.071-0.157,0.205-0.137C11.375,9.91,11.259,9.953,11.159,10.012z"/>
	<path style="fill-rule:evenodd;clip-rule:evenodd;" d="M12.456,8.237c-0.046,0.159-0.227,0.183-0.273,0.341
		C12.071,8.528,12.264,8.21,12.456,8.237z"/>
	<path style="fill-rule:evenodd;clip-rule:evenodd;" d="M11.91,9.125c0.141,0.189-0.271,0.409-0.341,0.614
		C11.462,9.584,11.817,9.308,11.91,9.125z"/>
	<path style="fill-rule:evenodd;clip-rule:evenodd;" d="M11.841,9.671c0.207,0.146-0.195,0.254-0.205,0.41
		C11.417,9.922,11.874,9.868,11.841,9.671z"/>
	<path style="fill-rule:evenodd;clip-rule:evenodd;" d="M10.135,10.627c0.295,0.051-0.101,0.369,0.273,0.341
		c0.019,0.11-0.064,0.118-0.068,0.205c-0.045,0-0.091,0-0.137,0C10.297,10.865,9.938,10.832,10.135,10.627z"/>
	<path style="fill-rule:evenodd;clip-rule:evenodd;" d="M7.677,11.241C7.783,11.572,7.351,11.729,7.677,11.241L7.677,11.241z"/>
	<path style="fill-rule:evenodd;clip-rule:evenodd;" d="M8.974,12.88c0.078,0.013,0.038,0.069,0,0.068c0.062,0.2,0.062,0.21,0,0.41
		c-0.101-0.103-0.11-0.3-0.136-0.478C8.898,12.922,8.959,12.962,8.974,12.88z"/>
	<path style="fill-rule:evenodd;clip-rule:evenodd;" d="M8.974,13.836c-0.252,0.066-0.058,0.579-0.341,0.614
		C8.729,14.229,8.661,13.842,8.974,13.836z"/>
	<path style="fill-rule:evenodd;clip-rule:evenodd;" d="M9.247,14.041c0.061-0.164,0.208,0.148,0.205,0.273
		c-0.155-0.186-0.264-0.081-0.41,0.068c-0.214-0.132,0.201-0.203,0.273-0.273C9.328,14.051,9.289,14.044,9.247,14.041z"/>
	<path style="fill-rule:evenodd;clip-rule:evenodd;" d="M8.632,14.519c-0.035,0.101-0.101,0.172-0.136,0.273
		c-0.17-0.01-0.02-0.231,0-0.273c-0.08-0.011-0.122,0.015-0.137,0.068C8.195,14.466,8.508,14.433,8.632,14.519z"/>
	<path style="fill-rule:evenodd;clip-rule:evenodd;" d="M8.359,15.065c0.007,0.28-0.273,0.273-0.205,0.614
		C7.922,15.678,8.193,15.112,8.359,15.065z"/>
	<path style="fill-rule:evenodd;clip-rule:evenodd;" d="M7.267,15.679c0.145,0.129,0.234,0.312,0.273,0.546
		C7.778,16.419,7.193,15.971,7.267,15.679z"/>
	<path style="fill-rule:evenodd;clip-rule:evenodd;" d="M38.607,17.182c-0.084-0.176,0.041-0.73,0.137-0.956
		C38.834,16.163,38.676,16.958,38.607,17.182z"/>
	<path style="fill-rule:evenodd;clip-rule:evenodd;" d="M37.514,17.182c0.023,0.006,0.086,0.626-0.205,0.546
		c0.07-0.18,0.082-0.419,0.068-0.683c0.08,0.011,0.059,0.125,0.068,0.205C37.504,17.262,37.51,17.223,37.514,17.182z"/>
	<path style="fill-rule:evenodd;clip-rule:evenodd;" d="M6.926,18.001c0.063,0.039,0.103,0.189,0.136,0.068
		c0.072,0.098-0.226,0.408-0.341,0.546C6.642,18.225,7.095,18.292,6.926,18.001z"/>
	<path style="fill-rule:evenodd;clip-rule:evenodd;" d="M37.377,20.732c0.297-0.663,0.068-1.527,0.547-1.912
		c-0.039,0.71-0.334,1.309-0.41,1.843c-0.029,0.212,0.293,0.566-0.137,0.615C37.344,21.102,37.676,20.738,37.377,20.732z"/>
	<path style="fill-rule:evenodd;clip-rule:evenodd;" d="M37.377,21.346c0.209,0.357-0.184,0.724-0.479,0.956
		C37.057,21.875,37.264,21.679,37.377,21.346z"/>
	<path style="fill-rule:evenodd;clip-rule:evenodd;" d="M44.82,34.045c0.027,0.129,0.193,0.123,0.135,0.342
		c-0.334-0.057-0.088-0.273-0.271-0.479c0.238-0.117,0.391,0.053,0.682,0.068C45.242,34.064,45.115,34.01,44.82,34.045z"/>
	<path style="fill-rule:evenodd;clip-rule:evenodd;" d="M11.841,34.59c0.108,0.121,0.313,0.143,0.341,0.342
		C12.082,34.805,11.83,34.83,11.841,34.59z"/>
	<path style="fill-rule:evenodd;clip-rule:evenodd;" d="M45.502,38.277c0.129-0.014,0.4,0.32,0.137,0.273
		C45.723,38.33,45.418,38.498,45.502,38.277z"/>
	<path style="fill-rule:evenodd;clip-rule:evenodd;" d="M43.521,44.148c0.186-0.055,0.367,0.174,0.615-0.066
		c0.033,0.215-0.098,0.266-0.137,0.408c0.219-0.057,0.143-0.057,0.273,0.068c0.092-0.021,0.057-0.17,0.068-0.273
		c0.156,0.02,0.256-0.016,0.273-0.137c0.078,0.201,0.205,0.27,0.273,0c0.051,0.107,0.215,0.104,0.203,0.273
		c0.266-0.029,0.244-0.074,0.41,0.068c0.1-0.258-0.188-0.131-0.137-0.342c0.254,0.197,0.49,0.063,0.342-0.271
		c-0.313-0.041-0.525,0.021-0.684,0.137c-0.098-0.563-0.988,0.023-1.297-0.41c-0.213-0.031-0.219,0.146-0.205,0.342
		c-0.215-0.012-0.184-0.271-0.205-0.479c-0.801-0.328-0.875-2.572-0.34-3.277c-0.002-0.066-0.084-0.053-0.137-0.068
		c0.322-0.305,0.566-1.121,1.023-1.502c0.1-0.002,0.217,0.287,0.205,0c0.117,0.088,0.084,0.324,0.273,0.342
		c0.041-0.221-0.246-0.094-0.068-0.273c0.092,0.045,0.127,0.146,0.137,0.273c0.084-0.031,0.141-0.088,0.137-0.205
		c0.246,0.146-0.533,0.721,0,1.023c-0.094,0.189-0.25,0.734,0.068,0.82c-0.182,0.441-0.1,0.758-0.068,1.229
		c0.305,0.004-0.141-0.352,0.205-0.342c0.039,0.221-0.021,0.344-0.137,0.41c0.008,0.055,0.225,0.207,0.205,0.068
		c0.076,0.264-0.191,0.451,0.135,0.682c1.893,0.293,3.844-0.4,4.711,1.436c0.871-0.1,1.24-0.006,1.912-0.41
		c0.559,0.35,0.605,0.799,1.094,1.229c-0.215,0.033-0.182-0.184-0.342-0.205c0.123,0.264,0.123,0.342,0.41,0.342
		c-0.137,0.668,0.438,0.777,0.066,1.229c0.029,0.131,0.025,0.295,0.205,0.273c-0.518,0.299,0.002,1.26-0.545,1.57
		c0.271-0.379-0.1-0.537,0-0.818c-0.055,0.035-0.111,0.07-0.205,0.068c-0.023,0.164,0.076,0.553,0.137,0.408
		c0.209,0.092-0.119,0.313-0.205,0.137c0.084,0.344,0.193,0.309,0.137,0.684c-0.154-0.074-0.385-0.279-0.205-0.479
		c-0.084-0.207-0.234,0.074-0.41,0c0.039-0.098,0.107-0.166,0.205-0.205c-0.029-0.221-0.445-0.055-0.342-0.41
		c-0.234-0.029-0.383,0.027-0.545,0.068c0.012-0.262-0.057-0.023-0.205-0.068c0.045-0.248,0.094-0.496,0.068-0.818
		c-0.275-0.229-0.295-0.328-0.479-0.684c-0.135,0.002-0.086,0.188-0.273,0.137c-0.049-0.186,0.137-0.137,0.137-0.273
		c-0.047-0.213-0.182-0.088-0.342-0.068c0.148-0.164-0.15-0.623,0.137-0.613c-0.057-0.148-0.176-0.232-0.137-0.479
		c-0.475,0.004-0.674,0.189-1.092,0c-0.135,0.186-0.455,0.184-0.684,0.273c0.037,0.055,0.072,0.111,0.068,0.205
		c-0.539-0.023-0.482,0.705-0.613,0.887c0.039,0.166,0.258,0.152,0.408,0.205c-0.076,0.174-0.188,0.313-0.203,0.547
		c-0.191,0.031,0.053-0.373-0.137-0.342c-0.016,0.359,0.186,1.098-0.068,1.434c-0.133-0.096-0.102-0.354-0.205-0.479
		c-0.182-0.021,0.064,0.383-0.205,0.273c0.27-0.436-0.482-0.369-0.41-0.205c-0.229,0.07-0.105-0.211-0.137-0.34
		c-0.17,0.201-0.238,0.227-0.34-0.068c-0.229,0.045-0.078,0.469-0.273,0.545c0.053-0.277-0.098-0.418-0.068-1.023
		c-0.09,0.207-0.143,0.451-0.273,0.615c-0.104-0.215-0.166-0.473-0.273-0.684c-0.186-0.006-0.137,0.113-0.273,0
		c0.135,0.449,0.383,0.836,0.41,1.434c-0.215-0.084-0.012-0.199-0.205-0.342c-0.082,0.078-0.123,0.195-0.342,0.137
		c-0.02,0.492,0.473,0.078,0.547,0.41c0.055-0.014,0.068-0.068,0.137-0.068c0.008-0.123-0.084-0.145-0.068-0.273
		c0.111,0.139,0.305,0.195,0.273,0.479c0.117-0.119,0.422-0.076,0.477,0.068c0.084-0.029,0.141-0.088,0.137-0.205
		c0.629,0.27,1.244,0.131,1.844,0.41c-0.854,0.01-2.375-0.172-3.277,0.137c-0.08-0.012-0.057-0.125-0.068-0.205
		c-0.494,0.072-0.922,0.215-1.229,0.477c-0.412-0.365-0.771,0.256-1.297,0.205c0.088-0.09,0.09-0.254-0.068-0.271
		c-0.232,0.072,0.189,0.02,0.068,0.203c-0.611-0.184-1.096-0.496-1.844-0.545c0.164-0.316,0.607-0.35,0.752-0.684
		c-0.477,0.23-0.602,0.191-1.023,0.273c-0.033,0.146,0.098,0.131,0.203,0.137c-0.156,0.268-0.32-0.031-0.477-0.137
		c-0.443,0.113-0.258,0.5-0.547,0.684c-0.057-0.193,0.096-0.178,0.068-0.342c-0.375,0.08-1.096,0.406-0.955,1.229
		c-0.324-0.1,0.008-0.477-0.137-0.684c-0.256,0.047,0.051,0.229-0.205,0.273c-0.318-0.004,0.08-0.156,0.068-0.273
		c-0.047-0.135-0.182-0.182-0.342-0.203c0.047-0.279,0.23-0.527,0.137-0.752c0.184,0.039,0.348-0.281,0.205-0.342
		c0.367-0.314,0.668-0.695,0.887-1.16c0.234,0.115,0.412-0.107,0.615,0.068c0.199-0.232,0.512-0.354,0.613-0.684
		c0.207,0.104-0.057,0.301,0,0.479c0.293-0.391,0.619-0.748,0.957-1.092c-0.082,0.213-0.166,0.426-0.273,0.613
		c0.463-0.014,0.424-0.576,0.889-0.955c-0.039,0.258-0.166,0.426-0.137,0.75c0.279-0.209,0.271-0.783,0.75-0.955
		c-0.121,0.129-0.023,0.479-0.342,0.41c0,0.113,0,0.227,0,0.342c0.07-0.045,0.07-0.158,0.205-0.137
		c-0.055,0.127-0.113,0.25-0.137,0.408c0.217-0.033,0.111-0.389,0.273-0.477c0.127,0.207-0.254,1.057-0.479,1.365
		c0.051,0.064,0.125,0.104,0.205,0.137c-0.051,0.063-0.125,0.104-0.205,0.137c0.021,0.117,0.238-0.09,0.205,0.205
		c0.455-0.186,0.252-0.809,0.547-1.025c0.209,0.092-0.127,0.305,0.068,0.41c0.207,0.018,0.066-0.418,0.271-0.205
		c0-0.113,0-0.227,0-0.342c-0.066,0.002-0.053,0.084-0.066,0.137c-0.346-0.51,0.141-1.68,0.408-1.57
		C43.766,44.582,43.666,44.17,43.521,44.148z M52.125,45.037c-0.047-0.203-0.082-0.418-0.273-0.479
		C51.879,44.783,51.91,45,52.125,45.037z M45.092,44.969c-0.02-0.119,0.219-0.367-0.068-0.342
		C45.063,44.727,44.945,44.98,45.092,44.969z M43.795,45.105c0.109-0.104-0.002-0.287-0.137-0.342
		C43.527,44.889,43.717,44.994,43.795,45.105z M43.453,45.174c0.068,0,0.137,0,0.205,0c0.004-0.117-0.053-0.176-0.137-0.205
		C43.525,45.063,43.49,45.119,43.453,45.174z M43.727,46.061c0.006-0.232,0.021-0.477-0.137-0.545
		C43.533,45.592,43.545,46.016,43.727,46.061z M44.82,47.154c0.002-0.207,0.123-0.584-0.137-0.684
		C44.717,46.709,44.713,46.986,44.82,47.154z M40.928,46.881c-0.02-0.121,0.322-0.211,0.137-0.273
		C41.045,46.688,40.703,46.779,40.928,46.881z M44.137,47.291c0.041-0.248,0.113-0.457-0.068-0.615
		c-0.156,0.344-0.361,0.641-0.684,0.818c0.166,0.041-0.164,0.508,0.068,0.615c0.143-0.178,0.084-0.555,0.273-0.684
		c0.135,0.145,0.053,0.455,0,0.615c0.227,0.35,1.334,0.23,0.889-0.273c-0.016,0.053-0.002,0.135-0.068,0.137
		C44.582,47.355,44.418,47.625,44.137,47.291z M47.277,47.359C47.592,47.223,47.195,46.916,47.277,47.359L47.277,47.359z
		 M41.543,47.836c0.176,0.113,0.123,0.186,0.479,0.205c-0.041-0.178,0.027-0.246,0.203-0.205c0.012-0.26-0.004-0.496-0.135-0.613
		C42.063,47.662,41.695,47.688,41.543,47.836z M42.635,48.109c0.26-0.031,0.486,0.178,0.682,0c-0.07-0.193-0.07-0.285,0-0.479
		c-0.141-0.148-0.219,0.061-0.34-0.068C43.174,47.893,42.746,47.896,42.635,48.109z"/>
	<path style="fill-rule:evenodd;clip-rule:evenodd;" d="M30.345,39.916c0.306-0.004-0.094,0.201-0.068,0.342
		c-0.058,0.012-0.064-0.027-0.068-0.068c0-0.045,0-0.092,0-0.137C30.324,40.078,30.337,40,30.345,39.916z"/>
	<path style="fill-rule:evenodd;clip-rule:evenodd;" d="M53.422,47.154c0.146,0.041-0.059,0.297-0.273,0.205
		C53.119,47.17,53.404,47.295,53.422,47.154z"/>
	<path style="fill-rule:evenodd;clip-rule:evenodd;" d="M28.979,47.359c0.078,0.012,0.038,0.068,0,0.066
		c-0.088,0.34,0.165,0.336,0.137,0.615c-0.114,0-0.228,0-0.342,0c-0.057-0.17-0.089-0.365-0.068-0.615
		C28.877,47.34,28.919,47.461,28.979,47.359z"/>
	<path style="fill-rule:evenodd;clip-rule:evenodd;" d="M49.189,48.52c-0.059,0.012-0.064-0.027-0.068-0.068
		c-0.066,0.002-0.053,0.084-0.068,0.137c-0.055-0.037-0.111-0.072-0.205-0.068C48.896,48.463,49.236,48.252,49.189,48.52z"/>
	<path style="fill-rule:evenodd;clip-rule:evenodd;" d="M48.027,52.82c-0.133-0.156-0.498,0.189-0.545-0.137
		c-0.279,0.043-0.039,0.285-0.273,0.273c-0.002-0.066-0.084-0.053-0.137-0.068c0.041-0.143,0.145-0.221,0.205-0.342
		c-0.285,0.037-0.637,0.166-1.092,0.205c-0.02-0.199,0.154-0.209,0.137-0.41c0.109-0.018,0.117,0.064,0.203,0.068
		c-0.127-0.289,0.113-0.346,0-0.545c-0.105,0.098-0.135,0.273-0.408,0.205c-0.02-0.111,0.064-0.119,0.068-0.205
		c-0.303-0.098-0.18,0.23-0.41,0.205c0.521-0.914,2.926-0.434,3.959-0.82c-0.105,0.213-0.314,0.322-0.408,0.547
		c-0.223-0.17-0.355-0.006-0.615-0.137c0.012,0.078-0.016,0.121-0.068,0.137c0,0.182,0.217,0.148,0.205,0.342
		C48.361,51.807,48.236,52.594,48.027,52.82z"/>
	<path style="fill-rule:evenodd;clip-rule:evenodd;" d="M52.057,51.523c0.721,0.873,1.881,1.77,1.912,3.004
		c-0.068,0-0.137,0-0.205,0c-0.025-0.115,0.053-0.129,0.137-0.137c-0.217-0.42-0.355-0.92-0.684-1.229
		c-0.064,0.033-0.154,0.58,0.137,0.615c-0.049,0.121-0.123,0.01-0.205,0c0,0.18,0.025,0.389-0.068,0.477
		c0.031,0.084,0.088,0.141,0.205,0.137c-0.021-0.145,0.146-0.275,0.068-0.479c0.188,0.064,0.285,0.217,0.342,0.41
		c-0.055-0.012-0.068-0.068-0.137-0.068c0.068,0.711,0.008,1.697-0.684,2.117c0,0.137,0,0.273,0,0.41
		c-0.121-0.02-0.139,0.064-0.068,0.068c-0.162,0.023-0.545,0.221-0.75,0.408c0.113,0.154,0.305-0.191,0.479-0.203
		c-0.158,0.252-0.4,0.42-0.752,0.477c0.002,0.066,0.084,0.053,0.137,0.068c-0.439-0.027-1.057,0.137-1.502,0.068
		c-0.199,0.061-0.076,0.102-0.068,0.273c-0.211-0.146-0.18-0.229-0.41-0.068c0.059-0.08,0.09-0.184,0.068-0.342
		c0.527-0.166,0.201-0.934,0.479-1.229c0.102,0.029-0.027,0.088,0,0.205c0.314,0.041,0.393-0.154,0.684-0.137
		c-0.012-0.08-0.125-0.059-0.205-0.068c0.16-0.227,0.355-0.109,0.545-0.205c-0.086-0.092-0.207-0.137,0-0.205
		c0.176-0.002,0.084,0.051,0.068,0.137c0.303-0.381,1.375-0.9,0.957-2.049c0.092,0.068,0.137,0.184,0.205,0.273
		c0.305-0.193-0.281-0.865,0.066-0.682c-0.119-0.109-0.141-0.314-0.34-0.342c0.219-0.324-0.248-0.455-0.273-0.752
		c0.084,0.031,0.141,0.088,0.137,0.205c0.178-0.096-0.08-0.324-0.205-0.342c-0.064,0.305-0.033-0.143-0.41-0.068
		c0.346-0.197-0.293-0.133-0.205-0.477c0.311,0.201,0.576,0.455,0.957,0.41C52.414,51.918,51.973,51.73,52.057,51.523z
		 M52.807,56.234c0.035-0.215-0.121-0.24-0.066-0.479c0.24-0.102,0.494-0.549,0.408-0.75c-0.314,0.594-0.686,1.135-1.365,1.365
		c0.006,0.303-0.533,0.418-0.41,0.615c0.129-0.148,0.457-0.451,0.615-0.342c-0.008,0.129-0.227,0.047-0.205,0.205
		c0.268-0.051,0.371-0.268,0.615-0.342c-0.111-0.221-0.008-0.404,0.137-0.547c0.084,0.178-0.164,0.68-0.137,0.889
		c0.449-0.596,1.115-1.043,0.955-1.912C53.271,55.516,52.9,55.852,52.807,56.234z M52.875,53.23c-0.023-0.25-0.227-0.68-0.477-0.479
		C52.662,52.807,52.611,53.176,52.875,53.23z M52.604,52.547c0-0.143-0.275-0.354-0.342-0.205
		C52.404,52.383,52.482,52.486,52.604,52.547z M52.604,55.482c0.08-0.102,0.283-0.08,0.271-0.271
		C52.529,55.248,52.309,56.127,52.604,55.482z M51.578,56.371C51.158,56.619,51.395,56.809,51.578,56.371L51.578,56.371z
		 M51.236,56.781c-0.4,0.027-0.996-0.238-0.75,0.545c0.1-0.037,0.354,0.08,0.342-0.068c-0.107-0.006-0.236,0.01-0.205-0.137
		c0.156-0.023,0.064-0.299,0.273-0.271C50.998,57.039,51.182,56.961,51.236,56.781z M50.965,57.258c-0.07,0.002-0.086,0.121,0,0.137
		c0.004-0.15,0.586-0.277,0.34-0.068c0.234,0.029,0.205-0.203,0.342-0.271c0,0.037,0.057,0.076,0.068,0
		c-0.09-0.002-0.063-0.121-0.137-0.137c-0.057,0.131-0.299,0.184-0.408,0.068c-0.039,0.098-0.107,0.166-0.205,0.203
		c0-0.037-0.057-0.076-0.068,0C50.938,57.193,50.977,57.201,50.965,57.258z"/>
	<path style="fill-rule:evenodd;clip-rule:evenodd;" d="M51.578,55.482c0.002,0.066,0.084,0.055,0.137,0.068
		c-0.191,0.219-0.336,0.484-0.682,0.547c0.016-0.234,0.363-0.137,0.408-0.342c-0.375-0.168-0.412,0.588-0.818,0.615
		c0.057-0.193-0.096-0.178-0.068-0.342c0.234,0.053,0.326-0.037,0.273-0.273c0.41,0.207,0.418-0.521,0.818-0.545
		c-0.084,0.143-0.197,0.256-0.342,0.34c0.021,0.094,0.172,0.057,0.273,0.068c-0.082-0.09-0.025-0.107,0-0.203
		C51.656,55.428,51.617,55.484,51.578,55.482z"/>
	<path style="fill-rule:evenodd;clip-rule:evenodd;" d="M52.33,53.709c0.117,0.191,0.268-0.025,0.273,0.203
		C52.473,53.885,52.309,53.889,52.33,53.709z"/>
	<path style="fill-rule:evenodd;clip-rule:evenodd;" d="M52.193,54.391c0.029-0.102,0.088,0.027,0.205,0
		c-0.133,0.141-0.096,0.451-0.342,0.479C52.021,54.67,52.396,54.533,52.193,54.391z"/>
	<path style="fill-rule:evenodd;clip-rule:evenodd;" d="M51.988,54.938c0.156,0.053-0.117,0.238-0.137,0.342
		C51.695,55.225,51.969,55.039,51.988,54.938z"/>
	<path style="fill-rule:evenodd;clip-rule:evenodd;" d="M47.277,57.326c0.168,0.096,0.121,0.236,0.068,0.41
		C47.207,57.641,47.412,57.502,47.277,57.326z"/>
	<path style="fill-rule:evenodd;clip-rule:evenodd;" d="M49.939,58.078c-0.047,0.055-0.105,0.188,0,0.205
		c0.201-0.059-0.041-0.221,0-0.342c0.379,0.107,0.297,0.832-0.068,0.887c0.039-0.098,0.107-0.166,0.205-0.203
		c-0.156-0.025-0.064-0.299-0.273-0.273c-0.051,0.17-0.08,0.143-0.137,0.408c-0.264,0.061-0.111-0.297-0.408-0.203
		c-0.033,0.145,0.098,0.129,0.205,0.137c-0.057,0.307-0.328,0.4-0.684,0.408c0.113-0.135-0.006-0.086,0-0.273
		c0.139,0.139,0.135-0.029,0.273-0.068c-0.051-0.063-0.125-0.102-0.205-0.135c-0.146,0.139-0.217,0.355-0.137,0.545
		c-0.109,0.02-0.117-0.064-0.205-0.068c-0.041,0.178,0.027,0.246,0.205,0.205c-0.156,0.217-0.609,0.303-0.752,0.137
		c-0.197,0.074-0.043,0.502-0.408,0.41c0-0.137,0.186-0.088,0.137-0.273c-0.432,0.383-1.148,0.152-1.23,0.684
		c-0.121-0.051-0.01-0.125,0-0.205c-0.258-0.055-0.086,0.322-0.135,0.477c-0.256-0.197-0.178-0.436-0.41-0.682
		c0.58,0.035,1.006-0.902,1.502-0.957c-0.166-0.127-0.252-0.256-0.068-0.408c0.092,0.02,0.057,0.17,0.068,0.271
		c0.141-0.305,0.893-0.189,0.955-0.75c0.35,0.162,0.529-0.24,0.82-0.342c0.119,0.299-0.043,0.387-0.137,0.752
		c0.121,0.072,0.416-0.266,0.613-0.342C49.512,58.348,49.766,58.061,49.939,58.078z M47.551,58.896
		c0.014,0.131,0.176,0.453,0.273,0.273c-0.07-0.066-0.139-0.135-0.205-0.205c0.203-0.146,0.537,0.09,0.682-0.205
		c-0.16-0.02-0.127-0.236-0.342-0.203C47.943,58.791,47.756,58.854,47.551,58.896z"/>
	<path style="fill-rule:evenodd;clip-rule:evenodd;" d="M49.053,59.17c0.086,0.025-0.088,0.363-0.273,0.342c0-0.092,0-0.182,0-0.273
		c0.08-0.012,0.121,0.016,0.137,0.068C48.977,59.277,49.037,59.246,49.053,59.17z"/>
	<path style="fill-rule:evenodd;clip-rule:evenodd;" d="M46.525,60.33c0.137-0.174-0.021,0.273-0.068,0.342
		C46.252,60.59,46.506,60.412,46.525,60.33z"/>
	<path style="fill-rule:evenodd;clip-rule:evenodd;" d="M13.07,60.467c0.095,0.014-0.035,0.369-0.205,0.342
		c0.053-0.061,0.073-0.154,0.068-0.273C13.013,60.547,13.055,60.521,13.07,60.467z"/>
	<path style="fill-rule:evenodd;clip-rule:evenodd;" d="M44.342,60.809c-0.061,0.121-0.277,0.088-0.205,0.342
		c-0.119-0.063-0.176-0.24-0.068-0.342C44.203,60.922,44.154,60.803,44.342,60.809z"/>
	<path style="fill-rule:evenodd;clip-rule:evenodd;" d="M45.844,61.355c-0.262-0.057-0.08,0.328-0.342,0.273
		c0.039-0.143,0.17-0.195,0.137-0.41c-0.211,0.016-0.115,0.34-0.41,0.273c0.109-0.256,0.426-0.305,0.479-0.615
		c0.096,0.299-0.1,0.482,0.41,0.479c0.004,0.295-0.396,0.488-0.137,0.137C45.963,61.418,45.844,61.445,45.844,61.355z"/>
	<path style="fill-rule:evenodd;clip-rule:evenodd;" d="M44.41,61.561c0.01,0.301-0.193,0.02-0.273,0
		c0.439,0.232,0.178,1.242,0.479,1.775c-0.053,0.107-0.217,0.102-0.205,0.271c0.49,0.387,0.088,1.508,0.137,2.459
		c0.035,0.703,0.322,1.311,0.342,1.57c-0.006-0.072,0.023,0.885-0.068,1.16c-0.189,0.561-0.629,0.889-0.547,1.775
		c-0.479-0.668,0.408-2.033,0-3.004c0.578-0.311-0.211-1.066,0.137-1.365c-0.043-0.02-0.264-0.17-0.273,0
		c-0.318-1.021-0.469-3.656,0-4.916C43.971,61.688,44.33,61.26,44.41,61.561z"/>
	<path style="fill-rule:evenodd;clip-rule:evenodd;" d="M44.889,61.766c0.102-0.08,0.08-0.285,0.271-0.273
		c-0.133,0.127-0.02,0.25,0,0.41c-0.277-0.021,0.012,0.094-0.068,0.271C44.914,62.316,45.107,61.662,44.889,61.766z"/>
	<path style="fill-rule:evenodd;clip-rule:evenodd;" d="M46.662,61.834C46.943,61.881,46.4,62.416,46.662,61.834L46.662,61.834z"/>
	<path style="fill-rule:evenodd;clip-rule:evenodd;" d="M45.297,62.311c0.152,0.113-0.189,0.307-0.342,0.342
		c-0.035-0.098,0.268-0.166,0.068-0.205c0.018-0.086,0.137-0.068,0.137,0C45.221,62.418,45.283,62.387,45.297,62.311z"/>
	<path style="fill-rule:evenodd;clip-rule:evenodd;" d="M44,67.295c0.197,0.156-0.006,0.563,0.205,0.82c-0.092,0-0.182,0-0.273,0
		C44.188,67.865,43.771,67.648,44,67.295z"/>
	<path style="fill-rule:evenodd;clip-rule:evenodd;" d="M53.764,47.018c-0.07,0.043-0.07,0.156-0.205,0.137
		c0.025-0.117-0.053-0.129-0.137-0.137c0.314-0.607,0.658-1.047,0.752-1.707c0.477,0.889-0.463,1.459-0.342,2.389
		c0.023,0.096,0.119,0.006,0.137-0.068c-0.195,0.564-0.908,1.771-1.639,1.98C52.605,48.418,53.475,48.078,53.764,47.018z"/>
	<path style="fill-rule:evenodd;clip-rule:evenodd;" d="M46.049,58.352c0.045,0.203,0.145-0.066,0.273,0
		c-0.25,0.813,0.061,1.227-0.615,1.775c-0.121-0.061-0.174-0.191-0.41-0.137c0.254-0.09,0.4-0.283,0.479-0.547
		c0.027-0.164-0.311,0.037-0.205-0.205c-0.412,0.133-0.77,0.373-0.75,0.752c-0.15-0.055-0.273-0.137-0.273-0.342
		c0.172-0.123,0.49-0.102,0.408-0.479c-0.645,0.613-1.135,0.887-1.91,1.025c-0.16-0.023-0.258-0.109-0.479-0.068
		c0.078-0.225,0.229,0.016,0.273-0.273c0.158,0,0.318,0,0.477,0c-0.225-0.074,0.176-0.584-0.34-0.615
		c0.121-0.328-0.096-0.246-0.068-0.613c0.064,0.117,0.252,0.111,0.205,0.34c0.09-0.205,0.217-0.049,0.271,0.137
		c0.16-0.021,0.283-0.082,0.41-0.137c0.01-0.121-0.084-0.143-0.068-0.271c0.232,0.078,0.438,0.096,0.479-0.205
		c0.107,0.119,0.313,0.141,0.342,0.34c0.287-0.166,0.357-0.551,0.613-0.75c-0.025,0.178-0.035,0.375-0.137,0.479
		c0.104,0.242,0.342-0.074,0.342,0.271c0.061-0.053,0.154-0.072,0.273-0.068c0.162-0.283-0.215-0.291-0.137-0.682
		c0.236,0.129,0.174,0.129,0.41,0c-0.012,0.289,0.107,0,0.137-0.068C46.182,58.049,46.266,58.33,46.049,58.352z M43.453,59.648
		c0.225-0.002,0.498-0.498,0.137-0.479C43.68,59.471,43.586,59.449,43.453,59.648z"/>
</g>
</svg>
