<?xml version="1.0" encoding="iso-8859-1"?>
<!-- Generator: Adobe Illustrator 15.0.2, SVG Export Plug-In . SVG Version: 6.00 Build 0)  -->
<!DOCTYPE svg PUBLIC "-//W3C//DTD SVG 1.1//EN" "http://www.w3.org/Graphics/SVG/1.1/DTD/svg11.dtd">
<svg version="1.1" id="&#x30EC;&#x30A4;&#x30E4;&#x30FC;_1"
	 xmlns="http://www.w3.org/2000/svg" xmlns:xlink="http://www.w3.org/1999/xlink" x="0px" y="0px" width="64px" height="64px"
	 viewBox="0 0 64 64" style="enable-background:new 0 0 64 64;" xml:space="preserve">
<g>
	<linearGradient id="SVGID_1_" gradientUnits="userSpaceOnUse" x1="52.7598" y1="31.9404" x2="38.6344" y2="32.0654">
		<stop  offset="0" style="stop-color:#9F6100"/>
		<stop  offset="1" style="stop-color:#D49640"/>
	</linearGradient>
	
		<rect x="37.927" y="1.048" style="fill:url(#SVGID_1_);stroke:#632B01;stroke-width:2;stroke-miterlimit:10;" width="16.25" height="61.904"/>
	<path style="fill:#FFA748;stroke:#632B01;stroke-width:2;stroke-miterlimit:10;" d="M48.248,27.494c-3.321,0.208-7.731,0-7.731,0
		l-1.87-1.71c3.208-1.868,5.331-5.086,5.331-8.749c0-0.09-0.013-0.177-0.016-0.267c4.398-0.525,7.79-3.801,7.79-7.772
		c0-4.338-4.04-7.854-9.023-7.854c-4.075,0-7.517,2.353-8.637,5.582c-0.616-0.089-1.243-0.146-1.888-0.146
		c-3.527,0-6.685,1.385-8.842,3.568c-1.392-0.897-3.075-1.426-4.892-1.426c-4.775,0-8.647,3.634-8.647,8.116
		s3.872,8.116,8.647,8.116c1.142,0,2.222-0.227,3.218-0.605c-0.625,3.434-1.773,10.652-1.02,13.736c0,0-1.031,4.179-0.681,8.496
		c-0.658-0.43-1.442-0.684-2.287-0.684c-2.312,0-4.186,1.867-4.186,4.171s1.874,4.171,4.186,4.171c1.634,0,3.033-0.941,3.723-2.302
		c0.89,1.635,2.253,2.954,4.314,3.596c8.709,2.71,10.258,0.515,10.258,0.515l10.39,1.44c0,0,2.842,0.687,3.816-4.236
		s-0.607-7.985-4.004-6.892l-8.871-0.818c0,0,2.85-4.463,1.725-9.963l9.196,1.173c0,0,3.554,0.702,3.304-3.423
		S51.569,27.287,48.248,27.494z"/>
	<path style="fill:none;stroke:#632B01;stroke-width:2;stroke-miterlimit:10;" d="M21.887,20.544c0,0,0.42,6.234,6.539,6.234
		c3.026,0,3.624,0.194,7.958-0.694"/>
	<ellipse style="fill:#632B01;" cx="32.64" cy="17.229" rx="2.71" ry="3.431"/>
	<circle style="fill:#632B01;" cx="26.866" cy="16.129" r="1.689"/>
	<circle style="fill:#632B01;" cx="37.327" cy="14.637" r="1.689"/>
	<line style="fill:none;stroke:#F95D8E;stroke-width:2;stroke-miterlimit:10;" x1="23.177" y1="20.544" x2="25.177" y2="19.202"/>
	<line style="fill:none;stroke:#F95D8E;stroke-width:2;stroke-miterlimit:10;" x1="25.177" y1="20.66" x2="26.866" y2="19.873"/>
	<line style="fill:none;stroke:#F95D8E;stroke-width:2;stroke-miterlimit:10;" x1="39.017" y1="18.452" x2="40.052" y2="17.229"/>
	<line style="fill:none;stroke:#F95D8E;stroke-width:2;stroke-miterlimit:10;" x1="40.552" y1="18.452" x2="42.177" y2="16.326"/>
	<path style="fill:#E28413;" d="M42.927,16.13c0,0-1.449-5.803-5.6-6.803c0,0,1.475-4.375,6.85-2.625
		C48.927,10.702,46.427,15.433,42.927,16.13z"/>
	<path style="fill:#E28413;" d="M21.052,20.267c0,0-1.829-3.695,0.835-5.63c0,0-6.085-1.185-6.085,3.815s5.181,4.424,6.085,4.75"/>
	<path style="fill:#E28413;" d="M37.677,34.452l-1.293,3l-0.746,8.875C35.638,46.327,39.927,41.077,37.677,34.452z"/>
	<path style="fill:#E28413;" d="M21.302,49.827c0,0-3.498,2.533-4.875,3C16.427,52.827,19.677,54.827,21.302,49.827z"/>
	<path style="fill:#E28413;" d="M35.638,54.827l1.346-1l9.068,1.75c0,0,1.75,0.375,2.375-0.875c0,0-0.375,2-2.375,1.625
		L35.638,54.827z"/>
	<path style="fill:#E28413;" d="M25.815,27.399c0,0,4.943,3.767,9.822,1.931s3.379-1.753,3.379-1.753l-1.324-1.352
		C37.692,26.226,35.346,28.792,25.815,27.399z"/>
</g>
</svg>
