<?xml version="1.0" encoding="UTF-8" standalone="no"?>
<!-- Generator: Adobe Illustrator 15.0.2, SVG Export Plug-In . SVG Version: 6.00 Build 0)  -->

<svg
   xmlns:dc="http://purl.org/dc/elements/1.1/"
   xmlns:cc="http://creativecommons.org/ns#"
   xmlns:rdf="http://www.w3.org/1999/02/22-rdf-syntax-ns#"
   xmlns:svg="http://www.w3.org/2000/svg"
   xmlns="http://www.w3.org/2000/svg"
   xmlns:sodipodi="http://sodipodi.sourceforge.net/DTD/sodipodi-0.dtd"
   xmlns:inkscape="http://www.inkscape.org/namespaces/inkscape"
   version="1.1"
   x="0px"
   y="0px"
   width="64px"
   height="64px"
   viewBox="0 0 64 64"
   enable-background="new 0 0 64 64"
   xml:space="preserve"
   id="svg2"
   inkscape:version="0.48.3.1 r9886"
   sodipodi:docname="rainbow.svg"><metadata
   id="metadata90"><rdf:RDF><cc:Work
       rdf:about=""><dc:format>image/svg+xml</dc:format><dc:type
         rdf:resource="http://purl.org/dc/dcmitype/StillImage" /></cc:Work></rdf:RDF></metadata><defs
   id="defs88" /><sodipodi:namedview
   pagecolor="#ffffff"
   bordercolor="#666666"
   borderopacity="1"
   objecttolerance="10"
   gridtolerance="10"
   guidetolerance="10"
   inkscape:pageopacity="0"
   inkscape:pageshadow="2"
   inkscape:window-width="1920"
   inkscape:window-height="1026"
   id="namedview86"
   showgrid="false"
   inkscape:zoom="5.2149125"
   inkscape:cx="-58.15033"
   inkscape:cy="9.9091281"
   inkscape:window-x="0"
   inkscape:window-y="26"
   inkscape:window-maximized="1"
   inkscape:current-layer="レイヤー_5" />
<g
   id="レイヤー_1"
   display="none">
	<path
   display="inline"
   fill="#FFFFFF"
   stroke="#000000"
   stroke-miterlimit="10"
   d="M62.682,24.417C61,38.584,55.75,43.485,32,59.5   C7.833,43.568,1.318,37.584,1.318,24.417C1.318,7.472,20.333,1.75,31.937,18C42.083,2.167,64.679,7.59,62.682,24.417z"
   id="path5" />
</g>
<g
   id="レイヤー_2"
   display="none">
	<polygon
   display="inline"
   fill="#FF9B48"
   points="32,0.487 34.611,16.568 42.303,2.206 39.551,18.264 51.489,7.177 43.673,21.471    58.563,14.862 46.529,25.843 62.759,24.427 47.811,30.906 63.622,34.836 47.379,36.111 61.058,44.961 45.281,40.895 55.345,53.707    41.744,44.736 47.102,60.121 37.15,47.223 37.223,63.514 32,48.082 26.777,63.514 26.848,47.223 16.898,60.121 22.255,44.736    8.655,53.707 18.718,40.895 2.942,44.961 16.62,36.111 0.378,34.836 16.188,30.906 1.24,24.427 17.471,25.843 5.436,14.862    20.328,21.471 12.51,7.177 24.449,18.264 21.696,2.206 29.389,16.568  "
   id="polygon8" />
	<polygon
   fill="#FFAC1A"
   points="32,0.715 33.143,16.42 36.562,1.049 35.405,16.753 41.025,2.043 37.596,17.413 45.295,3.677    39.667,18.382 49.286,5.916 41.573,19.644 52.904,8.71 43.276,21.17 56.079,12.003 44.738,22.928 58.739,15.723 45.932,24.879    60.83,19.79 46.823,26.985 62.309,24.118 47.403,29.197 63.14,28.616 47.653,31.47 63.307,33.188 47.569,33.754 62.805,37.73    47.154,36.004 61.648,42.156 46.417,38.168 59.859,46.367 45.371,40.201 57.479,50.268 44.041,42.063 54.553,53.785 42.453,43.709    51.146,56.836 40.644,45.107 47.331,59.359 38.648,46.223 43.19,61.301 36.513,47.041 38.812,62.621 34.281,47.537 34.287,63.285    32,47.705 29.713,63.285 29.719,47.537 25.188,62.621 27.487,47.041 20.809,61.301 25.351,46.223 16.667,59.359 23.356,45.107    12.854,56.836 21.547,43.709 9.447,53.785 19.959,42.063 6.522,50.268 18.628,40.201 4.14,46.367 17.584,38.168 2.351,42.156    16.845,36.004 1.194,37.73 16.43,33.754 0.693,33.188 16.347,31.47 0.861,28.616 16.597,29.197 1.691,24.118 17.175,26.985    3.168,19.79 18.069,24.879 5.259,15.723 19.26,22.928 7.92,12.003 20.724,21.17 11.095,8.71 22.427,19.644 14.714,5.916    24.333,18.382 18.702,3.677 26.404,17.413 22.974,2.043 28.594,16.753 27.438,1.049 30.856,16.42  "
   id="polygon10" />
	<circle
   display="inline"
   fill="#FF9B48"
   stroke="#FF7110"
   stroke-width="2"
   stroke-miterlimit="10"
   cx="32"
   cy="32"
   r="21.917"
   id="circle12" />
	<linearGradient
   id="SVGID_1_"
   gradientUnits="userSpaceOnUse"
   x1="12.5796"
   y1="7.2441"
   x2="62.3291"
   y2="70.6606">
		<stop
   offset="0"
   style="stop-color:#FFAA5F"
   id="stop15" />
		<stop
   offset="1"
   style="stop-color:#FF981F"
   id="stop17" />
	</linearGradient>
	<circle
   display="inline"
   fill="url(#SVGID_1_)"
   stroke="#FFD731"
   stroke-miterlimit="10"
   cx="32"
   cy="32"
   r="20.959"
   id="circle19" />
</g>
<g
   id="レイヤー_3"
   display="none">
	<path
   display="inline"
   fill="none"
   stroke="#A02C04"
   stroke-width="2.5"
   stroke-miterlimit="10"
   d="M17.159,24.635   c0-3.155,1.903-5.713,4.251-5.713c2.347,0,4.25,2.558,4.25,5.713"
   id="path22" />
	<path
   display="inline"
   fill="none"
   stroke="#A02C04"
   stroke-width="2.5"
   stroke-miterlimit="10"
   d="M38.165,24.635   c0-3.155,1.904-5.713,4.252-5.713c2.347,0,4.249,2.558,4.249,5.713"
   id="path24" />
	<path
   display="inline"
   fill="#FFFFFF"
   stroke="#992C02"
   stroke-width="2"
   stroke-miterlimit="10"
   d="M49.003,31.417   c0,9.389-7.612,17.002-17.002,17.002c-9.391,0-17.003-7.613-17.003-17.002c10.177,0,7.612,0,17.003,0   C41.391,31.417,37.956,31.396,49.003,31.417z"
   id="path26" />
	<path
   display="inline"
   fill="#FF83A6"
   d="M17.536,38.462c0,0,14.137-3.859,28.919,0c0,0,0.971,7.726-14.481,9.958   C16.935,46.02,17.614,39.682,17.536,38.462z"
   id="path28" />
	<path
   display="inline"
   fill="#FF406E"
   d="M17.536,39.534c0,0,14.137-3.443,28.919,0c0,0,0.971,6.894-14.481,8.886   C16.935,46.278,17.614,40.623,17.536,39.534z"
   id="path30" />
	<path
   display="inline"
   fill="none"
   stroke="#A02C04"
   stroke-width="2"
   stroke-miterlimit="10"
   d="M49.003,31.417   c0,9.389-7.612,17.002-17.002,17.002c-9.391,0-17.003-7.613-17.003-17.002c10.177,0,7.612,0,17.003,0   C41.391,31.417,37.956,31.396,49.003,31.417z"
   id="path32" />
</g>
<g
   id="レイヤー_3のコピー"
   display="none">
	<path
   display="inline"
   fill="#FFFFFF"
   stroke="#992C02"
   stroke-width="2"
   stroke-miterlimit="10"
   d="M49.003,31.417   c0,9.389-7.612,17.002-17.002,17.002c-9.391,0-17.003-7.613-17.003-17.002c10.177,0,7.612,0,17.003,0   C41.391,31.417,37.956,31.396,49.003,31.417z"
   id="path35" />
	<path
   display="inline"
   fill="#FF83A6"
   d="M17.536,38.462c0,0,14.137-3.859,28.919,0c0,0,0.971,7.726-14.481,9.958   C16.935,46.02,17.614,39.682,17.536,38.462z"
   id="path37" />
	<path
   display="inline"
   fill="#FF406E"
   d="M17.536,39.534c0,0,14.137-3.443,28.919,0c0,0,0.971,6.894-14.481,8.886   C16.935,46.278,17.614,40.623,17.536,39.534z"
   id="path39" />
	<path
   display="inline"
   fill="none"
   stroke="#A02C04"
   stroke-width="2"
   stroke-miterlimit="10"
   d="M49.003,31.417   c0,9.389-7.612,17.002-17.002,17.002c-9.391,0-17.003-7.613-17.003-17.002c10.177,0,7.612,0,17.003,0   C41.391,31.417,37.956,31.396,49.003,31.417z"
   id="path41" />
	<g
   display="inline"
   id="g43">
		<ellipse
   fill="#FFFFFF"
   stroke="#A02C04"
   stroke-width="2"
   stroke-miterlimit="10"
   cx="22.5"
   cy="21.328"
   rx="5.744"
   ry="2.501"
   id="ellipse45" />
		<ellipse
   fill="#A02C04"
   cx="22.501"
   cy="21.328"
   rx="2.211"
   ry="2.006"
   id="ellipse47" />
	</g>
	<g
   display="inline"
   id="g49">
		<ellipse
   fill="#FFFFFF"
   stroke="#A02C04"
   stroke-width="2"
   stroke-miterlimit="10"
   cx="41.592"
   cy="21.329"
   rx="5.744"
   ry="2.5"
   id="ellipse51" />
		<ellipse
   fill="#A02C04"
   cx="41.592"
   cy="21.329"
   rx="2.21"
   ry="2.006"
   id="ellipse53" />
	</g>
</g>
<g
   id="レイヤー_5">
	<rect
   display="none"
   fill="#66E2FF"
   width="64"
   height="64"
   id="rect56" />
	<g
   display="none"
   id="g58">
		<g
   display="inline"
   id="g60">
			<path
   fill="#CCCCCC"
   d="M50.274,16.755c0-1.627-5.262-3.022-12.747-3.614c0.582-1.022,0.913-2.152,0.913-3.345     c0-4.533-4.683-8.208-10.458-8.208c-4.207,0-7.823,1.953-9.483,4.763c-0.137-0.003-0.271-0.013-0.409-0.013     c-6.188,0-11.208,3.146-11.307,7.05c-7.763,0.736-22.2,3.344-22.2,4.95c0,2.37,20.607,3.083,34.691,3.083     c5.814,0,11.171-0.328,15.46-0.879C43.668,20.105,50.274,18.578,50.274,16.755z"
   id="path62" />
			<path
   fill="#FFFFFF"
   d="M53.107,16.755c0-1.627-5.262-3.022-12.746-3.614c0.582-1.022,0.912-2.152,0.912-3.345     c0-4.533-4.682-8.208-10.458-8.208c-4.207,0-7.823,1.953-9.483,4.763c-0.137-0.003-0.271-0.013-0.409-0.013     c-6.188,0-11.208,3.146-11.307,7.05c-7.763,0.736-22.2,3.344-22.2,4.95c0,2.37,20.607,3.083,34.691,3.083     c5.814,0,11.171-0.328,15.46-0.879C46.502,20.105,53.107,18.578,53.107,16.755z"
   id="path64" />
		</g>
		<g
   display="inline"
   id="g66">
			<path
   fill="#B3B3B3"
   d="M83.167,53.838c0-1.361-4.591-2.578-11.805-3.389C71.771,49.326,72,48.128,72,46.88     c0-6.282-5.597-11.375-12.5-11.375c-5.096,0-9.472,2.779-11.418,6.759c-0.223-0.002-0.44-0.009-0.665-0.009     c-9.757,0-17.667,2.108-17.667,4.708c0,1.16,1.583,2.222,4.194,3.042c-9.893,0.762-16.563,2.192-16.563,3.833     c0,2.439,14.727,4.417,32.893,4.417c0.206,0,0.41-0.002,0.615-0.002c2.065,0.879,4.785,1.419,7.777,1.419     c3.7,0,6.991-0.82,9.128-2.097C77.028,56.793,83.167,55.412,83.167,53.838z"
   id="path68" />
			<path
   fill="#FFFFFF"
   d="M84.107,53.314c0-1.361-4.591-2.578-11.805-3.389c0.408-1.123,0.638-2.321,0.638-3.569     c0-6.282-5.597-11.375-12.5-11.375c-5.096,0-9.472,2.779-11.418,6.759c-0.223-0.002-0.44-0.009-0.665-0.009     c-9.757,0-17.667,2.108-17.667,4.708c0,1.16,1.583,2.222,4.194,3.042c-9.893,0.762-16.563,2.192-16.563,3.833     c0,2.439,14.727,4.417,32.893,4.417c0.206,0,0.41-0.002,0.615-0.002c2.065,0.879,4.785,1.419,7.777,1.419     c3.7,0,6.991-0.82,9.128-2.097C77.969,56.27,84.107,54.889,84.107,53.314z"
   id="path70" />
		</g>
	</g>
	<path
   stroke-miterlimit="10"
   d="M28.925,63.961   c0-19.375,15.708-35.083,35.082-35.083"
   id="path72"
   style="opacity:0.57565789000000001;"
   stroke-width="6"
   stroke="#1DD4FF"
   fill="none" />
	<path
   stroke-miterlimit="10"
   d="m 23.262829,63.979653 c 0,-22.482779 18.249346,-40.711468 40.758824,-40.711468"
   id="path74"
   style="opacity:0.57565792000000005;fill:none;stroke:#59ff22;stroke-width:5.95608281999999978;stroke-miterlimit:10;"
   inkscape:connector-curvature="0" />
	<path
   fill="none"
   stroke="#FFED12"
   stroke-width="6"
   stroke-miterlimit="10"
   d="M17.381,63.958c0-25.746,20.874-46.62,46.619-46.62   "
   id="path76"
   style="opacity:0.57565789000000001;" />
	<path
   fill="none"
   stroke="#FF9F2C"
   stroke-width="6"
   stroke-miterlimit="10"
   d="M11.548,63.958   c0-28.969,23.484-52.453,52.452-52.453"
   id="path78"
   style="opacity:0.57565789000000001;" />
	<path
   fill="none"
   stroke="#FF2929"
   stroke-width="7"
   stroke-miterlimit="10"
   d="M5.298,63.958C5.298,31.537,31.58,5.255,64,5.255"
   id="path80"
   style="opacity:0.57565789000000001;" />
	<path
   stroke-miterlimit="10"
   d="m 40.427316,64 c 0,-12.901203 10.605674,-23.36127 23.687684,-23.36127"
   id="path82"
   style="opacity:0.57565792000000005;fill:none;stroke:#e31fff;stroke-width:5.88551473999999963;stroke-miterlimit:10;"
   inkscape:connector-curvature="0" />
	<path
   stroke-miterlimit="10"
   d="m 34.683295,64.045485 c 0,-16.150056 13.197605,-29.241857 29.47719,-29.241857"
   id="path84"
   style="opacity:0.57565792000000005;fill:none;stroke:#3131ff;stroke-width:5.91255568999999959;stroke-miterlimit:10;"
   inkscape:connector-curvature="0" />
</g>
</svg>