<?xml version="1.0" encoding="iso-8859-1"?>
<!-- Generator: Adobe Illustrator 15.0.2, SVG Export Plug-In . SVG Version: 6.00 Build 0)  -->
<!DOCTYPE svg PUBLIC "-//W3C//DTD SVG 1.1//EN" "http://www.w3.org/Graphics/SVG/1.1/DTD/svg11.dtd">
<svg version="1.1" id="&#x30EC;&#x30A4;&#x30E4;&#x30FC;_1"
	 xmlns="http://www.w3.org/2000/svg" xmlns:xlink="http://www.w3.org/1999/xlink" x="0px" y="0px" width="64px" height="64px"
	 viewBox="0 0 64 64" style="enable-background:new 0 0 64 64;" xml:space="preserve">
<g>
	<path style="fill:#FFFFFF;stroke:#3E3A39;stroke-width:2;stroke-miterlimit:10;" d="M16.555,56.625c4.5,0,29.75,0,34.75,0
		c5.08-1.51,9.75-9.795,4.75-20.295s-15-28.955-26-28.955c-11,0-24.25,25.75-24.25,36S11.305,56.625,16.555,56.625z"/>
	<path style="fill:#231815;" d="M43.89,35.292c-14.251-0.083-19.834,0-26.501,0c-2.75,14.583,0,21.333,0,21.333H43.89
		C43.89,56.625,42.64,42.709,43.89,35.292z"/>
	<g>
		<ellipse style="fill:#FFFFFF;" cx="52.016" cy="52.337" rx="1.593" ry="3.036"/>
		<path style="fill:#DBDCDC;" d="M53.602,52.26c0,0,0.19,2.88-1.324,3.113c0,0-0.863-0.191-1.019-0.775
			C51.259,54.598,52.707,54.556,53.602,52.26z"/>
	</g>
	<g>
		<g>
			<ellipse style="fill:#FFFFFF;" cx="49.955" cy="52.339" rx="1.593" ry="3.034"/>
			<path style="fill:#DBDCDC;" d="M51.541,52.26c0,0,0.189,2.881-1.325,3.113c0,0-0.863-0.191-1.02-0.775
				C49.196,54.598,50.646,54.557,51.541,52.26z"/>
		</g>
		<g>
			<ellipse style="fill:#FFFFFF;" cx="53.61" cy="49.304" rx="1.594" ry="3.035"/>
			<path style="fill:#DBDCDC;" d="M55.196,49.225c0,0,0.19,2.882-1.325,3.114c0,0-0.863-0.192-1.019-0.776
				C52.853,51.563,54.301,51.522,55.196,49.225z"/>
		</g>
		<g>
			<ellipse style="fill:#FFFFFF;" cx="47.236" cy="52.298" rx="1.593" ry="3.036"/>
			<path style="fill:#DBDCDC;" d="M48.822,52.22c0,0,0.189,2.881-1.325,3.114c0,0-0.864-0.192-1.02-0.776
				C46.478,54.558,47.928,54.517,48.822,52.22z"/>
		</g>
		<g>
			<ellipse style="fill:#FFFFFF;" cx="45.176" cy="52.299" rx="1.593" ry="3.035"/>
			<path style="fill:#DBDCDC;" d="M46.762,52.22c0,0,0.189,2.882-1.325,3.114c0,0-0.864-0.192-1.02-0.776
				C44.417,54.558,45.866,54.518,46.762,52.22z"/>
		</g>
		<g>
			<ellipse style="fill:#FFFFFF;" cx="48.83" cy="49.265" rx="1.593" ry="3.034"/>
			<path style="fill:#DBDCDC;" d="M50.416,49.186c0,0,0.189,2.881-1.325,3.113c0,0-0.863-0.191-1.02-0.775
				C48.071,51.523,49.521,51.482,50.416,49.186z"/>
		</g>
	</g>
	<g>
		<g>
			<ellipse style="fill:#FFFFFF;" cx="13.242" cy="52.175" rx="1.542" ry="2.94"/>
			<path style="fill:#DBDCDC;" d="M14.778,52.101c0,0,0.184,2.787-1.284,3.015c0,0-0.836-0.186-0.987-0.75
				C12.507,54.365,13.912,54.322,14.778,52.101z"/>
		</g>
		<g>
			<ellipse style="fill:#FFFFFF;" cx="10.091" cy="49.808" rx="1.542" ry="2.938"/>
			<path style="fill:#DBDCDC;" d="M11.626,49.732c0,0,0.184,2.789-1.283,3.014c0,0-0.836-0.186-0.987-0.75
				C9.356,51.996,10.76,51.956,11.626,49.732z"/>
		</g>
		<g>
			<ellipse style="fill:#FFFFFF;" cx="14.786" cy="49.238" rx="1.542" ry="2.938"/>
			<path style="fill:#DBDCDC;" d="M16.322,49.161c0,0,0.183,2.79-1.284,3.016c0,0-0.836-0.186-0.987-0.751
				C14.051,51.426,15.455,51.387,16.322,49.161z"/>
		</g>
	</g>
	<g>
		<g>
			<ellipse style="fill:#FFFFFF;" cx="51.819" cy="47.767" rx="1.593" ry="3.034"/>
			<path style="fill:#DBDCDC;" d="M53.406,47.688c0,0,0.188,2.881-1.326,3.113c0,0-0.863-0.191-1.019-0.775
				C51.062,50.025,52.511,49.984,53.406,47.688z"/>
		</g>
		<g>
			<ellipse style="fill:#FFFFFF;" cx="55.475" cy="44.731" rx="1.593" ry="3.035"/>
			<path style="fill:#DBDCDC;" d="M57.062,44.652c0,0,0.189,2.882-1.325,3.114c0,0-0.864-0.192-1.02-0.775
				C54.717,46.991,56.166,46.95,57.062,44.652z"/>
		</g>
		<g>
			<ellipse style="fill:#FFFFFF;" cx="49.101" cy="47.726" rx="1.593" ry="3.037"/>
			<path style="fill:#DBDCDC;" d="M50.687,47.649c0,0,0.189,2.879-1.325,3.113c0,0-0.863-0.191-1.02-0.775
				C48.342,49.987,49.792,49.944,50.687,47.649z"/>
		</g>
		<g>
			<ellipse style="fill:#FFFFFF;" cx="47.04" cy="47.728" rx="1.593" ry="3.035"/>
			<path style="fill:#DBDCDC;" d="M48.626,47.649c0,0,0.189,2.881-1.325,3.113c0,0-0.863-0.191-1.02-0.775
				C46.281,49.987,47.731,49.946,48.626,47.649z"/>
		</g>
		<g>
			<ellipse style="fill:#FFFFFF;" cx="50.694" cy="44.693" rx="1.593" ry="3.034"/>
			<path style="fill:#DBDCDC;" d="M52.281,44.614c0,0,0.188,2.882-1.326,3.113c0,0-0.863-0.191-1.019-0.775
				C49.937,46.952,51.386,46.912,52.281,44.614z"/>
		</g>
	</g>
	<g>
		<g>
			<ellipse style="fill:#FFFFFF;" cx="13.737" cy="47.788" rx="1.542" ry="2.938"/>
			<path style="fill:#DBDCDC;" d="M15.273,47.711c0,0,0.184,2.79-1.284,3.015c0,0-0.836-0.186-0.987-0.75
				C13.002,49.976,14.406,49.936,15.273,47.711z"/>
		</g>
		<g>
			<ellipse style="fill:#FFFFFF;" cx="10.371" cy="48.773" rx="1.542" ry="2.94"/>
			<path style="fill:#DBDCDC;" d="M11.906,48.699c0,0,0.184,2.787-1.283,3.015c0,0-0.836-0.186-0.987-0.751
				C9.636,50.963,11.04,50.921,11.906,48.699z"/>
		</g>
		<g>
			<ellipse style="fill:#FFFFFF;" cx="8.094" cy="44.734" rx="1.542" ry="2.939"/>
			<path style="fill:#DBDCDC;" d="M9.629,44.658c0,0,0.184,2.79-1.283,3.016c0,0-0.836-0.187-0.987-0.752
				C7.359,46.922,8.763,46.883,9.629,44.658z"/>
		</g>
		<g>
			<ellipse style="fill:#FFFFFF;" cx="12.648" cy="44.812" rx="1.543" ry="2.938"/>
			<path style="fill:#DBDCDC;" d="M14.184,44.735c0,0,0.183,2.79-1.284,3.015c0,0-0.836-0.186-0.987-0.751
				C11.913,46.999,13.316,46.96,14.184,44.735z"/>
		</g>
	</g>
	<g>
		<g>
			<ellipse style="fill:#FFFFFF;" cx="48.829" cy="43.234" rx="1.593" ry="3.035"/>
			<path style="fill:#DBDCDC;" d="M50.415,43.156c0,0,0.189,2.881-1.325,3.113c0,0-0.864-0.191-1.02-0.775
				C48.07,45.494,49.521,45.453,50.415,43.156z"/>
		</g>
		<g>
			<ellipse style="fill:#FFFFFF;" cx="52.735" cy="41.579" rx="1.593" ry="3.034"/>
			<path style="fill:#DBDCDC;" d="M54.32,41.5c0,0,0.19,2.881-1.325,3.113c0,0-0.863-0.191-1.019-0.775
				C51.977,43.838,53.425,43.797,54.32,41.5z"/>
		</g>
		<g>
			<ellipse style="fill:#FFFFFF;" cx="45.671" cy="45.2" rx="1.593" ry="3.036"/>
			<path style="fill:#DBDCDC;" d="M47.257,45.123c0,0,0.189,2.88-1.326,3.113c0,0-0.863-0.191-1.019-0.775
				C44.912,47.461,46.361,47.419,47.257,45.123z"/>
		</g>
		<g>
			<ellipse style="fill:#FFFFFF;" cx="43.608" cy="46.68" rx="1.593" ry="3.034"/>
			<path style="fill:#DBDCDC;" d="M45.195,46.601c0,0,0.188,2.882-1.326,3.113c0,0-0.863-0.191-1.019-0.775
				C42.851,48.938,44.3,48.898,45.195,46.601z"/>
		</g>
		<g>
			<ellipse style="fill:#FFFFFF;" cx="46.848" cy="39.465" rx="1.593" ry="3.035"/>
			<path style="fill:#DBDCDC;" d="M48.434,39.387c0,0,0.189,2.881-1.326,3.113c0,0-0.863-0.192-1.019-0.775
				C46.089,41.725,47.538,41.684,48.434,39.387z"/>
		</g>
	</g>
	<g>
		<g>
			<ellipse style="fill:#FFFFFF;" cx="49.837" cy="37.967" rx="1.593" ry="3.035"/>
			<path style="fill:#DBDCDC;" d="M51.423,37.888c0,0,0.189,2.882-1.325,3.114c0,0-0.864-0.192-1.02-0.776
				C49.078,40.226,50.528,40.186,51.423,37.888z"/>
		</g>
		<g>
			<ellipse style="fill:#FFFFFF;" cx="53.492" cy="34.933" rx="1.593" ry="3.034"/>
			<path style="fill:#DBDCDC;" d="M55.079,34.854c0,0,0.188,2.881-1.326,3.113c0,0-0.863-0.191-1.019-0.775
				C52.734,37.191,54.184,37.151,55.079,34.854z"/>
		</g>
		<g>
			<ellipse style="fill:#FFFFFF;" cx="47.118" cy="37.927" rx="1.593" ry="3.036"/>
			<path style="fill:#DBDCDC;" d="M48.704,37.85c0,0,0.189,2.879-1.326,3.113c0,0-0.863-0.191-1.019-0.775
				C46.359,40.188,47.809,40.145,48.704,37.85z"/>
		</g>
		<g>
			<ellipse style="fill:#FFFFFF;" cx="45.058" cy="37.929" rx="1.593" ry="3.034"/>
			<path style="fill:#DBDCDC;" d="M46.644,37.85c0,0,0.189,2.882-1.326,3.113c0,0-0.863-0.191-1.019-0.775
				C44.299,40.188,45.748,40.147,46.644,37.85z"/>
		</g>
		<g>
			<ellipse style="fill:#FFFFFF;" cx="48.712" cy="34.895" rx="1.593" ry="3.034"/>
			<path style="fill:#DBDCDC;" d="M50.298,34.815c0,0,0.189,2.881-1.325,3.113c0,0-0.864-0.191-1.02-0.775
				C47.953,37.153,49.403,37.112,50.298,34.815z"/>
		</g>
	</g>
	<g>
		<g>
			<ellipse style="fill:#FFFFFF;" cx="15.733" cy="39.538" rx="1.542" ry="2.938"/>
			<path style="fill:#DBDCDC;" d="M17.269,39.462c0,0,0.183,2.79-1.284,3.014c0,0-0.836-0.185-0.987-0.75
				C14.998,41.726,16.402,41.687,17.269,39.462z"/>
		</g>
		<g>
			<ellipse style="fill:#FFFFFF;" cx="12.367" cy="40.524" rx="1.542" ry="2.939"/>
			<path style="fill:#DBDCDC;" d="M13.902,40.449c0,0,0.184,2.789-1.284,3.015c0,0-0.836-0.186-0.987-0.751
				C11.631,42.713,13.036,42.672,13.902,40.449z"/>
		</g>
		<g>
			<ellipse style="fill:#FFFFFF;" cx="9.562" cy="37.017" rx="1.542" ry="2.939"/>
			<path style="fill:#DBDCDC;" d="M11.098,36.941c0,0,0.183,2.789-1.284,3.015c0,0-0.836-0.186-0.987-0.751
				C8.827,39.205,10.231,39.166,11.098,36.941z"/>
		</g>
		<g>
			<ellipse style="fill:#FFFFFF;" cx="14.644" cy="36.562" rx="1.542" ry="2.938"/>
			<path style="fill:#DBDCDC;" d="M16.179,36.486c0,0,0.184,2.789-1.284,3.014c0,0-0.836-0.185-0.986-0.75
				C13.909,38.75,15.313,38.711,16.179,36.486z"/>
		</g>
	</g>
	<g>
		<g>
			<ellipse style="fill:#FFFFFF;" cx="42.123" cy="29.332" rx="1.508" ry="2.873"/>
			<path style="fill:#DBDCDC;" d="M43.625,29.257c0,0,0.179,2.727-1.256,2.947c0,0-0.817-0.182-0.964-0.734
				C41.405,31.47,42.777,31.432,43.625,29.257z"/>
		</g>
		<g>
			<ellipse style="fill:#FFFFFF;" cx="46.18" cy="27.84" rx="1.508" ry="2.873"/>
			<path style="fill:#DBDCDC;" d="M47.682,27.765c0,0,0.18,2.728-1.255,2.947c0,0-0.817-0.181-0.965-0.734
				C45.462,29.979,46.835,29.94,47.682,27.765z"/>
		</g>
		<g>
			<ellipse style="fill:#FFFFFF;" cx="37.993" cy="31.806" rx="1.508" ry="2.875"/>
			<path style="fill:#DBDCDC;" d="M39.495,31.734c0,0,0.179,2.725-1.256,2.948c0,0-0.817-0.182-0.964-0.734
				C37.275,33.947,38.647,33.906,39.495,31.734z"/>
		</g>
		<g>
			<ellipse style="fill:#FFFFFF;" cx="33.026" cy="31.512" rx="1.508" ry="2.873"/>
			<path style="fill:#DBDCDC;" d="M34.528,31.437c0,0,0.179,2.727-1.255,2.948c0,0-0.818-0.182-0.965-0.734
				C32.308,33.65,33.681,33.611,34.528,31.437z"/>
		</g>
		<g>
			<ellipse style="fill:#FFFFFF;" cx="40.615" cy="23.226" rx="1.508" ry="2.873"/>
			<path style="fill:#DBDCDC;" d="M42.116,23.151c0,0,0.18,2.728-1.255,2.947c0,0-0.817-0.181-0.964-0.734
				C39.897,25.364,41.27,25.326,42.116,23.151z"/>
		</g>
	</g>
	<g>
		<g>
			<ellipse style="fill:#FFFFFF;" cx="21.627" cy="29.675" rx="1.685" ry="3.21"/>
			<path style="fill:#DBDCDC;" d="M23.305,29.592c0,0,0.201,3.048-1.403,3.293c0,0-0.914-0.202-1.078-0.819
				C20.824,32.065,22.358,32.022,23.305,29.592z"/>
		</g>
		<g>
			<ellipse style="fill:#FFFFFF;" cx="17.948" cy="30.752" rx="1.686" ry="3.213"/>
			<path style="fill:#DBDCDC;" d="M19.627,30.671c0,0,0.2,3.046-1.403,3.294c0,0-0.914-0.202-1.079-0.82
				C17.145,33.145,18.679,33.1,19.627,30.671z"/>
		</g>
		<g>
			<ellipse style="fill:#FFFFFF;" cx="14.883" cy="26.92" rx="1.685" ry="3.212"/>
			<path style="fill:#DBDCDC;" d="M16.562,26.837c0,0,0.2,3.049-1.403,3.295c0,0-0.914-0.203-1.079-0.821
				C14.08,29.311,15.615,29.268,16.562,26.837z"/>
		</g>
		<g>
			<ellipse style="fill:#FFFFFF;" cx="18.75" cy="24.776" rx="1.686" ry="3.211"/>
			<path style="fill:#DBDCDC;" d="M20.429,24.693c0,0,0.2,3.049-1.403,3.294c0,0-0.914-0.204-1.079-0.821
				C17.947,27.167,19.481,27.124,20.429,24.693z"/>
		</g>
	</g>
	<g>
		<ellipse style="fill:#FFFFFF;" cx="52.016" cy="52.337" rx="1.593" ry="3.036"/>
		<path style="fill:#DBDCDC;" d="M53.602,52.26c0,0,0.19,2.88-1.324,3.113c0,0-0.863-0.191-1.019-0.775
			C51.259,54.598,52.707,54.556,53.602,52.26z"/>
	</g>
	<g>
		<g>
			<ellipse style="fill:#FFFFFF;" cx="49.955" cy="52.339" rx="1.593" ry="3.034"/>
			<path style="fill:#DBDCDC;" d="M51.541,52.26c0,0,0.189,2.881-1.325,3.113c0,0-0.863-0.191-1.02-0.775
				C49.196,54.598,50.646,54.557,51.541,52.26z"/>
		</g>
		<g>
			<ellipse style="fill:#FFFFFF;" cx="53.61" cy="49.304" rx="1.594" ry="3.035"/>
			<path style="fill:#DBDCDC;" d="M55.196,49.225c0,0,0.19,2.882-1.325,3.114c0,0-0.863-0.192-1.019-0.776
				C52.853,51.563,54.301,51.522,55.196,49.225z"/>
		</g>
		<g>
			<ellipse style="fill:#FFFFFF;" cx="47.236" cy="52.298" rx="1.593" ry="3.036"/>
			<path style="fill:#DBDCDC;" d="M48.822,52.22c0,0,0.189,2.881-1.325,3.114c0,0-0.864-0.192-1.02-0.776
				C46.478,54.558,47.928,54.517,48.822,52.22z"/>
		</g>
		<g>
			<ellipse style="fill:#FFFFFF;" cx="45.176" cy="52.299" rx="1.593" ry="3.035"/>
			<path style="fill:#DBDCDC;" d="M46.762,52.22c0,0,0.189,2.882-1.325,3.114c0,0-0.864-0.192-1.02-0.776
				C44.417,54.558,45.866,54.518,46.762,52.22z"/>
		</g>
		<g>
			<ellipse style="fill:#FFFFFF;" cx="48.83" cy="49.265" rx="1.593" ry="3.034"/>
			<path style="fill:#DBDCDC;" d="M50.416,49.186c0,0,0.189,2.881-1.325,3.113c0,0-0.863-0.191-1.02-0.775
				C48.071,51.523,49.521,51.482,50.416,49.186z"/>
		</g>
	</g>
	<g>
		<g>
			<ellipse style="fill:#FFFFFF;" cx="13.242" cy="52.175" rx="1.542" ry="2.94"/>
			<path style="fill:#DBDCDC;" d="M14.778,52.101c0,0,0.184,2.787-1.284,3.015c0,0-0.836-0.186-0.987-0.75
				C12.507,54.365,13.912,54.322,14.778,52.101z"/>
		</g>
		<g>
			<ellipse style="fill:#FFFFFF;" cx="10.091" cy="49.808" rx="1.542" ry="2.938"/>
			<path style="fill:#DBDCDC;" d="M11.626,49.732c0,0,0.184,2.789-1.283,3.014c0,0-0.836-0.186-0.987-0.75
				C9.356,51.996,10.76,51.956,11.626,49.732z"/>
		</g>
		<g>
			<ellipse style="fill:#FFFFFF;" cx="14.786" cy="49.238" rx="1.542" ry="2.938"/>
			<path style="fill:#DBDCDC;" d="M16.322,49.161c0,0,0.183,2.79-1.284,3.016c0,0-0.836-0.186-0.987-0.751
				C14.051,51.426,15.455,51.387,16.322,49.161z"/>
		</g>
	</g>
	<g>
		<g>
			<ellipse style="fill:#FFFFFF;" cx="51.819" cy="47.767" rx="1.593" ry="3.034"/>
			<path style="fill:#DBDCDC;" d="M53.406,47.688c0,0,0.188,2.881-1.326,3.113c0,0-0.863-0.191-1.019-0.775
				C51.062,50.025,52.511,49.984,53.406,47.688z"/>
		</g>
		<g>
			<ellipse style="fill:#FFFFFF;" cx="55.475" cy="44.731" rx="1.593" ry="3.035"/>
			<path style="fill:#DBDCDC;" d="M57.062,44.652c0,0,0.189,2.882-1.325,3.114c0,0-0.864-0.192-1.02-0.775
				C54.717,46.991,56.166,46.95,57.062,44.652z"/>
		</g>
		<g>
			<ellipse style="fill:#FFFFFF;" cx="49.101" cy="47.726" rx="1.593" ry="3.037"/>
			<path style="fill:#DBDCDC;" d="M50.687,47.649c0,0,0.189,2.879-1.325,3.113c0,0-0.863-0.191-1.02-0.775
				C48.342,49.987,49.792,49.944,50.687,47.649z"/>
		</g>
		<g>
			<ellipse style="fill:#FFFFFF;" cx="47.04" cy="47.728" rx="1.593" ry="3.035"/>
			<path style="fill:#DBDCDC;" d="M48.626,47.649c0,0,0.189,2.881-1.325,3.113c0,0-0.863-0.191-1.02-0.775
				C46.281,49.987,47.731,49.946,48.626,47.649z"/>
		</g>
		<g>
			<ellipse style="fill:#FFFFFF;" cx="50.694" cy="44.693" rx="1.593" ry="3.034"/>
			<path style="fill:#DBDCDC;" d="M52.281,44.614c0,0,0.188,2.882-1.326,3.113c0,0-0.863-0.191-1.019-0.775
				C49.937,46.952,51.386,46.912,52.281,44.614z"/>
		</g>
	</g>
	<g>
		<g>
			<ellipse style="fill:#FFFFFF;" cx="13.737" cy="47.788" rx="1.542" ry="2.938"/>
			<path style="fill:#DBDCDC;" d="M15.273,47.711c0,0,0.184,2.79-1.284,3.015c0,0-0.836-0.186-0.987-0.75
				C13.002,49.976,14.406,49.936,15.273,47.711z"/>
		</g>
		<g>
			<ellipse style="fill:#FFFFFF;" cx="10.371" cy="48.773" rx="1.542" ry="2.94"/>
			<path style="fill:#DBDCDC;" d="M11.906,48.699c0,0,0.184,2.787-1.283,3.015c0,0-0.836-0.186-0.987-0.751
				C9.636,50.963,11.04,50.921,11.906,48.699z"/>
		</g>
		<g>
			<ellipse style="fill:#FFFFFF;" cx="8.094" cy="44.734" rx="1.542" ry="2.939"/>
			<path style="fill:#DBDCDC;" d="M9.629,44.658c0,0,0.184,2.79-1.283,3.016c0,0-0.836-0.187-0.987-0.752
				C7.359,46.922,8.763,46.883,9.629,44.658z"/>
		</g>
		<g>
			<ellipse style="fill:#FFFFFF;" cx="12.648" cy="44.812" rx="1.543" ry="2.938"/>
			<path style="fill:#DBDCDC;" d="M14.184,44.735c0,0,0.183,2.79-1.284,3.015c0,0-0.836-0.186-0.987-0.751
				C11.913,46.999,13.316,46.96,14.184,44.735z"/>
		</g>
	</g>
	<g>
		<g>
			<ellipse style="fill:#FFFFFF;" cx="48.829" cy="43.234" rx="1.593" ry="3.035"/>
			<path style="fill:#DBDCDC;" d="M50.415,43.156c0,0,0.189,2.881-1.325,3.113c0,0-0.864-0.191-1.02-0.775
				C48.07,45.494,49.521,45.453,50.415,43.156z"/>
		</g>
		<g>
			<ellipse style="fill:#FFFFFF;" cx="52.735" cy="41.579" rx="1.593" ry="3.034"/>
			<path style="fill:#DBDCDC;" d="M54.32,41.5c0,0,0.19,2.881-1.325,3.113c0,0-0.863-0.191-1.019-0.775
				C51.977,43.838,53.425,43.797,54.32,41.5z"/>
		</g>
		<g>
			<ellipse style="fill:#FFFFFF;" cx="45.671" cy="45.2" rx="1.593" ry="3.036"/>
			<path style="fill:#DBDCDC;" d="M47.257,45.123c0,0,0.189,2.88-1.326,3.113c0,0-0.863-0.191-1.019-0.775
				C44.912,47.461,46.361,47.419,47.257,45.123z"/>
		</g>
		<g>
			<ellipse style="fill:#FFFFFF;" cx="43.608" cy="46.68" rx="1.593" ry="3.034"/>
			<path style="fill:#DBDCDC;" d="M45.195,46.601c0,0,0.188,2.882-1.326,3.113c0,0-0.863-0.191-1.019-0.775
				C42.851,48.938,44.3,48.898,45.195,46.601z"/>
		</g>
		<g>
			<ellipse style="fill:#FFFFFF;" cx="46.848" cy="39.465" rx="1.593" ry="3.035"/>
			<path style="fill:#DBDCDC;" d="M48.434,39.387c0,0,0.189,2.881-1.326,3.113c0,0-0.863-0.192-1.019-0.775
				C46.089,41.725,47.538,41.684,48.434,39.387z"/>
		</g>
	</g>
	<g>
		<g>
			<ellipse style="fill:#FFFFFF;" cx="49.837" cy="37.967" rx="1.593" ry="3.035"/>
			<path style="fill:#DBDCDC;" d="M51.423,37.888c0,0,0.189,2.882-1.325,3.114c0,0-0.864-0.192-1.02-0.776
				C49.078,40.226,50.528,40.186,51.423,37.888z"/>
		</g>
		<g>
			<ellipse style="fill:#FFFFFF;" cx="53.492" cy="34.933" rx="1.593" ry="3.034"/>
			<path style="fill:#DBDCDC;" d="M55.079,34.854c0,0,0.188,2.881-1.326,3.113c0,0-0.863-0.191-1.019-0.775
				C52.734,37.191,54.184,37.151,55.079,34.854z"/>
		</g>
		<g>
			<ellipse style="fill:#FFFFFF;" cx="47.118" cy="37.927" rx="1.593" ry="3.036"/>
			<path style="fill:#DBDCDC;" d="M48.704,37.85c0,0,0.189,2.879-1.326,3.113c0,0-0.863-0.191-1.019-0.775
				C46.359,40.188,47.809,40.145,48.704,37.85z"/>
		</g>
		<g>
			<ellipse style="fill:#FFFFFF;" cx="45.058" cy="37.929" rx="1.593" ry="3.034"/>
			<path style="fill:#DBDCDC;" d="M46.644,37.85c0,0,0.189,2.882-1.326,3.113c0,0-0.863-0.191-1.019-0.775
				C44.299,40.188,45.748,40.147,46.644,37.85z"/>
		</g>
		<g>
			<ellipse style="fill:#FFFFFF;" cx="48.712" cy="34.895" rx="1.593" ry="3.034"/>
			<path style="fill:#DBDCDC;" d="M50.298,34.815c0,0,0.189,2.881-1.325,3.113c0,0-0.864-0.191-1.02-0.775
				C47.953,37.153,49.403,37.112,50.298,34.815z"/>
		</g>
	</g>
	<g>
		<g>
			<ellipse style="fill:#FFFFFF;" cx="15.733" cy="39.538" rx="1.542" ry="2.938"/>
			<path style="fill:#DBDCDC;" d="M17.269,39.462c0,0,0.183,2.79-1.284,3.014c0,0-0.836-0.185-0.987-0.75
				C14.998,41.726,16.402,41.687,17.269,39.462z"/>
		</g>
		<g>
			<ellipse style="fill:#FFFFFF;" cx="12.367" cy="40.524" rx="1.542" ry="2.939"/>
			<path style="fill:#DBDCDC;" d="M13.902,40.449c0,0,0.184,2.789-1.284,3.015c0,0-0.836-0.186-0.987-0.751
				C11.631,42.713,13.036,42.672,13.902,40.449z"/>
		</g>
		<g>
			<ellipse style="fill:#FFFFFF;" cx="9.562" cy="37.017" rx="1.542" ry="2.939"/>
			<path style="fill:#DBDCDC;" d="M11.098,36.941c0,0,0.183,2.789-1.284,3.015c0,0-0.836-0.186-0.987-0.751
				C8.827,39.205,10.231,39.166,11.098,36.941z"/>
		</g>
		<g>
			<ellipse style="fill:#FFFFFF;" cx="14.644" cy="36.562" rx="1.542" ry="2.938"/>
			<path style="fill:#DBDCDC;" d="M16.179,36.486c0,0,0.184,2.789-1.284,3.014c0,0-0.836-0.185-0.986-0.75
				C13.909,38.75,15.313,38.711,16.179,36.486z"/>
		</g>
	</g>
	<g>
		<g>
			<ellipse style="fill:#FFFFFF;" cx="42.123" cy="29.332" rx="1.508" ry="2.873"/>
			<path style="fill:#DBDCDC;" d="M43.625,29.257c0,0,0.179,2.727-1.256,2.947c0,0-0.817-0.182-0.964-0.734
				C41.405,31.47,42.777,31.432,43.625,29.257z"/>
		</g>
		<g>
			<ellipse style="fill:#FFFFFF;" cx="46.18" cy="27.84" rx="1.508" ry="2.873"/>
			<path style="fill:#DBDCDC;" d="M47.682,27.765c0,0,0.18,2.728-1.255,2.947c0,0-0.817-0.181-0.965-0.734
				C45.462,29.979,46.835,29.94,47.682,27.765z"/>
		</g>
		<g>
			<ellipse style="fill:#FFFFFF;" cx="37.993" cy="31.806" rx="1.508" ry="2.875"/>
			<path style="fill:#DBDCDC;" d="M39.495,31.734c0,0,0.179,2.725-1.256,2.948c0,0-0.817-0.182-0.964-0.734
				C37.275,33.947,38.647,33.906,39.495,31.734z"/>
		</g>
		<g>
			<ellipse style="fill:#FFFFFF;" cx="33.026" cy="31.512" rx="1.508" ry="2.873"/>
			<path style="fill:#DBDCDC;" d="M34.528,31.437c0,0,0.179,2.727-1.255,2.948c0,0-0.818-0.182-0.965-0.734
				C32.308,33.65,33.681,33.611,34.528,31.437z"/>
		</g>
		<g>
			<ellipse style="fill:#FFFFFF;" cx="40.615" cy="23.226" rx="1.508" ry="2.873"/>
			<path style="fill:#DBDCDC;" d="M42.116,23.151c0,0,0.18,2.728-1.255,2.947c0,0-0.817-0.181-0.964-0.734
				C39.897,25.364,41.27,25.326,42.116,23.151z"/>
		</g>
	</g>
	<g>
		<g>
			<ellipse style="fill:#FFFFFF;" cx="21.627" cy="29.675" rx="1.685" ry="3.21"/>
			<path style="fill:#DBDCDC;" d="M23.305,29.592c0,0,0.201,3.048-1.403,3.293c0,0-0.914-0.202-1.078-0.819
				C20.824,32.065,22.358,32.022,23.305,29.592z"/>
		</g>
		<g>
			<ellipse style="fill:#FFFFFF;" cx="17.948" cy="30.752" rx="1.686" ry="3.213"/>
			<path style="fill:#DBDCDC;" d="M19.627,30.671c0,0,0.2,3.046-1.403,3.294c0,0-0.914-0.202-1.079-0.82
				C17.145,33.145,18.679,33.1,19.627,30.671z"/>
		</g>
		<g>
			<ellipse style="fill:#FFFFFF;" cx="14.883" cy="26.92" rx="1.685" ry="3.212"/>
			<path style="fill:#DBDCDC;" d="M16.562,26.837c0,0,0.2,3.049-1.403,3.295c0,0-0.914-0.203-1.079-0.821
				C14.08,29.311,15.615,29.268,16.562,26.837z"/>
		</g>
		<g>
			<ellipse style="fill:#FFFFFF;" cx="18.75" cy="24.776" rx="1.686" ry="3.211"/>
			<path style="fill:#DBDCDC;" d="M20.429,24.693c0,0,0.2,3.049-1.403,3.294c0,0-0.914-0.204-1.079-0.821
				C17.947,27.167,19.481,27.124,20.429,24.693z"/>
		</g>
	</g>
</g>
</svg>
