<?xml version="1.0" encoding="iso-8859-1"?>
<!-- Generator: Adobe Illustrator 15.0.2, SVG Export Plug-In . SVG Version: 6.00 Build 0)  -->
<!DOCTYPE svg PUBLIC "-//W3C//DTD SVG 1.1//EN" "http://www.w3.org/Graphics/SVG/1.1/DTD/svg11.dtd">
<svg version="1.1"
	 id="svg2" inkscape:version="0.48.2 r9819" sodipodi:docname="rice_ball.svg" xmlns:inkscape="http://www.inkscape.org/namespaces/inkscape" xmlns:dc="http://purl.org/dc/elements/1.1/" xmlns:sodipodi="http://sodipodi.sourceforge.net/DTD/sodipodi-0.dtd" xmlns:cc="http://creativecommons.org/ns#" xmlns:rdf="http://www.w3.org/1999/02/22-rdf-syntax-ns#" xmlns:svg="http://www.w3.org/2000/svg"
	 xmlns="http://www.w3.org/2000/svg" xmlns:xlink="http://www.w3.org/1999/xlink" x="0px" y="0px" width="744.094px"
	 height="1052.363px" viewBox="0 0 744.094 1052.363" style="enable-background:new 0 0 744.094 1052.363;" xml:space="preserve">
<sodipodi:namedview  id="base" inkscape:window-y="0" inkscape:window-x="0" inkscape:window-height="724" inkscape:window-width="1366" inkscape:guide-bbox="true" inkscape:current-layer="layer1" inkscape:document-units="px" inkscape:pageshadow="2" inkscape:pageopacity="0.0" inkscape:cx="122.01275" pagecolor="#ffffff" showgrid="false" inkscape:cy="926.76608" bordercolor="#666666" borderopacity="1.0" showguides="true" inkscape:zoom="0.73691406" inkscape:window-maximized="0">
	</sodipodi:namedview>
<g id="layer1" inkscape:groupmode="layer" inkscape:label="Layer 1">
	<path id="path3019-5-4" sodipodi:nodetypes="cccc" inkscape:connector-curvature="0" style="fill:#FFFFFF;stroke:#BEBEC8;" d="
		M114.467,12.875c-26.817,0-101.015,77.782-101.015,149.502c0,30.404,202.031,33.018,202.031,0
		C215.482,96.718,142.568,13.333,114.467,12.875z"/>
	
		<linearGradient id="path3019-7_1_" gradientUnits="userSpaceOnUse" x1="674.3013" y1="319.9707" x2="676.6685" y2="432.7606" gradientTransform="matrix(1 0 0 -1 -560.543 517.3711)">
		<stop  offset="0" style="stop-color:#C8C8D3;stop-opacity:0.5022"/>
		<stop  offset="1" style="stop-color:#000000;stop-opacity:0"/>
	</linearGradient>
	
		<path id="path3019-7" sodipodi:nodetypes="cccc" inkscape:connector-curvature="0" style="fill:url(#path3019-7_1_);stroke:#BEBEC8;stroke-width:5;" d="
		M114.487,13.66c-26.818,0-101.015,77.782-101.015,149.503c0,30.404,202.03,33.018,202.03,0
		C215.502,97.503,142.588,14.118,114.487,13.66z"/>
	
		<linearGradient id="path3993_1_" gradientUnits="userSpaceOnUse" x1="679.5005" y1="246.7881" x2="680.179" y2="299.7112" gradientTransform="matrix(1.3321 0 0 -1 -791.1714 418.7686)">
		<stop  offset="0" style="stop-color:#000000;stop-opacity:0.8978"/>
		<stop  offset="1" style="stop-color:#000000;stop-opacity:0.7556"/>
	</linearGradient>
	
		<path id="path3993" sodipodi:nodetypes="csccc" inkscape:connector-curvature="0" style="fill:url(#path3993_1_);stroke:#000000;stroke-width:1.1542;stroke-opacity:0;" d="
		M56.679,183.442c24.368,5.202,81.792,6.166,113.703,0.656c3.839-0.663-5.678-88.163-12.605-90.243
		c-15.308-4.427-80.345-3.327-87.758-1.002C63.362,95.851,55.414,170.718,56.679,183.442L56.679,183.442z"/>
</g>
</svg>
