<?xml version="1.0" encoding="utf-8"?>
<!-- Generator: Adobe Illustrator 15.0.2, SVG Export Plug-In . SVG Version: 6.00 Build 0)  -->
<!DOCTYPE svg PUBLIC "-//W3C//DTD SVG 1.1//EN" "http://www.w3.org/Graphics/SVG/1.1/DTD/svg11.dtd">
<svg version="1.1" id="_x30_5_10_" xmlns="http://www.w3.org/2000/svg" xmlns:xlink="http://www.w3.org/1999/xlink" x="0px" y="0px"
	 width="64px" height="64px" viewBox="0 0 64 64" enable-background="new 0 0 64 64" xml:space="preserve">
<g>
	<path fill="#A31C20" d="M17.857,29.713c0-8.686,7.041-15.727,15.727-15.727v-0.273H25.29c-3.297,1.713-5.993,4.409-7.706,7.706
		v8.294H17.857z"/>
	<path fill="#F06151" d="M25.29,13.713h-7.706v7.706C19.296,18.123,21.993,15.426,25.29,13.713z"/>
</g>
<g>
	<rect x="82.506" y="14.828" fill="#A31C20" width="1.875" height="16"/>
	<polyline fill="#A31C20" points="70.232,15.102 70.232,30.828 70.506,30.828 70.506,14.828 	"/>
	<rect x="70.506" y="14.828" fill="#A31C20" width="2.031" height="16"/>
	<rect x="72.537" y="14.828" fill="#F06151" width="9.969" height="16"/>
</g>
<g>
	<path fill="#A31C20" d="M9.027,16H6.776c-2.94,4.626-4.651,10.112-4.651,16H4C4,26.049,5.862,20.536,9.027,16z"/>
	<path fill="#A31C20" d="M16,23.706c-1.291,2.484-2.031,5.301-2.031,8.294H16V23.706z"/>
	<path fill="#F06151" d="M16,23.706V16H9.027C5.862,20.536,4,26.049,4,32h9.969C13.969,29.007,14.709,26.19,16,23.706z"/>
</g>
<path fill="#F06151" d="M16,40.294c-1.291-2.484-2.031-5.301-2.031-8.294H4c0,5.951,1.862,11.464,5.027,16H16V40.294z"/>
<g>
	<rect x="51.897" y="-1.451" fill="#A31C20" width="16" height="1.875"/>
	<polyline fill="#A31C20" points="67.897,12.424 51.897,12.424 51.897,12.698 67.624,12.698 	"/>
	<rect x="51.897" y="10.393" fill="#A31C20" width="16" height="2.031"/>
	<rect x="51.897" y="0.424" fill="#F06151" width="16" height="9.969"/>
</g>
<g>
	<path fill="#A31C20" d="M44.75,0.698v-1.875c-5.888,0-11.373,1.71-16,4.651v2.251C33.287,2.56,38.799,0.698,44.75,0.698z"/>
	<path fill="#A31C20" d="M44.75,10.667c-2.992,0-5.809,0.741-8.293,2.031h8.293V10.667z"/>
	<path fill="#F06151" d="M36.457,12.698c2.484-1.291,5.301-2.031,8.293-2.031V0.698c-5.951,0-11.463,1.862-16,5.027v6.973H36.457z"
		/>
</g>
<g>
	<polygon fill="#A31C20" points="82.506,1.713 82.506,13.713 84.381,13.713 84.381,-0.162 70.506,-0.162 70.506,1.713 	"/>
	<rect x="70.506" y="11.682" fill="#A31C20" width="2.031" height="2.031"/>
	<polygon fill="#F06151" points="72.537,11.682 72.537,13.713 82.506,13.713 82.506,1.713 70.506,1.713 70.506,11.682 	"/>
</g>
<g>
	<path fill="#A31C20" d="M16.769,8.305V6.054c-3.711,2.359-6.865,5.513-9.224,9.224h2.251C11.69,12.563,14.053,10.2,16.769,8.305z"
		/>
	<path fill="#F06151" d="M16.769,8.305c-2.716,1.895-5.078,4.257-6.973,6.973h6.973V8.305z"/>
</g>
<path fill="#F06151" d="M9.027,48c1.895,2.716,4.257,5.078,6.973,6.973V48H9.027z"/>
<g>
	<path fill="#A31C20" d="M62.604,30.067c0,8.685-7.041,15.727-15.727,15.727v0.273h8.294c3.297-1.713,5.993-4.409,7.706-7.706
		v-8.294H62.604z"/>
	<path fill="#F06151" d="M55.171,46.067h7.706v-7.706C61.164,41.658,58.468,44.354,55.171,46.067z"/>
	<path fill="#E53528" d="M62.877,38.361c-1.713,3.297-4.409,5.993-7.706,7.706h7.706V38.361z"/>
</g>
<g>
	<path fill="#A31C20" d="M32,48.021c-8.686,0-15.727-7.042-15.727-15.727H16v8.294c1.713,3.297,4.409,5.993,7.707,7.706H32V48.021z"
		/>
	<path fill="#F06151" d="M16,40.588v7.706h7.707C20.409,46.581,17.713,43.885,16,40.588z"/>
	<path fill="#E53528" d="M16,40.588v7.706h7.707C20.409,46.581,17.713,43.885,16,40.588z"/>
</g>
<g>
	<path fill="#A31C20" d="M77.479,47.706h2.25c2.941-4.626,4.651-10.111,4.651-16h-1.875C82.506,37.657,80.645,43.17,77.479,47.706z"
		/>
	<path fill="#A31C20" d="M70.506,40c1.291-2.484,2.031-5.301,2.031-8.294h-2.031V40z"/>
	<path fill="#E53528" d="M70.506,47.706h6.974c3.165-4.536,5.026-10.049,5.026-16h-9.969c0,2.993-0.74,5.81-2.031,8.294V47.706z"/>
</g>
<g>
	<path fill="#A31C20" d="M4,32H2.125c0,5.889,1.71,11.374,4.651,16h2.251C5.862,43.464,4,37.951,4,32z"/>
	<path fill="#A31C20" d="M13.969,32c0,2.993,0.741,5.81,2.031,8.294V32H13.969z"/>
	<path fill="#E53528" d="M16,40.294c-1.291-2.484-2.031-5.301-2.031-8.294H4c0,5.951,1.862,11.464,5.027,16H16V40.294z"/>
</g>
<g>
	<path fill="#A31C20" d="M42.563,59.098v1.875c5.889,0,11.374-1.71,16-4.651v-2.25C54.027,57.236,48.515,59.098,42.563,59.098z"/>
	<path fill="#A31C20" d="M42.563,49.129c2.993,0,5.81-0.74,8.294-2.031h-8.294V49.129z"/>
	<path fill="#E53528" d="M50.857,47.098c-2.484,1.291-5.301,2.031-8.294,2.031v9.969c5.951,0,11.464-1.861,16-5.026v-6.974H50.857z"
		/>
</g>
<g>
	<path fill="#A31C20" d="M16.769,55.008v2.251c4.626,2.941,10.112,4.651,16,4.651v-1.875C26.817,60.035,21.305,58.174,16.769,55.008
		z"/>
	<path fill="#A31C20" d="M24.475,48.035c2.484,1.291,5.3,2.031,8.293,2.031v-2.031H24.475z"/>
	<path fill="#E53528" d="M24.475,48.035h-7.707v6.973c4.536,3.166,10.049,5.027,16,5.027v-9.969
		C29.775,50.066,26.959,49.326,24.475,48.035z"/>
</g>
<g>
	<path fill="#A31C20" d="M70.369,55.447v2.25c3.712-2.358,6.865-5.512,9.224-9.224h-2.25C75.447,51.189,73.085,53.552,70.369,55.447
		z"/>
	<path fill="#F06151" d="M70.369,55.447c2.716-1.896,5.078-4.258,6.974-6.974h-6.974V55.447z"/>
	<path fill="#E53528" d="M70.369,55.447c2.716-1.896,5.078-4.258,6.974-6.974h-6.974V55.447z"/>
</g>
<g>
	<path fill="#A31C20" d="M9.027,48H6.776c2.359,3.712,5.513,6.865,9.224,9.224v-2.251C13.284,53.078,10.922,50.716,9.027,48z"/>
	<path fill="#E53528" d="M9.027,48c1.895,2.716,4.257,5.078,6.973,6.973V48H9.027z"/>
</g>
</svg>
