<?xml version="1.0" encoding="utf-8"?>
<!-- Generator: Adobe Illustrator 15.0.2, SVG Export Plug-In . SVG Version: 6.00 Build 0)  -->
<!DOCTYPE svg PUBLIC "-//W3C//DTD SVG 1.1//EN" "http://www.w3.org/Graphics/SVG/1.1/DTD/svg11.dtd">
<svg version="1.1" id="_x30_0" xmlns="http://www.w3.org/2000/svg" xmlns:xlink="http://www.w3.org/1999/xlink" x="0px" y="0px"
	 width="64px" height="64px" viewBox="0 0 64 64" enable-background="new 0 0 64 64" xml:space="preserve">
<g>
	<linearGradient id="SVGID_1_" gradientUnits="userSpaceOnUse" x1="30.7354" y1="6.8486" x2="36.7077" y2="38.9153">
		<stop  offset="0" style="stop-color:#FFFFFF"/>
		<stop  offset="0.418" style="stop-color:#FCFFFF"/>
		<stop  offset="0.6985" style="stop-color:#F3FFFF"/>
		<stop  offset="0.9381" style="stop-color:#E4FEFF"/>
		<stop  offset="1" style="stop-color:#DFFEFF"/>
	</linearGradient>
	<path fill="url(#SVGID_1_)" d="M49.22,12.501c-0.303,0-0.596,0.028-0.885,0.068c-1.586-1.519-3.73-2.458-6.099-2.458
		c-1.043,0-2.038,0.191-2.965,0.522c0.01-0.173,0.024-0.346,0.024-0.522c0-4.871-3.947-8.82-8.819-8.82
		c-4.872,0-8.821,3.949-8.821,8.82c0,0.1,0.012,0.196,0.016,0.293c-1.198,0.6-2.238,1.46-3.046,2.512
		c-0.445-0.092-0.907-0.14-1.379-0.14c-3.755,0-6.799,3.044-6.799,6.798c0,3.755,3.044,6.8,6.799,6.8c1.202,0,2.33-0.316,3.31-0.863
		c1.37,0.961,3.022,1.537,4.81,1.585c1.612,1.754,3.919,2.862,6.488,2.862c2.659,0,5.037-1.182,6.652-3.042
		c1.137,0.532,2.396,0.837,3.73,0.837c2.368,0,4.513-0.939,6.097-2.458c0.291,0.041,0.584,0.069,0.887,0.069
		c3.552,0,6.432-2.88,6.432-6.432S52.771,12.501,49.22,12.501z"/>
	<path fill="none" stroke="#43B7FF" stroke-width="1.2198" stroke-miterlimit="10" d="M49.22,12.501
		c-0.303,0-0.596,0.028-0.885,0.068c-1.586-1.519-3.73-2.458-6.099-2.458c-1.043,0-2.038,0.191-2.965,0.522
		c0.01-0.173,0.024-0.346,0.024-0.522c0-4.871-3.947-8.82-8.819-8.82c-4.872,0-8.821,3.949-8.821,8.82
		c0,0.1,0.012,0.196,0.016,0.293c-1.198,0.6-2.238,1.46-3.046,2.512c-0.445-0.092-0.907-0.14-1.379-0.14
		c-3.755,0-6.799,3.044-6.799,6.798c0,3.755,3.044,6.8,6.799,6.8c1.202,0,2.33-0.316,3.31-0.863c1.37,0.961,3.022,1.537,4.81,1.585
		c1.612,1.754,3.919,2.862,6.488,2.862c2.659,0,5.037-1.182,6.652-3.042c1.137,0.532,2.396,0.837,3.73,0.837
		c2.368,0,4.513-0.939,6.097-2.458c0.291,0.041,0.584,0.069,0.887,0.069c3.552,0,6.432-2.88,6.432-6.432S52.771,12.501,49.22,12.501
		z"/>
</g>
</svg>
