<?xml version="1.0" encoding="utf-8"?>
<!-- Generator: Adobe Illustrator 15.0.2, SVG Export Plug-In . SVG Version: 6.00 Build 0)  -->
<!DOCTYPE svg PUBLIC "-//W3C//DTD SVG 1.1//EN" "http://www.w3.org/Graphics/SVG/1.1/DTD/svg11.dtd">
<svg version="1.1" id="_x30_3_16_" xmlns="http://www.w3.org/2000/svg" xmlns:xlink="http://www.w3.org/1999/xlink" x="0px" y="0px"
	 width="64px" height="64px" viewBox="0 0 64 64" enable-background="new 0 0 64 64" xml:space="preserve">
<g>
	<path fill="#43B7FF" d="M14.628,19.756c0.03-0.643,0.292-1.169,0.839-1.144c0.588,0.027,0.738,0.633,0.711,1.2
		c-0.035,0.745-0.343,1.17-0.83,1.147C14.766,20.933,14.601,20.33,14.628,19.756z M15.649,19.798c0.023-0.49-0.04-0.758-0.205-0.766
		c-0.156-0.008-0.264,0.223-0.288,0.742c-0.024,0.52,0.052,0.758,0.218,0.766C15.5,20.546,15.62,20.419,15.649,19.798z"/>
	<path fill="#43B7FF" d="M15.04,24.417l0.084-1.813h-0.006l-0.402,0.183l-0.1-0.387l0.599-0.262l0.448,0.021l-0.106,2.282
		L15.04,24.417z"/>
	<path fill="#43B7FF" d="M14.302,26.749c0.03-0.643,0.292-1.169,0.839-1.144c0.588,0.027,0.738,0.633,0.711,1.2
		c-0.035,0.745-0.343,1.171-0.83,1.147C14.44,27.926,14.275,27.323,14.302,26.749z M15.323,26.791
		c0.023-0.49-0.04-0.758-0.205-0.766c-0.156-0.007-0.264,0.223-0.288,0.742c-0.024,0.52,0.052,0.758,0.218,0.766
		C15.174,27.539,15.294,27.412,15.323,26.791z"/>
	<path fill="#43B7FF" d="M14.714,31.409l0.084-1.813h-0.006l-0.402,0.183l-0.1-0.387l0.599-0.261l0.448,0.021l-0.106,2.282
		L14.714,31.409z"/>
	<path fill="#43B7FF" d="M14.552,34.905l0.084-1.813H14.63l-0.403,0.183l-0.099-0.387l0.599-0.261l0.448,0.021l-0.106,2.283
		L14.552,34.905z"/>
	<path fill="#43B7FF" d="M13.813,37.238c0.03-0.644,0.292-1.17,0.839-1.145c0.588,0.027,0.738,0.634,0.711,1.201
		c-0.035,0.744-0.343,1.17-0.83,1.146C13.952,38.415,13.787,37.812,13.813,37.238z M14.835,37.279
		c0.023-0.489-0.04-0.757-0.205-0.765c-0.156-0.008-0.264,0.223-0.288,0.742c-0.024,0.52,0.052,0.757,0.218,0.765
		C14.686,38.027,14.806,37.9,14.835,37.279z"/>
	<path fill="#43B7FF" d="M14.226,41.898l0.084-1.813h-0.006l-0.402,0.182l-0.1-0.387l0.599-0.261l0.448,0.021l-0.106,2.282
		L14.226,41.898z"/>
</g>
<g>
	<path fill="none" stroke="#43B7FF" stroke-width="0.495" stroke-miterlimit="10" d="M9.546,54.603c0,0-2.033,0.232-2.366,1.603
		c-0.334,1.371,1.985,1.559,2.222,0.572s-1.278-2.27-2.621-1.404s-3.017,3.877-1.08,4.357c1.935,0.479,1.688-2.16,0.684-2.123
		c-1.003,0.037-1.992,0.422-2.358,2.846"/>
	<path fill="#FFFFFF" stroke="#43B7FF" stroke-width="0.6187" stroke-miterlimit="10" d="M13.613,52.452l-1.59-0.808
		c0,0-0.361-0.075-0.709,0.042c-0.176-1.192,0.329-2.414,1.12-3.641c0.8-1.243,1.719-2.217,2.9-2.536
		c0.04,0.354,0.263,0.631,0.263,0.631l1.313,1.259c0,0,0.405,0.061,0.768-0.506l1.637-2.538c0.364-0.565,0.012-0.705,0.012-0.705
		l-1.59-0.808c0,0-0.134-0.025-0.315-0.023c-2.343-0.713-4.229-0.406-7.018,3.918c-2.944,4.567-2.279,6.236-0.598,8.095
		c0.043,0.069,0.076,0.11,0.076,0.11l1.314,1.259c0,0,0.405,0.061,0.769-0.506l1.637-2.539
		C13.965,52.59,13.613,52.452,13.613,52.452z"/>
</g>
<g>
	<path fill="#43B7FF" d="M20.197,20.981l0.237-1.8l-0.006-0.001l-0.416,0.148l-0.066-0.394l0.619-0.21l0.444,0.059l-0.299,2.265
		L20.197,20.981z"/>
	<path fill="#43B7FF" d="M19.739,24.452l0.238-1.8l-0.006-0.001l-0.417,0.147l-0.066-0.394l0.619-0.21l0.444,0.059l-0.299,2.266
		L19.739,24.452z"/>
	<path fill="#43B7FF" d="M18.807,26.713c0.084-0.639,0.39-1.14,0.932-1.068c0.584,0.077,0.682,0.693,0.608,1.256
		c-0.098,0.739-0.441,1.138-0.924,1.073C18.844,27.897,18.731,27.282,18.807,26.713z M19.821,26.841
		c0.064-0.486,0.024-0.758-0.14-0.779c-0.155-0.021-0.281,0.199-0.35,0.715c-0.068,0.516-0.012,0.76,0.152,0.781
		C19.608,27.573,19.739,27.457,19.821,26.841z"/>
	<path fill="#43B7FF" d="M18.349,30.183c0.084-0.638,0.39-1.14,0.932-1.068c0.584,0.077,0.682,0.693,0.608,1.257
		c-0.098,0.739-0.441,1.137-0.925,1.072C18.386,31.367,18.273,30.752,18.349,30.183z M19.362,30.311
		c0.064-0.486,0.024-0.758-0.139-0.779c-0.155-0.021-0.281,0.199-0.35,0.715c-0.068,0.516-0.012,0.759,0.152,0.781
		C19.15,31.044,19.281,30.928,19.362,30.311z"/>
	<path fill="#43B7FF" d="M18.365,34.861l0.237-1.8l-0.006-0.001l-0.417,0.147l-0.066-0.394l0.619-0.209l0.444,0.059l-0.299,2.265
		L18.365,34.861z"/>
	<path fill="#43B7FF" d="M17.907,38.331l0.237-1.8l-0.006-0.001l-0.417,0.148l-0.066-0.395l0.619-0.209l0.444,0.059l-0.299,2.265
		L17.907,38.331z"/>
	<path fill="#43B7FF" d="M16.974,40.592c0.084-0.638,0.39-1.14,0.933-1.067c0.584,0.076,0.682,0.693,0.607,1.256
		c-0.098,0.739-0.441,1.137-0.924,1.073C17.012,41.777,16.899,41.161,16.974,40.592z M17.988,40.721
		c0.064-0.486,0.024-0.759-0.14-0.78c-0.155-0.021-0.281,0.2-0.349,0.716c-0.068,0.515-0.013,0.759,0.151,0.78
		C17.776,41.453,17.907,41.337,17.988,40.721z"/>
</g>
<g>
	<linearGradient id="SVGID_1_" gradientUnits="userSpaceOnUse" x1="30.7354" y1="6.8486" x2="36.7077" y2="38.9153">
		<stop  offset="0" style="stop-color:#FFFFFF"/>
		<stop  offset="0.418" style="stop-color:#FCFFFF"/>
		<stop  offset="0.6985" style="stop-color:#F3FFFF"/>
		<stop  offset="0.9381" style="stop-color:#E4FEFF"/>
		<stop  offset="1" style="stop-color:#DFFEFF"/>
	</linearGradient>
	<path fill="url(#SVGID_1_)" d="M49.22,12.501c-0.303,0-0.596,0.028-0.885,0.068c-1.586-1.519-3.73-2.458-6.099-2.458
		c-1.043,0-2.038,0.191-2.965,0.522c0.01-0.173,0.024-0.346,0.024-0.522c0-4.871-3.947-8.82-8.819-8.82
		c-4.872,0-8.821,3.949-8.821,8.82c0,0.1,0.012,0.196,0.016,0.293c-1.198,0.6-2.238,1.46-3.046,2.512
		c-0.445-0.092-0.907-0.14-1.379-0.14c-3.755,0-6.799,3.044-6.799,6.798c0,3.755,3.044,6.8,6.799,6.8c1.202,0,2.33-0.316,3.31-0.863
		c1.37,0.961,3.022,1.537,4.81,1.585c1.612,1.754,3.919,2.862,6.488,2.862c2.659,0,5.037-1.182,6.652-3.042
		c1.137,0.532,2.396,0.837,3.73,0.837c2.368,0,4.513-0.939,6.097-2.458c0.291,0.041,0.584,0.069,0.887,0.069
		c3.552,0,6.432-2.88,6.432-6.432S52.771,12.501,49.22,12.501z"/>
	<path fill="none" stroke="#43B7FF" stroke-width="1.2198" stroke-miterlimit="10" d="M49.22,12.501
		c-0.303,0-0.596,0.028-0.885,0.068c-1.586-1.519-3.73-2.458-6.099-2.458c-1.043,0-2.038,0.191-2.965,0.522
		c0.01-0.173,0.024-0.346,0.024-0.522c0-4.871-3.947-8.82-8.819-8.82c-4.872,0-8.821,3.949-8.821,8.82
		c0,0.1,0.012,0.196,0.016,0.293c-1.198,0.6-2.238,1.46-3.046,2.512c-0.445-0.092-0.907-0.14-1.379-0.14
		c-3.755,0-6.799,3.044-6.799,6.798c0,3.755,3.044,6.8,6.799,6.8c1.202,0,2.33-0.316,3.31-0.863c1.37,0.961,3.022,1.537,4.81,1.585
		c1.612,1.754,3.919,2.862,6.488,2.862c2.659,0,5.037-1.182,6.652-3.042c1.137,0.532,2.396,0.837,3.73,0.837
		c2.368,0,4.513-0.939,6.097-2.458c0.291,0.041,0.584,0.069,0.887,0.069c3.552,0,6.432-2.88,6.432-6.432S52.771,12.501,49.22,12.501
		z"/>
</g>
</svg>
