<?xml version="1.0" encoding="utf-8"?>
<!-- Generator: Adobe Illustrator 15.0.2, SVG Export Plug-In . SVG Version: 6.00 Build 0)  -->
<!DOCTYPE svg PUBLIC "-//W3C//DTD SVG 1.1//EN" "http://www.w3.org/Graphics/SVG/1.1/DTD/svg11.dtd">
<svg version="1.1" id="_x30_4_15_" xmlns="http://www.w3.org/2000/svg" xmlns:xlink="http://www.w3.org/1999/xlink" x="0px" y="0px"
	 width="64px" height="64px" viewBox="0 0 64 64" enable-background="new 0 0 64 64" xml:space="preserve">
<g>
	<path fill="#43B7FF" d="M14.063,23.531c0.023-0.643,0.28-1.172,0.827-1.151c0.588,0.021,0.744,0.626,0.724,1.193
		c-0.027,0.745-0.331,1.173-0.818,1.155C14.212,24.707,14.041,24.105,14.063,23.531z M15.084,23.563
		c0.018-0.49-0.048-0.757-0.213-0.763c-0.156-0.006-0.261,0.226-0.279,0.745c-0.02,0.52,0.059,0.757,0.225,0.763
		C14.942,24.313,15.062,24.185,15.084,23.563z"/>
	<path fill="#43B7FF" d="M14.521,28.188l0.066-1.814h-0.007l-0.4,0.187l-0.104-0.386l0.597-0.267l0.448,0.017l-0.083,2.282
		L14.521,28.188z"/>
	<path fill="#43B7FF" d="M13.808,30.526c0.023-0.643,0.28-1.171,0.827-1.151c0.589,0.021,0.744,0.626,0.724,1.193
		c-0.027,0.745-0.331,1.173-0.818,1.155C13.957,31.703,13.787,31.101,13.808,30.526z M14.829,30.558
		c0.019-0.489-0.048-0.757-0.213-0.763c-0.156-0.006-0.261,0.226-0.279,0.745c-0.02,0.521,0.06,0.757,0.225,0.764
		C14.688,31.308,14.807,31.18,14.829,30.558z"/>
	<path fill="#43B7FF" d="M14.267,35.183l0.066-1.814h-0.007l-0.4,0.187l-0.103-0.386l0.596-0.267l0.448,0.017l-0.083,2.283
		L14.267,35.183z"/>
	<path fill="#43B7FF" d="M14.14,38.681l0.066-1.814h-0.007l-0.4,0.187l-0.104-0.386l0.597-0.268l0.448,0.017l-0.084,2.283
		L14.14,38.681z"/>
	<path fill="#43B7FF" d="M13.426,41.02c0.023-0.643,0.28-1.171,0.827-1.151c0.588,0.021,0.744,0.626,0.724,1.193
		c-0.027,0.745-0.331,1.173-0.818,1.155C13.575,42.195,13.404,41.594,13.426,41.02z M14.447,41.051
		c0.018-0.489-0.048-0.757-0.213-0.763c-0.156-0.006-0.261,0.226-0.279,0.745c-0.02,0.52,0.059,0.757,0.225,0.763
		C14.306,41.801,14.425,41.673,14.447,41.051z"/>
</g>
<g>
	<g>
		
			<rect x="24.271" y="22.012" fill="none" stroke="#43B7FF" stroke-width="0.9601" stroke-miterlimit="10" width="13.741" height="9.778"/>
		<rect x="24.271" y="22.012" fill="#FFFFFF" width="13.741" height="9.778"/>
	</g>
	<g>
		
			<rect x="25.613" y="23.163" fill="none" stroke="#43B7FF" stroke-width="1.0571" stroke-miterlimit="10" width="11.058" height="7.479"/>
		<rect x="25.613" y="23.163" fill="#FFFFFF" width="11.058" height="7.479"/>
	</g>
	<g>
		<g>
			<polygon fill="none" stroke="#43B7FF" stroke-width="0.9455" stroke-miterlimit="10" points="35.448,36.395 23.024,36.395 
				24.405,33.646 36.83,33.646 			"/>
			<polygon fill="#FFFFFF" points="35.448,36.395 23.024,36.395 24.405,33.646 36.83,33.646 			"/>
		</g>
		
			<line fill="none" stroke="#43B7FF" stroke-width="0.3931" stroke-miterlimit="10" x1="23.486" y1="34.541" x2="36.535" y2="34.541"/>
		
			<line fill="none" stroke="#43B7FF" stroke-width="0.3904" stroke-miterlimit="10" x1="23.024" y1="35.475" x2="36.126" y2="35.475"/>
		<g>
			
				<line fill="none" stroke="#43B7FF" stroke-width="0.4176" stroke-miterlimit="10" x1="24.271" y1="36.65" x2="25.613" y2="33.391"/>
			
				<line fill="none" stroke="#43B7FF" stroke-width="0.4176" stroke-miterlimit="10" x1="26.279" y1="36.65" x2="27.62" y2="33.391"/>
			
				<line fill="none" stroke="#43B7FF" stroke-width="0.4176" stroke-miterlimit="10" x1="28.285" y1="36.65" x2="29.627" y2="33.391"/>
			
				<line fill="none" stroke="#43B7FF" stroke-width="0.4176" stroke-miterlimit="10" x1="30.292" y1="36.65" x2="31.634" y2="33.391"/>
			
				<line fill="none" stroke="#43B7FF" stroke-width="0.4176" stroke-miterlimit="10" x1="32.299" y1="36.65" x2="33.64" y2="33.391"/>
			
				<line fill="none" stroke="#43B7FF" stroke-width="0.4176" stroke-miterlimit="10" x1="34.306" y1="36.65" x2="35.647" y2="33.391"/>
		</g>
	</g>
	<g>
		<g>
			<path fill="none" stroke="#43B7FF" stroke-width="0.767" stroke-miterlimit="10" d="M38.939,36.395
				c-1.471,0-0.972-2.172,0.568-2.748S41.048,36.395,38.939,36.395z"/>
			<path fill="#FFFFFF" d="M38.939,36.395c-1.471,0-0.972-2.172,0.568-2.748S41.048,36.395,38.939,36.395z"/>
		</g>
		
			<line fill="#FFFFFF" stroke="#43B7FF" stroke-width="0.2439" stroke-miterlimit="10" x1="39.313" y1="34.127" x2="39.816" y2="33.529"/>
		<path fill="#FFFFFF" stroke="#43B7FF" stroke-width="0.2439" stroke-miterlimit="10" d="M38.061,34.541c0,0,0.813-0.895,2.54,0"/>
	</g>
</g>
<g>
	<path fill="none" stroke="#43B7FF" stroke-width="0.495" stroke-miterlimit="10" d="M9.546,54.603c0,0-2.033,0.232-2.366,1.603
		c-0.334,1.371,1.985,1.559,2.222,0.572s-1.278-2.27-2.621-1.404s-3.017,3.877-1.08,4.357c1.935,0.479,1.688-2.16,0.684-2.123
		c-1.003,0.037-1.992,0.422-2.358,2.846"/>
	<path fill="#FFFFFF" stroke="#43B7FF" stroke-width="0.6187" stroke-miterlimit="10" d="M13.613,52.452l-1.59-0.808
		c0,0-0.361-0.075-0.709,0.042c-0.176-1.192,0.329-2.414,1.12-3.641c0.8-1.243,1.719-2.217,2.9-2.536
		c0.04,0.354,0.263,0.631,0.263,0.631l1.313,1.259c0,0,0.405,0.061,0.768-0.506l1.637-2.538c0.364-0.565,0.012-0.705,0.012-0.705
		l-1.59-0.808c0,0-0.134-0.025-0.315-0.023c-2.343-0.713-4.229-0.406-7.018,3.918c-2.944,4.567-2.279,6.236-0.598,8.095
		c0.043,0.069,0.076,0.11,0.076,0.11l1.314,1.259c0,0,0.405,0.061,0.769-0.506l1.637-2.539
		C13.965,52.59,13.613,52.452,13.613,52.452z"/>
</g>
<g>
	<path fill="#43B7FF" d="M20.947,21.397l0.237-1.8l-0.006-0.001l-0.416,0.148l-0.066-0.394l0.619-0.21l0.444,0.059l-0.299,2.265
		L20.947,21.397z"/>
	<path fill="#43B7FF" d="M20.489,24.868l0.238-1.8l-0.006-0.001l-0.417,0.147l-0.066-0.394l0.619-0.21l0.444,0.059l-0.299,2.266
		L20.489,24.868z"/>
	<path fill="#43B7FF" d="M20.031,28.338l0.238-1.8l-0.006-0.001l-0.417,0.147l-0.066-0.394l0.619-0.21l0.444,0.059l-0.299,2.266
		L20.031,28.338z"/>
	<path fill="#43B7FF" d="M19.573,31.808l0.238-1.8l-0.006-0.001l-0.417,0.148l-0.066-0.395l0.619-0.209l0.444,0.059l-0.299,2.265
		L19.573,31.808z"/>
	<path fill="#43B7FF" d="M18.64,34.068c0.084-0.638,0.39-1.14,0.933-1.067c0.584,0.076,0.682,0.692,0.607,1.256
		c-0.097,0.739-0.441,1.137-0.924,1.072C18.678,35.253,18.565,34.638,18.64,34.068z M19.654,34.196
		c0.064-0.485,0.024-0.758-0.139-0.779c-0.155-0.021-0.281,0.199-0.35,0.715c-0.068,0.516-0.012,0.76,0.152,0.781
		C19.442,34.93,19.573,34.813,19.654,34.196z"/>
	<path fill="#43B7FF" d="M18.182,37.538c0.084-0.638,0.39-1.14,0.933-1.068c0.584,0.078,0.682,0.693,0.607,1.257
		c-0.098,0.739-0.441,1.137-0.924,1.073C18.22,38.724,18.107,38.107,18.182,37.538z M19.196,37.666
		c0.064-0.485,0.024-0.758-0.14-0.779c-0.155-0.021-0.281,0.199-0.349,0.715c-0.068,0.516-0.012,0.76,0.152,0.781
		C18.984,38.399,19.115,38.283,19.196,37.666z"/>
	<path fill="#43B7FF" d="M18.199,42.217l0.237-1.8l-0.006-0.001l-0.417,0.148l-0.066-0.394l0.619-0.21l0.444,0.059l-0.299,2.265
		L18.199,42.217z"/>
</g>
<g>
	<linearGradient id="SVGID_1_" gradientUnits="userSpaceOnUse" x1="30.7354" y1="6.8486" x2="36.7077" y2="38.9153">
		<stop  offset="0" style="stop-color:#FFFFFF"/>
		<stop  offset="0.418" style="stop-color:#FCFFFF"/>
		<stop  offset="0.6985" style="stop-color:#F3FFFF"/>
		<stop  offset="0.9381" style="stop-color:#E4FEFF"/>
		<stop  offset="1" style="stop-color:#DFFEFF"/>
	</linearGradient>
	<path fill="url(#SVGID_1_)" d="M49.22,12.501c-0.303,0-0.596,0.028-0.885,0.068c-1.586-1.519-3.73-2.458-6.099-2.458
		c-1.043,0-2.038,0.191-2.965,0.522c0.01-0.173,0.024-0.346,0.024-0.522c0-4.871-3.947-8.82-8.819-8.82
		c-4.872,0-8.821,3.949-8.821,8.82c0,0.1,0.012,0.196,0.016,0.293c-1.198,0.6-2.238,1.46-3.046,2.512
		c-0.445-0.092-0.907-0.14-1.379-0.14c-3.755,0-6.799,3.044-6.799,6.798c0,3.755,3.044,6.8,6.799,6.8c1.202,0,2.33-0.316,3.31-0.863
		c1.37,0.961,3.022,1.537,4.81,1.585c1.612,1.754,3.919,2.862,6.488,2.862c2.659,0,5.037-1.182,6.652-3.042
		c1.137,0.532,2.396,0.837,3.73,0.837c2.368,0,4.513-0.939,6.097-2.458c0.291,0.041,0.584,0.069,0.887,0.069
		c3.552,0,6.432-2.88,6.432-6.432S52.771,12.501,49.22,12.501z"/>
	<path fill="none" stroke="#43B7FF" stroke-width="1.2198" stroke-miterlimit="10" d="M49.22,12.501
		c-0.303,0-0.596,0.028-0.885,0.068c-1.586-1.519-3.73-2.458-6.099-2.458c-1.043,0-2.038,0.191-2.965,0.522
		c0.01-0.173,0.024-0.346,0.024-0.522c0-4.871-3.947-8.82-8.819-8.82c-4.872,0-8.821,3.949-8.821,8.82
		c0,0.1,0.012,0.196,0.016,0.293c-1.198,0.6-2.238,1.46-3.046,2.512c-0.445-0.092-0.907-0.14-1.379-0.14
		c-3.755,0-6.799,3.044-6.799,6.798c0,3.755,3.044,6.8,6.799,6.8c1.202,0,2.33-0.316,3.31-0.863c1.37,0.961,3.022,1.537,4.81,1.585
		c1.612,1.754,3.919,2.862,6.488,2.862c2.659,0,5.037-1.182,6.652-3.042c1.137,0.532,2.396,0.837,3.73,0.837
		c2.368,0,4.513-0.939,6.097-2.458c0.291,0.041,0.584,0.069,0.887,0.069c3.552,0,6.432-2.88,6.432-6.432S52.771,12.501,49.22,12.501
		z"/>
</g>
</svg>
