<?xml version="1.0" encoding="utf-8"?>
<!-- Generator: Adobe Illustrator 15.0.2, SVG Export Plug-In . SVG Version: 6.00 Build 0)  -->
<!DOCTYPE svg PUBLIC "-//W3C//DTD SVG 1.1//EN" "http://www.w3.org/Graphics/SVG/1.1/DTD/svg11.dtd">
<svg version="1.1" id="_x30_6_13_" xmlns="http://www.w3.org/2000/svg" xmlns:xlink="http://www.w3.org/1999/xlink" x="0px" y="0px"
	 width="64px" height="64px" viewBox="0 0 64 64" enable-background="new 0 0 64 64" xml:space="preserve">
<g>
	<g>
		
			<rect x="24.459" y="44.507" fill="none" stroke="#43B7FF" stroke-width="0.9601" stroke-miterlimit="10" width="13.741" height="9.778"/>
		<rect x="24.459" y="44.507" fill="#FFFFFF" width="13.741" height="9.778"/>
	</g>
	<g>
		
			<rect x="25.801" y="45.657" fill="none" stroke="#43B7FF" stroke-width="1.0571" stroke-miterlimit="10" width="11.058" height="7.479"/>
		<rect x="25.801" y="45.657" fill="#FFFFFF" width="11.058" height="7.479"/>
	</g>
	<g>
		<g>
			<polygon fill="none" stroke="#43B7FF" stroke-width="0.9455" stroke-miterlimit="10" points="35.636,58.889 23.212,58.889 
				24.592,56.141 37.018,56.141 			"/>
			<polygon fill="#FFFFFF" points="35.636,58.889 23.212,58.889 24.592,56.141 37.018,56.141 			"/>
		</g>
		
			<line fill="none" stroke="#43B7FF" stroke-width="0.3931" stroke-miterlimit="10" x1="23.673" y1="57.035" x2="36.723" y2="57.035"/>
		
			<line fill="none" stroke="#43B7FF" stroke-width="0.3904" stroke-miterlimit="10" x1="23.212" y1="57.969" x2="36.313" y2="57.969"/>
		<g>
			
				<line fill="none" stroke="#43B7FF" stroke-width="0.4176" stroke-miterlimit="10" x1="24.459" y1="59.145" x2="25.801" y2="55.885"/>
			
				<line fill="none" stroke="#43B7FF" stroke-width="0.4176" stroke-miterlimit="10" x1="26.466" y1="59.145" x2="27.808" y2="55.885"/>
			
				<line fill="none" stroke="#43B7FF" stroke-width="0.4176" stroke-miterlimit="10" x1="28.472" y1="59.145" x2="29.814" y2="55.885"/>
			
				<line fill="none" stroke="#43B7FF" stroke-width="0.4176" stroke-miterlimit="10" x1="30.479" y1="59.145" x2="31.821" y2="55.885"/>
			
				<line fill="none" stroke="#43B7FF" stroke-width="0.4176" stroke-miterlimit="10" x1="32.486" y1="59.145" x2="33.827" y2="55.885"/>
			
				<line fill="none" stroke="#43B7FF" stroke-width="0.4176" stroke-miterlimit="10" x1="34.493" y1="59.145" x2="35.835" y2="55.885"/>
		</g>
	</g>
	<g>
		<g>
			<path fill="none" stroke="#43B7FF" stroke-width="0.767" stroke-miterlimit="10" d="M39.127,58.889
				c-1.471,0-0.972-2.172,0.568-2.748S41.235,58.889,39.127,58.889z"/>
			<path fill="#FFFFFF" d="M39.127,58.889c-1.471,0-0.972-2.172,0.568-2.748S41.235,58.889,39.127,58.889z"/>
		</g>
		
			<line fill="#FFFFFF" stroke="#43B7FF" stroke-width="0.2439" stroke-miterlimit="10" x1="39.501" y1="56.621" x2="40.004" y2="56.023"/>
		<path fill="#FFFFFF" stroke="#43B7FF" stroke-width="0.2439" stroke-miterlimit="10" d="M38.248,57.035c0,0,0.813-0.895,2.54,0"/>
	</g>
</g>
<g>
	<path fill="none" stroke="#43B7FF" stroke-width="0.495" stroke-miterlimit="10" d="M9.546,54.603c0,0-2.033,0.232-2.366,1.603
		c-0.334,1.371,1.985,1.559,2.222,0.572s-1.278-2.27-2.621-1.404s-3.017,3.877-1.08,4.357c1.935,0.479,1.688-2.16,0.684-2.123
		c-1.003,0.037-1.992,0.422-2.358,2.846"/>
	<path fill="#FFFFFF" stroke="#43B7FF" stroke-width="0.6187" stroke-miterlimit="10" d="M13.613,52.452l-1.59-0.808
		c0,0-0.361-0.075-0.709,0.042c-0.176-1.192,0.329-2.414,1.12-3.641c0.8-1.243,1.719-2.217,2.9-2.536
		c0.04,0.354,0.263,0.631,0.263,0.631l1.313,1.259c0,0,0.405,0.061,0.768-0.506l1.637-2.538c0.364-0.565,0.012-0.705,0.012-0.705
		l-1.59-0.808c0,0-0.134-0.025-0.315-0.023c-2.343-0.713-4.229-0.406-7.018,3.918c-2.944,4.567-2.279,6.236-0.598,8.095
		c0.043,0.069,0.076,0.11,0.076,0.11l1.314,1.259c0,0,0.405,0.061,0.769-0.506l1.637-2.539
		C13.965,52.59,13.613,52.452,13.613,52.452z"/>
</g>
<g>
	<path fill="#43B7FF" d="M20.947,21.397l0.237-1.8l-0.006-0.001l-0.416,0.148l-0.066-0.394l0.619-0.21l0.444,0.059l-0.299,2.265
		L20.947,21.397z"/>
	<path fill="#43B7FF" d="M20.488,24.868l0.238-1.8l-0.006-0.001l-0.417,0.147l-0.066-0.394l0.619-0.21L21.3,22.67l-0.299,2.266
		L20.488,24.868z"/>
	<path fill="#43B7FF" d="M19.556,27.129c0.084-0.639,0.39-1.14,0.932-1.068c0.584,0.077,0.682,0.693,0.608,1.256
		c-0.098,0.739-0.441,1.138-0.924,1.073C19.594,28.313,19.481,27.698,19.556,27.129z M20.57,27.257
		c0.064-0.486,0.024-0.758-0.14-0.779c-0.155-0.021-0.281,0.199-0.35,0.715c-0.068,0.516-0.012,0.76,0.152,0.781
		C20.358,27.989,20.489,27.873,20.57,27.257z"/>
	<path fill="#43B7FF" d="M19.572,31.808l0.238-1.8l-0.006-0.001l-0.417,0.148l-0.066-0.395l0.619-0.209l0.444,0.059l-0.299,2.265
		L19.572,31.808z"/>
	<path fill="#43B7FF" d="M19.114,35.277l0.237-1.8l-0.006-0.001l-0.417,0.147l-0.066-0.394l0.619-0.209l0.444,0.059l-0.299,2.265
		L19.114,35.277z"/>
	<path fill="#43B7FF" d="M18.182,37.538c0.084-0.638,0.39-1.14,0.933-1.068c0.584,0.078,0.682,0.693,0.607,1.257
		c-0.098,0.739-0.441,1.137-0.924,1.073C18.22,38.724,18.106,38.107,18.182,37.538z M19.196,37.666
		c0.064-0.485,0.024-0.758-0.14-0.779c-0.155-0.021-0.281,0.199-0.349,0.715c-0.068,0.516-0.012,0.76,0.152,0.781
		C18.984,38.399,19.114,38.283,19.196,37.666z"/>
	<path fill="#43B7FF" d="M17.724,41.008c0.084-0.638,0.39-1.14,0.933-1.067c0.584,0.076,0.682,0.693,0.607,1.256
		c-0.098,0.739-0.441,1.137-0.924,1.073C17.762,42.193,17.648,41.577,17.724,41.008z M18.738,41.137
		c0.064-0.486,0.024-0.759-0.14-0.78c-0.155-0.021-0.281,0.2-0.349,0.716c-0.068,0.515-0.013,0.759,0.151,0.78
		C18.525,41.869,18.656,41.753,18.738,41.137z"/>
</g>
<g>
	<path fill="#43B7FF" d="M36.554,22.23l0.237-1.8l-0.007-0.001l-0.416,0.148l-0.066-0.394l0.619-0.21l0.444,0.059l-0.299,2.265
		L36.554,22.23z"/>
	<path fill="#43B7FF" d="M36.095,25.701l0.238-1.8L36.326,23.9l-0.416,0.147l-0.066-0.394l0.619-0.21l0.444,0.059l-0.3,2.266
		L36.095,25.701z"/>
	<path fill="#43B7FF" d="M35.163,27.962c0.084-0.639,0.39-1.14,0.932-1.068c0.584,0.077,0.683,0.693,0.608,1.256
		c-0.098,0.739-0.441,1.138-0.925,1.073C35.2,29.146,35.088,28.531,35.163,27.962z M36.177,28.09
		c0.064-0.486,0.024-0.758-0.14-0.779c-0.154-0.021-0.281,0.199-0.35,0.715c-0.067,0.516-0.012,0.76,0.152,0.781
		C35.965,28.822,36.096,28.706,36.177,28.09z"/>
	<path fill="#43B7FF" d="M35.179,32.641l0.238-1.8L35.41,30.84l-0.416,0.148l-0.066-0.395l0.618-0.209l0.444,0.059l-0.299,2.265
		L35.179,32.641z"/>
	<path fill="#43B7FF" d="M34.721,36.11l0.237-1.8l-0.006-0.001l-0.416,0.147l-0.066-0.394l0.618-0.209l0.444,0.059l-0.299,2.265
		L34.721,36.11z"/>
	<path fill="#43B7FF" d="M33.788,38.371c0.085-0.638,0.391-1.14,0.933-1.068c0.584,0.078,0.682,0.693,0.607,1.257
		c-0.098,0.739-0.44,1.137-0.924,1.073C33.826,39.557,33.713,38.94,33.788,38.371z M34.803,38.499
		c0.063-0.485,0.023-0.758-0.14-0.779c-0.155-0.021-0.281,0.199-0.35,0.715s-0.012,0.76,0.152,0.781
		C34.591,39.232,34.721,39.116,34.803,38.499z"/>
	<path fill="#43B7FF" d="M33.33,41.841c0.085-0.638,0.391-1.14,0.933-1.067c0.584,0.076,0.682,0.693,0.607,1.256
		c-0.098,0.739-0.44,1.137-0.924,1.073C33.368,43.026,33.255,42.41,33.33,41.841z M34.345,41.97c0.063-0.486,0.023-0.759-0.14-0.78
		c-0.155-0.021-0.281,0.2-0.35,0.716c-0.068,0.515-0.013,0.759,0.151,0.78C34.132,42.702,34.263,42.586,34.345,41.97z"/>
</g>
<g>
	<path fill="#43B7FF" d="M27.714,24.788c-0.041-0.643,0.162-1.194,0.708-1.229c0.588-0.037,0.803,0.549,0.839,1.116
		c0.047,0.744-0.213,1.2-0.699,1.231C27.98,25.942,27.75,25.36,27.714,24.788z M28.734,24.717c-0.031-0.489-0.123-0.749-0.288-0.738
		c-0.155,0.01-0.237,0.25-0.204,0.77c0.032,0.519,0.135,0.747,0.3,0.736C28.667,25.477,28.773,25.338,28.734,24.717z"/>
	<path fill="#43B7FF" d="M27.935,28.28c-0.041-0.642,0.162-1.194,0.708-1.229c0.588-0.037,0.803,0.549,0.839,1.115
		c0.047,0.744-0.213,1.201-0.699,1.231C28.201,29.435,27.971,28.854,27.935,28.28z M28.955,28.21
		c-0.031-0.489-0.123-0.749-0.288-0.738c-0.155,0.01-0.237,0.25-0.204,0.77c0.032,0.519,0.135,0.747,0.3,0.737
		C28.887,28.97,28.994,28.831,28.955,28.21z"/>
	<path fill="#43B7FF" d="M28.854,32.868l-0.114-1.812l-0.006,0l-0.381,0.225l-0.141-0.374l0.566-0.325l0.447-0.028l0.144,2.28
		L28.854,32.868z"/>
	<path fill="#43B7FF" d="M29.075,36.36l-0.114-1.812h-0.006l-0.381,0.226l-0.141-0.373L29,34.076l0.447-0.028l0.144,2.28
		L29.075,36.36z"/>
	<path fill="#43B7FF" d="M28.597,38.759c-0.041-0.642,0.162-1.193,0.708-1.228c0.588-0.037,0.803,0.549,0.839,1.115
		c0.047,0.744-0.213,1.2-0.699,1.231C28.863,39.914,28.633,39.332,28.597,38.759z M29.617,38.688
		c-0.031-0.489-0.123-0.748-0.288-0.737c-0.155,0.01-0.237,0.25-0.204,0.769c0.032,0.52,0.135,0.747,0.3,0.737
		C29.549,39.449,29.656,39.31,29.617,38.688z"/>
	<path fill="#43B7FF" d="M29.516,43.347l-0.114-1.812h-0.006l-0.381,0.226l-0.141-0.373l0.566-0.325l0.447-0.028l0.144,2.28
		L29.516,43.347z"/>
</g>
<g>
	<path fill="#43B7FF" d="M14.063,23.531c0.023-0.643,0.28-1.172,0.827-1.151c0.588,0.021,0.744,0.626,0.724,1.193
		c-0.027,0.745-0.331,1.173-0.818,1.155C14.212,24.707,14.041,24.105,14.063,23.531z M15.084,23.563
		c0.018-0.49-0.048-0.757-0.213-0.763c-0.156-0.006-0.261,0.226-0.279,0.745c-0.02,0.52,0.059,0.757,0.225,0.763
		C14.942,24.313,15.062,24.185,15.084,23.563z"/>
	<path fill="#43B7FF" d="M13.935,27.029c0.023-0.644,0.28-1.172,0.827-1.151c0.589,0.021,0.745,0.625,0.724,1.192
		c-0.026,0.745-0.331,1.173-0.818,1.155C14.085,28.205,13.914,27.603,13.935,27.029z M14.957,27.061
		c0.018-0.49-0.048-0.757-0.213-0.763c-0.156-0.006-0.261,0.226-0.28,0.745c-0.019,0.52,0.06,0.757,0.226,0.763
		C14.815,27.811,14.934,27.682,14.957,27.061z"/>
	<path fill="#43B7FF" d="M14.395,31.686l0.065-1.814h-0.006l-0.4,0.187l-0.104-0.387l0.596-0.267l0.448,0.017l-0.083,2.283
		L14.395,31.686z"/>
	<path fill="#43B7FF" d="M14.267,35.183l0.066-1.814h-0.007l-0.4,0.187l-0.103-0.386l0.596-0.267l0.448,0.017l-0.083,2.283
		L14.267,35.183z"/>
	<path fill="#43B7FF" d="M13.553,37.522c0.023-0.644,0.28-1.172,0.827-1.152c0.589,0.021,0.744,0.626,0.724,1.193
		c-0.027,0.745-0.331,1.173-0.818,1.155C13.703,38.698,13.532,38.096,13.553,37.522z M14.574,37.554
		c0.019-0.49-0.047-0.757-0.212-0.764c-0.156-0.005-0.262,0.226-0.28,0.746c-0.019,0.52,0.06,0.757,0.225,0.763
		C14.433,38.304,14.552,38.175,14.574,37.554z"/>
	<path fill="#43B7FF" d="M14.012,42.178l0.066-1.813h-0.006l-0.4,0.187l-0.104-0.386l0.596-0.268l0.448,0.017l-0.083,2.283
		L14.012,42.178z"/>
</g>
<g>
	<linearGradient id="SVGID_1_" gradientUnits="userSpaceOnUse" x1="30.7354" y1="6.8486" x2="36.7077" y2="38.9153">
		<stop  offset="0" style="stop-color:#FFFFFF"/>
		<stop  offset="0.418" style="stop-color:#FCFFFF"/>
		<stop  offset="0.6985" style="stop-color:#F3FFFF"/>
		<stop  offset="0.9381" style="stop-color:#E4FEFF"/>
		<stop  offset="1" style="stop-color:#DFFEFF"/>
	</linearGradient>
	<path fill="url(#SVGID_1_)" d="M49.22,12.501c-0.303,0-0.596,0.028-0.885,0.068c-1.586-1.519-3.73-2.458-6.099-2.458
		c-1.043,0-2.038,0.191-2.965,0.522c0.01-0.173,0.024-0.346,0.024-0.522c0-4.871-3.947-8.82-8.819-8.82
		c-4.872,0-8.821,3.949-8.821,8.82c0,0.1,0.012,0.196,0.016,0.293c-1.198,0.6-2.238,1.46-3.046,2.512
		c-0.445-0.092-0.907-0.14-1.379-0.14c-3.755,0-6.799,3.044-6.799,6.798c0,3.755,3.044,6.8,6.799,6.8c1.202,0,2.33-0.316,3.31-0.863
		c1.37,0.961,3.022,1.537,4.81,1.585c1.612,1.754,3.919,2.862,6.488,2.862c2.659,0,5.037-1.182,6.652-3.042
		c1.137,0.532,2.396,0.837,3.73,0.837c2.368,0,4.513-0.939,6.097-2.458c0.291,0.041,0.584,0.069,0.887,0.069
		c3.552,0,6.432-2.88,6.432-6.432S52.771,12.501,49.22,12.501z"/>
	<path fill="none" stroke="#43B7FF" stroke-width="1.2198" stroke-miterlimit="10" d="M49.22,12.501
		c-0.303,0-0.596,0.028-0.885,0.068c-1.586-1.519-3.73-2.458-6.099-2.458c-1.043,0-2.038,0.191-2.965,0.522
		c0.01-0.173,0.024-0.346,0.024-0.522c0-4.871-3.947-8.82-8.819-8.82c-4.872,0-8.821,3.949-8.821,8.82
		c0,0.1,0.012,0.196,0.016,0.293c-1.198,0.6-2.238,1.46-3.046,2.512c-0.445-0.092-0.907-0.14-1.379-0.14
		c-3.755,0-6.799,3.044-6.799,6.798c0,3.755,3.044,6.8,6.799,6.8c1.202,0,2.33-0.316,3.31-0.863c1.37,0.961,3.022,1.537,4.81,1.585
		c1.612,1.754,3.919,2.862,6.488,2.862c2.659,0,5.037-1.182,6.652-3.042c1.137,0.532,2.396,0.837,3.73,0.837
		c2.368,0,4.513-0.939,6.097-2.458c0.291,0.041,0.584,0.069,0.887,0.069c3.552,0,6.432-2.88,6.432-6.432S52.771,12.501,49.22,12.501
		z"/>
</g>
</svg>
