<?xml version="1.0" encoding="utf-8"?>
<!-- Generator: Adobe Illustrator 15.0.2, SVG Export Plug-In . SVG Version: 6.00 Build 0)  -->
<!DOCTYPE svg PUBLIC "-//W3C//DTD SVG 1.1//EN" "http://www.w3.org/Graphics/SVG/1.1/DTD/svg11.dtd">
<svg version="1.1" id="_x30_9_5_" xmlns="http://www.w3.org/2000/svg" xmlns:xlink="http://www.w3.org/1999/xlink" x="0px" y="0px"
	 width="64px" height="64px" viewBox="0 0 64 64" enable-background="new 0 0 64 64" xml:space="preserve">
<g display="none">
	<path display="inline" fill="#43B7FF" d="M11.492,23.78c0-0.644,0.237-1.181,0.785-1.181c0.589,0,0.767,0.598,0.767,1.166
		c0,0.746-0.289,1.185-0.776,1.185C11.685,24.95,11.492,24.354,11.492,23.78z M12.514,23.774c0-0.49-0.075-0.755-0.24-0.755
		c-0.156,0-0.253,0.235-0.253,0.755s0.087,0.754,0.253,0.754C12.4,24.529,12.514,24.396,12.514,23.774z"/>
	<path display="inline" fill="#43B7FF" d="M12.121,28.417v-1.815h-0.006l-0.394,0.201l-0.117-0.382l0.586-0.289h0.448v2.285H12.121z
		"/>
	<path display="inline" fill="#43B7FF" d="M11.492,30.78c0-0.644,0.237-1.181,0.785-1.181c0.589,0,0.767,0.598,0.767,1.166
		c0,0.746-0.289,1.185-0.776,1.185C11.685,31.95,11.492,31.354,11.492,30.78z M12.514,30.774c0-0.49-0.075-0.755-0.24-0.755
		c-0.156,0-0.253,0.235-0.253,0.755s0.087,0.754,0.253,0.754C12.4,31.529,12.514,31.396,12.514,30.774z"/>
	<path display="inline" fill="#43B7FF" d="M12.121,35.416v-1.814h-0.006l-0.394,0.201l-0.117-0.383l0.586-0.288h0.448v2.284H12.121z
		"/>
	<path display="inline" fill="#43B7FF" d="M12.121,38.916v-1.814h-0.006l-0.394,0.201l-0.117-0.383l0.586-0.288h0.448v2.284H12.121z
		"/>
	<path display="inline" fill="#43B7FF" d="M11.492,41.28c0-0.644,0.237-1.181,0.785-1.181c0.589,0,0.767,0.598,0.767,1.166
		c0,0.745-0.289,1.184-0.776,1.184C11.685,42.449,11.492,41.854,11.492,41.28z M12.514,41.274c0-0.49-0.075-0.755-0.24-0.755
		c-0.156,0-0.253,0.234-0.253,0.755s0.087,0.755,0.253,0.755C12.4,42.029,12.514,41.896,12.514,41.274z"/>
	<path display="inline" fill="#43B7FF" d="M12.121,45.916v-1.814h-0.006l-0.394,0.201l-0.117-0.383l0.586-0.288h0.448v2.284H12.121z
		"/>
</g>
<g display="none">
	<path display="inline" fill="#43B7FF" d="M31.686,20.53c0-0.644,0.237-1.181,0.785-1.181c0.589,0,0.767,0.598,0.767,1.166
		c0,0.746-0.289,1.185-0.776,1.185C31.878,21.7,31.686,21.104,31.686,20.53z M32.708,20.524c0-0.49-0.075-0.755-0.24-0.755
		c-0.156,0-0.253,0.235-0.253,0.755s0.087,0.754,0.253,0.754C32.594,21.279,32.708,21.146,32.708,20.524z"/>
	<path display="inline" fill="#43B7FF" d="M32.314,25.167v-1.815h-0.006l-0.394,0.201l-0.117-0.382l0.586-0.289h0.448v2.285H32.314z
		"/>
	<path display="inline" fill="#43B7FF" d="M31.686,27.53c0-0.644,0.237-1.181,0.785-1.181c0.589,0,0.767,0.598,0.767,1.166
		c0,0.746-0.289,1.185-0.776,1.185C31.878,28.7,31.686,28.104,31.686,27.53z M32.708,27.524c0-0.49-0.075-0.755-0.24-0.755
		c-0.156,0-0.253,0.235-0.253,0.755s0.087,0.754,0.253,0.754C32.594,28.279,32.708,28.146,32.708,27.524z"/>
	<path display="inline" fill="#43B7FF" d="M32.314,32.167v-1.815h-0.006l-0.394,0.201l-0.117-0.382l0.586-0.289h0.448v2.285H32.314z
		"/>
	<path display="inline" fill="#43B7FF" d="M32.314,35.666v-1.814h-0.006l-0.394,0.201l-0.117-0.383l0.586-0.288h0.448v2.284H32.314z
		"/>
	<path display="inline" fill="#43B7FF" d="M31.686,38.03c0-0.644,0.237-1.181,0.785-1.181c0.589,0,0.767,0.598,0.767,1.166
		c0,0.745-0.289,1.184-0.776,1.184C31.878,39.199,31.686,38.604,31.686,38.03z M32.708,38.024c0-0.49-0.075-0.755-0.24-0.755
		c-0.156,0-0.253,0.234-0.253,0.755s0.087,0.755,0.253,0.755C32.594,38.779,32.708,38.646,32.708,38.024z"/>
	<path display="inline" fill="#43B7FF" d="M32.314,42.666v-1.814h-0.006l-0.394,0.201l-0.117-0.383l0.586-0.288h0.448v2.284H32.314z
		"/>
</g>
<g display="none">
	<path display="inline" fill="#43B7FF" d="M49.742,21.864c0-0.644,0.236-1.181,0.784-1.181c0.589,0,0.767,0.598,0.767,1.166
		c0,0.746-0.289,1.185-0.775,1.185C49.934,23.033,49.742,22.438,49.742,21.864z M50.764,21.858c0-0.49-0.075-0.755-0.24-0.755
		c-0.156,0-0.253,0.235-0.253,0.755s0.087,0.754,0.253,0.754C50.649,22.612,50.764,22.48,50.764,21.858z"/>
	<path display="inline" fill="#43B7FF" d="M50.37,26.5v-1.815h-0.007l-0.393,0.201l-0.117-0.382l0.586-0.289h0.447V26.5H50.37z"/>
	<path display="inline" fill="#43B7FF" d="M49.742,28.864c0-0.644,0.236-1.181,0.784-1.181c0.589,0,0.767,0.598,0.767,1.166
		c0,0.746-0.289,1.185-0.775,1.185C49.934,30.033,49.742,29.438,49.742,28.864z M50.764,28.858c0-0.49-0.075-0.755-0.24-0.755
		c-0.156,0-0.253,0.235-0.253,0.755s0.087,0.754,0.253,0.754C50.649,29.612,50.764,29.48,50.764,28.858z"/>
	<path display="inline" fill="#43B7FF" d="M50.37,33.5v-1.815h-0.007l-0.393,0.201l-0.117-0.382l0.586-0.289h0.447V33.5H50.37z"/>
	<path display="inline" fill="#43B7FF" d="M50.37,37v-1.815h-0.007l-0.393,0.201l-0.117-0.382l0.586-0.289h0.447V37H50.37z"/>
	<path display="inline" fill="#43B7FF" d="M49.742,39.363c0-0.643,0.236-1.181,0.784-1.181c0.589,0,0.767,0.599,0.767,1.166
		c0,0.745-0.289,1.185-0.775,1.185C49.934,40.533,49.742,39.938,49.742,39.363z M50.764,39.357c0-0.49-0.075-0.754-0.24-0.754
		c-0.156,0-0.253,0.234-0.253,0.754c0,0.521,0.087,0.755,0.253,0.755C50.649,40.112,50.764,39.98,50.764,39.357z"/>
	<path display="inline" fill="#43B7FF" d="M50.37,44v-1.815h-0.007l-0.393,0.201l-0.117-0.382l0.586-0.289h0.447V44H50.37z"/>
</g>
<g>
	<rect x="51.325" y="49.096" fill="#43B7FF" width="2.631" height="2.129"/>
	<g>
		<path fill="none" stroke="#43B7FF" stroke-width="1.1828" stroke-miterlimit="10" d="M51.614,56.508
			c0,1.065-0.871,1.937-1.937,1.937h-2.889c-1.065,0-1.937-0.871-1.937-1.937v-8.515c0-1.065,0.871-1.937,1.937-1.937h2.889
			c1.065,0,1.937,0.871,1.937,1.937V56.508z"/>
		<path fill="#FFFFFF" d="M51.614,56.508c0,1.065-0.871,1.937-1.937,1.937h-2.889c-1.065,0-1.937-0.871-1.937-1.937v-8.515
			c0-1.065,0.871-1.937,1.937-1.937h2.889c1.065,0,1.937,0.871,1.937,1.937V56.508z"/>
	</g>
	<g>
		
			<rect x="53.333" y="47.287" fill="none" stroke="#43B7FF" stroke-width="0.9273" stroke-miterlimit="10" width="5.813" height="5.746"/>
		<rect x="53.333" y="47.287" fill="#FFFFFF" width="5.813" height="5.746"/>
	</g>
	<circle fill="#FFFFFF" stroke="#43B7FF" stroke-width="0.9699" stroke-miterlimit="10" cx="48.234" cy="49.738" r="2.319"/>
	<path fill="#43B7FF" d="M50.553,54.542c0-0.139-0.157-0.25-0.353-0.25l0,0c-0.194,0-0.352,0.111-0.352,0.25v2.014
		c0,0.139,0.157,0.25,0.352,0.25l0,0c0.195,0,0.353-0.111,0.353-0.25V54.542z"/>
</g>
<g>
	<g>
		
			<rect x="24.459" y="44.507" fill="none" stroke="#43B7FF" stroke-width="0.9601" stroke-miterlimit="10" width="13.741" height="9.778"/>
		<rect x="24.459" y="44.507" fill="#FFFFFF" width="13.741" height="9.778"/>
	</g>
	<g>
		
			<rect x="25.801" y="45.657" fill="none" stroke="#43B7FF" stroke-width="1.0571" stroke-miterlimit="10" width="11.058" height="7.479"/>
		<rect x="25.801" y="45.657" fill="#FFFFFF" width="11.058" height="7.479"/>
	</g>
	<g>
		<g>
			<polygon fill="none" stroke="#43B7FF" stroke-width="0.9455" stroke-miterlimit="10" points="35.636,58.889 23.212,58.889 
				24.592,56.141 37.018,56.141 			"/>
			<polygon fill="#FFFFFF" points="35.636,58.889 23.212,58.889 24.592,56.141 37.018,56.141 			"/>
		</g>
		
			<line fill="none" stroke="#43B7FF" stroke-width="0.3931" stroke-miterlimit="10" x1="23.673" y1="57.035" x2="36.723" y2="57.035"/>
		
			<line fill="none" stroke="#43B7FF" stroke-width="0.3904" stroke-miterlimit="10" x1="23.212" y1="57.969" x2="36.313" y2="57.969"/>
		<g>
			
				<line fill="none" stroke="#43B7FF" stroke-width="0.4176" stroke-miterlimit="10" x1="24.459" y1="59.145" x2="25.801" y2="55.885"/>
			
				<line fill="none" stroke="#43B7FF" stroke-width="0.4176" stroke-miterlimit="10" x1="26.466" y1="59.145" x2="27.808" y2="55.885"/>
			
				<line fill="none" stroke="#43B7FF" stroke-width="0.4176" stroke-miterlimit="10" x1="28.472" y1="59.145" x2="29.814" y2="55.885"/>
			
				<line fill="none" stroke="#43B7FF" stroke-width="0.4176" stroke-miterlimit="10" x1="30.479" y1="59.145" x2="31.821" y2="55.885"/>
			
				<line fill="none" stroke="#43B7FF" stroke-width="0.4176" stroke-miterlimit="10" x1="32.486" y1="59.145" x2="33.827" y2="55.885"/>
			
				<line fill="none" stroke="#43B7FF" stroke-width="0.4176" stroke-miterlimit="10" x1="34.493" y1="59.145" x2="35.835" y2="55.885"/>
		</g>
	</g>
	<g>
		<g>
			<path fill="none" stroke="#43B7FF" stroke-width="0.767" stroke-miterlimit="10" d="M39.127,58.889
				c-1.471,0-0.972-2.172,0.568-2.748S41.235,58.889,39.127,58.889z"/>
			<path fill="#FFFFFF" d="M39.127,58.889c-1.471,0-0.972-2.172,0.568-2.748S41.235,58.889,39.127,58.889z"/>
		</g>
		
			<line fill="#FFFFFF" stroke="#43B7FF" stroke-width="0.2439" stroke-miterlimit="10" x1="39.501" y1="56.621" x2="40.004" y2="56.023"/>
		<path fill="#FFFFFF" stroke="#43B7FF" stroke-width="0.2439" stroke-miterlimit="10" d="M38.248,57.035c0,0,0.813-0.895,2.54,0"/>
	</g>
</g>
<g>
	<path fill="none" stroke="#43B7FF" stroke-width="0.495" stroke-miterlimit="10" d="M9.546,54.603c0,0-2.033,0.232-2.366,1.603
		c-0.334,1.371,1.985,1.559,2.222,0.572s-1.278-2.27-2.621-1.404s-3.017,3.877-1.08,4.357c1.935,0.479,1.688-2.16,0.684-2.123
		c-1.003,0.037-1.992,0.422-2.358,2.846"/>
	<path fill="#FFFFFF" stroke="#43B7FF" stroke-width="0.6187" stroke-miterlimit="10" d="M13.613,52.452l-1.59-0.808
		c0,0-0.361-0.075-0.709,0.042c-0.176-1.192,0.329-2.414,1.12-3.641c0.8-1.243,1.719-2.217,2.9-2.536
		c0.04,0.354,0.263,0.631,0.263,0.631l1.313,1.259c0,0,0.405,0.061,0.768-0.506l1.637-2.538c0.364-0.565,0.012-0.705,0.012-0.705
		l-1.59-0.808c0,0-0.134-0.025-0.315-0.023c-2.343-0.713-4.229-0.406-7.018,3.918c-2.944,4.567-2.279,6.236-0.598,8.095
		c0.043,0.069,0.076,0.11,0.076,0.11l1.314,1.259c0,0,0.405,0.061,0.769-0.506l1.637-2.539
		C13.965,52.59,13.613,52.452,13.613,52.452z"/>
</g>
<g>
	<path fill="#43B7FF" d="M20.947,21.397l0.237-1.8l-0.006-0.001l-0.416,0.148l-0.066-0.394l0.619-0.21l0.444,0.059l-0.299,2.265
		L20.947,21.397z"/>
	<path fill="#43B7FF" d="M20.488,24.868l0.238-1.8l-0.006-0.001l-0.417,0.147l-0.066-0.394l0.619-0.21L21.3,22.67l-0.299,2.266
		L20.488,24.868z"/>
	<path fill="#43B7FF" d="M19.556,27.129c0.084-0.639,0.39-1.14,0.932-1.068c0.584,0.077,0.682,0.693,0.608,1.256
		c-0.098,0.739-0.441,1.138-0.924,1.073C19.594,28.313,19.481,27.698,19.556,27.129z M20.57,27.257
		c0.064-0.486,0.024-0.758-0.14-0.779c-0.155-0.021-0.281,0.199-0.35,0.715c-0.068,0.516-0.012,0.76,0.152,0.781
		C20.358,27.989,20.489,27.873,20.57,27.257z"/>
	<path fill="#43B7FF" d="M19.098,30.599c0.084-0.638,0.39-1.14,0.932-1.068c0.584,0.077,0.682,0.693,0.608,1.257
		c-0.098,0.739-0.441,1.137-0.925,1.072C19.136,31.783,19.023,31.168,19.098,30.599z M20.112,30.727
		c0.064-0.486,0.024-0.758-0.139-0.779c-0.155-0.021-0.281,0.199-0.35,0.715c-0.068,0.516-0.012,0.759,0.152,0.781
		C19.9,31.46,20.03,31.344,20.112,30.727z"/>
	<path fill="#43B7FF" d="M19.114,35.277l0.237-1.8l-0.006-0.001l-0.417,0.147l-0.066-0.394l0.619-0.209l0.444,0.059l-0.299,2.265
		L19.114,35.277z"/>
	<path fill="#43B7FF" d="M18.182,37.538c0.084-0.638,0.39-1.14,0.933-1.068c0.584,0.078,0.682,0.693,0.607,1.257
		c-0.098,0.739-0.441,1.137-0.924,1.073C18.22,38.724,18.106,38.107,18.182,37.538z M19.196,37.666
		c0.064-0.485,0.024-0.758-0.14-0.779c-0.155-0.021-0.281,0.199-0.349,0.715c-0.068,0.516-0.012,0.76,0.152,0.781
		C18.984,38.399,19.114,38.283,19.196,37.666z"/>
	<path fill="#43B7FF" d="M18.198,42.217l0.237-1.8l-0.006-0.001l-0.417,0.148l-0.066-0.394l0.619-0.21l0.444,0.059l-0.299,2.265
		L18.198,42.217z"/>
</g>
<g>
	<path fill="#43B7FF" d="M14.063,23.531c0.023-0.643,0.28-1.172,0.827-1.151c0.588,0.021,0.744,0.626,0.724,1.193
		c-0.027,0.745-0.331,1.173-0.818,1.155C14.212,24.707,14.041,24.105,14.063,23.531z M15.084,23.563
		c0.018-0.49-0.048-0.757-0.213-0.763c-0.156-0.006-0.261,0.226-0.279,0.745c-0.02,0.52,0.059,0.757,0.225,0.763
		C14.942,24.313,15.062,24.185,15.084,23.563z"/>
	<path fill="#43B7FF" d="M14.521,28.188l0.066-1.814h-0.007l-0.4,0.187l-0.104-0.386l0.597-0.267l0.448,0.017l-0.083,2.282
		L14.521,28.188z"/>
	<path fill="#43B7FF" d="M13.808,30.526c0.023-0.643,0.28-1.171,0.827-1.151c0.589,0.021,0.744,0.626,0.724,1.193
		c-0.027,0.745-0.331,1.173-0.818,1.155C13.957,31.703,13.787,31.101,13.808,30.526z M14.829,30.558
		c0.019-0.489-0.048-0.757-0.213-0.763c-0.156-0.006-0.261,0.226-0.279,0.745c-0.02,0.521,0.06,0.757,0.225,0.764
		C14.688,31.308,14.807,31.18,14.829,30.558z"/>
	<path fill="#43B7FF" d="M14.267,35.183l0.066-1.814h-0.007l-0.4,0.187l-0.103-0.386l0.596-0.267l0.448,0.017l-0.083,2.283
		L14.267,35.183z"/>
	<path fill="#43B7FF" d="M14.14,38.681l0.066-1.814h-0.007l-0.4,0.187l-0.104-0.386l0.597-0.268l0.448,0.017l-0.084,2.283
		L14.14,38.681z"/>
	<path fill="#43B7FF" d="M13.426,41.02c0.023-0.643,0.28-1.171,0.827-1.151c0.588,0.021,0.744,0.626,0.724,1.193
		c-0.027,0.745-0.331,1.173-0.818,1.155C13.575,42.195,13.404,41.594,13.426,41.02z M14.447,41.051
		c0.018-0.489-0.048-0.757-0.213-0.763c-0.156-0.006-0.261,0.226-0.279,0.745c-0.02,0.52,0.059,0.757,0.225,0.763
		C14.306,41.801,14.425,41.673,14.447,41.051z"/>
</g>
<g>
	<path fill="#43B7FF" d="M27.733,24.782c-0.038-0.643,0.167-1.193,0.714-1.226c0.588-0.035,0.801,0.552,0.834,1.119
		c0.044,0.744-0.218,1.199-0.705,1.228C27.994,25.938,27.767,25.355,27.733,24.782z M28.752,24.716
		c-0.028-0.49-0.119-0.75-0.284-0.74c-0.155,0.009-0.238,0.25-0.208,0.769c0.031,0.519,0.132,0.748,0.298,0.738
		C28.683,25.476,28.79,25.337,28.752,24.716z"/>
	<path fill="#43B7FF" d="M28.634,29.373l-0.107-1.812l-0.006,0l-0.381,0.224L28,27.411l0.568-0.323l0.447-0.026l0.135,2.281
		L28.634,29.373z"/>
	<path fill="#43B7FF" d="M28.147,31.77c-0.038-0.643,0.167-1.193,0.713-1.226c0.588-0.035,0.802,0.552,0.835,1.119
		c0.044,0.744-0.218,1.199-0.705,1.228C28.408,32.926,28.181,32.343,28.147,31.77z M29.167,31.704
		c-0.029-0.49-0.119-0.75-0.284-0.74c-0.156,0.009-0.238,0.249-0.208,0.769c0.031,0.519,0.132,0.748,0.297,0.738
		C29.097,32.463,29.204,32.325,29.167,31.704z"/>
	<path fill="#43B7FF" d="M29.048,36.36l-0.107-1.813l-0.006,0.001l-0.382,0.225l-0.139-0.375l0.567-0.322l0.447-0.026l0.136,2.28
		L29.048,36.36z"/>
	<path fill="#43B7FF" d="M29.255,39.854l-0.107-1.813l-0.006,0.001l-0.382,0.224l-0.139-0.374l0.567-0.322l0.447-0.026l0.135,2.28
		L29.255,39.854z"/>
	<path fill="#43B7FF" d="M28.767,42.251c-0.037-0.643,0.168-1.192,0.714-1.226c0.588-0.034,0.801,0.553,0.835,1.119
		c0.044,0.744-0.219,1.199-0.705,1.229C29.029,43.407,28.801,42.824,28.767,42.251z M29.788,42.186
		c-0.029-0.489-0.12-0.749-0.285-0.739c-0.155,0.009-0.238,0.249-0.207,0.768c0.03,0.52,0.132,0.748,0.297,0.738
		C29.718,42.944,29.824,42.807,29.788,42.186z"/>
</g>
<g>
	<path fill="#43B7FF" d="M46.052,25.531c0.023-0.643,0.28-1.172,0.827-1.151c0.589,0.021,0.745,0.626,0.724,1.193
		c-0.026,0.745-0.331,1.173-0.818,1.155C46.202,26.707,46.031,26.105,46.052,25.531z M47.074,25.562
		c0.018-0.49-0.048-0.757-0.213-0.763c-0.156-0.006-0.262,0.226-0.28,0.745s0.06,0.757,0.225,0.763
		C46.932,26.312,47.051,26.184,47.074,25.562z"/>
	<path fill="#43B7FF" d="M46.512,30.187l0.065-1.814h-0.006l-0.4,0.187l-0.104-0.386l0.596-0.267l0.448,0.017l-0.083,2.282
		L46.512,30.187z"/>
	<path fill="#43B7FF" d="M45.798,32.526c0.023-0.643,0.28-1.171,0.827-1.151c0.588,0.021,0.744,0.626,0.724,1.193
		c-0.027,0.745-0.332,1.172-0.819,1.155C45.947,33.702,45.776,33.1,45.798,32.526z M46.819,32.557
		c0.018-0.489-0.048-0.757-0.213-0.763c-0.156-0.006-0.261,0.226-0.28,0.745c-0.019,0.52,0.06,0.756,0.226,0.763
		C46.678,33.307,46.797,33.179,46.819,32.557z"/>
	<path fill="#43B7FF" d="M46.257,37.182l0.065-1.814h-0.006l-0.4,0.187l-0.104-0.386l0.596-0.267l0.448,0.017l-0.083,2.283
		L46.257,37.182z"/>
	<path fill="#43B7FF" d="M46.129,40.68l0.066-1.814h-0.006l-0.4,0.187l-0.104-0.386l0.596-0.268l0.448,0.017l-0.083,2.283
		L46.129,40.68z"/>
	<path fill="#43B7FF" d="M45.415,43.019c0.023-0.643,0.28-1.171,0.827-1.151c0.589,0.021,0.745,0.626,0.724,1.193
		c-0.026,0.745-0.331,1.173-0.818,1.155C45.565,44.194,45.395,43.593,45.415,43.019z M46.438,43.05
		c0.018-0.489-0.048-0.757-0.213-0.763c-0.156-0.006-0.262,0.226-0.28,0.745s0.06,0.757,0.225,0.763
		C46.295,43.8,46.414,43.672,46.438,43.05z"/>
</g>
<g>
	<path fill="#43B7FF" d="M36.554,22.23l0.237-1.8l-0.007-0.001l-0.416,0.148l-0.066-0.394l0.619-0.21l0.444,0.059l-0.299,2.265
		L36.554,22.23z"/>
	<path fill="#43B7FF" d="M36.095,25.701l0.238-1.8L36.326,23.9l-0.416,0.147l-0.066-0.394l0.619-0.21l0.444,0.059l-0.3,2.266
		L36.095,25.701z"/>
	<path fill="#43B7FF" d="M35.163,27.962c0.084-0.639,0.39-1.14,0.932-1.068c0.584,0.077,0.683,0.693,0.608,1.256
		c-0.098,0.739-0.441,1.138-0.925,1.073C35.2,29.146,35.088,28.531,35.163,27.962z M36.177,28.09
		c0.064-0.486,0.024-0.758-0.14-0.779c-0.154-0.021-0.281,0.199-0.35,0.715c-0.067,0.516-0.012,0.76,0.152,0.781
		C35.965,28.822,36.096,28.706,36.177,28.09z"/>
	<path fill="#43B7FF" d="M34.705,31.432c0.084-0.638,0.39-1.14,0.932-1.068c0.584,0.077,0.683,0.693,0.608,1.257
		c-0.098,0.739-0.441,1.137-0.925,1.072C34.742,32.616,34.63,32.001,34.705,31.432z M35.719,31.56
		c0.064-0.486,0.023-0.758-0.14-0.779c-0.155-0.021-0.281,0.199-0.35,0.715c-0.067,0.516-0.012,0.759,0.152,0.781
		C35.507,32.293,35.637,32.177,35.719,31.56z"/>
	<path fill="#43B7FF" d="M34.721,36.11l0.237-1.8l-0.006-0.001l-0.416,0.147l-0.066-0.394l0.618-0.209l0.444,0.059l-0.299,2.265
		L34.721,36.11z"/>
	<path fill="#43B7FF" d="M33.788,38.371c0.085-0.638,0.391-1.14,0.933-1.068c0.584,0.078,0.682,0.693,0.607,1.257
		c-0.098,0.739-0.44,1.137-0.924,1.073C33.826,39.557,33.713,38.94,33.788,38.371z M34.803,38.499
		c0.063-0.485,0.023-0.758-0.14-0.779c-0.155-0.021-0.281,0.199-0.35,0.715s-0.012,0.76,0.152,0.781
		C34.591,39.232,34.721,39.116,34.803,38.499z"/>
	<path fill="#43B7FF" d="M33.805,43.05l0.237-1.8l-0.006-0.001l-0.417,0.148l-0.066-0.394l0.619-0.21l0.444,0.059l-0.299,2.265
		L33.805,43.05z"/>
</g>
<g>
	<path fill="#43B7FF" d="M52.044,23.647l0.237-1.8l-0.007-0.001l-0.416,0.148l-0.066-0.394l0.619-0.21l0.444,0.059l-0.299,2.265
		L52.044,23.647z"/>
	<path fill="#43B7FF" d="M51.585,27.118l0.238-1.8l-0.007-0.001L51.4,25.465l-0.066-0.394l0.619-0.21l0.444,0.059l-0.3,2.266
		L51.585,27.118z"/>
	<path fill="#43B7FF" d="M50.653,29.379c0.084-0.639,0.39-1.14,0.932-1.068c0.584,0.077,0.683,0.693,0.608,1.256
		c-0.098,0.739-0.441,1.138-0.925,1.073C50.69,30.563,50.578,29.948,50.653,29.379z M51.667,29.507
		c0.064-0.486,0.024-0.758-0.14-0.779c-0.154-0.021-0.281,0.199-0.35,0.715c-0.067,0.516-0.012,0.76,0.152,0.781
		C51.455,30.239,51.586,30.123,51.667,29.507z"/>
	<path fill="#43B7FF" d="M50.195,32.849c0.084-0.638,0.39-1.14,0.932-1.068c0.584,0.077,0.683,0.693,0.608,1.257
		c-0.098,0.739-0.441,1.137-0.925,1.072C50.232,34.033,50.12,33.418,50.195,32.849z M51.209,32.977
		c0.064-0.486,0.023-0.758-0.14-0.779c-0.155-0.021-0.281,0.199-0.35,0.715c-0.067,0.516-0.012,0.759,0.152,0.781
		C50.997,33.71,51.127,33.594,51.209,32.977z"/>
	<path fill="#43B7FF" d="M50.211,37.527l0.237-1.8l-0.006-0.001l-0.416,0.147L49.96,35.48l0.618-0.209l0.444,0.059l-0.299,2.265
		L50.211,37.527z"/>
	<path fill="#43B7FF" d="M49.278,39.788c0.085-0.638,0.391-1.14,0.933-1.068c0.584,0.078,0.682,0.693,0.607,1.257
		c-0.098,0.739-0.44,1.137-0.924,1.073C49.316,40.974,49.203,40.357,49.278,39.788z M50.293,39.916
		c0.063-0.485,0.023-0.758-0.14-0.779c-0.155-0.021-0.281,0.199-0.35,0.715s-0.012,0.76,0.152,0.781
		C50.081,40.649,50.211,40.533,50.293,39.916z"/>
	<path fill="#43B7FF" d="M49.295,44.467l0.237-1.8l-0.006-0.001l-0.417,0.148l-0.066-0.394l0.619-0.21l0.444,0.059l-0.299,2.265
		L49.295,44.467z"/>
</g>
<g>
	<linearGradient id="SVGID_1_" gradientUnits="userSpaceOnUse" x1="30.7354" y1="6.8486" x2="36.7077" y2="38.9153">
		<stop  offset="0" style="stop-color:#FFFFFF"/>
		<stop  offset="0.418" style="stop-color:#FCFFFF"/>
		<stop  offset="0.6985" style="stop-color:#F3FFFF"/>
		<stop  offset="0.9381" style="stop-color:#E4FEFF"/>
		<stop  offset="1" style="stop-color:#DFFEFF"/>
	</linearGradient>
	<path fill="url(#SVGID_1_)" d="M49.22,12.501c-0.303,0-0.596,0.028-0.885,0.068c-1.586-1.519-3.73-2.458-6.099-2.458
		c-1.043,0-2.038,0.191-2.965,0.522c0.01-0.173,0.024-0.346,0.024-0.522c0-4.871-3.947-8.82-8.819-8.82
		c-4.872,0-8.821,3.949-8.821,8.82c0,0.1,0.012,0.196,0.016,0.293c-1.198,0.6-2.238,1.46-3.046,2.512
		c-0.445-0.092-0.907-0.14-1.379-0.14c-3.755,0-6.799,3.044-6.799,6.798c0,3.755,3.044,6.8,6.799,6.8c1.202,0,2.33-0.316,3.31-0.863
		c1.37,0.961,3.022,1.537,4.81,1.585c1.612,1.754,3.919,2.862,6.488,2.862c2.659,0,5.037-1.182,6.652-3.042
		c1.137,0.532,2.396,0.837,3.73,0.837c2.368,0,4.513-0.939,6.097-2.458c0.291,0.041,0.584,0.069,0.887,0.069
		c3.552,0,6.432-2.88,6.432-6.432S52.771,12.501,49.22,12.501z"/>
	<path fill="none" stroke="#43B7FF" stroke-width="1.2198" stroke-miterlimit="10" d="M49.22,12.501
		c-0.303,0-0.596,0.028-0.885,0.068c-1.586-1.519-3.73-2.458-6.099-2.458c-1.043,0-2.038,0.191-2.965,0.522
		c0.01-0.173,0.024-0.346,0.024-0.522c0-4.871-3.947-8.82-8.819-8.82c-4.872,0-8.821,3.949-8.821,8.82
		c0,0.1,0.012,0.196,0.016,0.293c-1.198,0.6-2.238,1.46-3.046,2.512c-0.445-0.092-0.907-0.14-1.379-0.14
		c-3.755,0-6.799,3.044-6.799,6.798c0,3.755,3.044,6.8,6.799,6.8c1.202,0,2.33-0.316,3.31-0.863c1.37,0.961,3.022,1.537,4.81,1.585
		c1.612,1.754,3.919,2.862,6.488,2.862c2.659,0,5.037-1.182,6.652-3.042c1.137,0.532,2.396,0.837,3.73,0.837
		c2.368,0,4.513-0.939,6.097-2.458c0.291,0.041,0.584,0.069,0.887,0.069c3.552,0,6.432-2.88,6.432-6.432S52.771,12.501,49.22,12.501
		z"/>
</g>
</svg>
