<?xml version="1.0" encoding="utf-8"?>
<!-- Generator: Adobe Illustrator 15.0.2, SVG Export Plug-In . SVG Version: 6.00 Build 0)  -->
<!DOCTYPE svg PUBLIC "-//W3C//DTD SVG 1.1//EN" "http://www.w3.org/Graphics/SVG/1.1/DTD/svg11.dtd">
<svg version="1.1" id="_x30_8_6_" xmlns="http://www.w3.org/2000/svg" xmlns:xlink="http://www.w3.org/1999/xlink" x="0px" y="0px"
	 width="64px" height="64px" viewBox="0 0 64 64" enable-background="new 0 0 64 64" xml:space="preserve">
<g display="none">
	<g display="inline">
		<g>
			<g>
				<path fill="#036EB5" d="M8.387,15.185c-0.139-0.028-0.277-0.056-0.417-0.083c-0.608-0.122-1.233,0.271-1.233,0.934
					c0,0.575,0.433,1.051,0.692,1.541C7.796,18.264,8.078,19,8.378,19.718C9,21.207,9.7,22.666,10.944,23.735
					c0.947,0.815,2.329-0.564,1.372-1.387c-1.02-0.877-1.573-2.04-2.1-3.253c-0.262-0.604-0.507-1.214-0.772-1.816
					c-0.096-0.218-0.754-1.402-0.754-1.231c-0.411,0.312-0.822,0.623-1.233,0.934c0.139,0.028,0.277,0.056,0.417,0.083
					C9.102,17.313,9.621,15.432,8.387,15.185L8.387,15.185z"/>
			</g>
		</g>
		<g>
			<g>
				<path fill="#036EB5" d="M20.073,26.478c0.515-0.436,1.064-0.818,1.634-1.178c1.06-0.669,0.079-2.355-0.988-1.683
					c-0.712,0.449-1.39,0.944-2.033,1.488c-0.406,0.343-0.346,1.031,0.007,1.379C19.097,26.883,19.667,26.821,20.073,26.478
					L20.073,26.478z"/>
			</g>
		</g>
		<g>
			<g>
				<path fill="#036EB5" d="M23.975,23.863c0.621-1.101,1.082-2.224,1.263-3.48c0.076-0.526-0.124-1.044-0.684-1.198
					c-0.464-0.127-1.123,0.157-1.198,0.684c-0.159,1.104-0.524,2.051-1.07,3.02C21.667,23.984,23.356,24.96,23.975,23.863
					L23.975,23.863z"/>
			</g>
		</g>
		<g>
			<g>
				<path fill="#036EB5" d="M23.521,18.044c0.18,0.862-0.122,1.743-0.332,2.574c-0.31,1.221,1.573,1.734,1.882,0.515
					c0.303-1.196,0.592-2.359,0.335-3.593C25.149,16.307,23.266,16.818,23.521,18.044L23.521,18.044z"/>
			</g>
		</g>
		<g>
			<g>
				<path fill="#036EB5" d="M10.021,18.628c0.387,1.013,0.958,1.902,1.518,2.825c0.65,1.074,2.336,0.09,1.683-0.988
					c-0.46-0.76-0.997-1.507-1.315-2.342c-0.19-0.497-0.641-0.838-1.195-0.69C10.237,17.56,9.831,18.13,10.021,18.628L10.021,18.628
					z"/>
			</g>
		</g>
		<g>
			<g>
				<path fill="#036EB5" d="M15.188,15.128c0.352,1.215,1.405,2.347,2.455,3.009c1.066,0.672,2.038-1.02,0.976-1.689
					c-0.391-0.246-0.708-0.59-1.006-0.94c-0.122-0.143-0.225-0.3-0.326-0.458c-0.064-0.1-0.12-0.204-0.174-0.309
					c-0.147-0.283,0.035,0.14-0.039-0.118C16.723,13.416,14.838,13.918,15.188,15.128L15.188,15.128z"/>
			</g>
		</g>
		<g>
			<g>
				<path fill="#036EB5" d="M15.622,15.62c0.333,0.647,0.744,1.242,1.167,1.833c0.309,0.432,0.846,0.634,1.335,0.347
					c0.428-0.25,0.656-0.902,0.347-1.335c-0.422-0.591-0.833-1.186-1.167-1.833C16.729,13.513,15.047,14.504,15.622,15.62
					L15.622,15.62z"/>
			</g>
		</g>
		<g>
			<g>
				<path fill="#036EB5" d="M6.539,16.316c2.637,1.061,4.637,3.001,7.677,2.335c1.23-0.27,0.72-2.153-0.505-1.885
					c-2.431,0.533-4.528-1.475-6.657-2.332C5.886,13.964,5.387,15.853,6.539,16.316L6.539,16.316z"/>
			</g>
		</g>
		<g>
			<g>
				<path fill="#036EB5" d="M11.455,14.703c0.643,1.466,1.401,2.916,2.937,3.601c0.485,0.216,1.046,0.139,1.333-0.357
					c0.245-0.424,0.129-1.116-0.357-1.333c-1.229-0.548-1.718-1.732-2.23-2.899c-0.214-0.487-0.918-0.592-1.335-0.347
					C11.304,13.66,11.242,14.216,11.455,14.703L11.455,14.703z"/>
			</g>
		</g>
		<g>
			<g>
				<path fill="#036EB5" d="M10.289,14.983c2.633,0.847,5.64,1.458,8.343,0.585c1.192-0.386,0.693-2.272-0.505-1.885
					c-2.389,0.772-5.002,0.165-7.324-0.582C9.603,12.714,9.096,14.599,10.289,14.983L10.289,14.983z"/>
			</g>
		</g>
		<g>
			<g>
				<path fill="#036EB5" d="M19.039,14.65c0.569,0.178,1.154,0.272,1.75,0.285c1.26,0.026,1.269-1.925,0.014-1.951
					c-0.437-0.009-0.833-0.085-1.25-0.215C18.349,12.392,17.842,14.276,19.039,14.65L19.039,14.65z"/>
			</g>
		</g>
		<g>
			<g>
				<path fill="#036EB5" d="M9.771,22.544c0.445,1.181,0.879,2.39,1.756,3.327c0.876,0.936,2.21,1.265,3.429,1.445
					c1.23,0.183,1.756-1.698,0.515-1.882c-0.909-0.135-1.886-0.288-2.571-0.95c-0.643-0.622-0.938-1.633-1.244-2.445
					C11.216,20.874,9.328,21.367,9.771,22.544L9.771,22.544z"/>
			</g>
		</g>
		<g>
			<g>
				<path fill="#036EB5" d="M3.238,14.702c-0.082,3.206,2.296,6.936,5.385,7.948c1.199,0.393,1.705-1.492,0.515-1.882
					c-2.256-0.739-4.007-3.753-3.948-6.052C5.221,13.456,3.27,13.447,3.238,14.702L3.238,14.702z"/>
			</g>
		</g>
		<g>
			<g>
				<path fill="#036EB5" d="M5.891,10.947c0.94-2.002,2.787-3.251,4.432-4.635c0.962-0.809-0.43-2.177-1.387-1.372
					C7.159,6.435,5.217,7.808,4.202,9.971C3.671,11.102,5.356,12.087,5.891,10.947L5.891,10.947z"/>
			</g>
		</g>
		<g>
			<g>
				<path fill="#036EB5" d="M6.558,9.947c1.353-2.686,4.108-4.94,7.074-5.545c1.234-0.252,0.722-2.135-0.505-1.885
					c-3.428,0.7-6.694,3.348-8.259,6.455C4.305,10.091,5.991,11.072,6.558,9.947L6.558,9.947z"/>
			</g>
		</g>
		<g>
			<g>
				<path fill="#036EB5" d="M21.438,12.878c0.347,2.107,2.313,3.552,2.55,5.657c0.14,1.236,2.092,1.261,1.951,0.014
					c-0.132-1.166-0.538-2.152-1.143-3.153c-0.593-0.981-1.284-1.864-1.474-3.023C23.118,11.132,21.235,11.648,21.438,12.878
					L21.438,12.878z"/>
			</g>
		</g>
		<g>
			<g>
				<path fill="#036EB5" d="M20.707,26.935c1.26,0,1.271-1.951,0.014-1.951C19.46,24.983,19.45,26.935,20.707,26.935L20.707,26.935z
					"/>
			</g>
		</g>
		<g>
			<g>
				<path fill="#036EB5" d="M26.869,23.554c-1.231,2.353-1.43,5.052-1.714,7.648c-0.137,1.252,1.816,1.25,1.951,0.014
					c0.246-2.243,0.388-4.651,1.453-6.686C29.14,23.417,27.453,22.438,26.869,23.554L26.869,23.554z"/>
			</g>
		</g>
		<g>
			<g>
				<path fill="#036EB5" d="M21.623,42.316c0.024,0.003,0.048,0.007,0.073,0.01c-0.228-0.229-0.457-0.459-0.685-0.688
					c0.003,0.024,0.007,0.049,0.01,0.074c0.075,0.527,0.728,0.814,1.195,0.689c0.561-0.15,0.765-0.669,0.69-1.195
					c-0.004-0.024-0.007-0.049-0.011-0.073c-0.042-0.298-0.385-0.646-0.685-0.688c-0.024-0.003-0.049-0.007-0.073-0.011
					c-0.526-0.075-1.044,0.124-1.198,0.684C20.812,41.582,21.096,42.24,21.623,42.316L21.623,42.316z"/>
			</g>
		</g>
		<g>
			<g>
				<path fill="#036EB5" d="M19.939,41.785c-0.284,1.006,0.001,1.983,0.871,2.588c0.708,0.491,1.635,0.637,2.479,0.646
					c1.26,0.013,1.27-1.938,0.014-1.951c-0.101-0.001-0.201-0.004-0.302-0.009c-0.048-0.003-0.358-0.039-0.281-0.026
					c-0.107-0.018-0.213-0.043-0.319-0.068c-0.044-0.011-0.356-0.116-0.27-0.079c-0.093-0.04-0.18-0.093-0.266-0.146
					c0.154,0.095-0.177-0.219-0.054-0.045c-0.056-0.104-0.063-0.107-0.021-0.014c-0.025-0.113-0.033-0.126-0.021-0.037
					c-0.012-0.123,0.007-0.188,0.051-0.343C22.164,41.087,20.281,40.576,19.939,41.785L19.939,41.785z"/>
			</g>
		</g>
		<g>
			<g>
				<path fill="#036EB5" d="M25.99,43.646c0.428-0.435,0.824-0.898,1.25-1.334c0.879-0.898-0.505-2.273-1.387-1.373
					c-0.426,0.437-0.823,0.899-1.25,1.334C23.722,43.169,25.105,44.544,25.99,43.646L25.99,43.646z"/>
			</g>
		</g>
		<g>
			<g>
				<path fill="#036EB5" d="M25.407,43.646c1.258-1.507,2.37-3.118,3.413-4.78c0.67-1.067-1.022-2.039-1.689-0.975
					c-0.954,1.521-1.958,3.003-3.11,4.382C23.22,43.23,24.598,44.613,25.407,43.646L25.407,43.646z"/>
			</g>
		</g>
		<g>
			<g>
				<path fill="#036EB5" d="M29.623,24.483c2.126,0.675,2.621,3.544,2.449,5.469c-0.112,1.256,1.841,1.256,1.951,0.014
					c0.257-2.882-0.884-6.413-3.885-7.365C28.935,22.219,28.428,24.104,29.623,24.483L29.623,24.483z"/>
			</g>
		</g>
		<g>
			<g>
				<path fill="#036EB5" d="M29.957,21.268c1.103-0.079,2.001,0.489,2.877,1.093c1.037,0.715,2.004-0.979,0.975-1.689
					c-1.139-0.786-2.413-1.457-3.838-1.355C28.722,19.406,28.702,21.357,29.957,21.268L29.957,21.268z"/>
			</g>
		</g>
		<g>
			<g>
				<path fill="#036EB5" d="M16.422,42.29c0.123,1.464,0.758,3.048,2.367,3.36c0.522,0.101,1.05-0.143,1.198-0.684
					c0.133-0.483-0.162-1.098-0.684-1.199c-0.689-0.133-0.876-0.815-0.93-1.464c-0.044-0.529-0.401-0.979-0.969-0.982
					C16.91,41.318,16.378,41.76,16.422,42.29L16.422,42.29z"/>
			</g>
		</g>
		<g>
			<g>
				<path fill="#036EB5" d="M29.872,21.786c0.188,0.339,0.25,0.712,0.315,1.092c0.09,0.525,0.717,0.818,1.195,0.69
					c0.549-0.147,0.779-0.671,0.69-1.195c-0.096-0.558-0.24-1.077-0.518-1.575C30.943,19.699,29.26,20.686,29.872,21.786
					L29.872,21.786z"/>
			</g>
		</g>
		<g>
			<g>
				<path fill="#036EB5" d="M29.705,21.703c0.09,0.105,0.112,0.135,0.066,0.091c0.29,1.226,2.173,0.717,1.885-0.505
					c-0.05-0.21-0.137-0.404-0.268-0.575c-0.323-0.421-0.833-0.642-1.335-0.347C29.637,20.611,29.381,21.28,29.705,21.703
					L29.705,21.703z"/>
			</g>
		</g>
		<g>
			<g>
				<path fill="#036EB5" d="M19.976,26.97c0.47,0.228,0.75,0.66,0.878,1.158c0.315,1.218,2.199,0.712,1.885-0.505
					c-0.248-0.957-0.88-1.902-1.788-2.342C19.825,24.734,18.842,26.42,19.976,26.97L19.976,26.97z"/>
			</g>
		</g>
		<g>
			<g>
				<path fill="#036EB5" d="M46.118,31.082c1.062,0.543,2.17,0.98,3.337,1.235c1.228,0.268,1.745-1.614,0.516-1.882
					c-1.01-0.22-1.958-0.572-2.878-1.042C45.977,28.821,44.995,30.508,46.118,31.082L46.118,31.082z"/>
			</g>
		</g>
		<g>
			<g>
				<path fill="#036EB5" d="M46.319,31.182c1.865,0.572,3.753,0.341,5.646,0.052c1.242-0.19,0.724-2.072-0.506-1.885
					c-1.554,0.238-3.097,0.419-4.625-0.049C45.628,28.93,45.12,30.814,46.319,31.182L46.319,31.182z"/>
			</g>
		</g>
		<g>
			<g>
				<path fill="#036EB5" d="M44.323,44.229c2.966-2.661,4.771-6.208,7.167-9.334c0.754-0.984-0.621-2.371-1.387-1.373
					c-2.391,3.118-4.213,6.685-7.167,9.334C42,43.697,43.39,45.067,44.323,44.229L44.323,44.229z"/>
			</g>
		</g>
		<g>
			<g>
				<path fill="#036EB5" d="M35.354,44.212c1.308,3.717,6.442,5.551,9.993,6.127c1.231,0.199,1.756-1.682,0.516-1.883
					c-2.729-0.442-7.595-1.822-8.624-4.75C36.824,42.527,34.937,43.023,35.354,44.212L35.354,44.212z"/>
			</g>
		</g>
		<g>
			<g>
				<path fill="#036EB5" d="M41.943,41.068c1.144,1.223,2.39,2.345,3.866,3.151c1.103,0.603,2.081-1.085,0.975-1.689
					c-1.338-0.731-2.433-1.741-3.468-2.849C42.457,38.763,41.085,40.15,41.943,41.068L41.943,41.068z"/>
			</g>
		</g>
		<g>
			<g>
				<path fill="#036EB5" d="M44.276,43.236c0.848,0.678,1.691,1.358,2.5,2.082c0.934,0.835,2.313-0.545,1.373-1.387
					c-0.81-0.724-1.652-1.405-2.5-2.082c-0.415-0.331-0.977-0.401-1.38,0.007C43.926,42.205,43.86,42.904,44.276,43.236
					L44.276,43.236z"/>
			</g>
		</g>
		<g>
			<g>
				<path fill="#036EB5" d="M45.206,39.769c3.578-0.063,7.089-0.854,10.667-0.918c1.258-0.022,1.271-1.974,0.014-1.951
					c-3.578,0.063-7.088,0.855-10.667,0.918C43.962,37.839,43.948,39.79,45.206,39.769L45.206,39.769z"/>
			</g>
		</g>
		<g>
			<g>
				<path fill="#036EB5" d="M50.633,32.984c1.484-0.205,3.197-0.002,4.427,0.902c1.013,0.746,1.978-0.952,0.975-1.689
					c-1.654-1.218-3.938-1.369-5.907-1.098C48.884,31.271,49.403,33.153,50.633,32.984L50.633,32.984z"/>
			</g>
		</g>
		<g>
			<g>
				<path fill="#036EB5" d="M20.868,60.864c-3.636-2.756-6.01-7.841-4.875-12.392c1.837-7.367,10.121-4.909,13.183-0.153
					c3.267,5.073-2.206,11.373-7.426,11.49c-5.724,0.128-6.085-6.746-4.436-10.561c0.903-2.089,2.583-3.763,4.757-4.448
					c3.364-1.062,5.89,2.599,6.849,5.207c1.984,5.398-2.338,12.053-8.413,9.436c-3.945-1.699-4.908-9.092-4.275-12.675
					c1.101-6.23,8.229-5.545,11.879-2.366c0.943,0.821,2.324-0.558,1.372-1.387c-4.392-3.825-12.79-4.713-14.854,2.293
					c-1.552,5.266,0.359,15.754,7.133,16.561c7.835,0.932,11.067-6.859,8.688-13.333c-2.298-6.251-10.051-7.776-13.817-1.971
					c-3.309,5.1-3.329,12.698,3.29,14.927c5.897,1.984,13.13-4.951,12.06-10.868c-1.115-6.163-9.242-12.257-14.875-7.13
					c-5.408,4.923-3.688,14.151,1.909,18.395c0.292,0.222,0.585,0.443,0.877,0.665C20.894,63.313,21.857,61.614,20.868,60.864
					L20.868,60.864z"/>
			</g>
		</g>
		<g>
			<g>
				<path fill="#036EB5" d="M17.493,25.059c0.845,0.027,1.737-0.107,2.337-0.758c0.552-0.599,0.691-1.444,0.86-2.21
					c0.271-1.227-1.61-1.744-1.882-0.515c-0.059,0.266-0.116,0.533-0.181,0.797c-0.032,0.129-0.07,0.257-0.112,0.383
					c-0.041,0.109-0.042,0.117-0.004,0.021c-0.024,0.052-0.05,0.102-0.079,0.15c-0.072,0.129,0.08-0.059-0.102,0.113
					c0.191-0.181-0.226,0.074-0.006-0.006c-0.281,0.103-0.486,0.083-0.819,0.072C16.247,23.067,16.239,25.019,17.493,25.059
					L17.493,25.059z"/>
			</g>
		</g>
		<g>
			<g>
				<path fill="#036EB5" d="M8.659,22.607c0.548,0.146,1.071,0.358,1.488,0.752c0.913,0.861,2.29-0.521,1.372-1.387
					c-0.659-0.622-1.475-1.016-2.346-1.248C7.956,20.401,7.444,22.284,8.659,22.607L8.659,22.607z"/>
			</g>
		</g>
		<g>
			<g>
				<path fill="#036EB5" d="M16.66,27.392c0.224-0.017,0.444-0.066,0.667-0.083c0.529-0.04,0.979-0.405,0.982-0.969
					c0.003-0.499-0.438-1.022-0.969-0.982c-0.224,0.017-0.444,0.066-0.667,0.083c-0.529,0.04-0.979,0.405-0.982,0.969
					C15.688,26.908,16.129,27.432,16.66,27.392L16.66,27.392z"/>
			</g>
		</g>
		<g>
			<g>
				<path fill="#036EB5" d="M22.441,24.924c0.23-0.623,0.796-1.114,1.252-1.571c0.889-0.889-0.496-2.264-1.387-1.372
					c-0.721,0.722-1.389,1.458-1.748,2.429c-0.185,0.5,0.204,1.067,0.684,1.198C21.789,25.757,22.257,25.422,22.441,24.924
					L22.441,24.924z"/>
			</g>
		</g>
		<g>
			<g>
				<path fill="#036EB5" d="M21.314,29.943c0.842,0.655,1.785,0.864,2.786,0.421c0.914-0.404,1.554-1.25,1.841-2.191
					c0.369-1.207-1.516-1.715-1.882-0.515c-0.145,0.474-0.798,1.345-1.373,0.897c-0.418-0.326-0.973-0.405-1.379,0.007
					C20.966,28.909,20.893,29.616,21.314,29.943L21.314,29.943z"/>
			</g>
		</g>
		<g>
			<g>
				<path fill="#036EB5" d="M26.941,25.674c0.249-1.104,0.207-2.211,0.201-3.333c-0.006-1.259-1.958-1.271-1.951-0.014
					c0.005,0.945,0.078,1.904-0.132,2.833C24.783,26.385,26.664,26.901,26.941,25.674L26.941,25.674z"/>
			</g>
		</g>
		<g>
			<g>
				<path fill="#036EB5" d="M38.478,47.349c1.018-0.813,2.099-1.54,3.184-2.257c1.044-0.69,0.064-2.379-0.988-1.684
					c-1.228,0.812-2.432,1.649-3.582,2.567c-0.416,0.332-0.338,1.04,0.007,1.38C37.509,47.761,38.063,47.68,38.478,47.349
					L38.478,47.349z"/>
			</g>
		</g>
		<g>
			<g>
				<path fill="#036EB5" d="M46.026,40.937c2.796-2.913,5.282-6.091,7.849-9.202c0.793-0.961-0.584-2.345-1.387-1.372
					c-2.567,3.111-5.054,6.288-7.849,9.201C43.77,40.47,45.153,41.847,46.026,40.937L46.026,40.937z"/>
			</g>
		</g>
		<g>
			<g>
				<path fill="#036EB5" d="M46.91,31.476c1.661,0.029,3.271,0.359,4.926,0.05c1.237-0.231,0.723-2.114-0.506-1.885
					c-1.45,0.271-2.946-0.091-4.406-0.117C45.663,29.502,45.654,31.454,46.91,31.476L46.91,31.476z"/>
			</g>
		</g>
		<g>
			<g>
				<path fill="#036EB5" d="M44.492,50.774c2.233,0.646,4.359,0.647,6.594,0.001c1.206-0.35,0.704-2.235-0.506-1.885
					c-1.921,0.557-3.65,0.558-5.572,0.001C43.796,48.541,43.286,50.425,44.492,50.774L44.492,50.774z"/>
			</g>
		</g>
		<g>
			<g>
				<path fill="#036EB5" d="M49.575,47.274c1.336,0.466,3.044,0.417,4.071,1.502c0.866,0.913,2.238-0.474,1.373-1.387
					c-1.324-1.397-3.224-1.402-4.929-1.998C48.899,44.977,48.396,46.862,49.575,47.274L49.575,47.274z"/>
			</g>
		</g>
		<g>
			<g>
				<path fill="#036EB5" d="M51.326,51.143c1.505,0.164,2.519-1.416,3.102-2.572c0.564-1.119-1.121-2.101-1.689-0.975
					c-0.185,0.364-0.378,0.744-0.629,1.068c-0.12,0.154-0.309,0.362-0.432,0.448c-0.005,0.004-0.299,0.132-0.164,0.089
					c0.121-0.039-0.143-0.007-0.174-0.01c-0.529-0.058-0.979,0.478-0.982,0.969C50.354,50.732,50.798,51.085,51.326,51.143
					L51.326,51.143z"/>
			</g>
		</g>
		<g>
			<g>
				<path fill="#036EB5" d="M15.654,55.405c-2.017-1.212-1.124-4.905-0.63-6.73c0.329-1.217-1.554-1.729-1.882-0.516
					c-0.761,2.816-1.431,7.152,1.536,8.936C15.759,57.743,16.732,56.053,15.654,55.405L15.654,55.405z"/>
			</g>
		</g>
		<g>
			<g>
				<path fill="#036EB5" d="M14.589,44.825c-2.33,1.765-2.313,4.989-2.084,7.664c0.299,3.506,2.379,6.321,5.654,7.535
					c1.183,0.438,1.684-1.449,0.515-1.883c-2.397-0.888-3.579-2.754-4.137-5.163c-0.402-1.735-0.537-5.276,1.041-6.47
					C16.566,45.76,15.593,44.065,14.589,44.825L14.589,44.825z"/>
			</g>
		</g>
		<g>
			<g>
				<path fill="#036EB5" d="M15.524,26.743c0.046,0.367,0.126,0.587,0.373,0.867c0.831,0.945,2.2-0.446,1.372-1.387
					c-0.024-0.028-0.049-0.056-0.073-0.083c0.096,0.233,0.193,0.467,0.289,0.7c-0.003-0.028-0.007-0.056-0.01-0.083
					c-0.066-0.527-0.385-0.979-0.969-0.982C16.029,25.771,15.458,26.214,15.524,26.743L15.524,26.743z"/>
			</g>
		</g>
		<g>
			<g>
				<path fill="#036EB5" d="M28.493,23.726c0.821,0,1.641-0.009,2.353,0.453c1.058,0.686,2.028-1.007,0.976-1.689
					c-0.993-0.644-2.165-0.713-3.314-0.714C27.247,21.773,27.236,23.725,28.493,23.726L28.493,23.726z"/>
			</g>
		</g>
		<g>
			<g>
				<path fill="#036EB5" d="M25.524,28.577c0.661,5.286-0.342,10.574,1.884,15.584c0.51,1.146,2.188,0.15,1.683-0.988
					c-2.047-4.607-1.007-9.719-1.616-14.583C27.321,27.359,25.369,27.333,25.524,28.577L25.524,28.577z"/>
			</g>
		</g>
		<g>
			<g>
				<path fill="#036EB5" d="M31.358,27.577c0.061,4.978,0.826,9.979-0.132,14.916c-0.239,1.229,1.642,1.75,1.882,0.516
					c0.994-5.121,0.265-10.252,0.202-15.417C33.294,26.332,31.342,26.319,31.358,27.577L31.358,27.577z"/>
			</g>
		</g>
		<g>
			<g>
				<path fill="#036EB5" d="M31.223,43.813c-1.033,1.28-2.486,0.004-3.485-0.741c-0.325,0.563-0.65,1.126-0.976,1.689
					c0.997,0.651,2.026,1.146,3.231,1.214c1.259,0.07,1.264-1.881,0.014-1.951c-0.853-0.048-1.572-0.497-2.269-0.952
					c-1.074-0.702-1.958,0.957-0.976,1.689c1.751,1.306,4.156,2.52,5.848,0.425C33.392,44.218,32.015,42.833,31.223,43.813
					L31.223,43.813z"/>
			</g>
		</g>
		<g>
			<g>
				<path fill="#036EB5" d="M21.109,26.581c-0.009-0.032-0.019-0.063-0.027-0.096c-0.628,0.168-1.256,0.336-1.884,0.505
					c0.264,0.715,0.474,1.512,0.61,2.262c0.095,0.524,0.713,0.819,1.195,0.69c0.545-0.146,0.785-0.672,0.69-1.195
					c-0.136-0.75-0.346-1.547-0.61-2.262c-0.429-1.164-2.178-0.737-1.884,0.505c0.008,0.032,0.018,0.064,0.026,0.096
					C19.568,28.295,21.453,27.792,21.109,26.581L21.109,26.581z"/>
			</g>
		</g>
		<g>
			<g>
				<path fill="#036EB5" d="M19.224,26.752c0.544,3.382,1.67,6.572,2.917,9.75c0.455,1.157,2.344,0.665,1.885-0.506
					c-1.248-3.178-2.374-6.368-2.917-9.75C20.909,25.006,19.027,25.523,19.224,26.752L19.224,26.752z"/>
			</g>
		</g>
		<g>
			<g>
				<path fill="#036EB5" d="M22.647,37.776c0.915,0.95,2.113,1.294,3.281,1.818c0.485,0.218,1.046,0.139,1.333-0.357
					c0.246-0.425,0.129-1.114-0.357-1.332c-0.988-0.443-2.113-0.715-2.885-1.516C23.147,35.483,21.774,36.87,22.647,37.776
					L22.647,37.776z"/>
			</g>
		</g>
		<g>
			<g>
				<path fill="#036EB5" d="M19.393,28.576c-0.75,1.83-0.641,4.032-0.852,5.976c-0.301,2.764-0.354,5.514-0.016,8.274
					c0.151,1.232,2.104,1.258,1.951,0.014c-0.297-2.425-0.27-4.807-0.082-7.239c0.156-2.026,0.109-4.625,0.881-6.51
					C21.751,27.926,19.863,27.428,19.393,28.576L19.393,28.576z"/>
			</g>
		</g>
		<g>
			<g>
				<path fill="#036EB5" d="M24.239,37.93c-0.333,0.767-0.584,1.566-0.917,2.333c-0.211,0.487-0.143,1.044,0.357,1.332
					c0.421,0.243,1.121,0.132,1.333-0.357c0.333-0.767,0.584-1.566,0.917-2.333c0.211-0.487,0.143-1.044-0.357-1.332
					C25.15,37.329,24.451,37.44,24.239,37.93L24.239,37.93z"/>
			</g>
		</g>
		<g>
			<g>
				<path fill="#036EB5" d="M32.075,44.161c1.49,1.935,3.48,2.623,5.75,3.28c1.212,0.35,1.722-1.533,0.516-1.883
					c-1.691-0.488-3.454-0.92-4.583-2.386C33.002,42.191,31.308,43.164,32.075,44.161L32.075,44.161z"/>
			</g>
		</g>
		<g>
			<g>
				<path fill="#036EB5" d="M40.61,46.187c1.012-0.848,1.98-1.741,2.833-2.75c0.806-0.954-0.572-2.336-1.387-1.373
					c-0.854,1.01-1.821,1.903-2.833,2.75c-0.408,0.342-0.344,1.033,0.007,1.38C39.635,46.593,40.203,46.527,40.61,46.187
					L40.61,46.187z"/>
			</g>
		</g>
		<g>
			<g>
				<path fill="#036EB5" d="M21.429,28.595c1.142,0.818,2.513,0.033,3.405-0.764c0.607-0.542,1.896-1.977,0.936-2.774
					c-0.959-0.797-2.342,0.581-1.372,1.387c-0.042-0.053-0.083-0.106-0.125-0.16c-0.044-0.167-0.089-0.334-0.134-0.501
					c0.009,0.091,0.138-0.381,0.042-0.192c-0.053,0.103-0.121,0.199-0.188,0.293c-0.053,0.075-0.376,0.417-0.545,0.576
					c-0.214,0.2-0.455,0.354-0.716,0.485c0.113-0.057-0.322,0.06-0.133,0.042c-0.119-0.004-0.137-0.001-0.052,0.008
					c0.12,0.023-0.111-0.066-0.142-0.088c-0.433-0.31-1.086-0.069-1.333,0.357C20.787,27.756,20.997,28.285,21.429,28.595
					L21.429,28.595z"/>
			</g>
		</g>
		<g>
			<g>
				<path fill="#036EB5" d="M22.059,29.909c-0.467,1.924,0.333,4.332,1.1,6.085c0.415,0.948,1.772,0.388,1.817-0.487
					c0.097-1.891,0.342-3.744,0.799-5.583c-0.639-0.088-1.278-0.176-1.917-0.264c0.052,2.463-0.268,4.914,0.283,7.343
					c0.237,1.043,1.547,0.823,1.883,0.005c0.906-2.206-0.473-4.582-0.382-6.834c-0.639,0.082-1.278,0.164-1.918,0.246
					c0.239,1.542,0.38,3.085,0.833,4.584c0.364,1.201,2.249,0.7,1.885-0.506c-0.454-1.499-0.595-3.042-0.833-4.583
					c-0.175-1.128-1.875-0.808-1.918,0.246c-0.082,2.034,1.247,4.395,0.452,6.333c0.627,0.002,1.255,0.004,1.883,0.005
					c-0.509-2.242-0.168-4.547-0.217-6.824c-0.023-1.088-1.644-1.362-1.917-0.264c-0.496,1.999-0.763,4.027-0.868,6.084
					c0.605-0.162,1.211-0.325,1.817-0.487c-0.54-1.234-1.228-3.231-0.9-4.582C24.238,29.201,22.355,28.686,22.059,29.909
					L22.059,29.909z"/>
			</g>
		</g>
		<g>
			<g>
				<path fill="#036EB5" d="M41.747,32.696c1.755,1.37,3.671,2.491,5.516,3.731c0.813,0.547,1.844-0.535,1.329-1.339
					c-0.748-1.167-1.522-2.236-2.688-3.017c-1.047-0.702-2.015,0.992-0.975,1.689c0.869,0.583,1.424,1.45,1.979,2.316
					c0.443-0.446,0.887-0.893,1.329-1.339c-1.703-1.146-3.497-2.164-5.117-3.429C42.142,30.545,40.755,31.921,41.747,32.696
					L41.747,32.696z"/>
			</g>
		</g>
		<g>
			<g>
				<path fill="#036EB5" d="M43.099,32.835c1.021,0.073,2.038,0.183,3.062,0.224c0.895,0.035,1.251-1.069,0.693-1.669
					c-0.285-0.307-0.569-0.604-0.901-0.861c-0.42-0.325-0.972-0.406-1.38,0.007c-0.34,0.344-0.414,1.054,0.007,1.379
					c0.332,0.257,0.616,0.554,0.901,0.861c0.231-0.556,0.463-1.113,0.693-1.669c-1.022-0.041-2.04-0.151-3.062-0.224
					C41.854,30.794,41.852,32.747,43.099,32.835L43.099,32.835z"/>
			</g>
		</g>
		<g>
			<g>
				<path fill="#036EB5" d="M43.015,32.698c1.554,0.876,3.062,1.773,4.299,3.078c0.392-0.513,0.783-1.025,1.174-1.538
					c-1.896-1.358-3.958-2.406-6.228-2.972c-1.222-0.305-1.736,1.578-0.516,1.882c2.119,0.528,4,1.513,5.769,2.779
					c0.932,0.668,1.907-0.765,1.174-1.538c-1.348-1.421-3.003-2.426-4.697-3.381C42.894,30.391,41.917,32.08,43.015,32.698
					L43.015,32.698z"/>
			</g>
		</g>
		<g>
			<g>
				<path fill="#036EB5" d="M40.979,33.787c0.888,0.998,2.011,1.64,3.347,1.771c0.761,0.075,1.198-0.873,0.849-1.47
					c-0.538-0.916-1.209-1.745-1.977-2.478c-0.908-0.867-2.285,0.516-1.373,1.387c0.653,0.624,1.209,1.299,1.666,2.08
					c0.283-0.49,0.566-0.979,0.849-1.47c-0.816-0.081-1.463-0.617-1.987-1.207C41.516,31.46,40.146,32.85,40.979,33.787
					L40.979,33.787z"/>
			</g>
		</g>
		<g>
			<g>
				<path fill="#036EB5" d="M35.495,23.511c-1.686-1.279-3.266-2.764-5.404-3.202c-0.684-0.14-1.437,0.445-1.2,1.193
					c1.2,3.778,5.402,5.553,8.177,7.988c0.941,0.825,2.321-0.555,1.373-1.387c-2.411-2.115-6.633-3.854-7.666-7.106
					c-0.4,0.398-0.8,0.795-1.2,1.193c1.948,0.399,3.406,1.844,4.944,3.01C35.521,25.96,36.484,24.261,35.495,23.511L35.495,23.511z"
					/>
			</g>
		</g>
		<g>
			<g>
				<path fill="#036EB5" d="M41.832,32.464c0.775,2.928,0.103,5.889,0.109,8.862c0.003,1.283,1.821,1.239,1.951,0.014
					c0.303-2.846-1.019-5.935,0.369-8.602c-0.563,0.002-1.124,0.004-1.687,0.006c1.919,2.555,0.444,5.956,0.199,8.832
					c-0.103,1.198,1.533,1.199,1.917,0.265c0.977-2.385,0.667-5.33,2.335-7.404c-0.545-0.145-1.09-0.289-1.636-0.434
					c0.287,2.068-0.87,3.956-1.582,5.822c-0.412,1.082,1.214,1.633,1.786,0.745c1.621-2.515,3.571-4.618,6.316-5.896
					c0.749-0.349,0.567-1.636-0.236-1.783c-2.187-0.401-4.096-1.286-5.956-2.486c-1.059-0.684-2.029,1.009-0.975,1.689
					c1.993,1.287,4.071,2.249,6.415,2.679c-0.078-0.595-0.157-1.188-0.236-1.783c-3.036,1.414-5.228,3.827-7.018,6.604
					c0.596,0.248,1.19,0.496,1.786,0.745c0.882-2.314,1.936-4.307,1.584-6.844c-0.099-0.707-1.199-0.977-1.636-0.434
					c-1.967,2.446-1.689,5.476-2.831,8.262c0.64,0.089,1.278,0.177,1.917,0.265c0.281-3.294,1.745-6.887-0.467-9.834
					c-0.411-0.546-1.314-0.708-1.687,0.006c-1.617,3.108-0.281,6.274-0.631,9.564c0.65,0.005,1.301,0.009,1.951,0.014
					c-0.007-3.165,0.648-6.264-0.176-9.381C43.395,30.743,41.511,31.248,41.832,32.464L41.832,32.464z"/>
			</g>
		</g>
		<g>
			<g>
				<path fill="#036EB5" d="M39.611,33.421c0.052,3.525-0.912,7.527,1.38,10.573c0.531,0.705,1.453,0.582,1.783-0.236
					c1.521-3.777-0.036-7.647,0.314-11.547c0.113-1.256-1.84-1.256-1.951-0.014c-0.334,3.711,1.198,7.461-0.246,11.045
					c0.595-0.078,1.188-0.157,1.783-0.236c-2.039-2.707-1.066-6.427-1.112-9.571C41.544,32.176,39.593,32.164,39.611,33.421
					L39.611,33.421z"/>
			</g>
		</g>
		<g>
			<g>
				<path fill="#036EB5" d="M38.139,31.794c0.157,4.249-0.569,8.515,1.437,12.45c0.327,0.642,1.361,0.628,1.687-0.007
					c1.833-3.578,0.208-7.246-0.085-10.978c-0.098-1.247-2.05-1.267-1.951-0.014c0.254,3.235,1.928,6.93,0.347,10.017
					c0.563-0.003,1.124-0.005,1.687-0.007c-1.809-3.548-1.027-7.622-1.169-11.448C40.043,30.552,38.092,30.537,38.139,31.794
					L38.139,31.794z"/>
			</g>
		</g>
		<g>
			<g>
				<path fill="#036EB5" d="M36.661,28.986c0.257,5.206-1.338,11.563,1.997,16.091c0.512,0.694,1.481,0.598,1.783-0.236
					c1.677-4.637-1.073-9.438-1.044-14.124c0.008-1.26-1.943-1.271-1.951-0.014c-0.027,4.475,2.693,9.253,1.112,13.622
					c0.595-0.078,1.188-0.157,1.783-0.236C37.266,39.914,38.851,33.827,38.612,29C38.551,27.747,36.6,27.729,36.661,28.986
					L36.661,28.986z"/>
			</g>
		</g>
		<g>
			<g>
				<path fill="#036EB5" d="M34.946,25.524c0.652,6.83-0.979,13.752,2.212,20.137c0.375,0.749,1.605,0.565,1.783-0.236
					c0.482-2.188,0.121-4.095-0.37-6.253c-0.813-3.568-0.691-7.267-0.205-10.865c0.168-1.246-1.785-1.241-1.951-0.014
					c-0.39,2.888-0.444,5.691-0.177,8.593c0.249,2.706,1.426,5.286,0.82,8.023c0.595-0.078,1.188-0.157,1.783-0.236
					c-2.989-5.979-1.333-12.738-1.944-19.135C36.779,24.296,34.827,24.274,34.946,25.524L34.946,25.524z"/>
			</g>
		</g>
		<g>
			<g>
				<path fill="#036EB5" d="M30.314,23.027c4.583,5.778,3.054,13.666,4.494,20.476c0.226,1.066,2.019,0.854,1.918-0.246
					c-0.54-5.925-2.215-11.684-2.083-17.667c-0.65-0.004-1.301-0.009-1.951-0.014c0.385,6.307,1.372,12.453,3.199,18.509
					c0.326,1.079,1.842,0.845,1.918-0.246c0.072-1.026,0.606-3.583-0.703-4.224c-0.385-0.188-0.873-0.18-1.182,0.159
					c-1.122,1.232-0.613,3.238,0.067,4.552c0.468,0.899,1.772,0.427,1.817-0.487c0.301-6.154-2.679-11.956-1.22-18.095
					c0.29-1.224-1.592-1.739-1.883-0.515c-1.52,6.395,1.464,12.215,1.151,18.596c0.605-0.162,1.211-0.325,1.817-0.487
					c-0.402-0.679-0.527-1.39-0.376-2.135c-0.447,0.093-0.895,0.186-1.342,0.279c0.019,0.782-0.015,1.563-0.1,2.343
					c0.64-0.082,1.278-0.164,1.918-0.246c-1.776-5.888-2.759-11.851-3.133-17.99c-0.076-1.247-1.923-1.281-1.951-0.014
					c-0.132,5.999,1.542,11.727,2.083,17.667c0.64-0.082,1.278-0.164,1.918-0.246c-1.55-7.328-0.063-15.125-5.006-21.357
					C30.906,20.657,29.541,22.052,30.314,23.027L30.314,23.027z"/>
			</g>
		</g>
		<g>
			<g>
				<path fill="#036EB5" d="M34.729,45.842c0.171-1.726,0.167-3.468,0.546-5.167c-0.595,0.078-1.188,0.157-1.783,0.236
					c0.919,1.449,0.652,3.235,0.468,4.855c-0.143,1.251,1.811,1.249,1.951,0.014c0.228-1.993,0.386-4.087-0.735-5.857
					c-0.43-0.678-1.591-0.624-1.783,0.236c-0.415,1.867-0.427,3.773-0.614,5.669C32.653,47.082,34.606,47.082,34.729,45.842
					L34.729,45.842z"/>
			</g>
		</g>
		<g>
			<g>
				<path fill="#036EB5" d="M35.298,45.825c-0.179-3.008-0.829-6.015-0.023-8.984c-0.64-0.089-1.278-0.177-1.917-0.265
					c0.089,3.11-1.057,6.09-0.779,9.21c0.11,1.243,2.063,1.266,1.951,0.014c-0.276-3.113,0.868-6.099,0.779-9.21
					c-0.031-1.095-1.621-1.354-1.917-0.265c-0.855,3.155-0.234,6.289-0.045,9.486C33.421,47.063,35.372,47.081,35.298,45.825
					L35.298,45.825z"/>
			</g>
		</g>
		<g>
			<g>
				<path fill="#036EB5" d="M35.942,41.247c-0.26-0.768-0.45-1.533-0.583-2.333c-0.628,0.169-1.257,0.337-1.885,0.506
					c0.452,2.038,0.286,4.1,0,6.149c-0.171,1.23,1.709,1.758,1.883,0.516c0.335-2.408,0.532-4.775,0.002-7.171
					c-0.276-1.245-2.086-0.712-1.885,0.506c0.133,0.799,0.324,1.564,0.583,2.333C34.458,42.938,36.345,42.44,35.942,41.247
					L35.942,41.247z"/>
			</g>
		</g>
		<g>
			<g>
				<path fill="#036EB5" d="M32.423,20.024c-0.194,0-0.389,0-0.583,0c-0.951,0-1.377,1.355-0.495,1.82
					c3.497,1.842,4.879,7.16,6.313,10.483c0.497,1.151,2.176,0.153,1.684-0.988c-1.609-3.727-3.124-9.132-7.021-11.184
					c-0.165,0.607-0.33,1.213-0.495,1.82c0.194,0,0.389,0,0.583,0C33.669,21.976,33.681,20.024,32.423,20.024L32.423,20.024z"/>
			</g>
		</g>
		<g>
			<g>
				<path fill="#036EB5" d="M31.48,21.693c2.011,2.129,3.781,4.427,5.402,6.865c1.006,1.512,1.618,3.651,3.085,4.815
					c0.666,0.528,1.599,0.205,1.662-0.687c0.004-0.06,0.009-0.119,0.013-0.179c0.09-1.258-1.862-1.261-1.951-0.014
					c-0.004,0.06-0.009,0.119-0.013,0.179c0.554-0.229,1.107-0.458,1.661-0.687c-1.598-1.268-2.538-4.09-3.69-5.772
					c-1.437-2.094-3.055-4.062-4.797-5.907C31.989,19.392,30.617,20.779,31.48,21.693L31.48,21.693z"/>
			</g>
		</g>
		<g>
			<g>
				<path fill="#036EB5" d="M46.375,28.771c-2.823,0.601-5.646,1.058-8.535,1.17c-1.054,0.041-1.402,1.735-0.265,1.917
					c2.851,0.455,5.693,0.902,8.585,0.952c1.186,0.021,1.232-1.526,0.265-1.917c-2.859-1.154-6.389-2.389-9.511-1.918
					c-0.723,0.109-0.955,1.181-0.434,1.636c1.625,1.417,3.596,1.732,5.68,1.949c1.253,0.131,1.252-1.822,0.014-1.951
					c-1.531-0.16-3.113-0.332-4.32-1.385c-0.145,0.545-0.289,1.09-0.434,1.636c2.691-0.406,6.028,0.922,8.489,1.916
					c0.089-0.639,0.177-1.278,0.265-1.917c-2.724-0.047-5.397-0.454-8.083-0.882c-0.089,0.639-0.177,1.278-0.265,1.917
					c3.061-0.119,6.062-0.601,9.055-1.236C48.112,30.394,47.602,28.511,46.375,28.771L46.375,28.771z"/>
			</g>
		</g>
		<g>
			<g>
				<path fill="#036EB5" d="M35.492,29.191c4.324,0.782,8.583,1.703,13.001,1.618c1.258-0.024,1.271-1.975,0.014-1.951
					c-4.248,0.082-8.342-0.797-12.499-1.549C34.777,27.086,34.255,28.967,35.492,29.191L35.492,29.191z"/>
			</g>
		</g>
		<g>
			<g>
				<path fill="#036EB5" d="M27.994,44.509c2.67-1.733,4.354-4.711,5.684-7.521c0.543-1.145-0.961-1.999-1.689-0.975
					c-1.854,2.606-3.692,5.504-4.131,8.73c-0.089,0.653,0.675,1.082,1.228,0.949c2.036-0.492,2.791-3.39,3.759-4.955
					c-0.595-0.248-1.19-0.496-1.786-0.745c-0.679,1.794-1.865,3.321-2.167,5.25c-0.14,0.896,0.618,1.444,1.435,1.1
					c1.012-0.429,1.778-1.215,2.616-1.905c-0.513-0.392-1.025-0.783-1.538-1.174c-0.244,0.461-0.437,0.877-0.513,1.396
					c-0.127,0.871,0.914,1.758,1.634,0.944c0.511-0.578,0.906-1.165,1.234-1.866c0.53-1.131-1.154-2.115-1.689-0.975
					c-0.262,0.558-0.515,0.998-0.932,1.468c0.544,0.315,1.089,0.63,1.634,0.944c0.015-0.34,0.122-0.652,0.32-0.938
					c0.543-1.024-0.702-1.863-1.538-1.174c-0.715,0.59-1.354,1.23-2.217,1.595c0.479,0.367,0.957,0.733,1.435,1.1
					c0.297-1.899,1.494-3.475,2.167-5.25c0.407-1.073-1.225-1.652-1.786-0.745c-0.587,0.949-1.409,3.764-2.574,4.045
					c0.409,0.316,0.819,0.633,1.228,0.949c0.385-2.83,2.25-5.493,3.869-7.77c-0.563-0.325-1.126-0.649-1.689-0.975
					c-1.174,2.479-2.619,5.279-4.983,6.813C25.956,43.508,26.936,45.195,27.994,44.509L27.994,44.509z"/>
			</g>
		</g>
		<g>
			<g>
				<path fill="#036EB5" d="M57.166,35.019c0.535-0.224,2.951-1.486,3.409-0.857c0.733,1.005,2.426,0.03,1.684-0.988
					c-1.388-1.901-3.861-0.763-5.599-0.039C55.518,33.611,56.007,35.501,57.166,35.019L57.166,35.019z"/>
			</g>
		</g>
		<g>
			<g>
				<path fill="#036EB5" d="M58.339,36.491c-0.126,0.087-0.251,0.172-0.354,0.286c-0.294,0.324-0.379,0.791-0.147,1.18
					c0.023,0.04,0.047,0.08,0.07,0.12c0.201,0.339,0.697,0.608,1.095,0.448c1.674-0.679,2.635-2.346,3.592-3.788
					c0.696-1.05-0.997-2.019-1.689-0.975c-0.353,0.53-0.699,1.064-1.077,1.578c-0.327,0.445-0.798,1.084-1.331,1.3
					c0.365,0.149,0.729,0.299,1.095,0.448c-0.024-0.04-0.048-0.08-0.071-0.12c-0.05,0.394-0.099,0.787-0.148,1.181
					c-0.015,0.008-0.03,0.017-0.045,0.025C60.358,37.47,59.381,35.78,58.339,36.491L58.339,36.491z"/>
			</g>
		</g>
		<g>
			<g>
				<path fill="#036EB5" d="M54.993,39.643c0.647,0.074,1.305-0.007,1.927-0.2c1.197-0.373,0.697-2.259-0.506-1.885
					c-0.477,0.148-0.91,0.19-1.407,0.134c-0.529-0.061-0.979,0.479-0.982,0.969C54.021,39.234,54.465,39.582,54.993,39.643
					L54.993,39.643z"/>
			</g>
		</g>
		<g>
			<g>
				<path fill="#036EB5" d="M56.604,32.307c-0.021-0.024-0.042-0.049-0.063-0.073c-0.145,0.545-0.289,1.091-0.434,1.636
					c0.021-0.004,0.042-0.007,0.063-0.011c0.525-0.087,0.816-0.719,0.689-1.194c-0.148-0.551-0.671-0.776-1.195-0.69
					c-0.021,0.004-0.042,0.007-0.063,0.011c-0.792,0.131-0.867,1.133-0.434,1.635c0.021,0.024,0.042,0.049,0.063,0.073
					c0.348,0.402,1.029,0.349,1.38-0.007C57.006,33.286,56.95,32.709,56.604,32.307L56.604,32.307z"/>
			</g>
		</g>
	</g>
	<g display="inline">
		<g>
			<path fill="#036EB5" d="M30.25,2.368c0,0.042,0,0.083,0,0.125c0,1.292,2,1.303,2,0.015c0-0.042,0-0.083,0-0.125
				C32.25,1.091,30.25,1.079,30.25,2.368L30.25,2.368z"/>
		</g>
	</g>
	<g display="inline">
		<g>
			<path fill="#036EB5" d="M31.118,3.125c1.292,0,1.303-2,0.015-2C29.841,1.125,29.829,3.125,31.118,3.125L31.118,3.125z"/>
		</g>
	</g>
	<g display="inline">
		<g>
			<path fill="#036EB5" d="M28.74,9.714c-0.17-2.24,0.363-4.38,1.971-6.011c0.904-0.918-0.515-2.328-1.422-1.407
				C27.341,4.274,26.531,6.959,26.74,9.7C26.837,10.979,28.838,10.999,28.74,9.714L28.74,9.714z"/>
		</g>
	</g>
	<g display="inline">
		<g>
			<path fill="#036EB5" d="M31.618,3.625c0.208,0,0.417,0,0.625,0c1.292,0,1.303-2,0.015-2c-0.208,0-0.417,0-0.625,0
				C30.341,1.625,30.329,3.625,31.618,3.625L31.618,3.625z"/>
		</g>
	</g>
	<g display="inline">
		<g>
			<path fill="#036EB5" d="M31.375,3.366c6.215,3.754,8.741,10.122,10.784,16.768c0.378,1.23,2.312,0.717,1.932-0.518
				c-2.205-7.173-5.032-13.945-11.716-17.982C31.27,0.966,30.271,2.699,31.375,3.366L31.375,3.366z"/>
		</g>
	</g>
	<g display="inline">
		<g>
			<path fill="#036EB5" d="M42.578,17.789c-0.027-0.029-0.056-0.059-0.083-0.088c0.099,0.239,0.198,0.479,0.297,0.718
				c0-0.011,0-0.022,0-0.033c-0.336,0.331-0.672,0.662-1.008,0.993c0.028-0.001,0.056-0.003,0.084-0.005
				c1.283-0.071,1.302-2.072,0.014-2c-0.027,0.001-0.056,0.003-0.083,0.004c-0.541,0.03-1.008,0.423-1.008,0.993
				c0,0.35,0.147,0.593,0.381,0.838C42.059,20.147,43.466,18.725,42.578,17.789L42.578,17.789z"/>
		</g>
	</g>
	<g display="inline">
		<g>
			<path fill="#036EB5" d="M41.618,19.375c1.291,0,1.303-2,0.014-2C40.341,17.375,40.329,19.375,41.618,19.375L41.618,19.375z"/>
		</g>
	</g>
	<g display="inline">
		<g>
			<path fill="#036EB5" d="M42.134,19.341c3.005-0.395,7.074,1.546,9.163,3.62c0.914,0.908,2.323-0.511,1.406-1.422
				c-2.65-2.632-7.333-4.624-11.087-4.13C40.34,17.577,40.874,19.507,42.134,19.341L42.134,19.341z"/>
		</g>
	</g>
	<g display="inline">
		<g>
			<path fill="#036EB5" d="M50.922,22.961c0.44,0.438,1.311,1.067,1.113,1.775c-0.348,1.245,1.583,1.769,1.93,0.528
				c0.436-1.562-0.609-2.704-1.637-3.725C51.414,20.63,50.005,22.05,50.922,22.961L50.922,22.961z"/>
		</g>
	</g>
	<g display="inline">
		<g>
			<path fill="#036EB5" d="M52.134,25.25c-1.368,1.813-3.354,3.69-5.643,4.159c0.323,0.556,0.646,1.113,0.97,1.669
				c0.293-0.319,0.658-0.42,1.046-0.591c1.177-0.519,0.154-2.24-1.014-1.726c-0.566,0.25-1.026,0.444-1.454,0.909
				c-0.69,0.752-0.004,1.869,0.97,1.669c2.828-0.579,5.178-2.865,6.857-5.091C54.643,25.221,52.901,24.233,52.134,25.25
				L52.134,25.25z"/>
		</g>
	</g>
	<g display="inline">
		<g>
			<path fill="#036EB5" d="M53.336,26.704c0.387-0.391,0.614-0.765,0.664-1.321c0.049-0.543-0.481-1.004-0.993-1.007
				c-0.579-0.004-0.958,0.45-1.007,0.993c0.041-0.096,0.081-0.192,0.122-0.289c-0.066,0.075-0.136,0.147-0.208,0.217
				C51.008,26.212,52.427,27.622,53.336,26.704L53.336,26.704z"/>
		</g>
	</g>
	<g display="inline">
		<g>
			<path fill="#036EB5" d="M30.007,1.5c-0.331,0.012-0.614,0.069-0.889,0.262c-0.445,0.313-0.649,0.87-0.356,1.369
				c0.259,0.441,0.923,0.67,1.369,0.356c-0.046,0.004-0.092,0.008-0.139,0.012C31.28,3.453,31.296,1.452,30.007,1.5L30.007,1.5z"/>
		</g>
	</g>
	<g display="inline">
		<g>
			<path fill="#036EB5" d="M46.007,30.988c1.132-0.616,2.322-1.105,3.5-1.625c0.499-0.221,0.607-0.94,0.355-1.369
				c-0.299-0.51-0.87-0.576-1.369-0.356c-1.177,0.52-2.367,1.009-3.5,1.625C43.861,29.879,44.874,31.604,46.007,30.988
				L46.007,30.988z"/>
		</g>
	</g>
	<g display="inline">
		<g>
			<path fill="#036EB5" d="M42.243,20.625c1.291,0,1.303-2,0.014-2C40.966,18.625,40.954,20.625,42.243,20.625L42.243,20.625z"/>
		</g>
	</g>
	<g display="inline">
		<g>
			<path fill="#036EB5" d="M3.285,11.736c-0.123,0.795-0.16,1.579-0.16,2.382c0,1.292,2,1.303,2,0.015
				c0-0.623-0.006-1.251,0.09-1.868c0.083-0.539-0.131-1.072-0.701-1.229C4.034,10.903,3.369,11.197,3.285,11.736L3.285,11.736z"/>
		</g>
	</g>
	<g display="inline">
		<g>
			<path fill="#036EB5" d="M14.986,9.59c2.453,0.851,4.694,2.257,6.026,4.542c0.649,1.113,2.376,0.103,1.726-1.013
				c-1.601-2.745-4.278-4.436-7.224-5.458C14.292,7.236,13.775,9.169,14.986,9.59L14.986,9.59z"/>
		</g>
	</g>
	<g display="inline">
		<g>
			<path fill="#036EB5" d="M21.868,14.625c0.125,0,0.25,0,0.375,0c1.292,0,1.303-2,0.015-2c-0.125,0-0.25,0-0.375,0
				C20.591,12.625,20.579,14.625,21.868,14.625L21.868,14.625z"/>
		</g>
	</g>
	<g display="inline">
		<g>
			<path fill="#036EB5" d="M14.118,4.375c1.094,0.009,2.173,0.112,3.243,0.34c1.259,0.268,1.79-1.661,0.528-1.93
				c-1.236-0.263-2.494-0.4-3.757-0.41C12.84,2.365,12.83,4.365,14.118,4.375L14.118,4.375z"/>
		</g>
	</g>
	<g display="inline">
		<g>
			<path fill="#036EB5" d="M18.243,4.875c3.227,0.433,4.742,3.42,7.136,5.18c2.482,1.825,5.757,2.497,7.509,5.201
				c0.699,1.078,2.428,0.073,1.725-1.013c-1.842-2.845-4.807-3.715-7.566-5.43c-3.23-2.008-4.702-5.391-8.789-5.939
				C16.979,2.703,16.984,4.707,18.243,4.875L18.243,4.875z"/>
		</g>
	</g>
	<g display="inline">
		<g>
			<path fill="#036EB5" d="M25.716,17.616c0.053,0.353-0.082,0.299,0.268,0.117c0.304-0.159,0.686-0.22,1.017-0.298
				c0.773-0.182,1.571-0.248,2.362-0.303c1.149-0.08,2.494-0.204,3.624,0.083c1.251,0.316,1.779-1.613,0.528-1.93
				c-2.121-0.536-10.274-0.775-9.729,2.849C23.976,19.408,25.905,18.876,25.716,17.616L25.716,17.616z"/>
		</g>
	</g>
	<g display="inline">
		<g>
			<path fill="#036EB5" d="M32.743,16.5c0.222,0.003,0.023,0.002,0.007-0.009c0.448,0.311,1.11,0.077,1.366-0.366
				c0.289-0.501,0.081-1.056-0.366-1.366c-0.29-0.201-0.646-0.255-0.993-0.259C31.465,14.485,31.455,16.485,32.743,16.5L32.743,16.5
				z"/>
		</g>
	</g>
	<g display="inline">
		<g>
			<path fill="#036EB5" d="M24.618,22.25c0.302-0.022,0.601,0.287,0.855,0.517c0.419,0.379,0.823,0.76,1.277,1.099
				c0.438,0.326,1.117,0.064,1.366-0.366c0.296-0.513,0.07-1.041-0.366-1.366c-0.957-0.713-1.769-1.982-3.118-1.884
				c-0.543,0.04-1.004,0.416-1.007,0.993C23.622,21.754,24.074,22.29,24.618,22.25L24.618,22.25z"/>
		</g>
	</g>
	<g display="inline">
		<g>
			<path fill="#036EB5" d="M28.375,22.257c0.015-0.353,0.289-0.739,0.573-1.025c0.323-0.325,0.551-0.417,0.802-0.241
				c0.448,0.312,1.111,0.076,1.366-0.366c0.29-0.502,0.081-1.055-0.366-1.366c-1.939-1.351-4.296,1.075-4.375,2.984
				C26.321,23.535,28.322,23.542,28.375,22.257L28.375,22.257z"/>
		</g>
	</g>
	<g display="inline">
		<g>
			<path fill="#036EB5" d="M28.119,20.637c-0.342,0.214-0.56,0.495-0.83,0.784c-0.876,0.942,0.541,2.354,1.422,1.407
				c0.129-0.139,0.262-0.367,0.42-0.466C30.222,21.681,29.215,19.952,28.119,20.637L28.119,20.637z"/>
		</g>
	</g>
	<g display="inline">
		<g>
			<path fill="#036EB5" d="M24.743,20.25c0.224-0.021,0.58,0.214,0.881,0.425c0.428,0.299,0.821,0.646,1.251,0.941
				c0.45,0.309,1.109,0.078,1.366-0.366c0.288-0.5,0.083-1.058-0.366-1.366c-0.911-0.625-1.902-1.748-3.118-1.634
				c-0.542,0.051-1.004,0.407-1.007,0.993C23.747,19.746,24.199,20.301,24.743,20.25L24.743,20.25z"/>
		</g>
	</g>
	<g display="inline">
		<g>
			<path fill="#036EB5" d="M26.211,17.829c1.782-1.409,4.926-1.639,6.914-0.587c1.138,0.602,2.143-1.128,1-1.732
				c-2.861-1.514-6.816-1.08-9.336,0.913C23.78,17.22,25.21,18.62,26.211,17.829L26.211,17.829z"/>
		</g>
	</g>
	<g display="inline">
		<g>
			<path fill="#036EB5" d="M30.875,14.116c1.431,0.75,2.523,1.965,3.263,3.39c0.594,1.145,2.317,0.13,1.725-1.013
				c-0.886-1.708-2.275-3.212-3.987-4.11C30.735,11.786,29.73,13.516,30.875,14.116L30.875,14.116z"/>
		</g>
	</g>
	<g display="inline">
		<g>
			<path fill="#036EB5" d="M16.993,27.375c0.591-0.002,1.122-0.089,1.639-0.387c1.117-0.643,0.106-2.37-1.013-1.726
				c-0.204,0.118-0.377,0.111-0.611,0.113C15.716,25.381,15.704,27.381,16.993,27.375L16.993,27.375z"/>
		</g>
	</g>
	<g display="inline">
		<g>
			<path fill="#036EB5" d="M26.215,25.639c0.128-0.36,0.32-0.694,0.526-1.014c0.699-1.087-1.036-2.082-1.732-1
				c-0.3,0.466-0.537,0.964-0.724,1.486c-0.183,0.514,0.205,1.093,0.701,1.229C25.542,26.492,26.032,26.151,26.215,25.639
				L26.215,25.639z"/>
		</g>
	</g>
	<g display="inline">
		<g>
			<path fill="#036EB5" d="M25.618,28.75c1.292,0,1.303-2,0.015-2C24.341,26.75,24.329,28.75,25.618,28.75L25.618,28.75z"/>
		</g>
	</g>
	<g display="inline">
		<g>
			<path fill="#036EB5" d="M28.506,24.363c0.073-0.048,0.057-0.044-0.048,0.011c0.117-0.04,0.243-0.058,0.363-0.08
				c0.219-0.04,0.449-0.04,0.671-0.044c1.29-0.021,1.304-2.021,0.015-2c-0.617,0.01-1.486,0.012-2.014,0.387
				c-0.444,0.316-0.65,0.868-0.356,1.369C27.395,24.445,28.062,24.679,28.506,24.363L28.506,24.363z"/>
		</g>
	</g>
	<g display="inline">
		<g>
			<path fill="#036EB5" d="M47.914,32.921c-0.115,0.098-0.348,0.246-0.5,0.375c0.57,0.236,1.141,0.474,1.711,0.71
				c-0.157,0.285-0.171,0.351-0.039,0.196c0.898-0.923-0.52-2.333-1.422-1.407c-0.344,0.353-0.489,0.711-0.539,1.197
				c-0.1,0.961,1.117,1.217,1.711,0.71c0.115-0.098,0.348-0.245,0.5-0.375c0.415-0.354,0.355-1.056-0.008-1.414
				C48.916,32.507,48.329,32.568,47.914,32.921L47.914,32.921z"/>
		</g>
	</g>
</g>
<path fill="#FFCAA6" stroke="#44030E" stroke-width="1.5" stroke-miterlimit="10" d="M38,47.4l6.637,4.041
	c0,0,9.238,1.332,10.363,0.625c1.125-0.709,1.334-3.197-0.583-4.016s-5.917-1.9-5.917-1.9L43,42.338L38,47.4z"/>
<path fill="#F4E471" stroke="#FFB510" stroke-width="1.5" stroke-miterlimit="10" d="M28,28.233c0,0-3.125-24.625,3.25-23.5
	s12.624,15.838,12.624,15.838S54.125,23.108,53,27.983s-11.666,7.341-11.666,7.341S29.25,35.982,28,28.233z"/>
<path fill="#FFCAA6" stroke="#44030E" stroke-width="1.5" stroke-miterlimit="10" d="M20.463,24.983l2.418,4.25
	c0,0-2.351,1.5-2.741,3.5c-0.39,2-0.026,5.5-0.026,5.5L17.5,48.566c0,0,2.963,2.979,4.38,0.344s3.567-11.012,3.567-11.012
	l1.339,0.752l10.151-8.834c0,0-2.406-5.546-5.295-5.551S27.5,25.194,27.5,25.194l-4.37-3.627L20.463,24.983z"/>
<path fill="#FFCAA6" stroke="#44030E" stroke-width="1.5" stroke-miterlimit="10" d="M44.201,40.898c0,0,8.672,1.877,10.25,1.668
	s6.453-4.498,7.078-5.791s-0.291-4.055-1.958-2.986c-1.667,1.068-4.75,2.986-4.75,2.986l-8.417-2.139L44.201,40.898z"/>
<path fill="#8C7CCE" stroke="#35197C" stroke-width="1.5" stroke-miterlimit="10" d="M15.78,5.301c0,0,2.995-1.375,6.87,2.25
	s4.948,7.593,6.784,8.391s6.175,1.954,7.383,1.282c0,0-2.865,4.746-6.454,4.912l2.468,0.94c0,0-1.839,2.602-5.385,1.476
	s-4.667-5.917-4.667-5.917s-6.896-7.116-10.75-5.958s-4.07,6.318-5.917,5.5C1.275,12.427,11.364,3.676,15.78,5.301z"/>
<path fill="#FFCAA6" stroke="#44030E" stroke-width="1.5" stroke-miterlimit="10" d="M9.947,24.675l1.662,1.668
	c0,0-0.829,1.989,3.254,3.087c3.36,0.903,7.517-0.722,9.527-5.113s-1.61-8.891-1.61-8.891l-7-3.417l-9.667,7.409L9.947,24.675z"/>
<g>
	
		<linearGradient id="SVGID_1_" gradientUnits="userSpaceOnUse" x1="10.4771" y1="20.0845" x2="10.4771" y2="29.3451" gradientTransform="matrix(0.5652 -0.6284 0.5276 0.4745 -6.018 18.5079)">
		<stop  offset="0.7515" style="stop-color:#00081F"/>
		<stop  offset="1" style="stop-color:#7FFFFC"/>
	</linearGradient>
	<path fill="url(#SVGID_1_)" d="M14.27,22.997c0.908,0.816,1.644,1.479,0.725,2.499c-0.918,1.021-1.654,0.36-2.561-0.457
		c-1.492-1.34-1.232-1.935-0.725-2.498C12.215,21.978,12.627,21.52,14.27,22.997z"/>
	
		<ellipse transform="matrix(0.6689 -0.7434 0.7434 0.6689 -13.1872 16.552)" fill="#FFFFFF" cx="11.987" cy="23.079" rx="0.731" ry="0.504"/>
</g>
<g>
	
		<linearGradient id="SVGID_2_" gradientUnits="userSpaceOnUse" x1="20.813" y1="21.394" x2="20.813" y2="30.6568" gradientTransform="matrix(0.5654 -0.6493 0.5459 0.4753 -7.7872 19.668)">
		<stop  offset="0.7515" style="stop-color:#00081F"/>
		<stop  offset="1" style="stop-color:#7FFFFC"/>
	</linearGradient>
	<path fill="url(#SVGID_2_)" d="M19.53,17.837c0.938,0.817,1.7,1.48,0.781,2.536c-0.918,1.055-1.68,0.393-2.619-0.425
		c-1.543-1.343-1.289-1.952-0.781-2.535C17.417,16.83,17.83,16.357,19.53,17.837z"/>
	
		<ellipse transform="matrix(0.6566 -0.7543 0.7543 0.6566 -7.6362 19.1422)" fill="#FFFFFF" cx="17.203" cy="17.957" rx="0.745" ry="0.514"/>
</g>
<g>
	<path fill="#78DCFF" stroke="#003684" stroke-width="1.5" stroke-miterlimit="10" d="M23.333,33.887l7.796-8.112
		c0,0,4.513-1.19,7.896,6.5c0,0,3.467-0.664,7.021-1.042c2.227-0.237,6.269-0.748,6.269-0.748s-0.94,7.581-5.94,12.622
		c-4.185,4.221-6.232,7.209-6.232,7.209s-3.726-1.75-6.821-6.209l-6.775-4.291C26.546,39.816,23.786,38.539,23.333,33.887z"/>
	
		<line fill="#78DCFF" stroke="#003684" stroke-width="1.5" stroke-miterlimit="10" x1="21.625" y1="29.614" x2="24.667" y2="32.399"/>
	
		<line fill="#78DCFF" stroke="#003684" stroke-width="1.5" stroke-miterlimit="10" x1="27.975" y1="25.333" x2="29.583" y2="29.089"/>
</g>
<path fill="#8C7CCE" stroke="#35197C" stroke-width="1.5" stroke-miterlimit="10" d="M4.605,15.427c0,0-1.554,4.647,0.841,7.649
	c1.496,1.875,4.529,0.748,5.983,0.498c0,0-1.732-0.479-3.316-3.813c0,0,2.357,0.157,6.814-0.744l-2.855-2.339
	c0,0,6.316-0.719,10.904-2.481c0,0-3.529-4.27-7.196-5.061C11.37,8.184,6.53,10.176,4.605,15.427z"/>
<path fill="none" stroke="#44030E" stroke-miterlimit="10" d="M18.625,27.358c0,0,1.963,0.667,1.708-1.459
	c0,0,2.447-0.292,1.292-2.417"/>
<ellipse transform="matrix(0.9271 -0.3747 0.3747 0.9271 -1.6633 13.8211)" display="none" fill="#FFC44D" cx="34.708" cy="11.188" rx="2.45" ry="3.155"/>
<ellipse transform="matrix(-0.3637 -0.9315 0.9315 -0.3637 35.917 60.9511)" display="none" fill="#FFC44D" cx="38.775" cy="18.209" rx="1.972" ry="1.735"/>
<path fill="#FFCAA6" stroke="#44030E" stroke-width="1.5" stroke-miterlimit="10" d="M28.894,30.532c0,0-1.648-6.314,3.11-5.992
	c3.511,0.237,2.85,5.767,2.85,5.767l-0.197,5.416c0,0-4.976,12.504-6.682,12.76c-1.617,0.244-2.79-2.52-2.126-4.672
	c0.664-2.15,2.93-8.027,2.93-8.027L28.894,30.532z"/>
</svg>
