<?xml version="1.0" encoding="utf-8"?>
<!-- Generator: Adobe Illustrator 15.0.2, SVG Export Plug-In . SVG Version: 6.00 Build 0)  -->
<!DOCTYPE svg PUBLIC "-//W3C//DTD SVG 1.1//EN" "http://www.w3.org/Graphics/SVG/1.1/DTD/svg11.dtd">
<svg version="1.1" id="_x31_0_3_" xmlns="http://www.w3.org/2000/svg" xmlns:xlink="http://www.w3.org/1999/xlink" x="0px" y="0px"
	 width="64px" height="64px" viewBox="0 0 64 64" enable-background="new 0 0 64 64" xml:space="preserve">
<ellipse display="none" fill="#FFC44D" cx="40.332" cy="14.294" rx="2.862" ry="3.501"/>
<path display="none" fill="#FFC44D" d="M43.414,19.472c1.1,0.091,1.892,1.146,1.771,2.356c-0.121,1.212-1.11,2.119-2.21,2.029
	c-1.099-0.091-1.891-1.145-1.771-2.356C41.326,20.29,42.314,19.382,43.414,19.472z"/>
<g display="none" opacity="0.56">
	<g display="inline">
		<g>
			<g>
				<path fill="#036EB5" d="M23.975,23.863c0.621-1.101,1.082-2.224,1.263-3.48c0.076-0.526-0.124-1.044-0.684-1.198
					c-0.464-0.127-1.123,0.157-1.198,0.684c-0.159,1.104-0.524,2.051-1.07,3.02C21.667,23.984,23.356,24.96,23.975,23.863
					L23.975,23.863z"/>
			</g>
		</g>
		<g>
			<g>
				<path fill="#036EB5" d="M10.806,5.512c0.89-0.529,1.812-0.9,2.827-1.111c1.233-0.257,0.721-2.14-0.505-1.885
					c-1.171,0.244-2.283,0.703-3.31,1.313C8.738,4.471,9.722,6.156,10.806,5.512L10.806,5.512z"/>
			</g>
		</g>
		<g>
			<g>
				<path fill="#036EB5" d="M26.869,23.554c-1.231,2.353-1.43,5.052-1.714,7.648c-0.137,1.252,1.816,1.25,1.951,0.014
					c0.246-2.243,0.388-4.651,1.453-6.686C29.14,23.417,27.453,22.438,26.869,23.554L26.869,23.554z"/>
			</g>
		</g>
		<g>
			<g>
				<path fill="#036EB5" d="M21.623,42.316c0.024,0.003,0.048,0.007,0.073,0.01c-0.228-0.229-0.457-0.459-0.685-0.688
					c0.003,0.024,0.007,0.049,0.01,0.074c0.075,0.527,0.728,0.814,1.195,0.689c0.561-0.15,0.765-0.669,0.69-1.195
					c-0.004-0.024-0.007-0.049-0.011-0.073c-0.042-0.298-0.385-0.646-0.685-0.688c-0.024-0.003-0.049-0.007-0.073-0.011
					c-0.526-0.075-1.044,0.124-1.198,0.684C20.812,41.582,21.096,42.24,21.623,42.316L21.623,42.316z"/>
			</g>
		</g>
		<g>
			<g>
				<path fill="#036EB5" d="M19.939,41.785c-0.284,1.006,0.001,1.983,0.871,2.588c0.708,0.491,1.635,0.637,2.479,0.646
					c1.26,0.013,1.27-1.938,0.014-1.951c-0.101-0.001-0.201-0.004-0.302-0.009c-0.048-0.003-0.358-0.039-0.281-0.026
					c-0.107-0.018-0.213-0.043-0.319-0.068c-0.044-0.011-0.356-0.116-0.27-0.079c-0.093-0.04-0.18-0.093-0.266-0.146
					c0.154,0.095-0.177-0.219-0.054-0.045c-0.056-0.104-0.063-0.107-0.021-0.014c-0.025-0.113-0.033-0.126-0.021-0.037
					c-0.012-0.123,0.007-0.188,0.051-0.343C22.164,41.087,20.281,40.576,19.939,41.785L19.939,41.785z"/>
			</g>
		</g>
		<g>
			<g>
				<path fill="#036EB5" d="M25.99,43.646c0.428-0.435,0.824-0.898,1.25-1.334c0.879-0.898-0.505-2.273-1.387-1.373
					c-0.426,0.437-0.823,0.899-1.25,1.334C23.722,43.169,25.105,44.544,25.99,43.646L25.99,43.646z"/>
			</g>
		</g>
		<g>
			<g>
				<path fill="#036EB5" d="M25.407,43.646c1.258-1.507,2.37-3.118,3.413-4.78c0.67-1.067-1.022-2.039-1.689-0.975
					c-0.954,1.521-1.958,3.003-3.11,4.382C23.22,43.23,24.598,44.613,25.407,43.646L25.407,43.646z"/>
			</g>
		</g>
		<g>
			<g>
				<path fill="#036EB5" d="M29.623,24.483c2.126,0.675,2.621,3.544,2.449,5.469c-0.112,1.256,1.841,1.256,1.951,0.014
					c0.257-2.882-0.884-6.413-3.885-7.365C28.935,22.219,28.428,24.104,29.623,24.483L29.623,24.483z"/>
			</g>
		</g>
		<g>
			<g>
				<path fill="#036EB5" d="M16.422,42.29c0.123,1.464,0.758,3.048,2.367,3.36c0.522,0.101,1.05-0.143,1.198-0.684
					c0.133-0.483-0.162-1.098-0.684-1.199c-0.689-0.133-0.876-0.815-0.93-1.464c-0.044-0.529-0.401-0.979-0.969-0.982
					C16.91,41.318,16.378,41.76,16.422,42.29L16.422,42.29z"/>
			</g>
		</g>
		<g>
			<g>
				<path fill="#036EB5" d="M29.872,21.786c0.188,0.339,0.25,0.712,0.315,1.092c0.09,0.525,0.717,0.818,1.195,0.69
					c0.549-0.147,0.779-0.671,0.69-1.195c-0.096-0.558-0.24-1.077-0.518-1.575C30.943,19.699,29.26,20.686,29.872,21.786
					L29.872,21.786z"/>
			</g>
		</g>
		<g>
			<g>
				<path fill="#036EB5" d="M29.705,21.703c0.09,0.105,0.112,0.135,0.066,0.091c0.29,1.226,2.173,0.717,1.885-0.505
					c-0.05-0.21-0.137-0.404-0.268-0.575c-0.323-0.421-0.833-0.642-1.335-0.347C29.637,20.611,29.381,21.28,29.705,21.703
					L29.705,21.703z"/>
			</g>
		</g>
		<g>
			<g>
				<path fill="#036EB5" d="M19.976,26.97c0.47,0.228,0.75,0.66,0.878,1.158c0.315,1.218,2.199,0.712,1.885-0.505
					c-0.248-0.957-0.88-1.902-1.788-2.342C19.825,24.734,18.842,26.42,19.976,26.97L19.976,26.97z"/>
			</g>
		</g>
		<g>
			<g>
				<path fill="#036EB5" d="M46.118,31.082c1.062,0.543,2.17,0.98,3.337,1.235c1.228,0.268,1.745-1.614,0.516-1.882
					c-1.01-0.22-1.958-0.572-2.878-1.042C45.977,28.821,44.995,30.508,46.118,31.082L46.118,31.082z"/>
			</g>
		</g>
		<g>
			<g>
				<path fill="#036EB5" d="M46.319,31.182c1.865,0.572,3.753,0.341,5.646,0.052c1.242-0.19,0.724-2.072-0.506-1.885
					c-1.554,0.238-3.097,0.419-4.625-0.049C45.628,28.93,45.12,30.814,46.319,31.182L46.319,31.182z"/>
			</g>
		</g>
		<g>
			<g>
				<path fill="#036EB5" d="M45.148,43.463c2.538-2.641,4.286-5.867,6.493-8.767c0.761-0.999-0.938-1.962-1.689-0.975
					c-2.105,2.766-3.77,5.85-6.19,8.368C42.892,42.996,44.274,44.372,45.148,43.463L45.148,43.463z"/>
			</g>
		</g>
		<g>
			<g>
				<path fill="#036EB5" d="M35.354,44.212c1.308,3.717,6.442,5.551,9.993,6.127c1.231,0.199,1.756-1.682,0.516-1.883
					c-2.729-0.442-7.595-1.822-8.624-4.75C36.824,42.527,34.937,43.023,35.354,44.212L35.354,44.212z"/>
			</g>
		</g>
		<g>
			<g>
				<path fill="#036EB5" d="M41.943,41.068c1.144,1.223,2.39,2.345,3.866,3.151c1.103,0.603,2.081-1.085,0.975-1.689
					c-1.338-0.731-2.433-1.741-3.468-2.849C42.457,38.763,41.085,40.15,41.943,41.068L41.943,41.068z"/>
			</g>
		</g>
		<g>
			<g>
				<path fill="#036EB5" d="M44.276,43.236c0.848,0.678,1.691,1.358,2.5,2.082c0.934,0.835,2.313-0.545,1.373-1.387
					c-0.81-0.724-1.652-1.405-2.5-2.082c-0.415-0.331-0.977-0.401-1.38,0.007C43.926,42.205,43.86,42.904,44.276,43.236
					L44.276,43.236z"/>
			</g>
		</g>
		<g>
			<g>
				<path fill="#036EB5" d="M45.206,39.769c3.578-0.063,7.089-0.854,10.667-0.918c1.258-0.022,1.271-1.974,0.014-1.951
					c-3.578,0.063-7.088,0.855-10.667,0.918C43.962,37.839,43.948,39.79,45.206,39.769L45.206,39.769z"/>
			</g>
		</g>
		<g>
			<g>
				<path fill="#036EB5" d="M50.633,32.984c1.484-0.205,3.197-0.002,4.427,0.902c1.013,0.746,1.978-0.952,0.975-1.689
					c-1.654-1.218-3.938-1.369-5.907-1.098C48.884,31.271,49.403,33.153,50.633,32.984L50.633,32.984z"/>
			</g>
		</g>
		<g>
			<g>
				<path fill="#036EB5" d="M20.868,60.864c-3.636-2.756-6.01-7.841-4.875-12.392c1.837-7.367,10.121-4.909,13.183-0.153
					c3.267,5.073-2.206,11.373-7.426,11.49c-5.724,0.128-6.085-6.746-4.436-10.561c0.903-2.089,2.583-3.763,4.757-4.448
					c3.364-1.062,5.89,2.599,6.849,5.207c1.984,5.398-2.338,12.053-8.413,9.436c-3.945-1.699-4.908-9.092-4.275-12.675
					c1.101-6.23,8.229-5.545,11.879-2.366c0.943,0.821,2.324-0.558,1.372-1.387c-4.392-3.825-12.79-4.713-14.854,2.293
					c-1.552,5.266,0.359,15.754,7.133,16.561c7.835,0.932,11.067-6.859,8.688-13.333c-2.298-6.251-10.051-7.776-13.817-1.971
					c-3.309,5.1-3.329,12.698,3.29,14.927c5.897,1.984,13.13-4.951,12.06-10.868c-1.115-6.163-9.242-12.257-14.875-7.13
					c-5.408,4.923-3.688,14.151,1.909,18.395c0.292,0.222,0.585,0.443,0.877,0.665C20.894,63.313,21.857,61.614,20.868,60.864
					L20.868,60.864z"/>
			</g>
		</g>
		<g>
			<g>
				<path fill="#036EB5" d="M21.314,29.943c0.842,0.655,1.785,0.864,2.786,0.421c0.914-0.404,1.554-1.25,1.841-2.191
					c0.369-1.207-1.516-1.715-1.882-0.515c-0.145,0.474-0.798,1.345-1.373,0.897c-0.418-0.326-0.973-0.405-1.379,0.007
					C20.966,28.909,20.893,29.616,21.314,29.943L21.314,29.943z"/>
			</g>
		</g>
		<g>
			<g>
				<path fill="#036EB5" d="M26.941,25.674c0.249-1.104,0.207-2.211,0.201-3.333c-0.006-1.259-1.958-1.271-1.951-0.014
					c0.005,0.945,0.078,1.904-0.132,2.833C24.783,26.385,26.664,26.901,26.941,25.674L26.941,25.674z"/>
			</g>
		</g>
		<g>
			<g>
				<path fill="#036EB5" d="M38.478,47.349c1.018-0.813,2.099-1.54,3.184-2.257c1.044-0.69,0.064-2.379-0.988-1.684
					c-1.228,0.812-2.432,1.649-3.582,2.567c-0.416,0.332-0.338,1.04,0.007,1.38C37.509,47.761,38.063,47.68,38.478,47.349
					L38.478,47.349z"/>
			</g>
		</g>
		<g>
			<g>
				<path fill="#036EB5" d="M46.026,40.937c3.242-3.373,6.051-7.112,9.084-10.667c0.811-0.95-0.567-2.332-1.387-1.372
					c-3.033,3.554-5.842,7.294-9.084,10.666C43.77,40.47,45.152,41.846,46.026,40.937L46.026,40.937z"/>
			</g>
		</g>
		<g>
			<g>
				<path fill="#036EB5" d="M46.91,31.476c1.661,0.029,3.271,0.359,4.926,0.05c1.237-0.231,0.723-2.114-0.506-1.885
					c-1.45,0.271-2.946-0.091-4.406-0.117C45.663,29.502,45.654,31.454,46.91,31.476L46.91,31.476z"/>
			</g>
		</g>
		<g>
			<g>
				<path fill="#036EB5" d="M44.492,50.774c2.233,0.646,4.359,0.647,6.594,0.001c1.206-0.35,0.704-2.235-0.506-1.885
					c-1.921,0.557-3.65,0.558-5.572,0.001C43.796,48.541,43.286,50.425,44.492,50.774L44.492,50.774z"/>
			</g>
		</g>
		<g>
			<g>
				<path fill="#036EB5" d="M49.575,47.274c1.336,0.466,3.044,0.417,4.071,1.502c0.866,0.913,2.238-0.474,1.373-1.387
					c-1.324-1.397-3.224-1.402-4.929-1.998C48.899,44.977,48.396,46.862,49.575,47.274L49.575,47.274z"/>
			</g>
		</g>
		<g>
			<g>
				<path fill="#036EB5" d="M51.326,51.143c1.505,0.164,2.519-1.416,3.102-2.572c0.564-1.119-1.121-2.101-1.689-0.975
					c-0.185,0.364-0.378,0.744-0.629,1.068c-0.12,0.154-0.309,0.362-0.432,0.448c-0.005,0.004-0.299,0.132-0.164,0.089
					c0.121-0.039-0.143-0.007-0.174-0.01c-0.529-0.058-0.979,0.478-0.982,0.969C50.354,50.732,50.798,51.085,51.326,51.143
					L51.326,51.143z"/>
			</g>
		</g>
		<g>
			<g>
				<path fill="#036EB5" d="M15.654,55.405c-2.017-1.212-1.124-4.905-0.63-6.73c0.329-1.217-1.554-1.729-1.882-0.516
					c-0.761,2.816-1.431,7.152,1.536,8.936C15.759,57.743,16.732,56.053,15.654,55.405L15.654,55.405z"/>
			</g>
		</g>
		<g>
			<g>
				<path fill="#036EB5" d="M14.589,44.825c-2.33,1.765-2.313,4.989-2.084,7.664c0.299,3.506,2.379,6.321,5.654,7.535
					c1.183,0.438,1.684-1.449,0.515-1.883c-2.397-0.888-3.579-2.754-4.137-5.163c-0.402-1.735-0.537-5.276,1.041-6.47
					C16.566,45.76,15.593,44.065,14.589,44.825L14.589,44.825z"/>
			</g>
		</g>
		<g>
			<g>
				<path fill="#036EB5" d="M28.493,23.726c0.821,0,1.641-0.009,2.353,0.453c1.058,0.686,2.028-1.007,0.976-1.689
					c-0.993-0.644-2.165-0.713-3.314-0.714C27.247,21.773,27.236,23.725,28.493,23.726L28.493,23.726z"/>
			</g>
		</g>
		<g>
			<g>
				<path fill="#036EB5" d="M25.524,28.577c0.661,5.286-0.342,10.574,1.884,15.584c0.51,1.146,2.188,0.15,1.683-0.988
					c-2.047-4.607-1.007-9.719-1.616-14.583C27.321,27.359,25.369,27.333,25.524,28.577L25.524,28.577z"/>
			</g>
		</g>
		<g>
			<g>
				<path fill="#036EB5" d="M31.358,27.577c0.061,4.978,0.826,9.979-0.132,14.916c-0.239,1.229,1.642,1.75,1.882,0.516
					c0.994-5.121,0.265-10.252,0.202-15.417C33.294,26.332,31.342,26.319,31.358,27.577L31.358,27.577z"/>
			</g>
		</g>
		<g>
			<g>
				<path fill="#036EB5" d="M30.417,44.41c-0.94-0.068-1.761-0.617-2.481-1.187c-0.391,0.513-0.782,1.025-1.174,1.538
					c0.977,0.686,2.042,1.102,3.231,1.214c1.255,0.118,1.255-1.834,0.014-1.951c-0.847-0.08-1.583-0.471-2.269-0.952
					c-0.902-0.634-2.042,0.852-1.174,1.538c1.151,0.91,2.343,1.642,3.84,1.751C31.662,46.453,31.664,44.501,30.417,44.41
					L30.417,44.41z"/>
			</g>
		</g>
		<g>
			<g>
				<path fill="#036EB5" d="M21.109,26.581c-0.009-0.032-0.019-0.063-0.027-0.096c-0.628,0.168-1.256,0.336-1.884,0.505
					c0.264,0.715,0.474,1.512,0.61,2.262c0.095,0.524,0.713,0.819,1.195,0.69c0.545-0.146,0.785-0.672,0.69-1.195
					c-0.136-0.75-0.346-1.547-0.61-2.262c-0.429-1.164-2.178-0.737-1.884,0.505c0.008,0.032,0.018,0.064,0.026,0.096
					C19.568,28.295,21.453,27.792,21.109,26.581L21.109,26.581z"/>
			</g>
		</g>
		<g>
			<g>
				<path fill="#036EB5" d="M19.326,27.39c0.586,3.148,1.644,6.14,2.815,9.113c0.456,1.156,2.346,0.664,1.885-0.506
					c-1.172-2.972-2.23-5.964-2.815-9.112C20.98,25.647,19.097,26.162,19.326,27.39L19.326,27.39z"/>
			</g>
		</g>
		<g>
			<g>
				<path fill="#036EB5" d="M22.647,37.776c0.915,0.95,2.113,1.294,3.281,1.818c0.485,0.218,1.046,0.139,1.333-0.357
					c0.246-0.425,0.129-1.114-0.357-1.332c-0.988-0.443-2.113-0.715-2.885-1.516C23.147,35.483,21.774,36.87,22.647,37.776
					L22.647,37.776z"/>
			</g>
		</g>
		<g>
			<g>
				<path fill="#036EB5" d="M19.393,28.576c-0.75,1.83-0.641,4.032-0.852,5.976c-0.301,2.764-0.354,5.514-0.016,8.274
					c0.151,1.232,2.104,1.258,1.951,0.014c-0.297-2.425-0.27-4.807-0.082-7.239c0.156-2.026,0.109-4.625,0.881-6.51
					C21.751,27.926,19.863,27.428,19.393,28.576L19.393,28.576z"/>
			</g>
		</g>
		<g>
			<g>
				<path fill="#036EB5" d="M24.239,37.93c-0.333,0.767-0.584,1.566-0.917,2.333c-0.211,0.487-0.143,1.044,0.357,1.332
					c0.421,0.243,1.121,0.132,1.333-0.357c0.333-0.767,0.584-1.566,0.917-2.333c0.211-0.487,0.143-1.044-0.357-1.332
					C25.15,37.329,24.451,37.44,24.239,37.93L24.239,37.93z"/>
			</g>
		</g>
		<g>
			<g>
				<path fill="#036EB5" d="M32.075,44.161c1.49,1.935,3.48,2.623,5.75,3.28c1.212,0.35,1.722-1.533,0.516-1.883
					c-1.691-0.488-3.454-0.92-4.583-2.386C33.002,42.191,31.308,43.164,32.075,44.161L32.075,44.161z"/>
			</g>
		</g>
		<g>
			<g>
				<path fill="#036EB5" d="M40.61,46.187c1.012-0.848,1.98-1.741,2.833-2.75c0.806-0.954-0.572-2.336-1.387-1.373
					c-0.854,1.01-1.821,1.903-2.833,2.75c-0.408,0.342-0.344,1.033,0.007,1.38C39.635,46.593,40.203,46.527,40.61,46.187
					L40.61,46.187z"/>
			</g>
		</g>
		<g>
			<g>
				<path fill="#036EB5" d="M21.429,28.595c1.142,0.818,2.513,0.033,3.405-0.764c0.607-0.542,1.896-1.977,0.936-2.774
					c-0.959-0.797-2.342,0.581-1.372,1.387c-0.042-0.053-0.083-0.106-0.125-0.16c-0.044-0.167-0.089-0.334-0.134-0.501
					c0.009,0.091,0.138-0.381,0.042-0.192c-0.053,0.103-0.121,0.199-0.188,0.293c-0.053,0.075-0.376,0.417-0.545,0.576
					c-0.214,0.2-0.455,0.354-0.716,0.485c0.113-0.057-0.322,0.06-0.133,0.042c-0.119-0.004-0.137-0.001-0.052,0.008
					c0.12,0.023-0.111-0.066-0.142-0.088c-0.433-0.31-1.086-0.069-1.333,0.357C20.787,27.756,20.997,28.285,21.429,28.595
					L21.429,28.595z"/>
			</g>
		</g>
		<g>
			<g>
				<path fill="#036EB5" d="M22.059,29.909c-0.467,1.924,0.333,4.332,1.1,6.085c0.415,0.948,1.772,0.388,1.817-0.487
					c0.097-1.891,0.342-3.744,0.799-5.583c-0.639-0.088-1.278-0.176-1.917-0.264c0.052,2.463-0.268,4.914,0.283,7.343
					c0.237,1.043,1.547,0.823,1.883,0.005c0.906-2.206-0.473-4.582-0.382-6.834c-0.639,0.082-1.278,0.164-1.918,0.246
					c0.239,1.542,0.38,3.085,0.833,4.584c0.364,1.201,2.249,0.7,1.885-0.506c-0.454-1.499-0.595-3.042-0.833-4.583
					c-0.175-1.128-1.875-0.808-1.918,0.246c-0.082,2.034,1.247,4.395,0.452,6.333c0.627,0.002,1.255,0.004,1.883,0.005
					c-0.509-2.242-0.168-4.547-0.217-6.824c-0.023-1.088-1.644-1.362-1.917-0.264c-0.496,1.999-0.763,4.027-0.868,6.084
					c0.605-0.162,1.211-0.325,1.817-0.487c-0.54-1.234-1.228-3.231-0.9-4.582C24.238,29.201,22.355,28.686,22.059,29.909
					L22.059,29.909z"/>
			</g>
		</g>
		<g>
			<g>
				<path fill="#036EB5" d="M41.747,32.696c1.755,1.37,3.671,2.491,5.516,3.731c0.813,0.547,1.844-0.535,1.329-1.339
					c-0.748-1.167-1.522-2.236-2.688-3.017c-1.047-0.702-2.015,0.992-0.975,1.689c0.869,0.583,1.424,1.45,1.979,2.316
					c0.443-0.446,0.887-0.893,1.329-1.339c-1.703-1.146-3.497-2.164-5.117-3.429C42.142,30.545,40.755,31.921,41.747,32.696
					L41.747,32.696z"/>
			</g>
		</g>
		<g>
			<g>
				<path fill="#036EB5" d="M43.099,32.835c1.021,0.073,2.038,0.183,3.062,0.224c0.895,0.035,1.251-1.069,0.693-1.669
					c-0.285-0.307-0.569-0.604-0.901-0.861c-0.42-0.325-0.972-0.406-1.38,0.007c-0.34,0.344-0.414,1.054,0.007,1.379
					c0.332,0.257,0.616,0.554,0.901,0.861c0.231-0.556,0.463-1.113,0.693-1.669c-1.022-0.041-2.04-0.151-3.062-0.224
					C41.854,30.794,41.852,32.747,43.099,32.835L43.099,32.835z"/>
			</g>
		</g>
		<g>
			<g>
				<path fill="#036EB5" d="M43.015,32.698c1.554,0.876,3.062,1.773,4.299,3.078c0.392-0.513,0.783-1.025,1.174-1.538
					c-1.896-1.358-3.958-2.406-6.228-2.972c-1.222-0.305-1.736,1.578-0.516,1.882c2.119,0.528,4,1.513,5.769,2.779
					c0.932,0.668,1.907-0.765,1.174-1.538c-1.348-1.421-3.003-2.426-4.697-3.381C42.894,30.391,41.917,32.08,43.015,32.698
					L43.015,32.698z"/>
			</g>
		</g>
		<g>
			<g>
				<path fill="#036EB5" d="M40.979,33.787c0.888,0.998,2.011,1.64,3.347,1.771c0.761,0.075,1.198-0.873,0.849-1.47
					c-0.538-0.916-1.209-1.745-1.977-2.478c-0.908-0.867-2.285,0.516-1.373,1.387c0.653,0.624,1.209,1.299,1.666,2.08
					c0.283-0.49,0.566-0.979,0.849-1.47c-0.816-0.081-1.463-0.617-1.987-1.207C41.516,31.46,40.146,32.85,40.979,33.787
					L40.979,33.787z"/>
			</g>
		</g>
		<g>
			<g>
				<path fill="#036EB5" d="M35.495,23.511c-1.686-1.279-3.266-2.764-5.404-3.202c-0.684-0.14-1.437,0.445-1.2,1.193
					c1.2,3.778,5.402,5.553,8.177,7.988c0.941,0.825,2.321-0.555,1.373-1.387c-2.411-2.115-6.633-3.854-7.666-7.106
					c-0.4,0.398-0.8,0.795-1.2,1.193c1.948,0.399,3.406,1.844,4.944,3.01C35.521,25.96,36.484,24.261,35.495,23.511L35.495,23.511z"
					/>
			</g>
		</g>
		<g>
			<g>
				<path fill="#036EB5" d="M41.832,32.464c0.775,2.928,0.103,5.889,0.109,8.862c0.003,1.283,1.821,1.239,1.951,0.014
					c0.303-2.846-1.019-5.935,0.369-8.602c-0.563,0.002-1.124,0.004-1.687,0.006c1.919,2.555,0.444,5.956,0.199,8.832
					c-0.103,1.198,1.533,1.199,1.917,0.265c0.977-2.385,0.667-5.33,2.335-7.404c-0.545-0.145-1.09-0.289-1.636-0.434
					c0.287,2.068-0.87,3.956-1.582,5.822c-0.412,1.082,1.214,1.633,1.786,0.745c1.621-2.515,3.571-4.618,6.316-5.896
					c0.749-0.349,0.567-1.636-0.236-1.783c-2.187-0.401-4.096-1.286-5.956-2.486c-1.059-0.684-2.029,1.009-0.975,1.689
					c1.993,1.287,4.071,2.249,6.415,2.679c-0.078-0.595-0.157-1.188-0.236-1.783c-3.036,1.414-5.228,3.827-7.018,6.604
					c0.596,0.248,1.19,0.496,1.786,0.745c0.882-2.314,1.936-4.307,1.584-6.844c-0.099-0.707-1.199-0.977-1.636-0.434
					c-1.967,2.446-1.689,5.476-2.831,8.262c0.64,0.089,1.278,0.177,1.917,0.265c0.281-3.294,1.745-6.887-0.467-9.834
					c-0.411-0.546-1.314-0.708-1.687,0.006c-1.617,3.108-0.281,6.274-0.631,9.564c0.65,0.005,1.301,0.009,1.951,0.014
					c-0.007-3.165,0.648-6.264-0.176-9.381C43.395,30.743,41.511,31.248,41.832,32.464L41.832,32.464z"/>
			</g>
		</g>
		<g>
			<g>
				<path fill="#036EB5" d="M39.611,33.421c0.052,3.525-0.912,7.527,1.38,10.573c0.531,0.705,1.453,0.582,1.783-0.236
					c1.521-3.777-0.036-7.647,0.314-11.547c0.113-1.256-1.84-1.256-1.951-0.014c-0.334,3.711,1.198,7.461-0.246,11.045
					c0.595-0.078,1.188-0.157,1.783-0.236c-2.039-2.707-1.066-6.427-1.112-9.571C41.544,32.176,39.593,32.164,39.611,33.421
					L39.611,33.421z"/>
			</g>
		</g>
		<g>
			<g>
				<path fill="#036EB5" d="M38.139,31.794c0.157,4.249-0.569,8.515,1.437,12.45c0.327,0.642,1.361,0.628,1.687-0.007
					c1.833-3.578,0.208-7.246-0.085-10.978c-0.098-1.247-2.05-1.267-1.951-0.014c0.254,3.235,1.928,6.93,0.347,10.017
					c0.563-0.003,1.124-0.005,1.687-0.007c-1.809-3.548-1.027-7.622-1.169-11.448C40.043,30.552,38.092,30.537,38.139,31.794
					L38.139,31.794z"/>
			</g>
		</g>
		<g>
			<g>
				<path fill="#036EB5" d="M36.661,28.986c0.257,5.206-1.338,11.563,1.997,16.091c0.512,0.694,1.481,0.598,1.783-0.236
					c1.677-4.637-1.073-9.438-1.044-14.124c0.008-1.26-1.943-1.271-1.951-0.014c-0.027,4.475,2.693,9.253,1.112,13.622
					c0.595-0.078,1.188-0.157,1.783-0.236C37.266,39.914,38.851,33.827,38.612,29C38.551,27.747,36.6,27.729,36.661,28.986
					L36.661,28.986z"/>
			</g>
		</g>
		<g>
			<g>
				<path fill="#036EB5" d="M34.946,25.524c0.652,6.83-0.979,13.752,2.212,20.137c0.375,0.749,1.605,0.565,1.783-0.236
					c0.482-2.188,0.121-4.095-0.37-6.253c-0.813-3.568-0.691-7.267-0.205-10.865c0.168-1.246-1.785-1.241-1.951-0.014
					c-0.39,2.888-0.444,5.691-0.177,8.593c0.249,2.706,1.426,5.286,0.82,8.023c0.595-0.078,1.188-0.157,1.783-0.236
					c-2.989-5.979-1.333-12.738-1.944-19.135C36.779,24.296,34.827,24.274,34.946,25.524L34.946,25.524z"/>
			</g>
		</g>
		<g>
			<g>
				<path fill="#036EB5" d="M30.314,23.027c4.583,5.778,3.054,13.666,4.494,20.476c0.226,1.066,2.019,0.854,1.918-0.246
					c-0.54-5.925-2.215-11.684-2.083-17.667c-0.65-0.004-1.301-0.009-1.951-0.014c0.385,6.307,1.372,12.453,3.199,18.509
					c0.326,1.079,1.842,0.845,1.918-0.246c0.072-1.026,0.606-3.583-0.703-4.224c-0.385-0.188-0.873-0.18-1.182,0.159
					c-1.122,1.232-0.613,3.238,0.067,4.552c0.468,0.899,1.772,0.427,1.817-0.487c0.301-6.154-2.679-11.956-1.22-18.095
					c0.29-1.224-1.592-1.739-1.883-0.515c-1.52,6.395,1.464,12.215,1.151,18.596c0.605-0.162,1.211-0.325,1.817-0.487
					c-0.402-0.679-0.527-1.39-0.376-2.135c-0.447,0.093-0.895,0.186-1.342,0.279c0.019,0.782-0.015,1.563-0.1,2.343
					c0.64-0.082,1.278-0.164,1.918-0.246c-1.776-5.888-2.759-11.851-3.133-17.99c-0.076-1.247-1.923-1.281-1.951-0.014
					c-0.132,5.999,1.542,11.727,2.083,17.667c0.64-0.082,1.278-0.164,1.918-0.246c-1.55-7.328-0.063-15.125-5.006-21.357
					C30.906,20.657,29.541,22.052,30.314,23.027L30.314,23.027z"/>
			</g>
		</g>
		<g>
			<g>
				<path fill="#036EB5" d="M34.785,45.238c0.104-1.53,0.17-3.059,0.489-4.563c-0.595,0.078-1.188,0.157-1.783,0.236
					c0.878,1.489,0.685,3.211,0.468,4.855c-0.165,1.247,1.789,1.242,1.951,0.014c0.267-2.019,0.332-4.046-0.735-5.857
					c-0.411-0.696-1.604-0.61-1.783,0.236c-0.354,1.671-0.443,3.366-0.558,5.065C32.749,46.483,34.701,46.486,34.785,45.238
					L34.785,45.238z"/>
			</g>
		</g>
		<g>
			<g>
				<path fill="#036EB5" d="M35.298,45.825c-0.201-3.009-0.812-6.011-0.023-8.984c-0.64-0.089-1.278-0.177-1.917-0.265
					c0.054,2.897-0.874,5.689-0.836,8.589c0.016,1.259,1.968,1.271,1.951,0.014c-0.038-2.897,0.89-5.688,0.836-8.589
					c-0.021-1.097-1.629-1.352-1.917-0.265c-0.836,3.157-0.259,6.289-0.045,9.486C33.431,47.061,35.382,47.08,35.298,45.825
					L35.298,45.825z"/>
			</g>
		</g>
		<g>
			<g>
				<path fill="#036EB5" d="M35.942,41.247c-0.26-0.768-0.45-1.533-0.583-2.333c-0.628,0.169-1.257,0.337-1.885,0.506
					c0.452,2.038,0.286,4.1,0,6.149c-0.171,1.23,1.709,1.758,1.883,0.516c0.335-2.408,0.532-4.775,0.002-7.171
					c-0.276-1.245-2.086-0.712-1.885,0.506c0.133,0.799,0.324,1.564,0.583,2.333C34.458,42.938,36.345,42.44,35.942,41.247
					L35.942,41.247z"/>
			</g>
		</g>
		<g>
			<g>
				<path fill="#036EB5" d="M32.423,20.024c-0.194,0-0.389,0-0.583,0c-0.951,0-1.377,1.355-0.495,1.82
					c3.497,1.842,4.879,7.16,6.313,10.483c0.497,1.151,2.176,0.153,1.684-0.988c-1.609-3.727-3.124-9.132-7.021-11.184
					c-0.165,0.607-0.33,1.213-0.495,1.82c0.194,0,0.389,0,0.583,0C33.669,21.976,33.681,20.024,32.423,20.024L32.423,20.024z"/>
			</g>
		</g>
		<g>
			<g>
				<path fill="#036EB5" d="M31.48,21.693c2.011,2.129,3.781,4.427,5.402,6.865c1.006,1.512,1.618,3.651,3.085,4.815
					c0.666,0.528,1.599,0.205,1.662-0.687c0.004-0.06,0.009-0.119,0.013-0.179c0.09-1.258-1.862-1.261-1.951-0.014
					c-0.004,0.06-0.009,0.119-0.013,0.179c0.554-0.229,1.107-0.458,1.661-0.687c-1.598-1.268-2.538-4.09-3.69-5.772
					c-1.437-2.094-3.055-4.062-4.797-5.907C31.989,19.392,30.617,20.779,31.48,21.693L31.48,21.693z"/>
			</g>
		</g>
		<g>
			<g>
				<path fill="#036EB5" d="M35.063,28.943c1.115,1.148,3.203,1.102,4.688,1.208c2.918,0.209,5.807,0.938,8.742,0.658
					c1.041-0.1,1.41-1.639,0.265-1.917c-1.316-0.319-2.363-0.143-3.678,0.165c-2.4,0.563-4.781,0.792-7.24,0.883
					c-1.055,0.04-1.401,1.738-0.265,1.917c2.853,0.449,5.691,0.896,8.585,0.952c1.176,0.022,1.245-1.536,0.265-1.917
					c-1.754-0.68-3.647-0.736-5.454-1.23c-1.418-0.388-2.565-0.977-4.057-0.688c-0.725,0.141-0.951,1.154-0.434,1.636
					c1.547,1.44,3.657,1.711,5.68,1.949c1.25,0.147,1.248-1.806,0.014-1.951c-1.462-0.172-3.193-0.334-4.32-1.385
					c-0.145,0.545-0.289,1.09-0.434,1.636c1.312-0.254,2.972,0.692,4.243,0.988c1.434,0.334,2.857,0.389,4.246,0.927
					c0.089-0.639,0.177-1.278,0.265-1.917c-2.724-0.052-5.396-0.459-8.083-0.882c-0.089,0.639-0.177,1.278-0.265,1.917
					c1.578-0.059,3.142-0.16,4.709-0.355c1.79-0.224,3.904-1.199,5.707-0.762c0.089-0.639,0.177-1.278,0.265-1.917
					c-2.556,0.244-5.054-0.285-7.583-0.583c-1.216-0.144-3.573,0.224-4.487-0.718C35.56,26.654,34.187,28.04,35.063,28.943
					L35.063,28.943z"/>
			</g>
		</g>
		<g>
			<g>
				<path fill="#036EB5" d="M27.994,44.509c2.714-1.828,4.32-4.619,5.684-7.521c0.54-1.146-0.958-1.997-1.689-0.975
					c-1.845,2.578-3.607,5.288-4.096,8.479c-0.129,0.844,0.622,1.518,1.435,1.1c1.918-0.987,2.54-3.081,3.517-4.854
					c-0.595-0.248-1.19-0.496-1.786-0.745c-0.44,1.089-3.587,5.745-1.067,6.273c1.228,0.257,1.747-1.624,0.515-1.883
					c0.301,0.718,0.477,0.843,0.526,0.374c0.054-0.186,0.115-0.367,0.186-0.547c0.172-0.473,0.406-0.928,0.624-1.381
					c0.371-0.771,0.777-1.526,1.098-2.321c0.421-1.043-1.261-1.696-1.786-0.745c-0.785,1.423-1.278,3.355-2.816,4.146
					c0.479,0.367,0.957,0.733,1.435,1.1c0.466-3.04,2.149-5.567,3.903-8.021c-0.563-0.325-1.126-0.649-1.689-0.975
					c-1.205,2.563-2.572,5.189-4.983,6.813C25.969,43.523,26.947,45.213,27.994,44.509L27.994,44.509z"/>
			</g>
		</g>
		<g>
			<g>
				<path fill="#036EB5" d="M57.166,35.019c0.535-0.224,2.951-1.486,3.409-0.857c0.733,1.005,2.426,0.03,1.684-0.988
					c-1.388-1.901-3.861-0.763-5.599-0.039C55.518,33.611,56.007,35.501,57.166,35.019L57.166,35.019z"/>
			</g>
		</g>
		<g>
			<g>
				<path fill="#036EB5" d="M58.339,36.491c-0.126,0.087-0.251,0.172-0.354,0.286c-0.294,0.324-0.379,0.791-0.147,1.18
					c0.023,0.04,0.047,0.08,0.07,0.12c0.201,0.339,0.697,0.608,1.095,0.448c1.674-0.679,2.635-2.346,3.592-3.788
					c0.696-1.05-0.997-2.019-1.689-0.975c-0.353,0.53-0.699,1.064-1.077,1.578c-0.327,0.445-0.798,1.084-1.331,1.3
					c0.365,0.149,0.729,0.299,1.095,0.448c-0.024-0.04-0.048-0.08-0.071-0.12c-0.05,0.394-0.099,0.787-0.148,1.181
					c-0.015,0.008-0.03,0.017-0.045,0.025C60.358,37.47,59.381,35.78,58.339,36.491L58.339,36.491z"/>
			</g>
		</g>
		<g>
			<g>
				<path fill="#036EB5" d="M54.993,39.643c0.647,0.074,1.305-0.007,1.927-0.2c1.197-0.373,0.697-2.259-0.506-1.885
					c-0.477,0.148-0.91,0.19-1.407,0.134c-0.529-0.061-0.979,0.479-0.982,0.969C54.021,39.234,54.465,39.582,54.993,39.643
					L54.993,39.643z"/>
			</g>
		</g>
		<g>
			<g>
				<path fill="#036EB5" d="M56.604,32.307c-0.021-0.024-0.042-0.049-0.063-0.073c-0.145,0.545-0.289,1.091-0.434,1.636
					c0.021-0.004,0.042-0.007,0.063-0.011c0.525-0.087,0.816-0.719,0.689-1.194c-0.148-0.551-0.671-0.776-1.195-0.69
					c-0.021,0.004-0.042,0.007-0.063,0.011c-0.792,0.131-0.867,1.133-0.434,1.635c0.021,0.024,0.042,0.049,0.063,0.073
					c0.348,0.402,1.029,0.349,1.38-0.007C57.006,33.286,56.95,32.709,56.604,32.307L56.604,32.307z"/>
			</g>
		</g>
	</g>
	<g display="inline">
		<g>
			<path fill="#036EB5" d="M35.129,9.754c1.752-1.42,3.782-2.334,5.963-2.872c1.253-0.309,0.733-2.24-0.518-1.932
				c-2.541,0.626-4.834,1.748-6.867,3.396C32.707,9.158,34.137,10.559,35.129,9.754L35.129,9.754z"/>
		</g>
	</g>
	<g display="inline">
		<g>
			<path fill="#036EB5" d="M41.069,6.631c0.425,0.071,0.869,0.135,1.264,0.318c0.494,0.229,1.075,0.137,1.366-0.366
				c0.254-0.44,0.129-1.136-0.366-1.366c-0.565-0.262-1.124-0.413-1.736-0.516c-0.537-0.09-1.073,0.137-1.229,0.701
				C40.235,5.888,40.531,6.541,41.069,6.631L41.069,6.631z"/>
		</g>
	</g>
	<g display="inline">
		<g>
			<path fill="#036EB5" d="M42.25,7.116c3.23,2.208,3.395,7.273,3.417,10.793c0.008,1.291,2.009,1.303,2,0.015
				C47.64,13.55,47.19,8.077,43.25,5.384C42.184,4.655,41.191,6.393,42.25,7.116L42.25,7.116z"/>
		</g>
	</g>
	<g display="inline">
		<g>
			<path fill="#036EB5" d="M44.888,12.34c1.179,2.691,1.338,5.671,1.279,8.569c-0.026,1.292,1.975,1.301,2,0.015
				c0.067-3.292-0.221-6.554-1.555-9.597C46.097,10.149,44.375,11.171,44.888,12.34L44.888,12.34z"/>
		</g>
	</g>
	<g display="inline">
		<g>
			<path fill="#036EB5" d="M48.383,20.325c-0.004-0.027-0.009-0.054-0.013-0.082c-0.085,0.321-0.17,0.642-0.255,0.962
				c0.017-0.017,0.034-0.033,0.051-0.05c-0.15,0.088-0.302,0.175-0.452,0.263c-0.085-0.001-0.047-0.001,0.112-0.002
				c1.29-0.012,1.303-2.012,0.014-2c-0.89,0.008-1.542,0.462-1.389,1.426c0.086,0.54,0.739,0.837,1.225,0.707
				C48.243,21.397,48.469,20.863,48.383,20.325L48.383,20.325z"/>
		</g>
	</g>
	<g display="inline">
		<g>
			<path fill="#036EB5" d="M47.493,21.417c1.291,0,1.303-2,0.014-2C46.216,19.417,46.204,21.417,47.493,21.417L47.493,21.417z"/>
		</g>
	</g>
	<g display="inline">
		<g>
			<path fill="#036EB5" d="M47.493,21.417c0.194,0,0.389,0,0.583,0c1.291,0,1.303-2,0.014-2c-0.194,0-0.389,0-0.583,0
				C46.216,19.417,46.204,21.417,47.493,21.417L47.493,21.417z"/>
		</g>
	</g>
	<g display="inline">
		<g>
			<path fill="#036EB5" d="M47.66,20.833c0.414,0.056,0.826,0.173,1.137,0.461c0.943,0.874,2.355-0.542,1.406-1.422
				c-0.724-0.671-1.573-0.91-2.529-1.039c-0.541-0.073-1.004,0.5-1.007,0.993C46.663,20.424,47.12,20.761,47.66,20.833L47.66,20.833
				z"/>
		</g>
	</g>
	<g display="inline">
		<g>
			<path fill="#036EB5" d="M47.41,21.833c2.938-0.337,5.317,1.59,7.84,2.783c1.158,0.547,2.168-1.18,1-1.732
				c-2.836-1.341-5.519-3.43-8.826-3.05C46.157,19.979,46.132,21.98,47.41,21.833L47.41,21.833z"/>
		</g>
	</g>
	<g display="inline">
		<g>
			<path fill="#036EB5" d="M55.047,25.127c1.023,1.047,1.867,2.234,2.07,3.715c0.175,1.275,2.104,0.742,1.932-0.518
				c-0.247-1.804-1.351-3.347-2.596-4.619C55.552,22.784,54.144,24.205,55.047,25.127L55.047,25.127z"/>
		</g>
	</g>
	<g display="inline">
		<g>
			<path fill="#036EB5" d="M56.493,27.804c-0.18,0.075-0.312,0.196-0.454,0.326c-0.95,0.873,0.474,2.278,1.422,1.407
				c0.016-0.003,0.03-0.005,0.046-0.008c0.504-0.21,0.603-0.947,0.355-1.369C57.56,27.643,56.996,27.594,56.493,27.804
				L56.493,27.804z"/>
		</g>
	</g>
	<g display="inline">
		<g>
			<path fill="#036EB5" d="M51.743,31.333c1.872-0.141,4.045-0.61,5.597-1.721c1.038-0.744,0.037-2.478-1.014-1.726
				c-1.262,0.904-3.039,1.331-4.569,1.446C50.479,29.43,50.458,31.431,51.743,31.333L51.743,31.333z"/>
		</g>
	</g>
	<g display="inline">
		<g>
			<path fill="#036EB5" d="M21.012,25.256c0.294,0.534,0.735,1.021,1.159,1.455c0.901,0.923,2.309-0.498,1.407-1.422
				c-0.31-0.317-0.626-0.655-0.841-1.045C22.116,23.114,20.39,24.126,21.012,25.256L21.012,25.256z"/>
		</g>
	</g>
	<g display="inline">
		<g>
			<path fill="#036EB5" d="M28.125,23.007c0-0.292,0-0.583,0-0.875c0-1.292-2-1.303-2-0.015c0,0.292,0,0.583,0,0.875
				C26.125,24.284,28.125,24.296,28.125,23.007L28.125,23.007z"/>
		</g>
	</g>
	<g display="inline">
		<g>
			<path fill="#036EB5" d="M46.757,31.113c2.311-1.091,4.885-1.449,7.252-2.397c1.182-0.473,0.678-2.411-0.518-1.932
				c-2.538,1.016-5.266,1.432-7.748,2.603C44.578,29.938,45.598,31.66,46.757,31.113L46.757,31.113z"/>
		</g>
	</g>
	<g display="inline">
		<g>
			<path fill="#036EB5" d="M51.259,28.5c-1.688,2.263-2.625,4.93-4,7.375c-0.632,1.124,1.1,2.126,1.732,1
				c1.375-2.445,2.311-5.112,4-7.375C53.762,28.467,52.021,27.479,51.259,28.5L51.259,28.5z"/>
		</g>
	</g>
	<g display="inline">
		<g>
			<path fill="#036EB5" d="M52.134,28.125c-0.207,0.449-0.348,0.873-0.384,1.368c-0.04,0.544,0.476,1.004,0.993,1.007
				c0.572,0.004,0.967-0.45,1.007-0.993c0.01-0.126,0.063-0.269,0.116-0.382c0.228-0.495,0.138-1.075-0.366-1.366
				C53.061,27.505,52.362,27.629,52.134,28.125L52.134,28.125z"/>
		</g>
	</g>
	<g display="inline">
		<g>
			<path fill="#036EB5" d="M30.546,43.586c0.848,0.961,2.075,1.587,3.204,2.155c1.147,0.577,2.154-1.151,1-1.732
				c-0.982-0.494-2.058-1.008-2.796-1.845C31.1,41.197,29.696,42.622,30.546,43.586L30.546,43.586z"/>
		</g>
	</g>
	<g display="inline">
		<g>
			<path fill="#036EB5" d="M34.078,34.664c-0.107-0.097-0.213-0.204-0.347-0.262c-0.459-0.196-1.124-0.173-1.366,0.366
				c-0.083,0.187-0.146,0.313-0.146,0.521c0-0.137,0.079,0.616,0.031,0.203c0.063,0.541,0.398,1.003,0.993,1.007
				c0.494,0.004,1.069-0.45,1.007-0.993c-0.018-0.157-0.044-0.313-0.065-0.469c-0.033,0.253-0.066,0.506-0.1,0.759
				c0.004-0.01,0.009-0.019,0.013-0.028c-0.455,0.122-0.911,0.244-1.366,0.366c-0.02-0.017-0.04-0.032-0.06-0.049
				C33.627,36.943,35.041,35.528,34.078,34.664L34.078,34.664z"/>
		</g>
	</g>
	<g display="inline">
		<g>
			<path fill="#036EB5" d="M28.586,23.204c0.134-0.133,0.257-0.247,0.42-0.341c1.116-0.644,0.106-2.371-1.013-1.726
				c-0.307,0.177-0.579,0.41-0.83,0.659C26.249,22.705,27.669,24.113,28.586,23.204L28.586,23.204z"/>
		</g>
	</g>
	<g display="inline">
		<g>
			<path fill="#036EB5" d="M28.007,20.625c-0.042,0-0.083,0-0.125,0c-1.292,0-1.303,2-0.015,2c0.042,0,0.083,0,0.125,0
				C29.284,22.625,29.296,20.625,28.007,20.625L28.007,20.625z"/>
		</g>
	</g>
	<g display="inline">
		<g>
			<path fill="#036EB5" d="M26.488,27.494c-0.055-0.081-0.103-0.164-0.146-0.251c0.023,0.044-0.04,0.155,0.024,0.008
				c0.215-0.5,0.147-1.07-0.366-1.366c-0.431-0.249-1.15-0.135-1.366,0.366c-0.34,0.792-0.337,1.512,0.128,2.256
				C25.445,29.596,27.174,28.59,26.488,27.494L26.488,27.494z"/>
		</g>
	</g>
	<g display="inline">
		<g>
			<path fill="#036EB5" d="M31.986,24.84c0.469,0.118,0.866,0.247,1.264,0.526c0.446,0.313,1.111,0.075,1.366-0.366
				c0.29-0.503,0.079-1.053-0.366-1.366c-0.524-0.368-1.12-0.568-1.736-0.724C31.262,22.595,30.735,24.525,31.986,24.84
				L31.986,24.84z"/>
		</g>
	</g>
	<g display="inline">
		<g>
			<path fill="#036EB5" d="M28.118,24.875c0.083,0,0.167,0,0.25,0c1.292,0,1.303-2,0.015-2c-0.083,0-0.167,0-0.25,0
				C26.841,22.875,26.829,24.875,28.118,24.875L28.118,24.875z"/>
		</g>
	</g>
	<g display="inline">
		<g>
			<path fill="#036EB5" d="M8.379,19.926c0.621,1.42,1.425,2.745,2.564,3.81c0.917,0.857,2.294-0.525,1.372-1.387
				c-1.023-0.956-1.697-2.138-2.254-3.411C9.56,17.788,7.881,18.786,8.379,19.926L8.379,19.926z"/>
		</g>
	</g>
	<g display="inline">
		<g>
			<path fill="#036EB5" d="M23.975,23.863c0.621-1.101,1.082-2.224,1.263-3.48c0.076-0.526-0.124-1.044-0.684-1.198
				c-0.464-0.127-1.123,0.157-1.198,0.684c-0.159,1.104-0.524,2.051-1.07,3.02C21.667,23.984,23.356,24.96,23.975,23.863
				L23.975,23.863z"/>
		</g>
	</g>
	<g display="inline">
		<g>
			<path fill="#036EB5" d="M9.771,22.544c0.445,1.181,0.879,2.39,1.756,3.327c0.876,0.936,2.21,1.265,3.429,1.445
				c1.23,0.183,1.756-1.698,0.515-1.882c-0.909-0.135-1.886-0.288-2.571-0.95c-0.643-0.622-0.938-1.633-1.244-2.445
				C11.216,20.874,9.328,21.367,9.771,22.544L9.771,22.544z"/>
		</g>
	</g>
	<g display="inline">
		<g>
			<path fill="#036EB5" d="M5.891,10.947c0.94-2.002,2.787-3.251,4.432-4.635c0.962-0.809-0.43-2.177-1.387-1.372
				C7.159,6.435,5.217,7.808,4.202,9.971C3.671,11.102,5.356,12.087,5.891,10.947L5.891,10.947z"/>
		</g>
	</g>
	<g display="inline">
		<g>
			<path fill="#036EB5" d="M6.558,9.947c1.353-2.686,4.108-4.94,7.074-5.545c1.234-0.252,0.722-2.135-0.505-1.885
				c-3.428,0.7-6.694,3.348-8.259,6.455C4.305,10.091,5.991,11.072,6.558,9.947L6.558,9.947z"/>
		</g>
	</g>
	<g display="inline">
		<g>
			<path fill="#036EB5" d="M21.438,12.878c0.347,2.107,2.313,3.552,2.55,5.657c0.14,1.236,2.092,1.261,1.951,0.014
				c-0.132-1.166-0.538-2.152-1.143-3.153c-0.593-0.981-1.284-1.864-1.474-3.023C23.118,11.132,21.235,11.648,21.438,12.878
				L21.438,12.878z"/>
		</g>
	</g>
	<g display="inline">
		<g>
			<path fill="#036EB5" d="M17.493,25.059c0.845,0.027,1.737-0.107,2.337-0.758c0.552-0.599,0.691-1.444,0.86-2.21
				c0.271-1.227-1.61-1.744-1.882-0.515c-0.059,0.266-0.116,0.533-0.181,0.797c-0.032,0.129-0.07,0.257-0.112,0.383
				c-0.041,0.109-0.042,0.117-0.004,0.021c-0.024,0.052-0.05,0.102-0.079,0.15c-0.072,0.129,0.08-0.059-0.102,0.113
				c0.191-0.181-0.226,0.074-0.006-0.006c-0.281,0.103-0.486,0.083-0.819,0.072C16.247,23.067,16.239,25.019,17.493,25.059
				L17.493,25.059z"/>
		</g>
	</g>
	<g display="inline">
		<g>
			<path fill="#036EB5" d="M22.441,24.924c0.23-0.623,0.796-1.114,1.252-1.571c0.889-0.889-0.496-2.264-1.387-1.372
				c-0.721,0.722-1.389,1.458-1.748,2.429c-0.185,0.5,0.204,1.067,0.684,1.198C21.789,25.757,22.257,25.422,22.441,24.924
				L22.441,24.924z"/>
		</g>
	</g>
	<g display="inline">
		<g>
			<path fill="#036EB5" d="M3.259,11.25C0.87,16.02,4.927,21.586,8.875,24.116c1.088,0.697,2.083-1.038,1-1.732
				C6.94,20.503,3.151,15.923,4.991,12.25C5.566,11.101,3.838,10.095,3.259,11.25L3.259,11.25z"/>
		</g>
	</g>
	<g display="inline">
		<g>
			<path fill="#036EB5" d="M7,19.243c0.044,1.563,0.76,2.938,1.921,3.968c0.96,0.852,2.375-0.563,1.407-1.422
				C9.569,21.116,9.03,20.297,9,19.257C8.963,17.969,6.963,17.954,7,19.243L7,19.243z"/>
		</g>
	</g>
	<g display="inline">
		<g>
			<path fill="#036EB5" d="M24,19.991c2.481,1.367,5.007,2.542,7.868,2.759c1.29,0.098,1.292-1.903,0.015-2
				c-2.499-0.189-4.721-1.301-6.882-2.491C23.871,17.637,22.869,19.368,24,19.991L24,19.991z"/>
		</g>
	</g>
	<g display="inline">
		<g>
			<path fill="#036EB5" d="M10.875,20.866c0.028,0.015,0.055,0.032,0.08,0.051c-0.232-0.16,0.009,0.017,0.044,0.048
				c0.176,0.151,0.345,0.309,0.516,0.465c0.337,0.309,0.669,0.627,1.031,0.906c0.431,0.333,0.996,0.417,1.415-0.007
				c0.348-0.352,0.425-1.081-0.007-1.415c-0.711-0.549-1.299-1.328-2.079-1.78C10.758,18.486,9.759,20.218,10.875,20.866
				L10.875,20.866z"/>
		</g>
	</g>
	<g display="inline">
		<g>
			<path fill="#036EB5" d="M15.296,15.961c0.668,0.536,1.328,1.087,1.875,1.75c0.347,0.42,1.061,0.351,1.415-0.007
				c0.411-0.417,0.34-0.994-0.007-1.415c-0.547-0.663-1.208-1.214-1.875-1.75c-0.424-0.341-1.002-0.411-1.415,0.007
				C14.936,14.904,14.871,15.619,15.296,15.961L15.296,15.961z"/>
		</g>
	</g>
	<g display="inline">
		<g>
			<path fill="#036EB5" d="M6.625,18.491c2.795,1.192,5.418-0.101,8.134-0.9c1.235-0.363,0.721-2.296-0.518-1.932
				c-2.003,0.589-4.526,1.991-6.616,1.1C6.453,16.259,5.439,17.985,6.625,18.491L6.625,18.491z"/>
		</g>
	</g>
	<g display="inline">
		<g>
			<path fill="#036EB5" d="M7.5,14.616c2.017,1.475,4.04,2.687,6.618,2.634c1.29-0.026,1.304-2.026,0.015-2
				c-2.226,0.045-3.904-1.102-5.632-2.366C7.458,12.123,6.47,13.862,7.5,14.616L7.5,14.616z"/>
		</g>
	</g>
	<g display="inline">
		<g>
			<path fill="#036EB5" d="M10.361,15.215c4.103,0.791,7.702-1.038,10.896-3.477c1.01-0.771,0.012-2.508-1.013-1.726
				c-2.698,2.061-5.824,3.954-9.354,3.273C9.628,13.042,9.095,14.971,10.361,15.215L10.361,15.215z"/>
		</g>
	</g>
	<g display="inline">
		<g>
			<path fill="#036EB5" d="M12.861,10.84c2.152,0.685,4.451,0.412,6.648,0.126c1.276-0.166,0.742-2.096-0.518-1.932
				c-1.843,0.24-3.802,0.449-5.602-0.124C12.156,8.518,11.637,10.45,12.861,10.84L12.861,10.84z"/>
		</g>
	</g>
	<g display="inline">
		<g>
			<path fill="#036EB5" d="M18.868,11c1.184,0,2.386-0.018,3.516-0.409c1.211-0.419,0.703-2.354-0.518-1.932
				C20.894,8.996,19.9,8.999,18.882,9C17.591,9,17.579,11.001,18.868,11L18.868,11z"/>
		</g>
	</g>
	<g display="inline">
		<g>
			<path fill="#036EB5" d="M13.618,4.375c1.414,0.001,2.826,0.005,4.132,0.616c1.16,0.542,2.17-1.186,1-1.732
				c-1.645-0.769-3.326-0.883-5.118-0.884C12.341,2.374,12.33,4.375,13.618,4.375L13.618,4.375z"/>
		</g>
	</g>
	<g display="inline">
		<g>
			<path fill="#036EB5" d="M17.986,13.715c1.64,0.284,3.327,0.402,4.898-0.249c1.174-0.486,0.671-2.424-0.518-1.932
				c-1.25,0.518-2.539,0.479-3.852,0.251C17.252,11.567,16.716,13.495,17.986,13.715L17.986,13.715z"/>
		</g>
	</g>
	<g display="inline">
		<g>
			<path fill="#036EB5" d="M18.131,27.488c0.075-0.049,0.068-0.051-0.021-0.006c0.08-0.025,0.16-0.046,0.242-0.063
				c0.131-0.031,0.255-0.04,0.39-0.044c1.288-0.039,1.303-2.04,0.015-2c-0.516,0.016-1.204,0.073-1.639,0.387
				c-0.441,0.319-0.652,0.865-0.356,1.369C17.018,27.568,17.689,27.807,18.131,27.488L18.131,27.488z"/>
		</g>
	</g>
	<g display="inline">
		<g>
			<path fill="#036EB5" d="M17.986,5.34c2.863,0.791,5.259,2.758,6.776,5.292c0.662,1.104,2.39,0.096,1.726-1.013
				c-1.78-2.971-4.618-5.282-7.974-6.208C17.268,3.066,16.744,4.997,17.986,5.34L17.986,5.34z"/>
		</g>
	</g>
	<g display="inline">
		<g>
			<path fill="#036EB5" d="M25.361,11.215c0.511,0.204,1.02,0.409,1.514,0.651c1.153,0.564,2.161-1.165,1-1.732
				c-0.647-0.316-1.318-0.581-1.986-0.849c-0.507-0.203-1.097,0.22-1.229,0.701C24.503,10.557,24.856,11.013,25.361,11.215
				L25.361,11.215z"/>
		</g>
	</g>
	<g display="inline">
		<g>
			<path fill="#036EB5" d="M25,10.616c2.566,1.856,5.383,3.292,8.618,3.259c1.29-0.013,1.303-2.014,0.014-2
				c-2.898,0.03-5.345-1.337-7.632-2.991C24.955,8.128,23.965,9.867,25,10.616L25,10.616z"/>
		</g>
	</g>
	<g display="inline">
		<g>
			<path fill="#036EB5" d="M28.243,21.875c3.012-0.072,5.523-1.405,7.593-3.546c0.896-0.926-0.523-2.337-1.422-1.407
				c-1.695,1.754-3.676,2.894-6.157,2.954C26.968,19.906,26.954,21.906,28.243,21.875L28.243,21.875z"/>
		</g>
	</g>
	<g display="inline">
		<g>
			<path fill="#036EB5" d="M33.384,14.216c1.013-0.253,2.02-0.516,3-0.875c0.512-0.188,0.857-0.663,0.707-1.225
				c-0.132-0.491-0.712-0.895-1.225-0.707c-0.98,0.359-1.988,0.622-3,0.875C31.614,12.597,32.134,14.529,33.384,14.216
				L33.384,14.216z"/>
		</g>
	</g>
	<g display="inline">
		<g>
			<path fill="#036EB5" d="M34.491,16.125c0.74-1.308,1.779-2.385,2.72-3.546c0.803-0.992-0.609-2.412-1.422-1.407
				c-1.046,1.292-2.207,2.499-3.03,3.954C32.124,16.248,33.855,17.249,34.491,16.125L34.491,16.125z"/>
		</g>
	</g>
	<g display="inline">
		<g>
			<path fill="#036EB5" d="M34.66,12.861c-0.559,1.655-0.734,3.443-1.526,5.014c-0.578,1.148,1.15,2.154,1.732,1
				c0.876-1.74,1.106-3.658,1.724-5.486C37.004,12.163,35.07,11.646,34.66,12.861L34.66,12.861z"/>
		</g>
	</g>
	<g display="inline">
		<g>
			<path fill="#036EB5" d="M31.616,13.625c0.974-2.204,2.589-3.896,4.641-5.137c1.101-0.667,0.093-2.395-1.014-1.726
				c-2.321,1.404-4.254,3.363-5.359,5.863C29.368,13.793,31.095,14.805,31.616,13.625L31.616,13.625z"/>
		</g>
	</g>
	<g display="inline">
		<g>
			<path fill="#036EB5" d="M16.625,4.991c0.98,0.461,2.025,0.773,3,1.25c1.153,0.563,2.161-1.165,1-1.732
				c-0.558-0.272-1.138-0.5-1.713-0.733C18.606,3.653,18.3,3.532,17.994,3.41c-0.102-0.041-0.204-0.082-0.305-0.123
				c-0.241-0.097,0.155,0.075-0.064-0.029C16.466,2.713,15.457,4.44,16.625,4.991L16.625,4.991z"/>
		</g>
	</g>
	<g display="inline">
		<g>
			<path fill="#036EB5" d="M15.296,27.211c0.282,0.268,0.553,0.395,0.946,0.414c1.292,0.065,1.297-1.936,0.015-2
				c-0.031-0.002-0.062-0.003-0.093-0.005c0.165,0.045,0.329,0.089,0.493,0.134c0.016,0.012,0.031,0.023,0.046,0.035
				C15.77,24.902,14.359,26.32,15.296,27.211L15.296,27.211z"/>
		</g>
	</g>
	<g display="inline">
		<g>
			<path fill="#036EB5" d="M20.256,26.988c0.679-0.359,1.284-0.874,1.83-1.409c0.92-0.903-0.5-2.312-1.422-1.407
				c-0.432,0.424-0.883,0.808-1.42,1.091C18.103,25.864,19.117,27.589,20.256,26.988L20.256,26.988z"/>
		</g>
	</g>
</g>
<path fill="#FFCAA6" stroke="#44030E" stroke-width="1.5" stroke-miterlimit="10" d="M20.463,21.625l2.418,4.25
	c0,0-2.351,1.5-2.741,3.5s-0.026,5.499-0.026,5.499L17.5,45.208c0,0,2.963,2.979,4.38,0.345s3.567-11.012,3.567-11.012l1.339,0.751
	l10.151-8.833c0,0-2.406-5.546-5.295-5.551S27.5,21.836,27.5,21.836l-4.37-3.627L20.463,21.625z"/>
<path fill="#F4E471" stroke="#FFB510" stroke-width="1.5" stroke-miterlimit="10" d="M29.607,23.542c0,0-1.152-19.041,12.933-19.041
	c4.236,0.655,4.627,15.291,4.627,15.291s13.082,4.083,10.916,8.083s-17.416,4.793-17.416,4.793L29.607,23.542z"/>
<path fill="#FFCAA6" stroke="#44030E" stroke-width="1.5" stroke-miterlimit="10" d="M38,44.042l6.637,4.041
	c0,0,9.238,1.333,10.363,0.625s1.334-3.196-0.583-4.015S48.5,42.792,48.5,42.792L43,38.979L38,44.042z"/>
<path fill="#FFCAA6" stroke="#44030E" stroke-width="1.5" stroke-miterlimit="10" d="M44.201,37.541c0,0,8.672,1.877,10.25,1.668
	s6.453-4.498,7.078-5.791s-0.291-4.056-1.958-2.987s-4.75,2.987-4.75,2.987l-8.417-2.14L44.201,37.541z"/>
<path fill="#8C7CCE" stroke="#35197C" stroke-width="1.5" stroke-miterlimit="10" d="M15.78,1.943c0,0,2.995-1.375,6.87,2.25
	s4.948,7.593,6.784,8.391s6.175,1.954,7.383,1.282c0,0-2.865,4.746-6.454,4.912l2.468,0.94c0,0-1.839,2.602-5.385,1.476
	s-4.667-5.917-4.667-5.917s-6.896-7.116-10.75-5.958s-4.07,6.318-5.917,5.5C1.275,9.069,11.364,0.318,15.78,1.943z"/>
<path fill="#FFCAA6" stroke="#44030E" stroke-width="1.5" stroke-miterlimit="10" d="M9.947,21.317l1.662,1.668
	c0,0-0.829,1.989,3.254,3.087c3.36,0.903,7.517-0.722,9.527-5.113s-1.61-8.891-1.61-8.891l-7-3.417l-9.667,7.409L9.947,21.317z"/>
<g>
	
		<linearGradient id="SVGID_1_" gradientUnits="userSpaceOnUse" x1="13.4312" y1="16.9199" x2="13.4312" y2="26.1805" gradientTransform="matrix(0.5652 -0.6284 0.5276 0.4745 -6.018 18.5079)">
		<stop  offset="0.7515" style="stop-color:#00081F"/>
		<stop  offset="1" style="stop-color:#7FFFFC"/>
	</linearGradient>
	<path fill="url(#SVGID_1_)" d="M14.27,19.639c0.908,0.816,1.644,1.479,0.725,2.499c-0.918,1.021-1.654,0.36-2.561-0.457
		c-1.492-1.34-1.232-1.935-0.725-2.498C12.215,18.62,12.627,18.162,14.27,19.639z"/>
	
		<ellipse transform="matrix(0.6689 -0.7434 0.7434 0.6689 -10.6911 15.4402)" fill="#FFFFFF" cx="11.987" cy="19.721" rx="0.731" ry="0.504"/>
</g>
<g>
	
		<linearGradient id="SVGID_2_" gradientUnits="userSpaceOnUse" x1="23.7544" y1="18.3477" x2="23.7544" y2="27.6105" gradientTransform="matrix(0.5654 -0.6493 0.5459 0.4753 -7.7872 19.668)">
		<stop  offset="0.7515" style="stop-color:#00081F"/>
		<stop  offset="1" style="stop-color:#7FFFFC"/>
	</linearGradient>
	<path fill="url(#SVGID_2_)" d="M19.53,14.479c0.938,0.817,1.7,1.48,0.781,2.536c-0.918,1.055-1.68,0.393-2.619-0.425
		c-1.543-1.343-1.289-1.952-0.781-2.535C17.417,13.472,17.83,13,19.53,14.479z"/>
	
		<ellipse transform="matrix(0.6566 -0.7543 0.7543 0.6566 -5.1035 17.989)" fill="#FFFFFF" cx="17.203" cy="14.599" rx="0.745" ry="0.514"/>
</g>
<g>
	<path fill="#78DCFF" stroke="#003684" stroke-width="1.5" stroke-miterlimit="10" d="M23.333,30.528l7.796-8.111
		c0,0,4.513-1.19,7.896,6.5c0,0,3.467-0.664,7.021-1.042c2.227-0.237,7.536,0,7.536,0s-1.688,9.976-6.453,12.875
		c-5.255,3.197-6.987,6.208-6.987,6.208s-3.726-1.75-6.821-6.208l-6.775-4.292C26.546,36.458,23.786,35.182,23.333,30.528z"/>
	
		<line fill="#78DCFF" stroke="#003684" stroke-width="1.5" stroke-miterlimit="10" x1="21.625" y1="26.256" x2="24.667" y2="29.042"/>
	
		<line fill="#78DCFF" stroke="#003684" stroke-width="1.5" stroke-miterlimit="10" x1="27.975" y1="21.975" x2="29.583" y2="25.731"/>
</g>
<path fill="#8C7CCE" stroke="#35197C" stroke-width="1.5" stroke-miterlimit="10" d="M4.605,12.069c0,0-1.554,4.647,0.841,7.649
	c1.496,1.875,4.333,1.492,5.787,1.242c0,0-1.537-1.224-3.12-4.557c0,0,2.985,0.268,7.442-0.633l-3.483-2.451
	c0,0,6.944-0.607,11.532-2.37c0,0-4.157-4.381-7.824-5.172C11.37,4.826,6.53,6.818,4.605,12.069z"/>
<path fill="none" stroke="#44030E" stroke-miterlimit="10" d="M18.625,24c0,0,1.963,0.667,1.708-1.459c0,0,2.447-0.292,1.292-2.417"
	/>
<path fill="#FFCAA6" stroke="#44030E" stroke-width="1.5" stroke-miterlimit="10" d="M28.894,27.174c0,0-1.648-6.314,3.11-5.992
	c3.511,0.237,2.85,5.767,2.85,5.767l-0.197,5.417c0,0-4.976,12.503-6.682,12.76c-1.617,0.244-2.79-2.521-2.126-4.672
	c0.664-2.151,2.93-8.028,2.93-8.028L28.894,27.174z"/>
</svg>
