<?xml version="1.0" encoding="iso-8859-1"?>
<!-- Generator: Adobe Illustrator 15.0.2, SVG Export Plug-In . SVG Version: 6.00 Build 0)  -->
<!DOCTYPE svg PUBLIC "-//W3C//DTD SVG 1.1//EN" "http://www.w3.org/Graphics/SVG/1.1/DTD/svg11.dtd">
<svg version="1.1" id="_x30_1" xmlns="http://www.w3.org/2000/svg" xmlns:xlink="http://www.w3.org/1999/xlink" x="0px" y="0px"
	 width="1008px" height="1008px" viewBox="0 0 1008 1008" style="enable-background:new 0 0 1008 1008;" xml:space="preserve">
<g>
	<rect x="475.777" y="311.987" style="fill:#00A0E9;" width="56.428" height="56.438"/>
	<path style="fill:#00A0E9;" d="M712.234,79.333H295.761c-89.044,0-161.224,72.186-161.224,161.224v416.477
		c0,89.035,72.179,161.221,161.224,161.221h138.617l68.904,110.414l68.92-110.414h140.031c89.037,0,161.229-72.186,161.229-161.221
		V240.556C873.463,151.518,801.271,79.333,712.234,79.333z M355.152,368.424h59.759v-56.438h-59.759v-60.858h59.759v-59.758h60.866
		v59.758h56.428v-59.758h60.863v59.758h59.752v60.858h-59.752v56.438h59.752v60.854h-59.752v59.76h-60.863v-59.76h-56.428v59.76
		h-60.866v-59.76h-59.759V368.424z M783.188,554.68c0,0-80.344,151.32-271.109,151.32c-2.641,0-5.246-0.033-7.842-0.08
		c-2.591,0.047-5.2,0.08-7.839,0.08c-190.76,0-271.104-151.32-271.104-151.32s-5.2-9.854-5.2-20.477
		c-0.328-7.666,3.421-18.656,13.26-25.129c5.472-3.596,10.644-5.376,15.44-5.932c22.97-2.437,36.282,12.52,47.229,29.6
		c12.09,18.846,81.835,101.418,208.212,104.578c126.383-3.16,196.131-85.732,208.217-104.578
		c10.949-17.08,24.742-32.062,47.232-29.6c4.795,0.556,9.971,2.336,15.438,5.932c9.844,6.473,13.674,15.592,13.328,25.121
		C787.682,548.217,783.188,554.68,783.188,554.68z"/>
</g>
</svg>
