<?xml version="1.0" encoding="iso-8859-1"?>
<!-- Generator: Adobe Illustrator 15.0.2, SVG Export Plug-In . SVG Version: 6.00 Build 0)  -->
<!DOCTYPE svg PUBLIC "-//W3C//DTD SVG 1.1//EN" "http://www.w3.org/Graphics/SVG/1.1/DTD/svg11.dtd">
<svg version="1.1" id="_x30_2" xmlns="http://www.w3.org/2000/svg" xmlns:xlink="http://www.w3.org/1999/xlink" x="0px" y="0px"
	 width="1008px" height="1008px" viewBox="0 0 1008 1008" style="enable-background:new 0 0 1008 1008;" xml:space="preserve">
<g>
	<rect x="479.425" y="311.987" style="fill:#00A0E9;" width="49.136" height="56.438"/>
	<path style="fill:#00A0E9;" d="M685.319,79.333H322.676c-77.536,0-140.386,72.186-140.386,161.224v416.477
		c0,89.035,62.85,161.221,140.386,161.221h120.701l59.999,110.414l60.012-110.414h121.932c77.53,0,140.391-72.186,140.391-161.221
		V240.556C825.71,151.518,762.85,79.333,685.319,79.333z M374.39,368.424h52.036v-56.438H374.39v-60.858h52.036v-59.758h52.999
		v59.758h49.136v-59.758h52.997v59.758h52.027v60.858h-52.027v56.438h52.027v60.854h-52.027v59.76h-52.997v-59.76h-49.136v59.76
		h-52.999v-59.76H374.39V368.424z M747.103,554.68c0,0-69.959,151.32-236.067,151.32c-2.3,0-4.57-0.033-6.83-0.08
		c-2.256,0.047-4.527,0.08-6.825,0.08c-166.105,0-236.064-151.32-236.064-151.32s-4.528-9.854-4.528-20.477
		c-0.285-7.666,2.979-18.656,11.547-25.129c4.764-3.596,9.268-5.376,13.444-5.932c20.001-2.437,31.593,12.52,41.125,29.6
		c10.527,18.846,71.259,101.418,181.301,104.578c110.048-3.16,170.782-85.732,181.306-104.578
		c9.533-17.08,21.544-32.062,41.128-29.6c4.176,0.556,8.683,2.336,13.442,5.932c8.571,6.473,11.906,15.592,11.605,25.121
		C751.016,548.217,747.103,554.68,747.103,554.68z"/>
</g>
</svg>
