<?xml version="1.0" encoding="iso-8859-1"?>
<!-- Generator: Adobe Illustrator 15.0.2, SVG Export Plug-In . SVG Version: 6.00 Build 0)  -->
<!DOCTYPE svg PUBLIC "-//W3C//DTD SVG 1.1//EN" "http://www.w3.org/Graphics/SVG/1.1/DTD/svg11.dtd">
<svg version="1.1" id="_x30_3" xmlns="http://www.w3.org/2000/svg" xmlns:xlink="http://www.w3.org/1999/xlink" x="0px" y="0px"
	 width="1008px" height="1008px" viewBox="0 0 1008 1008" style="enable-background:new 0 0 1008 1008;" xml:space="preserve">
<g>
	<rect x="484.317" y="311.987" style="fill:#00A0E9;" width="39.354" height="56.438"/>
	<path style="fill:#00A0E9;" d="M649.223,79.333H358.773c-62.101,0-112.438,72.186-112.438,161.224v416.477
		c0,89.035,50.338,161.221,112.438,161.221h96.672L503.5,928.668l48.065-110.414h97.657c62.097,0,112.442-72.186,112.442-161.221
		V240.556C761.665,151.518,711.319,79.333,649.223,79.333z M400.193,368.424h41.676v-56.438h-41.676v-60.858h41.676v-59.758h42.448
		v59.758h39.354v-59.758h42.446v59.758h41.671v60.858h-41.671v56.438h41.671v60.854h-41.671v59.76h-42.446v-59.76h-39.354v59.76
		h-42.448v-59.76h-41.676V368.424z M698.707,554.68c0,0-56.031,151.32-189.073,151.32c-1.841,0-3.658-0.033-5.47-0.08
		c-1.807,0.047-3.626,0.08-5.466,0.08c-133.037,0-189.069-151.32-189.069-151.32s-3.626-9.854-3.626-20.477
		c-0.229-7.666,2.386-18.656,9.247-25.129c3.816-3.596,7.424-5.376,10.769-5.932c16.02-2.437,25.304,12.52,32.938,29.6
		c8.432,18.846,57.073,101.418,145.208,104.578c88.141-3.16,136.784-85.732,145.212-104.578c7.636-17.08,17.256-32.062,32.941-29.6
		c3.345,0.556,6.954,2.336,10.766,5.932c6.865,6.473,9.536,15.592,9.296,25.121C701.841,548.217,698.707,554.68,698.707,554.68z"/>
</g>
</svg>
