<?xml version="1.0" encoding="iso-8859-1"?>
<!-- Generator: Adobe Illustrator 15.0.2, SVG Export Plug-In . SVG Version: 6.00 Build 0)  -->
<!DOCTYPE svg PUBLIC "-//W3C//DTD SVG 1.1//EN" "http://www.w3.org/Graphics/SVG/1.1/DTD/svg11.dtd">
<svg version="1.1" id="_x30_6" xmlns="http://www.w3.org/2000/svg" xmlns:xlink="http://www.w3.org/1999/xlink" x="0px" y="0px"
	 width="1008px" height="1008px" viewBox="0 0 1008 1008" style="enable-background:new 0 0 1008 1008;" xml:space="preserve">
<g>
	<rect x="499.552" y="311.987" style="fill:#00A0E9;" width="8.894" height="56.438"/>
	<path style="fill:#00A0E9;" d="M536.816,79.333h-65.634c-14.033,0-25.408,72.186-25.408,161.224v416.477
		c0,89.035,11.375,161.221,25.408,161.221h21.846l10.858,110.414l10.861-110.414h22.068c14.033,0,25.41-72.186,25.41-161.221
		V240.556C562.227,151.518,550.85,79.333,536.816,79.333z M480.542,368.424h9.417v-56.438h-9.417v-60.858h9.417v-59.758h9.592
		v59.758h8.894v-59.758h9.592v59.758h9.416v60.858h-9.416v56.438h9.416v60.854h-9.416v59.76h-9.592v-59.76h-8.894v59.76h-9.592
		v-59.76h-9.417V368.424z M548,554.68c0,0-12.662,151.32-42.727,151.32c-0.417,0-0.828-0.033-1.236-0.08
		c-0.408,0.047-0.819,0.08-1.235,0.08c-30.063,0-42.725-151.32-42.725-151.32s-0.819-9.854-0.819-20.477
		c-0.052-7.666,0.539-18.656,2.09-25.129c0.862-3.596,1.677-5.376,2.433-5.932c3.62-2.437,5.718,12.52,7.443,29.6
		c1.906,18.846,12.897,101.418,32.814,104.578c19.918-3.16,30.91-85.732,32.814-104.578c1.726-17.08,3.899-32.062,7.443-29.6
		c0.756,0.556,1.572,2.336,2.434,5.932c1.551,6.473,2.154,15.592,2.1,25.121C548.707,548.217,548,554.68,548,554.68z"/>
</g>
</svg>
