<?xml version="1.0" encoding="iso-8859-1"?>
<!-- Generator: Adobe Illustrator 15.0.2, SVG Export Plug-In . SVG Version: 6.00 Build 0)  -->
<!DOCTYPE svg PUBLIC "-//W3C//DTD SVG 1.1//EN" "http://www.w3.org/Graphics/SVG/1.1/DTD/svg11.dtd">
<svg version="1.1" id="_x30_7" xmlns="http://www.w3.org/2000/svg" xmlns:xlink="http://www.w3.org/1999/xlink" x="0px" y="0px"
	 width="1008px" height="1008px" viewBox="0 0 1008 1008" style="enable-background:new 0 0 1008 1008;" xml:space="preserve">
<g>
	<rect x="503.875" y="311.987" style="fill:#00A0E9;" width="0.25" height="56.438"/>
	<path style="fill:#00A0E9;" d="M504.922,79.333h-1.845c-0.394,0-0.714,72.186-0.714,161.224v416.477
		c0,89.035,0.32,161.221,0.714,161.221h0.615l0.305,110.414l0.305-110.414h0.62c0.394,0,0.714-72.186,0.714-161.221V240.556
		C505.637,151.518,505.316,79.333,504.922,79.333z M503.341,368.424h0.264v-56.438h-0.264v-60.858h0.264v-59.758h0.27v59.758h0.25
		v-59.758h0.269v59.758h0.265v60.858h-0.265v56.438h0.265v60.854h-0.265v59.76h-0.269v-59.76h-0.25v59.76h-0.27v-59.76h-0.264
		V368.424z M505.236,554.68c0,0-0.355,151.32-1.2,151.32c-0.012,0-0.023-0.033-0.035-0.08c-0.011,0.047-0.023,0.08-0.035,0.08
		c-0.845,0-1.201-151.32-1.201-151.32s-0.023-9.854-0.023-20.477c-0.001-7.666,0.015-18.656,0.059-25.129
		c0.024-3.596,0.047-5.376,0.068-5.932c0.102-2.437,0.161,12.52,0.209,29.6c0.054,18.846,0.362,101.418,0.922,104.578
		c0.56-3.16,0.869-85.732,0.922-104.578c0.049-17.08,0.11-32.062,0.209-29.6c0.021,0.556,0.044,2.336,0.068,5.932
		c0.043,6.473,0.061,15.592,0.059,25.121C505.257,548.217,505.236,554.68,505.236,554.68z"/>
</g>
</svg>
