<?xml version="1.0" encoding="utf-8"?>
<!-- Generator: Adobe Illustrator 15.0.2, SVG Export Plug-In . SVG Version: 6.00 Build 0)  -->
<!DOCTYPE svg PUBLIC "-//W3C//DTD SVG 1.1//EN" "http://www.w3.org/Graphics/SVG/1.1/DTD/svg11.dtd">
<svg version="1.1" id="レイヤー_1" xmlns="http://www.w3.org/2000/svg" xmlns:xlink="http://www.w3.org/1999/xlink" x="0px"
	 y="0px" width="64px" height="64px" viewBox="0 0 64 64" enable-background="new 0 0 64 64" xml:space="preserve">
<g>
	<polygon fill="#FFFFFF" points="57.834,32.417 58.834,37.167 67,43 65.75,66 43.75,66 45.417,44.584 	"/>
	<path fill="#662D91" d="M44,34.945l9.678,3.398c0,0-2.377,5.406-7.061,7.573L44.057,63l-5.973-18.75L44,39V34.945z"/>
	<path fill="none" stroke="#662D91" stroke-width="0.9659" stroke-miterlimit="10" d="M54.327,35.521c0,0,0,5.676-7.585,10.396
		l-2.932,14.667"/>
	<g>
		<path fill="#E0C6E5" stroke="#662D91" stroke-width="0.9659" stroke-miterlimit="10" d="M40.693,19.798l0.712,6.523
			c0,0-0.592,3.835-0.33,4.768c0.65,2.31,4.87,4.554,6.2,7.3c1.178,2.43,4.348,0.966,6.439-0.483
			c2.093-1.448,5.642-6.129,5.642-6.129s0.797-7.474,1.2-9.083c0.402-1.61-8.693-7.324-8.693-7.324S46.408,16.257,40.693,19.798z"/>
		<path fill="#FFD72E" stroke="#662D91" stroke-width="0.9659" stroke-miterlimit="10" d="M40.729,21.482
			c0,0,0.03-2.153-0.915-4.668c-0.945-2.516,0.384-3.785,0.384-3.785s0.631,2.135,1.046,2.17c0,0-0.605-4.459,2.172-6.76
			c0,0,0.845,1.053,1.386,2.172c0.545-3.413,2.808-4.605,2.651-6.725c0,0,2.067,0.716,3.145,3.07c0,0,0.857-1.859,3.375-4.769
			c1.479,2.354,2.484,3.693,2.906,6.841c0,0,1.405-2.361,2.005-3.209c0,0,2.295,6.351,1.912,8.534l0.984-2.053
			c0,0,0.701,6.546,0.314,6.982c-0.387,0.436-1.524,5.142-1.524,5.142L40.729,21.482z"/>
		<path fill="#662D91" d="M47.92,28.629c0,0-1.962-0.823-4.061-2.2c-2.708-1.777-1.89,0.442-1.778,0.931
			c0.223,0.978,1.016,2.708,2.793,2.876C47.315,30.47,47.92,28.629,47.92,28.629z"/>
		<path fill="#662D91" d="M51.216,28.804c0,0,2.618-0.677,4.235-1.03c2.357-0.515,3.905-1.453,2.902,0.823
			C56.761,32.208,52.045,31.274,51.216,28.804z"/>
		<path fill="#FFFFFF" d="M47.409,28.817l-4.125-2.011c0,0-0.12,2.183,1.391,2.646C46.215,29.925,47.409,28.817,47.409,28.817z"/>
		<path fill="#FFFFFF" d="M51.835,29.036c0,0,3.765-0.804,4.982-1.19c0,0,0.1,1.814-1.284,2.225
			C54.265,30.448,52.796,30.458,51.835,29.036z"/>
		<path fill="#662D91" d="M44.122,27.142l2.283,1.145c0,0-0.487,1.168-1.563,0.686C43.421,28.334,44.122,27.142,44.122,27.142z"/>
		<path fill="#662D91" d="M52.787,28.559l2.721-0.555c0,0,0.192,1.421-1.222,1.563C52.871,29.708,52.787,28.559,52.787,28.559z"/>
		<path fill="#FFFFFF" stroke="#662D91" stroke-width="0.4829" stroke-miterlimit="10" d="M46.579,35.771c0,0,5.354,0.084,6.97-3.54
			c0,0,2.024,3.062-1.048,4.546C49.691,38.136,50.788,35.644,46.579,35.771z"/>
		<polygon fill="#662D91" points="55.875,18.24 59.356,19.89 60.31,22.521 59.673,24.677 54.939,26.105 		"/>
		<path fill="none" stroke="#662D91" stroke-width="0.4829" stroke-miterlimit="10" d="M49.691,35.29c0,0,1.213,0.772,1.367,1.889"
			/>
		<path fill="none" stroke="#662D91" stroke-width="0.4829" stroke-miterlimit="10" d="M50.959,34.79c0,0,1.453,0.901,1.542,1.988"
			/>
		<path fill="none" stroke="#662D91" stroke-width="0.4829" stroke-miterlimit="10" d="M52.239,33.962c0,0,0.921,0.938,1.394,1.968"
			/>
		
			<line fill="none" stroke="#662D91" stroke-width="0.4829" stroke-miterlimit="10" x1="53.051" y1="33.09" x2="54.215" y2="34.328"/>
		<path fill="#662D91" d="M41.405,31.09c0,0,2.137,1.368,3.239,2.382c1.103,1.013,1.57,3.307,1.57,3.307S41.45,32.524,41.405,31.09z
			"/>
		<polygon fill="#662D91" points="60,29.036 56.086,33.028 55.089,37.021 60,31.958 		"/>
		<polygon fill="#662D91" points="47.247,27.643 47.92,28.792 47.833,30.287 48.69,28.669 		"/>
		<path fill="#662D91" d="M49.93,27.346l0.75,1.718l1.249,1.193l-0.094-1.465C51.835,28.792,50.369,28.377,49.93,27.346z"/>
		<g>
			<polygon fill="#662D91" points="39.79,21.245 38.599,21.949 39.065,24.948 41.077,25.27 			"/>
			<polygon fill="#662D91" points="45.385,17.904 48.787,18.813 49.549,20 50.979,20 51.301,24.125 49.207,24.053 46.068,25.869 			
				"/>
			<polygon fill="#662D91" points="57.539,18.995 62.604,23.097 62.356,24.991 56.819,25.758 			"/>
		</g>
		<circle fill="#FFFFFF" stroke="#662D91" stroke-width="1.0157" stroke-miterlimit="10" cx="44.056" cy="22.131" r="4.105"/>
		<circle fill="#FFFFFF" stroke="#662D91" stroke-width="1.0157" stroke-miterlimit="10" cx="53.927" cy="22.131" r="4.105"/>
		<path fill="#662D91" d="M42.099,24.206l3.854-4.403c-0.527-0.5-1.234-0.811-2.018-0.811c-1.623,0-2.938,1.315-2.938,2.938
			C40.997,22.853,41.432,23.667,42.099,24.206z"/>
		<path fill="#662D91" d="M52.174,24.486l3.961-4.005c-0.505-0.886-1.447-1.49-2.54-1.49c-1.624,0-2.938,1.315-2.938,2.938
			C50.656,23.034,51.272,23.984,52.174,24.486z"/>
	</g>
	<polyline fill="none" stroke="#662D91" stroke-width="0.9659" stroke-miterlimit="10" points="58.39,32.938 58.673,37.439 
		68.501,43.75 	"/>
	<path fill="none" stroke="#662D91" stroke-width="0.9659" stroke-miterlimit="10" d="M53.25,44.954c0,0,2.679-1.492,5.423-7.515"/>
</g>
<g>
	<path fill="#E0C6E5" stroke="#662D91" stroke-width="0.9183" stroke-miterlimit="10" d="M33.494,24.985
		c0,0,2.583-1.519,2.219-3.128c0,0,3.315-5.476-0.204-6.939C31.988,13.454,29.373,23.472,33.494,24.985z"/>
	<path fill="#FFFFFF" stroke="#662D91" stroke-width="0.9507" stroke-miterlimit="10" d="M34.729,26.94
		c0,0-3.044-13.418-4.164-18.221c-0.19-0.816-1.879-1.037-3.513-0.668c-1.635,0.369-3.049,1.291-2.886,2.113
		c0.986,4.956,4.114,18.437,4.114,18.437c-6.297,3.157-9.893,10.284-8.271,17.465c1.909,8.453,10.308,13.759,18.761,11.851
		c8.452-1.91,13.757-10.31,11.847-18.762C48.928,31.662,42.137,26.655,34.729,26.94z"/>
	<g>
		<path fill="#E0C6E5" stroke="#662D91" stroke-width="0.9183" stroke-miterlimit="10" d="M21.462,17.658
			c0,0-0.813-1.737-0.217-2.153c0.598-0.416,3.844,0.218,5.145,0.248s4.667-0.25,3.784,1.12c-0.882,1.371-2.908,1.931-4.268,1.93
			C24.545,18.801,21.71,18.933,21.462,17.658z"/>
		<path fill="#E0C6E5" stroke="#662D91" stroke-width="0.9183" stroke-miterlimit="10" d="M20.197,25.016
			c0,0,0.212-3.519,1.235-3.21c1.024,0.309,6.371,2.169,6.478,3.351c0.107,1.182-2.132,1.321-2.132,1.321s0.783,1.52-0.766,1.917
			C23.462,28.792,18.972,26.531,20.197,25.016z"/>
		<path fill="#E0C6E5" stroke="#662D91" stroke-width="0.9183" stroke-miterlimit="10" d="M36.17,17.574
			c0.232-0.603,0.007-2.599-1.183-2.97c-1.188-0.373-3.77-0.064-5.019-0.624c-1.248-0.56-2.996,0.17-1.724,2.795
			C29.516,19.402,35.379,19.628,36.17,17.574z"/>
		<path fill="#E0C6E5" stroke="#662D91" stroke-width="0.9183" stroke-miterlimit="10" d="M20.3,21.469c0,0-0.389-2.694,0.66-2.822
			c1.049-0.127,6.294,1.251,6.294,1.251s2.648,0.242,2.109,1.922C28.823,23.5,20.673,23.12,20.3,21.469z"/>
	</g>
	<path fill="#ADFF1F" d="M39.167,40.834c-2,5.5-14.383,0.401-17.447,0.939c-0.059,1.199,0.027,2.423,0.304,3.65
		c1.642,7.271,8.866,11.833,16.137,10.192c7.27-1.642,11.833-8.867,10.19-16.138c-0.303-1.341-0.799-2.588-1.446-3.723
		C45.346,34.328,42.481,31.718,39.167,40.834z"/>
</g>
</svg>
