<?xml version="1.0" encoding="utf-8"?>
<!-- Generator: Adobe Illustrator 15.0.2, SVG Export Plug-In . SVG Version: 6.00 Build 0)  -->
<!DOCTYPE svg PUBLIC "-//W3C//DTD SVG 1.1//EN" "http://www.w3.org/Graphics/SVG/1.1/DTD/svg11.dtd">
<svg version="1.1" id="_x30_1_13_" xmlns="http://www.w3.org/2000/svg" xmlns:xlink="http://www.w3.org/1999/xlink" x="0px" y="0px"
	 width="64px" height="64px" viewBox="0 0 64 64" enable-background="new 0 0 64 64" xml:space="preserve">
<g>
	<path fill="#A31C20" d="M16.273,32c0-8.686,7.041-15.727,15.727-15.727V16h-8.294c-3.297,1.713-5.993,4.409-7.706,7.706V32H16.273z
		"/>
	<path fill="#F06151" d="M23.706,16H16v7.706C17.713,20.409,20.409,17.713,23.706,16z"/>
</g>
<g>
	<rect x="61.018" y="15.706" fill="#A31C20" width="1.875" height="16"/>
	<polyline fill="#A31C20" points="48.744,15.979 48.744,31.706 49.018,31.706 49.018,15.706 	"/>
	<rect x="49.018" y="15.706" fill="#A31C20" width="2.031" height="16"/>
	<rect x="51.049" y="15.706" fill="#F06151" width="9.969" height="16"/>
</g>
<g>
	<path fill="#A31C20" d="M9.027,16H6.776c-2.94,4.626-4.651,10.112-4.651,16H4C4,26.049,5.862,20.536,9.027,16z"/>
	<path fill="#A31C20" d="M16,23.706c-1.291,2.484-2.031,5.301-2.031,8.294H16V23.706z"/>
	<path fill="#F06151" d="M16,23.706V16H9.027C5.862,20.536,4,26.049,4,32h9.969C13.969,29.007,14.709,26.19,16,23.706z"/>
</g>
<path fill="#F06151" d="M48,40.294V48h6.974C58.139,43.464,60,37.951,60,32h-9.969C50.031,34.993,49.291,37.81,48,40.294z"/>
<path fill="#F06151" d="M16,40.294c-1.291-2.484-2.031-5.301-2.031-8.294H4c0,5.951,1.862,11.464,5.027,16H16V40.294z"/>
<g>
	<rect x="32" y="1.109" fill="#A31C20" width="16" height="1.875"/>
	<polyline fill="#A31C20" points="48,14.984 32,14.984 32,15.258 47.727,15.258 	"/>
	<rect x="32" y="12.953" fill="#A31C20" width="16" height="2.031"/>
	<rect x="32" y="2.984" fill="#F06151" width="16" height="9.969"/>
</g>
<g>
	<path fill="#A31C20" d="M32,4V2.125c-5.888,0-11.374,1.71-16,4.651v2.251C20.536,5.862,26.049,4,32,4z"/>
	<path fill="#A31C20" d="M32,13.969c-2.993,0-5.81,0.741-8.294,2.031H32V13.969z"/>
	<path fill="#F06151" d="M23.706,16c2.484-1.291,5.301-2.031,8.294-2.031V4c-5.951,0-11.464,1.862-16,5.027V16H23.706z"/>
</g>
<g>
	<polygon fill="#A31C20" points="60.666,2.984 60.666,14.984 62.541,14.984 62.541,1.109 48.666,1.109 48.666,2.984 	"/>
	<rect x="48.666" y="12.953" fill="#A31C20" width="2.031" height="2.031"/>
	<polygon fill="#F06151" points="50.697,12.953 50.697,14.984 60.666,14.984 60.666,2.984 48.666,2.984 48.666,12.953 	"/>
</g>
<g>
	<path fill="#A31C20" d="M16,9.027V6.776C12.289,9.135,9.135,12.289,6.776,16h2.251C10.922,13.284,13.284,10.922,16,9.027z"/>
	<path fill="#F06151" d="M16,9.027c-2.716,1.895-5.078,4.257-6.973,6.973H16V9.027z"/>
</g>
<path fill="#F06151" d="M40.294,48c-2.484,1.291-5.301,2.031-8.294,2.031V60c5.951,0,11.464-1.861,16-5.026V48H40.294z"/>
<path fill="#F06151" d="M23.707,48H16v6.973C20.536,58.139,26.049,60,32,60v-9.969C29.007,50.031,26.191,49.291,23.707,48z"/>
<path fill="#F06151" d="M9.027,48c1.895,2.716,4.257,5.078,6.973,6.973V48H9.027z"/>
<g>
	<path fill="#A31C20" d="M47.727,32c0,8.685-7.041,15.727-15.727,15.727V48h8.294c3.297-1.713,5.993-4.409,7.706-7.706V32H47.727z"
		/>
	<path fill="#F06151" d="M40.294,48H48v-7.706C46.287,43.591,43.591,46.287,40.294,48z"/>
	<path fill="#E53528" d="M48,40.294c-1.713,3.297-4.409,5.993-7.706,7.706H48V40.294z"/>
</g>
<g>
	<path fill="#A31C20" d="M32,47.727c-8.686,0-15.727-7.042-15.727-15.727H16v8.294c1.713,3.297,4.409,5.993,7.707,7.706H32V47.727z"
		/>
	<path fill="#F06151" d="M16,40.294V48h7.707C20.409,46.287,17.713,43.591,16,40.294z"/>
	<path fill="#E53528" d="M16,40.294V48h7.707C20.409,46.287,17.713,43.591,16,40.294z"/>
</g>
<g>
	<path fill="#A31C20" d="M54.974,48h2.25c2.941-4.626,4.651-10.111,4.651-16H60C60,37.951,58.139,43.464,54.974,48z"/>
	<path fill="#A31C20" d="M48,40.294c1.291-2.484,2.031-5.301,2.031-8.294H48V40.294z"/>
	<path fill="#E53528" d="M48,48h6.974C58.139,43.464,60,37.951,60,32h-9.969c0,2.993-0.74,5.81-2.031,8.294V48z"/>
</g>
<g>
	<path fill="#A31C20" d="M4,32H2.125c0,5.889,1.71,11.374,4.651,16h2.251C5.862,43.464,4,37.951,4,32z"/>
	<path fill="#A31C20" d="M13.969,32c0,2.993,0.741,5.81,2.031,8.294V32H13.969z"/>
	<path fill="#E53528" d="M16,40.294c-1.291-2.484-2.031-5.301-2.031-8.294H4c0,5.951,1.862,11.464,5.027,16H16V40.294z"/>
</g>
<g>
	<path fill="#A31C20" d="M32,60v1.875c5.889,0,11.374-1.71,16-4.651v-2.25C43.464,58.139,37.951,60,32,60z"/>
	<path fill="#A31C20" d="M32,50.031c2.993,0,5.81-0.74,8.294-2.031H32V50.031z"/>
	<path fill="#E53528" d="M40.294,48c-2.484,1.291-5.301,2.031-8.294,2.031V60c5.951,0,11.464-1.861,16-5.026V48H40.294z"/>
</g>
<g>
	<path fill="#A31C20" d="M16,54.973v2.251c4.626,2.941,10.112,4.651,16,4.651V60C26.049,60,20.536,58.139,16,54.973z"/>
	<path fill="#A31C20" d="M23.707,48c2.484,1.291,5.3,2.031,8.293,2.031V48H23.707z"/>
	<path fill="#E53528" d="M23.707,48H16v6.973C20.536,58.139,26.049,60,32,60v-9.969C29.007,50.031,26.191,49.291,23.707,48z"/>
</g>
<g>
	<path fill="#A31C20" d="M48,54.974v2.25c3.712-2.358,6.865-5.512,9.224-9.224h-2.25C53.078,50.716,50.716,53.078,48,54.974z"/>
	<path fill="#F06151" d="M48,54.974c2.716-1.896,5.078-4.258,6.974-6.974H48V54.974z"/>
	<path fill="#E53528" d="M48,54.974c2.716-1.896,5.078-4.258,6.974-6.974H48V54.974z"/>
</g>
<g>
	<path fill="#A31C20" d="M9.027,48H6.776c2.359,3.712,5.513,6.865,9.224,9.224v-2.251C13.284,53.078,10.922,50.716,9.027,48z"/>
	<path fill="#E53528" d="M9.027,48c1.895,2.716,4.257,5.078,6.973,6.973V48H9.027z"/>
</g>
</svg>
