<?xml version="1.0" encoding="utf-8"?>
<!-- Generator: Adobe Illustrator 15.0.2, SVG Export Plug-In . SVG Version: 6.00 Build 0)  -->
<!DOCTYPE svg PUBLIC "-//W3C//DTD SVG 1.1//EN" "http://www.w3.org/Graphics/SVG/1.1/DTD/svg11.dtd">
<svg version="1.1" id="_x31_0_2_" xmlns="http://www.w3.org/2000/svg" xmlns:xlink="http://www.w3.org/1999/xlink" x="0px" y="0px"
	 width="64px" height="64px" viewBox="0 0 64 64" enable-background="new 0 0 64 64" xml:space="preserve">
<g>
	<path fill="#A31C20" d="M68.198,24.359c0-8.686,7.041-15.727,15.728-15.727V8.359H75.63c-3.296,1.713-5.992,4.409-7.705,7.706
		v8.294H68.198z"/>
	<path fill="#F06151" d="M75.63,8.359h-7.705v7.706C69.638,12.769,72.334,10.072,75.63,8.359z"/>
</g>
<g>
	<rect x="82.506" y="14.828" fill="#A31C20" width="1.875" height="16"/>
	<polyline fill="#A31C20" points="70.232,15.102 70.232,30.828 70.506,30.828 70.506,14.828 	"/>
	<rect x="70.506" y="14.828" fill="#A31C20" width="2.031" height="16"/>
	<rect x="72.537" y="14.828" fill="#F06151" width="9.969" height="16"/>
</g>
<g>
	<path fill="#A31C20" d="M58.104,10.417h-2.252c-2.939,4.626-4.65,10.112-4.65,16h1.875C53.077,20.465,54.938,14.953,58.104,10.417z
		"/>
	<path fill="#A31C20" d="M65.077,18.123c-1.291,2.484-2.031,5.301-2.031,8.294h2.031V18.123z"/>
	<path fill="#F06151" d="M65.077,18.123v-7.706h-6.973c-3.166,4.536-5.027,10.049-5.027,16h9.969
		C63.046,23.423,63.786,20.607,65.077,18.123z"/>
</g>
<g>
	<rect x="70.709" y="-4.771" fill="#A31C20" width="16" height="1.875"/>
	<polyline fill="#A31C20" points="86.709,9.104 70.709,9.104 70.709,9.377 86.436,9.377 	"/>
	<rect x="70.709" y="7.073" fill="#A31C20" width="16" height="2.031"/>
	<rect x="70.709" y="-2.896" fill="#F06151" width="16" height="9.969"/>
</g>
<g>
	<path fill="#A31C20" d="M82.8-4.57v-1.875c-5.888,0-11.373,1.71-16,4.651v2.251C71.337-2.708,76.849-4.57,82.8-4.57z"/>
	<path fill="#A31C20" d="M82.8,5.398c-2.992,0-5.809,0.741-8.293,2.031H82.8V5.398z"/>
	<path fill="#F06151" d="M74.507,7.43c2.484-1.291,5.301-2.031,8.293-2.031V-4.57c-5.951,0-11.463,1.862-16,5.027V7.43H74.507z"/>
</g>
<g>
	<polygon fill="#A31C20" points="82.506,1.713 82.506,13.713 84.381,13.713 84.381,-0.162 70.506,-0.162 70.506,1.713 	"/>
	<rect x="70.506" y="11.682" fill="#A31C20" width="2.031" height="2.031"/>
	<polygon fill="#F06151" points="72.537,11.682 72.537,13.713 82.506,13.713 82.506,1.713 70.506,1.713 70.506,11.682 	"/>
</g>
<g>
	<path fill="#A31C20" d="M72.537-1.575v-2.251c-3.712,2.359-6.864,5.513-9.225,9.224h2.251C67.459,2.682,69.821,0.32,72.537-1.575z"
		/>
	<path fill="#F06151" d="M72.537-1.575c-2.716,1.895-5.078,4.257-6.974,6.973h6.974V-1.575z"/>
</g>
<g>
	<path fill="#A31C20" d="M84.526,24.51c0,8.685-7.041,15.727-15.727,15.727v0.273h8.294c3.297-1.713,5.993-4.409,7.706-7.706V24.51
		H84.526z"/>
	<path fill="#F06151" d="M77.094,40.51H84.8v-7.706C83.087,36.101,80.391,38.797,77.094,40.51z"/>
	<path fill="#E53528" d="M84.8,32.804c-1.713,3.297-4.409,5.993-7.706,7.706H84.8V32.804z"/>
</g>
<g>
	<path fill="#A31C20" d="M89.856,49.281c-8.686,0-15.727-7.042-15.727-15.727h-0.273v8.294c1.713,3.297,4.41,5.993,7.707,7.706
		h8.293V49.281z"/>
	<path fill="#F06151" d="M73.856,41.849v7.706h7.707C78.267,47.842,75.569,45.146,73.856,41.849z"/>
	<path fill="#E53528" d="M73.856,41.849v7.706h7.707C78.267,47.842,75.569,45.146,73.856,41.849z"/>
</g>
<g>
	<path fill="#A31C20" d="M77.479,47.706h2.25c2.941-4.626,4.651-10.111,4.651-16h-1.875C82.506,37.657,80.645,43.17,77.479,47.706z"
		/>
	<path fill="#A31C20" d="M70.506,40c1.291-2.484,2.031-5.301,2.031-8.294h-2.031V40z"/>
	<path fill="#E53528" d="M70.506,47.706h6.974c3.165-4.536,5.026-10.049,5.026-16h-9.969c0,2.993-0.74,5.81-2.031,8.294V47.706z"/>
</g>
<g>
	<path fill="#A31C20" d="M43.352,30.092h-1.875c0,5.889,1.711,11.374,4.65,16h2.252C45.213,41.556,43.352,36.043,43.352,30.092z"/>
	<path fill="#A31C20" d="M53.32,30.092c0,2.993,0.74,5.81,2.031,8.294v-8.294H53.32z"/>
	<path fill="#E53528" d="M55.352,38.386c-1.291-2.484-2.031-5.301-2.031-8.294h-9.969c0,5.951,1.861,11.464,5.027,16h6.973V38.386z"
		/>
</g>
<g>
	<path fill="#A31C20" d="M68.506,55.265v1.875c5.889,0,11.374-1.71,16-4.651v-2.25C79.97,53.403,74.457,55.265,68.506,55.265z"/>
	<path fill="#A31C20" d="M68.506,45.296c2.993,0,5.81-0.74,8.294-2.031h-8.294V45.296z"/>
	<path fill="#E53528" d="M76.8,43.265c-2.484,1.291-5.301,2.031-8.294,2.031v9.969c5.951,0,11.464-1.861,16-5.026v-6.974H76.8z"/>
</g>
<g>
	<path fill="#A31C20" d="M74.506,59.45v2.251c4.627,2.941,10.112,4.651,16,4.651v-1.875C84.555,64.478,79.043,62.616,74.506,59.45z"
		/>
	<path fill="#A31C20" d="M82.213,52.478c2.484,1.291,5.301,2.031,8.293,2.031v-2.031H82.213z"/>
	<path fill="#E53528" d="M82.213,52.478h-7.707v6.973c4.537,3.166,10.049,5.027,16,5.027v-9.969
		C87.514,54.509,84.697,53.769,82.213,52.478z"/>
</g>
<g>
	<path fill="#A31C20" d="M70.369,55.447v2.25c3.712-2.358,6.865-5.512,9.224-9.224h-2.25C75.447,51.189,73.085,53.552,70.369,55.447
		z"/>
	<path fill="#F06151" d="M70.369,55.447c2.716-1.896,5.078-4.258,6.974-6.974h-6.974V55.447z"/>
	<path fill="#E53528" d="M70.369,55.447c2.716-1.896,5.078-4.258,6.974-6.974h-6.974V55.447z"/>
</g>
<g>
	<path fill="#A31C20" d="M60.354,46.224h-2.251c2.359,3.712,5.513,6.865,9.224,9.224v-2.251
		C64.612,51.302,62.249,48.939,60.354,46.224z"/>
	<path fill="#E53528" d="M60.354,46.224c1.895,2.716,4.258,5.078,6.973,6.973v-6.973H60.354z"/>
</g>
</svg>
