<?xml version="1.0" encoding="utf-8"?>
<!-- Generator: Adobe Illustrator 15.0.2, SVG Export Plug-In . SVG Version: 6.00 Build 0)  -->
<!DOCTYPE svg PUBLIC "-//W3C//DTD SVG 1.1//EN" "http://www.w3.org/Graphics/SVG/1.1/DTD/svg11.dtd">
<svg version="1.1" id="_x30_9_3_" xmlns="http://www.w3.org/2000/svg" xmlns:xlink="http://www.w3.org/1999/xlink" x="0px" y="0px"
	 width="64px" height="64px" viewBox="0 0 64 64" enable-background="new 0 0 64 64" xml:space="preserve">
<g>
	<path fill="#A31C20" d="M61.623,24.653c0-8.686,7.041-15.727,15.728-15.727V8.653h-8.296c-3.296,1.713-5.992,4.409-7.705,7.706
		v8.294H61.623z"/>
	<path fill="#F06151" d="M69.055,8.653H61.35v7.706C63.063,13.063,65.759,10.366,69.055,8.653z"/>
</g>
<g>
	<rect x="82.506" y="14.828" fill="#A31C20" width="1.875" height="16"/>
	<polyline fill="#A31C20" points="70.232,15.102 70.232,30.828 70.506,30.828 70.506,14.828 	"/>
	<rect x="70.506" y="14.828" fill="#A31C20" width="2.031" height="16"/>
	<rect x="72.537" y="14.828" fill="#F06151" width="9.969" height="16"/>
</g>
<g>
	<path fill="#A31C20" d="M39.314,12.126h-2.252c-2.939,4.626-4.65,10.112-4.65,16h1.875C34.287,22.175,36.148,16.663,39.314,12.126z
		"/>
	<path fill="#A31C20" d="M46.287,19.833c-1.291,2.484-2.031,5.301-2.031,8.294h2.031V19.833z"/>
	<path fill="#F06151" d="M46.287,19.833v-7.706h-6.973c-3.166,4.536-5.027,10.049-5.027,16h9.969
		C44.256,25.133,44.996,22.317,46.287,19.833z"/>
</g>
<g>
	<rect x="70.709" y="-4.771" fill="#A31C20" width="16" height="1.875"/>
	<polyline fill="#A31C20" points="86.709,9.104 70.709,9.104 70.709,9.377 86.436,9.377 	"/>
	<rect x="70.709" y="7.073" fill="#A31C20" width="16" height="2.031"/>
	<rect x="70.709" y="-2.896" fill="#F06151" width="16" height="9.969"/>
</g>
<g>
	<path fill="#A31C20" d="M82.8-4.57v-1.875c-5.888,0-11.373,1.71-16,4.651v2.251C71.337-2.708,76.849-4.57,82.8-4.57z"/>
	<path fill="#A31C20" d="M82.8,5.398c-2.992,0-5.809,0.741-8.293,2.031H82.8V5.398z"/>
	<path fill="#F06151" d="M74.507,7.43c2.484-1.291,5.301-2.031,8.293-2.031V-4.57c-5.951,0-11.463,1.862-16,5.027V7.43H74.507z"/>
</g>
<g>
	<polygon fill="#A31C20" points="82.506,1.713 82.506,13.713 84.381,13.713 84.381,-0.162 70.506,-0.162 70.506,1.713 	"/>
	<rect x="70.506" y="11.682" fill="#A31C20" width="2.031" height="2.031"/>
	<polygon fill="#F06151" points="72.537,11.682 72.537,13.713 82.506,13.713 82.506,1.713 70.506,1.713 70.506,11.682 	"/>
</g>
<g>
	<path fill="#A31C20" d="M59.203,3.037V0.786c-3.712,2.359-6.864,5.513-9.225,9.224h2.251C54.125,7.294,56.487,4.932,59.203,3.037z"
		/>
	<path fill="#F06151" d="M59.203,3.037c-2.716,1.895-5.078,4.257-6.974,6.973h6.974V3.037z"/>
</g>
<g>
	<path fill="#A31C20" d="M84.526,24.51c0,8.685-7.041,15.727-15.727,15.727v0.273h8.294c3.297-1.713,5.993-4.409,7.706-7.706V24.51
		H84.526z"/>
	<path fill="#F06151" d="M77.094,40.51H84.8v-7.706C83.087,36.101,80.391,38.797,77.094,40.51z"/>
	<path fill="#E53528" d="M84.8,32.804c-1.713,3.297-4.409,5.993-7.706,7.706H84.8V32.804z"/>
</g>
<g>
	<path fill="#A31C20" d="M69.349,48.987c-8.686,0-15.727-7.042-15.727-15.727h-0.273v8.294c1.713,3.297,4.41,5.993,7.707,7.706
		h8.293V48.987z"/>
	<path fill="#F06151" d="M53.349,41.555v7.706h7.707C57.759,47.548,55.062,44.852,53.349,41.555z"/>
	<path fill="#E53528" d="M53.349,41.555v7.706h7.707C57.759,47.548,55.062,44.852,53.349,41.555z"/>
</g>
<g>
	<path fill="#A31C20" d="M77.479,47.706h2.25c2.941-4.626,4.651-10.111,4.651-16h-1.875C82.506,37.657,80.645,43.17,77.479,47.706z"
		/>
	<path fill="#A31C20" d="M70.506,40c1.291-2.484,2.031-5.301,2.031-8.294h-2.031V40z"/>
	<path fill="#E53528" d="M70.506,47.706h6.974c3.165-4.536,5.026-10.049,5.026-16h-9.969c0,2.993-0.74,5.81-2.031,8.294V47.706z"/>
</g>
<g>
	<path fill="#A31C20" d="M23.863,30.092h-1.875c0,5.889,1.71,11.374,4.651,16h2.251C25.725,41.556,23.863,36.043,23.863,30.092z"/>
	<path fill="#A31C20" d="M33.832,30.092c0,2.993,0.74,5.81,2.031,8.294v-8.294H33.832z"/>
	<path fill="#E53528" d="M35.863,38.386c-1.291-2.484-2.031-5.301-2.031-8.294h-9.969c0,5.951,1.862,11.464,5.027,16h6.973V38.386z"
		/>
</g>
<g>
	<path fill="#A31C20" d="M68.506,55.265v1.875c5.889,0,11.374-1.71,16-4.651v-2.25C79.97,53.403,74.457,55.265,68.506,55.265z"/>
	<path fill="#A31C20" d="M68.506,45.296c2.993,0,5.81-0.74,8.294-2.031h-8.294V45.296z"/>
	<path fill="#E53528" d="M76.8,43.265c-2.484,1.291-5.301,2.031-8.294,2.031v9.969c5.951,0,11.464-1.861,16-5.026v-6.974H76.8z"/>
</g>
<g>
	<path fill="#A31C20" d="M61.055,58.784v2.251c4.627,2.941,10.112,4.651,16,4.651v-1.875C71.104,63.812,65.592,61.95,61.055,58.784z
		"/>
	<path fill="#A31C20" d="M68.762,51.812c2.484,1.291,5.301,2.031,8.293,2.031v-2.031H68.762z"/>
	<path fill="#E53528" d="M68.762,51.812h-7.707v6.973c4.537,3.166,10.049,5.027,16,5.027v-9.969
		C74.063,53.843,71.246,53.103,68.762,51.812z"/>
</g>
<g>
	<path fill="#A31C20" d="M70.369,55.447v2.25c3.712-2.358,6.865-5.512,9.224-9.224h-2.25C75.447,51.189,73.085,53.552,70.369,55.447
		z"/>
	<path fill="#F06151" d="M70.369,55.447c2.716-1.896,5.078-4.258,6.974-6.974h-6.974V55.447z"/>
	<path fill="#E53528" d="M70.369,55.447c2.716-1.896,5.078-4.258,6.974-6.974h-6.974V55.447z"/>
</g>
<g>
	<path fill="#A31C20" d="M40.223,47.199h-2.251c2.359,3.712,5.513,6.865,9.224,9.224v-2.251
		C44.48,52.277,42.117,49.915,40.223,47.199z"/>
	<path fill="#E53528" d="M40.223,47.199c1.895,2.716,4.258,5.078,6.973,6.973v-6.973H40.223z"/>
</g>
</svg>
