<?xml version="1.0" encoding="utf-8"?>
<!-- Generator: Adobe Illustrator 15.0.2, SVG Export Plug-In . SVG Version: 6.00 Build 0)  -->
<!DOCTYPE svg PUBLIC "-//W3C//DTD SVG 1.1//EN" "http://www.w3.org/Graphics/SVG/1.1/DTD/svg11.dtd">
<svg version="1.1" id="_x30_6_9_" xmlns="http://www.w3.org/2000/svg" xmlns:xlink="http://www.w3.org/1999/xlink" x="0px" y="0px"
	 width="64px" height="64px" viewBox="0 0 64 64" enable-background="new 0 0 64 64" xml:space="preserve">
<g>
	<path fill="#A31C20" d="M20.417,28.538c0-8.686,7.041-15.727,15.728-15.727v-0.273h-8.295c-3.297,1.713-5.993,4.409-7.706,7.706
		v8.294H20.417z"/>
	<path fill="#F06151" d="M27.849,12.538h-7.706v7.706C21.856,16.947,24.552,14.25,27.849,12.538z"/>
</g>
<g>
	<rect x="82.506" y="14.828" fill="#A31C20" width="1.875" height="16"/>
	<polyline fill="#A31C20" points="70.232,15.102 70.232,30.828 70.506,30.828 70.506,14.828 	"/>
	<rect x="70.506" y="14.828" fill="#A31C20" width="2.031" height="16"/>
	<rect x="72.537" y="14.828" fill="#F06151" width="9.969" height="16"/>
</g>
<g>
	<path fill="#A31C20" d="M9.027,16H6.776c-2.94,4.626-4.651,10.112-4.651,16H4C4,26.049,5.862,20.536,9.027,16z"/>
	<path fill="#A31C20" d="M16,23.706c-1.291,2.484-2.031,5.301-2.031,8.294H16V23.706z"/>
	<path fill="#F06151" d="M16,23.706V16H9.027C5.862,20.536,4,26.049,4,32h9.969C13.969,29.007,14.709,26.19,16,23.706z"/>
</g>
<path fill="#F06151" d="M16,40.294c-1.291-2.484-2.031-5.301-2.031-8.294H4c0,5.951,1.862,11.464,5.027,16H16V40.294z"/>
<g>
	<rect x="58.563" y="-2.74" fill="#A31C20" width="16" height="1.875"/>
	<polyline fill="#A31C20" points="74.563,11.135 58.563,11.135 58.563,11.409 74.29,11.409 	"/>
	<rect x="58.563" y="9.104" fill="#A31C20" width="16" height="2.031"/>
	<rect x="58.563" y="-0.865" fill="#F06151" width="16" height="9.969"/>
</g>
<g>
	<path fill="#A31C20" d="M54.877,0.662v-1.875c-5.888,0-11.373,1.71-16,4.651v2.251C43.414,2.524,48.926,0.662,54.877,0.662z"/>
	<path fill="#A31C20" d="M54.877,10.631c-2.992,0-5.809,0.741-8.293,2.031h8.293V10.631z"/>
	<path fill="#F06151" d="M46.584,12.662c2.484-1.291,5.301-2.031,8.293-2.031V0.662c-5.951,0-11.463,1.862-16,5.027v6.973H46.584z"
		/>
</g>
<g>
	<polygon fill="#A31C20" points="82.506,1.713 82.506,13.713 84.381,13.713 84.381,-0.162 70.506,-0.162 70.506,1.713 	"/>
	<rect x="70.506" y="11.682" fill="#A31C20" width="2.031" height="2.031"/>
	<polygon fill="#F06151" points="72.537,11.682 72.537,13.713 82.506,13.713 82.506,1.713 70.506,1.713 70.506,11.682 	"/>
</g>
<g>
	<path fill="#A31C20" d="M17.894,7.759V5.508c-3.711,2.359-6.865,5.513-9.224,9.224h2.251C12.816,12.016,15.178,9.654,17.894,7.759z
		"/>
	<path fill="#F06151" d="M17.894,7.759c-2.716,1.895-5.078,4.257-6.973,6.973h6.973V7.759z"/>
</g>
<path fill="#F06151" d="M9.027,48c1.895,2.716,4.257,5.078,6.973,6.973V48H9.027z"/>
<g>
	<path fill="#A31C20" d="M71.521,27.103c0,8.685-7.041,15.727-15.727,15.727v0.273h8.294c3.297-1.713,5.993-4.409,7.706-7.706
		v-8.294H71.521z"/>
	<path fill="#F06151" d="M64.088,43.103h7.706v-7.706C70.081,38.693,67.385,41.39,64.088,43.103z"/>
	<path fill="#E53528" d="M71.794,35.396c-1.713,3.297-4.409,5.993-7.706,7.706h7.706V35.396z"/>
</g>
<g>
	<path fill="#A31C20" d="M33.584,47.433c-8.686,0-15.727-7.042-15.727-15.727h-0.273V40c1.713,3.297,4.409,5.993,7.707,7.706h8.293
		V47.433z"/>
	<path fill="#F06151" d="M17.584,40v7.706h7.707C21.993,45.993,19.297,43.297,17.584,40z"/>
	<path fill="#E53528" d="M17.584,40v7.706h7.707C21.993,45.993,19.297,43.297,17.584,40z"/>
</g>
<g>
	<path fill="#A31C20" d="M77.479,47.706h2.25c2.941-4.626,4.651-10.111,4.651-16h-1.875C82.506,37.657,80.645,43.17,77.479,47.706z"
		/>
	<path fill="#A31C20" d="M70.506,40c1.291-2.484,2.031-5.301,2.031-8.294h-2.031V40z"/>
	<path fill="#E53528" d="M70.506,47.706h6.974c3.165-4.536,5.026-10.049,5.026-16h-9.969c0,2.993-0.74,5.81-2.031,8.294V47.706z"/>
</g>
<g>
	<path fill="#A31C20" d="M4,32H2.125c0,5.889,1.71,11.374,4.651,16h2.251C5.862,43.464,4,37.951,4,32z"/>
	<path fill="#A31C20" d="M13.969,32c0,2.993,0.741,5.81,2.031,8.294V32H13.969z"/>
	<path fill="#E53528" d="M16,40.294c-1.291-2.484-2.031-5.301-2.031-8.294H4c0,5.951,1.862,11.464,5.027,16H16V40.294z"/>
</g>
<g>
	<path fill="#A31C20" d="M51.646,57.827v1.875c5.889,0,11.374-1.71,16-4.651v-2.25C63.11,55.966,57.598,57.827,51.646,57.827z"/>
	<path fill="#A31C20" d="M51.646,47.858c2.993,0,5.81-0.74,8.294-2.031h-8.294V47.858z"/>
	<path fill="#E53528" d="M59.94,45.827c-2.484,1.291-5.301,2.031-8.294,2.031v9.969c5.951,0,11.464-1.861,16-5.026v-6.974H59.94z"/>
</g>
<g>
	<path fill="#A31C20" d="M21.02,55.482v2.251c4.626,2.941,10.112,4.651,16,4.651V60.51C31.069,60.51,25.556,58.648,21.02,55.482z"/>
	<path fill="#A31C20" d="M28.727,48.51c2.484,1.291,5.301,2.031,8.293,2.031V48.51H28.727z"/>
	<path fill="#E53528" d="M28.727,48.51H21.02v6.973c4.536,3.166,10.049,5.027,16,5.027v-9.969
		C34.027,50.541,31.211,49.801,28.727,48.51z"/>
</g>
<g>
	<path fill="#A31C20" d="M70.369,55.447v2.25c3.712-2.358,6.865-5.512,9.224-9.224h-2.25C75.447,51.189,73.085,53.552,70.369,55.447
		z"/>
	<path fill="#F06151" d="M70.369,55.447c2.716-1.896,5.078-4.258,6.974-6.974h-6.974V55.447z"/>
	<path fill="#E53528" d="M70.369,55.447c2.716-1.896,5.078-4.258,6.974-6.974h-6.974V55.447z"/>
</g>
<g>
	<path fill="#A31C20" d="M9.027,48H6.776c2.359,3.712,5.513,6.865,9.224,9.224v-2.251C13.284,53.078,10.922,50.716,9.027,48z"/>
	<path fill="#E53528" d="M9.027,48c1.895,2.716,4.257,5.078,6.973,6.973V48H9.027z"/>
</g>
</svg>
