<?xml version="1.0" encoding="utf-8"?>
<!-- Generator: Adobe Illustrator 15.0.2, SVG Export Plug-In . SVG Version: 6.00 Build 0)  -->
<!DOCTYPE svg PUBLIC "-//W3C//DTD SVG 1.1//EN" "http://www.w3.org/Graphics/SVG/1.1/DTD/svg11.dtd">
<svg version="1.1" id="_x30_3_13_" xmlns="http://www.w3.org/2000/svg" xmlns:xlink="http://www.w3.org/1999/xlink" x="0px" y="0px"
	 width="64px" height="64px" viewBox="0 0 64 64" enable-background="new 0 0 64 64" xml:space="preserve">
<g>
	<path fill="#A31C20" d="M16.273,32c0-8.686,7.041-15.727,15.727-15.727V16h-8.294c-3.297,1.713-5.993,4.409-7.706,7.706V32H16.273z
		"/>
	<path fill="#F06151" d="M23.706,16H16v7.706C17.713,20.409,20.409,17.713,23.706,16z"/>
</g>
<g>
	<rect x="71.324" y="14.828" fill="#A31C20" width="1.875" height="16"/>
	<polyline fill="#A31C20" points="59.051,15.102 59.051,30.828 59.324,30.828 59.324,14.828 	"/>
	<rect x="59.324" y="14.828" fill="#A31C20" width="2.031" height="16"/>
	<rect x="61.355" y="14.828" fill="#F06151" width="9.969" height="16"/>
</g>
<g>
	<path fill="#A31C20" d="M9.027,16H6.776c-2.94,4.626-4.651,10.112-4.651,16H4C4,26.049,5.862,20.536,9.027,16z"/>
	<path fill="#A31C20" d="M16,23.706c-1.291,2.484-2.031,5.301-2.031,8.294H16V23.706z"/>
	<path fill="#F06151" d="M16,23.706V16H9.027C5.862,20.536,4,26.049,4,32h9.969C13.969,29.007,14.709,26.19,16,23.706z"/>
</g>
<path fill="#F06151" d="M16,40.294c-1.291-2.484-2.031-5.301-2.031-8.294H4c0,5.951,1.862,11.464,5.027,16H16V40.294z"/>
<g>
	<rect x="34.851" y="0.68" fill="#A31C20" width="16" height="1.875"/>
	<polyline fill="#A31C20" points="50.851,14.555 34.851,14.555 34.851,14.828 50.577,14.828 	"/>
	<rect x="34.851" y="12.523" fill="#A31C20" width="16" height="2.031"/>
	<rect x="34.851" y="2.555" fill="#F06151" width="16" height="9.969"/>
</g>
<g>
	<path fill="#A31C20" d="M32,4V2.125c-5.888,0-11.374,1.71-16,4.651v2.251C20.536,5.862,26.049,4,32,4z"/>
	<path fill="#A31C20" d="M32,13.969c-2.993,0-5.81,0.741-8.294,2.031H32V13.969z"/>
	<path fill="#F06151" d="M23.706,16c2.484-1.291,5.301-2.031,8.294-2.031V4c-5.951,0-11.464,1.862-16,5.027V16H23.706z"/>
</g>
<g>
	<polygon fill="#A31C20" points="66.607,1.713 66.607,13.713 68.482,13.713 68.482,-0.162 54.607,-0.162 54.607,1.713 	"/>
	<rect x="54.607" y="11.682" fill="#A31C20" width="2.031" height="2.031"/>
	<polygon fill="#F06151" points="56.639,11.682 56.639,13.713 66.607,13.713 66.607,1.713 54.607,1.713 54.607,11.682 	"/>
</g>
<g>
	<path fill="#A31C20" d="M16,9.027V6.776C12.289,9.135,9.135,12.289,6.776,16h2.251C10.922,13.284,13.284,10.922,16,9.027z"/>
	<path fill="#F06151" d="M16,9.027c-2.716,1.895-5.078,4.257-6.973,6.973H16V9.027z"/>
</g>
<path fill="#F06151" d="M23.707,48H16v6.973C20.536,58.139,26.049,60,32,60v-9.969C29.007,50.031,26.191,49.291,23.707,48z"/>
<path fill="#F06151" d="M9.027,48c1.895,2.716,4.257,5.078,6.973,6.973V48H9.027z"/>
<g>
	<path fill="#A31C20" d="M51.271,30.651c0,8.685-7.041,15.727-15.727,15.727v0.273h8.294c3.297-1.713,5.993-4.409,7.706-7.706
		v-8.294H51.271z"/>
	<path fill="#F06151" d="M43.839,46.651h7.706v-7.706C49.832,42.242,47.136,44.938,43.839,46.651z"/>
	<path fill="#E53528" d="M51.545,38.945c-1.713,3.297-4.409,5.993-7.706,7.706h7.706V38.945z"/>
</g>
<g>
	<path fill="#A31C20" d="M32,47.727c-8.686,0-15.727-7.042-15.727-15.727H16v8.294c1.713,3.297,4.409,5.993,7.707,7.706H32V47.727z"
		/>
	<path fill="#F06151" d="M16,40.294V48h7.707C20.409,46.287,17.713,43.591,16,40.294z"/>
	<path fill="#E53528" d="M16,40.294V48h7.707C20.409,46.287,17.713,43.591,16,40.294z"/>
</g>
<g>
	<path fill="#A31C20" d="M61.581,47.706h2.25c2.941-4.626,4.651-10.111,4.651-16h-1.875C66.607,37.657,64.746,43.17,61.581,47.706z"
		/>
	<path fill="#A31C20" d="M54.607,40c1.291-2.484,2.031-5.301,2.031-8.294h-2.031V40z"/>
	<path fill="#E53528" d="M54.607,47.706h6.974c3.165-4.536,5.026-10.049,5.026-16h-9.969c0,2.993-0.74,5.81-2.031,8.294V47.706z"/>
</g>
<g>
	<path fill="#A31C20" d="M4,32H2.125c0,5.889,1.71,11.374,4.651,16h2.251C5.862,43.464,4,37.951,4,32z"/>
	<path fill="#A31C20" d="M13.969,32c0,2.993,0.741,5.81,2.031,8.294V32H13.969z"/>
	<path fill="#E53528" d="M16,40.294c-1.291-2.484-2.031-5.301-2.031-8.294H4c0,5.951,1.862,11.464,5.027,16H16V40.294z"/>
</g>
<g>
	<path fill="#A31C20" d="M32.667,60.035v1.875c5.889,0,11.374-1.71,16-4.651v-2.25C44.131,58.174,38.618,60.035,32.667,60.035z"/>
	<path fill="#A31C20" d="M32.667,50.066c2.993,0,5.81-0.74,8.294-2.031h-8.294V50.066z"/>
	<path fill="#E53528" d="M40.961,48.035c-2.484,1.291-5.301,2.031-8.294,2.031v9.969c5.951,0,11.464-1.861,16-5.026v-6.974H40.961z"
		/>
</g>
<g>
	<path fill="#A31C20" d="M16,54.973v2.251c4.626,2.941,10.112,4.651,16,4.651V60C26.049,60,20.536,58.139,16,54.973z"/>
	<path fill="#A31C20" d="M23.707,48c2.484,1.291,5.3,2.031,8.293,2.031V48H23.707z"/>
	<path fill="#E53528" d="M23.707,48H16v6.973C20.536,58.139,26.049,60,32,60v-9.969C29.007,50.031,26.191,49.291,23.707,48z"/>
</g>
<g>
	<path fill="#A31C20" d="M52.326,55.447v2.25c3.712-2.358,6.865-5.512,9.224-9.224H59.3C57.404,51.189,55.042,53.552,52.326,55.447z
		"/>
	<path fill="#F06151" d="M52.326,55.447c2.716-1.896,5.078-4.258,6.974-6.974h-6.974V55.447z"/>
	<path fill="#E53528" d="M52.326,55.447c2.716-1.896,5.078-4.258,6.974-6.974h-6.974V55.447z"/>
</g>
<g>
	<path fill="#A31C20" d="M9.027,48H6.776c2.359,3.712,5.513,6.865,9.224,9.224v-2.251C13.284,53.078,10.922,50.716,9.027,48z"/>
	<path fill="#E53528" d="M9.027,48c1.895,2.716,4.257,5.078,6.973,6.973V48H9.027z"/>
</g>
</svg>
