<?xml version="1.0" encoding="utf-8"?>
<!-- Generator: Adobe Illustrator 15.0.2, SVG Export Plug-In . SVG Version: 6.00 Build 0)  -->
<!DOCTYPE svg PUBLIC "-//W3C//DTD SVG 1.1//EN" "http://www.w3.org/Graphics/SVG/1.1/DTD/svg11.dtd">
<svg version="1.1" id="_x30_7_5_" xmlns="http://www.w3.org/2000/svg" xmlns:xlink="http://www.w3.org/1999/xlink" x="0px" y="0px"
	 width="64px" height="64px" viewBox="0 0 64 64" enable-background="new 0 0 64 64" xml:space="preserve">
<g>
	<path fill="#A31C20" d="M37.712,25.104c0-8.686,7.041-15.727,15.728-15.727V9.104h-8.296c-3.296,1.713-5.992,4.409-7.705,7.706
		v8.294H37.712z"/>
	<path fill="#F06151" d="M45.144,9.104h-7.705v7.706C39.151,13.513,41.848,10.817,45.144,9.104z"/>
</g>
<g>
	<rect x="82.506" y="14.828" fill="#A31C20" width="1.875" height="16"/>
	<polyline fill="#A31C20" points="70.232,15.102 70.232,30.828 70.506,30.828 70.506,14.828 	"/>
	<rect x="70.506" y="14.828" fill="#A31C20" width="2.031" height="16"/>
	<rect x="72.537" y="14.828" fill="#F06151" width="9.969" height="16"/>
</g>
<g>
	<path fill="#A31C20" d="M9.61,15.535H7.359c-2.94,4.626-4.651,10.112-4.651,16h1.875C4.583,25.584,6.445,20.071,9.61,15.535z"/>
	<path fill="#A31C20" d="M16.583,23.241c-1.291,2.484-2.031,5.301-2.031,8.294h2.031V23.241z"/>
	<path fill="#F06151" d="M16.583,23.241v-7.706H9.61c-3.165,4.536-5.027,10.049-5.027,16h9.969
		C14.552,28.542,15.293,25.726,16.583,23.241z"/>
</g>
<g>
	<rect x="70.709" y="-4.771" fill="#A31C20" width="16" height="1.875"/>
	<polyline fill="#A31C20" points="86.709,9.104 70.709,9.104 70.709,9.377 86.436,9.377 	"/>
	<rect x="70.709" y="7.073" fill="#A31C20" width="16" height="2.031"/>
	<rect x="70.709" y="-2.896" fill="#F06151" width="16" height="9.969"/>
</g>
<g>
	<path fill="#A31C20" d="M67.022-1.369v-1.875c-5.888,0-11.373,1.71-16,4.651v2.251C55.56,0.493,61.071-1.369,67.022-1.369z"/>
	<path fill="#A31C20" d="M67.022,8.6c-2.992,0-5.809,0.741-8.293,2.031h8.293V8.6z"/>
	<path fill="#F06151" d="M58.729,10.631C61.214,9.34,64.03,8.6,67.022,8.6v-9.969c-5.951,0-11.463,1.862-16,5.027v6.973H58.729z"/>
</g>
<g>
	<polygon fill="#A31C20" points="82.506,1.713 82.506,13.713 84.381,13.713 84.381,-0.162 70.506,-0.162 70.506,1.713 	"/>
	<rect x="70.506" y="11.682" fill="#A31C20" width="2.031" height="2.031"/>
	<polygon fill="#F06151" points="72.537,11.682 72.537,13.713 82.506,13.713 82.506,1.713 70.506,1.713 70.506,11.682 	"/>
</g>
<g>
	<path fill="#A31C20" d="M27.118,5.727V3.476c-3.711,2.359-6.865,5.513-9.224,9.224h2.251C22.04,9.984,24.402,7.622,27.118,5.727z"
		/>
	<path fill="#F06151" d="M27.118,5.727c-2.716,1.895-5.078,4.257-6.973,6.973h6.973V5.727z"/>
</g>
<path fill="#F06151" d="M9.027,48c1.895,2.716,4.257,5.078,6.973,6.973V48H9.027z"/>
<g>
	<path fill="#A31C20" d="M77.73,24.967c0,8.685-7.041,15.727-15.727,15.727v0.273h8.294c3.297-1.713,5.993-4.409,7.706-7.706v-8.294
		H77.73z"/>
	<path fill="#F06151" d="M70.298,40.967h7.706v-7.706C76.291,36.558,73.595,39.254,70.298,40.967z"/>
	<path fill="#E53528" d="M78.004,33.261c-1.713,3.297-4.409,5.993-7.706,7.706h7.706V33.261z"/>
</g>
<g>
	<path fill="#A31C20" d="M40.873,47.727c-8.685,0-15.726-7.042-15.726-15.727h-0.273v8.294c1.713,3.297,4.409,5.993,7.707,7.706
		h8.293V47.727z"/>
	<path fill="#F06151" d="M24.874,40.294V48h7.707C29.283,46.287,26.586,43.591,24.874,40.294z"/>
	<path fill="#E53528" d="M24.874,40.294V48h7.707C29.283,46.287,26.586,43.591,24.874,40.294z"/>
</g>
<g>
	<path fill="#A31C20" d="M77.479,47.706h2.25c2.941-4.626,4.651-10.111,4.651-16h-1.875C82.506,37.657,80.645,43.17,77.479,47.706z"
		/>
	<path fill="#A31C20" d="M70.506,40c1.291-2.484,2.031-5.301,2.031-8.294h-2.031V40z"/>
	<path fill="#E53528" d="M70.506,47.706h6.974c3.165-4.536,5.026-10.049,5.026-16h-9.969c0,2.993-0.74,5.81-2.031,8.294V47.706z"/>
</g>
<g>
	<path fill="#A31C20" d="M4.548,32.967H2.673c0,5.889,1.71,11.374,4.651,16h2.251C6.41,44.431,4.548,38.918,4.548,32.967z"/>
	<path fill="#A31C20" d="M14.517,32.967c0,2.993,0.741,5.81,2.031,8.294v-8.294H14.517z"/>
	<path fill="#E53528" d="M16.548,41.261c-1.291-2.484-2.031-5.301-2.031-8.294H4.548c0,5.951,1.862,11.464,5.027,16h6.973V41.261z"
		/>
</g>
<g>
	<path fill="#A31C20" d="M57.856,54.666v1.875c5.889,0,11.374-1.71,16-4.651v-2.25C69.32,52.805,63.808,54.666,57.856,54.666z"/>
	<path fill="#A31C20" d="M57.856,44.697c2.993,0,5.81-0.74,8.294-2.031h-8.294V44.697z"/>
	<path fill="#E53528" d="M66.15,42.666c-2.484,1.291-5.301,2.031-8.294,2.031v9.969c5.951,0,11.464-1.861,16-5.026v-6.974H66.15z"/>
</g>
<g>
	<path fill="#A31C20" d="M36.727,56.159v2.251c4.627,2.941,10.112,4.651,16,4.651v-1.875C46.775,61.187,41.264,59.325,36.727,56.159
		z"/>
	<path fill="#A31C20" d="M44.434,49.187c2.484,1.291,5.301,2.031,8.293,2.031v-2.031H44.434z"/>
	<path fill="#E53528" d="M44.434,49.187h-7.707v6.973c4.537,3.166,10.049,5.027,16,5.027v-9.969
		C49.734,51.218,46.918,50.478,44.434,49.187z"/>
</g>
<g>
	<path fill="#A31C20" d="M70.369,55.447v2.25c3.712-2.358,6.865-5.512,9.224-9.224h-2.25C75.447,51.189,73.085,53.552,70.369,55.447
		z"/>
	<path fill="#F06151" d="M70.369,55.447c2.716-1.896,5.078-4.258,6.974-6.974h-6.974V55.447z"/>
	<path fill="#E53528" d="M70.369,55.447c2.716-1.896,5.078-4.258,6.974-6.974h-6.974V55.447z"/>
</g>
<g>
	<path fill="#A31C20" d="M10.7,48.93H8.449c2.359,3.712,5.513,6.865,9.224,9.224v-2.251C14.958,54.008,12.595,51.646,10.7,48.93z"/>
	<path fill="#E53528" d="M10.7,48.93c1.895,2.716,4.257,5.078,6.973,6.973V48.93H10.7z"/>
</g>
</svg>
