<?xml version="1.0" encoding="utf-8"?>
<!-- Generator: Adobe Illustrator 15.0.2, SVG Export Plug-In . SVG Version: 6.00 Build 0)  -->
<!DOCTYPE svg PUBLIC "-//W3C//DTD SVG 1.1//EN" "http://www.w3.org/Graphics/SVG/1.1/DTD/svg11.dtd">
<svg version="1.1" id="_x30_8_4_" xmlns="http://www.w3.org/2000/svg" xmlns:xlink="http://www.w3.org/1999/xlink" x="0px" y="0px"
	 width="64px" height="64px" viewBox="0 0 64 64" enable-background="new 0 0 64 64" xml:space="preserve">
<g>
	<path fill="#A31C20" d="M55.623,25.241c0-8.686,7.041-15.727,15.728-15.727V9.241h-8.296c-3.296,1.713-5.992,4.409-7.705,7.706
		v8.294H55.623z"/>
	<path fill="#F06151" d="M63.055,9.241H55.35v7.706C57.063,13.65,59.759,10.954,63.055,9.241z"/>
</g>
<g>
	<rect x="82.506" y="14.828" fill="#A31C20" width="1.875" height="16"/>
	<polyline fill="#A31C20" points="70.232,15.102 70.232,30.828 70.506,30.828 70.506,14.828 	"/>
	<rect x="70.506" y="14.828" fill="#A31C20" width="2.031" height="16"/>
	<rect x="72.537" y="14.828" fill="#F06151" width="9.969" height="16"/>
</g>
<g>
	<path fill="#A31C20" d="M15.922,15.293h-2.251c-2.94,4.626-4.651,10.112-4.651,16h1.875C10.896,25.342,12.757,19.829,15.922,15.293
		z"/>
	<path fill="#A31C20" d="M22.896,22.999c-1.291,2.484-2.031,5.301-2.031,8.294h2.031V22.999z"/>
	<path fill="#F06151" d="M22.896,22.999v-7.706h-6.973c-3.165,4.536-5.027,10.049-5.027,16h9.969
		C20.864,28.3,21.605,25.483,22.896,22.999z"/>
</g>
<g>
	<rect x="70.709" y="-4.771" fill="#A31C20" width="16" height="1.875"/>
	<polyline fill="#A31C20" points="86.709,9.104 70.709,9.104 70.709,9.377 86.436,9.377 	"/>
	<rect x="70.709" y="7.073" fill="#A31C20" width="16" height="2.031"/>
	<rect x="70.709" y="-2.896" fill="#F06151" width="16" height="9.969"/>
</g>
<g>
	<path fill="#A31C20" d="M76.8-3.983v-1.875c-5.888,0-11.373,1.71-16,4.651v2.251C65.337-2.121,70.849-3.983,76.8-3.983z"/>
	<path fill="#A31C20" d="M76.8,5.986c-2.992,0-5.809,0.741-8.293,2.031H76.8V5.986z"/>
	<path fill="#F06151" d="M68.507,8.017c2.484-1.291,5.301-2.031,8.293-2.031v-9.969c-5.951,0-11.463,1.862-16,5.027v6.973H68.507z"
		/>
</g>
<g>
	<polygon fill="#A31C20" points="82.506,1.713 82.506,13.713 84.381,13.713 84.381,-0.162 70.506,-0.162 70.506,1.713 	"/>
	<rect x="70.506" y="11.682" fill="#A31C20" width="2.031" height="2.031"/>
	<polygon fill="#F06151" points="72.537,11.682 72.537,13.713 82.506,13.713 82.506,1.713 70.506,1.713 70.506,11.682 	"/>
</g>
<g>
	<path fill="#A31C20" d="M43.922,3.696V1.445c-3.712,2.359-6.864,5.513-9.225,9.224h2.251C38.844,7.953,41.206,5.591,43.922,3.696z"
		/>
	<path fill="#F06151" d="M43.922,3.696c-2.716,1.895-5.078,4.257-6.974,6.973h6.974V3.696z"/>
</g>
<g>
	<path fill="#A31C20" d="M77.73,24.967c0,8.685-7.041,15.727-15.727,15.727v0.273h8.294c3.297-1.713,5.993-4.409,7.706-7.706v-8.294
		H77.73z"/>
	<path fill="#F06151" d="M70.298,40.967h7.706v-7.706C76.291,36.558,73.595,39.254,70.298,40.967z"/>
	<path fill="#E53528" d="M78.004,33.261c-1.713,3.297-4.409,5.993-7.706,7.706h7.706V33.261z"/>
</g>
<g>
	<path fill="#A31C20" d="M51.496,46.555c-8.686,0-15.727-7.042-15.727-15.727h-0.273v8.294c1.713,3.297,4.41,5.993,7.707,7.706
		h8.293V46.555z"/>
	<path fill="#F06151" d="M35.496,39.122v7.706h7.707C39.906,45.115,37.209,42.419,35.496,39.122z"/>
	<path fill="#E53528" d="M35.496,39.122v7.706h7.707C39.906,45.115,37.209,42.419,35.496,39.122z"/>
</g>
<g>
	<path fill="#A31C20" d="M77.479,47.706h2.25c2.941-4.626,4.651-10.111,4.651-16h-1.875C82.506,37.657,80.645,43.17,77.479,47.706z"
		/>
	<path fill="#A31C20" d="M70.506,40c1.291-2.484,2.031-5.301,2.031-8.294h-2.031V40z"/>
	<path fill="#E53528" d="M70.506,47.706h6.974c3.165-4.536,5.026-10.049,5.026-16h-9.969c0,2.993-0.74,5.81-2.031,8.294V47.706z"/>
</g>
<g>
	<path fill="#A31C20" d="M8.035,32.51H6.16c0,5.889,1.71,11.374,4.651,16h2.251C9.896,43.974,8.035,38.461,8.035,32.51z"/>
	<path fill="#A31C20" d="M18.003,32.51c0,2.993,0.741,5.81,2.031,8.294V32.51H18.003z"/>
	<path fill="#E53528" d="M20.035,40.804c-1.291-2.484-2.031-5.301-2.031-8.294H8.035c0,5.951,1.862,11.464,5.027,16h6.973V40.804z"
		/>
</g>
<g>
	<path fill="#A31C20" d="M68.506,55.265v1.875c5.889,0,11.374-1.71,16-4.651v-2.25C79.97,53.403,74.457,55.265,68.506,55.265z"/>
	<path fill="#A31C20" d="M68.506,45.296c2.993,0,5.81-0.74,8.294-2.031h-8.294V45.296z"/>
	<path fill="#E53528" d="M76.8,43.265c-2.484,1.291-5.301,2.031-8.294,2.031v9.969c5.951,0,11.464-1.861,16-5.026v-6.974H76.8z"/>
</g>
<g>
	<path fill="#A31C20" d="M51.496,55.482v2.251c4.627,2.941,10.112,4.651,16,4.651V60.51C61.545,60.51,56.033,58.648,51.496,55.482z"
		/>
	<path fill="#A31C20" d="M59.203,48.51c2.484,1.291,5.301,2.031,8.293,2.031V48.51H59.203z"/>
	<path fill="#E53528" d="M59.203,48.51h-7.707v6.973c4.537,3.166,10.049,5.027,16,5.027v-9.969
		C64.504,50.541,61.688,49.801,59.203,48.51z"/>
</g>
<g>
	<path fill="#A31C20" d="M70.369,55.447v2.25c3.712-2.358,6.865-5.512,9.224-9.224h-2.25C75.447,51.189,73.085,53.552,70.369,55.447
		z"/>
	<path fill="#F06151" d="M70.369,55.447c2.716-1.896,5.078-4.258,6.974-6.974h-6.974V55.447z"/>
	<path fill="#E53528" d="M70.369,55.447c2.716-1.896,5.078-4.258,6.974-6.974h-6.974V55.447z"/>
</g>
<g>
	<path fill="#A31C20" d="M14.223,49.525h-2.251c2.359,3.712,5.513,6.865,9.224,9.224v-2.251
		C18.48,54.604,16.118,52.241,14.223,49.525z"/>
	<path fill="#E53528" d="M14.223,49.525c1.895,2.716,4.257,5.078,6.973,6.973v-6.973H14.223z"/>
</g>
</svg>
