<?xml version="1.0" encoding="utf-8"?>
<!-- Generator: Adobe Illustrator 15.0.2, SVG Export Plug-In . SVG Version: 6.00 Build 0)  -->
<!DOCTYPE svg PUBLIC "-//W3C//DTD SVG 1.1//EN" "http://www.w3.org/Graphics/SVG/1.1/DTD/svg11.dtd">
<svg version="1.1" id="_x30_0_6_" xmlns="http://www.w3.org/2000/svg" xmlns:xlink="http://www.w3.org/1999/xlink" x="0px" y="0px"
	 width="64px" height="64px" viewBox="0 0 64 64" enable-background="new 0 0 64 64" xml:space="preserve">
<g>
	<path fill="#9CDAF1" d="M49.608,52.727c0,3.356-7.777,6.078-17.366,6.078c-9.592,0-17.366-2.722-17.366-6.078
		s7.774-6.077,17.366-6.077C41.831,46.649,49.608,49.37,49.608,52.727L49.608,52.727z M49.608,52.727"/>
	<g>
		<defs>
			<path id="SVGID_1_" d="M24.771,63.605c0.386,1.803,1.338,2.867,2.27,3.494l9.937-0.012c1.202-0.816,2.431-2.361,2.431-5.28
				v-7.484c0,0,0.153-1.853,1.852-2.47c0,0,1.003-0.695-0.077-1.08c0,0-4.706-0.388-4.706,3.472v5.71c0,0,0.187,2.105-0.927,2.972
				v-7.048c0,0,0.076-2.237,1.234-3.087c0,0,0.772-1.389-0.925-1.003c0,0-3.241,0.463-3.396,4.244l-0.074,7.24H31.61l-0.074-7.24
				c-0.154-3.781-3.395-4.244-3.395-4.244c-1.698-0.386-0.926,1.003-0.926,1.003c1.157,0.85,1.234,3.087,1.234,3.087v7.129
				c-1.112-0.788-0.926-3.053-0.926-3.053v-5.71c0-3.859-4.707-3.472-4.707-3.472c-1.081,0.385-0.078,1.08-0.078,1.08
				c1.698,0.617,1.853,2.47,1.853,2.47v5.236L24.771,63.605z"/>
		</defs>
		<clipPath id="SVGID_2_">
			<use xlink:href="#SVGID_1_"  overflow="visible"/>
		</clipPath>
		<path clip-path="url(#SVGID_2_)" fill="#7DBBE6" d="M49.608,52.727c0,3.356-7.777,6.078-17.366,6.078
			c-9.592,0-17.366-2.722-17.366-6.078s7.774-6.077,17.366-6.077C41.831,46.649,49.608,49.37,49.608,52.727L49.608,52.727z
			 M49.608,52.727"/>
	</g>
	<path fill="#9CDAF1" d="M12.405,34.855l-0.502,1.746c0,0-0.131,0.632,0.464,0.743c0.622-0.012,0.57-0.592,0.527-0.781
		L12.405,34.855L12.405,34.855z M12.405,34.855"/>
	<path d="M62.89,27.533l0.046-0.228c-5.095-1.019-10.322-1.028-13.485-0.897c0.52-1.872,0.675-4.026,0.675-6.428
		c0-3.445-1.293-6.201-3.395-8.299c0.367-1.185,0.857-3.817-0.49-7.187c0,0-2.377-0.755-7.754,2.844
		c-2.107-0.527-4.349-0.786-6.593-0.786c-2.47,0-4.966,0.314-7.294,0.953c-5.549-3.787-7.999-3.011-7.999-3.011
		c-1.599,3.998-0.61,6.958-0.31,7.693c-1.879,2.028-3.026,4.618-3.026,7.792c0,2.396,0.272,4.546,0.938,6.414
		c-3.189-0.116-8.227-0.072-13.139,0.911l0.046,0.228c4.941-0.989,10.011-1.023,13.18-0.903c0.147,0.387,0.311,0.763,0.494,1.125
		c-3.135,0.101-8.487,0.5-13.618,1.948l0.063,0.222c5.17-1.458,10.57-1.848,13.675-1.942c1.873,3.492,5.565,5.746,12.136,6.455
		c-0.932,0.627-1.884,1.691-2.27,3.494c-1.271,0.607-5.292,2.092-7.706-2.06c0,0-1.351-2.47-3.938-2.664
		c0,0-2.508-0.038-0.173,1.563c0,0,1.679,0.791,2.837,3.763c0,0,1.511,5.069,8.801,3.443v5.237c0,0-0.154,1.852-1.853,2.468
		c0,0-1.003,0.695,0.078,1.081c0,0,4.707,0.387,4.707-3.473v-5.71c0,0-0.187-2.265,0.926-3.052v9.379c0,0-0.077,2.238-1.234,3.087
		c0,0-0.772,1.39,0.926,1.004c0,0,3.24-0.464,3.395-4.244l0.074-9.492h0.778l0.074,9.492c0.154,3.78,3.396,4.244,3.396,4.244
		c1.697,0.386,0.925-1.004,0.925-1.004c-1.158-0.849-1.234-3.087-1.234-3.087v-9.297c1.113,0.865,0.927,2.97,0.927,2.97v5.71
		c0,3.859,4.706,3.473,4.706,3.473c1.08-0.386,0.077-1.081,0.077-1.081c-1.698-0.616-1.852-2.468-1.852-2.468v-7.486
		c0-2.918-1.229-4.464-2.431-5.279c7.006-0.695,10.369-2.958,11.919-6.473c3.068,0.084,8.592,0.458,13.875,1.948l0.062-0.222
		c-5.253-1.481-10.74-1.865-13.839-1.955c0.146-0.355,0.274-0.724,0.389-1.104C52.522,26.509,57.775,26.51,62.89,27.533
		L62.89,27.533z M62.89,27.533"/>
	<path fill="#F4CBB2" d="M43.271,19.818c1.509,1.367,2.392,3.018,2.392,4.797c0,8.306-6.19,8.53-13.827,8.53
		c-7.638,0-13.828-1.15-13.828-8.53c0-1.767,0.87-3.408,2.361-4.77c2.486-2.269,6.693-1.067,11.467-1.067
		C36.591,18.778,40.782,17.564,43.271,19.818L43.271,19.818z M43.271,19.818"/>
	<path fill="#FFFFFF" d="M27.237,25.039c0,2.288-1.288,4.142-2.876,4.142c-1.59,0-2.879-1.854-2.879-4.142
		c0-2.287,1.289-4.141,2.879-4.141C25.949,20.898,27.237,22.751,27.237,25.039L27.237,25.039z M27.237,25.039"/>
	<path fill="#AD5B50" d="M26.314,25.09c0,1.525-0.859,2.761-1.918,2.761c-1.06,0-1.918-1.236-1.918-2.761
		c0-1.525,0.858-2.762,1.918-2.762C25.455,22.329,26.314,23.565,26.314,25.09L26.314,25.09z M26.314,25.09"/>
	<path fill="#FFFFFF" d="M42.674,25.039c0,2.288-1.288,4.142-2.878,4.142c-1.589,0-2.877-1.854-2.877-4.142
		c0-2.287,1.288-4.141,2.877-4.141C41.386,20.898,42.674,22.751,42.674,25.039L42.674,25.039z M42.674,25.039"/>
	<path fill="#AD5B50" d="M41.751,25.09c0,1.525-0.859,2.761-1.919,2.761s-1.919-1.236-1.919-2.761c0-1.525,0.859-2.762,1.919-2.762
		S41.751,23.565,41.751,25.09L41.751,25.09z M41.751,25.09"/>
	<path fill="#AD5B50" d="M32.597,28.717c0,0.397-0.322,0.72-0.72,0.72s-0.72-0.322-0.72-0.72s0.322-0.719,0.72-0.719
		S32.597,28.319,32.597,28.717L32.597,28.717z M32.597,28.717"/>
	<path fill="#AD5B50" d="M30.2,30.536c-0.042-0.121,0.021-0.253,0.141-0.295c0.121-0.043,0.253,0.021,0.295,0.141
		c0.186,0.523,0.682,0.874,1.234,0.874c0.554,0,1.05-0.351,1.235-0.874c0.042-0.121,0.175-0.184,0.295-0.141
		c0.12,0.042,0.184,0.174,0.141,0.295c-0.25,0.707-0.922,1.182-1.671,1.182C31.122,31.718,30.451,31.243,30.2,30.536L30.2,30.536z
		 M30.2,30.536"/>
	<path fill="#C3E4D8" d="M14.247,33.826c0,0.191-0.225,0.348-0.502,0.348c-0.276,0-0.502-0.156-0.502-0.348
		c0-0.192,0.226-0.348,0.502-0.348C14.022,33.479,14.247,33.634,14.247,33.826L14.247,33.826z M14.247,33.826"/>
	<path fill="#C3E4D8" d="M15.637,34.598c0,0.191-0.225,0.348-0.502,0.348s-0.502-0.156-0.502-0.348s0.225-0.348,0.502-0.348
		S15.637,34.406,15.637,34.598L15.637,34.598z M15.637,34.598"/>
	<path fill="#C3E4D8" d="M16.485,35.602c0,0.191-0.225,0.348-0.502,0.348c-0.276,0-0.501-0.156-0.501-0.348s0.225-0.348,0.501-0.348
		C16.261,35.254,16.485,35.41,16.485,35.602L16.485,35.602z M16.485,35.602"/>
	<path fill="#C3E4D8" d="M17.257,36.76c0,0.191-0.225,0.347-0.501,0.347c-0.277,0-0.502-0.155-0.502-0.347
		c0-0.193,0.225-0.349,0.502-0.349C17.032,36.411,17.257,36.566,17.257,36.76L17.257,36.76z M17.257,36.76"/>
	<path fill="#C3E4D8" d="M18.105,37.84c0,0.191-0.224,0.348-0.501,0.348c-0.276,0-0.502-0.156-0.502-0.348
		c0-0.192,0.226-0.348,0.502-0.348C17.882,37.492,18.105,37.647,18.105,37.84L18.105,37.84z M18.105,37.84"/>
	<path fill="#C3E4D8" d="M19.265,38.766c0,0.192-0.226,0.348-0.502,0.348c-0.277,0-0.502-0.155-0.502-0.348
		c0-0.191,0.225-0.347,0.502-0.347C19.039,38.419,19.265,38.574,19.265,38.766L19.265,38.766z M19.265,38.766"/>
	<path fill="#C3E4D8" d="M20.885,39.384c0,0.191-0.225,0.347-0.501,0.347c-0.278,0-0.503-0.155-0.503-0.347
		c0-0.192,0.225-0.348,0.503-0.348C20.66,39.036,20.885,39.191,20.885,39.384L20.885,39.384z M20.885,39.384"/>
	<path fill="#C3E4D8" d="M22.498,39.384c0,0.191-0.225,0.347-0.501,0.347c-0.278,0-0.503-0.155-0.503-0.347
		c0-0.192,0.225-0.348,0.503-0.348C22.273,39.036,22.498,39.191,22.498,39.384L22.498,39.384z M22.498,39.384"/>
	<path fill="#C3E4D8" d="M24.135,39.114c0,0.192-0.225,0.349-0.501,0.349c-0.278,0-0.502-0.156-0.502-0.349
		c0-0.191,0.224-0.348,0.502-0.348C23.91,38.767,24.135,38.923,24.135,39.114L24.135,39.114z M24.135,39.114"/>
</g>
<g id="_x30_0_5_" display="none">
	<path display="inline" d="M24.771,37.932c-1.271,0.607-5.292,2.092-7.706-2.06c0,0-1.351-2.47-3.938-2.664
		c0,0-2.508-0.038-0.173,1.563c0,0,1.679,0.791,2.837,3.763c0,0,1.511,5.069,8.801,3.443C24.592,41.978,26.042,40.292,24.771,37.932
		z"/>
</g>
</svg>
