<?xml version="1.0" encoding="utf-8"?>
<!-- Generator: Adobe Illustrator 15.0.2, SVG Export Plug-In . SVG Version: 6.00 Build 0)  -->
<!DOCTYPE svg PUBLIC "-//W3C//DTD SVG 1.1//EN" "http://www.w3.org/Graphics/SVG/1.1/DTD/svg11.dtd">
<svg version="1.1" id="_x30_2_8_" xmlns="http://www.w3.org/2000/svg" xmlns:xlink="http://www.w3.org/1999/xlink" x="0px" y="0px"
	 width="64px" height="64px" viewBox="0 0 64 64" enable-background="new 0 0 64 64" xml:space="preserve">
<path fill="#9CDAF1" d="M49.608,52.727c0,3.356-7.777,6.078-17.366,6.078c-9.592,0-17.366-2.722-17.366-6.078
	s7.774-6.077,17.366-6.077C41.831,46.649,49.608,49.37,49.608,52.727L49.608,52.727z M49.608,52.727"/>
<g>
	<defs>
		<path id="SVGID_1_" d="M49.608,52.727c0,3.356-7.777,6.078-17.366,6.078c-9.592,0-17.366-2.722-17.366-6.078
			s7.774-6.077,17.366-6.077C41.831,46.649,49.608,49.37,49.608,52.727L49.608,52.727z M49.608,52.727"/>
	</defs>
	<clipPath id="SVGID_2_">
		<use xlink:href="#SVGID_1_"  overflow="visible"/>
	</clipPath>
	<path clip-path="url(#SVGID_2_)" fill="#7DBBE6" d="M36.977,69.682c1.389-0.428,3.44-1.55,3.44-4.468l-1.01-10.998
		c0,0,0.153-1.852,1.852-2.468c0,0,1.003-0.695-0.077-1.081c0,0-4.706-0.387-4.706,3.473c0,0,0.808,9.327,0.608,10.324
		c-0.166,0.833-1.084,1.75-1.535,1.056c0.701-2.056,0-9.297,0-9.297s0.076-2.238,1.234-3.087c0,0,0.772-1.39-0.925-1.004
		c0,0-3.241,0.464-3.396,4.244c0,0,1.121,5.255-0.074,9.492c-0.053,0.188-0.714,0.184-0.778,0c-1.277-3.654-0.074-9.492-0.074-9.492
		c-0.154-3.78-3.395-4.244-3.395-4.244c-1.698-0.386-0.926,1.004-0.926,1.004c1.157,0.849,1.234,3.087,1.234,3.087
		s-0.533,5.991,0,9.379c-0.783,0.029-1.385-1.524-1.367-2.721c0.017-1.067,0.441-8.741,0.441-8.741c0-3.859-4.707-3.473-4.707-3.473
		c-1.081,0.386-0.078,1.081-0.078,1.081c1.698,0.616,1.853,2.468,1.853,2.468s-0.982,10.038-0.758,11.498
		c0.333,2.167,2.132,3.652,3.207,3.979C29.417,70.417,34.603,70.412,36.977,69.682z"/>
</g>
<g id="_x30_2_6_">
	<g>
		<g>
			<path d="M14.448,44.837c-1.94-3.178,1.338-5.466,4.027-6.27c1.335-0.399,2.715-0.014,3.909,0.608
				c1.115,0.581,1.539,1.752,2.641,2.308c0.778,0.392,1.507-0.106,1.604-0.921c0.238-1.984-2.07-3.558-3.704-4.217
				c-2.16-0.872-4.212-0.822-6.365,0.031c-3.582,1.421-6.453,6.033-2.813,9.002C14.12,45.683,14.73,45.299,14.448,44.837
				L14.448,44.837z"/>
		</g>
	</g>
</g>
<g id="_x30_2_7_">
	<path d="M27.04,34.438c-1.074,0.327-2.874,1.813-3.207,3.979c-0.224,1.46,0.758,8.798,0.758,8.798s-0.154,1.852-1.853,2.468
		c0,0-1.003,0.695,0.078,1.081c0,0,4.707,0.387,4.707-3.473c0,0-0.424-4.974-0.441-6.041c-0.019-1.196,0.583-2.75,1.367-2.721
		c-0.533,3.388,0,9.379,0,9.379s-0.077,2.238-1.234,3.087c0,0-0.772,1.39,0.926,1.004c0,0,3.24-0.464,3.395-4.244
		c0,0-1.203-5.838,0.074-9.492c0.064-0.184,0.726-0.188,0.778,0c1.195,4.237,0.074,9.492,0.074,9.492
		c0.154,3.78,3.396,4.244,3.396,4.244c1.697,0.386,0.925-1.004,0.925-1.004c-1.158-0.849-1.234-3.087-1.234-3.087
		s0.701-7.241,0-9.297c0.451-0.694,1.369,0.223,1.535,1.056c0.199,0.997-0.608,7.624-0.608,7.624c0,3.859,4.706,3.473,4.706,3.473
		c1.08-0.386,0.077-1.081,0.077-1.081c-1.698-0.616-1.852-2.468-1.852-2.468l1.01-8.298c0-2.918-2.052-4.04-3.44-4.468
		C34.603,33.719,29.417,33.714,27.04,34.438z"/>
	<g>
		<path fill="#C3E4D8" d="M12.86,40.867c0.183,0.061,0.26,0.322,0.175,0.586c-0.086,0.263-0.305,0.429-0.487,0.369
			c-0.184-0.061-0.26-0.323-0.175-0.586C12.46,40.974,12.678,40.808,12.86,40.867L12.86,40.867z M12.86,40.867"/>
		<path fill="#C3E4D8" d="M13.576,39.512c0.17,0.09,0.205,0.361,0.075,0.606c-0.128,0.245-0.371,0.372-0.54,0.284
			c-0.169-0.089-0.205-0.36-0.076-0.606C13.164,39.551,13.406,39.424,13.576,39.512L13.576,39.512z M13.576,39.512"/>
		<path fill="#C3E4D8" d="M14.738,38.289c0.125,0.145,0.058,0.41-0.151,0.592c-0.209,0.181-0.481,0.209-0.606,0.064
			s-0.059-0.409,0.15-0.59C14.34,38.174,14.612,38.145,14.738,38.289L14.738,38.289z M14.738,38.289"/>
		<path fill="#C3E4D8" d="M16.255,37.238c0.075,0.175-0.071,0.406-0.325,0.514c-0.256,0.108-0.523,0.054-0.598-0.123
			c-0.075-0.178,0.071-0.408,0.326-0.517C15.912,37.005,16.18,37.06,16.255,37.238L16.255,37.238z M16.255,37.238"/>
		<path fill="#C3E4D8" d="M18.079,36.677c0.027,0.189-0.173,0.376-0.448,0.414c-0.273,0.039-0.519-0.084-0.545-0.273
			c-0.027-0.19,0.175-0.376,0.449-0.415C17.809,36.364,18.052,36.486,18.079,36.677L18.079,36.677z M18.079,36.677"/>
		<path fill="#C3E4D8" d="M19.638,36.674c0,0.192-0.226,0.348-0.502,0.348c-0.277,0-0.502-0.155-0.502-0.348
			c0-0.191,0.225-0.347,0.502-0.347C19.413,36.327,19.638,36.482,19.638,36.674L19.638,36.674z M19.638,36.674"/>
		<path fill="#C3E4D8" d="M21.258,36.75c0,0.191-0.225,0.347-0.501,0.347c-0.278,0-0.503-0.155-0.503-0.347
			c0-0.192,0.225-0.348,0.503-0.348C21.034,36.402,21.258,36.558,21.258,36.75L21.258,36.75z M21.258,36.75"/>
		<path fill="#C3E4D8" d="M22.746,37.063c0,0.191-0.225,0.347-0.501,0.347c-0.278,0-0.503-0.155-0.503-0.347
			c0-0.192,0.225-0.348,0.503-0.348C22.521,36.715,22.746,36.87,22.746,37.063L22.746,37.063z M22.746,37.063"/>
		<path fill="#C3E4D8" d="M24.133,37.522c0,0.192-0.225,0.349-0.501,0.349c-0.278,0-0.502-0.156-0.502-0.349
			c0-0.191,0.224-0.348,0.502-0.348C23.908,37.175,24.133,37.331,24.133,37.522L24.133,37.522z M24.133,37.522"/>
	</g>
	<g>
		<path d="M36.977,34.449c7.006-0.695,10.369-2.958,11.919-6.473c3.068,0.084,8.49-0.098,13.773,1.393l0.062-0.222
			c-5.253-1.481-10.639-1.31-13.737-1.399c0.146-0.355,0.274-0.724,0.389-1.104c3.141-0.134,8.292-0.688,13.406,0.334l0,0
			l0.046-0.228c-5.095-1.019-10.221-0.473-13.384-0.341c0.52-1.872,0.675-4.026,0.675-6.428c0-3.445-1.293-6.201-3.395-8.299
			c0.367-1.185,0.701-3.979-0.646-7.349c0,0-2.221-0.593-7.598,3.006c-2.107-0.527-4.349-0.786-6.593-0.786
			c-2.47,0-4.966,0.314-7.294,0.953C19.051,3.72,16.917,4.5,16.917,4.5c-1.599,3.998-0.927,6.954-0.626,7.689
			c-1.879,2.028-3.026,4.618-3.026,7.792c0,2.396,0.272,4.546,0.938,6.414c-3.189-0.116-8.17-0.605-13.082,0.377L1.167,27
			c4.941-0.989,9.954-0.49,13.123-0.37c0.147,0.387,0.311,0.763,0.494,1.125c-3.135,0.101-8.431-0.033-13.562,1.415l0.063,0.222
			c5.17-1.458,10.514-1.314,13.618-1.409c1.873,3.492,5.565,5.746,12.136,6.455 M62.788,26.978"/>
		<path fill="#F4CBB2" d="M43.271,19.818c1.509,1.367,2.392,3.018,2.392,4.797c0,8.306-6.19,8.53-13.827,8.53
			c-7.638,0-13.828-1.15-13.828-8.53c0-1.767,0.87-3.408,2.361-4.77c2.486-2.269,6.693-1.067,11.467-1.067
			C36.591,18.778,40.782,17.564,43.271,19.818L43.271,19.818z M43.271,19.818"/>
		<path fill="#FFFFFF" d="M27.237,25.039c0,2.288-1.288,4.142-2.876,4.142c-1.59,0-2.879-1.854-2.879-4.142
			c0-2.287,1.289-4.141,2.879-4.141C25.949,20.898,27.237,22.751,27.237,25.039L27.237,25.039z M27.237,25.039"/>
		<path fill="#AD5B50" d="M26.314,25.09c0,1.525-0.859,2.761-1.918,2.761c-1.06,0-1.918-1.236-1.918-2.761
			c0-1.525,0.858-2.762,1.918-2.762C25.455,22.329,26.314,23.565,26.314,25.09L26.314,25.09z M26.314,25.09"/>
		<path fill="#FFFFFF" d="M42.674,25.039c0,2.288-1.288,4.142-2.878,4.142c-1.589,0-2.877-1.854-2.877-4.142
			c0-2.287,1.288-4.141,2.877-4.141C41.386,20.898,42.674,22.751,42.674,25.039L42.674,25.039z M42.674,25.039"/>
		<path fill="#AD5B50" d="M41.751,25.09c0,1.525-0.859,2.761-1.919,2.761s-1.919-1.236-1.919-2.761c0-1.525,0.859-2.762,1.919-2.762
			S41.751,23.565,41.751,25.09L41.751,25.09z M41.751,25.09"/>
		<path fill="#AD5B50" d="M32.597,28.717c0,0.397-0.322,0.72-0.72,0.72s-0.72-0.322-0.72-0.72s0.322-0.719,0.72-0.719
			S32.597,28.319,32.597,28.717L32.597,28.717z M32.597,28.717"/>
		<path fill="#AD5B50" d="M30.2,30.536c-0.042-0.121,0.021-0.253,0.141-0.295c0.121-0.043,0.253,0.021,0.295,0.141
			c0.186,0.523,0.682,0.874,1.234,0.874c0.554,0,1.05-0.351,1.235-0.874c0.042-0.121,0.175-0.184,0.295-0.141
			c0.12,0.042,0.184,0.174,0.141,0.295c-0.25,0.707-0.922,1.182-1.671,1.182C31.122,31.718,30.451,31.243,30.2,30.536L30.2,30.536z
			 M30.2,30.536"/>
	</g>
</g>
</svg>
