<?xml version="1.0" encoding="utf-8"?>
<!-- Generator: Adobe Illustrator 15.0.2, SVG Export Plug-In . SVG Version: 6.00 Build 0)  -->
<!DOCTYPE svg PUBLIC "-//W3C//DTD SVG 1.1//EN" "http://www.w3.org/Graphics/SVG/1.1/DTD/svg11.dtd">
<svg version="1.1" id="レイヤー_1" xmlns="http://www.w3.org/2000/svg" xmlns:xlink="http://www.w3.org/1999/xlink" x="0px"
	 y="0px" width="64px" height="64px" viewBox="0 0 64 64" enable-background="new 0 0 64 64" xml:space="preserve">
<linearGradient id="SVGID_1_" gradientUnits="userSpaceOnUse" x1="29.2734" y1="1.9692" x2="34.5235" y2="59.8028">
	<stop  offset="0" style="stop-color:#002F5C"/>
	<stop  offset="1" style="stop-color:#003873"/>
</linearGradient>
<rect fill="url(#SVGID_1_)" width="64" height="64"/>
<g>
	<g>
		<g>
			<path fill="#FFFFFF" d="M9.165,17.284c0.258,0,0.261-0.4,0.003-0.4C8.91,16.883,8.907,17.284,9.165,17.284L9.165,17.284z"/>
		</g>
	</g>
	<g>
		<g>
			<path fill="#FFFFFF" d="M22.249,26.367c0.258,0,0.261-0.4,0.003-0.4C21.993,25.967,21.991,26.367,22.249,26.367L22.249,26.367z"
				/>
		</g>
	</g>
	<g>
		<g>
			<path fill="#FFFFFF" d="M35.166,33.784c0.258,0,0.26-0.4,0.002-0.4S34.908,33.784,35.166,33.784L35.166,33.784z"/>
		</g>
	</g>
	<g>
		<g>
			<path fill="#FFFFFF" d="M25.832,58.7c0.258,0,0.261-0.4,0.003-0.4C25.577,58.3,25.574,58.7,25.832,58.7L25.832,58.7z"/>
		</g>
	</g>
	<g>
		<g>
			<path fill="#FFFFFF" d="M16.665,56.95c0.258,0,0.261-0.4,0.003-0.4C16.41,56.55,16.407,56.95,16.665,56.95L16.665,56.95z"/>
		</g>
	</g>
	<g>
		<g>
			<path fill="#FFFFFF" d="M55.749,45.034c0.258,0,0.26-0.4,0.002-0.4S55.491,45.034,55.749,45.034L55.749,45.034z"/>
		</g>
	</g>
	<g>
		<g>
			<path fill="#FFFFFF" d="M55.749,28.367c0.258,0,0.26-0.4,0.002-0.4S55.491,28.367,55.749,28.367L55.749,28.367z"/>
		</g>
	</g>
	<g>
		<g>
			<path fill="#FFFFFF" d="M47.999,21.284c0.258,0,0.26-0.4,0.002-0.4S47.741,21.284,47.999,21.284L47.999,21.284z"/>
		</g>
	</g>
	<g>
		<g>
			<path fill="#FFFFFF" d="M49.749,19.95c0.258,0,0.26-0.4,0.002-0.4S49.491,19.95,49.749,19.95L49.749,19.95z"/>
		</g>
	</g>
	<g>
		<g>
			<path fill="#FFFFFF" d="M50.999,18.617c0.258,0,0.26-0.4,0.002-0.4S50.741,18.617,50.999,18.617L50.999,18.617z"/>
		</g>
	</g>
	<g>
		<g>
			<path fill="#FFFFFF" d="M48.332,2.95c0.258,0,0.26-0.4,0.002-0.4S48.074,2.95,48.332,2.95L48.332,2.95z"/>
		</g>
	</g>
	<g>
		<g>
			<path fill="#FFFFFF" d="M24.999,3.117c0.258,0,0.261-0.4,0.003-0.4C24.743,2.717,24.741,3.117,24.999,3.117L24.999,3.117z"/>
		</g>
	</g>
	<g>
		<g>
			<path fill="#FFFFFF" d="M25.665,5.45c0.258,0,0.261-0.4,0.003-0.4C25.41,5.05,25.407,5.45,25.665,5.45L25.665,5.45z"/>
		</g>
	</g>
	<g>
		<g>
			<path fill="#FFFFFF" d="M29.165,7.534c0.258,0,0.261-0.4,0.003-0.4C28.91,7.133,28.907,7.534,29.165,7.534L29.165,7.534z"/>
		</g>
	</g>
	<g>
		<g>
			<path fill="#FFFFFF" d="M16.582,38.534c0.258,0,0.261-0.4,0.003-0.4C16.327,38.134,16.324,38.534,16.582,38.534L16.582,38.534z"
				/>
		</g>
	</g>
	<g>
		<g>
			<path fill="#FFFFFF" d="M6.165,47.367c0.258,0,0.261-0.4,0.003-0.4C5.91,46.967,5.907,47.367,6.165,47.367L6.165,47.367z"/>
		</g>
	</g>
	<g>
		<g>
			<path fill="#FFFFFF" d="M1.332,47.284c0.258,0,0.261-0.4,0.003-0.4C1.077,46.884,1.074,47.284,1.332,47.284L1.332,47.284z"/>
		</g>
	</g>
	<g>
		<g>
			<path fill="#FFFFFF" d="M62.082,57.617c0.258,0,0.26-0.4,0.002-0.4S61.824,57.617,62.082,57.617L62.082,57.617z"/>
		</g>
	</g>
	<g>
		<g>
			<path fill="#FFFFFF" d="M15.749,12.952c0.194,0,0.389,0,0.583,0c0.258,0,0.261-0.4,0.003-0.4c-0.194,0-0.389,0-0.583,0
				C15.493,12.551,15.491,12.952,15.749,12.952L15.749,12.952z"/>
		</g>
	</g>
	<g>
		<g>
			<path fill="#FFFFFF" d="M20.665,14.535c0.258,0,0.261-0.4,0.003-0.4C20.41,14.135,20.407,14.535,20.665,14.535L20.665,14.535z"/>
		</g>
	</g>
	<g>
		<g>
			<path fill="#FFFFFF" d="M23.249,15.702c0.258,0,0.261-0.4,0.003-0.4C22.993,15.301,22.991,15.702,23.249,15.702L23.249,15.702z"
				/>
		</g>
	</g>
	<g>
		<g>
			<path fill="#FFFFFF" d="M44.609,33.061c0.11,0.111,0.222,0.223,0.333,0.334c0.182,0.183,0.464-0.102,0.281-0.285
				c-0.111-0.111-0.222-0.222-0.333-0.333C44.709,32.593,44.427,32.877,44.609,33.061L44.609,33.061z"/>
		</g>
	</g>
	<g>
		<g>
			<path fill="#FFFFFF" d="M48.166,36.952c0.258,0,0.26-0.4,0.002-0.4S47.908,36.952,48.166,36.952L48.166,36.952z"/>
		</g>
	</g>
	<g>
		<g>
			<path fill="#FFFFFF" d="M46.41,52.068c-0.027,0.056-0.056,0.111-0.083,0.167c-0.115,0.229,0.23,0.431,0.346,0.199
				c0.028-0.056,0.056-0.11,0.083-0.167C46.87,52.038,46.524,51.836,46.41,52.068L46.41,52.068z"/>
		</g>
	</g>
	<g>
		<g>
			<path fill="#FFFFFF" d="M43.249,57.535c0.258,0,0.26-0.4,0.002-0.4S42.991,57.535,43.249,57.535L43.249,57.535z"/>
		</g>
	</g>
	<g>
		<g>
			<path fill="#FFFFFF" d="M37.999,15.785c0.198-0.004,0.363-0.023,0.553-0.09c0.241-0.085,0.14-0.472-0.104-0.387
				c-0.141,0.067-0.289,0.092-0.447,0.077C37.743,15.39,37.741,15.79,37.999,15.785L37.999,15.785z"/>
		</g>
	</g>
	<g>
		<g>
			<path fill="#FFFFFF" d="M43.749,14.868c0.258,0,0.26-0.4,0.002-0.4S43.491,14.868,43.749,14.868L43.749,14.868z"/>
		</g>
	</g>
	<g>
		<g>
			<path fill="#FFFFFF" d="M49.726,11.559c0.155-0.184,0.262-0.399,0.417-0.583c0.164-0.196-0.118-0.479-0.285-0.281
				c-0.155,0.184-0.262,0.399-0.417,0.583C49.276,11.473,49.559,11.756,49.726,11.559L49.726,11.559z"/>
		</g>
	</g>
	<g>
		<g>
			<path fill="#FFFFFF" d="M51.166,13.535c0.258,0,0.26-0.4,0.002-0.4S50.908,13.535,51.166,13.535L51.166,13.535z"/>
		</g>
	</g>
	<g>
		<g>
			<path fill="#FFFFFF" d="M5.749,39.535c0.026-0.006,0.053-0.011,0.079-0.016c0.111,0.232,0.455,0.028,0.345-0.203
				c-0.084-0.177-0.241-0.178-0.421-0.182C5.493,39.129,5.491,39.529,5.749,39.535L5.749,39.535z"/>
		</g>
	</g>
	<g>
		<g>
			<path fill="#FFFFFF" d="M6.915,40.452c0.056,0,0.111,0,0.167,0c0.258,0,0.261-0.4,0.003-0.4c-0.056,0-0.111,0-0.167,0
				C6.66,40.052,6.657,40.452,6.915,40.452L6.915,40.452z"/>
		</g>
	</g>
	<g>
		<g>
			<path fill="#FFFFFF" d="M9.031,41.445c0.254,0.1,0.476,0.246,0.703,0.396c0.216,0.143,0.415-0.204,0.2-0.346
				c-0.257-0.17-0.51-0.323-0.797-0.437C8.896,40.964,8.793,41.352,9.031,41.445L9.031,41.445z"/>
		</g>
	</g>
	<g>
		<g>
			<path fill="#FFFFFF" d="M28.332,47.368c0.258,0,0.261-0.4,0.003-0.4C28.077,46.968,28.074,47.368,28.332,47.368L28.332,47.368z"
				/>
		</g>
	</g>
	<g>
		<g>
			<path fill="#FFFFFF" d="M54.609,55.978c0.027,0.027,0.056,0.055,0.083,0.083c0.183,0.182,0.464-0.102,0.281-0.285
				c-0.027-0.027-0.056-0.055-0.083-0.083C54.708,55.511,54.427,55.794,54.609,55.978L54.609,55.978z"/>
		</g>
	</g>
	<g>
		<g>
			<path fill="#FFFFFF" d="M55.883,58.751c0,0.055,0,0.11,0,0.166c0,0.258,0.4,0.26,0.4,0.002c0-0.055,0-0.11,0-0.166
				C56.283,58.495,55.883,58.493,55.883,58.751L55.883,58.751z"/>
		</g>
	</g>
	<g>
		<g>
			<path fill="#FFFFFF" d="M57.166,60.785c0.258,0,0.26-0.4,0.002-0.4S56.908,60.785,57.166,60.785L57.166,60.785z"/>
		</g>
	</g>
	<g>
		<g>
			<path fill="#FFFFFF" d="M46.1,31.578c-0.192-0.087-0.39-0.162-0.583-0.25c-0.232-0.105-0.435,0.24-0.199,0.347
				c0.192,0.087,0.39,0.163,0.583,0.25C46.133,32.03,46.335,31.685,46.1,31.578L46.1,31.578z"/>
		</g>
	</g>
	<g>
		<g>
			<path fill="#FFFFFF" d="M59.719,19.445c0.492-0.154,0.992-0.249,1.5-0.333c0.255-0.043,0.148-0.429-0.104-0.387
				c-0.508,0.085-1.008,0.18-1.5,0.333C59.37,19.135,59.473,19.522,59.719,19.445L59.719,19.445z"/>
		</g>
	</g>
	<g>
		<g>
			<path fill="#FFFFFF" d="M60.499,16.452c0.258,0,0.26-0.4,0.002-0.4S60.241,16.452,60.499,16.452L60.499,16.452z"/>
		</g>
	</g>
	<g>
		<g>
			<path fill="#FFFFFF" d="M59.582,14.202c0.258,0,0.26-0.4,0.002-0.4S59.324,14.202,59.582,14.202L59.582,14.202z"/>
		</g>
	</g>
	<g>
		<g>
			<path fill="#FFFFFF" d="M59.082,8.118c0.258,0,0.26-0.4,0.002-0.4S58.824,8.118,59.082,8.118L59.082,8.118z"/>
		</g>
	</g>
	<g>
		<g>
			<path fill="#FFFFFF" d="M59.519,4.84c0.17-0.118,0.298-0.243,0.342-0.453c0.052-0.252-0.334-0.358-0.387-0.105
				c-0.053,0.071-0.105,0.142-0.158,0.213C59.105,4.641,59.306,4.987,59.519,4.84L59.519,4.84z"/>
		</g>
	</g>
	<g>
		<g>
			<path fill="#FFFFFF" d="M36.834,7.885c-0.027,0-0.055,0-0.083,0c-0.258,0-0.26,0.4-0.002,0.4c0.027,0,0.055,0,0.083,0
				C37.09,8.285,37.092,7.885,36.834,7.885L36.834,7.885z"/>
		</g>
	</g>
	<g>
		<g>
			<path fill="#FFFFFF" d="M23.915,8.618c0.258,0,0.261-0.4,0.003-0.4C23.66,8.218,23.657,8.618,23.915,8.618L23.915,8.618z"/>
		</g>
	</g>
	<g>
		<g>
			<path fill="#FFFFFF" d="M2.665,4.452c0.348,0,0.69,0.005,1.032,0.076c0.252,0.053,0.358-0.333,0.105-0.386
				c-0.375-0.079-0.752-0.09-1.135-0.091C2.41,4.051,2.407,4.451,2.665,4.452L2.665,4.452z"/>
		</g>
	</g>
	<g>
		<g>
			<path fill="#FFFFFF" d="M5.332,4.535C5.438,4.554,5.544,4.572,5.65,4.591c0.227,0.123,0.427-0.224,0.2-0.347
				c-0.172-0.093-0.321-0.106-0.515-0.11C5.077,4.13,5.075,4.53,5.332,4.535L5.332,4.535z"/>
		</g>
	</g>
	<g>
		<g>
			<path fill="#FFFFFF" d="M8.082,6.035c0.258,0,0.261-0.4,0.003-0.4C7.827,5.635,7.824,6.035,8.082,6.035L8.082,6.035z"/>
		</g>
	</g>
	<g>
		<g>
			<path fill="#FFFFFF" d="M7.999,8.202c0.258,0,0.261-0.4,0.003-0.4C7.743,7.801,7.741,8.202,7.999,8.202L7.999,8.202z"/>
		</g>
	</g>
</g>
<polygon fill="#FFDD15" points="51.666,15.338 44.5,23.004 51.283,16.196 "/>
<polygon fill="#020202" points="-3,29.921 6.917,32.838 16.583,39.088 32,45.505 33.416,45.171 33.916,45.171 36.833,49.587 
	35.916,49.921 32.5,48.255 17.75,45.421 -2,51.837 -2.833,49.338 "/>
<path fill="#F7F7F7" d="M47.417,15.004l1.25-0.083l1.5,0.667c0,0,0.832-0.583,2.166,0l1.75-0.25l1.334,0.333l-2.834,0.833
	l-1.25,0.583L50,16.504C50,16.504,47.584,15.254,47.417,15.004z"/>
<polygon fill="#FF69CD" points="74.167,6.25 55.25,8.917 70.583,7.417 "/>
</svg>
