<?xml version="1.0" encoding="UTF-8" standalone="no"?>
<!-- Created with Inkscape (http://www.inkscape.org/) -->

<svg
   xmlns:dc="http://purl.org/dc/elements/1.1/"
   xmlns:cc="http://creativecommons.org/ns#"
   xmlns:rdf="http://www.w3.org/1999/02/22-rdf-syntax-ns#"
   xmlns:svg="http://www.w3.org/2000/svg"
   xmlns="http://www.w3.org/2000/svg"
   xmlns:sodipodi="http://sodipodi.sourceforge.net/DTD/sodipodi-0.dtd"
   xmlns:inkscape="http://www.inkscape.org/namespaces/inkscape"
   width="64px"
   height="64px"
   id="svg3321"
   version="1.1"
   inkscape:version="0.48.4 r9939"
   sodipodi:docname="9.svg">
  <defs
     id="defs3323" />
  <sodipodi:namedview
     id="base"
     pagecolor="#ffffff"
     bordercolor="#666666"
     borderopacity="1.0"
     inkscape:pageopacity="0.0"
     inkscape:pageshadow="2"
     inkscape:zoom="5.5"
     inkscape:cx="37.154394"
     inkscape:cy="29.53738"
     inkscape:current-layer="g133"
     showgrid="true"
     inkscape:document-units="px"
     inkscape:grid-bbox="true"
     inkscape:window-width="1920"
     inkscape:window-height="1026"
     inkscape:window-x="0"
     inkscape:window-y="26"
     inkscape:window-maximized="1" />
  <metadata
     id="metadata3326">
    <rdf:RDF>
      <cc:Work
         rdf:about="">
        <dc:format>image/svg+xml</dc:format>
        <dc:type
           rdf:resource="http://purl.org/dc/dcmitype/StillImage" />
        <dc:title></dc:title>
      </cc:Work>
    </rdf:RDF>
  </metadata>
  <g
     id="layer1"
     inkscape:label="Layer 1"
     inkscape:groupmode="layer">
    <g
       transform="matrix(0.54455363,0,0,0.54455363,-119.25546,-35.398687)"
       id="g133">
      <g
         id="g135"
         transform="matrix(0.90630777,0.42261827,-0.42261827,0.90630777,78.4493,-105.62335)">
        <g
           id="g137">
          <g
             id="g139">
            <polygon
               style="fill:#b3b3b3"
               points="281.594,67.451 294.486,120.009 260.4,120.009 273.291,67.451 "
               id="polygon141" />
            <polygon
               style="fill:#b3b3b3"
               points="273.291,180.787 260.4,128.229 294.486,128.229 281.594,180.787 "
               id="polygon143" />
          </g>
          <g
             id="g145">
            <polygon
               style="fill:#b3b3b3"
               points="252.706,72.968 290.148,112.038 260.626,129.081 245.514,77.12 "
               id="polygon147" />
            <polygon
               style="fill:#b3b3b3"
               points="302.182,175.271 264.738,136.2 294.26,119.157 309.373,171.119 "
               id="polygon149" />
          </g>
          <g
             id="g151">
            <polygon
               style="fill:#b3b3b3"
               points="230.443,92.189 282.405,107.302 265.362,136.824 226.292,99.38 "
               id="polygon153" />
            <polygon
               style="fill:#b3b3b3"
               points="324.442,156.05 272.481,140.935 289.524,111.414 328.593,148.856 "
               id="polygon155" />
          </g>
          <g
             id="g157">
            <polygon
               style="fill:#b3b3b3"
               points="220.775,119.969 273.333,107.076 273.333,141.162 220.775,128.271 "
               id="polygon159" />
            <polygon
               style="fill:#b3b3b3"
               points="334.111,128.271 281.554,141.163 281.554,107.076 334.111,119.969 "
               id="polygon161" />
          </g>
          <g
             id="g163">
            <polygon
               style="fill:#b3b3b3"
               points="226.292,148.858 265.361,111.414 282.403,140.935 230.442,156.05 "
               id="polygon165" />
            <polygon
               style="fill:#b3b3b3"
               points="328.593,99.382 289.524,136.824 272.48,107.304 324.442,92.19 "
               id="polygon167" />
          </g>
          <g
             id="g169">
            <polygon
               style="fill:#b3b3b3"
               points="245.514,171.119 260.626,119.157 290.148,136.2 252.703,175.271 "
               id="polygon171" />
            <polygon
               style="fill:#b3b3b3"
               points="309.371,77.119 294.26,129.082 264.738,112.039 302.182,72.968 "
               id="polygon173" />
          </g>
        </g>
        <circle
           style="fill:#b3b3b3"
           sodipodi:ry="46.966999"
           sodipodi:rx="46.966999"
           sodipodi:cy="124.119"
           sodipodi:cx="277.44299"
           cx="277.44299"
           cy="124.119"
           r="46.966999"
           id="circle175"
           d="m 324.40999,124.119 c 0,25.93916 -21.02784,46.967 -46.967,46.967 -25.93915,0 -46.967,-21.02784 -46.967,-46.967 0,-25.939154 21.02785,-46.966996 46.967,-46.966996 25.93916,0 46.967,21.027842 46.967,46.966996 z" />
      </g>
      <g
         id="g177">
        <path
           style="fill:#ffffff"
           inkscape:connector-curvature="0"
           d="m 321.162,124.12 c 0,24.146 -19.572,43.718 -43.72,43.718 -24.146,0 -43.718,-19.572 -43.718,-43.718 0,-24.147 19.572,-43.72 43.718,-43.72 24.148,0 43.72,19.573 43.72,43.72 z"
           id="path179" />
      </g>
      <g
         id="g181">
        <g
           id="g183">
          <circle
             style="fill:#ffffff"
             sodipodi:ry="41.722"
             sodipodi:rx="41.722"
             sodipodi:cy="124.12"
             sodipodi:cx="277.44299"
             cx="277.44299"
             cy="124.12"
             r="41.722"
             id="circle185"
             d="m 319.16499,124.12 c 0,23.04243 -18.67957,41.722 -41.722,41.722 -23.04242,0 -41.722,-18.67957 -41.722,-41.722 0,-23.04242 18.67958,-41.721997 41.722,-41.721997 23.04243,0 41.722,18.679577 41.722,41.721997 z" />
          <path
             style="fill:#c82536"
             inkscape:connector-curvature="0"
             d="m 277.442,87.396 c 20.249,0 36.723,16.475 36.723,36.725 0,20.249 -16.474,36.723 -36.723,36.723 -20.248,0 -36.721,-16.474 -36.721,-36.723 0.001,-20.251 16.473,-36.725 36.721,-36.725 m 0,-5 c -23.043,0 -41.721,18.68 -41.721,41.725 0,23.043 18.678,41.723 41.721,41.723 23.045,0 41.723,-18.68 41.723,-41.723 0,-23.046 -18.678,-41.725 -41.723,-41.725 l 0,0 z"
             id="path187" />
        </g>
        <path
           style="fill:#b3b3b3"
           inkscape:connector-curvature="0"
           d="m 277.442,93.136 c 17.084,0 30.982,13.899 30.982,30.984 0,17.084 -13.898,30.982 -30.982,30.982 -17.083,0 -30.98,-13.898 -30.98,-30.982 0,-17.085 13.898,-30.984 30.98,-30.984 m 0,-3 c -18.767,0 -33.98,15.216 -33.98,33.984 0,18.767 15.214,33.982 33.98,33.982 18.771,0 33.982,-15.216 33.982,-33.982 0.001,-18.768 -15.211,-33.984 -33.982,-33.984 l 0,0 z"
           id="path189" />
        <g
           id="g191">
          <g
             id="g193">
            <g
               id="g195">
              <path
                 style="fill:#91bef7"
                 inkscape:connector-curvature="0"
                 d="m 292.496,130.521 c -1.297,-0.283 -4.96,-0.396 -13.304,0.112 0.451,2.311 0.62,5.129 0.62,8.117 0,3.156 -1.015,6.877 -3.325,9.865 -1.071,1.353 -1.974,1.297 -2.987,0.057 -1.354,-1.521 -3.214,-3.438 -4.115,-4.228 -1.184,-1.016 -1.015,-1.579 0.732,-1.297 4.624,0.789 5.242,0.45 6.146,-2.933 0.789,-2.931 0.789,-6.538 0.225,-9.412 -3.045,0.225 -7.385,0.789 -14.487,2.197 -1.86,0.396 -3.213,0.339 -4.905,-0.732 -1.578,-1.128 -1.464,-1.916 0.227,-1.803 1.805,0.112 10.88,-0.678 18.715,-1.522 -0.395,-1.24 -0.901,-2.086 -1.522,-2.593 -0.619,-0.621 -1.014,-1.128 -0.9,-1.467 0.168,-0.394 1.465,-0.45 2.704,0.058 1.636,-1.636 2.706,-2.932 3.326,-3.947 0.508,-1.014 0.057,-1.691 -1.014,-1.465 -2.706,0.564 -6.595,1.803 -7.441,2.255 -1.128,0.619 -2.876,0.563 -3.777,-0.112 -2.028,-1.691 -1.691,-2.313 0.227,-2.369 5.354,-0.112 9.132,-0.732 11.329,-1.746 1.86,-0.847 2.087,-0.79 3.833,0.846 3.045,2.817 2.764,3.382 0.846,3.889 -1.183,0.282 -3.27,1.296 -6.2,3.496 0.508,0.676 0.958,1.634 1.297,2.873 5.749,-0.45 9.019,-0.957 10.203,-1.183 3.551,-0.563 5.975,-0.452 7.61,0.563 2.815,1.804 1.967,3.663 -4.063,2.481 z m -2.029,-12.007 c -2.142,0.958 -2.367,0.563 -1.015,-1.24 2.593,-3.438 2.706,-4.229 0.281,-4.509 -1.804,-0.228 -12.457,0.618 -17.417,1.408 -5.524,0.9 -7.61,1.071 -10.091,0.62 -0.394,2.085 -1.748,4.96 -3.1,6.935 -1.241,1.746 -2.2,1.635 -2.706,0.168 -0.395,-1.128 -0.339,-2.649 0.056,-3.212 2.256,-3.439 2.932,-4.849 3.325,-6.371 0.453,-1.691 1.241,-1.86 2.369,1.241 7.328,-0.564 13.754,-1.298 18.939,-1.861 3.326,-6.595 3.89,-10.203 3.495,-11.499 -0.507,-1.69 -0.282,-2.143 2.763,-0.733 3.27,1.522 2.987,2.48 1.747,3.326 -1.015,0.846 -3.326,3.664 -6.37,8.681 2.819,-0.28 6.483,-0.79 6.765,-0.846 2.368,-0.789 3.664,-0.677 6.314,1.41 3.606,2.874 3.888,4.791 1.69,4.621 -0.844,-0.056 -4.622,0.734 -7.045,1.861 z m -22.886,-9.471 c -0.902,-1.128 -1.917,-3.269 -2.762,-5.975 -0.396,-1.185 0,-1.579 1.238,-1.016 2.932,1.297 4.455,4.228 4.229,5.807 -0.225,1.862 -1.578,2.593 -2.705,1.184 z m 7.666,-1.917 c -0.789,-1.578 -1.466,-3.721 -2.029,-5.862 -0.339,-1.409 0.225,-1.747 1.465,-0.959 3.271,1.975 3.834,3.665 3.327,6.371 -0.34,1.691 -1.862,2.198 -2.763,0.45 z"
                 id="path197" />
            </g>
          </g>
        </g>
      </g>
    </g>
  </g>
</svg>
