<?xml version="1.0" encoding="utf-8"?>
<!-- Generator: Adobe Illustrator 15.0.2, SVG Export Plug-In . SVG Version: 6.00 Build 0)  -->
<!DOCTYPE svg PUBLIC "-//W3C//DTD SVG 1.1//EN" "http://www.w3.org/Graphics/SVG/1.1/DTD/svg11.dtd">
<svg version="1.1" id="レイヤー_1" xmlns="http://www.w3.org/2000/svg" xmlns:xlink="http://www.w3.org/1999/xlink" x="0px"
	 y="0px" width="64px" height="64px" viewBox="0 0 64 64" enable-background="new 0 0 64 64" xml:space="preserve">
<g id="_x30_1_2_">
	<linearGradient id="SVGID_1_" gradientUnits="userSpaceOnUse" x1="26.2739" y1="15.9204" x2="29.3457" y2="27.7091">
		<stop  offset="0" style="stop-color:#FFE3BF"/>
		<stop  offset="1" style="stop-color:#FFB67F"/>
	</linearGradient>
	<path fill="url(#SVGID_1_)" stroke="#050505" stroke-miterlimit="3" d="M32,26.474c0,0-6.134,2.652-8.004,2.119
		c-1.871-0.529-1.343-10.309-1.343-10.309s-1.416-3.297,1.407-3.551c2.822-0.256,3.785,1.4,2.641,3.118c0,0,1.056,1.365-1.11,1.448
		c0,0,0.775,3.357,0.605,4.93L34,22.125L32,26.474z"/>
	<linearGradient id="SVGID_2_" gradientUnits="userSpaceOnUse" x1="44.5195" y1="39.459" x2="44.8525" y2="45.376">
		<stop  offset="0" style="stop-color:#FFE3BF"/>
		<stop  offset="1" style="stop-color:#FFB67F"/>
	</linearGradient>
	<path fill="url(#SVGID_2_)" stroke="#050505" stroke-miterlimit="3" d="M37.156,41.492c0,0,7.107,3.678,8.125,4.112
		c1.02,0.434,3.34-1.218,6.32-3.644l0.322-3.806c0,0-3.459,2.512-6.691,3.153l-6.766-5.647L37.156,41.492z"/>
	<path stroke="#050505" stroke-miterlimit="3" d="M48.465,39.808l2.256,0.126l0.135,2.833c0,0,1.795,1.734,2.412,2.907
		c0.691,1.313,1.666,2.337,2.113-0.841l-2.096-6.112L52.6,37.519C52.6,37.519,49.836,37.37,48.465,39.808z"/>
	<linearGradient id="SVGID_3_" gradientUnits="userSpaceOnUse" x1="23.3936" y1="38.4844" x2="23.1333" y2="40.9134">
		<stop  offset="0" style="stop-color:#FFE3BF"/>
		<stop  offset="1" style="stop-color:#FFB67F"/>
	</linearGradient>
	<path fill="url(#SVGID_3_)" stroke="#050505" stroke-miterlimit="3" d="M28.939,35.661c0,0-5.885,1.448-6.871,1.951
		c-0.986,0.504-5.915,4.169-8.424,4.271v3.389c0,0,5.841-1.636,10.256-3.3l8.671-1.565L28.939,35.661z"/>
	<linearGradient id="SVGID_4_" gradientUnits="userSpaceOnUse" x1="26.2354" y1="41.7383" x2="27.276" y2="49.9895">
		<stop  offset="0" style="stop-color:#FFE3BF"/>
		<stop  offset="1" style="stop-color:#FFB67F"/>
	</linearGradient>
	<path display="none" fill="url(#SVGID_4_)" d="M22.25,40.604c0,0,3.333,5.75,9.25,8.583c0,0-7.333-0.999-9.333-5.416L22.25,40.604z
		"/>
	<linearGradient id="SVGID_5_" gradientUnits="userSpaceOnUse" x1="24.667" y1="43.7451" x2="26.0195" y2="54.4688">
		<stop  offset="0" style="stop-color:#FFE3BF"/>
		<stop  offset="1" style="stop-color:#FFB67F"/>
	</linearGradient>
	<path display="none" fill="url(#SVGID_5_)" d="M18.833,42.354l-0.083,3.667c0,0,3.167,6.416,13.333,7.333
		C32.083,53.354,21.667,49.437,18.833,42.354z"/>
	<path stroke="#050505" stroke-miterlimit="3" d="M16.425,44.605l-2.78,0.327v-3.049c0,0-1.637-2.399-2.545-3.611
		c-0.522-0.697-2.212-2.039-2.48,1.618l2.671,6.799l0.822,1.314C12.112,48.004,15.106,47.491,16.425,44.605z"/>
	
		<linearGradient id="SVGID_6_" gradientUnits="userSpaceOnUse" x1="11.5313" y1="42.541" x2="12.0572" y2="46.7112" gradientTransform="matrix(0.9454 0.3258 -0.3258 0.9454 15.1035 -1.9608)">
		<stop  offset="0" style="stop-color:#FFB01F"/>
		<stop  offset="1" style="stop-color:#FF3F1F"/>
	</linearGradient>
	<path fill="url(#SVGID_6_)" d="M9.964,40.719c0,0-0.732,4.045,3.697,5.77C13.661,46.488,11.444,44.865,9.964,40.719z"/>
	
		<linearGradient id="SVGID_7_" gradientUnits="userSpaceOnUse" x1="52.6865" y1="38.9014" x2="53.4231" y2="44.7418" gradientTransform="matrix(0.9663 -0.2575 0.2575 0.9663 -8.9206 14.9094)">
		<stop  offset="0" style="stop-color:#FFB01F"/>
		<stop  offset="1" style="stop-color:#FF3F1F"/>
	</linearGradient>
	<path fill="url(#SVGID_7_)" d="M54.094,44.234c0,0,1.511-3.313-3.353-6.028C50.741,38.206,53.691,41.755,54.094,44.234z"/>
	<path fill="#161616" stroke="#050505" stroke-miterlimit="10" d="M31.267,36.896l6.333,7.709l7.584-4.345c0,0-5.77-5.2-6.17-6.429
		C39.014,33.832,32.601,34.354,31.267,36.896z"/>
	<path fill="#161616" stroke="#050505" stroke-miterlimit="10" d="M29.517,34.689l-6.828,2.393c0,0,5.679,6.756,6.503,8.182
		c0,0,12.735-3.289,9.821-11.432L29.517,34.689z"/>
	<linearGradient id="SVGID_8_" gradientUnits="userSpaceOnUse" x1="33.7012" y1="17.9487" x2="39.4663" y2="18.9333">
		<stop  offset="0" style="stop-color:#FFE3BF"/>
		<stop  offset="1" style="stop-color:#FFB67F"/>
	</linearGradient>
	<polygon fill="url(#SVGID_8_)" stroke="#050505" stroke-miterlimit="10" points="39.168,20.683 35.465,21.674 34,16.199 
		37.703,15.208 	"/>
	<linearGradient id="SVGID_9_" gradientUnits="userSpaceOnUse" x1="34.4375" y1="23.562" x2="36.188" y2="37.4412">
		<stop  offset="0" style="stop-color:#FFB01F"/>
		<stop  offset="1" style="stop-color:#FF3F1F"/>
	</linearGradient>
	<path fill="url(#SVGID_9_)" stroke="#050505" stroke-miterlimit="10" d="M27.949,35.649c0,0,1.665-12.28,6.26-14.127
		c4.594-1.847,6.813-1.698,8,0.827c1.189,2.525-3.594,10.253-3.594,10.253l0.822,2.528C39.438,35.13,32.544,39.81,27.949,35.649z"/>
	
		<linearGradient id="SVGID_10_" gradientUnits="userSpaceOnUse" x1="37.3232" y1="29.2949" x2="45.6366" y2="30.7147" gradientTransform="matrix(0.9263 -0.3767 0.3767 0.9263 -6.1982 15.8329)">
		<stop  offset="0" style="stop-color:#FFE3BF"/>
		<stop  offset="1" style="stop-color:#FFB67F"/>
	</linearGradient>
	<path fill="url(#SVGID_10_)" stroke="#050505" stroke-miterlimit="3" d="M39.146,20.667c2.909,0.27,8.276,1.586,9.892,2.667
		c1.618,1.08-1.432,9.401-1.432,9.401s0.335,3.571-2.431,2.946c-2.765-0.624-3.171-2.495-1.555-3.779c0,0,0.187-2.527,1.861-1.202
		c0,0-0.355-2.799,0.184-4.823l-5.512-0.52C40.154,25.358,35.239,23.527,39.146,20.667z"/>
	<g>
		<linearGradient id="SVGID_11_" gradientUnits="userSpaceOnUse" x1="32.2998" y1="4.9395" x2="39.5126" y2="17.8247">
			<stop  offset="0" style="stop-color:#FFE3BF"/>
			<stop  offset="1" style="stop-color:#FFB67F"/>
		</linearGradient>
		<path fill="url(#SVGID_11_)" stroke="#050505" stroke-miterlimit="10" d="M43.383,11.102c0,4.616-3.445,6.31-7.359,7.358
			c-4.459,1.194-7.771-1.554-7.771-6.169c0-7.005,3.154-10.548,7.771-10.548C40.641,1.743,43.383,6.485,43.383,11.102z"/>
		<polyline fill="none" stroke="#19120F" stroke-miterlimit="10" points="28.688,9.162 32.25,8.037 33.375,8.912 		"/>
		<polygon fill="#1065FC" points="31.313,8.662 38.625,8.724 38.563,9.224 31,9.537 		"/>
		<path fill="#4F3F34" stroke="#19120F" stroke-miterlimit="10" d="M29.875,5.349c0,0,4.313-0.625,7.438-0.188
			C39.139,8.002,38,9.537,38,9.537l0.938,0.375c0,0,2.688-0.875,1.063,4.25l1.625,1.563c1.063-0.5,3.563-4.875,1.813-9.625
			C40.818-1.009,30.688,1.162,29.875,5.349z"/>
		<path fill="#000091" d="M28,9.912c0,0,1,2.375,1.875,2.25c0.548-0.078,3.25-2.25,3.25-2.25s-0.297-0.719-0.438-0.875
			C32.125,8.412,30.25,8.224,28,8.974V9.912z"/>
	</g>
</g>
</svg>
