<?xml version="1.0" encoding="utf-8"?>
<!-- Generator: Adobe Illustrator 15.0.2, SVG Export Plug-In . SVG Version: 6.00 Build 0)  -->
<!DOCTYPE svg PUBLIC "-//W3C//DTD SVG 1.1//EN" "http://www.w3.org/Graphics/SVG/1.1/DTD/svg11.dtd">
<svg version="1.1" id="レイヤー_1" xmlns="http://www.w3.org/2000/svg" xmlns:xlink="http://www.w3.org/1999/xlink" x="0px"
	 y="0px" width="64px" height="64px" viewBox="0 0 64 64" enable-background="new 0 0 64 64" xml:space="preserve">
<g id="_x30_2_2_">
	
		<linearGradient id="SVGID_1_" gradientUnits="userSpaceOnUse" x1="28.5918" y1="18.9033" x2="31.6638" y2="30.6928" gradientTransform="matrix(0.8853 -0.465 0.465 0.8853 -9.3934 18.6994)">
		<stop  offset="0" style="stop-color:#FFE3BF"/>
		<stop  offset="1" style="stop-color:#FFB67F"/>
	</linearGradient>
	<path fill="url(#SVGID_1_)" stroke="#050505" stroke-miterlimit="3" d="M34.687,28.821c0,0-4.198,5.2-6.102,5.599
		c-1.902,0.4-5.982-8.503-5.982-8.503s-2.787-2.261-0.405-3.798c2.38-1.539,4.002-0.521,3.788,1.533c0,0,1.569,0.717-0.31,1.799
		c0,0,2.248,2.611,2.829,4.083l5.931-5.492L34.687,28.821z"/>
	<g>
		
			<linearGradient id="SVGID_2_" gradientUnits="userSpaceOnUse" x1="42.7266" y1="43.4023" x2="43.1605" y2="51.1135" gradientTransform="matrix(0.9596 0.2815 -0.2815 0.9596 12.5817 -8.1643)">
			<stop  offset="0" style="stop-color:#FFE3BF"/>
			<stop  offset="1" style="stop-color:#FFB67F"/>
		</linearGradient>
		<path fill="url(#SVGID_2_)" stroke="#050505" stroke-miterlimit="3" d="M35.518,44.521c0,0,2.79,8.479,3.815,8.896
			c1.026,0.414,4.045-0.592,6.981-3.069l0.256-3.811c0,0-1.664,1.105-4.737,2.296l-3.417-9.538L35.518,44.521z"/>
		<path stroke="#050505" stroke-miterlimit="3" d="M43.142,48.25l2.257,0.086l0.185,2.831c0,0,1.824,1.701,2.462,2.864
			c0.715,1.301,1.707,2.307,2.099-0.877l-2.201-6.075l-0.706-1.19C47.236,45.889,44.469,45.788,43.142,48.25z"/>
		
			<linearGradient id="SVGID_3_" gradientUnits="userSpaceOnUse" x1="46.0234" y1="45.9834" x2="46.76" y2="51.823" gradientTransform="matrix(0.971 -0.239 0.239 0.971 -8.6855 13.955)">
			<stop  offset="0" style="stop-color:#FFB01F"/>
			<stop  offset="1" style="stop-color:#FF3F1F"/>
		</linearGradient>
		<path fill="url(#SVGID_3_)" d="M48.977,52.944c0,0,1.573-3.283-3.236-6.09C45.74,46.854,48.622,50.458,48.977,52.944z"/>
		<path fill="#161616" stroke="#050505" stroke-miterlimit="10" d="M31.159,38.453l3.907,9.181l8.5-2.034
			c0,0-4.072-6.614-4.11-7.906C39.456,37.693,33.155,36.389,31.159,38.453z"/>
	</g>
	<g>
		
			<linearGradient id="SVGID_4_" gradientUnits="userSpaceOnUse" x1="23.2886" y1="41.3623" x2="23.0283" y2="43.7914" gradientTransform="matrix(0.8815 -0.4722 0.4722 0.8815 -13.9753 20.6274)">
			<stop  offset="0" style="stop-color:#FFE3BF"/>
			<stop  offset="1" style="stop-color:#FFB67F"/>
		</linearGradient>
		<path fill="url(#SVGID_4_)" stroke="#050505" stroke-miterlimit="3" d="M29.64,40.984c0,0-4.503,4.056-5.136,4.965
			c-0.631,0.91-3.245,6.468-5.408,7.743l1.6,2.986c0,0,4.376-4.199,7.482-7.751l6.905-5.475L29.64,40.984z"/>
		<path stroke="#050505" stroke-miterlimit="3" d="M22.832,54.778l-2.296,1.602l-1.439-2.688c0,0-2.576-1.343-3.949-1.982
			c-0.79-0.367-2.913-0.753-1.422,2.598l5.564,4.732l1.346,0.771C20.635,59.811,23.032,57.944,22.832,54.778z"/>
		
			<linearGradient id="SVGID_5_" gradientUnits="userSpaceOnUse" x1="18.2607" y1="54.1465" x2="18.7868" y2="58.3175" gradientTransform="matrix(0.9874 -0.1584 0.1584 0.9874 -8.5009 3.9326)">
			<stop  offset="0" style="stop-color:#FFB01F"/>
			<stop  offset="1" style="stop-color:#FF3F1F"/>
		</linearGradient>
		<path fill="url(#SVGID_5_)" d="M15.572,54.39c0,0,1.261,3.913,5.98,3.346C21.553,57.735,18.832,57.349,15.572,54.39z"/>
		<path fill="#161616" stroke="#050505" stroke-miterlimit="10" d="M29.69,39.855l-4.889,5.333c0,0,8.196,3.273,9.596,4.142
			c0,0,9.673-8.913,3.26-14.715L29.69,39.855z"/>
	</g>
	<linearGradient id="SVGID_6_" gradientUnits="userSpaceOnUse" x1="33.7012" y1="20.8496" x2="39.4663" y2="21.8342">
		<stop  offset="0" style="stop-color:#FFE3BF"/>
		<stop  offset="1" style="stop-color:#FFB67F"/>
	</linearGradient>
	<polygon fill="url(#SVGID_6_)" stroke="#050505" stroke-miterlimit="10" points="39.168,23.583 35.465,24.575 34,19.1 
		37.703,18.109 	"/>
	<linearGradient id="SVGID_7_" gradientUnits="userSpaceOnUse" x1="34.4385" y1="26.4619" x2="36.1886" y2="40.3377">
		<stop  offset="0" style="stop-color:#FFB01F"/>
		<stop  offset="1" style="stop-color:#FF3F1F"/>
	</linearGradient>
	<path fill="url(#SVGID_7_)" stroke="#050505" stroke-miterlimit="10" d="M27.949,38.546c0,0,1.665-12.276,6.26-14.123
		c4.594-1.847,6.813-1.698,8,0.827c1.189,2.525-3.594,10.25-3.594,10.25l0.822,2.526C39.438,38.026,32.544,42.706,27.949,38.546z"/>
	
		<linearGradient id="SVGID_8_" gradientUnits="userSpaceOnUse" x1="37.1582" y1="31.0469" x2="45.4694" y2="32.4663" gradientTransform="matrix(0.9474 0.3202 -0.3202 0.9474 10.121 -10.4634)">
		<stop  offset="0" style="stop-color:#FFE3BF"/>
		<stop  offset="1" style="stop-color:#FFB67F"/>
	</linearGradient>
	<path fill="url(#SVGID_8_)" stroke="#050505" stroke-miterlimit="3" d="M40.567,24.439c2.026,2.106,5.229,6.609,5.745,8.483
		c0.519,1.874-7.225,6.177-7.225,6.177s-2.08,2.922-3.766,0.642c-1.686-2.278-0.77-3.961,1.292-3.876c0,0,1.792-1.788,2.194,0.309
		c0,0,1.56-2.35,3.288-3.529l-3.832-3.996C38.265,28.649,35.741,24.052,40.567,24.439z"/>
	<g display="none">
		<path display="inline" fill="none" stroke="#C10D23" stroke-miterlimit="10" d="M28.253,8.95"/>
		<linearGradient id="SVGID_9_" gradientUnits="userSpaceOnUse" x1="32.7734" y1="7.6387" x2="40.1904" y2="20.8887">
			<stop  offset="0" style="stop-color:#FFE3BF"/>
			<stop  offset="1" style="stop-color:#FFB67F"/>
		</linearGradient>
		<path display="inline" fill="url(#SVGID_9_)" stroke="#050505" stroke-miterlimit="10" d="M44.383,13.002
			c0,4.616-3.742,8.358-8.359,8.358c-4.616,0-7.771-1.554-7.771-6.169c0-7.005,3.154-10.548,7.771-10.548
			C40.641,4.644,44.383,8.386,44.383,13.002z"/>
		<path display="inline" fill="#002A49" d="M31.518,11.422c-0.367,0-0.682,0.375-0.828,0.912l0.577,0.558l-0.659,0.219
			c0.032,0.821,0.425,1.472,0.91,1.472c0.506,0,0.915-0.708,0.915-1.581S32.023,11.422,31.518,11.422z"/>
		<path display="inline" fill="#302721" d="M28.322,16.272c0,0,3.11,0.34,3.747,1.378c0.636,1.038-0.95,2.85-0.95,2.85l1.627,0.608
			c0,0,1.823-4.19,0-4.835S28.056,15.002,28.322,16.272z"/>
		<polyline display="inline" fill="none" stroke="#302721" stroke-miterlimit="10" points="30.125,10.313 32.688,10.125 
			33.25,10.813 		"/>
		<path display="inline" fill="#A08878" stroke="#514139" stroke-miterlimit="10" d="M31.688,5.813c0,0,4.563-0.938,5.688,0.813
			C39.201,9.466,37.25,12.5,37.25,12.5l1.688,0.313c0,0,2.688-0.875,1.063,4.25l1.438,2.125c0,0,5.438-3.438,2-10.188
			S32.125,5,31.688,5.813z"/>
		<path display="inline" fill="none" stroke="#442116" stroke-width="0.3876" stroke-miterlimit="10" d="M29.169,11.229
			c0,0-0.442,4.476,1.249,4.4C32.109,15.554,31.747,9.656,29.169,11.229z"/>
		<path display="inline" fill="none" stroke="#442116" stroke-width="0.3876" stroke-miterlimit="10" d="M31.267,12.892l7.233-0.267
			c0,0,0.688,0.063,0.75,1.125"/>
	</g>
	<linearGradient id="SVGID_10_" gradientUnits="userSpaceOnUse" x1="32.2993" y1="7.8403" x2="39.5121" y2="20.7256">
		<stop  offset="0" style="stop-color:#FFE3BF"/>
		<stop  offset="1" style="stop-color:#FFB67F"/>
	</linearGradient>
	<path fill="url(#SVGID_10_)" stroke="#050505" stroke-miterlimit="10" d="M43.383,14.002c0,4.616-3.445,6.31-7.359,7.358
		c-4.459,1.194-7.771-1.554-7.771-6.169c0-7.005,3.154-10.548,7.771-10.548C40.641,4.644,43.383,9.386,43.383,14.002z"/>
	<polyline fill="none" stroke="#19120F" stroke-miterlimit="10" points="28.688,12.063 32.25,10.938 33.375,11.813 	"/>
	<polygon fill="#1065FC" points="31.313,11.563 38.625,11.625 38.563,12.125 31,12.438 	"/>
	<path fill="#4F3F34" stroke="#19120F" stroke-miterlimit="10" d="M29.875,8.25c0,0,4.313-0.625,7.438-0.188
		C39.139,10.903,38,12.438,38,12.438l0.938,0.375c0,0,2.688-0.875,1.063,4.25l1.625,1.563c1.063-0.5,3.563-4.875,1.813-9.625
		C40.818,1.892,30.688,4.063,29.875,8.25z"/>
	<path fill="#000091" d="M28,12.813c0,0,1,2.375,1.875,2.25c0.548-0.078,3.25-2.25,3.25-2.25s-0.297-0.719-0.438-0.875
		c-0.563-0.625-2.438-0.813-4.688-0.063V12.813z"/>
</g>
</svg>
