<?xml version="1.0" encoding="utf-8"?>
<!-- Generator: Adobe Illustrator 15.0.2, SVG Export Plug-In . SVG Version: 6.00 Build 0)  -->
<!DOCTYPE svg PUBLIC "-//W3C//DTD SVG 1.1//EN" "http://www.w3.org/Graphics/SVG/1.1/DTD/svg11.dtd">
<svg version="1.1" id="レイヤー_1" xmlns="http://www.w3.org/2000/svg" xmlns:xlink="http://www.w3.org/1999/xlink" x="0px"
	 y="0px" width="64px" height="64px" viewBox="0 0 64 64" enable-background="new 0 0 64 64" xml:space="preserve">
<g id="_x30_4_1_">
	
		<linearGradient id="SVGID_1_" gradientUnits="userSpaceOnUse" x1="30.8359" y1="23.1914" x2="33.9069" y2="34.9767" gradientTransform="matrix(-0.7597 -0.6503 0.6503 -0.7597 47.2342 72.4861)">
		<stop  offset="0" style="stop-color:#FFE3BF"/>
		<stop  offset="1" style="stop-color:#FFB67F"/>
	</linearGradient>
	<path fill="url(#SVGID_1_)" stroke="#050505" stroke-miterlimit="3" d="M41.399,23.077c0,0,6.385,1.974,7.46,3.595
		c1.077,1.619-5.684,8.7-5.684,8.7s-1.068,3.425-3.378,1.782c-2.311-1.642-1.967-3.523,0.021-4.081c0,0,0.084-1.724,1.783-0.379
		c0,0,1.595-3.054,2.746-4.139l-7.296-3.476L41.399,23.077z"/>
	<linearGradient id="SVGID_2_" gradientUnits="userSpaceOnUse" x1="33.7012" y1="19.8501" x2="39.4663" y2="20.8347">
		<stop  offset="0" style="stop-color:#FFE3BF"/>
		<stop  offset="1" style="stop-color:#FFB67F"/>
	</linearGradient>
	<polygon fill="url(#SVGID_2_)" stroke="#050505" stroke-miterlimit="10" points="39.168,22.584 35.465,23.576 34,18.101 
		37.703,17.11 	"/>
	
		<linearGradient id="SVGID_3_" gradientUnits="userSpaceOnUse" x1="26.1118" y1="42.6582" x2="25.8137" y2="45.44" gradientTransform="matrix(0.9828 -0.1845 0.1845 0.9828 -7.7771 5.1906)">
		<stop  offset="0" style="stop-color:#FFE3BF"/>
		<stop  offset="1" style="stop-color:#FFB67F"/>
	</linearGradient>
	<path fill="url(#SVGID_3_)" stroke="#050505" stroke-miterlimit="3" d="M28.022,38.215c0,0-7.18,2.69-7.966,3.471
		c-2.684,2.664,1.331,6.436,3.333,9.745l3.275-0.871c0,0-0.392-2.954-2.431-5.212l8.233-3.139L28.022,38.215z"/>
	<path stroke="#050505" stroke-miterlimit="3" d="M25.954,48.121l0.383,2.526l-2.946,0.783c0,0-1.898,2.198-2.837,3.387
		c-0.54,0.684-1.402,2.661,2.201,1.982l5.884-4.328l1.06-1.132C29.698,51.34,29.081,48.654,25.954,48.121z"/>
	<path fill="#161616" stroke="#050505" stroke-miterlimit="10" d="M28.41,37.152l-6.269,3.612c0,0,6.828,5.592,7.901,6.841
		c0,0,11.91-5.583,7.543-13.048L28.41,37.152z"/>
	<g>
		
			<linearGradient id="SVGID_4_" gradientUnits="userSpaceOnUse" x1="43.4727" y1="46.5518" x2="43.8928" y2="54.0169" gradientTransform="matrix(0.8742 0.4854 -0.4854 0.8742 25.8061 -15.8031)">
			<stop  offset="0" style="stop-color:#FFE3BF"/>
			<stop  offset="1" style="stop-color:#FFB67F"/>
		</linearGradient>
		<path fill="url(#SVGID_4_)" stroke="#050505" stroke-miterlimit="3" d="M33.517,42.864c0,0,2.801,6.126,3.479,7.001
			c0.681,0.873,3.404,3.051,6.93,6.229l2.186-1.188c0,0-3.712-5.785-5.444-8.281l-3.173-8.222L33.517,42.864z"/>
		<path stroke="#050505" stroke-miterlimit="3" d="M44.002,51.431l1.134,2.813l-2.292,1.669c0,0-0.464,2.453-1.104,3.612
			c-0.718,1.3-1.036,2.676,1.863,1.304l3.956-5.109l0.628-1.233C48.187,54.485,46.791,51.236,44.002,51.431z"/>
		<path fill="#161616" stroke="#050505" stroke-miterlimit="10" d="M29.537,33.493l2.856,12.309l8.74-0.117
			c0,0-2.52-7.347-2.273-8.615C38.86,37.069,32.998,33.697,29.537,33.493z"/>
	</g>
	<linearGradient id="SVGID_5_" gradientUnits="userSpaceOnUse" x1="34.4385" y1="25.4619" x2="36.188" y2="39.3336">
		<stop  offset="0" style="stop-color:#FFB01F"/>
		<stop  offset="1" style="stop-color:#FF3F1F"/>
	</linearGradient>
	<path fill="url(#SVGID_5_)" stroke="#050505" stroke-miterlimit="10" d="M27.949,37.542c0,0,1.665-12.271,6.26-14.118
		c4.594-1.847,6.813-1.698,8,0.827c1.189,2.525-3.594,10.246-3.594,10.246l0.822,2.526C39.438,37.022,32.544,41.702,27.949,37.542z"
		/>
	
		<linearGradient id="SVGID_6_" gradientUnits="userSpaceOnUse" x1="35.8516" y1="30.292" x2="44.0155" y2="31.6863" gradientTransform="matrix(-0.0313 0.9995 -0.9995 -0.0313 63.1737 -12.2386)">
		<stop  offset="0" style="stop-color:#FFE3BF"/>
		<stop  offset="1" style="stop-color:#FFB67F"/>
	</linearGradient>
	<path fill="url(#SVGID_6_)" stroke="#050505" stroke-miterlimit="3" d="M39.452,25.558c-1.408,4.439-4.806,6.922-6.449,7.96
		c-1.642,1.042-8.008-5.12-8.008-5.12s-3.4-1.142-1.708-3.417c1.691-2.273,3.567-1.888,4.084,0.11c0,0,2.23,1.195,0.342,2.189
		c0,0,2.701,0.81,4.333,2.123l1.846-4.126C33.892,25.278,38.422,20.827,39.452,25.558z"/>
	<g display="none">
		<path display="inline" fill="none" stroke="#C10D23" stroke-miterlimit="10" d="M28.253,7.951"/>
		<linearGradient id="SVGID_7_" gradientUnits="userSpaceOnUse" x1="32.7729" y1="6.6396" x2="40.1904" y2="19.8904">
			<stop  offset="0" style="stop-color:#FFE3BF"/>
			<stop  offset="1" style="stop-color:#FFB67F"/>
		</linearGradient>
		<path display="inline" fill="url(#SVGID_7_)" stroke="#050505" stroke-miterlimit="10" d="M44.383,12.003
			c0,4.616-3.742,8.358-8.359,8.358c-4.616,0-7.771-1.554-7.771-6.169c0-7.005,3.154-10.548,7.771-10.548
			C40.641,3.645,44.383,7.387,44.383,12.003z"/>
		<path display="inline" fill="#002A49" d="M31.518,10.423c-0.367,0-0.682,0.375-0.828,0.912l0.577,0.558l-0.659,0.219
			c0.032,0.821,0.425,1.472,0.91,1.472c0.506,0,0.915-0.708,0.915-1.581S32.023,10.423,31.518,10.423z"/>
		<path display="inline" fill="#302721" d="M28.322,15.273c0,0,3.11,0.34,3.747,1.378c0.636,1.038-0.95,2.85-0.95,2.85l1.627,0.608
			c0,0,1.823-4.19,0-4.835S28.056,14.003,28.322,15.273z"/>
		<polyline display="inline" fill="none" stroke="#302721" stroke-miterlimit="10" points="30.125,9.313 32.688,9.126 33.25,9.813 
					"/>
		<path display="inline" fill="#A08878" stroke="#514139" stroke-miterlimit="10" d="M31.688,4.813c0,0,4.563-0.938,5.688,0.813
			c1.826,2.841-0.125,5.875-0.125,5.875l1.688,0.313c0,0,2.688-0.875,1.063,4.25l1.438,2.125c0,0,5.438-3.438,2-10.188
			S32.125,4.001,31.688,4.813z"/>
		<path display="inline" fill="none" stroke="#442116" stroke-width="0.3876" stroke-miterlimit="10" d="M30.418,14.631"/>
		<path display="inline" fill="none" stroke="#442116" stroke-width="0.3876" stroke-miterlimit="10" d="M29.169,10.23"/>
	</g>
	<linearGradient id="SVGID_8_" gradientUnits="userSpaceOnUse" x1="32.2993" y1="6.8408" x2="39.5121" y2="19.726">
		<stop  offset="0" style="stop-color:#FFE3BF"/>
		<stop  offset="1" style="stop-color:#FFB67F"/>
	</linearGradient>
	<path fill="url(#SVGID_8_)" stroke="#050505" stroke-miterlimit="10" d="M43.383,13.003c0,4.616-3.445,6.31-7.359,7.358
		c-4.459,1.194-7.771-1.554-7.771-6.169c0-7.005,3.154-10.548,7.771-10.548C40.641,3.645,43.383,8.387,43.383,13.003z"/>
	<polyline fill="none" stroke="#19120F" stroke-miterlimit="10" points="28.688,11.063 32.25,9.938 33.375,10.813 	"/>
	<polygon fill="#1065FC" points="31.313,10.563 38.625,10.626 38.563,11.126 31,11.438 	"/>
	<path fill="#4F3F34" stroke="#19120F" stroke-miterlimit="10" d="M29.875,7.251c0,0,4.313-0.625,7.438-0.188
		C39.139,9.904,38,11.438,38,11.438l0.938,0.375c0,0,2.688-0.875,1.063,4.25l1.625,1.563c1.063-0.5,3.563-4.875,1.813-9.625
		C40.818,0.893,30.688,3.063,29.875,7.251z"/>
	<path fill="#000091" d="M28,11.813c0,0,1,2.375,1.875,2.25c0.548-0.078,3.25-2.25,3.25-2.25s-0.297-0.719-0.438-0.875
		c-0.563-0.625-2.438-0.813-4.688-0.063V11.813z"/>
	
		<linearGradient id="SVGID_9_" gradientUnits="userSpaceOnUse" x1="11.1191" y1="46.3213" x2="11.6451" y2="50.4915" gradientTransform="matrix(-0.0741 -0.9973 0.9973 -0.0741 -21.5265 67.2621)">
		<stop  offset="0" style="stop-color:#FFB01F"/>
		<stop  offset="1" style="stop-color:#FF3F1F"/>
	</linearGradient>
	<path fill="url(#SVGID_9_)" d="M23.518,55.257c0,0,4.005-0.924,3.84-5.675C27.358,49.582,26.742,52.26,23.518,55.257z"/>
	
		<linearGradient id="SVGID_10_" gradientUnits="userSpaceOnUse" x1="48.4502" y1="51.501" x2="49.1868" y2="57.3414" gradientTransform="matrix(0.886 0.4637 -0.4637 0.886 27.0031 -13.7896)">
		<stop  offset="0" style="stop-color:#FFB01F"/>
		<stop  offset="1" style="stop-color:#FF3F1F"/>
	</linearGradient>
	<path fill="url(#SVGID_10_)" d="M44.002,59.624c0,0,3.353-1.42,1.605-6.708C45.607,52.916,45.383,57.524,44.002,59.624z"/>
	<linearGradient id="SVGID_11_" gradientUnits="userSpaceOnUse" x1="22.1665" y1="46.7871" x2="31.5" y2="46.7871">
		<stop  offset="0" style="stop-color:#FFE3BF"/>
		<stop  offset="1" style="stop-color:#FFB67F"/>
	</linearGradient>
	<path display="none" fill="url(#SVGID_11_)" d="M22.25,42.496c0,0,3.333,5.75,9.25,8.583c0,0-7.333-0.999-9.333-5.416L22.25,42.496
		z"/>
	<linearGradient id="SVGID_12_" gradientUnits="userSpaceOnUse" x1="18.75" y1="49.7461" x2="32.0835" y2="49.7461">
		<stop  offset="0" style="stop-color:#FFE3BF"/>
		<stop  offset="1" style="stop-color:#FFB67F"/>
	</linearGradient>
	<path display="none" fill="url(#SVGID_12_)" d="M18.833,44.246l-0.083,3.667c0,0,3.167,6.416,13.333,7.333
		C32.083,55.246,21.667,51.329,18.833,44.246z"/>
</g>
</svg>
