<?xml version="1.0" encoding="utf-8"?>
<!-- Generator: Adobe Illustrator 15.0.2, SVG Export Plug-In . SVG Version: 6.00 Build 0)  -->
<!DOCTYPE svg PUBLIC "-//W3C//DTD SVG 1.1//EN" "http://www.w3.org/Graphics/SVG/1.1/DTD/svg11.dtd">
<svg version="1.1" id="レイヤー_1" xmlns="http://www.w3.org/2000/svg" xmlns:xlink="http://www.w3.org/1999/xlink" x="0px"
	 y="0px" width="64px" height="64px" viewBox="0 0 64 64" enable-background="new 0 0 64 64" xml:space="preserve">
<g id="_x30_5_1_">
	
		<linearGradient id="SVGID_1_" gradientUnits="userSpaceOnUse" x1="31.4033" y1="25.8691" x2="34.4756" y2="37.6595" gradientTransform="matrix(-0.8987 -0.4386 0.4386 -0.8987 58.4045 69.2173)">
		<stop  offset="0" style="stop-color:#FFE3BF"/>
		<stop  offset="1" style="stop-color:#FFB67F"/>
	</linearGradient>
	<path fill="url(#SVGID_1_)" stroke="#050505" stroke-miterlimit="3" d="M41.011,20.197c0,0,6.676,0.307,8.124,1.606
		c1.448,1.296-3.316,9.854-3.316,9.854s-0.174,3.584-2.822,2.574c-2.648-1.005-2.789-2.919-1.004-3.962c0,0-0.352-1.69,1.631-0.814
		c0,0,0.776-3.356,1.618-4.696l-7.935-1.532L41.011,20.197z"/>
	<linearGradient id="SVGID_2_" gradientUnits="userSpaceOnUse" x1="33.7012" y1="17.478" x2="39.4663" y2="18.4626">
		<stop  offset="0" style="stop-color:#FFE3BF"/>
		<stop  offset="1" style="stop-color:#FFB67F"/>
	</linearGradient>
	<polygon fill="url(#SVGID_2_)" stroke="#050505" stroke-miterlimit="10" points="39.168,20.212 35.465,21.203 34,15.729 
		37.703,14.737 	"/>
	
		<linearGradient id="SVGID_3_" gradientUnits="userSpaceOnUse" x1="23.9824" y1="39.5615" x2="23.7221" y2="41.9908" gradientTransform="matrix(0.9828 -0.1845 0.1845 0.9828 -7.7771 5.1906)">
		<stop  offset="0" style="stop-color:#FFE3BF"/>
		<stop  offset="1" style="stop-color:#FFB67F"/>
	</linearGradient>
	<path fill="url(#SVGID_3_)" stroke="#050505" stroke-miterlimit="3" d="M28.022,35.849c0,0-5.517,2.509-6.394,3.186
		c-0.876,0.677-5.044,5.188-7.491,5.752l0.625,3.331c0,0,5.438-2.686,9.471-5.136l8.233-3.139L28.022,35.849z"/>
	<path stroke="#050505" stroke-miterlimit="3" d="M17.373,46.948l-2.672,0.834l-0.563-2.996c0,0-2.052-2.056-3.168-3.08
		c-0.642-0.589-2.55-1.595-2.139,2.049l3.88,6.188l1.051,1.141C13.762,51.084,16.61,50.027,17.373,46.948z"/>
	<path fill="#161616" stroke="#050505" stroke-miterlimit="10" d="M28.41,34.786l-6.269,3.612c0,0,6.828,5.592,7.901,6.841
		c0,0,11.91-5.583,7.543-13.047L28.41,34.786z"/>
	<g>
		
			<linearGradient id="SVGID_4_" gradientUnits="userSpaceOnUse" x1="43.0137" y1="40.0586" x2="43.3467" y2="45.9761" gradientTransform="matrix(0.9914 0.1307 -0.1307 0.9914 5.8376 -5.5459)">
			<stop  offset="0" style="stop-color:#FFE3BF"/>
			<stop  offset="1" style="stop-color:#FFB67F"/>
		</linearGradient>
		<path fill="url(#SVGID_4_)" stroke="#050505" stroke-miterlimit="3" d="M35.68,40.843c0,0,6.566,4.575,7.519,5.14
			c0.954,0.563,3.47-0.771,6.742-2.786l0.816-3.731c0,0-3.757,2.038-7.046,2.252l-5.969-6.483L35.68,40.843z"/>
		<path stroke="#050505" stroke-miterlimit="3" d="M47.112,40.651l2.22,0.42l-0.236,2.826c0,0,1.553,1.954,2.011,3.197
			c0.514,1.393,1.347,2.534,2.205-0.558l-1.278-6.334l-0.522-1.281C51.511,38.922,48.79,38.414,47.112,40.651z"/>
		<path fill="#161616" stroke="#050505" stroke-miterlimit="10" d="M28.537,33.585l7.176,10.402l8.087-3.316
			c0,0-5.04-5.909-5.276-7.177C38.523,33.494,31.831,32.506,28.537,33.585z"/>
	</g>
	<linearGradient id="SVGID_5_" gradientUnits="userSpaceOnUse" x1="34.4385" y1="23.0908" x2="36.1887" y2="36.9675">
		<stop  offset="0" style="stop-color:#FFB01F"/>
		<stop  offset="1" style="stop-color:#FF3F1F"/>
	</linearGradient>
	<path fill="url(#SVGID_5_)" stroke="#050505" stroke-miterlimit="10" d="M27.949,35.176c0,0,1.665-12.277,6.26-14.125
		c4.594-1.847,6.813-1.698,8,0.827c1.189,2.525-3.594,10.253-3.594,10.253l0.822,2.525C39.438,34.656,32.544,39.336,27.949,35.176z"
		/>
	
		<linearGradient id="SVGID_6_" gradientUnits="userSpaceOnUse" x1="33.9033" y1="31.4536" x2="42.068" y2="32.848" gradientTransform="matrix(-0.4777 0.8785 -0.8785 -0.4777 77.2058 3.235)">
		<stop  offset="0" style="stop-color:#FFE3BF"/>
		<stop  offset="1" style="stop-color:#FFB67F"/>
	</linearGradient>
	<path fill="url(#SVGID_6_)" stroke="#050505" stroke-miterlimit="3" d="M38.923,24.047c-3.256,3.331-7.407,4.019-9.342,4.208
		c-1.935,0.191-4.848-8.176-4.848-8.176s-2.523-2.55,0.013-3.819c2.533-1.27,4.035-0.081,3.598,1.937c0,0,1.454,2.071-0.68,2.108
		c0,0,2.047,1.939,2.914,3.845l3.505-2.854C34.083,21.295,40.132,19.358,38.923,24.047z"/>
	<g display="none">
		<path display="inline" fill="none" stroke="#C10D23" stroke-miterlimit="10" d="M28.253,5.578"/>
		<linearGradient id="SVGID_7_" gradientUnits="userSpaceOnUse" x1="32.7729" y1="4.2671" x2="40.1904" y2="17.5179">
			<stop  offset="0" style="stop-color:#FFE3BF"/>
			<stop  offset="1" style="stop-color:#FFB67F"/>
		</linearGradient>
		<path display="inline" fill="url(#SVGID_7_)" stroke="#050505" stroke-miterlimit="10" d="M44.383,9.631
			c0,4.616-3.742,8.358-8.359,8.358c-4.616,0-7.771-1.554-7.771-6.169c0-7.005,3.154-10.548,7.771-10.548
			C40.641,1.272,44.383,5.015,44.383,9.631z"/>
		<path display="inline" fill="#002A49" d="M31.518,8.05c-0.367,0-0.682,0.375-0.828,0.912l0.577,0.558l-0.659,0.219
			c0.032,0.821,0.425,1.472,0.91,1.472c0.506,0,0.915-0.708,0.915-1.581S32.023,8.05,31.518,8.05z"/>
		<path display="inline" fill="#302721" d="M28.322,12.9c0,0,3.11,0.34,3.747,1.378c0.636,1.038-0.95,2.85-0.95,2.85l1.627,0.608
			c0,0,1.823-4.19,0-4.835S28.056,11.63,28.322,12.9z"/>
		<polyline display="inline" fill="none" stroke="#302721" stroke-miterlimit="10" points="30.125,6.941 32.688,6.753 33.25,7.441 
					"/>
		<path display="inline" fill="#A08878" stroke="#514139" stroke-miterlimit="10" d="M31.688,2.441c0,0,4.563-0.938,5.688,0.813
			c1.826,2.841-0.125,5.875-0.125,5.875l1.688,0.313c0,0,2.688-0.875,1.063,4.25l1.438,2.125c0,0,5.438-3.438,2-10.188
			S32.125,1.628,31.688,2.441z"/>
		<path display="inline" fill="none" stroke="#442116" stroke-width="0.3876" stroke-miterlimit="10" d="M30.418,12.258"/>
		<path display="inline" fill="none" stroke="#442116" stroke-width="0.3876" stroke-miterlimit="10" d="M29.169,7.858"/>
	</g>
	<linearGradient id="SVGID_8_" gradientUnits="userSpaceOnUse" x1="32.2993" y1="4.4683" x2="39.5121" y2="17.3535">
		<stop  offset="0" style="stop-color:#FFE3BF"/>
		<stop  offset="1" style="stop-color:#FFB67F"/>
	</linearGradient>
	<path fill="url(#SVGID_8_)" stroke="#050505" stroke-miterlimit="10" d="M43.383,10.631c0,4.616-3.445,6.31-7.359,7.358
		c-4.459,1.194-7.771-1.554-7.771-6.169c0-7.005,3.154-10.548,7.771-10.548C40.641,1.272,43.383,6.015,43.383,10.631z"/>
	<polyline fill="none" stroke="#19120F" stroke-miterlimit="10" points="28.688,8.691 32.25,7.566 33.375,8.441 	"/>
	<polygon fill="#1065FC" points="31.313,8.191 38.625,8.253 38.563,8.753 31,9.066 	"/>
	<path fill="#4F3F34" stroke="#19120F" stroke-miterlimit="10" d="M29.875,4.878c0,0,4.313-0.625,7.438-0.188
		C39.139,7.532,38,9.066,38,9.066l0.938,0.375c0,0,2.688-0.875,1.063,4.25l1.625,1.563c1.063-0.5,3.563-4.875,1.813-9.625
		C40.818-1.479,30.688,0.691,29.875,4.878z"/>
	<path fill="#000091" d="M28,9.441c0,0,1,2.375,1.875,2.25c0.548-0.078,3.25-2.25,3.25-2.25s-0.297-0.719-0.438-0.875
		C32.125,7.941,30.25,7.753,28,8.503V9.441z"/>
	<linearGradient id="SVGID_9_" gradientUnits="userSpaceOnUse" x1="12.7964" y1="45.1436" x2="13.3224" y2="49.3137">
		<stop  offset="0" style="stop-color:#FFB01F"/>
		<stop  offset="1" style="stop-color:#FF3F1F"/>
	</linearGradient>
	<path fill="url(#SVGID_9_)" d="M10.313,44.63c0,0,0.625,4.063,5.375,4.25C15.688,48.88,13.063,48.067,10.313,44.63z"/>
	<linearGradient id="SVGID_10_" gradientUnits="userSpaceOnUse" x1="51.4746" y1="40.0957" x2="52.2111" y2="45.9353">
		<stop  offset="0" style="stop-color:#FFB01F"/>
		<stop  offset="1" style="stop-color:#FF3F1F"/>
	</linearGradient>
	<path fill="url(#SVGID_10_)" d="M52.125,45.755c0,0,2.313-2.813-1.688-6.688C50.438,39.067,52.375,43.255,52.125,45.755z"/>
	<linearGradient id="SVGID_11_" gradientUnits="userSpaceOnUse" x1="22.1665" y1="44.4219" x2="31.5" y2="44.4219">
		<stop  offset="0" style="stop-color:#FFE3BF"/>
		<stop  offset="1" style="stop-color:#FFB67F"/>
	</linearGradient>
	<path display="none" fill="url(#SVGID_11_)" d="M22.25,40.13c0,0,3.333,5.75,9.25,8.583c0,0-7.333-0.999-9.333-5.416L22.25,40.13z"
		/>
	<linearGradient id="SVGID_12_" gradientUnits="userSpaceOnUse" x1="18.75" y1="47.3799" x2="32.0835" y2="47.3799">
		<stop  offset="0" style="stop-color:#FFE3BF"/>
		<stop  offset="1" style="stop-color:#FFB67F"/>
	</linearGradient>
	<path display="none" fill="url(#SVGID_12_)" d="M18.833,41.88l-0.083,3.667c0,0,3.167,6.416,13.333,7.333
		C32.083,52.88,21.667,48.963,18.833,41.88z"/>
</g>
</svg>
