<?xml version="1.0" encoding="utf-8"?>
<!-- Generator: Adobe Illustrator 15.0.2, SVG Export Plug-In . SVG Version: 6.00 Build 0)  -->
<!DOCTYPE svg PUBLIC "-//W3C//DTD SVG 1.1//EN" "http://www.w3.org/Graphics/SVG/1.1/DTD/svg11.dtd">
<svg version="1.1" id="レイヤー_1" xmlns="http://www.w3.org/2000/svg" xmlns:xlink="http://www.w3.org/1999/xlink" x="0px"
	 y="0px" width="64px" height="64px" viewBox="0 0 64 64" enable-background="new 0 0 64 64" xml:space="preserve">
<g id="_x30_6_1_">
	<g>
		
			<linearGradient id="SVGID_1_" gradientUnits="userSpaceOnUse" x1="23.186" y1="39.9355" x2="22.9258" y2="42.3645" gradientTransform="matrix(0.8151 -0.5793 0.5793 0.8151 -15.8077 26.4461)">
			<stop  offset="0" style="stop-color:#FFE3BF"/>
			<stop  offset="1" style="stop-color:#FFB67F"/>
		</linearGradient>
		<path fill="url(#SVGID_1_)" stroke="#050505" stroke-miterlimit="3" d="M29.112,40.052c0,0-3.958,4.59-4.471,5.571
			c-0.512,0.982-2.406,6.825-4.392,8.362l1.963,2.761c0,0,3.813-4.716,6.448-8.63l6.162-6.299L29.112,40.052z"/>
		<path stroke="#050505" stroke-miterlimit="3" d="M24.092,54.593l-2.077,1.878l-1.766-2.485c0,0-2.725-1.009-4.167-1.471
			c-0.83-0.265-2.984-0.381-1.084,2.756l6.116,3.995l1.432,0.596C22.545,59.861,24.689,57.708,24.092,54.593z"/>
		
			<linearGradient id="SVGID_2_" gradientUnits="userSpaceOnUse" x1="17.855" y1="52.9648" x2="18.3811" y2="57.1358" gradientTransform="matrix(0.9596 -0.2813 0.2813 0.9596 -12.6623 9.1129)">
			<stop  offset="0" style="stop-color:#FFB01F"/>
			<stop  offset="1" style="stop-color:#FF3F1F"/>
		</linearGradient>
		<path fill="url(#SVGID_2_)" d="M16.841,55.12c0,0,1.743,3.724,6.354,2.567C23.195,57.688,20.447,57.646,16.841,55.12z"/>
		<path fill="#161616" stroke="#050505" stroke-miterlimit="10" d="M29.019,38.926l-4.179,5.905c0,0,8.543,2.217,10.041,2.902
			c0,0,8.477-10.059,1.385-15.008L29.019,38.926z"/>
	</g>
	<linearGradient id="SVGID_3_" gradientUnits="userSpaceOnUse" x1="33.7012" y1="20.8496" x2="39.4663" y2="21.8342">
		<stop  offset="0" style="stop-color:#FFE3BF"/>
		<stop  offset="1" style="stop-color:#FFB67F"/>
	</linearGradient>
	<polygon fill="url(#SVGID_3_)" stroke="#050505" stroke-miterlimit="10" points="39.168,23.583 35.465,24.575 34,19.1 
		37.703,18.109 	"/>
	
		<linearGradient id="SVGID_4_" gradientUnits="userSpaceOnUse" x1="36.9336" y1="31.2397" x2="45.2463" y2="32.6594" gradientTransform="matrix(0.9781 0.208 -0.208 0.9781 5.9021 -7.7526)">
		<stop  offset="0" style="stop-color:#FFE3BF"/>
		<stop  offset="1" style="stop-color:#FFB67F"/>
	</linearGradient>
	<path fill="url(#SVGID_4_)" stroke="#050505" stroke-miterlimit="3" d="M39.935,23.517c2.257,1.855,5.96,5.957,6.691,7.758
		c0.733,1.801-6.459,6.973-6.459,6.973s-1.727,3.145-3.665,1.076s-1.225-3.844,0.832-4c0,0,1.571-1.984,2.216,0.051
		c0,0,1.275-2.513,2.857-3.887l-4.271-3.523C38.137,27.965,35.096,23.692,39.935,23.517z"/>
	<g>
		
			<linearGradient id="SVGID_5_" gradientUnits="userSpaceOnUse" x1="41.3115" y1="43.0801" x2="41.7455" y2="50.7907" gradientTransform="matrix(0.8944 0.4474 -0.4474 0.8944 21.0683 -11.0606)">
			<stop  offset="0" style="stop-color:#FFE3BF"/>
			<stop  offset="1" style="stop-color:#FFB67F"/>
		</linearGradient>
		<path fill="url(#SVGID_5_)" stroke="#050505" stroke-miterlimit="3" d="M33.166,43.94c0,0,1.24,8.839,2.176,9.431
			c0.937,0.59,4.085,0.136,7.415-1.781l0.928-3.704c0,0-1.833,0.792-5.069,1.418l-1.67-9.993L33.166,43.94z"/>
		<path stroke="#050505" stroke-miterlimit="3" d="M40.007,48.963l2.206,0.485l-0.321,2.818c0,0,1.493,1.998,1.914,3.256
			c0.473,1.407,1.271,2.573,2.222-0.49l-1.088-6.37l-0.484-1.297C44.455,47.365,41.75,46.775,40.007,48.963z"/>
		
			<linearGradient id="SVGID_6_" gradientUnits="userSpaceOnUse" x1="45.1465" y1="45.0166" x2="45.883" y2="50.8562" gradientTransform="matrix(0.998 -0.0628 0.0628 0.998 -3.9717 6.9201)">
			<stop  offset="0" style="stop-color:#FFB01F"/>
			<stop  offset="1" style="stop-color:#FF3F1F"/>
		</linearGradient>
		<path fill="url(#SVGID_6_)" d="M44.916,54.618c0,0,2.131-2.952-2.104-6.567C42.812,48.051,45.008,52.108,44.916,54.618z"/>
		<path fill="#161616" stroke="#050505" stroke-miterlimit="10" d="M29.954,37.194l2.215,9.729l8.727-0.493
			c0,0-2.834-7.232-2.642-8.51C38.254,37.92,32.284,35.517,29.954,37.194z"/>
	</g>
	<linearGradient id="SVGID_7_" gradientUnits="userSpaceOnUse" x1="34.4385" y1="26.4619" x2="36.1886" y2="40.3377">
		<stop  offset="0" style="stop-color:#FFB01F"/>
		<stop  offset="1" style="stop-color:#FF3F1F"/>
	</linearGradient>
	<path fill="url(#SVGID_7_)" stroke="#050505" stroke-miterlimit="10" d="M27.949,38.546c0,0,1.665-12.276,6.26-14.123
		c4.594-1.847,6.813-1.698,8,0.827c1.189,2.525-3.594,10.25-3.594,10.25l0.822,2.526C39.438,38.026,32.544,42.706,27.949,38.546z"/>
	<g display="none">
		<path display="inline" fill="none" stroke="#C10D23" stroke-miterlimit="10" d="M28.253,8.95"/>
		<linearGradient id="SVGID_8_" gradientUnits="userSpaceOnUse" x1="32.7734" y1="7.6387" x2="40.1904" y2="20.8887">
			<stop  offset="0" style="stop-color:#FFE3BF"/>
			<stop  offset="1" style="stop-color:#FFB67F"/>
		</linearGradient>
		<path display="inline" fill="url(#SVGID_8_)" stroke="#050505" stroke-miterlimit="10" d="M44.383,13.002
			c0,4.616-3.742,8.358-8.359,8.358c-4.616,0-7.771-1.554-7.771-6.169c0-7.005,3.154-10.548,7.771-10.548
			C40.641,4.644,44.383,8.386,44.383,13.002z"/>
		<path display="inline" fill="#002A49" d="M31.518,11.422c-0.367,0-0.682,0.375-0.828,0.912l0.577,0.558l-0.659,0.219
			c0.032,0.821,0.425,1.472,0.91,1.472c0.506,0,0.915-0.708,0.915-1.581S32.023,11.422,31.518,11.422z"/>
		<path display="inline" fill="#302721" d="M28.322,16.272c0,0,3.11,0.34,3.747,1.378c0.636,1.038-0.95,2.85-0.95,2.85l1.627,0.608
			c0,0,1.823-4.19,0-4.835S28.056,15.002,28.322,16.272z"/>
		<polyline display="inline" fill="none" stroke="#302721" stroke-miterlimit="10" points="30.125,10.313 32.688,10.125 
			33.25,10.813 		"/>
		<path display="inline" fill="#A08878" stroke="#514139" stroke-miterlimit="10" d="M31.688,5.813c0,0,4.563-0.938,5.688,0.813
			C39.201,9.466,37.25,12.5,37.25,12.5l1.688,0.313c0,0,2.688-0.875,1.063,4.25l1.438,2.125c0,0,5.438-3.438,2-10.188
			S32.125,5,31.688,5.813z"/>
		<path display="inline" fill="none" stroke="#442116" stroke-width="0.3876" stroke-miterlimit="10" d="M29.169,11.229
			c0,0-0.442,4.476,1.249,4.4C32.109,15.554,31.747,9.656,29.169,11.229z"/>
		<path display="inline" fill="none" stroke="#442116" stroke-width="0.3876" stroke-miterlimit="10" d="M31.267,12.892l7.233-0.267
			c0,0,0.688,0.063,0.75,1.125"/>
	</g>
	<linearGradient id="SVGID_9_" gradientUnits="userSpaceOnUse" x1="32.2993" y1="7.8403" x2="39.5121" y2="20.7256">
		<stop  offset="0" style="stop-color:#FFE3BF"/>
		<stop  offset="1" style="stop-color:#FFB67F"/>
	</linearGradient>
	<path fill="url(#SVGID_9_)" stroke="#050505" stroke-miterlimit="10" d="M43.383,14.002c0,4.616-3.445,6.31-7.359,7.358
		c-4.459,1.194-7.771-1.554-7.771-6.169c0-7.005,3.154-10.548,7.771-10.548C40.641,4.644,43.383,9.386,43.383,14.002z"/>
	
		<linearGradient id="SVGID_10_" gradientUnits="userSpaceOnUse" x1="27.9854" y1="18.729" x2="31.113" y2="30.7318" gradientTransform="matrix(0.9038 -0.428 0.428 0.9038 -7.842 18.1414)">
		<stop  offset="0" style="stop-color:#FFE3BF"/>
		<stop  offset="1" style="stop-color:#FFB67F"/>
	</linearGradient>
	<path fill="url(#SVGID_10_)" stroke="#050505" stroke-miterlimit="3" d="M35.422,30.761c0,0-4.827,4.528-6.745,4.847
		c-1.917,0.324-5.626-8.742-5.626-8.742s-2.691-2.374-0.248-3.811c2.441-1.439,4.02-0.355,3.721,1.688c0,0,1.538,0.781-0.383,1.784
		c0,0,2.138,2.703,2.657,4.197c0,0,4.325-6.109,6.151-5.243C38.518,27.174,35.422,30.761,35.422,30.761z"/>
	<polyline fill="none" stroke="#19120F" stroke-miterlimit="10" points="28.688,12.063 32.25,10.938 33.375,11.813 	"/>
	<polygon fill="#1065FC" points="31.313,11.563 38.625,11.625 38.563,12.125 31,12.438 	"/>
	<path fill="#4F3F34" stroke="#19120F" stroke-miterlimit="10" d="M29.875,8.25c0,0,4.313-0.625,7.438-0.188
		C39.139,10.903,38,12.438,38,12.438l0.938,0.375c0,0,2.688-0.875,1.063,4.25l1.625,1.563c1.063-0.5,3.563-4.875,1.813-9.625
		C40.818,1.892,30.688,4.063,29.875,8.25z"/>
	<path fill="#000091" d="M28,12.813c0,0,1,2.375,1.875,2.25c0.548-0.078,3.25-2.25,3.25-2.25s-0.297-0.719-0.438-0.875
		c-0.563-0.625-2.438-0.813-4.688-0.063V12.813z"/>
</g>
</svg>
