<?xml version="1.0" encoding="utf-8"?>
<!-- Generator: Adobe Illustrator 15.0.2, SVG Export Plug-In . SVG Version: 6.00 Build 0)  -->
<!DOCTYPE svg PUBLIC "-//W3C//DTD SVG 1.1//EN" "http://www.w3.org/Graphics/SVG/1.1/DTD/svg11.dtd">
<svg version="1.1" id="レイヤー_1" xmlns="http://www.w3.org/2000/svg" xmlns:xlink="http://www.w3.org/1999/xlink" x="0px"
	 y="0px" width="64px" height="64px" viewBox="0 0 64 64" enable-background="new 0 0 64 64" xml:space="preserve">
<g id="_x30_7_1_">
	
		<linearGradient id="SVGID_1_" gradientUnits="userSpaceOnUse" x1="25.9282" y1="20.9585" x2="29" y2="32.7472" gradientTransform="matrix(0.2205 -0.9754 0.9754 0.2205 -0.0868 54.5982)">
		<stop  offset="0" style="stop-color:#FFE3BF"/>
		<stop  offset="1" style="stop-color:#FFB67F"/>
	</linearGradient>
	<path fill="url(#SVGID_1_)" stroke="#050505" stroke-miterlimit="3" d="M37.631,30.671c0,0,1.234,6.568,0.302,8.274
		c-0.929,1.709-10.351-0.964-10.351-0.964s-3.528,0.654-3.153-2.155c0.373-2.81,2.2-3.383,3.624-1.888c0,0,1.564-0.729,1.167,1.402
		c0,0,3.446-0.016,4.942,0.496l-0.332-8.075L37.631,30.671z"/>
	
		<linearGradient id="SVGID_2_" gradientUnits="userSpaceOnUse" x1="21.1479" y1="58.4346" x2="20.8515" y2="61.2007" gradientTransform="matrix(0.3127 -0.9499 0.9499 0.3127 -29.9077 51.19)">
		<stop  offset="0" style="stop-color:#FFE3BF"/>
		<stop  offset="1" style="stop-color:#FFB67F"/>
	</linearGradient>
	<path fill="url(#SVGID_2_)" stroke="#050505" stroke-linejoin="bevel" stroke-miterlimit="3" d="M29.886,45.127
		c0,0-0.464,6.043-0.295,7.137c0.17,1.095,1.785,2.736,3.826,5.367l4.459,0.744c0,0-1.5-2.75-3.57-6.488l1.225-8.726L29.886,45.127z
		"/>
	<path stroke="#050505" stroke-miterlimit="3" d="M36.871,55.842l-0.559,2.743l-2.896-0.954c0,0-2.791,0.805-4.226,1.288
		c-0.826,0.278-2.628,1.464,0.761,2.862l7.293-0.411L38.75,61C38.75,61,39.199,57.996,36.871,55.842z"/>
	<path fill="#161616" stroke="#050505" stroke-width="1.1091" stroke-miterlimit="10" d="M28.25,40.75l-1.977,10.099
		c0,0,10.036-0.775,11.967-0.615c0,0,2.847-13.056-7.287-15.527L28.25,40.75z"/>
	<linearGradient id="SVGID_3_" gradientUnits="userSpaceOnUse" x1="33.7012" y1="22.8496" x2="39.4663" y2="23.8342">
		<stop  offset="0" style="stop-color:#FFE3BF"/>
		<stop  offset="1" style="stop-color:#FFB67F"/>
	</linearGradient>
	<polygon fill="url(#SVGID_3_)" stroke="#050505" stroke-miterlimit="10" points="39.168,25.583 35.465,26.575 34,21.1 
		37.703,20.109 	"/>
	<g>
		<g>
			
				<linearGradient id="SVGID_4_" gradientUnits="userSpaceOnUse" x1="39.1006" y1="46.5059" x2="39.5362" y2="54.2459" gradientTransform="matrix(0.6383 0.7698 -0.7698 0.6383 43.8795 -12.3159)">
				<stop  offset="0" style="stop-color:#FFE3BF"/>
				<stop  offset="1" style="stop-color:#FFB67F"/>
			</linearGradient>
			<path fill="url(#SVGID_4_)" stroke="#050505" stroke-miterlimit="3" d="M28,44.5c0,0-1.972,7.411-1.25,8.25
				c0.724,0.839,3.921,1.945,7.667,1.083L35.25,51.5c0,0-0.816-0.316-4-1.167l4.493-7.894L28,44.5z"/>
			<path stroke="#050505" stroke-miterlimit="3" d="M33.664,50.827l1.969,1.107l-1.129,2.603c0,0,0.846,2.349,0.883,3.673
				c0.041,1.483,0.465,2.833,2.268,0.178l0.814-6.41l-0.084-1.381C38.385,50.597,35.969,49.245,33.664,50.827z"/>
			<path fill="#161616" stroke="#050505" stroke-miterlimit="10" d="M30.196,37.685l-3.863,9.065l10.156,3.796
				c0,0,0.32-7.761,1.011-8.854C37.5,41.692,33.005,37.089,30.196,37.685z"/>
		</g>
		
			<linearGradient id="SVGID_5_" gradientUnits="userSpaceOnUse" x1="36.5791" y1="52.3945" x2="37.3156" y2="58.2341" gradientTransform="matrix(0.9967 0.081 -0.081 0.9967 4.4477 -3.035)">
			<stop  offset="0" style="stop-color:#FFB01F"/>
			<stop  offset="1" style="stop-color:#FF3F1F"/>
		</linearGradient>
		<path fill="url(#SVGID_5_)" d="M36.853,57.844c0,0,2.532-2.615-1.141-6.802C35.712,51.042,37.304,55.372,36.853,57.844z"/>
	</g>
	<linearGradient id="SVGID_6_" gradientUnits="userSpaceOnUse" x1="33.9502" y1="28.4932" x2="35.7043" y2="42.4007">
		<stop  offset="0" style="stop-color:#FFB01F"/>
		<stop  offset="1" style="stop-color:#FF3F1F"/>
	</linearGradient>
	<path fill="url(#SVGID_6_)" stroke="#050505" stroke-miterlimit="10" d="M27.949,40.546c0,0,1.665-12.276,6.26-14.123
		c4.594-1.847,5.813-1.698,7,0.827c1.189,2.525-2.594,10.25-2.594,10.25l0.822,2.526C39.438,40.026,32.544,44.706,27.949,40.546z"/>
	
		<linearGradient id="SVGID_7_" gradientUnits="userSpaceOnUse" x1="36.8301" y1="33.7988" x2="45.4696" y2="35.2743" gradientTransform="matrix(0.6312 0.7756 -0.7756 0.6312 34.7799 -20.1871)">
		<stop  offset="0" style="stop-color:#FFE3BF"/>
		<stop  offset="1" style="stop-color:#FFB67F"/>
	</linearGradient>
	<path fill="url(#SVGID_7_)" stroke="#050505" stroke-miterlimit="3" d="M39.75,27c0.592,2.861,0.854,8.871,0.294,10.732
		c-0.559,1.862-9.405,1.378-9.405,1.378s-3.317,1.365-3.528-1.463c-0.212-2.825,1.458-3.763,3.158-2.592c0,0,2.468-0.559,1.692,1.43
		c0,0,2.571-1.157,4.664-1.234l-1.958-5.584C34.667,29.667,35.872,24.101,39.75,27z"/>
	<g display="none">
		<path display="inline" fill="none" stroke="#C10D23" stroke-miterlimit="10" d="M28.253,10.95"/>
		<linearGradient id="SVGID_8_" gradientUnits="userSpaceOnUse" x1="32.7729" y1="9.6387" x2="40.1899" y2="22.8887">
			<stop  offset="0" style="stop-color:#FFE3BF"/>
			<stop  offset="1" style="stop-color:#FFB67F"/>
		</linearGradient>
		<path display="inline" fill="url(#SVGID_8_)" stroke="#050505" stroke-miterlimit="10" d="M44.383,15.002
			c0,4.616-3.742,8.358-8.359,8.358c-4.616,0-7.771-1.554-7.771-6.169c0-7.005,3.154-10.548,7.771-10.548
			C40.641,6.644,44.383,10.386,44.383,15.002z"/>
		<path display="inline" fill="#002A49" d="M31.518,13.422c-0.367,0-0.682,0.375-0.828,0.912l0.577,0.558l-0.659,0.219
			c0.032,0.821,0.425,1.472,0.91,1.472c0.506,0,0.915-0.708,0.915-1.581S32.023,13.422,31.518,13.422z"/>
		<path display="inline" fill="#302721" d="M28.322,18.272c0,0,3.11,0.34,3.747,1.378c0.636,1.038-0.95,2.85-0.95,2.85l1.627,0.608
			c0,0,1.823-4.19,0-4.835S28.056,17.002,28.322,18.272z"/>
		<polyline display="inline" fill="none" stroke="#302721" stroke-miterlimit="10" points="30.125,12.313 32.688,12.125 
			33.25,12.813 		"/>
		<path display="inline" fill="#A08878" stroke="#514139" stroke-miterlimit="10" d="M31.688,7.813c0,0,4.563-0.938,5.688,0.813
			c1.826,2.841-0.125,5.875-0.125,5.875l1.688,0.313c0,0,2.688-0.875,1.063,4.25l1.438,2.125c0,0,5.438-3.438,2-10.188
			S32.125,7,31.688,7.813z"/>
		<path display="inline" fill="none" stroke="#442116" stroke-width="0.3876" stroke-miterlimit="10" d="M29.169,13.229
			c0,0-0.442,4.476,1.249,4.4C32.109,17.554,31.747,11.656,29.169,13.229z"/>
		<path display="inline" fill="none" stroke="#442116" stroke-width="0.3876" stroke-miterlimit="10" d="M31.267,14.892l7.233-0.267
			c0,0,0.688,0.063,0.75,1.125"/>
	</g>
	<linearGradient id="SVGID_9_" gradientUnits="userSpaceOnUse" x1="32.2998" y1="9.8403" x2="39.5126" y2="22.7256">
		<stop  offset="0" style="stop-color:#FFE3BF"/>
		<stop  offset="1" style="stop-color:#FFB67F"/>
	</linearGradient>
	<path fill="url(#SVGID_9_)" stroke="#050505" stroke-miterlimit="10" d="M43.383,16.002c0,4.616-3.445,6.31-7.359,7.358
		c-4.459,1.194-7.771-1.554-7.771-6.169c0-7.005,3.154-10.548,7.771-10.548C40.641,6.644,43.383,11.386,43.383,16.002z"/>
	<polyline fill="none" stroke="#19120F" stroke-miterlimit="10" points="28.688,14.063 32.25,12.938 33.375,13.813 	"/>
	<polygon fill="#1065FC" points="31.313,13.563 38.625,13.625 38.563,14.125 31,14.438 	"/>
	<path fill="#4F3F34" stroke="#19120F" stroke-miterlimit="10" d="M29.875,10.25c0,0,4.313-0.625,7.438-0.188
		C39.139,12.903,38,14.438,38,14.438l0.938,0.375c0,0,2.688-0.875,1.063,4.25l1.625,1.563c1.063-0.5,3.563-4.875,1.813-9.625
		C40.818,3.892,30.688,6.063,29.875,10.25z"/>
	<path fill="#000091" d="M28,14.813c0,0,1,2.375,1.875,2.25c0.548-0.078,3.25-2.25,3.25-2.25s-0.297-0.719-0.438-0.875
		c-0.563-0.625-2.438-0.813-4.688-0.063V14.813z"/>
	
		<linearGradient id="SVGID_10_" gradientUnits="userSpaceOnUse" x1="35.2285" y1="57.8516" x2="35.7545" y2="62.0217" gradientTransform="matrix(0.6207 -0.784 0.784 0.6207 -34.0485 50.6194)">
		<stop  offset="0" style="stop-color:#FFB01F"/>
		<stop  offset="1" style="stop-color:#FF3F1F"/>
	</linearGradient>
	<path fill="url(#SVGID_10_)" d="M31.228,60.538c0,0,3.574,2.031,6.668-1.576C37.896,58.962,35.63,60.516,31.228,60.538z"/>
</g>
</svg>
