<?xml version="1.0" encoding="iso-8859-1"?>
<!-- Generator: Adobe Illustrator 15.0.2, SVG Export Plug-In . SVG Version: 6.00 Build 0)  -->
<!DOCTYPE svg PUBLIC "-//W3C//DTD SVG 1.1//EN" "http://www.w3.org/Graphics/SVG/1.1/DTD/svg11.dtd">
<svg version="1.1" id="_x30_4" xmlns="http://www.w3.org/2000/svg" xmlns:xlink="http://www.w3.org/1999/xlink" x="0px" y="0px"
	 width="1008px" height="1008px" viewBox="0 0 1008 1008" style="enable-background:new 0 0 1008 1008;" xml:space="preserve">
<g>
	<rect x="489.081" y="311.987" style="fill:#00A0E9;" width="29.83" height="56.438"/>
	<path style="fill:#00A0E9;" d="M614.077,79.333H393.921c-47.071,0-85.227,72.186-85.227,161.224v416.477
		c0,89.035,38.154,161.221,85.227,161.221h73.275l36.425,110.414l36.433-110.414h74.023c47.066,0,85.229-72.186,85.229-161.221
		V240.556C699.306,151.518,661.145,79.333,614.077,79.333z M425.316,368.424h31.59v-56.438h-31.59v-60.858h31.59V191.37h32.175
		v59.758h29.83V191.37h32.174v59.758h31.586v60.858h-31.586v56.438h31.586v60.854h-31.586v59.76H518.91v-59.76h-29.83v59.76h-32.175
		v-59.76h-31.59L425.316,368.424L425.316,368.424z M651.585,554.68c0,0-42.472,151.32-143.313,151.32
		c-1.397,0-2.775-0.033-4.146-0.08c-1.37,0.047-2.749,0.08-4.144,0.08c-100.841,0-143.312-151.32-143.312-151.32
		s-2.749-9.854-2.749-20.477c-0.173-7.666,1.81-18.656,7.01-25.129c2.893-3.597,5.626-5.376,8.162-5.933
		c12.144-2.437,19.181,12.521,24.967,29.601c6.392,18.846,43.261,101.418,110.065,104.578
		c66.808-3.16,103.68-85.732,110.068-104.578c5.787-17.08,13.079-32.063,24.968-29.601c2.535,0.557,5.271,2.336,8.16,5.933
		c5.203,6.473,7.229,15.592,7.046,25.121C653.96,548.217,651.585,554.68,651.585,554.68z"/>
</g>
</svg>
