<?xml version="1.0" encoding="utf-8"?>
<!-- Generator: Adobe Illustrator 15.0.2, SVG Export Plug-In . SVG Version: 6.00 Build 0)  -->
<!DOCTYPE svg PUBLIC "-//W3C//DTD SVG 1.1//EN" "http://www.w3.org/Graphics/SVG/1.1/DTD/svg11.dtd">
<svg version="1.1" id="_x30_2_17_" xmlns="http://www.w3.org/2000/svg" xmlns:xlink="http://www.w3.org/1999/xlink" x="0px" y="0px"
	 width="64px" height="64px" viewBox="0 0 64 64" enable-background="new 0 0 64 64" xml:space="preserve">
<path fill="#A2D36A" stroke="#2B5E04" stroke-width="1.274" stroke-miterlimit="6" d="M31.362,21.258l12.824,1.782l-0.809,1.63
	c0,0-4.049,2.63-13.474,1.328L31.362,21.258z"/>
<path fill="#A2D36A" stroke="#2B5E04" stroke-miterlimit="6" d="M20.814,35.25c0,0-1.968-0.166-2.706,8.522c0,0-0.656,0.738,0,2.377
	c0,0-1.32,5.248-0.782,6.97L9.585,56.89c0,0-1.213-0.49-1.639,0.819c-0.386,1.188,2.025,1.147,2.025,1.147s-1.943,0.41-1.042,1.722
	s2.131,0,2.131,0l0.558,1.229c0,0-1.287,1.229,0.881,1.229s1.844-1.229,1.844-1.229l5.733-7.049c0,0,1.229-0.984,0.738-2.214
	c0,0,2.786-3.938,1.146-7.134c0,0,3.362-3.112,3.28-9.833"/>
<path fill="#A2D36A" stroke="#2B5E04" d="M29.667,33.846c0,0,4.364-0.497,6.905,10.732c0,0,1.23,0.983,0,2.049l-5.02,7.229
	l6.557,1.394c0,0,1.32-1.146,1.895,0.166c0.572,1.312-1.156,1.72-1.156,1.72s2.068,0.739,0.838,1.805
	c-1.229,1.065-2.477,0.08-2.477,0.08l-0.246,0.738c0,0,0.9,1.148-0.574,1.394c-1.477,0.245-1.764-1.558-1.764-1.558L27.91,56.07
	c0,0-1.356-0.984,0.446-2.132c0,0,1.249-8.949,4.118-7.639c0,0-6.398-6.459-6.242-11.623"/>
<path fill="#A2D36A" stroke="#2B5E04" stroke-width="1.0628" stroke-miterlimit="6" d="M14.502,18.396c0,0-2.826,7.706,0.526,14.278
	s8.182,7.162,11.062,6.775s8.781-3.658,7.839-14.613c-0.942-10.955-6.308-10.818-6.308-10.818S19.237,19.17,14.502,18.396z"/>
<g>
	<path fill="#F9D79B" stroke="#D69541" stroke-width="1.0273" stroke-miterlimit="6" d="M46.271,26.41
		c-1.42,8.025-7.221,10.684-16.117,11.674C21.255,39.076,16.19,33.807,16.39,26.26c0.199-7.549,9.2-10.876,18.175-11.229
		C41.777,14.75,47.504,19.449,46.271,26.41z"/>
	<path fill="#EFC17F" d="M17.179,25.692c0,0,2.052-1.414,5.462-0.493c3.41,0.922,3.973,1.189,4.862,2.982
		c0.889,1.792,6.042,7.655,12.97,3.627c0,0-0.033-4.129,3.545-4.54c0,0-0.143,4.243-0.871,5.4
		c-4.314,3.897-14.104,7.028-20.817,3.716C15.814,33.969,17.179,25.692,17.179,25.692z"/>
	<path fill="#EFC17F" d="M22.64,21.651l2.535-0.408c0,0-1.351,1.744-1.071,4.515l-3.617,0.561
		C20.486,26.319,20.36,23.275,22.64,21.651z"/>
	<path fill="none" stroke="#D69541" stroke-width="1.0273" stroke-miterlimit="6" d="M24.628,17.084c0,0,10.502-1.524,15.702,5.798"
		/>
	
		<ellipse transform="matrix(0.9997 0.0264 -0.0264 0.9997 0.4418 -0.8529)" fill="#EFC17F" cx="32.575" cy="16.331" rx="2.047" ry="0.743"/>
	
		<ellipse transform="matrix(0.9997 0.0263 -0.0263 0.9997 0.4501 -0.9677)" fill="#EFC17F" cx="37.005" cy="16.625" rx="2.209" ry="0.578"/>
	
		<ellipse transform="matrix(0.9997 0.0263 -0.0263 0.9997 0.4902 -1.0914)" fill="#EFC17F" cx="41.748" cy="18.095" rx="1.839" ry="0.76"/>
	<path fill="#A07537" stroke="#663704" stroke-width="0.5137" stroke-miterlimit="6" d="M31.218,16.14
		c0.347,0.314,2.372,0.252,3.081-0.519C33.996,12.729,31.231,1.28,31.231,1.28l-1.812,0.305
		C29.419,1.585,31.573,11.925,31.218,16.14z"/>
	<path fill="#A07537" stroke="#663704" stroke-width="0.5137" stroke-miterlimit="6" d="M36.172,16.435
		c0.256,0.298,2.107,0.598,2.898,0.137c0.275-2.244-0.061-11.393-0.061-11.393l-1.703-0.081
		C37.307,5.098,37.297,13.302,36.172,16.435z"/>
	<path fill="#A07537" stroke="#663704" stroke-width="0.5137" stroke-miterlimit="6" d="M40.674,17.729
		c0.213,0.33,2.004,0.881,2.85,0.532c0.582-2.184,1.5-11.294,1.5-11.294l-1.676-0.313C43.348,6.654,42.215,14.779,40.674,17.729z"/>
</g>
<path fill="#A07537" stroke="#663704" stroke-width="0.5" stroke-miterlimit="6" d="M19.939,35.998l-1.313-0.979
	c0,0,4.549-7.178,5.678-9.539c0.605-0.042,2.677,1.502,2.838,1.982C25.336,28.756,19.939,35.998,19.939,35.998z"/>
<g>
	
		<ellipse transform="matrix(-0.8019 -0.5975 0.5975 -0.8019 16.8537 72.358)" fill="#663704" cx="20.423" cy="33.385" rx="0.497" ry="0.597"/>
	
		<ellipse transform="matrix(-0.802 -0.5973 0.5973 -0.802 19.5383 70.4868)" fill="#663704" cx="21.452" cy="32.005" rx="0.497" ry="0.595"/>
	
		<ellipse transform="matrix(-0.8022 -0.597 0.597 -0.8022 22.2281 68.6162)" fill="#663704" cx="22.479" cy="30.626" rx="0.497" ry="0.596"/>
	
		<ellipse transform="matrix(-0.8016 -0.5978 0.5978 -0.8016 24.8668 66.7466)" fill="#663704" cx="23.507" cy="29.248" rx="0.497" ry="0.596"/>
	
		<ellipse transform="matrix(-0.8019 -0.5975 0.5975 -0.8019 27.5564 64.8756)" fill="#663704" cx="24.534" cy="27.869" rx="0.497" ry="0.596"/>
</g>
<path fill="#A2D36A" stroke="#2B5E04" stroke-miterlimit="6" d="M15.371,19.265c0,0-5.144,1.386-5.888,10.135
	c0,0-0.396,2.179,1.997,2c0,0,5.443,1.135,8.414-1.945c0,0,1.333,1.168,2.968,0.062l2.261,0.465c0,0,2.011-1.387,1.145-2.081
	c0,0,0.607,0.108,0.958-1.017c0,0-1.371-0.608-2.78-1.208c-1.409-0.601-3.13,1.156-3.13,1.156s-3.971-0.608-6.764,0.51
	c0,0,1.428-2.043,2.097-4.6"/>
<path fill="#A2D36A" stroke="#2B5E04" stroke-width="1.0718" stroke-miterlimit="6" d="M14.852,14.965c0,0-0.714-5.502,1.539-6.252
	s3.54,2.61,3.54,2.61s-0.501-3.789,1.492-4.456c1.994-0.666,3.554,2.072,3.926,4.24c0,0,1.35-1.673,3.087-1.088
	c0.736,0.248,1.241,1.427,0.321,2.972c2.129,0.295-1.7,3.06-3.058,3.744c-2.664,1.341-5.375,2.483-11.579,3.156
	C14.12,19.89,9.336,15.906,14.852,14.965z"/>
<path fill="#A2D36A" stroke="#2B5E04" stroke-miterlimit="6" d="M42.129,33.137c0,0,2.934,0.678,4.479-1.823l0.104-3.963
	c0,0-1.004-0.334-1.391,1.059c0,0-2.33-1.332-2.91,1.333C42.41,29.742,41.111,31.026,42.129,33.137z"/>
<line fill="#A2D36A" stroke="#2B5E04" stroke-width="0.8" stroke-miterlimit="6" x1="15.082" y1="17.722" x2="16.68" y2="15.229"/>
<ellipse transform="matrix(0.999 -0.0447 0.0447 0.999 -0.5425 0.7942)" fill="#FFFFFF" stroke="#2B5E04" stroke-width="0.4009" stroke-miterlimit="6" cx="17.505" cy="12.539" rx="1.52" ry="1.921"/>
<path fill="#A2D36A" stroke="#2B5E04" stroke-width="0.4009" stroke-miterlimit="6" d="M18.389,11.011c0,0-0.144,1.961-2.272,2.264
	C16.117,13.275,15.29,9.812,18.389,11.011z"/>
<line fill="#A2D36A" stroke="#2B5E04" stroke-width="0.4009" stroke-miterlimit="6" x1="17.932" y1="13.323" x2="18.349" y2="12.561"/>
<path fill="#FFFFFF" stroke="#2B5E04" stroke-width="0.4093" stroke-miterlimit="6" d="M21.104,10.996
	c0.155,1.05,0.982,1.793,1.847,1.659c0.865-0.132,1.44-1.092,1.284-2.142c-0.154-1.049-0.982-1.792-1.847-1.659
	C21.524,8.987,20.948,9.947,21.104,10.996z"/>
<path fill="#A2D36A" stroke="#2B5E04" stroke-width="0.4093" stroke-miterlimit="6" d="M24.231,11.197
	c0.332,2.215-2.76-1.762-2.76-1.762S23.683,7.547,24.231,11.197z"/>
<line fill="#A2D36A" stroke="#2B5E04" stroke-width="0.4093" stroke-miterlimit="6" x1="22.819" y1="11.526" x2="22.08" y2="11.052"/>
<path fill="#A07537" stroke="#663704" stroke-width="0.5" stroke-miterlimit="6" d="M24.633,21.678
	c-0.146,0.471-0.958,1.463-2.089,0.697c0.008-1.271-1.788-5.755-1.788-5.755l0.834-0.291C21.591,16.33,23.598,20.569,24.633,21.678z
	"/>
<path fill="#A2D36A" stroke="#2B5E04" stroke-width="0.8" stroke-miterlimit="6" d="M28.446,13.163c0,0-5.548,5.09-12.609,3.926"/>
</svg>
