<?xml version="1.0" encoding="utf-8"?>
<!-- Generator: Adobe Illustrator 15.0.2, SVG Export Plug-In . SVG Version: 6.00 Build 0)  -->
<!DOCTYPE svg PUBLIC "-//W3C//DTD SVG 1.1//EN" "http://www.w3.org/Graphics/SVG/1.1/DTD/svg11.dtd">
<svg version="1.1" id="_x30_3-" xmlns="http://www.w3.org/2000/svg" xmlns:xlink="http://www.w3.org/1999/xlink" x="0px" y="0px"
	 width="64px" height="64px" viewBox="0 0 64 64" enable-background="new 0 0 64 64" xml:space="preserve">
<path fill="#A2D36A" stroke="#2B5E04" stroke-width="1.274" stroke-miterlimit="6" d="M31.716,21.839L44.529,23.7l-0.818,1.625
	c0,0-4.066,2.604-13.482,1.245L31.716,21.839z"/>
<path fill="#A2D36A" stroke="#2B5E04" stroke-miterlimit="6" d="M20.814,35.25c0,0-2.831,0.251-3.569,8.939c0,0-0.656,0.738,0,2.377
	c0,0-0.457,4.831,0.081,6.553L9.585,56.89c0,0-1.213-0.49-1.639,0.819c-0.386,1.188,2.025,1.147,2.025,1.147
	s-1.943,0.41-1.042,1.722s2.131,0,2.131,0l0.558,1.229c0,0-1.287,1.229,0.881,1.229s1.844-1.229,1.844-1.229l5.733-7.049
	c0,0,1.229-0.984,0.738-2.214c0,0,1.923-3.521,0.284-6.717c0,0,4.225-3.529,4.143-10.25"/>
<path fill="#A2D36A" stroke="#2B5E04" d="M29.667,33.846c0,0,5.741,0.385,8.282,11.614c0,0,1.229,0.983,0,2.049l-6.397,6.348
	l6.557,1.394c0,0,1.32-1.146,1.895,0.166c0.572,1.312-1.156,1.72-1.156,1.72s2.068,0.739,0.838,1.805
	c-1.229,1.065-2.477,0.08-2.477,0.08l-0.246,0.738c0,0,0.9,1.148-0.574,1.394c-1.477,0.245-1.764-1.558-1.764-1.558L27.91,56.07
	c0,0-1.356-0.984,0.446-2.132c0,0,2.625-8.067,5.494-6.757c0,0-7.774-7.341-7.618-12.505"/>
<path fill="#A2D36A" stroke="#2B5E04" stroke-width="1.0628" stroke-miterlimit="6" d="M14.875,18.874c0,0-2.874,7.688,0.438,14.28
	c3.312,6.593,8.138,7.213,11.021,6.844s8.803-3.605,7.928-14.565c-0.874-10.96-6.241-10.856-6.241-10.856
	S19.605,19.677,14.875,18.874z"/>
<g>
	<path fill="#F9D79B" stroke="#D69541" stroke-width="1.0551" stroke-miterlimit="6" d="M47.412,26.777
		c-1.51,8.232-7.482,10.926-16.626,11.889c-9.146,0.962-14.314-4.48-14.063-12.231c0.252-7.751,9.517-11.111,18.737-11.417
		C42.869,14.773,48.721,19.637,47.412,26.777z"/>
	<path fill="#EFC17F" d="M17.539,25.856c0,0,2.116-1.439,5.612-0.471c3.497,0.968,4.073,1.247,4.975,3.093
		c0.902,1.846,6.156,7.9,13.298,3.807c0,0-0.01-4.241,3.668-4.64c0,0-0.172,4.357-0.928,5.541
		c-4.457,3.977-14.53,7.128-21.404,3.685C16.085,34.35,17.539,25.856,17.539,25.856z"/>
	<path fill="#EFC17F" d="M23.171,21.741l2.607-0.403c0,0-1.398,1.783-1.129,4.63l-3.718,0.553
		C20.931,26.521,20.82,23.395,23.171,21.741z"/>
	<path fill="none" stroke="#D69541" stroke-width="1.0551" stroke-miterlimit="6" d="M25.244,17.063c0,0,10.795-1.5,16.088,6.053"/>
	
		<ellipse transform="matrix(0.9995 0.0325 -0.0325 0.9995 0.549 -1.0777)" fill="#EFC17F" cx="33.409" cy="16.34" rx="2.102" ry="0.763"/>
	
		<ellipse transform="matrix(0.9995 0.0324 -0.0324 0.9995 0.5598 -1.2207)" fill="#EFC17F" cx="37.957" cy="16.669" rx="2.269" ry="0.594"/>
	
		<ellipse transform="matrix(0.9995 0.0325 -0.0325 0.9995 0.6137 -1.3804)" fill="#EFC17F" cx="42.818" cy="18.209" rx="1.888" ry="0.78"/>
	<path fill="#A07537" stroke="#663704" stroke-width="0.5275" stroke-miterlimit="6" d="M32.017,16.135
		c0.354,0.325,2.433,0.274,3.167-0.513c-0.291-2.973-3.059-14.748-3.059-14.748l-1.864,0.302
		C30.261,1.176,32.407,11.808,32.017,16.135z"/>
	<path fill="#A07537" stroke="#663704" stroke-width="0.5275" stroke-miterlimit="6" d="M37.104,16.469
		c0.26,0.307,2.158,0.627,2.973,0.16c0.299-2.303,0.012-11.702,0.012-11.702L38.34,4.833C38.34,4.833,38.277,13.258,37.104,16.469z"
		/>
	<path fill="#A07537" stroke="#663704" stroke-width="0.5275" stroke-miterlimit="6" d="M41.719,17.826
		c0.215,0.341,2.053,0.918,2.922,0.565c0.611-2.24,1.611-11.589,1.611-11.589l-1.721-0.333
		C44.531,6.469,43.318,14.807,41.719,17.826z"/>
</g>
<path fill="#A07537" stroke="#663704" stroke-width="0.5" stroke-miterlimit="6" d="M20.203,36.509l-1.307-0.986
	c0,0,4.593-7.15,5.736-9.503c0.605-0.039,2.668,1.519,2.826,1.999C25.645,29.3,20.203,36.509,20.203,36.509z"/>
<g>
	
		<ellipse transform="matrix(-0.7978 -0.6029 0.6029 -0.7978 16.7842 73.4255)" fill="#663704" cx="20.704" cy="33.898" rx="0.497" ry="0.597"/>
	
		<ellipse transform="matrix(-0.7985 -0.602 0.602 -0.7985 19.5174 71.5843)" fill="#663704" cx="21.74" cy="32.525" rx="0.497" ry="0.596"/>
	
		<ellipse transform="matrix(-0.7982 -0.6024 0.6024 -0.7982 22.192 69.7398)" fill="#663704" cx="22.776" cy="31.153" rx="0.497" ry="0.596"/>
	
		<ellipse transform="matrix(-0.7981 -0.6025 0.6025 -0.7981 24.8742 67.8964)" fill="#663704" cx="23.813" cy="29.781" rx="0.497" ry="0.596"/>
	
		<ellipse transform="matrix(-0.7983 -0.6023 0.6023 -0.7983 27.5749 66.0517)" fill="#663704" cx="24.848" cy="28.408" rx="0.497" ry="0.596"/>
</g>
<path fill="#A2D36A" stroke="#2B5E04" stroke-miterlimit="6" d="M15.832,20.227c0,0-5.262,0.835-6.928,9.455
	c0,0-0.624,2.125,1.774,2.2c0,0,5.292,1.705,8.572-1.044c0,0,1.202,1.303,2.945,0.375l2.199,0.702c0,0,2.147-1.166,1.358-1.948
	c0,0,0.592,0.172,1.061-0.91c0,0-1.299-0.75-2.637-1.496s-3.234,0.819-3.234,0.819s-3.884-1.025-6.781-0.208
	c0,0,1.637-1.88,2.572-4.353"/>
<path fill="#A2D36A" stroke="#2B5E04" stroke-width="1.0718" stroke-miterlimit="6" d="M15.245,15.445c0,0-0.681-5.506,1.577-6.243
	c2.258-0.736,3.523,2.632,3.523,2.632s-0.478-3.792,1.519-4.447c1.998-0.654,3.542,2.093,3.9,4.264c0,0,1.36-1.666,3.094-1.069
	c0.735,0.252,1.232,1.435,0.302,2.974c2.127,0.308-1.718,3.049-3.081,3.725c-2.672,1.325-5.39,2.45-11.598,3.084
	C14.483,20.365,9.724,16.352,15.245,15.445z"/>
<path fill="#A2D36A" stroke="#2B5E04" stroke-miterlimit="6" d="M43.443,32.817c0,0,2.928,0.696,4.488-1.796l0.129-3.962
	c0,0-1.002-0.341-1.398,1.05c0,0-2.322-1.346-2.918,1.315C43.744,29.423,42.438,30.7,43.443,32.817z"/>
<line fill="#A2D36A" stroke="#2B5E04" stroke-width="0.8" stroke-miterlimit="6" x1="15.458" y1="18.203" x2="17.072" y2="15.72"/>
<ellipse transform="matrix(0.9993 -0.0386 0.0386 0.9993 -0.4892 0.7003)" fill="#FFFFFF" stroke="#2B5E04" stroke-width="0.4009" stroke-miterlimit="6" cx="17.913" cy="13.035" rx="1.52" ry="1.921"/>
<path fill="#A2D36A" stroke="#2B5E04" stroke-width="0.4009" stroke-miterlimit="6" d="M18.807,11.513c0,0-0.157,1.961-2.286,2.25
	C16.521,13.763,15.715,10.294,18.807,11.513z"/>
<line fill="#A2D36A" stroke="#2B5E04" stroke-width="0.4009" stroke-miterlimit="6" x1="18.335" y1="13.822" x2="18.757" y2="13.063"/>
<path fill="#FFFFFF" stroke="#2B5E04" stroke-width="0.4093" stroke-miterlimit="6" d="M21.522,11.515
	c0.148,1.051,0.971,1.799,1.837,1.67c0.865-0.127,1.446-1.083,1.297-2.134c-0.148-1.05-0.971-1.798-1.837-1.67
	C21.954,9.509,21.372,10.464,21.522,11.515z"/>
<path fill="#A2D36A" stroke="#2B5E04" stroke-width="0.4093" stroke-miterlimit="6" d="M24.647,11.734
	c0.319,2.217-2.749-1.778-2.749-1.778S24.122,8.082,24.647,11.734z"/>
<line fill="#A2D36A" stroke="#2B5E04" stroke-width="0.4093" stroke-miterlimit="6" x1="23.233" y1="12.055" x2="22.498" y2="11.577"/>
<path fill="#A07537" stroke="#663704" stroke-width="0.5" stroke-miterlimit="6" d="M24.985,22.218
	c-0.149,0.47-0.966,1.457-2.093,0.685c0.015-1.271-1.753-5.766-1.753-5.766l0.836-0.285C21.976,16.851,23.957,21.103,24.985,22.218z
	"/>
<path fill="#A2D36A" stroke="#2B5E04" stroke-width="0.8" stroke-miterlimit="6" d="M28.85,13.726c0,0-5.579,5.057-12.632,3.849"/>
</svg>
