<?xml version="1.0" encoding="utf-8"?>
<!-- Generator: Adobe Illustrator 15.0.2, SVG Export Plug-In . SVG Version: 6.00 Build 0)  -->
<!DOCTYPE svg PUBLIC "-//W3C//DTD SVG 1.1//EN" "http://www.w3.org/Graphics/SVG/1.1/DTD/svg11.dtd">
<svg version="1.1" id="_x30_4_16_" xmlns="http://www.w3.org/2000/svg" xmlns:xlink="http://www.w3.org/1999/xlink" x="0px" y="0px"
	 width="64px" height="64px" viewBox="0 0 64 64" enable-background="new 0 0 64 64" xml:space="preserve">
<path fill="#A2D36A" stroke="#2B5E04" stroke-width="1.274" stroke-miterlimit="6" d="M31.537,22.491l12.85,1.584l-0.783,1.643
	c0,0-4.008,2.692-13.452,1.536L31.537,22.491z"/>
<path fill="#A2D36A" stroke="#2B5E04" stroke-miterlimit="6" d="M20.814,35.25c0,0-3.669,0.834-4.407,9.522c0,0-0.656,0.738,0,2.377
	c0,0,0.381,4.248,0.918,5.97L9.585,56.89c0,0-1.213-0.49-1.639,0.819c-0.386,1.188,2.025,1.147,2.025,1.147s-1.943,0.41-1.042,1.722
	s2.131,0,2.131,0l0.558,1.229c0,0-1.287,1.229,0.881,1.229s1.844-1.229,1.844-1.229l5.733-7.049c0,0,1.229-0.984,0.738-2.214
	c0,0,1.085-2.938-0.554-6.134c0,0,5.063-4.112,4.98-10.833"/>
<path fill="#A2D36A" stroke="#2B5E04" d="M29.667,33.846c0,0,3.198,0.698,5.739,11.928c0,0,1.229,0.983,0,2.049l-3.854,6.034
	l6.557,1.394c0,0,1.32-1.146,1.895,0.166c0.572,1.312-1.156,1.72-1.156,1.72s2.068,0.739,0.838,1.805
	c-1.229,1.065-2.477,0.08-2.477,0.08l-0.246,0.738c0,0,0.9,1.148-0.574,1.394c-1.477,0.245-1.764-1.558-1.764-1.558L27.91,56.07
	c0,0-1.356-0.984,0.446-2.132c0,0,0.083-7.754,2.952-6.443c0,0-5.232-7.654-5.076-12.818"/>
<path fill="#A2D36A" stroke="#2B5E04" stroke-width="1.0628" stroke-miterlimit="6" d="M14.635,19.89c0,0-2.708,7.749,0.746,14.268
	s8.292,7.035,11.166,6.604c2.874-0.43,8.723-3.793,7.612-14.733C33.049,15.09,27.685,15.31,27.685,15.31S19.381,20.591,14.635,19.89
	z"/>
<g>
	<path fill="#F9D79B" stroke="#D69541" stroke-width="1.0273" stroke-miterlimit="6" d="M46.523,27.412
		c-1.295,8.047-7.055,10.795-15.934,11.924c-8.883,1.129-14.028-4.063-13.946-11.612c0.083-7.551,9.031-11.017,18-11.508
		C41.85,15.823,47.648,20.434,46.523,27.412z"/>
	<path fill="#EFC17F" d="M17.424,27.144c0,0,2.03-1.446,5.454-0.577c3.424,0.869,3.991,1.128,4.907,2.906
		c0.917,1.778,6.159,7.562,13.026,3.426c0,0-0.1-4.128,3.473-4.594c0,0-0.076,4.245-0.787,5.414
		c-4.254,3.965-13.995,7.246-20.758,4.037C16.188,35.441,17.424,27.144,17.424,27.144z"/>
	<path fill="#EFC17F" d="M22.821,23.019l2.529-0.447c0,0-1.324,1.765-1.001,4.531l-3.608,0.617
		C20.741,27.72,20.567,24.678,22.821,23.019z"/>
	<path fill="none" stroke="#D69541" stroke-width="1.0273" stroke-miterlimit="6" d="M24.74,18.422c0,0,10.477-1.686,15.788,5.555"
		/>
	
		<ellipse transform="matrix(0.9999 0.011 -0.011 0.9999 0.1945 -0.3574)" fill="#EFC17F" cx="32.673" cy="17.546" rx="2.047" ry="0.743"/>
	
		<ellipse transform="matrix(0.9999 0.0108 -0.0108 0.9999 0.1946 -0.4008)" fill="#EFC17F" cx="37.107" cy="17.771" rx="2.209" ry="0.579"/>
	
		<ellipse transform="matrix(0.9999 0.0109 -0.0109 0.9999 0.2112 -0.4547)" fill="#EFC17F" cx="41.872" cy="19.168" rx="1.839" ry="0.759"/>
	<path fill="#A07537" stroke="#663704" stroke-width="0.5137" stroke-miterlimit="6" d="M31.313,17.376
		c0.352,0.309,2.374,0.215,3.071-0.566c-0.346-2.888-3.287-14.292-3.287-14.292l-1.807,0.333
		C29.291,2.851,31.603,13.156,31.313,17.376z"/>
	<path fill="#A07537" stroke="#663704" stroke-width="0.5137" stroke-miterlimit="6" d="M36.271,17.594
		c0.26,0.294,2.115,0.566,2.898,0.093c0.242-2.248-0.234-11.391-0.234-11.391l-1.703-0.055
		C37.232,6.241,37.348,14.444,36.271,17.594z"/>
	<path fill="#A07537" stroke="#663704" stroke-width="0.5137" stroke-miterlimit="6" d="M40.793,18.818
		c0.217,0.327,2.018,0.851,2.857,0.488c0.549-2.193,1.326-11.316,1.326-11.316l-1.682-0.287
		C43.295,7.704,42.287,15.845,40.793,18.818z"/>
</g>
<path fill="#A07537" stroke="#663704" stroke-width="0.5" stroke-miterlimit="6" d="M20.343,37.406l-1.329-0.959
	c0,0,4.438-7.247,5.53-9.625c0.604-0.052,2.7,1.46,2.868,1.938C25.627,30.081,20.343,37.406,20.343,37.406z"/>
<g>
	
		<ellipse transform="matrix(-0.8098 -0.5867 0.5867 -0.8098 17.2134 75.1519)" fill="#663704" cx="20.787" cy="34.786" rx="0.498" ry="0.598"/>
	
		<ellipse transform="matrix(-0.8114 -0.5845 0.5845 -0.8114 19.9607 73.221)" fill="#663704" cx="21.793" cy="33.39" rx="0.497" ry="0.596"/>
	
		<ellipse transform="matrix(-0.8112 -0.5848 0.5848 -0.8112 22.582 71.2832)" fill="#663704" cx="22.799" cy="31.996" rx="0.497" ry="0.596"/>
	
		<ellipse transform="matrix(-0.8108 -0.5853 0.5853 -0.8108 25.1979 69.3468)" fill="#663704" cx="23.806" cy="30.601" rx="0.497" ry="0.596"/>
	
		<ellipse transform="matrix(-0.811 -0.585 0.585 -0.811 27.847 67.4095)" fill="#663704" cx="24.812" cy="29.207" rx="0.497" ry="0.596"/>
</g>
<path fill="#A2D36A" stroke="#2B5E04" stroke-miterlimit="6" d="M15.411,20.825c0,0-5.195,1.181-6.288,9.893
	c0,0-0.482,2.162,1.916,2.078c0,0,5.394,1.351,8.485-1.608c0,0,1.286,1.22,2.964,0.18l2.24,0.554c0,0,2.065-1.306,1.227-2.034
	c0,0,0.603,0.132,0.998-0.978c0,0-1.345-0.662-2.729-1.318c-1.384-0.656-3.173,1.031-3.173,1.031s-3.943-0.766-6.78,0.241
	c0,0,1.509-1.985,2.279-4.514"/>
<path fill="#A2D36A" stroke="#2B5E04" stroke-width="1.0718" stroke-miterlimit="6" d="M14.931,16.454c0,0-0.799-5.49,1.443-6.275
	c2.241-0.785,3.579,2.555,3.579,2.555s-0.56-3.78,1.423-4.479c1.983-0.697,3.586,2.017,3.991,4.178c0,0,1.324-1.694,3.07-1.135
	c0.74,0.236,1.263,1.408,0.367,2.966c2.133,0.262-1.652,3.086-3,3.791c-2.643,1.382-5.336,2.565-11.529,3.334
	C14.275,21.389,9.431,17.48,14.931,16.454z"/>
<path fill="#A2D36A" stroke="#2B5E04" stroke-miterlimit="6" d="M42.486,34.203c0,0,2.943,0.633,4.449-1.893l0.043-3.964
	c0,0-1.01-0.319-1.375,1.08c0,0-2.352-1.295-2.889,1.378C42.715,30.803,41.436,32.107,42.486,34.203z"/>
<line fill="#A2D36A" stroke="#2B5E04" stroke-width="0.8" stroke-miterlimit="6" x1="15.204" y1="19.207" x2="16.763" y2="16.689"/>
<ellipse transform="matrix(0.9982 -0.0601 0.0601 0.9982 -0.8086 1.0794)" fill="#FFFFFF" stroke="#2B5E04" stroke-width="0.4009" stroke-miterlimit="6" cx="17.547" cy="13.987" rx="1.52" ry="1.921"/>
<path fill="#A2D36A" stroke="#2B5E04" stroke-width="0.4009" stroke-miterlimit="6" d="M18.407,12.446c0,0-0.114,1.964-2.237,2.299
	C16.17,14.745,15.29,11.294,18.407,12.446z"/>
<line fill="#A2D36A" stroke="#2B5E04" stroke-width="0.4009" stroke-miterlimit="6" x1="17.985" y1="14.765" x2="18.391" y2="13.996"/>
<path fill="#FFFFFF" stroke="#2B5E04" stroke-width="0.4093" stroke-miterlimit="6" d="M21.122,12.389
	c0.17,1.048,1.01,1.778,1.873,1.63c0.862-0.146,1.423-1.115,1.25-2.162c-0.171-1.047-1.009-1.776-1.873-1.63
	C21.51,10.374,20.949,11.342,21.122,12.389z"/>
<path fill="#A2D36A" stroke="#2B5E04" stroke-width="0.4093" stroke-miterlimit="6" d="M24.251,12.542
	c0.367,2.209-2.787-1.719-2.787-1.719S23.647,8.901,24.251,12.542z"/>
<line fill="#A2D36A" stroke="#2B5E04" stroke-width="0.4093" stroke-miterlimit="6" x1="22.844" y1="12.892" x2="22.098" y2="12.43"/>
<path fill="#A07537" stroke="#663704" stroke-width="0.5" stroke-miterlimit="6" d="M24.815,23.015
	c-0.138,0.473-0.935,1.478-2.077,0.729c-0.012-1.271-1.877-5.727-1.877-5.727l0.83-0.303C21.691,17.714,23.762,21.922,24.815,23.015
	z"/>
<path fill="#A2D36A" stroke="#2B5E04" stroke-width="0.8" stroke-miterlimit="6" d="M28.496,14.442c0,0-5.468,5.175-12.547,4.12"/>
</svg>
