<?xml version="1.0" encoding="utf-8"?>
<!-- Generator: Adobe Illustrator 15.0.2, SVG Export Plug-In . SVG Version: 6.00 Build 0)  -->
<!DOCTYPE svg PUBLIC "-//W3C//DTD SVG 1.1//EN" "http://www.w3.org/Graphics/SVG/1.1/DTD/svg11.dtd">
<svg version="1.1" id="_x30_5_15_" xmlns="http://www.w3.org/2000/svg" xmlns:xlink="http://www.w3.org/1999/xlink" x="0px" y="0px"
	 width="64px" height="64px" viewBox="0 0 64 64" enable-background="new 0 0 64 64" xml:space="preserve">
<path fill="#A2D36A" stroke="#2B5E04" stroke-width="1.274" stroke-miterlimit="6" d="M31.435,21.56l12.831,1.737l-0.805,1.633
	c0,0-4.039,2.644-13.468,1.375L31.435,21.56z"/>
<path fill="#A2D36A" stroke="#2B5E04" stroke-miterlimit="6" d="M20.814,35.25c0,0-2.238,0.39-2.976,9.078c0,0-0.656,0.738,0,2.377
	c0,0-1.05,4.692-0.512,6.414L9.585,56.89c0,0-1.213-0.49-1.639,0.819c-0.386,1.188,2.025,1.147,2.025,1.147s-1.943,0.41-1.042,1.722
	s2.131,0,2.131,0l0.558,1.229c0,0-1.287,1.229,0.881,1.229s1.844-1.229,1.844-1.229l5.733-7.049c0,0,1.229-0.984,0.738-2.214
	c0,0,2.516-3.382,0.876-6.578c0,0,3.632-3.668,3.55-10.389"/>
<path fill="#A2D36A" stroke="#2B5E04" d="M29.667,33.846c0,0,3.436-0.136,5.977,11.094c0,0,1.23,0.983,0,2.049l-4.092,6.868
	l6.557,1.394c0,0,1.32-1.146,1.895,0.166c0.572,1.312-1.156,1.72-1.156,1.72s2.068,0.739,0.838,1.805
	c-1.229,1.065-2.477,0.08-2.477,0.08l-0.246,0.738c0,0,0.9,1.148-0.574,1.394c-1.477,0.245-1.764-1.558-1.764-1.558L27.91,56.07
	c0,0-1.356-0.984,0.446-2.132c0,0,0.321-8.588,3.19-7.277c0,0-5.471-6.82-5.314-11.984"/>
<path fill="#A2D36A" stroke="#2B5E04" stroke-width="1.0628" stroke-miterlimit="6" d="M14.565,18.757c0,0-2.8,7.715,0.576,14.276
	c3.375,6.56,8.207,7.134,11.086,6.735c2.879-0.396,8.768-3.689,7.787-14.64c-0.979-10.951-6.344-10.796-6.344-10.796
	S19.303,19.515,14.565,18.757z"/>
<path fill="#F9D79B" stroke="#D69541" stroke-miterlimit="6" d="M45.561,26.968c-1.355,7.816-6.992,10.423-15.648,11.419
	c-8.66,0.994-13.607-4.117-13.439-11.463c0.168-7.349,8.918-10.619,17.654-10.992C41.146,15.633,46.736,20.188,45.561,26.968z"/>
<path fill="#EFC17F" d="M17.239,26.368c0,0,1.993-1.384,5.315-0.498c3.323,0.886,3.872,1.144,4.743,2.886s5.906,7.431,12.638,3.486
	c0,0-0.049-4.019,3.434-4.431c0,0-0.123,4.131-0.828,5.26c-4.188,3.809-13.707,6.889-20.252,3.688
	C15.939,34.431,17.239,26.368,17.239,26.368z"/>
<path fill="#EFC17F" d="M22.541,22.416l2.466-0.406c0,0-1.309,1.703-1.027,4.399l-3.519,0.558
	C20.461,26.967,20.327,24.005,22.541,22.416z"/>
<g>
	<path fill="#A07537" stroke="#663704" stroke-width="0.5" stroke-miterlimit="6" d="M20.063,36.339l-1.317-0.973
		c0,0,4.524-7.194,5.645-9.559c0.605-0.044,2.683,1.493,2.845,1.972C25.435,29.079,20.063,36.339,20.063,36.339z"/>
	<g>
		
			<ellipse transform="matrix(-0.8042 -0.5944 0.5944 -0.8042 17.0082 73.0538)" fill="#663704" cx="20.538" cy="33.725" rx="0.497" ry="0.597"/>
		
			<ellipse transform="matrix(-0.8042 -0.5944 0.5944 -0.8042 19.6769 71.1664)" fill="#663704" cx="21.562" cy="32.342" rx="0.497" ry="0.596"/>
		
			<ellipse transform="matrix(-0.8041 -0.5945 0.5945 -0.8041 22.3396 69.2808)" fill="#663704" cx="22.584" cy="30.96" rx="0.497" ry="0.596"/>
		
			<ellipse transform="matrix(-0.8038 -0.595 0.595 -0.8038 24.9848 67.3958)" fill="#663704" cx="23.607" cy="29.577" rx="0.497" ry="0.596"/>
		
			<ellipse transform="matrix(-0.8038 -0.595 0.595 -0.8038 27.6515 65.5108)" fill="#663704" cx="24.63" cy="28.195" rx="0.497" ry="0.596"/>
	</g>
</g>
<path fill="none" stroke="#D69541" stroke-miterlimit="6" d="M24.461,17.964c0,0,10.218-1.52,15.302,5.59"/>
<path fill="#A2D36A" stroke="#2B5E04" stroke-miterlimit="6" d="M14.743,20.004c0,0-4.963,1.937-4.754,10.714
	c0,0-0.157,2.209,2.202,1.771c0,0,5.534,0.538,8.153-2.847c0,0,1.452,1.017,2.957-0.261l2.299,0.217c0,0,1.849-1.597,0.912-2.192
	c0,0,0.615,0.042,0.842-1.115c0,0-1.429-0.456-2.895-0.9c-1.466-0.443-2.986,1.49-2.986,1.49s-4.013-0.174-6.669,1.241
	c0,0,1.198-2.186,1.585-4.801"/>
<path fill="#A2D36A" stroke="#2B5E04" stroke-width="1.0718" stroke-miterlimit="6" d="M14.902,15.325c0,0-0.733-5.5,1.517-6.257
	c2.251-0.758,3.549,2.598,3.549,2.598s-0.515-3.787,1.476-4.461c1.992-0.673,3.562,2.059,3.941,4.226c0,0,1.344-1.678,3.083-1.099
	c0.737,0.246,1.246,1.423,0.331,2.971c2.129,0.288-1.689,3.066-3.044,3.754c-2.659,1.351-5.366,2.501-11.568,3.196
	C14.188,20.252,9.39,16.285,14.902,15.325z"/>
<path fill="#A2D36A" stroke="#2B5E04" stroke-miterlimit="6" d="M41.244,33.379c0,0,2.936,0.667,4.471-1.839l0.09-3.964
	c0,0-1.004-0.331-1.387,1.063c0,0-2.336-1.323-2.904,1.343C41.514,29.982,40.219,31.271,41.244,33.379z"/>
<line fill="#A2D36A" stroke="#2B5E04" stroke-width="0.8" stroke-miterlimit="6" x1="15.142" y1="18.081" x2="16.732" y2="15.583"/>
<g>
	
		<ellipse transform="matrix(0.9988 -0.0482 0.0482 0.9988 -0.6008 0.8606)" fill="#FFFFFF" stroke="#2B5E04" stroke-width="0.4009" stroke-miterlimit="6" cx="17.547" cy="12.889" rx="1.52" ry="1.922"/>
	<path fill="#A2D36A" stroke="#2B5E04" stroke-width="0.4009" stroke-miterlimit="6" d="M18.426,11.359c0,0-0.138,1.962-2.264,2.272
		C16.162,13.631,15.323,10.17,18.426,11.359z"/>
	
		<line fill="#A2D36A" stroke="#2B5E04" stroke-width="0.4009" stroke-miterlimit="6" x1="17.977" y1="13.672" x2="18.391" y2="12.909"/>
</g>
<g>
	<path fill="#FFFFFF" stroke="#2B5E04" stroke-width="0.4093" stroke-miterlimit="6" d="M21.142,11.334
		c0.158,1.05,0.989,1.79,1.853,1.652c0.864-0.135,1.437-1.097,1.277-2.146c-0.158-1.049-0.988-1.789-1.853-1.653
		C21.554,9.324,20.981,10.286,21.142,11.334z"/>
	<path fill="#A2D36A" stroke="#2B5E04" stroke-width="0.4093" stroke-miterlimit="6" d="M24.269,11.524
		c0.34,2.213-2.766-1.752-2.766-1.752S23.708,7.876,24.269,11.524z"/>
	
		<line fill="#A2D36A" stroke="#2B5E04" stroke-width="0.4093" stroke-miterlimit="6" x1="22.857" y1="11.858" x2="22.117" y2="11.387"/>
</g>
<path fill="#A07537" stroke="#663704" stroke-width="0.5" stroke-miterlimit="6" d="M24.707,22.003
	c-0.144,0.471-0.952,1.466-2.086,0.705c0.003-1.271-1.808-5.749-1.808-5.749l0.834-0.293C21.647,16.666,23.668,20.898,24.707,22.003
	z"/>
<path fill="#A2D36A" stroke="#2B5E04" stroke-width="0.8" stroke-miterlimit="6" d="M28.49,13.475c0,0-5.53,5.11-12.595,3.97"/>
<ellipse transform="matrix(0.9997 0.0228 -0.0228 0.9997 0.4003 -0.7289)" fill="#EFC17F" cx="32.195" cy="17.204" rx="1.993" ry="0.723"/>
<ellipse transform="matrix(0.9997 0.0229 -0.0229 0.9997 0.4104 -0.8328)" fill="#EFC17F" cx="36.507" cy="17.474" rx="2.15" ry="0.564"/>
<ellipse transform="matrix(0.9997 0.0229 -0.0229 0.9997 0.4437 -0.9377)" fill="#EFC17F" cx="41.129" cy="18.89" rx="1.79" ry="0.74"/>
<path fill="#A07537" stroke="#663704" stroke-width="0.5" stroke-miterlimit="6" d="M30.873,17.022
	c0.339,0.305,2.309,0.237,2.997-0.515c-0.303-2.815-3.034-13.95-3.034-13.95L29.072,2.86C29.072,2.86,31.203,12.918,30.873,17.022z"
	/>
<path fill="#A07537" stroke="#663704" stroke-width="0.5" stroke-miterlimit="6" d="M35.697,17.292
	c0.248,0.29,2.051,0.575,2.82,0.124c0.26-2.185-0.098-11.09-0.098-11.09l-1.658-0.073C36.762,6.253,36.781,14.239,35.697,17.292z"/>
<path fill="#A07537" stroke="#663704" stroke-width="0.5" stroke-miterlimit="6" d="M40.082,18.537
	c0.207,0.321,1.955,0.851,2.777,0.508c0.559-2.128,1.42-10.999,1.42-10.999l-1.633-0.299C42.646,7.747,41.572,15.66,40.082,18.537z"
	/>
</svg>
