<?xml version="1.0" encoding="utf-8"?>
<!-- Generator: Adobe Illustrator 15.0.2, SVG Export Plug-In . SVG Version: 6.00 Build 0)  -->
<!DOCTYPE svg PUBLIC "-//W3C//DTD SVG 1.1//EN" "http://www.w3.org/Graphics/SVG/1.1/DTD/svg11.dtd">
<svg version="1.1" id="レイヤー_1" xmlns="http://www.w3.org/2000/svg" xmlns:xlink="http://www.w3.org/1999/xlink" x="0px"
	 y="0px" width="64px" height="64px" viewBox="0 0 64 64" enable-background="new 0 0 64 64" xml:space="preserve">
<path d="M21.136,8.496h-1.339h-8.689h-0.888H8.264v5.814c0,0.769,0.637,1.395,1.422,1.395s1.421-0.626,1.421-1.395v-3.02h3.149
	v10.577h-0.705h-1.664c-0.785,0-1.422,0.626-1.422,1.4c0,0.768,0.637,1.394,1.422,1.394h1.664h4.252h1.664
	c0.785,0,1.422-0.626,1.422-1.394c0-0.774-0.637-1.4-1.422-1.4h-1.664h-0.705V11.291h2.697v3.02c0,0.769,0.636,1.395,1.421,1.395
	s1.422-0.626,1.422-1.395V8.496H21.136z"/>
<path d="M38.259,21.736h-0.474v-4.073v-2.763v-3.638h0.474c0.785,0,1.422-0.619,1.422-1.386c0-0.762-0.637-1.381-1.422-1.381h-3.79
	c-0.785,0-1.422,0.62-1.422,1.381c0,0.767,0.637,1.386,1.422,1.386h0.474v3.638H29.14v-3.638h0.591c0.785,0,1.422-0.619,1.422-1.386
	c0-0.762-0.637-1.381-1.422-1.381h-3.79c-0.785,0-1.422,0.62-1.422,1.381c0,0.767,0.637,1.386,1.422,1.386h0.355v3.638v2.763v4.073
	h-0.355c-0.785,0-1.422,0.62-1.422,1.386c0,0.762,0.637,1.381,1.422,1.381h3.79c0.785,0,1.422-0.619,1.422-1.381
	c0-0.767-0.637-1.386-1.422-1.386H29.14v-4.073h5.802v4.073h-0.474c-0.785,0-1.422,0.62-1.422,1.386
	c0,0.762,0.637,1.381,1.422,1.381h3.79c0.785,0,1.422-0.619,1.422-1.381C39.681,22.356,39.044,21.736,38.259,21.736z"/>
<path d="M55.761,24.519c0-0.079-0.637-0.143-1.422-0.143s-1.422,0.064-1.422,0.143v0.169h-5.588h-1.341v-0.42h2.247v0.053
	c0,0.079,0.637,0.143,1.422,0.143s1.422-0.064,1.422-0.143v-0.38c0-0.079-0.637-0.143-1.422-0.143s-1.422,0.064-1.422,0.143v0.042
	h-2.247v-0.375h2.247l0,0h3.849v0.237c0,0.079,0.637,0.143,1.422,0.143s1.422-0.064,1.422-0.143v-0.237l0,0v-0.286h-6.692h-4.796
	h-1.12c-0.785,0-1.422,0.064-1.422,0.143c0,0.079,0.637,0.143,1.422,0.143h0.825v1.081h-0.311c-0.785,0-1.422,0.064-1.422,0.143
	c0,0.079,0.637,0.143,1.422,0.143h4.495l0,0h7.599V24.97h0.833V24.519z"/>
<path d="M21.834,55.256h-0.473v-0.444V54.51v-0.396h0.473c0.785,0,1.422-0.068,1.422-0.151s-0.637-0.15-1.422-0.15h-3.79
	c-0.785,0-1.422,0.067-1.422,0.15s0.637,0.151,1.422,0.151h0.473v0.396h-5.802v-0.396h0.591c0.785,0,1.422-0.068,1.422-0.151
	s-0.637-0.15-1.422-0.15h-3.79c-0.785,0-1.422,0.067-1.422,0.15s0.637,0.151,1.422,0.151h0.355v0.396v0.302v0.444H9.517
	c-0.785,0-1.422,0.067-1.422,0.151c0,0.083,0.637,0.15,1.422,0.15h3.79c0.785,0,1.422-0.067,1.422-0.15
	c0-0.084-0.637-0.151-1.422-0.151h-0.591v-0.444h5.802v0.444h-0.473c-0.785,0-1.422,0.067-1.422,0.151
	c0,0.083,0.637,0.15,1.422,0.15h3.79c0.785,0,1.422-0.067,1.422-0.15C23.256,55.323,22.62,55.256,21.834,55.256z"/>
<path d="M39.087,55.077c0-0.083-0.637-0.151-1.422-0.151s-1.422,0.068-1.422,0.151v0.179h-5.588h-1.34v-0.444h2.247v0.056
	c0,0.083,0.637,0.151,1.422,0.151s1.422-0.068,1.422-0.151v-0.402c0-0.083-0.637-0.151-1.422-0.151s-1.422,0.068-1.422,0.151v0.045
	h-2.247v-0.396h2.247l0,0h3.849v0.25c0,0.084,0.637,0.151,1.422,0.151s1.422-0.067,1.422-0.151v-0.25l0,0v-0.303h-6.692h-4.796
	h-1.12c-0.785,0-1.422,0.068-1.422,0.151s0.637,0.151,1.422,0.151h0.826v1.143h-0.311c-0.785,0-1.422,0.067-1.422,0.151
	c0,0.083,0.637,0.15,1.422,0.15h4.494l0,0h7.599v-0.003h0.833V55.077z"/>
<path d="M54.048,55.069c-0.623,0.197-1.785,0.236-5.104,0.236c-2.704,0-5.24-0.183-5.24-0.64c0-0.353,2.536-0.629,5.24-0.629
	c1.689,0,2.942,0.063,3.796,0.167v0.086c0,0.069,0.477,0.127,1.112,0.142c0.097,0.002,0.197,0.003,0.301,0.003
	c0.779,0,1.412-0.064,1.412-0.145v-0.115v-0.271c0-0.08-0.633-0.145-1.413-0.145c-0.667,0-1.223,0.048-1.371,0.111
	c-1.102-0.07-2.367-0.111-3.714-0.111c-5.017,0-7.713,0.402-7.713,0.899s2.48,0.899,7.713,0.899c4.407,0,5.373-0.082,6.424-0.216
	c0.017-0.012,0.295-0.042,0.333-0.055C56.568,55.04,54.894,54.954,54.048,55.069z"/>
<path d="M2.665,2.839v58.322h58.67V2.839H2.665z M58.26,58.076H5.74V5.924h52.52V58.076z"/>
<path d="M38.442,27.932H25.557c-0.785,0-1.422,0.637-1.422,1.422s0.637,1.422,1.422,1.422h12.885c0.786,0,1.422-0.637,1.422-1.422
	S39.229,27.932,38.442,27.932z"/>
<path d="M38.442,33.225H25.557c-0.785,0-1.422,0.637-1.422,1.422s0.637,1.422,1.422,1.422h12.885c0.786,0,1.422-0.637,1.422-1.422
	S39.229,33.225,38.442,33.225z"/>
<rect x="9.513" y="30.653" width="11.385" height="2.693"/>
<rect x="43.102" y="30.653" width="11.385" height="2.693"/>
</svg>
