<?xml version="1.0" encoding="utf-8"?>
<!-- Generator: Adobe Illustrator 15.0.2, SVG Export Plug-In . SVG Version: 6.00 Build 0)  -->
<!DOCTYPE svg PUBLIC "-//W3C//DTD SVG 1.1//EN" "http://www.w3.org/Graphics/SVG/1.1/DTD/svg11.dtd">
<svg version="1.1" id="レイヤー_1" xmlns="http://www.w3.org/2000/svg" xmlns:xlink="http://www.w3.org/1999/xlink" x="0px"
	 y="0px" width="64px" height="64px" viewBox="0 0 64 64" enable-background="new 0 0 64 64" xml:space="preserve">
<path d="M21.136,8.496h-1.339h-8.689h-0.888H8.264v5.814c0,0.769,0.637,1.395,1.422,1.395s1.421-0.626,1.421-1.395v-3.02h3.149
	v10.577h-0.705h-1.664c-0.785,0-1.422,0.626-1.422,1.4c0,0.768,0.637,1.394,1.422,1.394h1.664h4.252h1.664
	c0.785,0,1.422-0.626,1.422-1.394c0-0.774-0.637-1.4-1.422-1.4h-1.664h-0.705V11.291h2.697v3.02c0,0.769,0.636,1.395,1.421,1.395
	s1.422-0.626,1.422-1.395V8.496H21.136z"/>
<path d="M38.259,22.116h-0.474v-4.19v-2.841v-3.742h0.474c0.785,0,1.422-0.638,1.422-1.426c0-0.784-0.637-1.421-1.422-1.421h-3.79
	c-0.785,0-1.422,0.637-1.422,1.421c0,0.788,0.637,1.426,1.422,1.426h0.474v3.742H29.14v-3.742h0.591
	c0.785,0,1.422-0.638,1.422-1.426c0-0.784-0.637-1.421-1.422-1.421h-3.79c-0.785,0-1.422,0.637-1.422,1.421
	c0,0.788,0.637,1.426,1.422,1.426h0.355v3.742v2.841v4.19h-0.355c-0.785,0-1.422,0.638-1.422,1.426c0,0.784,0.637,1.421,1.422,1.421
	h3.79c0.785,0,1.422-0.637,1.422-1.421c0-0.788-0.637-1.426-1.422-1.426H29.14v-4.19h5.802v4.19h-0.474
	c-0.785,0-1.422,0.638-1.422,1.426c0,0.784,0.637,1.421,1.422,1.421h3.79c0.785,0,1.422-0.637,1.422-1.421
	C39.681,22.753,39.044,22.116,38.259,22.116z"/>
<path d="M55.761,20.215c0-0.769-0.637-1.395-1.422-1.395s-1.422,0.625-1.422,1.395v1.653h-5.588h-1.341v-4.113h2.247v0.516
	c0,0.773,0.637,1.399,1.422,1.399s1.422-0.626,1.422-1.399v-3.722c0-0.773-0.637-1.4-1.422-1.4s-1.422,0.626-1.422,1.4v0.416h-2.247
	v-3.674h2.247l0,0h3.849v2.322c0,0.769,0.637,1.395,1.422,1.395s1.422-0.625,1.422-1.395v-2.322l0,0V8.496h-6.692h-4.796h-1.12
	c-0.785,0-1.422,0.626-1.422,1.4c0,0.769,0.637,1.395,1.422,1.395h0.825v10.577h-0.311c-0.785,0-1.422,0.625-1.422,1.4
	c0,0.769,0.637,1.395,1.422,1.395h4.495l0,0h7.599v-0.033h0.833V20.215z"/>
<path d="M21.834,52.401h-0.473v-4.039V45.62v-3.604h0.473c0.785,0,1.422-0.621,1.422-1.377c0-0.754-0.637-1.367-1.422-1.367h-3.79
	c-0.785,0-1.422,0.613-1.422,1.367c0,0.756,0.637,1.377,1.422,1.377h0.473v3.604h-5.802v-3.604h0.591
	c0.785,0,1.422-0.621,1.422-1.377c0-0.754-0.637-1.367-1.422-1.367h-3.79c-0.785,0-1.422,0.613-1.422,1.367
	c0,0.756,0.637,1.377,1.422,1.377h0.355v3.604v2.742v4.039H9.517c-0.785,0-1.422,0.613-1.422,1.377c0,0.754,0.637,1.367,1.422,1.367
	h3.79c0.785,0,1.422-0.613,1.422-1.367c0-0.764-0.637-1.377-1.422-1.377h-0.591v-4.039h5.802v4.039h-0.473
	c-0.785,0-1.422,0.613-1.422,1.377c0,0.754,0.637,1.367,1.422,1.367h3.79c0.785,0,1.422-0.613,1.422-1.367
	C23.256,53.015,22.62,52.401,21.834,52.401z"/>
<path d="M39.087,50.604c0-0.743-0.637-1.354-1.422-1.354s-1.422,0.611-1.422,1.354v1.598h-5.588h-1.34v-3.975h2.247v0.498
	c0,0.743,0.637,1.355,1.422,1.355s1.422-0.612,1.422-1.355v-3.6c0-0.742-0.637-1.354-1.422-1.354s-1.422,0.612-1.422,1.354v0.402
	h-2.247V41.98h2.247l0,0h3.849v2.237c0,0.751,0.637,1.354,1.422,1.354s1.422-0.603,1.422-1.354V41.98l0,0v-2.709h-6.692h-4.796
	h-1.12c-0.785,0-1.422,0.612-1.422,1.355c0,0.741,0.637,1.354,1.422,1.354h0.826v10.222h-0.311c-0.785,0-1.422,0.604-1.422,1.355
	c0,0.743,0.637,1.346,1.422,1.346h4.494l0,0h7.599v-0.026h0.833V50.604z"/>
<path d="M54.048,55.069c-0.623,0.197-1.785,0.236-5.104,0.236c-2.704,0-5.24-0.183-5.24-0.64c0-0.353,2.536-0.629,5.24-0.629
	c1.689,0,2.942,0.063,3.796,0.167v0.086c0,0.069,0.477,0.127,1.112,0.142c0.097,0.002,0.197,0.003,0.301,0.003
	c0.779,0,1.412-0.064,1.412-0.145v-0.115v-0.271c0-0.08-0.633-0.145-1.413-0.145c-0.667,0-1.223,0.048-1.371,0.111
	c-1.102-0.07-2.367-0.111-3.714-0.111c-5.017,0-7.713,0.402-7.713,0.899s2.48,0.899,7.713,0.899c4.407,0,5.373-0.082,6.424-0.216
	c0.017-0.012,0.295-0.042,0.333-0.055C56.568,55.04,54.894,54.954,54.048,55.069z"/>
<path d="M2.665,2.839v58.322h58.67V2.839H2.665z M58.26,58.076H5.74V5.924h52.52V58.076z"/>
<path d="M38.442,27.932H25.557c-0.785,0-1.422,0.637-1.422,1.422s0.637,1.422,1.422,1.422h12.885c0.786,0,1.422-0.637,1.422-1.422
	S39.229,27.932,38.442,27.932z"/>
<path d="M38.442,33.225H25.557c-0.785,0-1.422,0.637-1.422,1.422s0.637,1.422,1.422,1.422h12.885c0.786,0,1.422-0.637,1.422-1.422
	S39.229,33.225,38.442,33.225z"/>
<rect x="9.513" y="30.653" width="11.385" height="2.693"/>
<rect x="43.102" y="30.653" width="11.385" height="2.693"/>
</svg>
