<?xml version="1.0" encoding="utf-8"?>
<!-- Generator: Adobe Illustrator 15.0.2, SVG Export Plug-In . SVG Version: 6.00 Build 0)  -->
<!DOCTYPE svg PUBLIC "-//W3C//DTD SVG 1.1//EN" "http://www.w3.org/Graphics/SVG/1.1/DTD/svg11.dtd">
<svg version="1.1" xmlns="http://www.w3.org/2000/svg" xmlns:xlink="http://www.w3.org/1999/xlink" x="0px" y="0px" width="64px"
	 height="64px" viewBox="0 0 64 64" enable-background="new 0 0 64 64" xml:space="preserve">
<g id="ground">
	<path fill="#3A271D" d="M64,56.065c-7.835-3.442-17.255-4.54-30.599-5.195C10.943,49.768,0,55.573,0,55.573V64h64V56.065z"/>
</g>
<g id="_x30_1_11_">
	<g>
		<g>
			<path fill="none" stroke="#231815" stroke-width="2.2351" stroke-miterlimit="10" d="M30.486,33.249
				c2.831-1.025,4.887,4.307,3.283,7.604C32.47,43.524,26.977,34.518,30.486,33.249z"/>
			<path fill="#93604C" d="M30.486,33.249c2.831-1.025,4.887,4.307,3.283,7.604C32.47,43.524,26.977,34.518,30.486,33.249z"/>
		</g>
		<path fill="#60392D" d="M29.549,34.09c0,0,2.678,5.962,3.852,7.027C33.401,41.117,30.395,42.271,29.549,34.09z"/>
	</g>
</g>
</svg>
