<?xml version="1.0" encoding="utf-8"?>
<!-- Generator: Adobe Illustrator 15.0.2, SVG Export Plug-In . SVG Version: 6.00 Build 0)  -->
<!DOCTYPE svg PUBLIC "-//W3C//DTD SVG 1.1//EN" "http://www.w3.org/Graphics/SVG/1.1/DTD/svg11.dtd">
<svg version="1.1" xmlns="http://www.w3.org/2000/svg" xmlns:xlink="http://www.w3.org/1999/xlink" x="0px" y="0px" width="64px"
	 height="64px" viewBox="0 0 64 64" enable-background="new 0 0 64 64" xml:space="preserve">
<g id="_x31_2">
	<g>
		<path fill="none" stroke="#7FC426" stroke-width="2.5046" stroke-miterlimit="10" d="M29.854,38.114c0,0,6.978-3.361,7.623,4.016
			c0.336,3.839-2.111,5.798-4.451,9.918"/>
		<path fill="#7FC426" d="M22.905,43.576c0,0,1.934-9.657,8.955-6.669C31.86,36.907,33.389,44.613,22.905,43.576z"/>
	</g>
	<path fill="#3A271D" d="M38.706,51.45c-0.381-0.136-1.71-1.06-2.131-1.123c-1.176,0.767-2.524,0.78-5.249-0.242
		c-1.273,0.328-2.459,1.234-2.459,1.234c-1.147,0.076-4.26,0.814-4.26,0.814l16.393,1.433C41.001,53.566,40.092,51.942,38.706,51.45
		z"/>
	<path fill="#3A271D" d="M23.358,45.058l-0.944,1.269c0,0,1.083,0.593,1.353,0.282C24.038,46.298,24.301,45.424,23.358,45.058z"/>
	<path fill="#3A271D" d="M25.604,48.015l-0.316,2.163l1.038-0.693l-0.086-1.141C26.24,48.344,26.67,47.698,25.604,48.015z"/>
	<path fill="#3A271D" d="M17.625,41.266l-2.564,0.608c0,0-1.119-0.955-0.489-1.136C15.202,40.557,16.948,40.452,17.625,41.266z"/>
</g>
<g id="ground">
	<path fill="#3A271D" d="M64,56.065c-7.835-3.442-17.255-4.54-30.599-5.195C10.943,49.768,0,55.573,0,55.573V64h64V56.065z"/>
</g>
</svg>
