<?xml version="1.0" encoding="utf-8"?>
<!-- Generator: Adobe Illustrator 15.0.2, SVG Export Plug-In . SVG Version: 6.00 Build 0)  -->
<!DOCTYPE svg PUBLIC "-//W3C//DTD SVG 1.1//EN" "http://www.w3.org/Graphics/SVG/1.1/DTD/svg11.dtd">
<svg version="1.1" xmlns="http://www.w3.org/2000/svg" xmlns:xlink="http://www.w3.org/1999/xlink" x="0px" y="0px" width="64px"
	 height="64px" viewBox="0 0 64 64" enable-background="new 0 0 64 64" xml:space="preserve">
<g id="_x31_3_1_">
	<g>
		<path fill="none" stroke="#7FC426" stroke-width="2.5046" stroke-miterlimit="10" d="M35.018,33.605c0,0,1.495,6.542,1.126,10.066
			c-0.486,4.647-2.093,7.059-3.118,8.376"/>
		<path fill="#7FC426" d="M29.874,24.953c0,0,9.357,4.238,5.808,10.909C35.682,35.861,27.95,35.695,29.874,24.953z"/>
	</g>
	<path fill="#3A271D" d="M38.706,51.45c-0.381-0.136-1.71-1.06-2.131-1.123c-1.176,0.767-2.524,0.78-5.249-0.242
		c-1.273,0.328-2.459,1.234-2.459,1.234c-1.147,0.076-4.26,0.814-4.26,0.814l16.393,1.433C41.001,53.566,40.092,51.942,38.706,51.45
		z"/>
	<path fill="#3A271D" d="M16.718,49.685l-0.944,1.269c0,0,1.083,0.593,1.353,0.282C17.398,50.925,17.661,50.051,16.718,49.685z"/>
	<path fill="#3A271D" d="M7.297,49.076l-2.564,0.608c0,0-1.119-0.955-0.489-1.136C4.874,48.367,6.62,48.263,7.297,49.076z"/>
</g>
<g id="ground">
	<path fill="#3A271D" d="M64,56.065c-7.835-3.442-17.255-4.54-30.599-5.195C10.943,49.768,0,55.573,0,55.573V64h64V56.065z"/>
</g>
</svg>
