<?xml version="1.0" encoding="utf-8"?>
<!-- Generator: Adobe Illustrator 15.0.2, SVG Export Plug-In . SVG Version: 6.00 Build 0)  -->
<!DOCTYPE svg PUBLIC "-//W3C//DTD SVG 1.1//EN" "http://www.w3.org/Graphics/SVG/1.1/DTD/svg11.dtd">
<svg version="1.1" xmlns="http://www.w3.org/2000/svg" xmlns:xlink="http://www.w3.org/1999/xlink" x="0px" y="0px" width="64px"
	 height="64px" viewBox="0 0 64 64" enable-background="new 0 0 64 64" xml:space="preserve">
<g id="ground">
	<path fill="#3A271D" d="M64,56.065c-7.835-3.442-17.255-4.54-30.599-5.195C10.943,49.768,0,55.573,0,55.573V64h64V56.065z"/>
</g>
<g id="_x30_2_11_">
	<g>
		<g>
			<path fill="none" stroke="#231815" stroke-width="2.2351" stroke-miterlimit="10" d="M32.363,41.832
				c2.984-0.392,3.846,5.257,1.57,8.132C32.092,52.294,28.664,42.316,32.363,41.832z"/>
			<path fill="#93604C" d="M32.363,41.832c2.984-0.392,3.846,5.257,1.57,8.132C32.092,52.294,28.664,42.316,32.363,41.832z"/>
		</g>
		<path fill="#60392D" d="M31.268,42.452c0,0,1.333,6.398,2.251,7.691C33.519,50.144,30.334,50.624,31.268,42.452z"/>
	</g>
</g>
</svg>
