<?xml version="1.0" encoding="utf-8"?>
<!-- Generator: Adobe Illustrator 15.0.2, SVG Export Plug-In . SVG Version: 6.00 Build 0)  -->
<!DOCTYPE svg PUBLIC "-//W3C//DTD SVG 1.1//EN" "http://www.w3.org/Graphics/SVG/1.1/DTD/svg11.dtd">
<svg version="1.1" xmlns="http://www.w3.org/2000/svg" xmlns:xlink="http://www.w3.org/1999/xlink" x="0px" y="0px" width="64px"
	 height="64px" viewBox="0 0 64 64" enable-background="new 0 0 64 64" xml:space="preserve">
<g id="_x30_4_10_">
	<path fill="#3A271D" d="M39.314,50.602c-0.203,0-0.851-0.235-1.037-0.178c-0.977-0.622-2.554-1.49-4.227-1.49
		c-1.523,0-1.596,0.324-2.737,0.858c-0.203-0.431-1.349-0.039-2.114-0.221c-1.805-0.206-6.887,1.74-6.887,1.74l3.483,0.408
		c0.509,0.354,1.32,0.585,2.241,0.585c0.47,0,0.905-0.065,1.294-0.17l0.004,0.001c-0.019,0.094-0.055,0.186-0.055,0.282
		c0,1.517,2.385,2.746,5.328,2.746c1.209,0,2.312-0.216,3.206-0.565c0.388,0.409,0.916,0.664,1.501,0.664
		c1.188,0,2.151-1.044,2.151-2.331C41.466,51.646,40.502,50.602,39.314,50.602z"/>
</g>
<g id="ground">
	<path fill="#3A271D" d="M64,56.065c-7.835-3.442-17.255-4.54-30.599-5.195C10.943,49.768,0,55.573,0,55.573V64h64V56.065z"/>
</g>
</svg>
