<?xml version="1.0" encoding="utf-8"?>
<!-- Generator: Adobe Illustrator 15.0.2, SVG Export Plug-In . SVG Version: 6.00 Build 0)  -->
<!DOCTYPE svg PUBLIC "-//W3C//DTD SVG 1.1//EN" "http://www.w3.org/Graphics/SVG/1.1/DTD/svg11.dtd">
<svg version="1.1" xmlns="http://www.w3.org/2000/svg" xmlns:xlink="http://www.w3.org/1999/xlink" x="0px" y="0px" width="64px"
	 height="64px" viewBox="0 0 64 64" enable-background="new 0 0 64 64" xml:space="preserve">
<g id="_x30_9_1_">
	<g>
		
			<line fill="none" stroke="#009DE6" stroke-width="2" stroke-linecap="round" stroke-miterlimit="10" x1="32.438" y1="30.799" x2="43.084" y2="54.703"/>
		
			<line fill="none" stroke="#009DE6" stroke-width="3" stroke-linecap="round" stroke-miterlimit="10" x1="49.28" y1="14.603" x2="65.579" y2="49.397"/>
		
			<line fill="none" stroke="#009DE6" stroke-width="3" stroke-linecap="round" stroke-miterlimit="10" x1="3.435" y1="30.799" x2="14.082" y2="54.703"/>
		
			<line fill="none" stroke="#009DE6" stroke-width="2" stroke-linecap="round" stroke-miterlimit="10" x1="50.205" y1="44.311" x2="60.852" y2="68.214"/>
		
			<line fill="none" stroke="#009DE6" stroke-width="2" stroke-linecap="round" stroke-miterlimit="10" x1="18.973" y1="46.239" x2="29.619" y2="70.143"/>
	</g>
	<path fill="#3A271D" d="M37.761,49.396c-0.381-0.147-0.818-0.243-1.239-0.312c-0.686-1.021-1.983-2.282-2.815-2.282
		c-0.475,0-0.839,0.178-1.112,0.438c-0.337-0.062-0.705-0.057-1.101,0.054c-1.273,0.356-2.705,2.132-2.705,2.132
		c-1.147,0.082-4.18,2.049-4.18,2.049l16.393,1.558C41.001,53.032,39.146,49.932,37.761,49.396z"/>
</g>
<g id="ground">
	<path fill="#3A271D" d="M64,56.065c-7.835-3.442-17.255-4.54-30.599-5.195C10.943,49.768,0,55.573,0,55.573V64h64V56.065z"/>
</g>
</svg>
