<?xml version="1.0" encoding="utf-8"?>
<!-- Generator: Adobe Illustrator 15.0.2, SVG Export Plug-In . SVG Version: 6.00 Build 0)  -->
<!DOCTYPE svg PUBLIC "-//W3C//DTD SVG 1.1//EN" "http://www.w3.org/Graphics/SVG/1.1/DTD/svg11.dtd">
<svg version="1.1" id="_x30_1_17_" xmlns="http://www.w3.org/2000/svg" xmlns:xlink="http://www.w3.org/1999/xlink" x="0px" y="0px"
	 width="64px" height="64px" viewBox="0 0 64 64" enable-background="new 0 0 64 64" xml:space="preserve">
<g>
	<path fill="#A2D36A" stroke="#2B5E04" stroke-width="1.274" stroke-miterlimit="6" d="M31.022,21.324l12.866,1.444l-0.766,1.651
		c0,0-3.979,2.735-13.434,1.682L31.022,21.324z"/>
	<path fill="#A2D36A" stroke="#2B5E04" stroke-miterlimit="6" d="M20.814,35.25c0,0-2.459-0.491-3.197,8.197
		c0,0-0.656,0.738,0,2.377c0,0-0.829,5.573-0.292,7.295L9.585,56.89c0,0-1.213-0.49-1.639,0.819
		c-0.386,1.188,2.025,1.147,2.025,1.147s-1.943,0.41-1.042,1.722s2.131,0,2.131,0l0.558,1.229c0,0-1.287,1.229,0.881,1.229
		s1.844-1.229,1.844-1.229l5.733-7.049c0,0,1.229-0.984,0.738-2.214c0,0,2.295-4.263,0.656-7.459c0,0,3.853-2.787,3.771-9.508"/>
	<path fill="#A2D36A" stroke="#2B5E04" d="M29.667,33.846c0,0,3.688-0.645,6.229,10.585c0,0,1.23,0.983,0,2.049l-4.344,7.377
		l6.557,1.394c0,0,1.32-1.146,1.895,0.166c0.572,1.312-1.156,1.72-1.156,1.72s2.068,0.739,0.838,1.805
		c-1.229,1.065-2.477,0.08-2.477,0.08l-0.246,0.738c0,0,0.9,1.148-0.574,1.394c-1.477,0.245-1.764-1.558-1.764-1.558L27.91,56.07
		c0,0-1.356-0.984,0.446-2.132c0,0,0.573-9.097,3.442-7.786c0,0-5.723-6.312-5.566-11.476"/>
	<path fill="#A2D36A" stroke="#2B5E04" stroke-width="1.0628" stroke-miterlimit="6" d="M14.093,18.907
		c0,0-2.623,7.777,0.902,14.259s8.368,6.944,11.237,6.481c2.869-0.462,8.68-3.889,7.452-14.814
		c-1.23-10.926-6.59-10.648-6.59-10.648S18.847,19.556,14.093,18.907z"/>
	<path fill="#F9D79B" stroke="#D69541" stroke-miterlimit="6" d="M45.268,26.408c-1.176,7.846-6.752,10.581-15.383,11.774
		c-8.634,1.193-13.698-3.805-13.698-11.153c0-7.351,8.674-10.819,17.399-11.392C40.596,15.176,46.289,19.603,45.268,26.408z"/>
	<path fill="#EFC17F" d="M16.941,26.455c0,0,1.96-1.429,5.302-0.62s3.896,1.056,4.808,2.777s6.074,7.295,12.715,3.197
		c0,0-0.141-4.017,3.332-4.508c0,0-0.029,4.133-0.709,5.277c-4.1,3.903-13.545,7.2-20.163,4.149
		C15.825,34.545,16.941,26.455,16.941,26.455z"/>
	<path fill="#EFC17F" d="M22.151,22.383l2.457-0.462c0,0-1.27,1.732-0.927,4.421l-3.505,0.639
		C20.175,26.98,19.974,24.022,22.151,22.383z"/>
	<g>
		<path fill="#A07537" stroke="#663704" stroke-width="0.5" stroke-miterlimit="6" d="M19.992,36.359l-1.339-0.943
			c0,0,4.359-7.295,5.425-9.685c0.604-0.059,2.716,1.431,2.889,1.906C25.196,28.978,19.992,36.359,19.992,36.359z"/>
		<g>
			
				<ellipse transform="matrix(-0.8166 -0.5771 0.5771 -0.8166 17.603 73.0612)" fill="#663704" cx="20.407" cy="33.734" rx="0.497" ry="0.597"/>
			
				<ellipse transform="matrix(-0.8175 -0.5759 0.5759 -0.8175 20.2731 71.0809)" fill="#663704" cx="21.399" cy="32.328" rx="0.497" ry="0.596"/>
			
				<ellipse transform="matrix(-0.8175 -0.5759 0.5759 -0.8175 22.8831 69.0974)" fill="#663704" cx="22.389" cy="30.923" rx="0.497" ry="0.596"/>
			
				<ellipse transform="matrix(-0.8172 -0.5764 0.5764 -0.8172 25.4727 67.1154)" fill="#663704" cx="23.381" cy="29.518" rx="0.497" ry="0.596"/>
			
				<ellipse transform="matrix(-0.8172 -0.5764 0.5764 -0.8172 28.083 65.1328)" fill="#663704" cx="24.371" cy="28.113" rx="0.497" ry="0.596"/>
		</g>
	</g>
	<path fill="none" stroke="#D69541" stroke-miterlimit="6" d="M23.969,17.888c0,0,10.181-1.752,15.427,5.239"/>
	<path fill="#A2D36A" stroke="#2B5E04" stroke-miterlimit="6" d="M14.3,20.149c0,0-4.917,2.049-4.508,10.82
		c0,0-0.106,2.212,2.242,1.721c0,0,5.545,0.412,8.086-3.032c0,0,1.475,0.983,2.951-0.328l2.303,0.164c0,0,1.812-1.639,0.861-2.213
		c0,0,0.616,0.028,0.816-1.134c0,0-1.439-0.423-2.915-0.833s-2.951,1.557-2.951,1.557s-4.016-0.082-6.639,1.394
		c0,0,1.148-2.213,1.476-4.836"/>
	<path fill="#A2D36A" stroke="#2B5E04" stroke-width="1.0718" stroke-miterlimit="6" d="M14.352,15.468c0,0-0.859-5.481,1.374-6.291
		s3.607,2.516,3.607,2.516S18.732,7.919,20.707,7.2c1.976-0.718,3.607,1.978,4.037,4.135c0,0,1.306-1.708,3.058-1.169
		c0.743,0.229,1.278,1.394,0.399,2.962c2.136,0.239-1.619,3.104-2.958,3.823c-2.627,1.411-5.308,2.624-11.492,3.459
		C13.75,20.41,8.863,16.554,14.352,15.468z"/>
	<path fill="#A2D36A" stroke="#2B5E04" stroke-miterlimit="6" d="M41.1,32.916c0,0,2.949,0.6,4.428-1.941V27.01
		c0,0-1.012-0.308-1.363,1.095c0,0-2.365-1.27-2.873,1.409C41.291,29.514,40.025,30.832,41.1,32.916z"/>
	
		<line fill="#A2D36A" stroke="#2B5E04" stroke-width="0.8" stroke-miterlimit="6" x1="14.655" y1="18.218" x2="16.187" y2="15.684"/>
	<g>
		
			<ellipse transform="matrix(0.9975 -0.071 0.071 0.9975 -0.8783 1.2355)" fill="#FFFFFF" stroke="#2B5E04" stroke-width="0.4009" stroke-miterlimit="6" cx="16.941" cy="12.973" rx="1.52" ry="1.921"/>
		<path fill="#A2D36A" stroke="#2B5E04" stroke-width="0.4009" stroke-miterlimit="6" d="M17.785,11.422
			c0,0-0.093,1.965-2.212,2.323C15.573,13.746,14.655,10.305,17.785,11.422z"/>
		
			<line fill="#A2D36A" stroke="#2B5E04" stroke-width="0.4009" stroke-miterlimit="6" x1="17.388" y1="13.746" x2="17.785" y2="12.973"/>
	</g>
	<g>
		<path fill="#FFFFFF" stroke="#2B5E04" stroke-width="0.4093" stroke-miterlimit="6" d="M20.499,11.336
			c0.182,1.046,1.029,1.767,1.89,1.61c0.861-0.155,1.411-1.13,1.227-2.175c-0.182-1.045-1.029-1.766-1.89-1.61
			C20.865,9.317,20.314,10.291,20.499,11.336z"/>
		<path fill="#A2D36A" stroke="#2B5E04" stroke-width="0.4093" stroke-miterlimit="6" d="M23.629,11.454
			c0.391,2.205-2.805-1.688-2.805-1.688S22.985,7.82,23.629,11.454z"/>
		
			<line fill="#A2D36A" stroke="#2B5E04" stroke-width="0.4093" stroke-miterlimit="6" x1="22.226" y1="11.82" x2="21.475" y2="11.366"/>
	</g>
	<path fill="#A07537" stroke="#663704" stroke-width="0.5" stroke-miterlimit="6" d="M24.307,21.921
		c-0.133,0.474-0.918,1.487-2.069,0.752c-0.026-1.271-1.939-5.706-1.939-5.706l0.827-0.312
		C21.125,16.655,23.243,20.839,24.307,21.921z"/>
	<path fill="#A2D36A" stroke="#2B5E04" stroke-width="0.8" stroke-miterlimit="6" d="M27.894,13.308c0,0-5.412,5.235-12.501,4.257"
		/>
	<ellipse fill="#EFC17F" cx="31.683" cy="16.952" rx="1.993" ry="0.723"/>
	<ellipse fill="#EFC17F" cx="36.001" cy="17.123" rx="2.149" ry="0.563"/>
	<ellipse fill="#EFC17F" cx="40.653" cy="18.433" rx="1.79" ry="0.74"/>
	<path fill="#A07537" stroke="#663704" stroke-width="0.5" stroke-miterlimit="6" d="M30.357,16.8
		c0.346,0.297,2.313,0.185,2.984-0.583C32.973,13.409,29.989,2.34,29.989,2.34l-1.756,0.343C28.233,2.683,30.594,12.689,30.357,16.8
		z"/>
	<path fill="#A07537" stroke="#663704" stroke-width="0.5" stroke-miterlimit="6" d="M35.186,16.96
		c0.256,0.284,2.064,0.528,2.822,0.06c0.211-2.19-0.35-11.085-0.35-11.085L36,5.899C36,5.899,36.199,13.883,35.186,16.96z"/>
	<path fill="#A07537" stroke="#663704" stroke-width="0.5" stroke-miterlimit="6" d="M39.6,18.104
		c0.215,0.316,1.973,0.806,2.787,0.445c0.51-2.141,1.17-11.029,1.17-11.029l-1.641-0.262C41.916,7.258,41.023,15.194,39.6,18.104z"
		/>
</g>
</svg>
