<?xml version="1.0" encoding="utf-8"?>
<!-- Generator: Adobe Illustrator 15.0.2, SVG Export Plug-In . SVG Version: 6.00 Build 0)  -->
<!DOCTYPE svg PUBLIC "-//W3C//DTD SVG 1.1//EN" "http://www.w3.org/Graphics/SVG/1.1/DTD/svg11.dtd">
<svg version="1.1" id="レイヤー_1" xmlns="http://www.w3.org/2000/svg" xmlns:xlink="http://www.w3.org/1999/xlink" x="0px"
	 y="0px" width="64px" height="64px" viewBox="0 0 64 64" enable-background="new 0 0 64 64" xml:space="preserve">
<g>
	<polygon fill="#7A5B25" points="58.557,24.477 55.904,21.011 58.557,27.072 61.02,21.011 	"/>
	<polygon fill="#3F2F14" points="58.895,28.693 56.242,25.226 58.895,31.287 61.357,25.226 	"/>
	<polygon fill="#96835E" points="7.329,13.496 4.677,10.03 7.329,16.09 9.792,10.03 	"/>
	<polygon fill="#7A5B25" points="7.809,25 5.156,21.534 7.809,27.595 10.271,21.534 	"/>
	<polygon fill="#3F2F14" points="8.147,29.216 5.495,25.749 8.147,31.81 10.61,25.749 	"/>
	<linearGradient id="SVGID_1_" gradientUnits="userSpaceOnUse" x1="-1.7744" y1="27.2529" x2="16.8927" y2="27.2529">
		<stop  offset="0" style="stop-color:#6BBD42"/>
		<stop  offset="0.0424" style="stop-color:#277F00"/>
		<stop  offset="0.1091" style="stop-color:#6BBD42"/>
		<stop  offset="0.1697" style="stop-color:#277F00"/>
		<stop  offset="0.2848" style="stop-color:#6BBD42"/>
		<stop  offset="0.3394" style="stop-color:#277F00"/>
		<stop  offset="0.4061" style="stop-color:#6BBD42"/>
		<stop  offset="0.4909" style="stop-color:#277F00"/>
		<stop  offset="0.5818" style="stop-color:#6BBD42"/>
		<stop  offset="0.7212" style="stop-color:#277F00"/>
		<stop  offset="0.8485" style="stop-color:#6BBD42"/>
		<stop  offset="0.9455" style="stop-color:#277F00"/>
		<stop  offset="1" style="stop-color:#6BBD42"/>
	</linearGradient>
	<path fill="url(#SVGID_1_)" stroke="#231815" stroke-width="1.0334" stroke-miterlimit="10" d="M26.692,37.512l-9.837-9.837V13.591
		c0-2.658-2.154-4.813-4.813-4.813S7.23,10.933,7.23,13.591V31.49l12.655,12.829c1.88,1.879,4.927,1.879,6.807,0
		C28.572,42.438,28.572,39.393,26.692,37.512z"/>
	<linearGradient id="SVGID_2_" gradientUnits="userSpaceOnUse" x1="44.2256" y1="28.7793" x2="59.4776" y2="28.7793">
		<stop  offset="0" style="stop-color:#6BBD42"/>
		<stop  offset="0.0424" style="stop-color:#277F00"/>
		<stop  offset="0.1091" style="stop-color:#6BBD42"/>
		<stop  offset="0.1697" style="stop-color:#277F00"/>
		<stop  offset="0.2848" style="stop-color:#6BBD42"/>
		<stop  offset="0.3394" style="stop-color:#277F00"/>
		<stop  offset="0.4061" style="stop-color:#6BBD42"/>
		<stop  offset="0.4909" style="stop-color:#277F00"/>
		<stop  offset="0.5818" style="stop-color:#6BBD42"/>
		<stop  offset="0.7212" style="stop-color:#277F00"/>
		<stop  offset="0.8485" style="stop-color:#6BBD42"/>
		<stop  offset="0.9455" style="stop-color:#277F00"/>
		<stop  offset="1" style="stop-color:#6BBD42"/>
	</linearGradient>
	<path fill="url(#SVGID_2_)" stroke="#231815" stroke-width="1.0334" stroke-miterlimit="10" d="M39.728,32.256l9.837-4.811v-5.546
		c0-2.658,2.154-4.813,4.813-4.813s4.813,2.154,4.813,4.813v9.362l-12.656,7.801c-1.879,1.879-4.926,1.879-6.806,0
		C37.848,37.182,37.848,34.137,39.728,32.256z"/>
	<linearGradient id="SVGID_3_" gradientUnits="userSpaceOnUse" x1="20.1416" y1="32" x2="43.4769" y2="32">
		<stop  offset="0" style="stop-color:#6BBD42"/>
		<stop  offset="0.0424" style="stop-color:#277F00"/>
		<stop  offset="0.1091" style="stop-color:#6BBD42"/>
		<stop  offset="0.1697" style="stop-color:#277F00"/>
		<stop  offset="0.2303" style="stop-color:#6BBD42"/>
		<stop  offset="0.297" style="stop-color:#277F00"/>
		<stop  offset="0.4061" style="stop-color:#6BBD42"/>
		<stop  offset="0.503" style="stop-color:#277F00"/>
		<stop  offset="0.6667" style="stop-color:#6BBD42"/>
		<stop  offset="0.7758" style="stop-color:#277F00"/>
		<stop  offset="0.8909" style="stop-color:#6BBD42"/>
		<stop  offset="0.9455" style="stop-color:#277F00"/>
		<stop  offset="1" style="stop-color:#6BBD42"/>
	</linearGradient>
	<path fill="url(#SVGID_3_)" stroke="#231815" stroke-width="1.0334" stroke-miterlimit="10" d="M31.892,2.82
		c-6.83,0-12.366,5.536-12.366,12.366V61.18h24.732V15.187C44.258,8.356,38.722,2.82,31.892,2.82z"/>
	<linearGradient id="SVGID_4_" gradientUnits="userSpaceOnUse" x1="2.6416" y1="25" x2="2.6416" y2="25">
		<stop  offset="0" style="stop-color:#C2FF7F"/>
		<stop  offset="1" style="stop-color:#277F00"/>
	</linearGradient>
	<path fill="url(#SVGID_4_)" stroke="#231815" stroke-width="1.0334" stroke-miterlimit="10" d="M2.642,25"/>
	<polygon fill="#96835E" points="40.97,10.466 38.317,7 40.97,13.06 43.433,7 	"/>
	<polygon fill="#96835E" points="24.974,6.794 22.321,3.329 24.974,9.389 27.437,3.329 	"/>
	<polygon fill="#96835E" points="28.196,14.178 25.544,10.712 28.196,16.772 30.66,10.712 	"/>
	<polygon fill="#96835E" points="21.387,15.906 18.734,12.44 21.387,18.501 23.85,12.44 	"/>
	<polygon fill="#96835E" points="26.502,24.102 23.85,20.636 26.502,26.696 28.966,20.636 	"/>
	<polygon fill="#96835E" points="36.771,21.97 34.118,18.504 36.771,24.564 39.233,18.504 	"/>
	<polygon fill="#7A5B25" points="40.97,29.615 38.317,26.149 40.97,32.209 43.433,26.149 	"/>
	<polygon fill="#7A5B25" points="23.944,31.755 21.292,28.289 23.944,34.35 26.407,28.289 	"/>
	<polygon fill="#7A5B25" points="29.06,38.965 26.407,35.498 29.06,41.559 31.523,35.498 	"/>
	<polygon fill="#7A5B25" points="37.554,42.559 34.901,39.093 37.554,45.153 40.017,39.093 	"/>
	<polygon fill="#3F2F14" points="42.669,49.768 40.017,46.303 42.669,52.363 45.132,46.303 	"/>
	<polygon fill="#3F2F14" points="21.746,49.77 19.094,46.303 21.746,52.363 24.209,46.303 	"/>
	<polygon fill="#3F2F14" points="26.861,56.979 24.209,53.513 26.861,59.573 29.324,53.513 	"/>
	<polygon fill="#3F2F14" points="32.438,49.769 29.786,46.303 32.438,52.363 34.901,46.303 	"/>
	<polygon fill="#3F2F14" points="37.554,56.979 34.901,53.512 37.554,59.572 40.017,53.512 	"/>
	<polygon fill="#96835E" points="14.201,20.238 11.549,16.772 14.201,22.833 16.665,16.772 	"/>
	<polygon fill="#7A5B25" points="15.203,32.646 12.551,29.179 15.203,35.239 17.666,29.179 	"/>
	<polygon fill="#96835E" points="55.998,27.688 53.346,24.223 55.998,30.283 58.461,24.223 	"/>
	<polygon fill="#96835E" points="51.95,21.072 49.298,17.606 51.95,23.667 54.414,17.606 	"/>
	<polygon fill="#7A5B25" points="49.954,34.145 47.302,30.678 49.954,36.738 52.417,30.678 	"/>
</g>
</svg>
