<?xml version="1.0" encoding="iso-8859-1"?>
<!-- Generator: Adobe Illustrator 15.0.2, SVG Export Plug-In . SVG Version: 6.00 Build 0)  -->
<!DOCTYPE svg PUBLIC "-//W3C//DTD SVG 1.1//EN" "http://www.w3.org/Graphics/SVG/1.1/DTD/svg11.dtd">
<svg version="1.1" id="&#x30EC;&#x30A4;&#x30E4;&#x30FC;_1"
	 xmlns="http://www.w3.org/2000/svg" xmlns:xlink="http://www.w3.org/1999/xlink" x="0px" y="0px" width="64px" height="64px"
	 viewBox="0 0 64 64" style="enable-background:new 0 0 64 64;" xml:space="preserve">
<g>
	<path style="fill:none;stroke:#036EB7;stroke-width:2;stroke-miterlimit:10;" d="M53.76,15.096c0,0,7.359-0.127,7.609,3.19
		c0.25,3.317-5.393,9.817-4.196,12.192c1.197,2.375,5.821,6.256,5.821,6.256"/>
	<g>
		<path style="fill:#6EBAFF;" d="M17.937,10.156c0,0-5.091,0.613-6.103,6.683c0,0-2.205,5.047-1.549,15.175
			c0.656,10.128-6.769,8.769-6.769,8.769l-0.563-1.236L1.35,40.559c0,0-1.745,9.613,2.615,9.894
			c1.735-0.097,0.787-1.574,0.787-1.574s4.84-1.698,7.082-4.11c2.242-2.41,5.508-7.129,5.508-9.939v3.904
			c0,0,4.787-0.681,6.632-3.342l2.823,0.674c0,0,0.579,7.641,2.741,9.217v6.408l-2.741,2.883c0,0-2.316,1.326,0,1.326
			s9.768,0,9.768,0s1.408-3.021,0-4.209v-6.408c0,0,3.319,2.016,8.881,0.395L48.029,50v3.295l-2.584,1.275c0,0-2.159,1.326,0,1.326
			c2.158,0,10.381,0,10.381,0s1.25-1.002,0-3.084l-0.25-7.195l1.625-2.787c0,0,7.008-18.752-1.371-28.802
			c-8.379-10.05-23.762-4.271-23.762-4.271S22.923,8.833,17.937,10.156z"/>
		<path style="fill:none;stroke:#1D2087;stroke-width:2;stroke-miterlimit:10;" d="M17.937,10.156c0,0-5.091,0.613-6.103,6.683
			c0,0-2.205,5.047-1.549,15.175c0.656,10.128-6.769,8.769-6.769,8.769l-0.563-1.236L1.35,40.559c0,0-1.745,9.613,2.615,9.894
			c1.735-0.097,0.787-1.574,0.787-1.574s4.84-1.698,7.082-4.11c2.242-2.41,5.508-7.129,5.508-9.939v3.904
			c0,0,4.787-0.681,6.632-3.342l2.823,0.674c0,0,0.579,7.641,2.741,9.217v6.408l-2.741,2.883c0,0-2.316,1.326,0,1.326
			s9.768,0,9.768,0s1.408-3.021,0-4.209v-6.408c0,0,3.319,2.016,8.881,0.395L48.029,50v3.295l-2.584,1.275c0,0-2.159,1.326,0,1.326
			c2.158,0,10.381,0,10.381,0s1.25-1.002,0-3.084l-0.25-7.195l1.625-2.787c0,0,7.008-18.752-1.371-28.802
			c-8.379-10.05-23.762-4.271-23.762-4.271S22.923,8.833,17.937,10.156z"/>
		<path style="fill:none;stroke:#036EB7;stroke-width:2;stroke-miterlimit:10;" d="M17.937,10.156c0,0-5.091,0.613-6.103,6.683
			c0,0-2.205,5.047-1.549,15.175c0.656,10.128-6.769,8.769-6.769,8.769l-0.563-1.236L1.35,40.559c0,0-1.745,9.613,2.615,9.894
			c1.735-0.097,0.787-1.574,0.787-1.574s4.84-1.698,7.082-4.11c2.242-2.41,5.508-7.129,5.508-9.939v3.904
			c0,0,4.787-0.681,6.632-3.342l2.823,0.674c0,0,0.579,7.641,2.741,9.217v6.408l-2.741,2.883c0,0-2.316,1.326,0,1.326
			s9.768,0,9.768,0s1.408-3.021,0-4.209v-6.408c0,0,3.319,2.016,8.881,0.395L48.029,50v3.295l-2.584,1.275c0,0-2.159,1.326,0,1.326
			c2.158,0,10.381,0,10.381,0s1.25-1.002,0-3.084l-0.25-7.195l1.625-2.787c0,0,7.008-18.752-1.371-28.802
			c-8.379-10.05-23.762-4.271-23.762-4.271S22.923,8.833,17.937,10.156z"/>
	</g>
	<circle style="fill:#FF97BD;" cx="26.369" cy="23.684" r="3.625"/>
	<path id="XMLID_2_" style="fill:none;stroke:#036EB7;stroke-width:2;stroke-miterlimit:10;" d="M32.068,16.165
		c0,0,6.883-0.564,10.133,0S49.247,27.722,43.451,32c-5.797,4.277-21.005,15.736-17.878-6.955"/>
	<path style="fill:#6EBAFF;stroke:#036EB7;stroke-width:2;stroke-miterlimit:10;" d="M22.744,28.854c0,0-1.875,4.501-5.401,4.187
		v1.785"/>
	<line style="fill:none;stroke:#0A3E5B;stroke-miterlimit:10;" x1="22.136" y1="16.748" x2="26.539" y2="16.115"/>
	<line style="fill:none;stroke:#0A3E5B;stroke-miterlimit:10;" x1="22.431" y1="17.028" x2="25.466" y2="18.153"/>
	<line style="fill:none;stroke:#0A3E5B;stroke-miterlimit:10;" x1="22.351" y1="17.847" x2="24.807" y2="19.441"/>
	<path style="fill:none;stroke:#B6E0FF;stroke-miterlimit:10;" d="M2.494,41.605c0,0,3.625,1.375,5.75-0.75s3.375-4.75,3.375-7.5
		c0-2.751,0.736-11.583,0.736-11.583s0.25-2.713,1.375-4.106s-1.976-3.823,5.139-5.937c5.469-1.625,8.861-0.082,8.861-0.082"/>
	<path style="fill:#3695D6;" d="M35.434,43.23c0,0,4.521,3.901,11.026,1.008L35.434,43.23z"/>
	<polygon style="fill:#3695D6;" points="54.744,52.605 53.76,46.23 54.744,45.291 	"/>
	<polyline style="fill:#3695D6;" points="35.809,43.23 33.994,46.23 35.809,52.605 36.244,43.23 	"/>
	<path style="fill:#3695D6;" d="M26.369,33.105c0,0,1.875,8.375,16.75-2.626C43.119,30.479,26.869,44.98,26.369,33.105z"/>
</g>
<path style="fill:#FFFFFF;stroke:#333333;stroke-miterlimit:10;" d="M20.419,32.955l-3.78-0.795c0,0-2.185,9.086-7.667,8.959
	c0,0,2.945,2.717,4.695,2.217S17.502,43.789,20.419,32.955z"/>
</svg>
