<?xml version="1.0" encoding="utf-8"?>
<!-- Generator: Adobe Illustrator 15.0.2, SVG Export Plug-In . SVG Version: 6.00 Build 0)  -->
<!DOCTYPE svg PUBLIC "-//W3C//DTD SVG 1.1//EN" "http://www.w3.org/Graphics/SVG/1.1/DTD/svg11.dtd">
<svg version="1.1" id="レイヤー_1" xmlns="http://www.w3.org/2000/svg" xmlns:xlink="http://www.w3.org/1999/xlink" x="0px"
	 y="0px" width="64px" height="64px" viewBox="0 0 64 64" enable-background="new 0 0 64 64" xml:space="preserve">
<g>
	<g>
		<linearGradient id="SVGID_1_" gradientUnits="userSpaceOnUse" x1="24.2383" y1="5.229" x2="35.3971" y2="45.3871">
			<stop  offset="0" style="stop-color:#FFFFFF"/>
			<stop  offset="1" style="stop-color:#D4C4B8"/>
		</linearGradient>
		<path fill="url(#SVGID_1_)" d="M52.236,45.189c2.19-0.206,4.084-0.736,4.207-1.178s0.283-1.841,0.355-3.109
			s-0.343-1.844-0.922-1.279c-0.579,0.565-1.851,0.184-2.825-0.849s-0.222-2.79,1.675-3.906l0.012-0.008
			c1.896-1.116,3.462-2.565,3.479-3.221s0.032-2.077,0.032-3.159c0-1.082-0.649-1.305-1.442-0.496s-2.613,1.069-4.045,0.578
			c-1.432-0.491-1.793-2.071-0.803-3.509s1.874-3.479,1.964-4.533c0.09-1.055,0.09-2.591,0-3.413
			c-0.09-0.823-0.663-0.735-1.272,0.195s-2.607,1.922-4.44,2.204s-3.275-1.287-3.205-3.486l0.084-2.649
			c0.07-2.199-1.321-2.929-3.091-1.622l-2.133,1.574c-1.77,1.307-4.003,0.756-4.964-1.223l-1.156-2.385
			c-0.96-1.979-2.532-1.979-3.492,0L29.098,12.1c-0.96,1.979-3.194,2.53-4.964,1.224l-2.133-1.575
			c-1.77-1.307-3.161-0.576-3.091,1.623l0.084,2.649c0.07,2.199-1.429,3.759-3.331,3.467c-1.902-0.292-3.919-1.192-4.484-1.999
			s-1.021-0.877-1.015-0.156c0.007,0.722,0.06,1.995,0.119,2.83c0.059,0.835,0.883,2.866,1.832,4.513s0.687,3.351-0.583,3.787
			c-1.27,0.436-3.077,0.287-4.016-0.332s-1.708-0.354-1.708,0.586s0,2.164,0,2.717s1.513,1.981,3.361,3.175l0.189,0.121
			c1.849,1.193,2.733,2.834,1.965,3.647s-1.958,1.263-2.643,0.999c-0.686-0.264-1.274,0.182-1.306,0.988
			c-0.032,0.808-0.029,2.396,0.008,3.529c0.037,1.133,1.865,1.983,4.063,1.89l0.574-0.023c2.198-0.094,3.73,0.778,3.406,1.938
			c-0.325,1.159-0.806,1.907-1.067,1.662s-0.412,0.289-0.333,1.187c0.079,0.897,0.31,2.372,0.513,3.278
			c0.203,0.905,2.004,0.893,4.002-0.028l0.802-0.369c1.998-0.921,4.008,0.087,4.466,2.238l0.553,2.592
			c0.458,2.151,1.984,2.527,3.39,0.835l1.693-2.037c1.406-1.692,3.707-1.692,5.113-0.001l1.693,2.039
			c1.406,1.691,2.932,1.315,3.39-0.836l0.553-2.592c0.458-2.151,2.448-3.118,4.423-2.147l0.883,0.434
			c1.975,0.971,3.771,1.019,3.992,0.105c0.222-0.912,0.419-2.566,0.438-3.678c0.02-1.11-0.112-1.58-0.293-1.045
			c-0.18,0.535-0.625-0.088-0.988-1.386c-0.364-1.298,1.13-2.528,3.32-2.734L52.236,45.189z"/>
		<path fill="none" stroke="#724455" stroke-width="0.5" stroke-miterlimit="10" d="M52.236,45.189
			c2.19-0.206,4.084-0.736,4.207-1.178s0.283-1.841,0.355-3.109s-0.343-1.844-0.922-1.279c-0.579,0.565-1.851,0.184-2.825-0.849
			s-0.222-2.79,1.675-3.906l0.012-0.008c1.896-1.116,3.462-2.565,3.479-3.221s0.032-2.077,0.032-3.159
			c0-1.082-0.649-1.305-1.442-0.496s-2.613,1.069-4.045,0.578c-1.432-0.491-1.793-2.071-0.803-3.509s1.874-3.479,1.964-4.533
			c0.09-1.055,0.09-2.591,0-3.413c-0.09-0.823-0.663-0.735-1.272,0.195s-2.607,1.922-4.44,2.204s-3.275-1.287-3.205-3.486
			l0.084-2.649c0.07-2.199-1.321-2.929-3.091-1.622l-2.133,1.574c-1.77,1.307-4.003,0.756-4.964-1.223l-1.156-2.385
			c-0.96-1.979-2.532-1.979-3.492,0L29.098,12.1c-0.96,1.979-3.194,2.53-4.964,1.224l-2.133-1.575
			c-1.77-1.307-3.161-0.576-3.091,1.623l0.084,2.649c0.07,2.199-1.429,3.759-3.331,3.467c-1.902-0.292-3.919-1.192-4.484-1.999
			s-1.021-0.877-1.015-0.156c0.007,0.722,0.06,1.995,0.119,2.83c0.059,0.835,0.883,2.866,1.832,4.513s0.687,3.351-0.583,3.787
			c-1.27,0.436-3.077,0.287-4.016-0.332s-1.708-0.354-1.708,0.586s0,2.164,0,2.717s1.513,1.981,3.361,3.175l0.189,0.121
			c1.849,1.193,2.733,2.834,1.965,3.647s-1.958,1.263-2.643,0.999c-0.686-0.264-1.274,0.182-1.306,0.988
			c-0.032,0.808-0.029,2.396,0.008,3.529c0.037,1.133,1.865,1.983,4.063,1.89l0.574-0.023c2.198-0.094,3.73,0.778,3.406,1.938
			c-0.325,1.159-0.806,1.907-1.067,1.662s-0.412,0.289-0.333,1.187c0.079,0.897,0.31,2.372,0.513,3.278
			c0.203,0.905,2.004,0.893,4.002-0.028l0.802-0.369c1.998-0.921,4.008,0.087,4.466,2.238l0.553,2.592
			c0.458,2.151,1.984,2.527,3.39,0.835l1.693-2.037c1.406-1.692,3.707-1.692,5.113-0.001l1.693,2.039
			c1.406,1.691,2.932,1.315,3.39-0.836l0.553-2.592c0.458-2.151,2.448-3.118,4.423-2.147l0.883,0.434
			c1.975,0.971,3.771,1.019,3.992,0.105c0.222-0.912,0.419-2.566,0.438-3.678c0.02-1.11-0.112-1.58-0.293-1.045
			c-0.18,0.535-0.625-0.088-0.988-1.386c-0.364-1.298,1.13-2.528,3.32-2.734L52.236,45.189z"/>
	</g>
	<g>
		<linearGradient id="SVGID_2_" gradientUnits="userSpaceOnUse" x1="27.5854" y1="14.6245" x2="37.6823" y2="51.1391">
			<stop  offset="0" style="stop-color:#FFFFFF"/>
			<stop  offset="1" style="stop-color:#FFE8DF"/>
		</linearGradient>
		<path fill="url(#SVGID_2_)" d="M30.254,5.43c0.96-1.979,2.531-1.979,3.492,0l1.156,2.385c0.961,1.979,3.194,2.53,4.964,1.224
			l2.133-1.574c1.77-1.307,3.161-0.576,3.091,1.623l-0.084,2.649c-0.07,2.199,1.652,3.725,3.826,3.39l2.621-0.403
			c2.174-0.334,3.066,0.958,1.983,2.873l-1.307,2.308c-1.083,1.915-0.268,4.065,1.813,4.78l2.506,0.86
			c2.081,0.714,2.271,2.274,0.421,3.465l-2.229,1.437c-1.85,1.191-2.127,3.475-0.616,5.075l1.82,1.928
			c1.511,1.6,0.953,3.068-1.238,3.264l-2.639,0.236c-2.191,0.195-3.498,2.089-2.904,4.207l0.715,2.553
			c0.594,2.118-0.582,3.16-2.613,2.314l-2.447-1.018c-2.031-0.846-4.068,0.224-4.526,2.375l-0.553,2.592
			c-0.458,2.151-1.983,2.527-3.39,0.836l-1.693-2.039c-1.406-1.691-3.707-1.691-5.113,0.001l-1.693,2.037
			c-1.406,1.692-2.931,1.316-3.39-0.835l-0.553-2.592c-0.458-2.151-2.496-3.221-4.526-2.375l-2.448,1.018
			c-2.031,0.846-3.207-0.196-2.613-2.314l0.716-2.553c0.594-2.118-0.713-4.012-2.904-4.207l-2.64-0.236
			c-2.191-0.195-2.749-1.664-1.238-3.264l1.82-1.928c1.51-1.6,1.233-3.883-0.616-5.075L7.13,29.009
			c-1.849-1.191-1.66-2.751,0.421-3.465l2.507-0.86c2.081-0.714,2.896-2.865,1.813-4.78l-1.306-2.308
			c-1.083-1.915-0.191-3.208,1.983-2.873l2.619,0.403c2.174,0.334,3.896-1.191,3.827-3.39L18.91,9.087
			c-0.07-2.199,1.321-2.929,3.091-1.623l2.133,1.574c1.77,1.307,4.004,0.756,4.964-1.224L30.254,5.43z"/>
		<path fill="none" stroke="#724455" stroke-width="0.5" stroke-miterlimit="10" d="M30.254,5.43c0.96-1.979,2.531-1.979,3.492,0
			l1.156,2.385c0.961,1.979,3.194,2.53,4.964,1.224l2.133-1.574c1.77-1.307,3.161-0.576,3.091,1.623l-0.084,2.649
			c-0.07,2.199,1.652,3.725,3.826,3.39l2.621-0.403c2.174-0.334,3.066,0.958,1.983,2.873l-1.307,2.308
			c-1.083,1.915-0.268,4.065,1.813,4.78l2.506,0.86c2.081,0.714,2.271,2.274,0.421,3.465l-2.229,1.437
			c-1.85,1.191-2.127,3.475-0.616,5.075l1.82,1.928c1.511,1.6,0.953,3.068-1.238,3.264l-2.639,0.236
			c-2.191,0.195-3.498,2.089-2.904,4.207l0.715,2.553c0.594,2.118-0.582,3.16-2.613,2.314l-2.447-1.018
			c-2.031-0.846-4.068,0.224-4.526,2.375l-0.553,2.592c-0.458,2.151-1.983,2.527-3.39,0.836l-1.693-2.039
			c-1.406-1.691-3.707-1.691-5.113,0.001l-1.693,2.037c-1.406,1.692-2.931,1.316-3.39-0.835l-0.553-2.592
			c-0.458-2.151-2.496-3.221-4.526-2.375l-2.448,1.018c-2.031,0.846-3.207-0.196-2.613-2.314l0.716-2.553
			c0.594-2.118-0.713-4.012-2.904-4.207l-2.64-0.236c-2.191-0.195-2.749-1.664-1.238-3.264l1.82-1.928
			c1.51-1.6,1.233-3.883-0.616-5.075L7.13,29.009c-1.849-1.191-1.66-2.751,0.421-3.465l2.507-0.86
			c2.081-0.714,2.896-2.865,1.813-4.78l-1.306-2.308c-1.083-1.915-0.191-3.208,1.983-2.873l2.619,0.403
			c2.174,0.334,3.896-1.191,3.827-3.39L18.91,9.087c-0.07-2.199,1.321-2.929,3.091-1.623l2.133,1.574
			c1.77,1.307,4.004,0.756,4.964-1.224L30.254,5.43z"/>
	</g>
	<g>
		<g>
			<path fill="#FC7091" d="M34.211,26.751c-6.963,1.627-11.424,11.15-5.544,16.563c2.141,1.972,6.663,1.936,9.05,0.505
				c3.9-2.338,6.03-6.027,7.204-10.335c2.117-7.77-3.083-17.165-11.526-16.984c-8.765,0.188-13.797,10.96-14.722,18.321
				c-0.331,2.632,3.787,2.624,4.113,0.029c0.565-4.498,2.603-8.546,5.755-11.779c4.792-4.914,10.257-1.484,12.369,3.984
				c1.529,3.961-0.776,9.222-3.561,12.007c-2.79,2.79-7.144,1.657-7.211-2.49c-0.049-3.078,2.436-5.218,5.137-5.849
				C37.86,30.119,36.788,26.149,34.211,26.751L34.211,26.751z"/>
		</g>
	</g>
</g>
</svg>
