<?xml version="1.0" encoding="utf-8"?>
<!-- Generator: Adobe Illustrator 15.0.2, SVG Export Plug-In . SVG Version: 6.00 Build 0)  -->
<!DOCTYPE svg PUBLIC "-//W3C//DTD SVG 1.1//EN" "http://www.w3.org/Graphics/SVG/1.1/DTD/svg11.dtd">
<svg version="1.1" id="レイヤー_1" xmlns="http://www.w3.org/2000/svg" xmlns:xlink="http://www.w3.org/1999/xlink" x="0px"
	 y="0px" width="64px" height="64px" viewBox="0 0 64 64" enable-background="new 0 0 64 64" xml:space="preserve">
<g>
	<g>
		<g>
			<path fill="#FFBA98" d="M27.703,65.084c0,0,1.817-17.244,0.866-26.227l-1.558-3.786c0,0-9.776-2.906-11.421-6.958
				c-1.644-4.051,0.519-5.988,0.519-5.988l3.202-2.906c0,0-2.683-4.931-3.461-7.838c-0.779-2.906,2.855-4.315,3.721-4.667
				c0.865-0.353,4.499-1.938,5.451-1.938c0.952,0,2.682,0.881,2.682,0.881s3.461-2.554,4.586-2.378
				c1.125,0.176,4.412,2.554,5.104,2.466c0.693-0.088,2.251-1.233,3.289-0.616c1.038,0.616,2.161,2.114,3.027,2.202
				s2.424,0.616,3.548,1.585c1.125,0.969,1.21,5.724,1.816,6.781s3.287,6.077-2.682,19.727c0,0-0.173,27.97,0.952,29.661H27.703z"/>
			<path fill="none" stroke="#420707" stroke-width="1.7657" stroke-linejoin="bevel" stroke-miterlimit="11" d="M27.703,65.084
				c0,0,1.817-17.244,0.866-26.227l-1.558-3.786c0,0-9.776-2.906-11.421-6.958c-1.644-4.051,0.519-5.988,0.519-5.988l3.202-2.906
				c0,0-2.683-4.931-3.461-7.838c-0.779-2.906,2.855-4.315,3.721-4.667c0.865-0.353,4.499-1.938,5.451-1.938
				c0.952,0,2.682,0.881,2.682,0.881s3.461-2.554,4.586-2.378c1.125,0.176,4.412,2.554,5.104,2.466
				c0.693-0.088,2.251-1.233,3.289-0.616c1.038,0.616,2.161,2.114,3.027,2.202s2.424,0.616,3.548,1.585
				c1.125,0.969,1.21,5.724,1.816,6.781s3.287,6.077-2.682,19.727c0,0-0.173,27.97,0.952,29.661H27.703z"/>
		</g>
		<defs>
			<filter id="Adobe_OpacityMaskFilter" filterUnits="userSpaceOnUse" x="14.09" y="2.388" width="36.991" height="63.579">
				
					<feColorMatrix  type="matrix" values="-1 0 0 0 1  0 -1 0 0 1  0 0 -1 0 1  0 0 0 1 0" color-interpolation-filters="sRGB" result="source"/>
			</filter>
		</defs>
		<mask maskUnits="userSpaceOnUse" x="14.09" y="2.388" width="36.991" height="63.579" id="SVGID_1_">
			<g filter="url(#Adobe_OpacityMaskFilter)">
				<image overflow="visible" width="42" height="68" xlink:href="4D3414DA.jpg"  transform="matrix(1 0 0 1 12 0)">
				</image>
			</g>
		</mask>
		<g opacity="0.13" mask="url(#SVGID_1_)">
			<path fill="#F72B65" d="M27.703,65.084c0,0,1.817-17.244,0.866-26.227l-1.558-3.786c0,0-9.776-2.906-11.421-6.958
				c-1.644-4.051,0.519-5.988,0.519-5.988l3.202-2.906c0,0-2.683-4.931-3.461-7.838c-0.779-2.906,2.855-4.315,3.721-4.667
				c0.865-0.353,4.499-1.938,5.451-1.938c0.952,0,2.682,0.881,2.682,0.881s3.461-2.554,4.586-2.378
				c1.125,0.176,4.412,2.554,5.104,2.466c0.693-0.088,2.251-1.233,3.289-0.616c1.038,0.616,2.161,2.114,3.027,2.202
				s2.424,0.616,3.548,1.585c1.125,0.969,1.21,5.724,1.816,6.781s3.287,6.077-2.682,19.727c0,0-0.173,27.97,0.952,29.661H27.703z"/>
			<path fill="none" stroke="#F72B65" stroke-width="1.7657" stroke-linejoin="bevel" stroke-miterlimit="11" d="M27.703,65.084
				c0,0,1.817-17.244,0.866-26.227l-1.558-3.786c0,0-9.776-2.906-11.421-6.958c-1.644-4.051,0.519-5.988,0.519-5.988l3.202-2.906
				c0,0-2.683-4.931-3.461-7.838c-0.779-2.906,2.855-4.315,3.721-4.667c0.865-0.353,4.499-1.938,5.451-1.938
				c0.952,0,2.682,0.881,2.682,0.881s3.461-2.554,4.586-2.378c1.125,0.176,4.412,2.554,5.104,2.466
				c0.693-0.088,2.251-1.233,3.289-0.616c1.038,0.616,2.161,2.114,3.027,2.202s2.424,0.616,3.548,1.585
				c1.125,0.969,1.21,5.724,1.816,6.781s3.287,6.077-2.682,19.727c0,0-0.173,27.97,0.952,29.661H27.703z"/>
		</g>
	</g>
	<path fill="#E89874" d="M30.991,8.828l5.148-2.554C36.139,6.273,32.808,5.48,30.991,8.828z"/>
	<path fill="#E89874" d="M38.431,11.381l2.942-1.409l1.817-1.85c0,0-1.212-0.176-3.462,0.705
		C37.479,9.708,38.431,11.381,38.431,11.381z"/>
	<path fill="#E89874" d="M18.629,15.784c0,0,9.165,0.617,11.931,0c0,0,2.811,3.699,5.99,3.259c0,0,1.275,2.025,1.881,2.202
		c0,0,1.473,2.205,5.192,0.662l0.777-4.769l0.953-0.06l0.779,2.042c0,0-0.259,4.15-2.596,6c-2.337,1.849-4.932,2.29-5.711,4.315
		c0,0-5.834-4.139-10.834-3.611l-7.682-6.429L18.629,15.784z"/>
	<path fill="#FFBA98" stroke="#420707" stroke-width="1.7657" stroke-miterlimit="11" d="M25.799,6.714c0,0-4.153,3.169-3.894,4.931
		c0.26,1.762,3.288,6.869,3.894,6.958"/>
	<path fill="#FFBA98" stroke="#420707" stroke-width="1.7657" stroke-miterlimit="11" d="M34.799,7.506c0,0-1.78,1.409-2.943,1.938
		c-1.162,0.529-1.904,2.642-1.731,3.61c0.173,0.969,0.866,5.549,0.866,5.549"/>
	<path fill="none" stroke="#420707" stroke-width="1.7657" stroke-miterlimit="11" d="M32.206,22.247c0,0,2.417,2.587,6.225,0"/>
	<path fill="none" stroke="#420707" stroke-width="1.7657" stroke-miterlimit="11" d="M46.133,14.816c0,0-2.251,3.347-3.289,3.787"
		/>
	<path fill="none" stroke="#E89874" stroke-width="2.1299" stroke-miterlimit="10" d="M43.19,20.188c0,0,4.066-0.969,5.104-1.585"/>
	<path fill="none" stroke="#420707" stroke-width="1.7657" stroke-miterlimit="11" d="M32.206,23.732c0,0,5.965,3.924,5.101,6.971"
		/>
	<path fill="#FFBA98" stroke="#420707" stroke-width="1.7657" stroke-miterlimit="11" d="M40.768,9.444
		c-0.605,0.968-3.807,4.932-4.152,6.429c-0.347,1.497,0.779,7.133,1.298,7.397c0.518,0.264,0.777,1.674,2.509,1.41
		c1.73-0.265,3.374-1.519,3.547-2.433c0.173-0.914-0.432-5.164-0.432-5.164"/>
	<path fill="#E89874" d="M29.087,37.536c0,0,9.085,1.942,14.103,0.531c0,0-5.969,2.111-8.392,2.64c-2.424,0.529-5.711,0-5.711,0
		V37.536z"/>
	<path fill="none" stroke="#420707" stroke-width="1.7657" stroke-miterlimit="11" d="M40.779,24.712
		c-2.355,0.561-3.718,3.258-3.718,3.258"/>
	<path fill="#E89874" d="M41.806,37.536l4.586-2.113l3.202-9.482C49.594,25.941,44.748,34.719,41.806,37.536z"/>
	<path fill="#E89874" d="M41.323,64.661c0,0,3.688-3.609,4.376-12.77c0,0,0.286,11.643,0.978,12.77H41.323z"/>
	<g>
		<path fill="#FFBA98" stroke="#420707" stroke-width="1.7657" stroke-miterlimit="11" d="M27.011,35.071
			c0,0,3.882,3.082,5.575,2.994"/>
		
			<line fill="#FFBA98" stroke="#420707" stroke-width="1.7657" stroke-miterlimit="11" x1="42.411" y1="38.067" x2="46.392" y2="35.423"/>
		<path fill="none" stroke="#420707" stroke-width="1.7657" stroke-linejoin="bevel" stroke-miterlimit="11" d="M27.703,65.084
			c0,0,1.817-17.244,0.866-26.227l-1.558-3.786c0,0-9.776-2.906-11.421-6.958c-1.644-4.051,0.519-5.988,0.519-5.988l3.202-2.906
			c0,0-2.683-4.931-3.461-7.838c-0.779-2.906,2.855-4.315,3.721-4.667c0.865-0.353,4.499-1.938,5.451-1.938
			c0.952,0,2.682,0.881,2.682,0.881s3.461-2.554,4.586-2.378c1.125,0.176,4.412,2.554,5.104,2.466
			c0.693-0.088,2.251-1.233,3.289-0.616c1.038,0.616,2.161,2.114,3.027,2.202s2.424,0.616,3.548,1.585
			c1.125,0.969,1.21,5.724,1.816,6.781s3.287,6.077-2.682,19.727c0,0-0.173,27.97,0.952,29.661H27.703z"/>
	</g>
	<path fill="#FFBA98" d="M23.183,26.73c0,0,1.25-0.202,2.115-0.994c0,0,4.759-1.233,6.403-1.409c1.644-0.175,3.895-2.201,3.635-3.61
		c-0.26-1.409-1.559-3.17-4.067-3.435c-2.509-0.264-5.97-0.264-7.614,0c-1.644,0.264-5.025,2.556-5.025,2.556"/>
	<path fill="#E89874" d="M22.857,25.941c0,0,1.038-0.227,2.163-1.229c0,0,5.53-0.482,7.565-1.315
		c2.035-0.833,2.214-1.711,2.213-2.151c-0.001-0.441-8.653,2.487-8.653,2.487S23.29,25.177,22.857,25.941z"/>
	<polygon fill="#E89874" points="32.946,40.09 35.836,39.239 37.062,53.653 	"/>
	<path fill="none" stroke="#420707" stroke-width="1.7657" stroke-miterlimit="11" d="M23.183,26.73c0,0,1.25-0.202,2.115-0.994
		c0,0,4.759-1.233,6.403-1.409c1.644-0.175,3.895-2.201,3.635-3.61c-0.26-1.409-1.559-3.17-4.067-3.435
		c-2.509-0.264-5.97-0.264-7.614,0c-1.644,0.264-5.41,2.906-5.41,2.906"/>
</g>
</svg>
