<?xml version="1.0" encoding="utf-8"?>
<!-- Generator: Adobe Illustrator 15.0.2, SVG Export Plug-In . SVG Version: 6.00 Build 0)  -->
<!DOCTYPE svg PUBLIC "-//W3C//DTD SVG 1.1//EN" "http://www.w3.org/Graphics/SVG/1.1/DTD/svg11.dtd">
<svg version="1.1" id="レイヤー_1" xmlns="http://www.w3.org/2000/svg" xmlns:xlink="http://www.w3.org/1999/xlink" x="0px"
	 y="0px" width="64px" height="64px" viewBox="0 0 64 64" enable-background="new 0 0 64 64" xml:space="preserve">
<g>
	<g>
		<g>
			<linearGradient id="SVGID_1_" gradientUnits="userSpaceOnUse" x1="32" y1="14.7412" x2="32" y2="52.7972">
				<stop  offset="0" style="stop-color:#89FF3F"/>
				<stop  offset="1" style="stop-color:#1A9F00"/>
			</linearGradient>
			<path fill="url(#SVGID_1_)" d="M59.414,32c-0.663-3.906-2.744-5.222-3.915-6.603c2.01-1.706,3.287-4.223,3.287-7.038
				c0-5.137-4.236-9.3-9.459-9.3c-2.881,0-5.456,1.27-7.19,3.267c-2.579-1.149-5.729-1.772-9.979-1.772
				c-4.311,0-7.445,0.643-9.996,1.823C20.427,10.35,17.83,9.06,14.924,9.06c-5.224,0-9.459,4.163-9.459,9.3
				c0,2.874,1.327,5.441,3.409,7.146C7.692,26.854,6.125,28.33,4.899,32C1.521,42.11,17.103,54.94,32.157,54.94
				C47.211,54.94,61.191,42.468,59.414,32z"/>
			<path fill="none" stroke="#006934" stroke-width="0.9723" stroke-miterlimit="10" d="M59.414,32
				c-0.663-3.906-2.744-5.222-3.915-6.603c2.01-1.706,3.287-4.223,3.287-7.038c0-5.137-4.236-9.3-9.459-9.3
				c-2.881,0-5.456,1.27-7.19,3.267c-2.579-1.149-5.729-1.772-9.979-1.772c-4.311,0-7.445,0.643-9.996,1.823
				C20.427,10.35,17.83,9.06,14.924,9.06c-5.224,0-9.459,4.163-9.459,9.3c0,2.874,1.327,5.441,3.409,7.146
				C7.692,26.854,6.125,28.33,4.899,32C1.521,42.11,17.103,54.94,32.157,54.94C47.211,54.94,61.191,42.468,59.414,32z"/>
		</g>
		<defs>
			<filter id="Adobe_OpacityMaskFilter" filterUnits="userSpaceOnUse" x="3.947" y="8.573" width="56.106" height="46.854">
				
					<feColorMatrix  type="matrix" values="-1 0 0 0 1  0 -1 0 0 1  0 0 -1 0 1  0 0 0 1 0" color-interpolation-filters="sRGB" result="source"/>
			</filter>
		</defs>
		<mask maskUnits="userSpaceOnUse" x="3.947" y="8.573" width="56.106" height="46.854" id="SVGID_2_">
			<g filter="url(#Adobe_OpacityMaskFilter)">
				<image overflow="visible" width="62" height="52" xlink:href="720C86B6.jpg"  transform="matrix(1 0 0 1 1 6)">
				</image>
			</g>
		</mask>
		<g opacity="0.35" mask="url(#SVGID_2_)">
			<path fill="#033301" d="M59.414,32c-0.663-3.906-2.744-5.222-3.915-6.603c2.01-1.706,3.287-4.223,3.287-7.038
				c0-5.137-4.236-9.3-9.459-9.3c-2.881,0-5.456,1.27-7.19,3.267c-2.579-1.149-5.729-1.772-9.979-1.772
				c-4.311,0-7.445,0.643-9.996,1.823C20.427,10.35,17.83,9.06,14.924,9.06c-5.224,0-9.459,4.163-9.459,9.3
				c0,2.874,1.327,5.441,3.409,7.146C7.692,26.854,6.125,28.33,4.899,32C1.521,42.11,17.103,54.94,32.157,54.94
				C47.211,54.94,61.191,42.468,59.414,32z"/>
			<path fill="none" stroke="#033301" stroke-width="0.9723" stroke-miterlimit="10" d="M59.414,32
				c-0.663-3.906-2.744-5.222-3.915-6.603c2.01-1.706,3.287-4.223,3.287-7.038c0-5.137-4.236-9.3-9.459-9.3
				c-2.881,0-5.456,1.27-7.19,3.267c-2.579-1.149-5.729-1.772-9.979-1.772c-4.311,0-7.445,0.643-9.996,1.823
				C20.427,10.35,17.83,9.06,14.924,9.06c-5.224,0-9.459,4.163-9.459,9.3c0,2.874,1.327,5.441,3.409,7.146
				C7.692,26.854,6.125,28.33,4.899,32C1.521,42.11,17.103,54.94,32.157,54.94C47.211,54.94,61.191,42.468,59.414,32z"/>
		</g>
	</g>
	<path fill="#3AA30D" d="M54.876,25.021c0,0-2.25-1.891-3.668-3.013c6.809,0,6.918-3.014,6.918-3.014S58.544,22.146,54.876,25.021z"
		/>
	<g>
		<path fill="#000201" d="M13.364,11.813c-1.965,0-3.651,1.125-4.379,2.73l4.299,1.421L8.76,17.459
			c0.536,1.933,2.391,3.36,4.604,3.36c2.631,0,4.764-2.017,4.764-4.503C18.127,13.829,15.995,11.813,13.364,11.813z"/>
		<path fill="#000201" d="M50.728,11.813c-1.964,0-3.649,1.125-4.379,2.73l4.3,1.421l-4.524,1.495
			c0.536,1.933,2.391,3.36,4.604,3.36c2.632,0,4.764-2.017,4.764-4.503C55.491,13.829,53.359,11.813,50.728,11.813z"/>
	</g>
	<path fill="#B51616" stroke="#840808" stroke-width="0.9723" stroke-miterlimit="1" d="M32.125,42.393
		c-7.751,0-20.207-2.601-25.75-6.929c3.711,7.107,16.798,14.255,25.75,14.255c8.953,0,21.54-7.147,25.25-14.254
		C51.832,39.792,39.877,42.393,32.125,42.393z"/>
	<g>
		<g>
			<ellipse fill="#FF738B" cx="12.535" cy="27.582" rx="4.283" ry="2.559"/>
		</g>
		<g>
			<ellipse fill="#FF738B" cx="51.717" cy="27.582" rx="4.283" ry="2.559"/>
		</g>
	</g>
	<path fill="#ED7272" d="M32.125,49.719c4.479,0,9.867-1.789,14.597-4.467c-3.682-1.031-8.854-1.678-14.597-1.678
		c-5.828,0-11.065,0.666-14.757,1.727C22.203,47.95,27.675,49.719,32.125,49.719z"/>
	<path fill="#2C7A08" d="M26.75,53.736c0,0,24.522-1.213,32.699-18.272C59.449,35.464,52.626,57.636,26.75,53.736z"/>
	<g>
		<path fill="#3AA30D" d="M30.968,35.464c0,0-1.32-2.644-1.723-1.344C28.843,35.421,30.968,35.464,30.968,35.464z"/>
		<path fill="#3AA30D" d="M33.2,35.464c0,0,1.383-2.644,1.804-1.344C35.425,35.421,33.2,35.464,33.2,35.464z"/>
	</g>
	<g>
		<polygon fill="#3AA30D" points="23.443,11.337 28.302,17.292 27.383,10.862 		"/>
		<polygon fill="#3AA30D" points="29.867,10.862 31.899,17.941 34.028,10.862 		"/>
		<polygon fill="#3AA30D" points="37.259,11.099 35.491,17.056 40.809,11.989 		"/>
	</g>
	<g>
		<g>
			<path fill="none" stroke="#006934" stroke-width="0.9723" stroke-miterlimit="10" d="M59.414,32
				c-0.663-3.906-2.744-5.222-3.915-6.603c2.01-1.706,3.287-4.223,3.287-7.038c0-5.137-4.236-9.3-9.459-9.3
				c-2.881,0-5.456,1.27-7.19,3.267c-2.579-1.149-5.729-1.772-9.979-1.772c-4.311,0-7.445,0.643-9.996,1.823
				C20.427,10.35,17.83,9.06,14.924,9.06c-5.224,0-9.459,4.163-9.459,9.3c0,2.874,1.327,5.441,3.409,7.146
				C7.692,26.854,6.125,28.33,4.899,32C1.521,42.11,17.103,54.94,32.157,54.94C47.211,54.94,61.191,42.468,59.414,32z"/>
		</g>
		<defs>
			<filter id="Adobe_OpacityMaskFilter_1_" filterUnits="userSpaceOnUse" x="3.947" y="8.573" width="56.106" height="46.854">
				
					<feColorMatrix  type="matrix" values="-1 0 0 0 1  0 -1 0 0 1  0 0 -1 0 1  0 0 0 1 0" color-interpolation-filters="sRGB" result="source"/>
			</filter>
		</defs>
		<mask maskUnits="userSpaceOnUse" x="3.947" y="8.573" width="56.106" height="46.854" id="SVGID_3_">
			<g filter="url(#Adobe_OpacityMaskFilter_1_)">
				<image overflow="visible" width="62" height="52" xlink:href="720C86BA.jpg"  transform="matrix(1 0 0 1 1 6)">
				</image>
			</g>
		</mask>
		<g opacity="0.35" mask="url(#SVGID_3_)">
			<path fill="none" stroke="#033301" stroke-width="0.9723" stroke-miterlimit="10" d="M59.414,32
				c-0.663-3.906-2.744-5.222-3.915-6.603c2.01-1.706,3.287-4.223,3.287-7.038c0-5.137-4.236-9.3-9.459-9.3
				c-2.881,0-5.456,1.27-7.19,3.267c-2.579-1.149-5.729-1.772-9.979-1.772c-4.311,0-7.445,0.643-9.996,1.823
				C20.427,10.35,17.83,9.06,14.924,9.06c-5.224,0-9.459,4.163-9.459,9.3c0,2.874,1.327,5.441,3.409,7.146
				C7.692,26.854,6.125,28.33,4.899,32C1.521,42.11,17.103,54.94,32.157,54.94C47.211,54.94,61.191,42.468,59.414,32z"/>
		</g>
	</g>
	<path fill="none" stroke="#840808" stroke-width="0.9723" stroke-miterlimit="1" d="M32.125,42.393
		c-7.751,0-20.207-2.601-25.75-6.929c3.711,7.107,16.798,14.255,25.75,14.255c8.953,0,21.54-7.147,25.25-14.254
		C51.832,39.792,39.877,42.393,32.125,42.393z"/>
</g>
</svg>
