<?xml version="1.0" encoding="utf-8"?>
<!-- Generator: Adobe Illustrator 15.0.2, SVG Export Plug-In . SVG Version: 6.00 Build 0)  -->
<!DOCTYPE svg PUBLIC "-//W3C//DTD SVG 1.1//EN" "http://www.w3.org/Graphics/SVG/1.1/DTD/svg11.dtd">
<svg version="1.1" id="レイヤー_1" xmlns="http://www.w3.org/2000/svg" xmlns:xlink="http://www.w3.org/1999/xlink" x="0px"
	 y="0px" width="64px" height="64px" viewBox="0 0 64 64" enable-background="new 0 0 64 64" xml:space="preserve">
<g>
	<g>
		<g>
			<linearGradient id="SVGID_1_" gradientUnits="userSpaceOnUse" x1="9.3735" y1="24.9995" x2="15.2408" y2="36.809">
				<stop  offset="0" style="stop-color:#FFFFFF"/>
				<stop  offset="0.3343" style="stop-color:#FCFCFC"/>
				<stop  offset="0.5353" style="stop-color:#F4F4F4"/>
				<stop  offset="0.7011" style="stop-color:#E6E6E6"/>
				<stop  offset="0.8476" style="stop-color:#D2D2D2"/>
				<stop  offset="0.9803" style="stop-color:#B8B8B8"/>
				<stop  offset="1" style="stop-color:#B3B3B3"/>
			</linearGradient>
			<path fill="url(#SVGID_1_)" d="M16.575,28.016c0,0-5.04,0-4.964-3.083s-3.234-3.829-4.964-1.877
				c-1.73,1.952-1.655,13.311,9.929,15.868V28.016z"/>
			<path fill="none" stroke="#B3D5E8" stroke-width="0.9177" stroke-miterlimit="10" d="M16.575,28.016c0,0-5.04,0-4.964-3.083
				s-3.234-3.829-4.964-1.877c-1.73,1.952-1.655,13.311,9.929,15.868V28.016z"/>
		</g>
		<defs>
			<filter id="Adobe_OpacityMaskFilter" filterUnits="userSpaceOnUse" x="5.371" y="21.519" width="11.663" height="17.975">
				
					<feColorMatrix  type="matrix" values="-1 0 0 0 1  0 -1 0 0 1  0 0 -1 0 1  0 0 0 1 0" color-interpolation-filters="sRGB" result="source"/>
			</filter>
		</defs>
		<mask maskUnits="userSpaceOnUse" x="5.371" y="21.519" width="11.663" height="17.975" id="SVGID_2_">
			<g filter="url(#Adobe_OpacityMaskFilter)">
				<image overflow="visible" width="17" height="23" xlink:href="6DCB3039.jpg"  transform="matrix(1 0 0 1 3 19)">
				</image>
			</g>
		</mask>
		<g opacity="0.75" mask="url(#SVGID_2_)">
			<path fill="#5D6589" d="M16.575,28.016c0,0-5.04,0-4.964-3.083s-3.234-3.829-4.964-1.877c-1.73,1.952-1.655,13.311,9.929,15.868
				V28.016z"/>
			<path fill="none" stroke="#5D6589" stroke-width="0.9177" stroke-miterlimit="10" d="M16.575,28.016c0,0-5.04,0-4.964-3.083
				s-3.234-3.829-4.964-1.877c-1.73,1.952-1.655,13.311,9.929,15.868V28.016z"/>
		</g>
	</g>
	<g>
		<g>
			<linearGradient id="SVGID_3_" gradientUnits="userSpaceOnUse" x1="54.8242" y1="21.1021" x2="48.2806" y2="31.3314">
				<stop  offset="0" style="stop-color:#FFFFFF"/>
				<stop  offset="0.3343" style="stop-color:#FCFCFC"/>
				<stop  offset="0.5353" style="stop-color:#F4F4F4"/>
				<stop  offset="0.7011" style="stop-color:#E6E6E6"/>
				<stop  offset="0.8476" style="stop-color:#D2D2D2"/>
				<stop  offset="0.9803" style="stop-color:#B8B8B8"/>
				<stop  offset="1" style="stop-color:#B3B3B3"/>
			</linearGradient>
			<path fill="url(#SVGID_3_)" d="M47.551,36.761l-1.881-8.499c0,0,5.521-1.972,6.394-7.171c0.602-3.586,2.781-4.288,5.039-3.072
				c2.258,1.216,0.528,5.649-1.446,8.905C51.272,34.15,47.551,36.761,47.551,36.761z"/>
			<path fill="none" stroke="#B3D5E8" stroke-width="0.9177" stroke-miterlimit="10" d="M47.551,36.761l-1.881-8.499
				c0,0,5.521-1.972,6.394-7.171c0.602-3.586,2.781-4.288,5.039-3.072c2.258,1.216,0.528,5.649-1.446,8.905
				C51.272,34.15,47.551,36.761,47.551,36.761z"/>
		</g>
		<defs>
			<filter id="Adobe_OpacityMaskFilter_1_" filterUnits="userSpaceOnUse" x="45.135" y="17.009" width="13.494" height="20.522">
				
					<feColorMatrix  type="matrix" values="-1 0 0 0 1  0 -1 0 0 1  0 0 -1 0 1  0 0 0 1 0" color-interpolation-filters="sRGB" result="source"/>
			</filter>
		</defs>
		<mask maskUnits="userSpaceOnUse" x="45.135" y="17.009" width="13.494" height="20.522" id="SVGID_4_">
			<g filter="url(#Adobe_OpacityMaskFilter_1_)">
				<image overflow="visible" width="18" height="25" xlink:href="6DCB303B.jpg"  transform="matrix(1 0 0 1 43 15)">
				</image>
			</g>
		</mask>
		<g opacity="0.75" mask="url(#SVGID_4_)">
			<path fill="#5D6589" d="M47.551,36.761l-1.881-8.499c0,0,5.521-1.972,6.394-7.171c0.602-3.586,2.781-4.288,5.039-3.072
				c2.258,1.216,0.528,5.649-1.446,8.905C51.272,34.15,47.551,36.761,47.551,36.761z"/>
			<path fill="none" stroke="#5D6589" stroke-width="0.9177" stroke-miterlimit="10" d="M47.551,36.761l-1.881-8.499
				c0,0,5.521-1.972,6.394-7.171c0.602-3.586,2.781-4.288,5.039-3.072c2.258,1.216,0.528,5.649-1.446,8.905
				C51.272,34.15,47.551,36.761,47.551,36.761z"/>
		</g>
	</g>
	<g>
		<g>
			<linearGradient id="SVGID_5_" gradientUnits="userSpaceOnUse" x1="29.7349" y1="28.9863" x2="35.6322" y2="56.695">
				<stop  offset="0" style="stop-color:#FFFFFF"/>
				<stop  offset="0.2759" style="stop-color:#FCFCFC"/>
				<stop  offset="0.4418" style="stop-color:#F4F4F4"/>
				<stop  offset="0.5786" style="stop-color:#E6E6E6"/>
				<stop  offset="0.6996" style="stop-color:#D2D2D2"/>
				<stop  offset="0.8102" style="stop-color:#B7B7B7"/>
				<stop  offset="0.9116" style="stop-color:#979797"/>
				<stop  offset="1" style="stop-color:#757575"/>
			</linearGradient>
			<path fill="url(#SVGID_5_)" d="M15.396,35.301c0.029-11.938,0.068-23.853,8.38-27.699s13.778-3.049,17.333-1.316
				c3.556,1.733,5.255,5.207,5.471,14.375s5.07,20.88,6.886,23.807c2.069,3.337,2.855,4.261,4.097,4.899
				c1.241,0.64,0.61,4.596-2.169,4.541c-2.78-0.056-5.188-0.775-7.745,2.849c-2.557,3.623-3.956,1.926-6.099,0.82
				s-3.081-2.068-5.34-1.176c-2.258,0.892-7.587,4.292-8.696,1.933c-1.109-2.358,2.443-3.354,0.667-4.774
				c-1.776-1.422-9.378,5.187-12.362,4.547s-2.679-3.979-0.274-5.826s-4.386,0.281-5.324-2.914S15.373,44.614,15.396,35.301z"/>
			<path fill="none" stroke="#B3D5E8" stroke-width="0.8668" stroke-miterlimit="10" d="M15.396,35.301
				c0.029-11.938,0.068-23.853,8.38-27.699s13.778-3.049,17.333-1.316c3.556,1.733,5.255,5.207,5.471,14.375
				s5.07,20.88,6.886,23.807c2.069,3.337,2.855,4.261,4.097,4.899c1.241,0.64,0.61,4.596-2.169,4.541
				c-2.78-0.056-5.188-0.775-7.745,2.849c-2.557,3.623-3.956,1.926-6.099,0.82s-3.081-2.068-5.34-1.176
				c-2.258,0.892-7.587,4.292-8.696,1.933c-1.109-2.358,2.443-3.354,0.667-4.774c-1.776-1.422-9.378,5.187-12.362,4.547
				s-2.679-3.979-0.274-5.826s-4.386,0.281-5.324-2.914S15.373,44.614,15.396,35.301z"/>
		</g>
		<defs>
			<filter id="Adobe_OpacityMaskFilter_2_" filterUnits="userSpaceOnUse" x="9.689" y="4.414" width="48.915" height="55.172">
				
					<feColorMatrix  type="matrix" values="-1 0 0 0 1  0 -1 0 0 1  0 0 -1 0 1  0 0 0 1 0" color-interpolation-filters="sRGB" result="source"/>
			</filter>
		</defs>
		<mask maskUnits="userSpaceOnUse" x="9.689" y="4.414" width="48.915" height="55.172" id="SVGID_6_">
			<g filter="url(#Adobe_OpacityMaskFilter_2_)">
				<image overflow="visible" width="54" height="60" xlink:href="6DCB303E.jpg"  transform="matrix(1 0 0 1 7 2)">
				</image>
			</g>
		</mask>
		<g opacity="0.75" mask="url(#SVGID_6_)">
			<path fill="#5D6589" d="M15.396,35.301c0.029-11.938,0.068-23.853,8.38-27.699s13.778-3.049,17.333-1.316
				c3.556,1.733,5.255,5.207,5.471,14.375s5.07,20.88,6.886,23.807c2.069,3.337,2.855,4.261,4.097,4.899
				c1.241,0.64,0.61,4.596-2.169,4.541c-2.78-0.056-5.188-0.775-7.745,2.849c-2.557,3.623-3.956,1.926-6.099,0.82
				s-3.081-2.068-5.34-1.176c-2.258,0.892-7.587,4.292-8.696,1.933c-1.109-2.358,2.443-3.354,0.667-4.774
				c-1.776-1.422-9.378,5.187-12.362,4.547s-2.679-3.979-0.274-5.826s-4.386,0.281-5.324-2.914S15.373,44.614,15.396,35.301z"/>
			<path fill="none" stroke="#5D6589" stroke-width="0.8668" stroke-miterlimit="10" d="M15.396,35.301
				c0.029-11.938,0.068-23.853,8.38-27.699s13.778-3.049,17.333-1.316c3.556,1.733,5.255,5.207,5.471,14.375
				s5.07,20.88,6.886,23.807c2.069,3.337,2.855,4.261,4.097,4.899c1.241,0.64,0.61,4.596-2.169,4.541
				c-2.78-0.056-5.188-0.775-7.745,2.849c-2.557,3.623-3.956,1.926-6.099,0.82s-3.081-2.068-5.34-1.176
				c-2.258,0.892-7.587,4.292-8.696,1.933c-1.109-2.358,2.443-3.354,0.667-4.774c-1.776-1.422-9.378,5.187-12.362,4.547
				s-2.679-3.979-0.274-5.826s-4.386,0.281-5.324-2.914S15.373,44.614,15.396,35.301z"/>
		</g>
	</g>
	<path fill="#032351" d="M26.877,20.982c0,1.878-1.523,3.403-3.404,3.403c-1.878,0-3.402-1.524-3.402-3.403
		c0-1.881,1.688-4.172,3.402-3.404C26.877,19.101,26.877,19.101,26.877,20.982z"/>
	<path fill="#032351" d="M43.165,19.802c0,2.044-1.657,3.702-3.703,3.702c-2.044,0-3.701-1.658-3.701-3.702
		c0-2.045,0.762-2.241,3.701-3.703C41.294,15.188,43.165,17.757,43.165,19.802z"/>
	<circle fill="#FFFFFF" cx="24.901" cy="21.569" r="1.526"/>
	<circle fill="#FFFFFF" cx="37.937" cy="20.453" r="1.526"/>
	<path fill="#032351" d="M32.197,32.602c-6.995,0.718-12.378-5.945-9.125-5.341c5.584,1.036,7.495,2.631,16.606-0.398
		C45.215,25.021,39.426,31.86,32.197,32.602z"/>
</g>
</svg>
