<?xml version="1.0" encoding="utf-8"?>
<!-- Generator: Adobe Illustrator 15.0.2, SVG Export Plug-In . SVG Version: 6.00 Build 0)  -->
<!DOCTYPE svg PUBLIC "-//W3C//DTD SVG 1.1//EN" "http://www.w3.org/Graphics/SVG/1.1/DTD/svg11.dtd">
<svg version="1.1" id="レイヤー_1" xmlns="http://www.w3.org/2000/svg" xmlns:xlink="http://www.w3.org/1999/xlink" x="0px"
	 y="0px" width="64px" height="64px" viewBox="0 0 64 64" enable-background="new 0 0 64 64" xml:space="preserve">
<g>
	<line fill="none" stroke="#D87509" stroke-width="1.0693" stroke-miterlimit="10" x1="26.528" y1="2.76" x2="30.014" y2="5.575"/>
	<polyline fill="none" stroke="#D87509" stroke-width="1.0693" stroke-miterlimit="10" points="33.783,1.78 30.436,5.587 
		29.257,1.156 	"/>
	<g>
		<g>
			<path fill="#F4B340" d="M59.26,15.934c-1.742-0.823-6.38,1.623-13.866,3.874l-2.331-0.804
				C40.985,9.419,36.714,5.575,30.014,5.575c-7.069,0-12.673,5.766-12.8,12.875c-0.047,2.601,0.342,4.714,1.056,6.434l-1.056,0.199
				c0,0-9.513-5.38-11.518-6.633c-2.807,1.267,0.793,12.369,7.882,14.647c0,0-2.939,5.086,1.473,8.159
				c4.413,3.075,8.338,9.892,8.338,9.892h24.546c0,0,6.122-15.361,3.663-19.109C51.599,32.039,58.854,28.512,59.26,15.934z"/>
			<path fill="none" stroke="#D87509" stroke-width="1.0693" stroke-miterlimit="10" d="M59.26,15.934
				c-1.742-0.823-6.38,1.623-13.866,3.874l-2.331-0.804C40.985,9.419,36.714,5.575,30.014,5.575c-7.069,0-12.673,5.766-12.8,12.875
				c-0.047,2.601,0.342,4.714,1.056,6.434l-1.056,0.199c0,0-9.513-5.38-11.518-6.633c-2.807,1.267,0.793,12.369,7.882,14.647
				c0,0-2.939,5.086,1.473,8.159c4.413,3.075,8.338,9.892,8.338,9.892h24.546c0,0,6.122-15.361,3.663-19.109
				C51.599,32.039,58.854,28.512,59.26,15.934z"/>
		</g>
		<defs>
			<filter id="Adobe_OpacityMaskFilter" filterUnits="userSpaceOnUse" x="4.206" y="5.04" width="55.6" height="46.643">
				
					<feColorMatrix  type="matrix" values="-1 0 0 0 1  0 -1 0 0 1  0 0 -1 0 1  0 0 0 1 0" color-interpolation-filters="sRGB" result="source"/>
			</filter>
		</defs>
		<mask maskUnits="userSpaceOnUse" x="4.206" y="5.04" width="55.6" height="46.643" id="SVGID_1_">
			<g filter="url(#Adobe_OpacityMaskFilter)">
				<image overflow="visible" width="60" height="51" xlink:href="38F32E49.jpg"  transform="matrix(1 0 0 1 2 3)">
				</image>
			</g>
		</mask>
		<g opacity="0.48" mask="url(#SVGID_1_)">
			<path fill="#E86207" d="M59.26,15.934c-1.742-0.823-6.38,1.623-13.866,3.874l-2.331-0.804
				C40.985,9.419,36.714,5.575,30.014,5.575c-7.069,0-12.673,5.766-12.8,12.875c-0.047,2.601,0.342,4.714,1.056,6.434l-1.056,0.199
				c0,0-9.513-5.38-11.518-6.633c-2.807,1.267,0.793,12.369,7.882,14.647c0,0-2.939,5.086,1.473,8.159
				c4.413,3.075,8.338,9.892,8.338,9.892h24.546c0,0,6.122-15.361,3.663-19.109C51.599,32.039,58.854,28.512,59.26,15.934z"/>
			<path fill="none" stroke="#E86207" stroke-width="1.0693" stroke-miterlimit="10" d="M59.26,15.934
				c-1.742-0.823-6.38,1.623-13.866,3.874l-2.331-0.804C40.985,9.419,36.714,5.575,30.014,5.575c-7.069,0-12.673,5.766-12.8,12.875
				c-0.047,2.601,0.342,4.714,1.056,6.434l-1.056,0.199c0,0-9.513-5.38-11.518-6.633c-2.807,1.267,0.793,12.369,7.882,14.647
				c0,0-2.939,5.086,1.473,8.159c4.413,3.075,8.338,9.892,8.338,9.892h24.546c0,0,6.122-15.361,3.663-19.109
				C51.599,32.039,58.854,28.512,59.26,15.934z"/>
		</g>
	</g>
	<g>
		<ellipse fill="#FF7687" cx="20.499" cy="17.503" rx="3.113" ry="1.664"/>
		<ellipse fill="#FF7687" cx="39.179" cy="17.503" rx="3.113" ry="1.664"/>
	</g>
	<polygon fill="#ED9429" points="16.612,39.296 19.107,36.623 23.17,43.484 18.662,45.712 	"/>
	<polygon fill="#ED9429" points="29.257,40.099 31.748,38.404 38.219,46.247 34.337,49.276 	"/>
	<polygon fill="#ED9429" points="40.583,37.112 41.487,34.752 47.965,40.722 43.612,43.84 	"/>
	<path fill="#ED9429" d="M10.909,30.831c0,0,1.604,1.96,3.476,1.871c0,0-2.495,4.902-0.356,6.594c0,0,2.084-7.04,3.359-7.04
		L10.909,30.831z"/>
	<path fill="#ED9429" d="M57.218,23.167c0,0-5.102,7.217-8.934,7.664c0,0-5.384,12.12-9.572,14.347l7.841,5.882
		c0,0,7.13-16.575,4.278-18.804C52.7,30.382,56.089,28.514,57.218,23.167z"/>
	<g>
		<g>
			<path fill="#FFFFFF" d="M53.342,33.327l-4.753,9l-8.774-7.5l-3.413,11.571l-7.677-9.643l-7.921,6.32l-4.509-8.249L6.276,41.683
				C9.105,53.84,19.282,62.844,31.405,62.844c13.562,0,24.685-11.267,25.813-25.616L53.342,33.327z"/>
			<path fill="none" stroke="#F7D98F" stroke-width="0.5" stroke-miterlimit="10" d="M53.342,33.327l-4.753,9l-8.774-7.5
				l-3.413,11.571l-7.677-9.643l-7.921,6.32l-4.509-8.249L6.276,41.683C9.105,53.84,19.282,62.844,31.405,62.844
				c13.562,0,24.685-11.267,25.813-25.616L53.342,33.327z"/>
		</g>
		<defs>
			<filter id="Adobe_OpacityMaskFilter_1_" filterUnits="userSpaceOnUse" x="5.994" y="32.91" width="51.481" height="30.184">
				
					<feColorMatrix  type="matrix" values="-1 0 0 0 1  0 -1 0 0 1  0 0 -1 0 1  0 0 0 1 0" color-interpolation-filters="sRGB" result="source"/>
			</filter>
		</defs>
		<mask maskUnits="userSpaceOnUse" x="5.994" y="32.91" width="51.481" height="30.184" id="SVGID_2_">
			<g filter="url(#Adobe_OpacityMaskFilter_1_)">
				<image overflow="visible" width="57" height="36" xlink:href="38F32E4B.jpg"  transform="matrix(1 0 0 1 3 30)">
				</image>
			</g>
		</mask>
		<g opacity="0.16" mask="url(#SVGID_2_)">
			<path fill="#54586D" d="M53.342,33.327l-4.753,9l-8.774-7.5l-3.413,11.571l-7.677-9.643l-7.921,6.32l-4.509-8.249L6.276,41.683
				C9.105,53.84,19.282,62.844,31.405,62.844c13.562,0,24.685-11.267,25.813-25.616L53.342,33.327z"/>
			<path fill="none" stroke="#54586D" stroke-width="0.5" stroke-miterlimit="10" d="M53.342,33.327l-4.753,9l-8.774-7.5
				l-3.413,11.571l-7.677-9.643l-7.921,6.32l-4.509-8.249L6.276,41.683C9.105,53.84,19.282,62.844,31.405,62.844
				c13.562,0,24.685-11.267,25.813-25.616L53.342,33.327z"/>
		</g>
	</g>
	<g>
		<path fill="#EF890F" stroke="#F6B42C" stroke-width="0.4338" stroke-miterlimit="10" d="M24.471,22.846
			c-0.47-1.141,7.15-5.017,8.297-2.289C31.056,25.087,26.325,25.575,24.471,22.846z"/>
		<path fill="#EF890F" stroke="#F6B42C" stroke-width="0.4033" stroke-miterlimit="10" d="M33.053,18.731
			c-2.216-1.887-2.802,2.433-8.696,1.11C22.015,22.69,31.694,23.086,33.053,18.731z"/>
	</g>
	<g>
		<ellipse fill="#2B1601" cx="23.793" cy="13.9" rx="1.557" ry="2.276"/>
		<ellipse fill="#2B1601" cx="35.464" cy="13.9" rx="1.557" ry="2.276"/>
		<ellipse fill="#FFFFFF" cx="23.361" cy="12.588" rx="0.632" ry="0.67"/>
		<ellipse fill="#FFFFFF" cx="35.16" cy="12.588" rx="0.632" ry="0.67"/>
	</g>
	<path fill="#ED9429" d="M33.783,28.29c0,0,6.378,0.119,8.487-5.914C44.379,16.344,37.279,29.433,33.783,28.29z"/>
	<path fill="#EDE9DD" d="M56.939,37.798c0,0-10.907,24.26-38.241,21.449C18.698,59.247,49.282,73.281,56.939,37.798z"/>
</g>
</svg>
