<?xml version="1.0" encoding="utf-8"?>
<!-- Generator: Adobe Illustrator 15.0.2, SVG Export Plug-In . SVG Version: 6.00 Build 0)  -->
<!DOCTYPE svg PUBLIC "-//W3C//DTD SVG 1.1//EN" "http://www.w3.org/Graphics/SVG/1.1/DTD/svg11.dtd">
<svg version="1.1" id="レイヤー_1" xmlns="http://www.w3.org/2000/svg" xmlns:xlink="http://www.w3.org/1999/xlink" x="0px"
	 y="0px" width="64px" height="64px" viewBox="0 0 64 64" enable-background="new 0 0 64 64" xml:space="preserve">
<g>
	<g>
		<g>
			<linearGradient id="SVGID_1_" gradientUnits="userSpaceOnUse" x1="4.0137" y1="36.8867" x2="59.7519" y2="35.7392">
				<stop  offset="0" style="stop-color:#FFC05F"/>
				<stop  offset="0.1074" style="stop-color:#F9AC4D"/>
				<stop  offset="0.4491" style="stop-color:#E67016"/>
				<stop  offset="0.6121" style="stop-color:#DF5800"/>
				<stop  offset="1" style="stop-color:#FF981F"/>
			</linearGradient>
			<path fill="url(#SVGID_1_)" d="M60.152,36.344c0.843,22.113-12.605,25.178-28.157,25.178c-15.55,0-28.894-4.293-28.156-25.178
				c0.906-25.638,12.606-25.181,28.156-25.181C47.547,11.163,59.121,9.273,60.152,36.344z"/>
			<path fill="none" stroke="#560703" stroke-width="2" stroke-miterlimit="10" d="M60.152,36.344
				c0.843,22.113-12.605,25.178-28.157,25.178c-15.55,0-28.894-4.293-28.156-25.178c0.906-25.638,12.606-25.181,28.156-25.181
				C47.547,11.163,59.121,9.273,60.152,36.344z"/>
		</g>
		<defs>
			<filter id="Adobe_OpacityMaskFilter" filterUnits="userSpaceOnUse" x="2.81" y="10.135" width="58.379" height="52.387">
				
					<feColorMatrix  type="matrix" values="-1 0 0 0 1  0 -1 0 0 1  0 0 -1 0 1  0 0 0 1 0" color-interpolation-filters="sRGB" result="source"/>
			</filter>
		</defs>
		<mask maskUnits="userSpaceOnUse" x="2.81" y="10.135" width="58.379" height="52.387" id="SVGID_2_">
			<g filter="url(#Adobe_OpacityMaskFilter)">
				<image overflow="visible" width="64" height="57" xlink:href="CC486F3C.jpg"  transform="matrix(1 0 0 1 0 8)">
				</image>
			</g>
		</mask>
		<g opacity="0.42" mask="url(#SVGID_2_)">
			<path fill="#E02D0A" d="M60.152,36.344c0.843,22.113-12.605,25.178-28.157,25.178c-15.55,0-28.894-4.293-28.156-25.178
				c0.906-25.638,12.606-25.181,28.156-25.181C47.547,11.163,59.121,9.273,60.152,36.344z"/>
			<path fill="none" stroke="#E02D0A" stroke-width="2" stroke-miterlimit="10" d="M60.152,36.344
				c0.843,22.113-12.605,25.178-28.157,25.178c-15.55,0-28.894-4.293-28.156-25.178c0.906-25.638,12.606-25.181,28.156-25.181
				C47.547,11.163,59.121,9.273,60.152,36.344z"/>
		</g>
	</g>
	
		<linearGradient id="SVGID_3_" gradientUnits="userSpaceOnUse" x1="33.9248" y1="30.0176" x2="37.822" y2="31.105" gradientTransform="matrix(-0.7516 0 0 1 83.3387 0)">
		<stop  offset="0" style="stop-color:#FFEA9F"/>
		<stop  offset="0.1396" style="stop-color:#FFE598;stop-opacity:0.8604"/>
		<stop  offset="0.3499" style="stop-color:#FFD883;stop-opacity:0.6501"/>
		<stop  offset="0.605" style="stop-color:#FFC261;stop-opacity:0.395"/>
		<stop  offset="0.8926" style="stop-color:#FFA432;stop-opacity:0.1074"/>
		<stop  offset="1" style="stop-color:#FF981F;stop-opacity:0"/>
	</linearGradient>
	<path fill="url(#SVGID_3_)" d="M50.998,16.193c1.318-4.645,6.296,6.391,7.102,9.488c0.805,3.098,1.609,14.162-0.586,17.971
		c-2.195,3.805-3.297,4.893-3.953,5.135c-3.151,1.152,2.001-13.648,0.977-17.368C53.513,27.7,49.974,19.805,50.998,16.193z"/>
	<g>
		<path fill="#FF9F2C" d="M13.87,55.59c0,0-8.5-13.234-6.297-24.668c1.312-6.809-0.975-7.852,4.381-13.611
			c2.058-2.214,5.328-4.017,5.328-4.017s-4.672,0-8.525,5.718C5.6,23.699,4.905,34.443,4.905,36.328S3.81,50.834,13.771,56.736
			L13.87,55.59z"/>
		<path fill="#FF9F2C" d="M21.946,58.867c0,0-5.901-25.491-3.442-31.147c2.459-5.655,2.794-11.065,5.171-12.459
			c1.095-0.642,6.312-2.979,6.312-2.979l-2.829-0.132c0,0-5.695,1.145-6.962,3.931c-0.577,1.269-5.664,11.263-6.219,14.976
			c-0.555,3.714,1.176,24.179,2.478,25.681L21.946,58.867z"/>
		<path fill="#BA3F09" d="M35.233,13.867c0,0,2.458-1.476,5.573,0s4.755,11.312,4.591,19.017
			c-0.164,7.706-2.447,10.985-5.076,15.329v6.596c0,0,5.485-10.869,6.961-17.135s-2.294-21.839-4.344-23.889
			c-2.05-2.049-5.95-1.885-7.237-1.065L35.233,13.867z"/>
		<path fill="#BA3F09" d="M42.036,12.311c0,0,8.771,4.508,10.943,14.016s-3.349,22.525-3.349,22.525s4.864-5.967,5.274-9.738
			c0.41-3.77,1.148-15.246-1.926-18.36C49.905,17.638,46.544,11.818,42.036,12.311z"/>
	</g>
	<linearGradient id="SVGID_4_" gradientUnits="userSpaceOnUse" x1="7.4619" y1="29.3193" x2="11.3588" y2="30.4067">
		<stop  offset="0" style="stop-color:#FFEA9F"/>
		<stop  offset="0.1396" style="stop-color:#FFE598;stop-opacity:0.8604"/>
		<stop  offset="0.3499" style="stop-color:#FFD883;stop-opacity:0.6501"/>
		<stop  offset="0.605" style="stop-color:#FFC261;stop-opacity:0.395"/>
		<stop  offset="0.8926" style="stop-color:#FFA432;stop-opacity:0.1074"/>
		<stop  offset="1" style="stop-color:#FF981F;stop-opacity:0"/>
	</linearGradient>
	<path fill="url(#SVGID_4_)" d="M16.563,15.494c-1.753-4.645-8.376,6.391-9.447,9.488S4.975,39.145,7.896,42.953
		c2.921,3.805,4.386,4.893,5.259,5.135c4.192,1.152-2.663-13.648-1.299-17.368C13.219,27.001,17.928,19.105,16.563,15.494z"/>
	<linearGradient id="SVGID_5_" gradientUnits="userSpaceOnUse" x1="18.5381" y1="26.7446" x2="26.1399" y2="29.919">
		<stop  offset="0" style="stop-color:#FFEA9F"/>
		<stop  offset="0.1396" style="stop-color:#FFE598;stop-opacity:0.8604"/>
		<stop  offset="0.3499" style="stop-color:#FFD883;stop-opacity:0.6501"/>
		<stop  offset="0.605" style="stop-color:#FFC261;stop-opacity:0.395"/>
		<stop  offset="0.8926" style="stop-color:#FFA432;stop-opacity:0.1074"/>
		<stop  offset="1" style="stop-color:#FF981F;stop-opacity:0"/>
	</linearGradient>
	<path fill="url(#SVGID_5_)" d="M30.857,14.577c-2.347-4.767-9.936,2.385-12.645,9.738c-1.207,3.275-2.867,14.536,1.043,18.446
		c3.91,3.904,5.869,5.021,7.037,5.27c5.613,1.182-3.562-14.01-1.737-17.826C26.379,26.388,32.684,18.284,30.857,14.577z"/>
	<path fill="#BA3F09" d="M33.185,60.426c0,0,20.328,1.885,24.672-12.459c2.333-6.066,1.065-13.602,1.065-13.602
		s-1.065,15.158-3.606,16.389c-2.541,1.229-5.506-13.936-5.506-13.936S52.2,51.08,47.692,49.605c0,0,1.982,6.557-1.591,6.967
		s-5.458-15.9-5.458-15.9s-0.229,17.293-3.558,17.867s-4.394-7.459-4.394-7.459s-1.516,11.313-4.774,7.623
		c0,0-4.078,0.902-3.914-3.113c0,0-3.197,4.836-5.246-0.164c0,0-4.508,1.311-3.115-2.623c0,0-1.885,4.098-3.442,1.557
		c0,0-1.886,0.41-3.443-1.967C8.757,52.393,13.594,61.082,33.185,60.426z"/>
	<path fill="#279309" stroke="#560703" stroke-width="2" stroke-miterlimit="10" d="M38.517,9.979
		c-2.304,1.258-10.73,1.258-13.034,0c2.732-3.513,2.385-7.5,2.385-7.5h7.734C35.602,2.479,35.775,6.659,38.517,9.979z"/>
	<g>
		<polygon fill="#932F03" points="26.426,38.436 31.996,29.788 36.596,38.035 		"/>
		<g>
			<polygon fill="#932F03" points="26.906,28.532 13.177,31.26 17.68,18.006 			"/>
			<polygon fill="#932F03" points="37.086,28.196 50.814,30.922 46.311,17.67 			"/>
		</g>
		<path fill="#932F03" d="M38.757,49.945h3.764v2.584c1.388-0.643,2.683-1.416,3.87-2.291l0.534-2.377l1.762-0.865l1.521-1.998
			c0,0,0.564-0.07,1.214-0.115c1.642-2.615,2.58-5.6,2.591-8.77c-0.804,1.395-2.296,2.672-4.286,3.766v2.035h-2.081v-1.035
			c-0.969,0.406-2.01,0.783-3.123,1.111v5.006H41.08v-4.164c-2.81,0.555-5.89,0.865-9.084,0.865c-1.238,0-2.461-0.047-3.66-0.139
			v2.482h-4.48v-3.037c-1.134-0.195-2.227-0.43-3.273-0.697v2.691H17.7v-3.57c-3.627-1.287-6.397-3.039-7.712-5.049
			c0.054,2.719,0.792,5.291,2.064,7.607l2.556,0.838l0.488,3.242c0.462,0.475,0.948,0.926,1.462,1.355l1.943-0.865l1.841,2.777
			l3.443-0.955c0,0,0.067,1.793,0.071,3.102c1.261,0.428,2.579,0.76,3.943,0.984v-4.52h3.912v4.857c0.095,0,0.189,0.006,0.285,0.006
			c2.361,0,4.631-0.32,6.761-0.906V49.945z"/>
	</g>
	<g>
		<polygon fill="#F9B710" points="27.917,37.674 32.18,31.056 35.701,37.367 		"/>
		<g>
			<polygon fill="#F9B710" points="25.841,28.1 14.936,30.266 18.513,19.737 			"/>
			<polygon fill="#F9B710" points="37.686,27.891 49.154,30.168 45.393,19.097 			"/>
		</g>
		<path fill="#F9B710" d="M38.377,49.598h3.601v2.182c1.33-0.543,2.569-1.197,3.707-1.934l0.511-2.008l1.684-0.73l1.457-1.689
			c0,0,0.541-0.057,1.164-0.096c1.57-2.209,2.47-4.729,2.479-7.404c-0.77,1.178-2.197,2.254-4.104,3.18v1.719h-1.993v-0.875
			c-0.925,0.344-1.922,0.66-2.987,0.939v4.227h-3.297V43.59c-2.688,0.469-5.636,0.73-8.695,0.73c-1.185,0-2.356-0.039-3.503-0.117
			v2.096h-4.289v-2.564c-1.085-0.164-2.132-0.361-3.133-0.59v2.273h-2.76v-3.014c-3.472-1.086-6.124-2.564-7.383-4.262
			c0.053,2.295,0.759,4.467,1.977,6.422l2.447,0.709l0.467,2.738c0.442,0.398,0.908,0.781,1.4,1.145l1.86-0.732l1.763,2.348
			l3.296-0.807c0,0,0.064,1.512,0.067,2.617c1.208,0.361,2.469,0.643,3.775,0.832v-3.816h3.746v4.1c0.091,0,0.181,0.006,0.272,0.006
			c2.261,0,4.433-0.27,6.474-0.766V49.598z"/>
	</g>
	<path fill="#0F4402" d="M27.158,9.427c0,0-0.207,1.503,10.003,0.334c0,0-1.909-3.589-1.909-4.09c0,0,0.254,3.756-0.339,3.005
		c0,0-1.271,0.83-1.356-2.588c0,0-0.525,4.758-1.873,3.089c0,0-1.431-0.501-0.584-1.753c0,0-1.102,2.421-1.949,1.335L27.158,9.427z"
		/>
</g>
</svg>
