<?xml version="1.0" encoding="iso-8859-1"?>
<!-- Generator: Adobe Illustrator 15.0.2, SVG Export Plug-In . SVG Version: 6.00 Build 0)  -->
<!DOCTYPE svg PUBLIC "-//W3C//DTD SVG 1.1//EN" "http://www.w3.org/Graphics/SVG/1.1/DTD/svg11.dtd">
<svg version="1.1" id="&#x30EC;&#x30A4;&#x30E4;&#x30FC;_1"
	 xmlns="http://www.w3.org/2000/svg" xmlns:xlink="http://www.w3.org/1999/xlink" x="0px" y="0px" width="64px" height="64px"
	 viewBox="0 0 64 64" style="enable-background:new 0 0 64 64;" xml:space="preserve">
<g>
	<line style="fill:none;stroke:#190110;stroke-width:3;stroke-miterlimit:10;" x1="16.007" y1="20.647" x2="48.812" y2="37.975"/>
	<polygon style="fill:#8F72B7;stroke:#1C0801;stroke-width:2.1575;stroke-miterlimit:10;" points="9.07,54.989 19.213,50.722 
		20.518,53.896 11.273,58.126 	"/>
	<path style="fill:#967656;stroke:#1C0801;stroke-width:2.0559;stroke-miterlimit:10;" d="M10.739,55.597
		c0,0-2.537-0.584-3.197-3.166l-1.85-1.709L4.333,52.38l2.944,8.092l4.745-2.393L10.739,55.597z"/>
	<path style="fill:#CE5A21;stroke:#1C0801;stroke-width:2;stroke-miterlimit:10;" d="M19.07,45.302
		c-4.25,1.125-6.145,6.936-6.145,6.936s3.77,6.859,6.77,5.859s5.985-4.213,5.985-4.213l11.016-2.078l-7.063-12.209L19.07,45.302z"/>
	<polygon style="fill:#8F72B7;stroke:#1C0801;stroke-width:2.1575;stroke-miterlimit:10;" points="55.183,46.021 44.54,48.813 
		43.696,45.487 53.444,42.604 	"/>
	<path style="fill:#967656;stroke:#1C0801;stroke-width:2.0559;stroke-miterlimit:10;" d="M53.616,45.185
		c0,0,2.43,0.936,2.719,3.586l1.59,1.951l1.742-1.094l-1.934-8.783l-5.037,1.699L53.616,45.185z"/>
	<polygon style="fill:#A53A0A;stroke:#1C0801;stroke-width:1.8151;stroke-miterlimit:10;" points="24.481,27.17 12.597,32.188 
		16.057,37.077 19.991,39.421 26.784,31.184 	"/>
	<path style="fill:#EFAF84;stroke:#1C0801;stroke-width:2;stroke-miterlimit:10;" d="M10.471,33.814c0,0,3.654-3.075,4.654-2.85
		c1,0.225,2.761,3.976,2.761,3.976l-5.011,4.25C12.875,39.19,10.192,36.565,10.471,33.814z"/>
	<g>
		<polygon style="fill:#EFAF84;stroke:#1C0801;stroke-width:1.8205;stroke-miterlimit:10;" points="50.782,9.8 51.396,6.566 
			48.628,3.528 47.055,5.952 44.247,8.237 46.572,12.308 47.106,11.989 48.033,13.26 51.597,12.125 49.435,10.603 		"/>
		<path style="fill:#EFAF84;stroke:#1C0801;stroke-width:2.054;stroke-miterlimit:10;" d="M30.205,19.577l0.354-4.393
			c0,0,9.317-3.975,13.338-6.469l2.585,2.723c0,0-13.133,9.837-14.09,11.798C31.436,25.198,30.205,19.577,30.205,19.577z"/>
		<polygon style="fill:#8F72B7;" points="43.543,10.071 45.061,11.43 42.552,13.082 40.702,11.661 		"/>
	</g>
	<path style="fill:#CE5A21;stroke:#1C0801;stroke-width:2;stroke-miterlimit:10;" d="M30.384,49.546c0,0,2.931,2.385,8.529,4.879
		c5.738-2.074,11.799-6.035,11.799-6.035s-0.086-2-2.211-5.25c-4.125-1.25-7.732-2.295-7.732-2.295s0.107-2.424-3.072-4.146
		C33.94,34.663,15.384,32.423,30.384,49.546z"/>
	<g>
		<path style="fill:#847340;stroke:#1C0801;stroke-miterlimit:10;" d="M23.561,39.892c0,0,1.939,2.654,2.439,3.154l8.751-6.25
			l1.945-0.098c0,0-0.182-2.215-1.002-4.254l-8.57,6.232L23.561,39.892z"/>
		<path style="fill:#847340;stroke:#1C0801;stroke-width:2;stroke-miterlimit:10;" d="M36.696,36.698c0,0-0.182-2.215-1.002-4.254"
			/>
	</g>
	<path style="fill:#CE5A21;stroke:#1C0801;stroke-width:1.8151;stroke-miterlimit:10;" d="M20.32,23.595
		c0,0,0.125-4.118,5.625-5.766c2.438-3.034,6.555-5.895,6.555-5.895l0.32,2.153l3.626,6.921l-2,3.735c0,0,0.201,1.017,3.25,3.094
		c-2.25,6.958-3.33,5.037-4.407,6.356c-2.905,3.551-4.281,3.551-8.858,7.508c-4.75-4.324-3.976-15.176-3.976-15.176L20.32,23.595z"
		/>
	<polygon style="fill:#EFAF84;stroke:#1C0801;stroke-width:2;stroke-miterlimit:10;" points="15.82,25.073 20.518,27.838 
		22.999,33.67 23.561,24.693 20.57,19.443 	"/>
	<path style="fill:#CE5A21;stroke:#1C0801;stroke-width:2;stroke-miterlimit:10;" d="M8.34,15.101l1.942,9.32
		c0,0,3.669,3.648,5.402,3.405c5.44-5.781,5.565-9.156,5.565-9.156l3.181-0.916l-2.192-3.458L23,7.67c0,0-3.732,1.548-9.221,1.237
		C8.666,11.141,8.34,15.101,8.34,15.101z"/>
	<polygon style="fill:#EFAF84;stroke:#1C0801;stroke-miterlimit:10;" points="8.971,18.129 20.32,15.021 14.646,19.443 
		9.866,22.428 	"/>
	<polygon style="fill:#AF400E;" points="20.32,14.43 9.563,15.711 9.813,17.357 	"/>
	<path style="fill:#AF400E;" d="M11.125,23.977l8.565-3.49c0,0-2.212,4.188-4.283,6.332C15.407,26.818,13.375,26.284,11.125,23.977z
		"/>
	<polygon style="fill:#AF400E;" points="32.813,16.045 35.376,21.045 31.851,29.311 	"/>
	<path style="fill:#AF400E;" d="M36.515,28.107c0,0-10.651,11.138-12.084,11.784C24.431,39.892,35.938,34.571,36.515,28.107z"/>
	<path style="fill:#AF400E;" d="M27.25,47.296l-2.819,4l-8.314,3.613c0,0,1.683,2.951,2.634,2.512
		c5.681-2.625,6.429-4.557,6.429-4.557l6.672-1.006L27.25,47.296z"/>
	<path style="fill:#AF400E;" d="M38.938,53.421l9.563-6.375l-0.619-2.797l1.869,3.672C49.751,47.921,49.44,49.185,38.938,53.421z"/>
	<polygon style="fill:#AF400E;" points="26.784,43.046 36.696,37.745 34.876,37.745 	"/>
	<polygon style="fill:#AF400E;" points="39.876,40.845 34.876,43.046 42.001,42.604 39.626,41.702 	"/>
	<path style="fill:none;stroke:#4C231B;stroke-width:2.2378;stroke-miterlimit:10;" d="M18.75,27.758c0,0,3.257,9.175,17.765,4.704"
		/>
</g>
</svg>
