<?xml version="1.0" encoding="utf-8"?>
<!-- Generator: Adobe Illustrator 15.0.2, SVG Export Plug-In . SVG Version: 6.00 Build 0)  -->
<!DOCTYPE svg PUBLIC "-//W3C//DTD SVG 1.1//EN" "http://www.w3.org/Graphics/SVG/1.1/DTD/svg11.dtd">
<svg version="1.1" id="レイヤー_1" xmlns="http://www.w3.org/2000/svg" xmlns:xlink="http://www.w3.org/1999/xlink" x="0px"
	 y="0px" width="64px" height="64px" viewBox="0 0 64 64" enable-background="new 0 0 64 64" xml:space="preserve">
<g>
	<g>
		<linearGradient id="SVGID_1_" gradientUnits="userSpaceOnUse" x1="46.6055" y1="4.9775" x2="46.6055" y2="57.7678">
			<stop  offset="0" style="stop-color:#7C7C7C"/>
			<stop  offset="0.0069" style="stop-color:#787878"/>
			<stop  offset="0.0715" style="stop-color:#585858"/>
			<stop  offset="0.1432" style="stop-color:#3D3D3D"/>
			<stop  offset="0.2247" style="stop-color:#262626"/>
			<stop  offset="0.3191" style="stop-color:#151515"/>
			<stop  offset="0.4345" style="stop-color:#090909"/>
			<stop  offset="0.5932" style="stop-color:#020202"/>
			<stop  offset="1" style="stop-color:#000000"/>
		</linearGradient>
		<path fill-rule="evenodd" clip-rule="evenodd" fill="url(#SVGID_1_)" d="M33.83,19.485c7.066-1.753,14.489-3.15,21.62-4.838
			c-7.129,0.985-14.816,3.527-22.073,4.385c8.746-2.341,18.135-4.04,26.458-6.804c-0.976,4.294-5.991,5.077-10.583,5.896
			c-4.691,0.837-10.021,1.527-14.363,2.268C34.292,20.333,34.193,19.777,33.83,19.485z"/>
		<linearGradient id="SVGID_2_" gradientUnits="userSpaceOnUse" x1="15.9663" y1="4.9775" x2="15.9663" y2="57.7679">
			<stop  offset="0" style="stop-color:#7C7C7C"/>
			<stop  offset="0.0069" style="stop-color:#787878"/>
			<stop  offset="0.0715" style="stop-color:#585858"/>
			<stop  offset="0.1432" style="stop-color:#3D3D3D"/>
			<stop  offset="0.2247" style="stop-color:#262626"/>
			<stop  offset="0.3191" style="stop-color:#151515"/>
			<stop  offset="0.4345" style="stop-color:#090909"/>
			<stop  offset="0.5932" style="stop-color:#020202"/>
			<stop  offset="1" style="stop-color:#000000"/>
		</linearGradient>
		<path fill-rule="evenodd" clip-rule="evenodd" fill="url(#SVGID_2_)" d="M16.444,17.217c-0.002,0.402,0.057,0.863-0.151,1.058
			c-0.945,0.24-0.727-0.684-1.209-0.907c-0.499,0.005-0.578,0.43-0.605,0.907c-0.647-1.15,0.645-1.867,1.512-1.209
			c0.029-0.583-0.24-0.869-0.756-0.907c0.249-0.431,0.82,0.072,1.058,0.151c-0.071-0.449,0.164-1.426,0.454-1.965
			c0.374,0.13-0.044,1.052,0.302,1.209c0.265-0.29,0.32-0.788,0.454-1.209C17.862,15.452,17.439,17.403,16.444,17.217z"/>
		<linearGradient id="SVGID_3_" gradientUnits="userSpaceOnUse" x1="46.3789" y1="4.9775" x2="46.3789" y2="57.7679">
			<stop  offset="0" style="stop-color:#7C7C7C"/>
			<stop  offset="0.0069" style="stop-color:#787878"/>
			<stop  offset="0.0715" style="stop-color:#585858"/>
			<stop  offset="0.1432" style="stop-color:#3D3D3D"/>
			<stop  offset="0.2247" style="stop-color:#262626"/>
			<stop  offset="0.3191" style="stop-color:#151515"/>
			<stop  offset="0.4345" style="stop-color:#090909"/>
			<stop  offset="0.5932" style="stop-color:#020202"/>
			<stop  offset="1" style="stop-color:#000000"/>
		</linearGradient>
		<path fill-rule="evenodd" clip-rule="evenodd" fill="url(#SVGID_3_)" d="M35.191,20.997c6.345-0.71,12.467-1.644,18.747-2.419
			c-6.199,0.203-12.987,1.929-19.201,2.117c7.697-1.374,15.663-2.479,23.283-3.931c-2.613,6.408-14.395,4.454-22.376,4.989
			C35.598,21.396,35.119,21.471,35.191,20.997z"/>
		<linearGradient id="SVGID_4_" gradientUnits="userSpaceOnUse" x1="46.001" y1="4.9775" x2="46.001" y2="57.7678">
			<stop  offset="0" style="stop-color:#7C7C7C"/>
			<stop  offset="0.0069" style="stop-color:#787878"/>
			<stop  offset="0.0715" style="stop-color:#585858"/>
			<stop  offset="0.1432" style="stop-color:#3D3D3D"/>
			<stop  offset="0.2247" style="stop-color:#262626"/>
			<stop  offset="0.3191" style="stop-color:#151515"/>
			<stop  offset="0.4345" style="stop-color:#090909"/>
			<stop  offset="0.5932" style="stop-color:#020202"/>
			<stop  offset="1" style="stop-color:#000000"/>
		</linearGradient>
		<path fill-rule="evenodd" clip-rule="evenodd" fill="url(#SVGID_4_)" d="M36.4,23.264c4.142-0.803,9.569-0.391,14.363-0.756
			c-3.599-0.137-8.035-0.017-12.246,0.151c-0.515,0.021-2.29,0.401-2.29,0.401s-0.046-0.352-0.28-0.704
			c6.569-0.638,13.844-0.57,20.107-1.512c-2.042,5.674-13.008,3.203-19.503,3.175C36.677,23.593,36.339,23.628,36.4,23.264z"/>
		<linearGradient id="SVGID_5_" gradientUnits="userSpaceOnUse" x1="21.8677" y1="4.9775" x2="21.8677" y2="57.7678">
			<stop  offset="0" style="stop-color:#7C7C7C"/>
			<stop  offset="0.0069" style="stop-color:#787878"/>
			<stop  offset="0.0715" style="stop-color:#585858"/>
			<stop  offset="0.1432" style="stop-color:#3D3D3D"/>
			<stop  offset="0.2247" style="stop-color:#262626"/>
			<stop  offset="0.3191" style="stop-color:#151515"/>
			<stop  offset="0.4345" style="stop-color:#090909"/>
			<stop  offset="0.5932" style="stop-color:#020202"/>
			<stop  offset="1" style="stop-color:#000000"/>
		</linearGradient>
		<path fill-rule="evenodd" clip-rule="evenodd" fill="url(#SVGID_5_)" d="M22.945,20.997c0.886,2.783-0.586,5.741-2.419,6.803
			C21.485,25.685,23.322,24.448,22.945,20.997z"/>
		<linearGradient id="SVGID_6_" gradientUnits="userSpaceOnUse" x1="44.6367" y1="4.9775" x2="44.6367" y2="57.7678">
			<stop  offset="0" style="stop-color:#7C7C7C"/>
			<stop  offset="0.0069" style="stop-color:#787878"/>
			<stop  offset="0.0715" style="stop-color:#585858"/>
			<stop  offset="0.1432" style="stop-color:#3D3D3D"/>
			<stop  offset="0.2247" style="stop-color:#262626"/>
			<stop  offset="0.3191" style="stop-color:#151515"/>
			<stop  offset="0.4345" style="stop-color:#090909"/>
			<stop  offset="0.5932" style="stop-color:#020202"/>
			<stop  offset="1" style="stop-color:#000000"/>
		</linearGradient>
		<path fill-rule="evenodd" clip-rule="evenodd" fill="url(#SVGID_6_)" d="M36.552,25.23c3.143-0.689,7.142,0.502,10.886,0.302
			c-1.66-0.338-3.652-0.314-5.594-0.454c-1.854-0.133-3.931-0.042-5.292-0.756c5.176,0.378,11.279,0.255,16.328,0.302
			c-2.552,4.743-11.76,2.008-16.479,1.059C36.358,25.439,36.544,25.423,36.552,25.23z"/>
		<linearGradient id="SVGID_7_" gradientUnits="userSpaceOnUse" x1="10.1509" y1="-42.4785" x2="10.1509" y2="119.4153">
			<stop  offset="0" style="stop-color:#7C7C7C"/>
			<stop  offset="0.0069" style="stop-color:#787878"/>
			<stop  offset="0.0715" style="stop-color:#585858"/>
			<stop  offset="0.1432" style="stop-color:#3D3D3D"/>
			<stop  offset="0.2247" style="stop-color:#262626"/>
			<stop  offset="0.3191" style="stop-color:#151515"/>
			<stop  offset="0.4345" style="stop-color:#090909"/>
			<stop  offset="0.5932" style="stop-color:#020202"/>
			<stop  offset="1" style="stop-color:#000000"/>
		</linearGradient>
		<path fill-rule="evenodd" clip-rule="evenodd" fill="url(#SVGID_7_)" d="M17.2,29.01c-0.506-0.755-2.042-1.787-3.175-2.419
			c-2.47,0.976-6.161-0.642-8.618,0.303c0,0.047-0.011,0.098-0.017,0.147c-0.024-0.01-0.04-0.026-0.066-0.035
			c-0.27,0.799-2.011,1.804-2.221,2.667c0.445,0.481,2.037-0.354,2.936-0.36c-0.058-0.263-0.052-0.562-0.05-0.858
			c0.577-0.37,1.171-0.86,1.536-0.957c1.733,0.975,4.208,0.798,6.199,1.209c0.294,0.865,0.945,1.374,1.361,2.117
			c0.595,0.196,1.319,1.757,1.663,1.209C16.652,30.78,16.846,29.815,17.2,29.01z"/>
		<linearGradient id="SVGID_8_" gradientUnits="userSpaceOnUse" x1="37.3076" y1="4.9775" x2="37.3076" y2="57.7678">
			<stop  offset="0" style="stop-color:#7C7C7C"/>
			<stop  offset="0.0069" style="stop-color:#787878"/>
			<stop  offset="0.0715" style="stop-color:#585858"/>
			<stop  offset="0.1432" style="stop-color:#3D3D3D"/>
			<stop  offset="0.2247" style="stop-color:#262626"/>
			<stop  offset="0.3191" style="stop-color:#151515"/>
			<stop  offset="0.4345" style="stop-color:#090909"/>
			<stop  offset="0.5932" style="stop-color:#020202"/>
			<stop  offset="1" style="stop-color:#000000"/>
		</linearGradient>
		<path fill-rule="evenodd" clip-rule="evenodd" fill="url(#SVGID_8_)" d="M41.994,34.604c-3.639,1.121-8.021-2.513-9.373-4.536
			c0.261,0.057,0.427-0.211,0.427-0.211s4.607,3.103,6.981,3.991c-2.223-1.355-4.435-2.722-6.804-3.931
			c-0.043-0.244,0.143-0.26,0.151-0.454C35.806,31.319,39.356,32.656,41.994,34.604z"/>
		<linearGradient id="SVGID_9_" gradientUnits="userSpaceOnUse" x1="35.4941" y1="4.9775" x2="35.4941" y2="57.7678">
			<stop  offset="0" style="stop-color:#7C7C7C"/>
			<stop  offset="0.0069" style="stop-color:#787878"/>
			<stop  offset="0.0715" style="stop-color:#585858"/>
			<stop  offset="0.1432" style="stop-color:#3D3D3D"/>
			<stop  offset="0.2247" style="stop-color:#262626"/>
			<stop  offset="0.3191" style="stop-color:#151515"/>
			<stop  offset="0.4345" style="stop-color:#090909"/>
			<stop  offset="0.5932" style="stop-color:#020202"/>
			<stop  offset="1" style="stop-color:#000000"/>
		</linearGradient>
		<path fill-rule="evenodd" clip-rule="evenodd" fill="url(#SVGID_9_)" d="M39.727,36.115c-4.194,0.388-6.857-2.797-8.466-4.989
			c0.23-0.051,0.756-0.604,0.756-0.604s1.806,1.856,2.57,2.419c1.129,0.831,2.239,1.775,3.326,2.419
			c-1.672-1.809-4.766-2.99-5.896-4.838c0.135-0.093,0.271-0.183,0.302,0C34.432,32.742,37.662,33.846,39.727,36.115z"/>
		<linearGradient id="SVGID_10_" gradientUnits="userSpaceOnUse" x1="26.8315" y1="-516.4941" x2="26.8315" y2="74.2363">
			<stop  offset="0" style="stop-color:#7C7C7C"/>
			<stop  offset="0.0069" style="stop-color:#787878"/>
			<stop  offset="0.0715" style="stop-color:#585858"/>
			<stop  offset="0.1432" style="stop-color:#3D3D3D"/>
			<stop  offset="0.2247" style="stop-color:#262626"/>
			<stop  offset="0.3191" style="stop-color:#151515"/>
			<stop  offset="0.4345" style="stop-color:#090909"/>
			<stop  offset="0.5932" style="stop-color:#020202"/>
			<stop  offset="1" style="stop-color:#000000"/>
		</linearGradient>
		<path fill-rule="evenodd" clip-rule="evenodd" fill="url(#SVGID_10_)" d="M32.318,45.035c-0.643-1.372-1.406-2.511-1.802-3.782
			c-1.5-0.604-1.708-0.813-3.792-1.207c-1.32,0.89-2.643,2.44-1.965,4.839c0.801,1.769,2.62,2.52,3.477,4.233
			c-0.863,2.34-3.443,2.965-4.844,4.768c-0.597,0.459-2.048,1.012-2.048,2.352c0.505,0.251,1.541,0.952,2.377,0.871
			c0.04-0.17,0.371-1.235,0.41-1.419c1.528-3.259,5.966-4.005,7.733-7.025C30.213,47.731,30.424,45.535,32.318,45.035z"/>
		<linearGradient id="SVGID_11_" gradientUnits="userSpaceOnUse" x1="32.3936" y1="4.7871" x2="32.3936" y2="59.9543">
			<stop  offset="0" style="stop-color:#7C7C7C"/>
			<stop  offset="0.0069" style="stop-color:#787878"/>
			<stop  offset="0.0715" style="stop-color:#585858"/>
			<stop  offset="0.1432" style="stop-color:#3D3D3D"/>
			<stop  offset="0.2247" style="stop-color:#262626"/>
			<stop  offset="0.3191" style="stop-color:#151515"/>
			<stop  offset="0.4345" style="stop-color:#090909"/>
			<stop  offset="0.5932" style="stop-color:#020202"/>
			<stop  offset="1" style="stop-color:#000000"/>
		</linearGradient>
		<path fill-rule="evenodd" clip-rule="evenodd" fill="url(#SVGID_11_)" d="M54.95,43.796c-0.069-0.182-0.115-0.375-0.104-0.574
			C54.89,43.384,54.922,43.58,54.95,43.796c0.292,0.77,1.188,1.282,1.861,0.635c-0.745-0.213-1.044-0.871-1.361-1.512
			c0.487-2.442-0.6-3.311-1.891-3.975c-0.335-0.108-0.632-0.25-0.83-0.41c0.278,0.135,0.557,0.27,0.83,0.41
			c0.844,0.274,1.95,0.315,2.495-0.259c-0.639,0.034-0.976-0.233-1.512-0.303c-0.72-0.992-0.804-2.622-2.419-2.721
			c0.779,0.073,1.296-0.115,1.512-0.605c-0.402,0-0.806,0-1.209,0C51.391,34,50.806,33.4,49.403,33.243
			c-4.909-0.552-5.796,4.068-8.921,5.291c-0.732-1.233-2.198-2.537-3.779-2.419c0.338,0.205-5.443-4.384-6.804-3.477
			c1.36-3.091,6.139-3.509,6.501-7.56c0.271-3.021-2.038-4.43-3.477-6.501c1.012-0.148,0.415-1.818,0.302-1.965
			c4.414-1.786,10.233-2.165,11.944-6.652c-0.911-0.101-1.669,0.745-2.269,0.453c0.796-0.263,1.518-0.599,1.966-1.209
			c-3.232,1.001-5.897,2.57-8.92,3.78c0.108-0.57-0.518-1.184-0.756-0.907c0.439,2.154-2.817,1.92-3.78,3.175
			c-0.135-0.47-0.155-1.054-0.756-1.059c0.449,0.899-0.366,1.445-0.604,2.117c-0.128-0.142-0.964-0.323-1.059,0
			c0.64,0.217,0.648,1.065,0.605,1.965c0.458,0.601,0.95,1.167,1.965,1.21c0.73,1.689,1.99,2.527,2.116,4.233
			c0.206,2.764-4.207,5.745-6.047,5.896c-0.585,0.048-1.294-0.038-1.814-0.454c0.531,0.03,1.319,0.587,1.814,0.151
			c-0.266-0.037-0.345-0.26-0.303-0.605c3.034-6.095-0.157-15.482-8.013-13.456c-0.261,0.394-0.489,0.821-1.059,0.907
			c-0.011-1.047,0.129-2.246-0.454-2.722c0.381,2.901-0.883,4.157-1.814,5.745c0.205,2.322-0.958,3.275-1.512,4.838
			c0.584-0.07,0.597-0.718,1.059-0.151c0.064,0.417-0.564,0.142-0.605,0.454c0.41,0.094,0.376,0.631,0.907,0.604
			c1.007,0.065,1.044-1.528,2.117-0.907c-0.295,0.662-1.334,0.581-1.209,1.663c0.403,0,0.806,0,1.209,0
			c-0.25-1.258,0.461-1.554,0.756-2.268c-0.269-0.083-0.628-0.078-0.756-0.302c0.752,0.296,0.599-0.16,1.058-0.454
			c0.146-0.559-1.032-0.567-0.604-0.907c1.632,1.211,3.126-0.168,3.524-1.856c0.037-0.337,0.083-0.665,0.104-1.017
			c0.014,0.339-0.026,0.684-0.104,1.017c-0.469,4.248-2.167,7.266-4.733,9.416c-0.242,1.072-0.508,2.743-0.151,3.931
			c0.866-0.193,1.28-0.837,1.663-1.512c-1.127,2.602-4.763,2.696-6.955,4.233c-0.636,3.245-3.299,4.463-3.931,7.711
			c0.13,1.126,0,1.715,1.192,3.156c0.802-0.174,0.965-1.108,1.179-2.264c-0.349-0.505-0.623-0.777-0.859-0.918
			c0-0.444,0-0.891,0-1.335c1.496-1.428,2.802-3.044,3.931-4.838c2.885,0.105,5.25-1.725,7.711-1.059
			c-0.97-0.153-1.682-0.095-2.419,0.302c1.766,3.729,8.745,2.242,12.095,4.385c1.415,3.877,3.579,7.005,8.013,7.862
			c2.427,2.287,0.697,5.702-0.222,8.475c-0.208,0.553-1.909,2.543-2.052,3.155c0.365,0.289,2.571-0.008,3.171,0.049
			c0.111-0.555-0.211-1.785,0.161-2.154c-0.018-4.063,3.102-5.749,2.722-9.676c-0.95-0.662-2.086-1.14-2.57-2.268
			c0.701-1.466,1.106-3.229,1.059-5.443c0.317-1.701,5.14-4.373,4.687-0.604c-0.544,0.053-0.729,0.231-1.209,0
			c0.137,0.77,1.008,0.806,1.965,0.756c0.633-0.274,0.803-1.012,1.21-1.512c-1.368,2.912,0.665,4.531,1.058,6.048
			c1.168-0.86,0.667-3.57,0.151-4.233c1.919,1.508,0.942,5.911,3.78,6.501c-0.482-0.993-0.301-2.712,0-3.78
			c0.06,0.715-0.049,1.262-0.151,1.814c0.752,1.186,2.574,2.667,4.535,1.663C55.119,47.753,55.141,45.273,54.95,43.796z"/>
		<path fill-rule="evenodd" clip-rule="evenodd" fill="#FFFFFF" d="M20.526,27.8c1.833-1.063,3.305-4.02,2.419-6.803
			C23.322,24.448,21.485,25.685,20.526,27.8z"/>
		<linearGradient id="SVGID_12_" gradientUnits="userSpaceOnUse" x1="50.1836" y1="34.6182" x2="50.1836" y2="35.6669">
			<stop  offset="0" style="stop-color:#7C7C7C"/>
			<stop  offset="0.0069" style="stop-color:#787878"/>
			<stop  offset="0.0715" style="stop-color:#585858"/>
			<stop  offset="0.1432" style="stop-color:#3D3D3D"/>
			<stop  offset="0.2247" style="stop-color:#262626"/>
			<stop  offset="0.3191" style="stop-color:#151515"/>
			<stop  offset="0.4345" style="stop-color:#090909"/>
			<stop  offset="0.5932" style="stop-color:#020202"/>
			<stop  offset="1" style="stop-color:#000000"/>
		</linearGradient>
		<path fill-rule="evenodd" clip-rule="evenodd" fill="url(#SVGID_12_)" d="M50.764,35.662c1.179,0.104,1.179-0.257,0-0.151
			c-0.607-0.106-2.441-1.036-1.966-0.756C49.188,35.321,50.048,35.42,50.764,35.662z"/>
		<linearGradient id="SVGID_13_" gradientUnits="userSpaceOnUse" x1="11.2358" y1="37.999" x2="11.2358" y2="40.9122">
			<stop  offset="0" style="stop-color:#7C7C7C"/>
			<stop  offset="0.0069" style="stop-color:#787878"/>
			<stop  offset="0.0715" style="stop-color:#585858"/>
			<stop  offset="0.1432" style="stop-color:#3D3D3D"/>
			<stop  offset="0.2247" style="stop-color:#262626"/>
			<stop  offset="0.3191" style="stop-color:#151515"/>
			<stop  offset="0.4345" style="stop-color:#090909"/>
			<stop  offset="0.5932" style="stop-color:#020202"/>
			<stop  offset="1" style="stop-color:#000000"/>
		</linearGradient>
		<path fill-rule="evenodd" clip-rule="evenodd" fill="url(#SVGID_13_)" d="M12.059,38.232c-0.384,0.978-1.733,1.792-1.663,2.721
			C10.975,40.254,12.248,38.697,12.059,38.232z"/>
		<linearGradient id="SVGID_14_" gradientUnits="userSpaceOnUse" x1="39.5654" y1="39.1914" x2="39.5654" y2="44.2095">
			<stop  offset="0" style="stop-color:#7C7C7C"/>
			<stop  offset="0.0069" style="stop-color:#787878"/>
			<stop  offset="0.0715" style="stop-color:#585858"/>
			<stop  offset="0.1432" style="stop-color:#3D3D3D"/>
			<stop  offset="0.2247" style="stop-color:#262626"/>
			<stop  offset="0.3191" style="stop-color:#151515"/>
			<stop  offset="0.4345" style="stop-color:#090909"/>
			<stop  offset="0.5932" style="stop-color:#020202"/>
			<stop  offset="1" style="stop-color:#000000"/>
		</linearGradient>
		<path fill-rule="evenodd" clip-rule="evenodd" fill="url(#SVGID_14_)" d="M39.273,44.279c0.197-1.386,1.244-3.653,0-4.687
			C39.892,41.09,39.144,42.989,39.273,44.279z"/>
		<linearGradient id="SVGID_15_" gradientUnits="userSpaceOnUse" x1="40.9355" y1="48.0625" x2="40.9355" y2="49.8495">
			<stop  offset="0" style="stop-color:#7C7C7C"/>
			<stop  offset="0.0069" style="stop-color:#787878"/>
			<stop  offset="0.0715" style="stop-color:#585858"/>
			<stop  offset="0.1432" style="stop-color:#3D3D3D"/>
			<stop  offset="0.2247" style="stop-color:#262626"/>
			<stop  offset="0.3191" style="stop-color:#151515"/>
			<stop  offset="0.4345" style="stop-color:#090909"/>
			<stop  offset="0.5932" style="stop-color:#020202"/>
			<stop  offset="1" style="stop-color:#000000"/>
		</linearGradient>
		<path fill-rule="evenodd" clip-rule="evenodd" fill="url(#SVGID_15_)" d="M41.541,49.874c-0.188-0.673-0.761-1.755-1.21-1.663
			C40.88,48.62,40.956,49.501,41.541,49.874z"/>
		<linearGradient id="SVGID_16_" gradientUnits="userSpaceOnUse" x1="24.9102" y1="4.9775" x2="24.9102" y2="57.7678">
			<stop  offset="0" style="stop-color:#7C7C7C"/>
			<stop  offset="0.0069" style="stop-color:#787878"/>
			<stop  offset="0.0715" style="stop-color:#585858"/>
			<stop  offset="0.1432" style="stop-color:#3D3D3D"/>
			<stop  offset="0.2247" style="stop-color:#262626"/>
			<stop  offset="0.3191" style="stop-color:#151515"/>
			<stop  offset="0.4345" style="stop-color:#090909"/>
			<stop  offset="0.5932" style="stop-color:#020202"/>
			<stop  offset="1" style="stop-color:#000000"/>
		</linearGradient>
		<path fill-rule="evenodd" clip-rule="evenodd" fill="url(#SVGID_16_)" d="M19.77,12.379c0.193,0.301-0.325,1.182-0.605,1.512
			c0.364-0.444,2.476-0.446,3.024-1.209c0.506,0.419-0.392,0.707-0.454,1.058c0.653-0.253,1.877,0.063,2.117-0.604
			c0.501,0.414-0.325,0.773-0.454,1.058c1.097,0.301,2.47-1.298,3.628-0.151c-0.391,0.214-0.947,0.262-1.361,0.454
			c0.382,0.273,0.988,0.322,1.059,0.907c0.491,0.088,0.703-0.103,1.058-0.151c-0.192,0.362-0.493,0.615-1.058,0.604
			c0.673,0.436,1.541,0.677,1.965,1.361c-0.259,0.441-0.55-0.343-1.058-0.151c1.303,0.662,1.173,2.758,3.023,2.873
			C30.59,20.276,29.91,20,29.597,20.089c0.875,0.586,1.605,1.318,1.814,2.57c-0.448-0.459-0.8-1.014-1.512-1.209
			c0.011,0.396,0.92,1.194,0.605,2.419c-0.296-0.309-0.264-0.946-0.756-1.058c-0.137,1.498,0.582,2.14,1.361,2.721
			c-0.535,0.377-1.278-0.33-1.663-0.605c-0.181,1.138,0.527,1.388,0.756,2.117c-0.827,0.222-0.824-0.386-1.209-0.604
			c-0.293,0.96,0.772,1.157,0.454,1.663c-0.46,0.007-0.588-0.319-0.907-0.454c0.001,0.27-0.407,0.879,0,1.058
			c-0.019,0.334-0.641,0.064-0.907,0.151c2.791-6.524-0.253-15.791-8.315-13.758c-0.3-0.456-0.38-1.132-0.907-1.361
			C18.761,13.185,19.579,13.095,19.77,12.379z"/>
		<linearGradient id="SVGID_17_" gradientUnits="userSpaceOnUse" x1="40.2559" y1="4.8911" x2="40.2559" y2="57.8856">
			<stop  offset="0" style="stop-color:#7C7C7C"/>
			<stop  offset="0.0069" style="stop-color:#787878"/>
			<stop  offset="0.0715" style="stop-color:#585858"/>
			<stop  offset="0.1432" style="stop-color:#3D3D3D"/>
			<stop  offset="0.2247" style="stop-color:#262626"/>
			<stop  offset="0.3191" style="stop-color:#151515"/>
			<stop  offset="0.4345" style="stop-color:#090909"/>
			<stop  offset="0.5932" style="stop-color:#020202"/>
			<stop  offset="1" style="stop-color:#000000"/>
		</linearGradient>
		<path fill-rule="evenodd" clip-rule="evenodd" fill="url(#SVGID_17_)" d="M35.947,27.347c1.172-0.199,3.669,1.068,5.291,1.512
			c1.962,0.458,3.867,0.971,5.595,1.663c-3.186,2.962-8.691-1.195-11.793-2.268c2.868,1.769,6.365,2.908,9.374,4.536
			c-4.094,2.059-8.144-1.537-10.735-3.422c0.302-0.152,0.646-0.467,0.757-0.811c2.531,1.197,4.763,2.696,7.408,3.78
			c-2.347-1.282-4.613-2.645-7.106-3.78c0.756-0.756,0.543-0.479,0.967-0.981c2.723,1.006,5.236,1.934,8.104,2.795
			C41.244,29.306,38.68,28.242,35.947,27.347z"/>
		<linearGradient id="SVGID_18_" gradientUnits="userSpaceOnUse" x1="47.0615" y1="4.9775" x2="47.0615" y2="57.7677">
			<stop  offset="0" style="stop-color:#7C7C7C"/>
			<stop  offset="0.0069" style="stop-color:#787878"/>
			<stop  offset="0.0715" style="stop-color:#585858"/>
			<stop  offset="0.1432" style="stop-color:#3D3D3D"/>
			<stop  offset="0.2247" style="stop-color:#262626"/>
			<stop  offset="0.3191" style="stop-color:#151515"/>
			<stop  offset="0.4345" style="stop-color:#090909"/>
			<stop  offset="0.5932" style="stop-color:#020202"/>
			<stop  offset="1" style="stop-color:#000000"/>
		</linearGradient>
		<path fill-rule="evenodd" clip-rule="evenodd" fill="url(#SVGID_18_)" d="M33.226,18.729c0.927-1.744,3.632-1.709,5.594-2.419
			c5.944-2.018,12.065-3.86,18.143-5.745c-6.062,1.539-12.727,3.697-19.2,5.745c-0.962,0.304-2.285,0.878-3.176,1.059
			c-1.351,0.273,1.067-0.481,1.814-0.756c7.983-2.939,16.259-5.733,24.493-9.072c0.063,1.224-0.62,1.699-0.907,2.57
			c-2.57,2.979-7.109,3.588-11.34,4.687C43.509,16.133,38.465,17.553,33.226,18.729z"/>
		<path fill-rule="evenodd" clip-rule="evenodd" fill="#FFFFFF" d="M48.798,34.755c-0.476-0.28,1.358,0.649,1.966,0.756
			c1.179-0.105,1.179,0.256,0,0.151C50.048,35.42,49.188,35.321,48.798,34.755z"/>
		<path fill-rule="evenodd" clip-rule="evenodd" fill="#FFFFFF" d="M10.396,40.953c-0.07-0.929,1.279-1.743,1.663-2.721
			C12.248,38.697,10.975,40.254,10.396,40.953z"/>
		<path fill-rule="evenodd" clip-rule="evenodd" fill="#FFFFFF" d="M39.273,39.593c1.244,1.033,0.197,3.301,0,4.687
			C39.144,42.989,39.892,41.09,39.273,39.593z"/>
		<path fill-rule="evenodd" clip-rule="evenodd" fill="#FFFFFF" d="M40.331,48.211c0.449-0.092,1.022,0.99,1.21,1.663
			C40.956,49.501,40.88,48.62,40.331,48.211z"/>
		<linearGradient id="SVGID_19_" gradientUnits="userSpaceOnUse" x1="47.1973" y1="4.9971" x2="47.1973" y2="58.244">
			<stop  offset="0" style="stop-color:#7C7C7C"/>
			<stop  offset="0.0069" style="stop-color:#787878"/>
			<stop  offset="0.0715" style="stop-color:#585858"/>
			<stop  offset="0.1432" style="stop-color:#3D3D3D"/>
			<stop  offset="0.2247" style="stop-color:#262626"/>
			<stop  offset="0.3191" style="stop-color:#151515"/>
			<stop  offset="0.4345" style="stop-color:#090909"/>
			<stop  offset="0.5932" style="stop-color:#020202"/>
			<stop  offset="1" style="stop-color:#000000"/>
		</linearGradient>
		<path fill-rule="evenodd" clip-rule="evenodd" fill="url(#SVGID_19_)" d="M33.528,17.065c-0.303-0.453,1.88-1.024,2.872-1.36
			c2.956-1.001,6.598-1.791,8.164-4.385c4.526-1.723,8.73-3.768,13.153-5.594c-4.158,1.285-8.534,3.662-12.851,5.292
			c0.799-1.431,2.542-1.652,3.931-2.268c4.027-1.785,8.092-4.116,12.096-6.047c-0.13,3.146-2.101,4.451-3.932,5.896
			c-5.771,2.393-11.855,4.473-17.688,6.803C37.27,15.691,33.5,17.795,33.528,17.065z"/>
		<linearGradient id="SVGID_20_" gradientUnits="userSpaceOnUse" x1="42.6758" y1="4.9775" x2="42.6758" y2="57.7677">
			<stop  offset="0" style="stop-color:#7C7C7C"/>
			<stop  offset="0.0069" style="stop-color:#787878"/>
			<stop  offset="0.0715" style="stop-color:#585858"/>
			<stop  offset="0.1432" style="stop-color:#3D3D3D"/>
			<stop  offset="0.2247" style="stop-color:#262626"/>
			<stop  offset="0.3191" style="stop-color:#151515"/>
			<stop  offset="0.4345" style="stop-color:#090909"/>
			<stop  offset="0.5932" style="stop-color:#020202"/>
			<stop  offset="1" style="stop-color:#000000"/>
		</linearGradient>
		<path fill-rule="evenodd" clip-rule="evenodd" fill="url(#SVGID_20_)" d="M44.564,27.951c-2.631-0.695-5.619-1.033-8.315-1.663
			c4.072,0.212,8.695,1.183,13.003,1.663c-2.746,3.58-9.401-0.13-13.003-0.907c-0.08-0.122-0.157-0.245-0.15-0.454
			C38.612,26.753,41.655,27.682,44.564,27.951z"/>
		<g>
			<path fill="none" stroke="#231815" stroke-width="0.5" stroke-miterlimit="11" d="M3.722,28.912c0,0-0.819,0.819-0.574,1.475
				c0,0,2.459,0.246,3.033-0.41l-0.41-1.065H3.722z"/>
			<path fill-rule="evenodd" clip-rule="evenodd" fill="#FFFFFF" d="M3.722,28.912c0,0-0.819,0.819-0.574,1.475
				c0,0,2.459,0.246,3.033-0.41l-0.41-1.065H3.722z"/>
		</g>
		<g>
			<path fill="none" stroke="#231815" stroke-width="0.5" stroke-miterlimit="11" d="M8.64,46.207c0,0,0.738,1.394,1.147,1.312
				c0,0,1.065-2.05,1.065-2.951h-0.656C10.197,44.567,9.787,45.551,8.64,46.207z"/>
			<path fill-rule="evenodd" clip-rule="evenodd" fill="#FFFFFF" d="M8.64,46.207c0,0,0.738,1.394,1.147,1.312
				c0,0,1.065-2.05,1.065-2.951h-0.656C10.197,44.567,9.787,45.551,8.64,46.207z"/>
		</g>
		<g>
			<path fill="none" stroke="#231815" stroke-width="0.5" stroke-miterlimit="11" d="M20.689,57.108c0,0,0.492-1.64,0.901-1.394
				c0,0,1.804,0.713,2.131,0.685v0.709C23.722,57.108,21.755,57.846,20.689,57.108z"/>
			<path fill-rule="evenodd" clip-rule="evenodd" fill="#FFFFFF" d="M20.689,57.108c0,0,0.492-1.64,0.901-1.394
				c0,0,1.804,0.713,2.131,0.685v0.709C23.722,57.108,21.755,57.846,20.689,57.108z"/>
		</g>
		<g>
			<path fill="none" stroke="#231815" stroke-width="0.5" stroke-miterlimit="11" d="M36.509,61.043c0,0,0.163-1.147,0.491-1.147
				h2.459l0.328,1.147C39.787,61.043,37.247,61.616,36.509,61.043z"/>
			<path fill-rule="evenodd" clip-rule="evenodd" fill="#FFFFFF" d="M36.509,61.043c0,0,0.163-1.147,0.491-1.147h2.459l0.328,1.147
				C39.787,61.043,37.247,61.616,36.509,61.043z"/>
		</g>
		<path fill-rule="evenodd" clip-rule="evenodd" fill="none" stroke="#FFFFFF" stroke-width="0.3" stroke-miterlimit="11" d="
			M29.899,32.638c0,0,1.17-1.734,2.722-2.57s3.433-2.711,3.773-3.993s0.925-2.813-3.471-7.498c0,0,1.663-0.144,0.454-1.965"/>
	</g>
	<path fill-rule="evenodd" clip-rule="evenodd" fill="#FFFFFF" d="M17.142,18.606c0,0-0.833,0.5-0.792,1.708l0.792-0.458V18.606z"/>
	<circle fill-rule="evenodd" clip-rule="evenodd" fill="#231815" cx="16.794" cy="19.577" r="0.326"/>
</g>
</svg>
