<?xml version="1.0" encoding="utf-8"?>
<!-- Generator: Adobe Illustrator 15.0.2, SVG Export Plug-In . SVG Version: 6.00 Build 0)  -->
<!DOCTYPE svg PUBLIC "-//W3C//DTD SVG 1.1//EN" "http://www.w3.org/Graphics/SVG/1.1/DTD/svg11.dtd">
<svg version="1.1" id="レイヤー_1" xmlns="http://www.w3.org/2000/svg" xmlns:xlink="http://www.w3.org/1999/xlink" x="0px"
	 y="0px" width="64px" height="64px" viewBox="0 0 64 64" enable-background="new 0 0 64 64" xml:space="preserve">
<g>
	<path fill="#FFFFFF" stroke="#353432" stroke-width="1.0961" stroke-miterlimit="2" d="M12.423,27.902l1.25-2.541
		c0,0-2.73-15.611,16.312-20.307c12.049-2.972,23.115,4.695,27.049,15.351c3.632,9.835,8.934,14.956,8.934,14.956v30.328h-50.49
		c0,0,4.493-14.428,13.673-19.304c0,0-6.541,2.373-10.516-2.081c0,0-4.388-1.484-15.372,1.259C3.262,45.563,0,35.279,12.423,27.902z
		"/>
	<linearGradient id="SVGID_1_" gradientUnits="userSpaceOnUse" x1="13.4287" y1="42.4033" x2="-0.1777" y2="28.8789">
		<stop  offset="0" style="stop-color:#2A2A2A"/>
		<stop  offset="0.1534" style="stop-color:#171717"/>
		<stop  offset="0.3152" style="stop-color:#070707"/>
		<stop  offset="0.3268" style="stop-color:#151515"/>
		<stop  offset="0.3695" style="stop-color:#434343"/>
		<stop  offset="0.416" style="stop-color:#6D6D6D"/>
		<stop  offset="0.4656" style="stop-color:#919191"/>
		<stop  offset="0.5188" style="stop-color:#B0B0B0"/>
		<stop  offset="0.5769" style="stop-color:#C8C8C8"/>
		<stop  offset="0.642" style="stop-color:#DCDCDC"/>
		<stop  offset="0.7177" style="stop-color:#E9E9E9"/>
		<stop  offset="0.814" style="stop-color:#F1F1F1"/>
		<stop  offset="1" style="stop-color:#F3F3F3"/>
	</linearGradient>
	<path fill="url(#SVGID_1_)" d="M3.262,45.563c0,0-2.713-10.6,9.299-17.286l6.194,16.027C18.756,44.304,6.771,43.593,3.262,45.563z"
		/>
	<polygon fill="#DADBDB" points="35.279,19.951 28.721,23.448 31.153,26.508 	"/>
	<path fill="#C7C8C9" d="M42.936,40.776c0,0,7.116-6.077,7.861-14.268C50.797,26.508,53.673,36.596,42.936,40.776z"/>
	
		<ellipse transform="matrix(0.9224 -0.3863 0.3863 0.9224 -7.0191 12.9539)" fill="#DADBDB" cx="28.72" cy="23.941" rx="3.997" ry="3.368"/>
	<linearGradient id="SVGID_2_" gradientUnits="userSpaceOnUse" x1="37.8418" y1="31.9185" x2="67.4326" y2="20.4429">
		<stop  offset="0" style="stop-color:#020202"/>
		<stop  offset="1" style="stop-color:#F3F3F3"/>
	</linearGradient>
	<path fill="url(#SVGID_2_)" d="M18.756,44.483l3.854,2.066l2.21-7.996c0,0-4.181-0.406-8.115-10.57
		c-0.368-4.181,1.523-7.448,3.427-10.265c2.477-3.664,8.667-8.315,16.983-7.031c10.081,1.558,18.771,12.541,10.184,27.455
		l17.055,13.528V34.131c0,0-6.952-9.496-8.161-15.731S41.235,2.458,34,4.409c-9.262,0.87-22.131,7.924-20.41,21.119l-1.167,2.375
		l6.333,17.122"/>
	<circle fill="#050505" cx="29.49" cy="23.94" r="3.535"/>
	<path fill="#C7C8C9" d="M22.609,46.099c0,0,4.094,1.515,6.111,1.067l11.329-5.404C40.05,41.762,32,43.804,22.609,46.099z"/>
	<path fill="none" stroke="#050504" stroke-width="1.0961" stroke-miterlimit="2" d="M12.423,27.902l1.25-2.541
		c0,0-2.73-15.611,16.312-20.307c12.049-2.972,23.115,4.695,27.049,15.351c3.632,9.835,8.934,14.956,8.934,14.956v30.328h-50.49
		c0,0,4.063-14.173,13.244-19.049c0,0-6.111,1.672-10.086-2.336c0,0-4.388-1.484-15.372,1.259C3.262,45.563,0,35.279,12.423,27.902z
		"/>
	<path fill="none" stroke="#050504" stroke-width="1.4669" stroke-miterlimit="2" d="M24.164,39.479c0,0-8.639-1.554-20.277,5.544"
		/>
	<linearGradient id="SVGID_3_" gradientUnits="userSpaceOnUse" x1="30.4097" y1="21.2617" x2="30.4097" y2="23.0921">
		<stop  offset="0" style="stop-color:#FFFFFF"/>
		<stop  offset="0.8659" style="stop-color:#FFFFFF;stop-opacity:0.1341"/>
		<stop  offset="1" style="stop-color:#FFFFFF;stop-opacity:0"/>
	</linearGradient>
	<ellipse fill="url(#SVGID_3_)" cx="30.41" cy="21.932" rx="0.92" ry="0.898"/>
	<path fill="#DADBDB" d="M16.705,64H64C64,64,67.276,52.412,16.705,64z"/>
</g>
</svg>
