<?xml version="1.0" encoding="utf-8"?>
<!-- Generator: Adobe Illustrator 15.0.2, SVG Export Plug-In . SVG Version: 6.00 Build 0)  -->
<!DOCTYPE svg PUBLIC "-//W3C//DTD SVG 1.1//EN" "http://www.w3.org/Graphics/SVG/1.1/DTD/svg11.dtd">
<svg version="1.1" xmlns="http://www.w3.org/2000/svg" xmlns:xlink="http://www.w3.org/1999/xlink" x="0px" y="0px" width="64px"
	 height="64px" viewBox="0 0 64 64" enable-background="new 0 0 64 64" xml:space="preserve">
<g id="レイヤー_1">
</g>
<g id="先行して">
	<g>
		<path fill-rule="evenodd" clip-rule="evenodd" fill="#E2D317" stroke="#231815" d="M44.441,4.311l-33.989,7.75
			c0,0,0,32.345,0,40.688s9,6.834,9,6.834l34.096-11.584V8.03L44.441,4.311z"/>
		<path fill-rule="evenodd" clip-rule="evenodd" fill="#231815" d="M17.988,10.901c-12.065,1.159-6.19,7.821,7.536,4.628
			c-0.102,14.287,0,42.238,0,42.238l-6.072,1.815c0,0-9,1.26-9-6.834V12.061C10.452,12.061,15.996,11.401,17.988,10.901z"/>
		
			<line fill-rule="evenodd" clip-rule="evenodd" fill="none" stroke="#231815" stroke-miterlimit="10" x1="53.548" y1="8.03" x2="20.673" y2="17.03"/>
		<g>
			<g>
				<path fill-rule="evenodd" clip-rule="evenodd" fill="#231815" d="M42.881,38.16c-2.532-0.341-4.136-2.378-5.398-4.987
					c-1.263-2.611-1.861-5.132-0.558-7.329l-2.074-4.289c-3.233,2.732-4.655,5.51-0.881,13.316
					c3.927,8.119,6.837,8.418,10.984,7.579L42.881,38.16z"/>
				<path fill="#231815" d="M40.752,23.384c0.401,0.825,0.053,1.25,0.053,1.25l-2.866,0.747c0,0-0.549,0.011-0.948-0.816
					l-1.408-2.913c-0.4-0.826,0.092-0.954,0.092-0.954l2.481-1.542c0,0,0.403-0.307,0.805,0.519L40.752,23.384z"/>
				<path fill="#231815" d="M48.901,40.239c0.401,0.825,0.053,1.248,0.053,1.248l-2.865,0.747c0,0-0.55,0.012-0.949-0.815
					l-1.408-2.911c-0.4-0.829,0.094-0.955,0.094-0.955l2.479-1.543c0,0,0.406-0.308,0.805,0.519L48.901,40.239z"/>
			</g>
		</g>
		
			<line fill-rule="evenodd" clip-rule="evenodd" fill="none" stroke="#898307" stroke-width="0.2" stroke-miterlimit="10" x1="46.419" y1="5.118" x2="19.798" y2="10.901"/>
		
			<line fill-rule="evenodd" clip-rule="evenodd" fill="none" stroke="#898307" stroke-width="0.2" stroke-miterlimit="10" x1="48.349" y1="5.906" x2="23.048" y2="12.53"/>
		
			<line fill-rule="evenodd" clip-rule="evenodd" fill="none" stroke="#898307" stroke-width="0.2" stroke-miterlimit="10" x1="49.356" y1="6.318" x2="30.298" y2="11.405"/>
		
			<line fill-rule="evenodd" clip-rule="evenodd" fill="none" stroke="#898307" stroke-width="0.2" stroke-miterlimit="10" x1="50.816" y1="6.915" x2="35.698" y2="11.405"/>
		
			<line fill-rule="evenodd" clip-rule="evenodd" fill="none" stroke="#898307" stroke-width="0.2" stroke-miterlimit="10" x1="47.253" y1="5.459" x2="32" y2="9.218"/>
		
			<line fill-rule="evenodd" clip-rule="evenodd" fill="none" stroke="#898307" stroke-width="0.2" stroke-miterlimit="10" x1="51.855" y1="7.338" x2="45.298" y2="9.218"/>
		<path fill-rule="evenodd" clip-rule="evenodd" fill="none" stroke="#231815" d="M44.441,4.311l-33.989,7.75c0,0,0,32.345,0,40.688
			s9,6.834,9,6.834l34.096-11.584V8.03L44.441,4.311z"/>
	</g>
</g>
</svg>
