<?xml version="1.0" encoding="utf-8"?>
<!-- Generator: Adobe Illustrator 15.0.2, SVG Export Plug-In . SVG Version: 6.00 Build 0)  -->
<!DOCTYPE svg PUBLIC "-//W3C//DTD SVG 1.1//EN" "http://www.w3.org/Graphics/SVG/1.1/DTD/svg11.dtd">
<svg version="1.1" id="レイヤー_1" xmlns="http://www.w3.org/2000/svg" xmlns:xlink="http://www.w3.org/1999/xlink" x="0px"
	 y="0px" width="64px" height="64px" viewBox="0 0 64 64" enable-background="new 0 0 64 64" xml:space="preserve">
<g>
	<g>
		<defs>
			<filter id="Adobe_OpacityMaskFilter" filterUnits="userSpaceOnUse" x="6.859" y="43.921" width="50.283" height="4.836">
				<feFlood  style="flood-color:white;flood-opacity:1" result="back"/>
				<feBlend  in="SourceGraphic" in2="back" mode="normal"/>
			</filter>
		</defs>
		<mask maskUnits="userSpaceOnUse" x="6.859" y="43.921" width="50.283" height="4.836" id="SVGID_1_">
			<g filter="url(#Adobe_OpacityMaskFilter)">
				<image overflow="visible" width="56" height="10" xlink:href="C1FA9372.jpg"  transform="matrix(1 0 0 1 4 41)">
				</image>
			</g>
		</mask>
		<g mask="url(#SVGID_1_)">
			<ellipse fill="#9D9D9E" cx="32" cy="46.339" rx="25.141" ry="2.418"/>
		</g>
	</g>
	<g>
		<g>
			<g>
				<path fill="#FFFFFF" d="M26.119,29.455c1.481-6.496,7.947-10.56,14.442-9.079l-21.175-4.828
					c-6.496-1.481-12.961,2.583-14.442,9.079s2.584,12.96,9.079,14.442l21.176,4.828C28.704,42.415,24.638,35.949,26.119,29.455z"/>
				<path fill="none" d="M40.562,20.375c-6.495-1.481-12.961,2.583-14.442,9.079c-1.481,6.495,2.584,12.96,9.08,14.442"/>
			</g>
			<path fill="#C7C8C9" d="M31.451,43.042c0,0-3.984-4.391-4.587-6.024L5.682,32.188c0,0,3.223,5.713,7.488,6.686L31.451,43.042z"/>
			<path fill="#E40012" d="M49.977,22.522l-9.415-2.146c-6.495-1.481-12.961,2.583-14.442,9.079
				c-1.481,6.495,2.584,12.96,9.08,14.442l9.414,2.146c6.495,1.481,12.961-2.584,14.442-9.079S56.472,24.003,49.977,22.522z"/>
			<path fill="#AD0E21" d="M26.864,37.018c0,0,2.269,5.053,6.17,6.164l13.844,3.156c0,0,11.193,0.284,12.468-11.549
				c0,0-2.102,5.775-10.229,6.127C43.995,41.138,26.864,37.018,26.864,37.018z"/>
			<path fill="none" stroke="#231815" stroke-miterlimit="10" d="M49.977,22.522l-30.59-6.975
				c-6.496-1.481-12.961,2.583-14.442,9.079s2.584,12.96,9.079,14.442l30.59,6.975c6.495,1.481,12.961-2.584,14.442-9.079
				S56.472,24.003,49.977,22.522z"/>
			<path fill="none" stroke="#231815" stroke-miterlimit="10" d="M35.199,43.896c-6.496-1.481-10.561-7.947-9.08-14.442
				c1.481-6.496,7.947-10.56,14.442-9.079"/>
			<path fill="#C7C8C9" d="M25.063,40.108c0,0-4.875-12,4-17.125c0,0-8.25,5.875-2.199,17.125H25.063z"/>
		</g>
		
			<ellipse transform="matrix(0.975 0.2223 -0.2223 0.975 7.3773 -10.3685)" fill="#FFFFFF" cx="49.744" cy="27.584" rx="2.524" ry="1.737"/>
		
			<ellipse transform="matrix(0.975 0.2223 -0.2223 0.975 6.1485 -6.8534)" fill="#FFFFFF" cx="33.517" cy="23.885" rx="11.523" ry="1.187"/>
	</g>
	<path fill="#AD0E21" d="M30.438,39.357c0,0-5.625-9.786-0.75-14.625c0,0-5.375,6.016-1.625,12.882L30.438,39.357z"/>
	<path fill="#AD0E21" d="M35.438,39.357c0,0-3.839,0.578-7.357-6.148l1.607,6.826L35.438,39.357z"/>
</g>
</svg>
