<?xml version="1.0" encoding="utf-8"?>
<!-- Generator: Adobe Illustrator 15.0.2, SVG Export Plug-In . SVG Version: 6.00 Build 0)  -->
<!DOCTYPE svg PUBLIC "-//W3C//DTD SVG 1.1//EN" "http://www.w3.org/Graphics/SVG/1.1/DTD/svg11.dtd">
<svg version="1.1" id="レイヤー_1" xmlns="http://www.w3.org/2000/svg" xmlns:xlink="http://www.w3.org/1999/xlink" x="0px"
	 y="0px" width="64px" height="64px" viewBox="0 0 64 64" enable-background="new 0 0 64 64" xml:space="preserve">
<g>
	<path fill="#FFBA98" d="M20.937,16.486c0,0,4.022,4.141,4.614,5.561c0.591,1.42,1.688,5.779,3.904,9.229
		c3.194,4.973,11.733,6.655,15.52,4.17s9.682-11.979,9.444-15.766c0,0,3.786-0.828,4.378-4.732s-2.84-8.637-5.916-6.034
		s-1.774,4.377-1.774,4.377S44.718,2.88,41.523,1.697c-3.195-1.183-11.477-1.183-15.381,0.947
		C22.238,4.773,19.517,11.044,20.937,16.486z"/>
	<linearGradient id="SVGID_1_" gradientUnits="userSpaceOnUse" x1="37.0898" y1="5.8555" x2="43.124" y2="24.9045">
		<stop  offset="0" style="stop-color:#1F5AFF"/>
		<stop  offset="0.0943" style="stop-color:#1C59FF;stop-opacity:0.9057"/>
		<stop  offset="1" style="stop-color:#0055FF;stop-opacity:0"/>
	</linearGradient>
	<path fill="url(#SVGID_1_)" d="M20.937,16.486c0,0,4.022,4.141,4.614,5.561c0.591,1.42,1.688,5.779,3.904,9.229
		c3.194,4.973,11.733,6.655,15.52,4.17s9.682-11.979,9.444-15.766c0,0,3.786-0.828,4.378-4.732s-2.84-8.637-5.916-6.034
		s-1.774,4.377-1.774,4.377S44.718,2.88,41.523,1.697c-3.195-1.183-11.477-1.183-15.381,0.947
		C22.238,4.773,19.517,11.044,20.937,16.486z"/>
	<path fill="none" stroke="#190101" stroke-width="1.5116" stroke-miterlimit="10" d="M20.937,16.486c0,0,4.022,4.141,4.614,5.561
		c0.591,1.42,1.688,5.779,3.904,9.229c3.194,4.973,11.733,6.655,15.52,4.17s9.682-11.979,9.444-15.766c0,0,3.786-0.828,4.378-4.732
		s-2.84-8.637-5.916-6.034s-1.774,4.377-1.774,4.377S44.718,2.88,41.523,1.697c-3.195-1.183-11.477-1.183-15.381,0.947
		C22.238,4.773,19.517,11.044,20.937,16.486z"/>
	<path fill="#823919" stroke="#190801" stroke-width="1.677" stroke-miterlimit="10" d="M18.097-0.669l-6.98,5.442h5.916
		c0,0-4.851,7.454-4.141,10.648l4.969-3.549c0,0,0.473,6.862,2.129,9.702c0,0,4.969-11.24,6.152-12.068c0,0,3.668,4.022,5.797,5.442
		l0.237-6.034c0,0,13.251,2.603,13.724,2.958l0.118-3.431l4.496,9.347l1.538-9.583l2.722,0.237l2.603,0.828
		c0,0,0-13.843-12.187-12.542C45.19-3.272,35.37-15.459,18.097-0.669z"/>
	<g>
		<g>
			
				<line fill="none" stroke="#0C0101" stroke-width="2.2845" stroke-miterlimit="10" x1="25.379" y1="19.005" x2="30.979" y2="22.878"/>
			
				<line fill="none" stroke="#0C0101" stroke-width="2.2845" stroke-miterlimit="10" x1="29.283" y1="16.56" x2="26.929" y2="24.401"/>
		</g>
		<g>
			
				<line fill="none" stroke="#0C0101" stroke-width="2.5259" stroke-miterlimit="10" x1="37.312" y1="14.142" x2="45.944" y2="17.637"/>
			
				<line fill="none" stroke="#0C0101" stroke-width="2.5259" stroke-miterlimit="10" x1="43.85" y1="12.493" x2="39.089" y2="20.077"/>
		</g>
	</g>
	<g>
		<path fill="#510811" d="M32.413,30.256c0,0,0.514,0.404,2.979-0.395c2.466-0.799,7.258-4.102,8.855-3.539
			c1.599,0.562,4.69,2.873,2.725,5.53c0,0-3.521,5.381-11.58,2.787C35.392,34.64,40.009,31.394,32.413,30.256z"/>
	</g>
	<path fill="#D15066" d="M37.604,34.349c0,0,0.012-3.151,4.25-4.18s3.688,1.16,3.688,1.16S47.194,34.587,37.604,34.349z"/>
	<path fill="#9CC92D" d="M40.675,34.706c0,0,0.995,3.904,1.912,5.443c0.917,1.537,2.793,5.662,0,4.377
		c-2.792-1.283-2.396-6.129-2.396-6.129L40.675,34.706z"/>
	<path fill="#9CC92D" d="M26.809,38.397c0,0-3.308,2.344-7.607,2.107c-4.299-0.238-1.223,4.732,2.09,2.957
		C24.604,41.687,26.809,38.397,26.809,38.397z"/>
	
		<linearGradient id="SVGID_2_" gradientUnits="userSpaceOnUse" x1="-69.604" y1="22.3721" x2="-66.3759" y2="26.9295" gradientTransform="matrix(-1 0 0 1 -34.3887 0)">
		<stop  offset="0" style="stop-color:#00A7FF"/>
		<stop  offset="0.2699" style="stop-color:#0087FF"/>
		<stop  offset="0.5554" style="stop-color:#006BFF"/>
		<stop  offset="0.8081" style="stop-color:#005BFF"/>
		<stop  offset="1" style="stop-color:#0055FF"/>
	</linearGradient>
	<path fill="url(#SVGID_2_)" d="M31.839,24.32c0,0.97,0.892,1.758,1.994,1.758c1.105,0,2-0.788,2-1.758c0-0.975-0.895-1.76-2-1.76
		C32.73,22.56,31.839,23.345,31.839,24.32z"/>
	<path fill="#8AAF17" d="M41.373,30.807c0,0-2.329-0.174-3.586,1.5c0,0-2.412,1.055-4.519,2.787
		c-2.105,1.73-6.887,9.281-6.654,11.881c0.233,2.598,2.877,0,2.877,0s-0.511,0.688-1.105,1.795
		c-0.001-0.039-0.001-0.064-0.001-0.064s-0.017,0.061-0.047,0.16c-0.387,0.732-0.802,1.637-1.132,2.65
		c-0.669,1.232-1.66,2.65-3.063,3.77c-2.789,2.23,0.641,4.18,2.446,2.176c0.135,3.313,0.68,6.592,0.68,6.592h9.335
		c0,0-1.17-5.191-1.602-8.727c0.707,0.709,1.608,0.854,2.146-0.482c0.797-1.982-0.564-4.883-1.231-7.395
		c0.298-1.18,0.601-2.318,0.833-3.229c0.244,0.508,0.577,0.77,1.036,0.525c1.36-0.725,0.979-3.979,0.851-6.764
		C39.85,34.69,41.373,30.807,41.373,30.807z"/>
	<path fill="#9CC92D" d="M42.114,32.737c0,0-2.619-0.166-4.03,1.434c0,0-2.714,1.01-5.079,2.666
		c-2.367,1.656-7.743,8.873-7.48,11.357c0.262,2.484,3.234,0,3.234,0s-0.574,0.658-1.242,1.717
		c-0.001-0.037-0.003-0.061-0.003-0.061s-0.018,0.057-0.052,0.15c-0.435,0.703-0.902,1.568-1.273,2.535
		c-0.753,1.18-1.867,2.533-3.443,3.605c-3.135,2.131,0.721,3.996,2.75,2.078c0.151,3.166,0.764,6.303,0.764,6.303h10.491
		c0,0-1.313-4.963-1.797-8.342c0.795,0.676,1.808,0.814,2.411-0.463c0.896-1.895-0.634-4.668-1.384-7.068
		c0.334-1.129,0.676-2.217,0.939-3.088c0.273,0.488,0.646,0.736,1.163,0.504c1.528-0.693,1.101-3.805,0.954-6.467
		C40.403,36.45,42.114,32.737,42.114,32.737z"/>
	<path fill="#FFBA98" stroke="#190101" stroke-width="1.5116" stroke-miterlimit="10" d="M68.301,40.073l-10.743-8.17
		c0,0-3.158-6.877-8.546-4.477c-5.388,2.4-5.836,2.208-5.836,2.208s-2.875,1.765,0.84,2.161l2.912,0.605
		c0,0-1.725,0.861-1.772,3.238c-0.05,2.379,2.205,5.824,5.581,6.234c3.373,0.412,4.038-0.824,4.038-0.824l13.859,8.826
		L68.301,40.073z"/>
	<path fill="#9CC92D" d="M21.563,51.126c0,0-2.586,2.254-3.57,5.939c-0.983,3.688-3.756-0.055-1.581-2.445
		S21.563,51.126,21.563,51.126z"/>
	<path fill="#9CC92D" d="M45.69,41.122c0,0,1.665,1.279,2.165,3.432c0.499,2.154,2.575-0.098,1.199-1.467
		C47.678,41.718,45.69,41.122,45.69,41.122z"/>
</g>
</svg>
