<?xml version="1.0" encoding="utf-8"?>
<!-- Generator: Adobe Illustrator 15.0.2, SVG Export Plug-In . SVG Version: 6.00 Build 0)  -->
<!DOCTYPE svg PUBLIC "-//W3C//DTD SVG 1.1//EN" "http://www.w3.org/Graphics/SVG/1.1/DTD/svg11.dtd">
<svg version="1.1" id="レイヤー_1" xmlns="http://www.w3.org/2000/svg" xmlns:xlink="http://www.w3.org/1999/xlink" x="0px"
	 y="0px" width="64px" height="64px" viewBox="0 0 64 64" enable-background="new 0 0 64 64" xml:space="preserve">
<g>
	<path fill="#1589E9" stroke="#F2FAFF" stroke-miterlimit="10" d="M0.5,41.571c2.25-1.152,5.5,0.519,15.875-1.608
		s46.875,0.804,46.875,0.804"/>
	<line fill="none" stroke="#E7D4B2" stroke-miterlimit="10" x1="37.194" y1="18.702" x2="48.423" y2="36.179"/>
	<path fill="none" stroke="#E7D4B2" stroke-miterlimit="10" d="M39.156,16.86"/>
	<line fill="none" stroke="#E7D4B2" stroke-miterlimit="10" x1="22.005" y1="21.569" x2="11.554" y2="32.02"/>
	<g>
		<g>
			<rect x="12.046" y="28.962" fill="#E7D4B2" width="5.787" height="4.694"/>
		</g>
		<defs>
			<filter id="Adobe_OpacityMaskFilter" filterUnits="userSpaceOnUse" x="12.046" y="28.962" width="5.787" height="4.694">
				<feFlood  style="flood-color:white;flood-opacity:1" result="back"/>
				<feBlend  in="SourceGraphic" in2="back" mode="normal"/>
			</filter>
		</defs>
		<mask maskUnits="userSpaceOnUse" x="12.046" y="28.962" width="5.787" height="4.694" id="SVGID_1_">
			<g filter="url(#Adobe_OpacityMaskFilter)">
				<image overflow="visible" width="10" height="10" xlink:href="AAB5FBB5.jpg"  transform="matrix(1 0 0 1 10 26)">
				</image>
			</g>
		</mask>
		<g opacity="0.15" mask="url(#SVGID_1_)">
			<rect x="12.046" y="28.962" fill="#443111" width="5.787" height="4.694"/>
		</g>
	</g>
	<line fill="none" stroke="#E7D4B2" stroke-miterlimit="10" x1="24.128" y1="21.419" x2="13.677" y2="31.871"/>
	<g>
		<g>
			<linearGradient id="SVGID_2_" gradientUnits="userSpaceOnUse" x1="28.687" y1="27.2944" x2="28.687" y2="37.4258">
				<stop  offset="0" style="stop-color:#FFDCA1"/>
				<stop  offset="1" style="stop-color:#9E6A48"/>
			</linearGradient>
			<rect x="23" y="26.235" fill="url(#SVGID_2_)" width="11.375" height="8.817"/>
		</g>
		<defs>
			<filter id="Adobe_OpacityMaskFilter_1_" filterUnits="userSpaceOnUse" x="23" y="26.235" width="11.375" height="8.817">
				<feFlood  style="flood-color:white;flood-opacity:1" result="back"/>
				<feBlend  in="SourceGraphic" in2="back" mode="normal"/>
			</filter>
		</defs>
		<mask maskUnits="userSpaceOnUse" x="23" y="26.235" width="11.375" height="8.817" id="SVGID_3_">
			<g filter="url(#Adobe_OpacityMaskFilter_1_)">
				<image overflow="visible" width="16" height="14" xlink:href="AAB5FBB7.jpg"  transform="matrix(1 0 0 1 21 24)">
				</image>
			</g>
		</mask>
		<g opacity="0.15" mask="url(#SVGID_3_)">
			<rect x="23" y="26.235" fill="#443111" width="11.375" height="8.817"/>
		</g>
	</g>
	<g>
		<g>
			<linearGradient id="SVGID_4_" gradientUnits="userSpaceOnUse" x1="27.9995" y1="27.2944" x2="27.9995" y2="37.4257">
				<stop  offset="0" style="stop-color:#FFDCA1"/>
				<stop  offset="1" style="stop-color:#9E6A48"/>
			</linearGradient>
			<rect x="21.625" y="28.048" fill="url(#SVGID_4_)" width="12.75" height="7.003"/>
		</g>
		<defs>
			<filter id="Adobe_OpacityMaskFilter_2_" filterUnits="userSpaceOnUse" x="21.625" y="28.048" width="12.75" height="7.003">
				<feFlood  style="flood-color:white;flood-opacity:1" result="back"/>
				<feBlend  in="SourceGraphic" in2="back" mode="normal"/>
			</filter>
		</defs>
		<mask maskUnits="userSpaceOnUse" x="21.625" y="28.048" width="12.75" height="7.003" id="SVGID_5_">
			<g filter="url(#Adobe_OpacityMaskFilter_2_)">
				<image overflow="visible" width="18" height="12" xlink:href="AAB5FBB2.jpg"  transform="matrix(1 0 0 1 19 26)">
				</image>
			</g>
		</mask>
		<g opacity="0.15" mask="url(#SVGID_5_)">
			<rect x="21.625" y="28.048" fill="#443111" width="12.75" height="7.003"/>
		</g>
	</g>
	<g>
		<g>
			<linearGradient id="SVGID_6_" gradientUnits="userSpaceOnUse" x1="28.687" y1="27.2944" x2="28.687" y2="37.4264">
				<stop  offset="0" style="stop-color:#FFDCA1"/>
				<stop  offset="1" style="stop-color:#9E6A48"/>
			</linearGradient>
			<rect x="23" y="26.235" fill="url(#SVGID_6_)" width="11.375" height="5.495"/>
		</g>
		<defs>
			<filter id="Adobe_OpacityMaskFilter_3_" filterUnits="userSpaceOnUse" x="23" y="26.235" width="11.375" height="5.495">
				<feFlood  style="flood-color:white;flood-opacity:1" result="back"/>
				<feBlend  in="SourceGraphic" in2="back" mode="normal"/>
			</filter>
		</defs>
		<mask maskUnits="userSpaceOnUse" x="23" y="26.235" width="11.375" height="5.495" id="SVGID_7_">
			<g filter="url(#Adobe_OpacityMaskFilter_3_)">
				<image overflow="visible" width="16" height="10" xlink:href="AAB5FBB3.jpg"  transform="matrix(1 0 0 1 21 24)">
				</image>
			</g>
		</mask>
		<g opacity="0.15" mask="url(#SVGID_7_)">
			<rect x="23" y="26.235" fill="#443111" width="11.375" height="5.495"/>
		</g>
	</g>
	<linearGradient id="SVGID_8_" gradientUnits="userSpaceOnUse" x1="25.6875" y1="27.3032" x2="25.6875" y2="36.0909">
		<stop  offset="0" style="stop-color:#FFDCA1"/>
		<stop  offset="1" style="stop-color:#9E6A48"/>
	</linearGradient>
	<rect x="25.125" y="18.253" fill="url(#SVGID_8_)" width="1.125" height="9.107"/>
	<g>
		<g>
			<linearGradient id="SVGID_9_" gradientUnits="userSpaceOnUse" x1="27.9995" y1="27.2944" x2="27.9995" y2="37.4257">
				<stop  offset="0" style="stop-color:#FFDCA1"/>
				<stop  offset="1" style="stop-color:#9E6A48"/>
			</linearGradient>
			<rect x="21.625" y="28.048" fill="url(#SVGID_9_)" width="12.75" height="7.003"/>
		</g>
		<defs>
			<filter id="Adobe_OpacityMaskFilter_4_" filterUnits="userSpaceOnUse" x="21.625" y="28.048" width="12.75" height="7.003">
				<feFlood  style="flood-color:white;flood-opacity:1" result="back"/>
				<feBlend  in="SourceGraphic" in2="back" mode="normal"/>
			</filter>
		</defs>
		<mask maskUnits="userSpaceOnUse" x="21.625" y="28.048" width="12.75" height="7.003" id="SVGID_10_">
			<g filter="url(#Adobe_OpacityMaskFilter_4_)">
				<image overflow="visible" width="18" height="12" xlink:href="AAB5FBBD.jpg"  transform="matrix(1 0 0 1 19 26)">
				</image>
			</g>
		</mask>
		<g opacity="0.15" mask="url(#SVGID_10_)">
			<rect x="21.625" y="28.048" fill="#443111" width="12.75" height="7.003"/>
		</g>
	</g>
	<g>
		<g>
			<linearGradient id="SVGID_11_" gradientUnits="userSpaceOnUse" x1="12.0518" y1="27.2944" x2="12.0518" y2="37.426">
				<stop  offset="0" style="stop-color:#FFDCA1"/>
				<stop  offset="1" style="stop-color:#9E6A48"/>
			</linearGradient>
			<rect x="11.554" y="22.11" fill="url(#SVGID_11_)" width="0.996" height="12.942"/>
		</g>
		<defs>
			<filter id="Adobe_OpacityMaskFilter_5_" filterUnits="userSpaceOnUse" x="11.554" y="22.11" width="0.996" height="12.942">
				<feFlood  style="flood-color:white;flood-opacity:1" result="back"/>
				<feBlend  in="SourceGraphic" in2="back" mode="normal"/>
			</filter>
		</defs>
		<mask maskUnits="userSpaceOnUse" x="11.554" y="22.11" width="0.996" height="12.942" id="SVGID_12_">
			<g filter="url(#Adobe_OpacityMaskFilter_5_)">
				<image overflow="visible" width="6" height="18" xlink:href="AAB5FBBF.jpg"  transform="matrix(1 0 0 1 9 20)">
				</image>
			</g>
		</mask>
		<g opacity="0.15" mask="url(#SVGID_12_)">
			<rect x="11.554" y="22.11" fill="#443111" width="0.996" height="12.942"/>
		</g>
	</g>
	<linearGradient id="SVGID_13_" gradientUnits="userSpaceOnUse" x1="46.4668" y1="21.9658" x2="46.4668" y2="36.7564">
		<stop  offset="0" style="stop-color:#FFDCA1"/>
		<stop  offset="1" style="stop-color:#9E6A48"/>
	</linearGradient>
	<polygon fill="url(#SVGID_13_)" points="48.177,37.294 44.758,37.043 45.472,17.586 47.461,17.586 	"/>
	<g>
		<g>
			<linearGradient id="SVGID_14_" gradientUnits="userSpaceOnUse" x1="39.4395" y1="28.6748" x2="39.4395" y2="37.6408">
				<stop  offset="0" style="stop-color:#FFDCA1"/>
				<stop  offset="1" style="stop-color:#9E6A48"/>
			</linearGradient>
			<rect x="32.417" y="26.794" fill="url(#SVGID_14_)" width="14.044" height="12.5"/>
		</g>
		<defs>
			<filter id="Adobe_OpacityMaskFilter_6_" filterUnits="userSpaceOnUse" x="32.417" y="26.794" width="14.044" height="12.5">
				<feFlood  style="flood-color:white;flood-opacity:1" result="back"/>
				<feBlend  in="SourceGraphic" in2="back" mode="normal"/>
			</filter>
		</defs>
		<mask maskUnits="userSpaceOnUse" x="32.417" y="26.794" width="14.044" height="12.5" id="SVGID_15_">
			<g filter="url(#Adobe_OpacityMaskFilter_6_)">
				<image overflow="visible" width="19" height="18" xlink:href="AAB5FBB0.jpg"  transform="matrix(1 0 0 1 30 24)">
				</image>
			</g>
		</mask>
		<g opacity="0.15" mask="url(#SVGID_15_)">
			<rect x="32.417" y="26.794" fill="#443111" width="14.044" height="12.5"/>
		</g>
	</g>
	<g>
		<g>
			<linearGradient id="SVGID_16_" gradientUnits="userSpaceOnUse" x1="55.1191" y1="27.2944" x2="55.1191" y2="37.426">
				<stop  offset="0" style="stop-color:#FFDCA1"/>
				<stop  offset="1" style="stop-color:#9E6A48"/>
			</linearGradient>
			<polygon fill="url(#SVGID_16_)" points="56.473,37.294 53.767,37.294 54.278,25.169 55.738,25.169 			"/>
		</g>
		<defs>
			<filter id="Adobe_OpacityMaskFilter_7_" filterUnits="userSpaceOnUse" x="53.767" y="25.169" width="2.706" height="12.125">
				<feFlood  style="flood-color:white;flood-opacity:1" result="back"/>
				<feBlend  in="SourceGraphic" in2="back" mode="normal"/>
			</filter>
		</defs>
		<mask maskUnits="userSpaceOnUse" x="53.767" y="25.169" width="2.706" height="12.125" id="SVGID_17_">
			<g filter="url(#Adobe_OpacityMaskFilter_7_)">
				<image overflow="visible" width="8" height="17" xlink:href="AAB5FBB1.jpg"  transform="matrix(1 0 0 1 51 23)">
				</image>
			</g>
		</mask>
		<g opacity="0.15" mask="url(#SVGID_17_)">
			<polygon fill="#443111" points="56.473,37.294 53.767,37.294 54.278,25.169 55.738,25.169 			"/>
		</g>
	</g>
	<g>
		<g>
			<linearGradient id="SVGID_18_" gradientUnits="userSpaceOnUse" x1="55.0957" y1="27.2949" x2="55.0957" y2="37.426">
				<stop  offset="0" style="stop-color:#FFDCA1"/>
				<stop  offset="1" style="stop-color:#9E6A48"/>
			</linearGradient>
			<rect x="49.385" y="31.64" fill="url(#SVGID_18_)" width="11.422" height="5.654"/>
		</g>
		<defs>
			<filter id="Adobe_OpacityMaskFilter_8_" filterUnits="userSpaceOnUse" x="49.385" y="31.64" width="11.422" height="5.654">
				<feFlood  style="flood-color:white;flood-opacity:1" result="back"/>
				<feBlend  in="SourceGraphic" in2="back" mode="normal"/>
			</filter>
		</defs>
		<mask maskUnits="userSpaceOnUse" x="49.385" y="31.64" width="11.422" height="5.654" id="SVGID_19_">
			<g filter="url(#Adobe_OpacityMaskFilter_8_)">
				<image overflow="visible" width="16" height="11" xlink:href="AAB5FBB6.jpg"  transform="matrix(1 0 0 1 47 29)">
				</image>
			</g>
		</mask>
		<g opacity="0.15" mask="url(#SVGID_19_)">
			<rect x="49.385" y="31.64" fill="#443111" width="11.422" height="5.654"/>
		</g>
	</g>
	<g>
		<linearGradient id="SVGID_20_" gradientUnits="userSpaceOnUse" x1="25.6465" y1="28.7085" x2="25.6465" y2="36.6079">
			<stop  offset="0" style="stop-color:#4A2810"/>
			<stop  offset="1" style="stop-color:#FFDCA1;stop-opacity:0"/>
		</linearGradient>
		<rect x="24.625" y="28.708" fill="url(#SVGID_20_)" width="2.043" height="7.899"/>
		<linearGradient id="SVGID_21_" gradientUnits="userSpaceOnUse" x1="34.8965" y1="29.707" x2="34.8965" y2="37.6069">
			<stop  offset="0" style="stop-color:#4A2810"/>
			<stop  offset="1" style="stop-color:#FFDCA1;stop-opacity:0"/>
		</linearGradient>
		<rect x="33.875" y="29.707" fill="url(#SVGID_21_)" width="2.043" height="7.899"/>
		<linearGradient id="SVGID_22_" gradientUnits="userSpaceOnUse" x1="37.6875" y1="29.707" x2="37.6875" y2="37.6069">
			<stop  offset="0" style="stop-color:#4A2810"/>
			<stop  offset="1" style="stop-color:#FFDCA1;stop-opacity:0"/>
		</linearGradient>
		<rect x="36.666" y="29.707" fill="url(#SVGID_22_)" width="2.043" height="7.899"/>
		<linearGradient id="SVGID_23_" gradientUnits="userSpaceOnUse" x1="40.6191" y1="29.707" x2="40.6191" y2="37.6069">
			<stop  offset="0" style="stop-color:#4A2810"/>
			<stop  offset="1" style="stop-color:#FFDCA1;stop-opacity:0"/>
		</linearGradient>
		<rect x="39.598" y="29.707" fill="url(#SVGID_23_)" width="2.043" height="7.899"/>
		<linearGradient id="SVGID_24_" gradientUnits="userSpaceOnUse" x1="43.292" y1="29.707" x2="43.292" y2="37.6069">
			<stop  offset="0" style="stop-color:#4A2810"/>
			<stop  offset="1" style="stop-color:#FFDCA1;stop-opacity:0"/>
		</linearGradient>
		<rect x="42.271" y="29.707" fill="url(#SVGID_24_)" width="2.043" height="7.899"/>
	</g>
	<g>
		<g>
			<linearGradient id="SVGID_25_" gradientUnits="userSpaceOnUse" x1="52.0791" y1="27.2944" x2="52.0791" y2="37.4258">
				<stop  offset="0" style="stop-color:#FFDCA1"/>
				<stop  offset="1" style="stop-color:#9E6A48"/>
			</linearGradient>
			<polygon fill="url(#SVGID_25_)" points="56.473,37.294 47.686,37.294 47.686,29.654 52.306,29.654 			"/>
		</g>
		<defs>
			<filter id="Adobe_OpacityMaskFilter_9_" filterUnits="userSpaceOnUse" x="47.686" y="29.654" width="8.787" height="7.64">
				<feFlood  style="flood-color:white;flood-opacity:1" result="back"/>
				<feBlend  in="SourceGraphic" in2="back" mode="normal"/>
			</filter>
		</defs>
		<mask maskUnits="userSpaceOnUse" x="47.686" y="29.654" width="8.787" height="7.64" id="SVGID_26_">
			<g filter="url(#Adobe_OpacityMaskFilter_9_)">
				<image overflow="visible" width="14" height="13" xlink:href="AC4D613E.jpg"  transform="matrix(1 0 0 1 45 27)">
				</image>
			</g>
		</mask>
		<g opacity="0.15" mask="url(#SVGID_26_)">
			<polygon fill="#443111" points="56.473,37.294 47.686,37.294 47.686,29.654 52.306,29.654 			"/>
		</g>
	</g>
	<linearGradient id="SVGID_27_" gradientUnits="userSpaceOnUse" x1="49.2031" y1="30.8418" x2="49.2031" y2="37.2944">
		<stop  offset="0" style="stop-color:#201810"/>
		<stop  offset="0.0385" style="stop-color:#292016;stop-opacity:0.9615"/>
		<stop  offset="0.5177" style="stop-color:#9B8460;stop-opacity:0.4823"/>
		<stop  offset="0.8476" style="stop-color:#E3C38F;stop-opacity:0.1524"/>
		<stop  offset="1" style="stop-color:#FFDCA1;stop-opacity:0"/>
	</linearGradient>
	<rect x="48.53" y="30.842" fill="url(#SVGID_27_)" width="1.345" height="6.452"/>
	<linearGradient id="SVGID_28_" gradientUnits="userSpaceOnUse" x1="39.0176" y1="26.1641" x2="39.0176" y2="34.064">
		<stop  offset="0" style="stop-color:#201810"/>
		<stop  offset="0.0385" style="stop-color:#292016;stop-opacity:0.9615"/>
		<stop  offset="0.5177" style="stop-color:#9B8460;stop-opacity:0.4823"/>
		<stop  offset="0.8476" style="stop-color:#E3C38F;stop-opacity:0.1524"/>
		<stop  offset="1" style="stop-color:#FFDCA1;stop-opacity:0"/>
	</linearGradient>
	<rect x="33.155" y="26.164" fill="url(#SVGID_28_)" width="11.724" height="7.899"/>
	<g>
		<path fill="none" stroke="#F3EEE8" stroke-miterlimit="10" d="M37.539,36.607l-0.285-3.112c0,0,3.109,0.142,23.371,0.427
			l0.182,1.992"/>
		<line fill="none" stroke="#F3EEE8" stroke-miterlimit="10" x1="39.156" y1="36.459" x2="38.898" y2="33.635"/>
		<line fill="none" stroke="#F3EEE8" stroke-miterlimit="10" x1="40.619" y1="36.422" x2="40.363" y2="33.637"/>
		<line fill="none" stroke="#F3EEE8" stroke-miterlimit="10" x1="42.078" y1="36.383" x2="41.826" y2="33.638"/>
		<line fill="none" stroke="#F3EEE8" stroke-miterlimit="10" x1="43.54" y1="36.344" x2="43.292" y2="33.64"/>
		<line fill="none" stroke="#F3EEE8" stroke-miterlimit="10" x1="45.001" y1="36.306" x2="44.758" y2="33.641"/>
		<line fill="none" stroke="#F3EEE8" stroke-miterlimit="10" x1="46.461" y1="36.27" x2="46.221" y2="33.643"/>
		<line fill="none" stroke="#F3EEE8" stroke-miterlimit="10" x1="47.922" y1="36.23" x2="47.686" y2="33.644"/>
		<line fill="none" stroke="#F3EEE8" stroke-miterlimit="10" x1="49.385" y1="36.191" x2="49.15" y2="33.645"/>
		<line fill="none" stroke="#F3EEE8" stroke-miterlimit="10" x1="50.844" y1="36.153" x2="50.614" y2="33.646"/>
		<line fill="none" stroke="#F3EEE8" stroke-miterlimit="10" x1="52.306" y1="36.116" x2="52.08" y2="33.647"/>
		<line fill="none" stroke="#F3EEE8" stroke-miterlimit="10" x1="53.767" y1="36.077" x2="53.544" y2="33.65"/>
		<line fill="none" stroke="#F3EEE8" stroke-miterlimit="10" x1="55.227" y1="36.039" x2="55.008" y2="33.651"/>
		<line fill="none" stroke="#F3EEE8" stroke-miterlimit="10" x1="56.688" y1="36.001" x2="56.473" y2="33.653"/>
		<line fill="none" stroke="#F3EEE8" stroke-miterlimit="10" x1="58.15" y1="35.964" x2="57.938" y2="33.654"/>
		<line fill="none" stroke="#F3EEE8" stroke-miterlimit="10" x1="59.609" y1="35.926" x2="59.402" y2="33.656"/>
	</g>
	<linearGradient id="SVGID_29_" gradientUnits="userSpaceOnUse" x1="25.8188" y1="26.5444" x2="25.8188" y2="31.4335">
		<stop  offset="0.1693" style="stop-color:#201810"/>
		<stop  offset="0.2012" style="stop-color:#292016;stop-opacity:0.9615"/>
		<stop  offset="0.5993" style="stop-color:#9B8460;stop-opacity:0.4823"/>
		<stop  offset="0.8734" style="stop-color:#E3C38F;stop-opacity:0.1524"/>
		<stop  offset="1" style="stop-color:#FFDCA1;stop-opacity:0"/>
	</linearGradient>
	<rect x="23.638" y="27.789" fill="url(#SVGID_29_)" width="4.362" height="6.275"/>
	<g>
		<path fill="none" stroke="#F3EEE8" stroke-miterlimit="10" d="M1.625,31.544v-3.125c0,0,8,1.75,34.25,3.125v2"/>
		<g>
			<line fill="none" stroke="#F3EEE8" stroke-miterlimit="10" x1="3.25" y1="31.544" x2="3.25" y2="28.708"/>
			<line fill="none" stroke="#F3EEE8" stroke-miterlimit="10" x1="4.708" y1="31.64" x2="4.708" y2="28.844"/>
			<line fill="none" stroke="#F3EEE8" stroke-miterlimit="10" x1="6.166" y1="31.735" x2="6.166" y2="28.979"/>
			<line fill="none" stroke="#F3EEE8" stroke-miterlimit="10" x1="7.625" y1="31.83" x2="7.625" y2="29.114"/>
			<line fill="none" stroke="#F3EEE8" stroke-miterlimit="10" x1="9.083" y1="31.925" x2="9.083" y2="29.249"/>
			<line fill="none" stroke="#F3EEE8" stroke-miterlimit="10" x1="10.541" y1="32.021" x2="10.541" y2="29.384"/>
			<line fill="none" stroke="#F3EEE8" stroke-miterlimit="10" x1="12" y1="32.116" x2="12" y2="29.519"/>
			<line fill="none" stroke="#F3EEE8" stroke-miterlimit="10" x1="13.458" y1="32.211" x2="13.458" y2="29.654"/>
			<line fill="none" stroke="#F3EEE8" stroke-miterlimit="10" x1="14.916" y1="32.306" x2="14.916" y2="29.789"/>
			<line fill="none" stroke="#F3EEE8" stroke-miterlimit="10" x1="16.375" y1="32.401" x2="16.375" y2="29.924"/>
			<line fill="none" stroke="#F3EEE8" stroke-miterlimit="10" x1="17.833" y1="32.497" x2="17.833" y2="30.059"/>
			<line fill="none" stroke="#F3EEE8" stroke-miterlimit="10" x1="19.291" y1="32.592" x2="19.291" y2="30.194"/>
			<line fill="none" stroke="#F3EEE8" stroke-miterlimit="10" x1="20.75" y1="32.688" x2="20.75" y2="30.329"/>
			<line fill="none" stroke="#F3EEE8" stroke-miterlimit="10" x1="22.208" y1="32.783" x2="22.208" y2="30.464"/>
			<line fill="none" stroke="#F3EEE8" stroke-miterlimit="10" x1="23.666" y1="32.878" x2="23.666" y2="30.599"/>
			<line fill="none" stroke="#F3EEE8" stroke-miterlimit="10" x1="25.125" y1="32.973" x2="25.125" y2="30.734"/>
			<line fill="none" stroke="#F3EEE8" stroke-miterlimit="10" x1="26.583" y1="33.068" x2="26.583" y2="30.869"/>
			<line fill="none" stroke="#F3EEE8" stroke-miterlimit="10" x1="28.041" y1="33.163" x2="28.041" y2="31.004"/>
			<line fill="none" stroke="#F3EEE8" stroke-miterlimit="10" x1="29.5" y1="33.259" x2="29.5" y2="31.139"/>
			<line fill="none" stroke="#F3EEE8" stroke-miterlimit="10" x1="30.958" y1="33.354" x2="30.958" y2="31.274"/>
			<line fill="none" stroke="#F3EEE8" stroke-miterlimit="10" x1="32.417" y1="33.448" x2="32.417" y2="31.409"/>
			<line fill="none" stroke="#F3EEE8" stroke-miterlimit="10" x1="33.875" y1="33.657" x2="33.875" y2="31.658"/>
		</g>
	</g>
	<g>
		<linearGradient id="SVGID_30_" gradientUnits="userSpaceOnUse" x1="1.4429" y1="36.1416" x2="63.3578" y2="41.8837">
			<stop  offset="0" style="stop-color:#12120F"/>
			<stop  offset="0.4727" style="stop-color:#171314"/>
			<stop  offset="1" style="stop-color:#000000"/>
		</linearGradient>
		<path fill="url(#SVGID_30_)" stroke="#000000" stroke-width="0.5" stroke-miterlimit="2" d="M0.5,31.544c0,0,30.25,2.875,36,2.5
			l0.125,1.5c0,0,17.625,1.5,24.5,0c0,0,1.75,3.242-0.125,5.867c0,0-44.696,1.563-49.321,1.813
			C11.679,43.224,8.375,36.044,0.5,31.544z"/>
		<g>
			<g>
				<path fill="#D02C28" d="M11.429,43.849c0,0-0.471-1.555-2.596-4.555c0,0,19.697,2.644,53.197,0.026
					c-0.163,2.057-0.78,2.716-0.78,2.716L11.429,43.849z"/>
			</g>
			<defs>
				<filter id="Adobe_OpacityMaskFilter_10_" filterUnits="userSpaceOnUse" x="8.833" y="39.294" width="53.197" height="4.555">
					
						<feColorMatrix  type="matrix" values="-1 0 0 0 1  0 -1 0 0 1  0 0 -1 0 1  0 0 0 1 0" color-interpolation-filters="sRGB" result="source"/>
				</filter>
			</defs>
			<mask maskUnits="userSpaceOnUse" x="8.833" y="39.294" width="53.197" height="4.555" id="SVGID_31_">
				<g filter="url(#Adobe_OpacityMaskFilter_10_)">
					<image overflow="visible" width="59" height="9" xlink:href="AC4D6139.jpg"  transform="matrix(1 0 0 1 6 37)">
					</image>
				</g>
			</mask>
			<g opacity="0.45" mask="url(#SVGID_31_)">
				<path fill="#770404" d="M11.429,43.849c0,0-0.471-1.555-2.596-4.555c0,0,19.697,2.644,53.197,0.026
					c-0.163,2.057-0.78,2.716-0.78,2.716L11.429,43.849z"/>
			</g>
		</g>
	</g>
	<rect x="32.417" y="25.169" fill="#FFDCA1" width="12.584" height="3.25"/>
	<g>
		<path fill="#FFFFFF" d="M27.99,39.108l-0.285-0.467c-0.063-0.098-0.113-0.164-0.152-0.199s-0.085-0.054-0.139-0.054h-0.048v0.712
			h-0.575v-1.895h0.93c0.154,0,0.262,0.006,0.322,0.017c0.115,0.018,0.211,0.06,0.285,0.125c0.122,0.103,0.184,0.237,0.184,0.402
			c0,0.257-0.133,0.439-0.399,0.546c0.104,0.074,0.198,0.184,0.279,0.327l0.274,0.485H27.99z M27.622,37.651h-0.253v0.296h0.253
			c0.102,0,0.169-0.006,0.202-0.017c0.059-0.018,0.088-0.061,0.088-0.128c0-0.07-0.029-0.116-0.088-0.136
			C27.796,37.656,27.729,37.651,27.622,37.651z"/>
		<path fill="#FFFFFF" d="M28.845,39.108v-1.91h1.579v0.464h-0.993v0.231h0.916v0.461h-0.916v0.279h1.022v0.475H28.845z"/>
		<path fill="#FFFFFF" d="M31.557,39.146c-0.284,0-0.497-0.055-0.64-0.165c-0.078-0.059-0.141-0.143-0.187-0.253
			c-0.041-0.098-0.063-0.2-0.066-0.307l0.554-0.026c0.045,0.191,0.156,0.287,0.336,0.287c0.087,0,0.149-0.011,0.187-0.034
			c0.037-0.02,0.056-0.057,0.056-0.112c0-0.072-0.045-0.122-0.136-0.148c-0.122-0.028-0.244-0.058-0.365-0.086
			c-0.371-0.109-0.557-0.301-0.557-0.572c0-0.183,0.085-0.326,0.254-0.429c0.144-0.091,0.322-0.136,0.535-0.136
			c0.473,0,0.742,0.187,0.81,0.559l-0.567,0.083c-0.041-0.133-0.125-0.2-0.253-0.2c-0.065,0-0.108,0.003-0.128,0.009
			c-0.048,0.012-0.072,0.04-0.072,0.085c0,0.042,0.03,0.074,0.091,0.096c0.039,0.015,0.128,0.035,0.267,0.064
			c0.206,0.044,0.362,0.1,0.469,0.167c0.173,0.11,0.259,0.268,0.259,0.472c0,0.137-0.041,0.259-0.123,0.365
			C32.137,39.052,31.896,39.146,31.557,39.146z"/>
		<path fill="#FFFFFF" d="M32.67,39.108v-1.91h1.58v0.464h-0.994v0.231h0.917v0.461h-0.917v0.279h1.023v0.475H32.67z"/>
		<path fill="#FFFFFF" d="M35.848,39.108l-0.112-0.322h-0.609l-0.106,0.322h-0.621l0.746-1.91h0.58l0.754,1.91H35.848z
			 M35.438,37.909l-0.146,0.397h0.285L35.438,37.909z"/>
		<path fill="#FFFFFF" d="M37.843,39.108l-0.285-0.467c-0.062-0.098-0.112-0.164-0.151-0.199s-0.085-0.054-0.139-0.054H37.22v0.712
			h-0.575v-1.895h0.93c0.154,0,0.262,0.006,0.322,0.017c0.115,0.018,0.21,0.06,0.285,0.125c0.122,0.103,0.184,0.237,0.184,0.402
			c0,0.257-0.133,0.439-0.399,0.546c0.104,0.074,0.197,0.184,0.279,0.327l0.274,0.485H37.843z M37.476,37.651h-0.253v0.296h0.253
			c0.101,0,0.169-0.006,0.202-0.017c0.059-0.018,0.088-0.061,0.088-0.128c0-0.07-0.029-0.116-0.088-0.136
			C37.649,37.656,37.582,37.651,37.476,37.651z"/>
		<path fill="#FFFFFF" d="M39.596,39.146c-0.328,0-0.579-0.103-0.754-0.309c-0.148-0.176-0.224-0.401-0.224-0.677
			c0-0.327,0.098-0.579,0.293-0.757c0.175-0.16,0.401-0.239,0.683-0.239c0.229,0,0.414,0.052,0.557,0.157
			c0.131,0.098,0.237,0.251,0.316,0.46l-0.538,0.12c-0.037-0.085-0.077-0.146-0.119-0.184c-0.054-0.044-0.126-0.066-0.216-0.066
			c-0.137,0-0.235,0.048-0.296,0.144c-0.046,0.08-0.069,0.199-0.069,0.357c0,0.176,0.026,0.304,0.08,0.383
			c0.055,0.078,0.145,0.117,0.269,0.117c0.106,0,0.189-0.032,0.248-0.099c0.041-0.048,0.078-0.13,0.112-0.247l0.535,0.144
			C40.345,38.914,40.053,39.146,39.596,39.146z"/>
		<path fill="#FFFFFF" d="M41.903,39.108v-0.749h-0.603v0.749h-0.583v-1.91h0.583v0.655h0.603v-0.655h0.589v1.91H41.903z"/>
	</g>
	<path fill="#05669A" d="M0.083,45.836c0,0,3.851-3.5,12.467-3.75c8.617-0.25,8.112,2.82,18.033,1.763
		c9.922-1.058,14.184-1.899,20.261-1.777s7.489-1.236,12.406,0.598"/>
	<path fill="#2B9FEE" d="M0.5,46.315c2.61-3.21,12.127-3.064,17.012,0c4.886,3.064,15.484-3.356,24.881-3.939
		s13.356,1.751,14.282,2.48c0.926,0.73,7.242,1.313,7.242,1.313"/>
</g>
</svg>
