<?xml version="1.0" encoding="utf-8"?>
<!-- Generator: Adobe Illustrator 15.0.2, SVG Export Plug-In . SVG Version: 6.00 Build 0)  -->
<!DOCTYPE svg PUBLIC "-//W3C//DTD SVG 1.1//EN" "http://www.w3.org/Graphics/SVG/1.1/DTD/svg11.dtd">
<svg version="1.1" id="レイヤー_1" xmlns="http://www.w3.org/2000/svg" xmlns:xlink="http://www.w3.org/1999/xlink" x="0px"
	 y="0px" width="64px" height="64px" viewBox="0 0 64 64" enable-background="new 0 0 64 64" xml:space="preserve">
<g>
	<path fill="#FFF9F5" stroke="#231815" stroke-miterlimit="10" d="M49.64,32.672l-4.818,2.833c1.049,4.938-2.343,14.522-4.196,18.65
		H23.357c-1.854-4.128-5.645-13.391-4.597-18.328l-4.86-3.155c0,0,2.282,15.292,6.364,26.135l0.233-0.237v0.237l7.362,3.31h7.804
		l7.378-3.31v-0.237l0.232,0.237C48.512,44.381,49.64,32.672,49.64,32.672z"/>
	<polygon fill="#DADBDB" points="45.224,37.839 48.763,36.39 46.923,45.536 45.224,42.905 	"/>
	<polygon fill="#DADBDB" points="18.581,36.969 14.732,35.513 16.607,43.95 	"/>
	<polygon fill="#DADBDB" points="41.967,54.473 28.868,59.555 39.224,59.153 	"/>
	<g>
		<path fill="#FFF9F5" stroke="#231815" stroke-width="0.785" stroke-miterlimit="10" d="M27.47,54.473c0-2.203,0-3.987-2.056-3.987
			c-2.057,0-2.057,1.784-2.057,3.987c0,2.201,0.921,3.986,2.057,3.986C26.549,58.459,27.47,56.674,27.47,54.473z"/>
		<path fill="#FFF9F5" stroke="#231815" stroke-width="0.785" stroke-miterlimit="10" d="M31.653,54.473
			c0-2.203,0-3.987-2.056-3.987s-2.056,1.784-2.056,3.987c0,2.201,0.92,3.986,2.056,3.986
			C30.732,58.459,31.653,56.674,31.653,54.473z"/>
		<path fill="#FFF9F5" stroke="#231815" stroke-width="0.785" stroke-miterlimit="10" d="M35.94,54.473c0-2.203,0-3.987-2.056-3.987
			c-2.057,0-2.057,1.784-2.057,3.987c0,2.201,0.921,3.986,2.057,3.986C35.02,58.459,35.94,56.674,35.94,54.473z"/>
		<path fill="#FFF9F5" stroke="#231815" stroke-width="0.785" stroke-miterlimit="10" d="M40.183,54.473
			c0-2.203,0-3.987-2.057-3.987c-2.056,0-2.056,1.784-2.056,3.987c0,2.201,0.92,3.986,2.056,3.986
			C39.263,58.459,40.183,56.674,40.183,54.473z"/>
	</g>
	<path fill="#FFF9F5" stroke="#231815" stroke-miterlimit="10" d="M49.126,26.592C52.953,6.709,42.543,1.884,31.801,1.884
		c-10.742,0-20.861,5.491-17.45,24.708c-4.895,4.402-0.791,10.153,6.972,12.312l3.453,5.047h14.358l3.143-5.048
		C50.035,36.744,55.146,30.668,49.126,26.592z"/>
	<path fill="#DADBDB" d="M37.459,35.323c0,0,2.617,4.195,11.304-0.426C48.763,34.897,41.512,42.465,37.459,35.323z"/>
	<path fill="#DADBDB" d="M46.27,7.997c0,0,5.148,5.441,2.493,18.808c0,0-1.126-6.179-3.86-7.869
		C44.902,18.936,47.315,15.396,46.27,7.997z"/>
	<g>
		<path fill="#FFF9F5" stroke="#231815" stroke-width="0.5888" stroke-miterlimit="10" d="M28.308,45.084
			c0,1.851,0,3.353-1.766,3.353c-1.765,0-1.765-1.502-1.765-3.353c0-1.853,0.791-3.354,1.765-3.354
			C27.518,41.73,28.308,43.231,28.308,45.084z"/>
		<path fill="#FFF9F5" stroke="#231815" stroke-width="0.5888" stroke-miterlimit="10" d="M31.9,45.084c0,1.851,0,3.353-1.766,3.353
			c-1.766,0-1.766-1.502-1.766-3.353c0-1.853,0.79-3.354,1.766-3.354S31.9,43.231,31.9,45.084z"/>
		<path fill="#FFF9F5" stroke="#231815" stroke-width="0.5888" stroke-miterlimit="10" d="M35.582,45.084
			c0,1.851,0,3.353-1.767,3.353c-1.765,0-1.765-1.502-1.765-3.353c0-1.853,0.791-3.354,1.765-3.354
			C34.792,41.73,35.582,43.231,35.582,45.084z"/>
		<path fill="#FFF9F5" stroke="#231815" stroke-width="0.5888" stroke-miterlimit="10" d="M39.224,45.084
			c0,1.851,0,3.353-1.765,3.353c-1.767,0-1.767-1.502-1.767-3.353c0-1.853,0.791-3.354,1.767-3.354S39.224,43.231,39.224,45.084z"/>
	</g>
	<g>
		<path fill="#595757" d="M27.792,28.712c-1.468,3.339-3.371,5.692-6.708,4.224c-3.337-1.467-5.758-5.931-3.385-8.7
			c3.201-3.736,5.363-4.854,8.701-3.386C29.737,22.319,29.26,25.375,27.792,28.712z"/>
		<path d="M27.573,28.879c-1.27,2.889-2.888,4.938-5.645,3.725c-2.757-1.211-4.708-5.011-2.692-7.424
			c2.718-3.255,4.535-4.246,7.292-3.034C29.285,23.358,28.844,25.991,27.573,28.879z"/>
		<path fill="#595757" d="M36.209,28.712c1.469,3.339,3.371,5.692,6.708,4.224c3.337-1.467,5.758-5.931,3.386-8.7
			c-3.2-3.736-5.363-4.854-8.701-3.386C34.265,22.319,34.741,25.375,36.209,28.712z"/>
		<path d="M36.379,28.937c1.256,2.857,2.886,4.871,5.741,3.615c2.856-1.256,4.929-5.077,2.898-7.447
			c-2.739-3.198-4.591-4.154-7.448-2.898C34.714,23.464,35.121,26.08,36.379,28.937z"/>
	</g>
	<path fill="#595757" d="M35.422,35.02c0.588,2.458-1.007,5.379-3.403,1.831c-2.345,3.774-4.116,0.597-3.401-1.831
		c0.913-3.105,1.522-4.579,3.401-4.579C33.897,30.44,34.785,32.36,35.422,35.02z"/>
	<path d="M34.903,35.326c0,2.159-0.839,4.596-2.836,1.565c-1.956,3.226-3.432,0.51-2.835-1.565c0.761-2.653,1.27-3.912,2.835-3.912
		C33.634,31.414,34.903,33.165,34.903,35.326z"/>
	<path fill="#DADBDB" d="M19.163,37.596l6.595-1.206l-4.183,2.049C21.576,38.438,19.743,38.241,19.163,37.596z"/>
	<path fill="#DADBDB" d="M33.703,19.105c-0.598,0.874-2.852-2.18-2.128-3.511c0.724-1.332,3.741-3.147,5.71-2.865
		c1.971,0.283,3.284,3.357,1.588,3.632C36.879,16.684,34.503,17.937,33.703,19.105z"/>
</g>
</svg>
