<?xml version="1.0" encoding="utf-8"?>
<!-- Generator: Adobe Illustrator 15.0.2, SVG Export Plug-In . SVG Version: 6.00 Build 0)  -->
<!DOCTYPE svg PUBLIC "-//W3C//DTD SVG 1.1//EN" "http://www.w3.org/Graphics/SVG/1.1/DTD/svg11.dtd">
<svg version="1.1" id="レイヤー_1" xmlns="http://www.w3.org/2000/svg" xmlns:xlink="http://www.w3.org/1999/xlink" x="0px"
	 y="0px" width="64px" height="64px" viewBox="0 0 64 64" enable-background="new 0 0 64 64" xml:space="preserve">
<g>
	<path fill="#99CED6" d="M57.783,9.931c0,0-4.055,11.135-6.082,11.795l3.231-0.537l-4.056,4.5l3.453-0.496l-4.149,5.202l4.752-2.049
		l-4.436,4.361l6.209-1.838l-0.19,12.49h2.979V30.016l4.308,1.845L60,27.176l3.802,1.816c0,0-2.661-3.798-3.422-5.037l4.436,1.239
		l-4.729-4.792l2.448,1.242C62.535,21.643,59.684,16.88,57.783,9.931z"/>
	<path fill="#99CED6" d="M48.636,16.875c0,0-4.055,11.135-6.082,11.795l3.231-0.537l-4.056,4.5l3.453-0.496l-4.149,5.202
		l4.752-2.049l-4.436,4.361l6.209-1.838l-0.19,12.49h2.979V36.96l4.308,1.845l-3.802-4.685l3.802,1.816c0,0-2.661-3.798-3.422-5.037
		l4.436,1.239l-4.729-4.792l2.448,1.242C53.388,28.587,50.536,23.824,48.636,16.875z"/>
	<path fill="#99CED6" d="M34.158,40.415c0,0-2.398,6.588-3.598,6.979l1.912-0.318l-2.399,2.663l2.043-0.293l-2.455,3.077
		l2.812-1.212l-2.624,2.58l3.673-1.087l-0.113,7.39h1.763v-7.896l2.549,1.092l-2.249-2.771l2.249,1.074c0,0-1.575-2.247-2.024-2.979
		l2.624,0.732l-2.798-2.835l1.449,0.734C36.971,47.345,35.283,44.526,34.158,40.415z"/>
	<path fill="#99CED6" d="M27.736,43.945c0,0-2.398,6.588-3.598,6.979l1.912-0.318l-2.399,2.663l2.043-0.293l-2.455,3.077
		l2.812-1.212l-2.624,2.58l3.673-1.087l-0.113,7.39h1.763v-7.896l2.549,1.092l-2.249-2.771l2.249,1.074c0,0-1.575-2.247-2.024-2.979
		l2.624,0.732l-2.798-2.835l1.449,0.734C30.548,50.875,28.861,48.057,27.736,43.945z"/>
	<path fill="#FFFFFF" stroke="#8BBDCC" stroke-miterlimit="10" d="M0,64c0,0,28.924-8.25,35.254-13.25S64,22.917,64,22.917V64.25
		L0,64z"/>
	<path fill="#8BBDCC" d="M33.192,63.667c0,0,24.308-11.167,30.808-32.75v9.25c0,0-10.249,12.667-17.166,20.167
		c0,0-5.682,3.524-8.091,3.666L33.192,63.667z"/>
	<path fill="#8BBDCC" d="M45.271,64c0,0,17.395-13.999,18.729-21.166V46.5c0,0-1.241,3.25-17.787,17.5H45.271z"/>
	<path fill="#FFFFFF" stroke="#3E3A39" stroke-miterlimit="10" d="M17.21,17.185c0.871-1.546,5.458-7.958,5.458-7.958l10.771-4.449
		c0,0,2.212-0.667,4.354-0.792s6.745-0.166,6.745-0.166l-0.287,2.488c0,0-3.323,2.148-5.357,2.918S34.2,13.389,34.2,13.389
		s1.803,6.07,0.77,7.75l-11.673,6.506c0,0-1.147-1.936-0.629-3.922l-0.807-2.918l-2.104,2.659l-4.599,1.835
		C15.158,25.298,16.34,18.73,17.21,17.185z"/>
	<polygon fill="#3E3A39" points="33.99,7.855 37.084,5.829 44.465,4.455 44.538,3.82 37.336,4.024 33.438,4.777 33.192,7.855 	"/>
	<polygon fill="#3E3A39" points="21.861,19.913 24,16.081 24.442,19.913 24.723,24.892 22.833,27.25 22.668,23.722 	"/>
	<path fill="#2CA5DF" stroke="#014C72" stroke-miterlimit="10" d="M44.538,3.82v3.014l1.675,0.444l1.511,0.577l0.943-0.577V6.417
		l1.5-0.588c0,0,0.166-1.42-0.667-1.375c0,0-0.896-0.988-1.776-1.238S44.538,3.82,44.538,3.82z"/>
	<path fill="#FFFFFF" stroke="#3E3A39" stroke-miterlimit="10" d="M21.21,10.358c0,0-0.354-3.664,0.563-5.007
		s2.901-1.532,2.901-1.532l6.058,5.264l-1.391,3.828L21.21,10.358z"/>
	<polygon fill="#3E3A39" points="17.075,22.961 18.75,18 24,11.358 21.744,10.526 17.075,16.744 15.5,23.417 	"/>
	<polygon fill="#3E3A39" points="29.333,12.833 32,16.417 32,20.917 33.99,19.667 33.667,15.732 32.777,13.902 	"/>
	<path fill="#FFFFFF" stroke="#3E3A39" stroke-miterlimit="10" d="M32.577,21.665c0,0,11.637,1.89,13.007,2.434
		s1.852,6.123,1.631,7.188s-2.743,9.622-2.743,9.622l-4.282-1.256c0,0-0.509-7.077,0.952-8.372l-10.922-1.794L32.577,21.665z"/>
	<path fill="#3E3A39" d="M32.064,28.37L43.5,30.417l-0.75,1c0,0-1.167,1.417-1.25,2.417s-0.333,5.416-0.333,5.416h1.583
		l-0.416-5.333c0,0,0.582-1.584,1.166-1.917l1.038-2.167l-13.279-3.188L32.064,28.37z"/>
	<path fill="#FFFFFF" stroke="#3E3A39" stroke-miterlimit="10" d="M33.438,18.364c-2.164,0.045-7.176,3.63-8.037,4.88
		c-2.15,3.122-2.104,4.4-2.104,4.4c0.649,0.895,1.903,2.268,3.493,2.644l-0.335,1.932l4.815,0.64c0,0,3.195-4.212,4.807-7.407
		S35.603,18.319,33.438,18.364z"/>
	<polygon fill="#3E3A39" points="24.723,28.5 26.417,24.667 28.833,22.575 29.848,23.417 28.587,28.991 30.219,29.487 
		30.732,22.575 29.333,21.417 25.938,23.75 23.215,27.159 	"/>
	<path fill="none" stroke="#3E3A39" stroke-miterlimit="10" d="M28.167,24.099c0,0-1.602,5.318-1.102,6.818"/>
	<path fill="#2CA5DF" stroke="#014C72" stroke-miterlimit="10" d="M15.006,22.575l4.75,0.888l0.965,0.636l-0.965,0.675
		c0,0,0.858,1.593,0.429,2.231s-1.338,0.53-1.338,0.53s-1.87,3.134-3.841,0.206c-1.987-2.951,0.152-3.714,0.152-3.714L15.006,22.575
		z"/>
	<path fill="#2CA5DF" stroke="#014C72" stroke-miterlimit="10" d="M47.544,42.859c-0.56-1.384-2.71-1.327-3.377-1.442l1.5-1.243
		l-5.785-2.291v2.584l-0.606,1.603l7.29,3.698C46.565,45.768,48.27,44.652,47.544,42.859z"/>
	<path fill="#FFC280" stroke="#014C72" stroke-miterlimit="10" d="M33.99,7.169v3.667c0,0-1.545,2.338-2.133,2.452
		s-5.308-0.072-6.456-4.062S31.43,4.13,33.99,7.169z"/>
	<path fill="#2CA5DF" stroke="#014C72" stroke-miterlimit="10" d="M34.97,34.639c-0.282-1.672-2.39-2.32-3.475-2.545l1.697-1.704
		l-6.224-1.89l-0.635,2.417l0.331,0.146l-1.263,3.173l8.589,3.646C33.99,37.883,35.353,36.902,34.97,34.639z"/>
	<path fill="#FFCF48" stroke="#DDB300" stroke-width="1.0252" stroke-miterlimit="10" d="M12.36,29.601
		c-2.044-2.551,1.937-5.409,4.987-3.98c3.051,1.429,38.321,26.705,38.321,26.705l-6.354,3.533L12.36,29.601z"/>
	<g>
		<path fill="#2CA5DF" stroke="#014C72" stroke-miterlimit="10" d="M24.442,6.361l1.914,3.667c0,0,2.948-2.484,4.198-3.667
			l3.931,0.917l0.77-1.35c0,0-0.851-3.435-2.775-4.009c0,0-3.124-1.491-7.941,2.509L24.442,6.361z"/>
		<path fill="#014C72" d="M25.938,5.5l0.418-2.385c0,0,3.829-2.471,6.505-1.035c2.111,2.231,2.393,3.848,2.393,3.848l-4.658-0.907
			l-3.857,2.257L25.938,5.5z"/>
		<g>
			<defs>
				<path id="SVGID_1_" d="M25.938,5.5l0.418-2.385c0,0,3.829-2.471,6.505-1.035c2.111,2.231,2.393,3.848,2.393,3.848l-4.658-0.907
					l-3.857,2.257L25.938,5.5z"/>
			</defs>
			<clipPath id="SVGID_2_">
				<use xlink:href="#SVGID_1_"  overflow="visible"/>
			</clipPath>
			
				<rect x="32.256" y="-1.845" transform="matrix(0.837 0.5471 -0.5471 0.837 6.7796 -17.3868)" clip-path="url(#SVGID_2_)" fill="#FFFFFF" width="0.643" height="9.065"/>
			
				<rect x="32.711" y="-0.309" transform="matrix(0.8372 0.5468 -0.5468 0.8372 7.8738 -17.5444)" clip-path="url(#SVGID_2_)" fill="#FFFFFF" width="1.396" height="9.527"/>
		</g>
	</g>
	<g>
		<path fill="#2CA5DF" stroke="#014C72" stroke-miterlimit="10" d="M37.622,12.339c0,0,7.271,1.225,11.504,0.332
			c4.234-0.894,6.37-4.186,6.37-4.186l1.347-2.744c0,0-7.292,4.071-11.348,4.248s-9.326,1.146-9.326,1.146L37.622,12.339z"/>
		<path fill="#2CA5DF" stroke="#014C72" stroke-miterlimit="10" d="M33.322,14.314c0,0,7.325-1.669,11.159-0.555
			s16.055-1.878,16.055-1.878l1.665-3.776c0,0-11.833,3.896-17.289,3.457s-11.599-0.845-12.282,0.119L33.322,14.314z"/>
		<path fill="#2CA5DF" stroke="#014C72" stroke-width="0.9292" stroke-miterlimit="10" d="M32.662,14.271
			c0,0-7.861-1.67-7.864-3.036c-0.004-1.365,0.732-2.528,0.732-2.528s4.163,1.817,5.784,1.813c1.62-0.004,2.954-0.638,2.954-0.638
			S35.793,11.579,32.662,14.271z"/>
	</g>
	<path fill="#EAB200" d="M17.437,30.813c0.004-0.566,0.945-1.573,2.376-1.271s25.458,17.595,25.458,17.595L17.437,30.813z"/>
	<polygon fill="#EAB200" points="30.732,40.167 51.917,52.5 49.084,53.834 	"/>
	<path fill="#8BBDCC" d="M64,64.25v-15.5c0,0-13.416,13.083-14.333,15.25L64,64.25z"/>
</g>
</svg>
