<?xml version="1.0" encoding="utf-8"?>
<!-- Generator: Adobe Illustrator 15.0.2, SVG Export Plug-In . SVG Version: 6.00 Build 0)  -->
<!DOCTYPE svg PUBLIC "-//W3C//DTD SVG 1.1//EN" "http://www.w3.org/Graphics/SVG/1.1/DTD/svg11.dtd">
<svg version="1.1" id="レイヤー_1" xmlns="http://www.w3.org/2000/svg" xmlns:xlink="http://www.w3.org/1999/xlink" x="0px"
	 y="0px" width="64px" height="64px" viewBox="0 0 64 64" enable-background="new 0 0 64 64" xml:space="preserve">
<g>
	<g>
		<path fill="none" stroke="#2B74BC" stroke-width="2.8709" stroke-miterlimit="10" d="M58.967,29.78
			C58.967,18.325,46.894,9.037,32,9.037S5.033,18.325,5.033,29.78c0,11.458,12.073,20.743,26.967,20.743
			c4.031,0,7.854-0.685,11.288-1.905l7.292,6.346l-0.546-9.673C54.965,41.531,58.967,35.542,58.967,29.78z"/>
		<linearGradient id="SVGID_1_" gradientUnits="userSpaceOnUse" x1="30.9858" y1="20.6343" x2="35.0846" y2="57.6018">
			<stop  offset="0" style="stop-color:#FFFFFF"/>
			<stop  offset="1" style="stop-color:#BEBEBE"/>
		</linearGradient>
		<path fill="url(#SVGID_1_)" d="M58.967,29.78C58.967,18.325,46.894,9.037,32,9.037S5.033,18.325,5.033,29.78
			c0,11.458,12.073,20.743,26.967,20.743c4.031,0,7.854-0.685,11.288-1.905l7.292,6.346l-0.546-9.673
			C54.965,41.531,58.967,35.542,58.967,29.78z"/>
	</g>
	<g>
		
			<line fill="none" stroke="#2CA5DF" stroke-width="2.963" stroke-miterlimit="10" x1="17.942" y1="23.197" x2="46.058" y2="23.197"/>
		
			<line fill="none" stroke="#2CA5DF" stroke-width="2.963" stroke-miterlimit="10" x1="17.942" y1="30.082" x2="46.058" y2="30.082"/>
		
			<line fill="none" stroke="#2CA5DF" stroke-width="2.963" stroke-miterlimit="10" x1="17.942" y1="36.967" x2="46.058" y2="36.967"/>
	</g>
</g>
</svg>
