<?xml version="1.0" encoding="utf-8"?>
<!-- Generator: Adobe Illustrator 15.0.2, SVG Export Plug-In . SVG Version: 6.00 Build 0)  -->
<!DOCTYPE svg PUBLIC "-//W3C//DTD SVG 1.1//EN" "http://www.w3.org/Graphics/SVG/1.1/DTD/svg11.dtd">
<svg version="1.1" id="レイヤー_1" xmlns="http://www.w3.org/2000/svg" xmlns:xlink="http://www.w3.org/1999/xlink" x="0px"
	 y="0px" width="64px" height="64px" viewBox="0 0 64 64" enable-background="new 0 0 64 64" xml:space="preserve">
<g>
	<linearGradient id="SVGID_1_" gradientUnits="userSpaceOnUse" x1="33.8887" y1="61.4912" x2="33.8887" y2="43.2864">
		<stop  offset="0" style="stop-color:#FFFFFF"/>
		<stop  offset="0.1368" style="stop-color:#FBFCFC"/>
		<stop  offset="0.2601" style="stop-color:#F0F1F4"/>
		<stop  offset="0.3782" style="stop-color:#DEDFE5"/>
		<stop  offset="0.4931" style="stop-color:#C4C7D1"/>
		<stop  offset="0.6047" style="stop-color:#A3A7B8"/>
		<stop  offset="0.697" style="stop-color:#82879E"/>
		<stop  offset="0.7005" style="stop-color:#898EA3"/>
		<stop  offset="0.7186" style="stop-color:#A8ACBC"/>
		<stop  offset="0.7391" style="stop-color:#C4C6D1"/>
		<stop  offset="0.7622" style="stop-color:#DADBE2"/>
		<stop  offset="0.7893" style="stop-color:#EBEBEF"/>
		<stop  offset="0.8227" style="stop-color:#F6F7F8"/>
		<stop  offset="0.8697" style="stop-color:#FDFDFE"/>
		<stop  offset="1" style="stop-color:#FFFFFF"/>
	</linearGradient>
	<path fill="url(#SVGID_1_)" stroke="#2CA6E0" stroke-width="1.1135" stroke-miterlimit="10" d="M35.654,55.396
		c-0.59-3.236-0.311-7.001,1.186-10.015c-0.957-0.956-4.957-0.964-5.902,0c1.852,2.742,1.843,6.762,1.145,10.017
		c-5.182,0.285-9.136,1.765-9.136,3.554c0,1.992,4.899,3.606,10.942,3.606c6.043,0,10.942-1.614,10.942-3.606
		C44.831,57.157,40.855,55.675,35.654,55.396z"/>
	<linearGradient id="SVGID_2_" gradientUnits="userSpaceOnUse" x1="33.8887" y1="22.3921" x2="33.8887" y2="48.8186">
		<stop  offset="0" style="stop-color:#FFFFFF"/>
		<stop  offset="0.1368" style="stop-color:#FBFCFC"/>
		<stop  offset="0.2601" style="stop-color:#F0F1F4"/>
		<stop  offset="0.3782" style="stop-color:#DEDFE5"/>
		<stop  offset="0.4931" style="stop-color:#C4C7D1"/>
		<stop  offset="0.6047" style="stop-color:#A3A7B8"/>
		<stop  offset="0.697" style="stop-color:#82879E"/>
		<stop  offset="0.7005" style="stop-color:#898EA3"/>
		<stop  offset="0.7186" style="stop-color:#A8ACBC"/>
		<stop  offset="0.7391" style="stop-color:#C4C6D1"/>
		<stop  offset="0.7622" style="stop-color:#DADBE2"/>
		<stop  offset="0.7893" style="stop-color:#EBEBEF"/>
		<stop  offset="0.8227" style="stop-color:#F6F7F8"/>
		<stop  offset="0.8697" style="stop-color:#FDFDFE"/>
		<stop  offset="1" style="stop-color:#FFFFFF"/>
	</linearGradient>
	<path fill="url(#SVGID_2_)" stroke="#2CA6E0" stroke-width="1.1135" stroke-miterlimit="10" d="M33.486,46.327
		c6.181,0,16.931-5.478,14.636-18.183c-2.295-12.705-5.114-18.182-5.114-18.182H24.811c0,0-3.131,4.871-5.213,18.182
		C17.579,41.051,27.88,46.327,33.486,46.327z"/>
	<g>
		<path fill="#8DC21F" d="M11.275,16.495c0,0,2.435-7.368,13.287-8.262l3.18,4.833C27.742,13.066,17.656,15.641,11.275,16.495z"/>
		<path fill="#FAED00" d="M11.045,18.245l16.697-5.179l-16.467,3.429C11.275,16.495,11.042,17.569,11.045,18.245z"/>
		<path fill="#1EAA39" d="M27.742,13.066l-0.437-0.664c0,0-12.61,2.757-15.526,3.925S25.162,13.231,27.742,13.066z"/>
	</g>
	
		<ellipse fill="#FFFFFF" stroke="#2CA6E0" stroke-width="1.1135" stroke-miterlimit="10" cx="33.889" cy="9.962" rx="9.099" ry="1.27"/>
	<g>
		<path fill="#C30D23" d="M31.474,7.565c-0.762,2.042-2.747,1.917-4.214,1.384c-1.467-0.533-1.752-1.821-1.185-3.346
			c0.568-1.525,1.631-2.324,3.099-1.791C30.64,4.346,32.231,5.534,31.474,7.565z"/>
		<path fill="#770A1C" d="M16.698,1.765l0.524,0.802l0.825-0.006c0,0,4.494-1.582,8.652,3.669l0.244-0.653
			c0,0-4.369-5.252-8.507-3.616l-0.798-0.29C17.638,1.67,17.028,1.1,16.698,1.765z"/>
		<path fill="#770A1C" d="M27.593,4.558c0,0-0.45,2.182-0.856,2.296S26.834,5.464,27.593,4.558z"/>
		<path fill="#FFFFFF" d="M29.313,4.953c0.018,0.3-0.224,0.553-0.54,0.565c-0.315,0.011-0.587-0.222-0.605-0.523
			c-0.017-0.299,0.226-0.552,0.541-0.564C29.024,4.42,29.296,4.653,29.313,4.953z"/>
	</g>
	<path fill="#FFFFFF" d="M34.203,46.506l1.367-0.179c0,0-3.78,7.416,0.36,10.679c0,0-0.002,1.388-0.36,1.476
		C33.262,54.875,33.488,52.404,34.203,46.506z"/>
	<g>
		<path fill="#F49519" d="M29.71,13.946c0.418-5.371-3.598-10.063-8.968-10.481c-5.371-0.418-10.063,3.598-10.481,8.968
			L29.71,13.946z"/>
		<path fill="#FFAE39" d="M31.228,14.125c0.418-5.37-3.597-10.063-8.968-10.48c-5.371-0.418-10.063,3.597-10.481,8.968
			L31.228,14.125z"/>
		<path fill="#FFF3D4" d="M30.27,14.05c0.376-4.842-3.244-9.072-8.084-9.448c-4.841-0.377-9.072,3.242-9.449,8.084L30.27,14.05z"/>
		
			<linearGradient id="SVGID_3_" gradientUnits="userSpaceOnUse" x1="14.8687" y1="10.3511" x2="19.4659" y2="13.78" gradientTransform="matrix(0.997 0.0775 -0.0775 0.997 0.7184 -1.3555)">
			<stop  offset="0" style="stop-color:#FF9B00"/>
			<stop  offset="0.3841" style="stop-color:#FF9800"/>
			<stop  offset="0.6238" style="stop-color:#FF9000"/>
			<stop  offset="0.8233" style="stop-color:#FF8100"/>
			<stop  offset="1" style="stop-color:#FF6D00"/>
		</linearGradient>
		<path fill="url(#SVGID_3_)" d="M13.326,12.732l8.178,0.636l-5.396-5.904C16.107,7.464,13.986,9.003,13.326,12.732z"/>
		
			<linearGradient id="SVGID_4_" gradientUnits="userSpaceOnUse" x1="19.8423" y1="6.0483" x2="19.255" y2="12.1414" gradientTransform="matrix(0.997 0.0775 -0.0775 0.997 0.7184 -1.3555)">
			<stop  offset="0" style="stop-color:#FF9B00"/>
			<stop  offset="0.3841" style="stop-color:#FF9800"/>
			<stop  offset="0.6238" style="stop-color:#FF9000"/>
			<stop  offset="0.8233" style="stop-color:#FF8100"/>
			<stop  offset="1" style="stop-color:#FF6D00"/>
		</linearGradient>
		<path fill="url(#SVGID_4_)" d="M17.193,6.851l4.311,6.518l0.07-7.576C21.574,5.792,19.467,4.935,17.193,6.851z"/>
		
			<linearGradient id="SVGID_5_" gradientUnits="userSpaceOnUse" x1="24.4297" y1="6.4956" x2="23.8385" y2="12.6288" gradientTransform="matrix(0.997 0.0775 -0.0775 0.997 0.7184 -1.3555)">
			<stop  offset="0" style="stop-color:#FF9B00"/>
			<stop  offset="0.3841" style="stop-color:#FF9800"/>
			<stop  offset="0.6238" style="stop-color:#FF9000"/>
			<stop  offset="0.8233" style="stop-color:#FF8100"/>
			<stop  offset="1" style="stop-color:#FF6D00"/>
		</linearGradient>
		<path fill="url(#SVGID_5_)" d="M22.278,5.737l-0.774,7.631l5.359-5.067C26.863,8.301,25.384,5.705,22.278,5.737z"/>
		
			<linearGradient id="SVGID_6_" gradientUnits="userSpaceOnUse" x1="28.687" y1="10.624" x2="20.4039" y2="12.5959" gradientTransform="matrix(0.997 0.0775 -0.0775 0.997 0.7184 -1.3555)">
			<stop  offset="0" style="stop-color:#FF9B00"/>
			<stop  offset="0.3841" style="stop-color:#FF9800"/>
			<stop  offset="0.6238" style="stop-color:#FF9000"/>
			<stop  offset="0.8233" style="stop-color:#FF8100"/>
			<stop  offset="1" style="stop-color:#FF6D00"/>
		</linearGradient>
		<path fill="url(#SVGID_6_)" d="M21.504,13.368l5.674-4.342c0,0,2.687,0.707,2.134,4.95L21.504,13.368z"/>
	</g>
	<path fill="none" stroke="#2CA6E0" stroke-miterlimit="10" d="M24.811,9.962c0,0-3.131,4.871-5.213,18.182
		c-2.019,12.907,8.282,18.183,13.889,18.183c6.181,0,16.931-5.478,14.636-18.183"/>
	<g>
		<path fill="none" stroke="#C8C9CA" stroke-miterlimit="10" d="M30.297,38.588l9.836-32.51c0,0,0.411-0.832,2.05-1.087
			S53.33,3.669,53.33,3.669l0.409,1.865c0,0-10.27,0.781-10.995,1.105s-1.224,0.555-1.331,1.047S32.51,38.588,32.51,38.588H30.297z"
			/>
		<linearGradient id="SVGID_7_" gradientUnits="userSpaceOnUse" x1="31.9966" y1="9.0063" x2="63.0645" y2="47.369">
			<stop  offset="0" style="stop-color:#FFFFFF"/>
			<stop  offset="0.1368" style="stop-color:#FBFCFC"/>
			<stop  offset="0.2601" style="stop-color:#F0F1F4"/>
			<stop  offset="0.3782" style="stop-color:#DEDFE5"/>
			<stop  offset="0.4931" style="stop-color:#C4C7D1"/>
			<stop  offset="0.6047" style="stop-color:#A3A7B8"/>
			<stop  offset="0.697" style="stop-color:#82879E"/>
			<stop  offset="0.7005" style="stop-color:#898EA3"/>
			<stop  offset="0.7186" style="stop-color:#A8ACBC"/>
			<stop  offset="0.7391" style="stop-color:#C4C6D1"/>
			<stop  offset="0.7622" style="stop-color:#DADBE2"/>
			<stop  offset="0.7893" style="stop-color:#EBEBEF"/>
			<stop  offset="0.8227" style="stop-color:#F6F7F8"/>
			<stop  offset="0.8697" style="stop-color:#FDFDFE"/>
			<stop  offset="1" style="stop-color:#FFFFFF"/>
		</linearGradient>
		<path fill="url(#SVGID_7_)" d="M30.297,38.588l9.836-32.51c0,0,0.411-0.832,2.05-1.087S53.33,3.669,53.33,3.669l0.409,1.865
			c0,0-10.27,0.781-10.995,1.105s-1.224,0.555-1.331,1.047S32.51,38.588,32.51,38.588H30.297z"/>
	</g>
	<linearGradient id="SVGID_8_" gradientUnits="userSpaceOnUse" x1="33.877" y1="17.3921" x2="33.877" y2="44.0731">
		<stop  offset="0" style="stop-color:#FFEE00"/>
		<stop  offset="0.3394" style="stop-color:#FFC93F"/>
		<stop  offset="0.4297" style="stop-color:#FDC33B"/>
		<stop  offset="0.552" style="stop-color:#F7B230"/>
		<stop  offset="0.6926" style="stop-color:#EE951D"/>
		<stop  offset="0.8457" style="stop-color:#E16E04"/>
		<stop  offset="0.8667" style="stop-color:#DF6800"/>
		<stop  offset="0.8885" style="stop-color:#E16201"/>
		<stop  offset="0.9182" style="stop-color:#E65004"/>
		<stop  offset="0.9524" style="stop-color:#EF3409"/>
		<stop  offset="0.9898" style="stop-color:#FB0C10"/>
		<stop  offset="1" style="stop-color:#FF0012"/>
	</linearGradient>
	<path fill="url(#SVGID_8_)" d="M22.946,19.113c0,0-2.14,8.754-1.976,12.82c0.164,4.066,3.213,12.728,12.918,12.728
		s12.903-9.153,12.903-12.73c0-5.341-1.961-12.818-1.961-12.818H22.946z"/>
	<linearGradient id="SVGID_9_" gradientUnits="userSpaceOnUse" x1="33.8887" y1="17.228" x2="33.8887" y2="37.8155">
		<stop  offset="0" style="stop-color:#FFEE00"/>
		<stop  offset="0.0108" style="stop-color:#FFEB04"/>
		<stop  offset="0.0873" style="stop-color:#FFDC1E"/>
		<stop  offset="0.1662" style="stop-color:#FFD230"/>
		<stop  offset="0.2485" style="stop-color:#FFCB3B"/>
		<stop  offset="0.3394" style="stop-color:#FFC93F"/>
		<stop  offset="0.3629" style="stop-color:#FDC23B"/>
		<stop  offset="0.5148" style="stop-color:#F09B21"/>
		<stop  offset="0.6544" style="stop-color:#E77F0F"/>
		<stop  offset="0.7762" style="stop-color:#E16E04"/>
		<stop  offset="0.8667" style="stop-color:#DF6800"/>
		<stop  offset="0.8885" style="stop-color:#E16201"/>
		<stop  offset="0.9182" style="stop-color:#E65004"/>
		<stop  offset="0.9524" style="stop-color:#EF3409"/>
		<stop  offset="0.9898" style="stop-color:#FB0C10"/>
		<stop  offset="1" style="stop-color:#FF0012"/>
	</linearGradient>
	<ellipse fill="url(#SVGID_9_)" cx="33.889" cy="19.113" rx="10.942" ry="2.787"/>
	<linearGradient id="SVGID_10_" gradientUnits="userSpaceOnUse" x1="23.5293" y1="15.8247" x2="26.398" y2="40.4502">
		<stop  offset="0" style="stop-color:#FFFFFF"/>
		<stop  offset="0.8659" style="stop-color:#FFFFFF;stop-opacity:0.1341"/>
		<stop  offset="1" style="stop-color:#FFFFFF;stop-opacity:0"/>
	</linearGradient>
	<path fill="url(#SVGID_10_)" d="M24.569,15.789l2.413,0.656c0,0-2.57,11.581-2.432,15.488c0.128,3.637,1.741,7.992,2.166,8.566
		l-2.467-1.123c0,0-2.081-2.532-2.13-7.489C22.075,27.52,24.569,15.789,24.569,15.789z"/>
	<linearGradient id="SVGID_11_" gradientUnits="userSpaceOnUse" x1="33.3076" y1="25.3696" x2="49.2095" y2="36.4346">
		<stop  offset="0" style="stop-color:#FFEE00"/>
		<stop  offset="0.3394" style="stop-color:#FFC93F"/>
		<stop  offset="0.4297" style="stop-color:#FDC33B"/>
		<stop  offset="0.552" style="stop-color:#F7B230"/>
		<stop  offset="0.6926" style="stop-color:#EE951D"/>
		<stop  offset="0.8457" style="stop-color:#E16E04"/>
		<stop  offset="0.8667" style="stop-color:#DF6800"/>
		<stop  offset="0.8885" style="stop-color:#E16201"/>
		<stop  offset="0.9182" style="stop-color:#E65004"/>
		<stop  offset="0.9524" style="stop-color:#EF3409"/>
		<stop  offset="0.9898" style="stop-color:#FB0C10"/>
		<stop  offset="1" style="stop-color:#FF0012"/>
	</linearGradient>
	<path fill="url(#SVGID_11_)" d="M45.954,24.28c0,0,1.486,6.933,0.589,9.688c-0.897,2.755-2.011,5.36-4.242,7.548
		C42.301,41.517,46.921,36.906,45.954,24.28z"/>
	<linearGradient id="SVGID_12_" gradientUnits="userSpaceOnUse" x1="8.855" y1="23.2056" x2="28.5898" y2="36.9376">
		<stop  offset="0" style="stop-color:#FFEE00"/>
		<stop  offset="0.3394" style="stop-color:#FFC93F"/>
		<stop  offset="0.4297" style="stop-color:#FDC33B"/>
		<stop  offset="0.552" style="stop-color:#F7B230"/>
		<stop  offset="0.6926" style="stop-color:#EE951D"/>
		<stop  offset="0.8457" style="stop-color:#E16E04"/>
		<stop  offset="0.8667" style="stop-color:#DF6800"/>
		<stop  offset="0.8885" style="stop-color:#E16201"/>
		<stop  offset="0.9182" style="stop-color:#E65004"/>
		<stop  offset="0.9524" style="stop-color:#EF3409"/>
		<stop  offset="0.9898" style="stop-color:#FB0C10"/>
		<stop  offset="1" style="stop-color:#FF0012"/>
	</linearGradient>
	<path fill="url(#SVGID_12_)" d="M21.056,32.898c-0.119-3.571,0.445-6.661,0.445-6.661s-0.12,9.429,1.806,12.792
		C23.307,39.029,21.141,35.453,21.056,32.898z"/>
	
		<ellipse transform="matrix(0.8739 -0.4861 0.4861 0.8739 -4.9368 23.2248)" fill="#FFFFFF" cx="42.3" cy="21.129" rx="1.213" ry="1.635"/>
	
		<ellipse transform="matrix(0.9211 -0.3894 0.3894 0.9211 -5.7167 18.3062)" fill="#FFFFFF" cx="42.3" cy="23.255" rx="0.793" ry="0.992"/>
	<path fill="none" stroke="#2CA6E0" stroke-width="1.1135" stroke-miterlimit="10" d="M42.987,9.962c0,0.701-4.073,1.27-9.099,1.27
		c-5.024,0-8.902-1.048-9.339-1.595"/>
	<path fill="#FFFFFF" d="M39.905,56.818c0,0,3.472,0.66,3.72,2.133s-7.162,2.376-7.162,2.376S47.469,59.713,39.905,56.818z"/>
	<line fill="#FFFFFF" stroke="#C8C9CA" stroke-miterlimit="10" x1="35.809" y1="20.493" x2="37.235" y2="15.656"/>
	<line fill="#FFFFFF" stroke="#C8C9CA" stroke-miterlimit="10" x1="37.858" y1="20.098" x2="38.938" y2="16.327"/>
	<path fill="#FFFFFF" d="M35.809,20.493c0,0,0.661,0.853,1.935,0l1.195-4.166l-1.565-1.129L35.809,20.493z"/>
	<linearGradient id="SVGID_13_" gradientUnits="userSpaceOnUse" x1="35.2256" y1="24.7295" x2="30.8458" y2="44.8101">
		<stop  offset="0" style="stop-color:#FFEE00"/>
		<stop  offset="0.3394" style="stop-color:#FFC93F"/>
		<stop  offset="0.4297" style="stop-color:#FDC33B"/>
		<stop  offset="0.552" style="stop-color:#F7B230"/>
		<stop  offset="0.6926" style="stop-color:#EE951D"/>
		<stop  offset="0.8457" style="stop-color:#E16E04"/>
		<stop  offset="0.8667" style="stop-color:#DF6800"/>
		<stop  offset="0.8885" style="stop-color:#E16201"/>
		<stop  offset="0.9182" style="stop-color:#E65004"/>
		<stop  offset="0.9524" style="stop-color:#EF3409"/>
		<stop  offset="0.9898" style="stop-color:#FB0C10"/>
		<stop  offset="1" style="stop-color:#FF0012"/>
	</linearGradient>
	<path fill="url(#SVGID_13_)" d="M30.272,39.553c2.993-5.193,4.931-16.296,4.931-16.296s0.832,0.82,1.946,0
		c0,0-2.329,13.726-4.707,16.296C32.074,39.951,31.007,41.515,30.272,39.553z"/>
	<path fill="#FFFFFF" d="M37.01,57.384c0,0,2.059,0.119,3.076,0.473s0.105,1.003-1.135,1.15c-1.239,0.147-2.679,0-2.679,0
		L37.01,57.384z"/>
</g>
</svg>
