<?xml version="1.0" encoding="utf-8"?>
<!-- Generator: Adobe Illustrator 15.0.2, SVG Export Plug-In . SVG Version: 6.00 Build 0)  -->
<!DOCTYPE svg PUBLIC "-//W3C//DTD SVG 1.1//EN" "http://www.w3.org/Graphics/SVG/1.1/DTD/svg11.dtd">
<svg version="1.1" id="レイヤー_1" xmlns="http://www.w3.org/2000/svg" xmlns:xlink="http://www.w3.org/1999/xlink" x="0px"
	 y="0px" width="64px" height="64px" viewBox="0 0 64 64" enable-background="new 0 0 64 64" xml:space="preserve">
<g>
	<path fill="#191C30" stroke="#182228" stroke-width="1.0507" stroke-miterlimit="10" d="M11.588,7.485c0,0-1.292-3.319,1.895-4.458
		c1.968,0.103,3.789,2.736,3.789,2.736L11.588,7.485z"/>
	<path fill="#D8CDBF" stroke="#202020" stroke-width="1.0507" stroke-miterlimit="10" d="M10.296,11.263
		c-0.517-0.936,0.259-4.553,3.876-5.586c3.617-1.034,5.938,1.373,10.076,5.943c3.187-2.326,8.957,0.517,12.833,3.445
		c3.876,2.928,7.58,10.507,10.206,16.105c4.951,0.181,11.895,8.18,12.214,11.367c3.935-0.688,9.016,2.24,9.016,2.24V69.84H27.263
		c0,0-6.287-12.918-6.976-17.139c-3.531-2.154-5.685-6.631-5.986-9.387c-0.301-2.756-0.819-13.006,0-16.106
		c-2.11-3.359-4.61-6.201-5.15-9c-0.539-2.799-0.491-5.876,0.715-6.06L10.296,11.263z"/>
	<path fill="#A5907F" d="M25.885,15.815c0,0,1.982,1.957,8.01,0H25.885z"/>
	<path fill="#182228" d="M26.393,13.858l0.947,0.517c0,0,1.15,0.526,1.464,0.689c0.439,0.228,0.948,0.301,0.948,0.301l2.343,1.033
		l-4.729-0.712C27.366,15.687,27.771,15.581,26.393,13.858z"/>
	<path fill="#A59C92" d="M15.119,15.492c0,0,3.359,3.018,3.704,3.964c0.345,0.947,0.136-2.114-0.966-3.641
		c-1.102-1.526-3.556-1.957-3.556-1.957L15.119,15.492z"/>
	<path fill="none" stroke="#182228" stroke-width="0.8853" stroke-miterlimit="10" d="M11.797,6.764c0,0-0.474,1.956-0.086,3.478"/>
	<path fill="#182228" d="M10.854,11.28c0,0-0.01-1.642,1.337-1.642c1.584,0,0.085,3.704,4.564,4.651
		c0.861,0.947,1.102,3.272,1.102,3.272s-6.64-5.779-8.965-3.704L10.854,11.28z"/>
	<polygon fill="#A59C92" points="26.904,44.432 28.272,43.484 30.771,46.5 34.56,41.332 37.183,42.883 35.804,39.092 35.804,40.814 
		34.474,40.213 30.426,44.689 28.358,41.762 	"/>
	<polygon fill="#A59C92" points="29.77,51.15 31.741,48.912 34.239,54.941 37.254,46.758 39.406,52.098 41.042,45.295 
		39.063,48.049 37.426,44.605 34.066,52.098 32,47.447 	"/>
	<path fill="#A59C92" d="M39.579,61.141c0,0,9.733-1.637,8.699-6.631c0,0,10.506-3.445,8.438-8.699c0,0,1.981,7.58-7.578,9.646
		C49.139,55.457,49.397,60.625,39.579,61.141z"/>
	<path fill="#182228" d="M59.501,42.537c0,0-5.71-11.109-12.214-11.367c0,0-6.86-17.139-15.982-19.464c0,0-4.8-1.895-7.056-0.086
		l2.67,0.861c0,0,2.522-0.516,3.845,1.12c1.241,1.535,1.166,6.784,0.583,8.423l0.404,1.955l4.392,1.55L31.75,26.13l3.702,1.551
		l-2.912,0.605l3.602,4.648l-5.739-2.447c-0.017,0.027-0.032,0.057-0.05,0.083l2.859,5.637l-4.098-1.688
		c0.186,0.719,0.381,1.537,0.561,2.383l1.549-0.473l-1.358,1.426c0.085,0.453,0.161,0.902,0.225,1.348l1.736-0.541l-1.434,3.139
		c0.07,0.334,0.17,0.699,0.292,1.09l1.935-1.299l-0.729,4.412c0.214,0.488,0.441,0.982,0.675,1.48l1.758-2.277l4.345,7.148v-4.736
		l1.389,11.291l0.684,0.729l3.489-7.283l0.946,8.27c0,0,3.444-4.223,3.272-6.201c-0.171-1.98,1.292,4.479,1.292,4.479l1.12-6.459
		l3.445,0.602l-0.604-3.703c0,0,5.256,8.697,5.083,10.508c-0.172,1.809,2.583-2.154,2.583-2.154v3.963l3.018-2.842v7.922
		l-17.196-0.242l1.604,1.707h18V43.797C66.794,43.797,61.163,42.107,59.501,42.537z"/>
	<path fill="none" stroke="#182228" stroke-width="1.0507" stroke-miterlimit="10" d="M10.296,11.263
		c-0.517-0.936,0.259-4.553,3.876-5.586c3.617-1.034,5.938,1.373,10.076,5.943c3.187-2.326,8.957,0.517,12.833,3.445
		c3.876,2.928,7.58,10.507,10.206,16.105c4.951,0.181,11.895,8.18,12.214,11.367c3.935-0.688,9.016,2.24,9.016,2.24V69.84H27.263
		c0,0-6.287-12.918-6.976-17.139c-3.531-2.154-5.685-6.631-5.986-9.387c-0.301-2.756-0.819-13.006,0-16.106
		c-2.11-3.359-4.61-6.201-5.15-9c-0.539-2.799-0.491-5.876,0.715-6.06L10.296,11.263z"/>
	<g>
		<path fill="#323B3F" stroke="#182228" stroke-width="1.0507" stroke-miterlimit="10" d="M39.924,22.988
			c0,0,8.438,1.464,12.487,6.933c0.775,3.23-7.665,5.298-7.665,5.298l-3.704-1.379"/>
		<path fill="#D8CDBF" d="M41.042,31.944l-0.993-6.498c0,0,4.085-0.181,5.921,2.795C47.807,31.217,41.042,31.944,41.042,31.944z"/>
	</g>
	<path fill="#A59C92" d="M15.895,29.103c0,0,4.564,2.067,6.545,0c0,0,6.028,0.348,6.804-3.659c0,0-0.466,5.308-6.675,4.578
		C22.569,30.021,19.426,32.375,15.895,29.103z"/>
	<path fill="#A59C92" d="M15.119,44.605c0,0,2.669,3.531,7.45,4.221c4.78,0.688,4.335,8.871,4.335,8.871l-6.1-5.082
		C20.804,52.615,15.895,49.514,15.119,44.605z"/>
	<path fill="#A59C92" d="M22.698,58.645c0,0,8.87,5.047,22.393,5.752c13.522,0.707-19.895,0-19.895,0L22.698,58.645z"/>
	<path fill="#A59C92" d="M9.952,19.112c0,0,2.411,4.823,7.32,5.254c4.91,0.431,2.67,2.153-2.498,2.756
		C14.774,27.122,9.694,20.92,9.952,19.112z"/>
	<path fill="#A59C92" d="M22.569,50.635c0,0,8.414,11.695,12.837,13.762c4.424,2.066-12.708-5.322-12.708-5.322l-2.694-7.836
		L22.569,50.635z"/>
</g>
</svg>
