<?xml version="1.0" encoding="utf-8"?>
<!-- Generator: Adobe Illustrator 15.0.2, SVG Export Plug-In . SVG Version: 6.00 Build 0)  -->
<!DOCTYPE svg PUBLIC "-//W3C//DTD SVG 1.1//EN" "http://www.w3.org/Graphics/SVG/1.1/DTD/svg11.dtd">
<svg version="1.1" id="レイヤー_1" xmlns="http://www.w3.org/2000/svg" xmlns:xlink="http://www.w3.org/1999/xlink" x="0px"
	 y="0px" width="64px" height="64px" viewBox="0 0 64 64" enable-background="new 0 0 64 64" xml:space="preserve">
<g>
	<g>
		<path fill-rule="evenodd" clip-rule="evenodd" fill="#1072B9" d="M16.968,14.622c1-0.475,1.629-1.321,2.876-1.549
			c-1.078,1.429-2.347,2.668-3.098,4.426c-1.855,2.57-3.352,5.499-3.541,9.735c1.804-3.654,3.159-7.757,6.638-9.735
			c-0.184,1.367-1.915,3.099-2.212,5.089c-0.317,0.273-0.419,0.761-0.443,1.328c-0.517,0.958-0.805,2.145-0.885,3.541
			c-0.472,2.304-0.856,6.439,0.885,7.745c-0.813-0.354,0.373-1.343,0.885-2.213c0.794,0.878-0.469,2.52,0.221,3.319
			c0.788-0.613,0.331-2.473,1.106-3.098c-1.119-0.534-1.656-0.684-2.876-0.222c0.391-0.776,0.8-1.194,0.442-2.213
			c0.757-0.093,0.665,0.663,1.106,0.885c0,0.074,0,0.147,0,0.221c0.715-0.169,1.158-0.613,1.328-1.328
			c0.916,1.578,2.035-0.776,3.319,0c0.835,0.997-1.271,0.531-0.885,1.77c0.095,0.495,1.09,0.09,1.549,0.221
			c-1.33,1.178-4.593,0.423-4.204,3.32c1.354-1.021,0.455-1.574,1.549-1.549c0.645,0.31-0.393,0.762-0.221,1.327
			c0.363,0.025,1.755,0.899,1.991-0.442c0.594,0.466-0.191,1.417-0.885,1.328c0.283,0.617,1.053-0.101,1.106-0.442
			c0.374,0.126-0.88,1.185,0.664,0.885c0.102,0.908-0.473-0.09-1.106,0.221c0.849,0.289,1.368,1.69,1.992,0.442
			c0.073,0,0.147,0,0.221,0c0.073,0,0.147,0,0.221,0c-0.364,1.112-1.567,1.383-3.098,1.328c1.737,0.612,2.667-0.457,3.319,1.327
			c0.294-0.222,0.823-0.209,0.885-0.663c0.492,0.093,0.173,1.174,0,1.328c0.844-0.782,1.816-2.606,1.106-4.205
			c-0.323-1.3-1.421-1.824-1.992-2.876c0.217-0.62,0.59,0.32,0.885-0.222c0.265-1.224-0.308-1.61-0.664-2.213
			c2.439,0.826,3.499-2.792,5.089-4.205c0.168,1.285-0.459,2.269-0.442,3.762c0.029,2.521,1.786,4.868,0.885,6.196
			c-0.714,0.172-1.308,0.463-1.771,0.885c-0.553-0.037-0.692,0.341-0.884,0.665c-0.712,0.689-1.104,1.698-1.771,2.434
			c1.136,0.4,1.247-0.076,1.992,0.442c-0.793,0.433,0.228,1.307-0.885,1.327c0.055,0.241,0.44,0.15,0.442,0.442
			c0.022,0.422,0.824-0.176,1.106-0.221c0.557,0.096-0.368,0.477-0.663,0.443c0.068,0.3,0.554,0.183,0.884,0.221
			c0.295-0.033,0.668,0.9,0.885,0.222c-0.276,0.868,0.165,0.271,0.886,0.442c-2.16,2.236,2.529-0.852,2.213,1.327
			c1.419-1.934,3.5,0.938,2.876,2.434c0.215-0.005,0.172-0.271,0.222-0.442c0.788,0.401-0.372,1.025-0.664,0.442
			c0.04,0.302,1.052,1.074,0.885,0.222c0.648,0.188-0.132,0.713,0,1.106c1.88-0.185,3.524-0.606,5.311-0.886
			c-0.434-0.598-2.2,0.136-2.655-0.442c-0.52,0.003,0.081,0.604,0.442,0.442c-0.561,0.688-1.271-0.335-1.327-0.885
			c-0.39,0.054-0.505,0.381-0.442,0.885c-0.813-1.023,0.162-2.316,0.885-3.098c0.147,0,0.295,0,0.442,0c0.369,0,0.737,0,1.107,0
			c-0.051,0.319-0.662,0.077-0.665,0.442c1.201-0.291,2.725,1.314,3.763,0.443c0.361,0.358,0.266,1.39-0.442,1.327
			c1.903,0.353,3.403-1.609,5.088-2.213c0.237-0.826-0.549-0.63-0.442-1.327c3.374,2.36,5.885-0.703,5.531-4.646
			c-0.417-0.56-0.775,0.204-1.327-0.222c0.09-1.681,2.001-1.539,1.327-3.983c0.298-0.145,0.412-0.473,0.443-0.885
			c1.746,0.688,1.804,3.064,3.54,3.762c0.102,0.691-0.473,0.707-1.105,0.664c-0.222,3.252-0.84,5.77-3.099,6.638
			c-1.559,0.601-3.421-0.154-2.877,2.655c-1.069-0.404-0.908-2.042-1.77-2.655c-0.739,1.179-1.804,2.032-2.655,3.098
			c-2.332,1.726-5.112,3.001-8.188,3.983c4.22,0.236,7.017-0.95,9.515-2.434c-0.078,0.291-0.39,0.348-0.442,0.663
			c-2.111,1.502-4.318,2.911-6.859,3.983c-2.471,0.849-5.076,1.562-8.408,1.548c-0.797-0.09-0.303,0.405,0.222,0.223
			c2.204,0.894,5.425,0.77,7.966,1.327c-3.014,0.822-5.976,1.695-9.957,1.55c-8.493-0.286-13.988-3.567-18.587-7.745
			c-2.424-2.444-4.317-5.42-5.974-8.63C1.54,36.1,2.393,24.74,6.125,18.826c0.074,0,0.147,0,0.221,0
			c1.378-2.974,3.683-5.021,5.753-7.302c3.974-2.885,8.184-5.535,14.383-6.196c-0.729,0.82-2.122,0.977-2.876,1.771
			c-4.739,2.636-8.098,6.654-10.842,11.285C13.986,17.833,15.603,15.767,16.968,14.622z M16.083,42.944
			c-4.241-4.384-5.05-14.908-3.098-21.685c-2.025,3.654-3.265,8.094-3.541,13.498c-1.932-3.581-1.701-10.322-1.549-14.162
			c-1.118,4.085-2.134,7.474-2.213,11.728c-0.25,13.585,8.902,22.195,19.472,24.783c-2.487-1.201-5.357-3.198-6.195-5.311
			c3.634,1.647,9.86,4.145,15.267,3.54c1.402-0.156,3.915-0.779,4.205-1.771c-2.078,0.526-4.905-0.108-6.417-0.885
			c3.623-0.359,7.14-0.826,9.293-2.655C24.613,51.848,13.489,43.88,15.64,27.898c0.178-0.756-0.33-1.263-0.221-0.221
			C13.688,32.5,14.479,39.2,16.083,42.944z"/>
		<path fill-rule="evenodd" clip-rule="evenodd" fill="#1072B9" d="M23.385,10.196c0.313-0.748,1.433,0.498,2.213-0.442
			c0.294,0,0.59,0,0.885,0c-0.44,2.335-2.39,1.894-3.54,3.319c-0.712-0.869-2.276-0.119-2.213,1.106
			c-0.532-0.205,0.134-1.609-0.885-1.328C21.858,12.857,22.125,11.263,23.385,10.196z"/>
		<path fill-rule="evenodd" clip-rule="evenodd" fill="#1072B9" d="M19.402,25.243c-0.8,0.209-0.309-0.872-0.442-1.328
			c0.879,0.486,1.015-0.632,1.77-0.885c1.697-0.168,2.952,0.744,2.876,1.549C23.466,26.077,20.117,25.832,19.402,25.243z"/>
		<path fill-rule="evenodd" clip-rule="evenodd" fill="#1072B9" d="M35.334,16.834c-1.657-0.884-2.284,0.685-3.099,1.328
			c-0.688-0.422,0.346-0.96,0.222-1.548c-2.761-0.217-4.34-2.619-6.638-0.885c0.59-0.682,0.975-1.873,0-2.434
			c1.568,0.874,5.07,2.517,6.417-0.222c0.048,2.165,3.079,1.347,4.204,2.434c0.07,0.299,0.314,0.423,0.222,0.885
			C36.094,16.415,35.606,16.517,35.334,16.834z"/>
		<path fill-rule="evenodd" clip-rule="evenodd" fill="#1072B9" d="M20.951,19.932c0.854-0.438,1.318-1.286,0.885-2.434
			c0.51-0.068,0.246,0.639,0.664,0.663c0.189,0.863,3.498,0.424,4.426-0.442c0.03,0.413,0.146,0.74,0.442,0.885
			c0.177,0.56,0.911,0.564,1.328,0.885c-0.417,0.617-1.638,0.428-2.213,0.885c-0.389-0.6-1.824-0.6-2.212,0
			C23.776,18.055,21.771,19.962,20.951,19.932z"/>
		<path fill-rule="evenodd" clip-rule="evenodd" fill="#30A3D5" d="M15.419,27.677c-0.108-1.042,0.399-0.535,0.221,0.221
			c-2.151,15.982,8.973,23.95,25.667,22.127c-2.153,1.829-5.67,2.296-9.293,2.655c1.512,0.776,4.339,1.411,6.417,0.885
			c-0.29,0.991-2.803,1.614-4.205,1.771c-5.407,0.604-11.633-1.893-15.267-3.54c0.838,2.112,3.708,4.109,6.195,5.311
			C14.584,54.519,5.432,45.908,5.683,32.323c0.079-4.254,1.095-7.643,2.213-11.728c-0.152,3.84-0.383,10.582,1.549,14.162
			c0.276-5.404,1.516-9.844,3.541-13.498c-1.952,6.776-1.143,17.301,3.098,21.685C14.479,39.2,13.688,32.5,15.419,27.677z
			 M22.5,48.697c-5.714-1.956-8.695-6.646-11.063-11.948c-0.14,2.058,0.126,3.71,0.442,5.311c-1.677-1.273-2.946-2.954-3.983-4.868
			c1.424,6.764,4.453,13.102,9.736,15.269c-1.219-1.363-2.323-2.84-2.656-5.09c3.605,3.034,8.437,6.021,14.604,5.753
			c-1.532-0.241-3.65-1.067-3.762-1.991c1.686,0.669,5.462,1.124,7.302,0.222c-5.307-0.3-9.631-2.762-12.17-5.089
			C21.329,47.07,22.555,48.192,22.5,48.697z"/>
		<path fill-rule="evenodd" clip-rule="evenodd" fill="#1072B9" d="M35.112,23.915c-1.116,0.433-1.571,1.526-3.319,1.328
			c0.336-0.623,1.048-0.87,0.885-1.992c-0.712-0.048-0.937,0.392-1.77,0.221c0.127-0.134,0.518-1.049,0-1.106
			c0.093-0.493,1.174-0.173,1.327,0c0.873-0.499-0.924-1.401-0.442-1.992c1.562,0.799,3.51,1.211,4.204,2.876
			C35.703,23.473,35.174,23.46,35.112,23.915z"/>
		<path fill-rule="evenodd" clip-rule="evenodd" fill="#1072B9" d="M41.971,29.226c0.348-1.827,3.523-2.71,5.09-1.328
			c1.424,1.214,0.045,2.888,0.885,4.204c-0.205,0.473-0.889-0.417-0.664-1.106c-0.421,0.095-0.556,0.477-1.105,0.443
			c0.819,0.913,0.359,2.272,1.105,3.54c0.094,1.014,1.154,1.059,1.55,1.771c-0.287,0.975-1.117-1.007-1.771-1.106
			c-0.765,1.361,1.857,1.236,1.549,2.877c-0.598-0.066-0.396-0.931-0.886-1.106c-0.421,0.021,0.138,0.864,0.443,0.885
			c-0.451,0.719-0.56-0.746-1.106-0.664c-0.429,0.964,0.964,1.226,0.442,1.55c-0.572-0.313-1.055-0.715-0.885-1.771
			c-0.033-0.926-0.992-0.926-1.55-1.327c0.431-3.218-2.48-6.45-2.211-1.771c-0.718-0.476,0.112-1.426,0-1.992
			c-0.366-1.826-2.24-2.402-2.878-0.664c-0.044,0.12,0.692,0.629-0.663,0.885c0.406,1.672-0.274,0.624-0.222,2.213
			c-0.343-0.321-0.465-0.863-0.442-1.549c-1.384,0.203-1.462,2.512-2.655,2.212c-0.685,2.382,1.445,1.949,1.992,3.099
			c-0.559,0.111-0.579-0.526-1.328-0.443c-1.105,0.125-0.75,1.208-1.327,1.55c0-0.296,0-0.591,0-0.885
			c0.411-1.129-0.012-2.016-0.443-2.877c0.205-1.714,0.967-2.869,1.771-3.983c-0.188-0.328-0.558-0.476-1.106-0.442
			C37.672,30.679,41.534,31.665,41.971,29.226z"/>
		<path fill-rule="evenodd" clip-rule="evenodd" fill="#9DD1ED" d="M47.503,39.184c0.521-0.324-0.871-0.586-0.442-1.55
			c0.547-0.082,0.655,1.383,1.106,0.664c-0.306-0.021-0.864-0.863-0.443-0.885c0.489,0.176,0.288,1.04,0.886,1.106
			c0.309-1.641-2.313-1.516-1.549-2.877c0.653,0.1,1.483,2.081,1.771,1.106c0.47,0.342,0.094,1.529,0.663,1.771
			c-0.162,0.395-0.402,0.031-0.663,0c0.02,0.719,1.319,0.156,1.105,1.106c-0.564-0.499-1.679-0.208-1.327,0.885
			c-0.257,0.037-0.24,0.35-0.221,0.664c-0.521-0.217-0.198-1.277-0.665-1.549C47.682,39.446,47.503,39.405,47.503,39.184z"/>
		<path fill-rule="evenodd" clip-rule="evenodd" fill="#9DD1ED" d="M20.951,46.265c2.54,2.327,6.863,4.789,12.17,5.089
			c-1.84,0.902-5.617,0.447-7.302-0.222c0.112,0.924,2.23,1.75,3.762,1.991c-6.168,0.268-11-2.719-14.604-5.753
			c0.333,2.25,1.437,3.727,2.656,5.09c-5.283-2.167-8.312-8.505-9.736-15.269c1.037,1.914,2.306,3.595,3.983,4.868
			c-0.316-1.601-0.582-3.253-0.442-5.311c2.369,5.303,5.349,9.992,11.063,11.948C22.555,48.192,21.329,47.07,20.951,46.265z"/>
		<path fill-rule="evenodd" clip-rule="evenodd" fill="#1072B9" d="M37.324,40.289c0.015-0.936,0.506-0.522,0.886-0.221
			c-0.421-1.135,0.513-1.47-0.221-1.992c2.13-0.497,1.871-0.104,2.876-0.885c0.509,1.052,0.45,1.31,0.885,2.435
			c-0.354-0.181-1.351-0.839-1.771-0.222c0.512,0.227,0.458,1.018,0.443,1.771c-0.565,0.098-1.018,0.311-1.328,0.664
			c0.514-0.071,0.85,0.035,1.107,0.221c0.745,3.631-4.222,1.081-1.771-1.328c-0.683-0.164-0.426,0.608-1.107,0.443
			C37.324,40.88,37.324,40.585,37.324,40.289z"/>
		<path fill-rule="evenodd" clip-rule="evenodd" fill="#1072B9" d="M46.618,44.937c-0.752,0.014-1.216-0.26-1.55-0.664
			c-0.579,0.344-0.467,1.253-1.548,1.549c0.39-1.074-1.594,0.004-2.213,0c0.311-0.354,0.763-0.565,1.327-0.664
			c-1.168-0.626,1.76-1.628,1.771-1.327C43.139,40.77,49.384,42.251,46.618,44.937z"/>
		<path fill-rule="evenodd" clip-rule="evenodd" fill="#1072B9" d="M46.176,13.958c0.937-1.276,1.472-2.953,1.77-4.868
			c1.321,1.292,0.339,3.138,1.106,4.426c0.421,0.706,1.839,0.919,2.655,1.549c2.166,1.668,4.467,4.57,4.426,8.629
			c1.019-0.277,1.024,1.188,1.77,1.549c1.001,0.484,2.48-0.081,3.32,0.885c-1.384,1.037-3.956,0.537-5.09-0.443
			c-1.06,1.892-2.058,3.843-3.099,5.753c-1.572-1.402-0.339-3.221-0.221-5.532c0.135-2.629-1.235-4.161-1.77-6.195
			c-0.101-0.383,0.25-0.935,0.221-1.327c-0.158-2.144-3.262-4.804-4.426-2.434C44.603,16.106,45.144,14.715,46.176,13.958z"/>
		<path fill-rule="evenodd" clip-rule="evenodd" fill="#1072B9" d="M29.801,41.175c1.159-0.169,1.842-0.813,2.656-1.328
			c0.186,0.257,0.292,0.594,0.221,1.107c0.172,0.049,0.437,0.005,0.443,0.221c0.777,0.039,0.728-0.748,1.328-0.886
			c-0.215,1.051-0.572,1.083,0,1.992c-0.682,0.165-0.427-0.608-1.107-0.442c-0.034,0.26,0.039,0.628-0.221,0.663
			c-0.054-0.389-0.382-0.504-0.886-0.442c-0.307,0.136-0.033,0.852-0.442,0.885c-0.248-0.046-0.345-0.244-0.442-0.442
			C30.891,42.048,28.981,42.211,29.801,41.175z"/>
		<path fill-rule="evenodd" clip-rule="evenodd" fill="#1072B9" d="M36.219,8.205c-0.49-0.852-3.086-1.823-3.762-0.443
			c-0.623-0.188-0.908-0.715-1.771-0.664c-0.878,1.334-1.307,3.119-2.655,3.983c0.624-1.228,1.956-4.925-0.222-6.196
			c0.828-0.451,1.373,1.276,2.212,1.549c0.178-0.117,0.359-0.231,0.664-0.221c0.32-0.836-0.608-0.425-0.443-1.106
			c0.964,0.096,3.248,1.291,3.098-0.664c0.946,1.065,1.988,0.456,3.762,0.885C39.757,5.971,40,8.616,43.078,7.541
			c-1.742,1.009-1.222,2.922-0.443,4.647c1.357-0.103,2.493,0.014,2.434,1.328c-2.36,0.939-4.917,0.055-7.079-0.443
			c-0.16-0.676,0.226-0.807,0.221-1.328c0.532-0.09,0.481,0.404,1.106,0.222c0,0.073,0,0.147,0,0.221c0.221,0,0.442,0,0.663,0
			c-0.73-1.799-2.43-3.241-3.982-1.328C35.898,9.94,36.878,8.951,36.219,8.205z"/>
		<path fill-rule="evenodd" clip-rule="evenodd" fill="#1072B9" d="M38.21,16.392c1.896-0.304,4.299-0.304,6.195,0
			c1.458,0.39,2.478,2.541,4.204,1.327c0.442,0,0.885,0,1.327,0c-0.677,1.147-2.534,3.848-1.77,6.417
			c-0.611-1.534-1.303,0.911-2.213,1.106c-0.394,0.123-0.919,0.114-1.106,0.442c-3.291-0.104-3.917,0.425-6.638,1.328
			c1.367-0.918,2.8-3.153,1.106-4.646c2.07-0.437,1.161,2.216,2.213,2.655c2.078,0.868,4.173-2.691,1.549-3.762
			c-0.693-0.104-0.624,0.556-0.886,0.885c-0.345-1.351-2.476-0.916-3.318-1.77c0.622-0.483,2.305,0.093,2.876-0.442
			C39.602,19.72,38.982,17.98,38.21,16.392z"/>
	</g>
	<path fill-rule="evenodd" clip-rule="evenodd" fill="none" stroke="#1072B9" stroke-width="0.3298" stroke-miterlimit="10" d="
		M29.698,36.323c0,0,4.588,2.686,5.562,2.876"/>
	<path fill-rule="evenodd" clip-rule="evenodd" fill="none" stroke="#1072B9" stroke-width="0.3298" stroke-miterlimit="10" d="
		M42.817,31.72c0,0-0.642,4.856,1.256,5.472c1.36,0.441,0.247,3.983,0.247,3.983"/>
	<path fill-rule="evenodd" clip-rule="evenodd" fill="none" stroke="#1072B9" stroke-width="0.3298" stroke-miterlimit="10" d="
		M47.281,30.996c0,0,0.326,1.548,1.55,2.007s1.401,1.889,1.13,2.64c-0.272,0.75-0.274,2.656,0.736,3.209
		c1.01,0.553-0.761,4.093-0.761,4.093"/>
	
		<line fill-rule="evenodd" clip-rule="evenodd" fill="none" stroke="#1072B9" stroke-width="0.3298" stroke-miterlimit="10" x1="27.585" y1="19.466" x2="30.432" y2="19.466"/>
	<path fill-rule="evenodd" clip-rule="evenodd" fill="#1072B9" d="M19.844,27.013l-1.398,1.042v0.733l-0.916,0.55l1.157,1.1
		l0.244-1.191C18.931,29.246,19.593,29.085,19.844,27.013z"/>
	<path fill-rule="evenodd" clip-rule="evenodd" fill="none" stroke="#1072B9" stroke-width="0.3298" stroke-miterlimit="10" d="
		M22.203,30.438c0,0,0.798-1.958,1.406-1.712c0.609,0.246,0.701,2.271,0.701,2.271"/>
</g>
</svg>
