<?xml version="1.0" encoding="utf-8"?>
<!-- Generator: Adobe Illustrator 15.0.2, SVG Export Plug-In . SVG Version: 6.00 Build 0)  -->
<!DOCTYPE svg PUBLIC "-//W3C//DTD SVG 1.1//EN" "http://www.w3.org/Graphics/SVG/1.1/DTD/svg11.dtd">
<svg version="1.1" id="レイヤー_1" xmlns="http://www.w3.org/2000/svg" xmlns:xlink="http://www.w3.org/1999/xlink" x="0px"
	 y="0px" width="64px" height="64px" viewBox="0 0 64 64" enable-background="new 0 0 64 64" xml:space="preserve">
<g opacity="0.49">
	<defs>
		<filter id="Adobe_OpacityMaskFilter" filterUnits="userSpaceOnUse" x="13.766" y="56.65" width="30.056" height="3.959">
			<feFlood  style="flood-color:white;flood-opacity:1" result="back"/>
			<feBlend  in="SourceGraphic" in2="back" mode="normal"/>
		</filter>
	</defs>
	<mask maskUnits="userSpaceOnUse" x="13.766" y="56.65" width="30.056" height="3.959" id="SVGID_1_">
		<g filter="url(#Adobe_OpacityMaskFilter)">
			<image overflow="visible" width="35" height="9" xlink:href="1CBC7D76.jpg"  transform="matrix(1 0 0 1 11.3726 53.7324)">
			</image>
		</g>
	</mask>
	<g mask="url(#SVGID_1_)">
		<ellipse fill="#9FA0A0" cx="28.793" cy="58.631" rx="15.028" ry="1.979"/>
	</g>
</g>
<g>
	<linearGradient id="SVGID_2_" gradientUnits="userSpaceOnUse" x1="23.5264" y1="39.7842" x2="41.8388" y2="40.1592">
		<stop  offset="0" style="stop-color:#000000"/>
		<stop  offset="0.4" style="stop-color:#B0B0B0"/>
		<stop  offset="1" style="stop-color:#000000"/>
	</linearGradient>
	<path fill="url(#SVGID_2_)" d="M40.89,21.068c0.511,0.157,0.813,5.5,0.813,8.188S41.14,48.193,40.89,50.943
		s-0.188,8.125-4.625,8.438c-4.437,0.313-7.562-1.125-9.25-1.813s-2.813-2.063-2.938-5.688s0.602-17.75,1.02-20.375
		C25.515,28.88,32.765,18.568,40.89,21.068z"/>
	<path fill="none" stroke="#231815" stroke-width="0.1" stroke-miterlimit="10" d="M24.828,39.631c0,0-0.621,11.398-0.25,13.75
		c0.375,2.375,0.938,4.438,7.563,5.438c5.343,0.807,6.812-0.813,7.625-4.313s0.938-11,0.938-11"/>
	<path fill="none" stroke="#595757" stroke-width="0.1" stroke-miterlimit="10" d="M36.702,59.256c0,0,2.313-0.438,3.125-4
		s1.938-30.688,0.75-32.5s-5.813-0.563-5.813-0.563"/>
	<linearGradient id="SVGID_3_" gradientUnits="userSpaceOnUse" x1="24.8125" y1="22.7085" x2="40.6058" y2="23.7152">
		<stop  offset="0" style="stop-color:#000000"/>
		<stop  offset="0.0595" style="stop-color:#0A0A0A"/>
		<stop  offset="0.2035" style="stop-color:#1E1E1E"/>
		<stop  offset="0.3503" style="stop-color:#292929"/>
		<stop  offset="0.503" style="stop-color:#2D2D2D"/>
		<stop  offset="1" style="stop-color:#000000"/>
	</linearGradient>
	<path fill="url(#SVGID_3_)" d="M24.073,38.408c-0.409-5.581-0.414-23.525,0-28.525c0.413-5,4.376-5.41,5.697-5.901
		s5.45-1.312,6.441-1.312c0.99,0,3.716-0.082,4.211,4.918s0.496,24.999,0,29.507c-0.496,4.51-1.156,6.723-4.211,6.969
		s-8.093-0.656-9.579-1.066C24.816,42.342,24.156,39.551,24.073,38.408z"/>
	<linearGradient id="SVGID_4_" gradientUnits="userSpaceOnUse" x1="35.3799" y1="10.6113" x2="26.505" y2="41.3609">
		<stop  offset="0" style="stop-color:#545454"/>
		<stop  offset="0.0086" style="stop-color:#525252"/>
		<stop  offset="0.1536" style="stop-color:#343434"/>
		<stop  offset="0.3071" style="stop-color:#1D1D1D"/>
		<stop  offset="0.4715" style="stop-color:#0D0D0D"/>
		<stop  offset="0.654" style="stop-color:#030303"/>
		<stop  offset="0.8909" style="stop-color:#000000"/>
		<stop  offset="1" style="stop-color:#142B40"/>
	</linearGradient>
	<path fill="url(#SVGID_4_)" d="M26.491,5.949c1.228-0.488,7.541-2.213,9.753-2.049s2.131,3.443,2.295,4.59
		s0.55,29.697-0.328,31.721c-0.655,1.512-1.475,2.295-2.704,2.541s-7.95-0.41-9.016-0.738c-1.066-0.326-2.459-2.295-2.377-4.754
		c0.03-0.904-0.164-24.753,0.082-26.884S25.429,6.371,26.491,5.949z"/>
	<ellipse fill="#595757" cx="28.067" cy="7.287" rx="0.198" ry="0.281"/>
	<linearGradient id="SVGID_5_" gradientUnits="userSpaceOnUse" x1="44.6631" y1="26.9697" x2="25.0391" y2="21.2825">
		<stop  offset="0" style="stop-color:#FFFFFF"/>
		<stop  offset="0.0222" style="stop-color:#D4D5DA"/>
		<stop  offset="0.0516" style="stop-color:#A3A3AE"/>
		<stop  offset="0.0826" style="stop-color:#777888"/>
		<stop  offset="0.1146" style="stop-color:#535367"/>
		<stop  offset="0.1478" style="stop-color:#35354D"/>
		<stop  offset="0.1827" style="stop-color:#1D1E39"/>
		<stop  offset="0.22" style="stop-color:#0D0E2A"/>
		<stop  offset="0.2614" style="stop-color:#030422"/>
		<stop  offset="0.3152" style="stop-color:#00011F"/>
		<stop  offset="0.4788" style="stop-color:#002BBF"/>
		<stop  offset="0.7818" style="stop-color:#3FC4FF"/>
		<stop  offset="0.7821" style="stop-color:#3DBDF6"/>
		<stop  offset="0.7838" style="stop-color:#319AC8"/>
		<stop  offset="0.7858" style="stop-color:#27799D"/>
		<stop  offset="0.7878" style="stop-color:#1D5C77"/>
		<stop  offset="0.7901" style="stop-color:#154357"/>
		<stop  offset="0.7926" style="stop-color:#0F2E3B"/>
		<stop  offset="0.7954" style="stop-color:#091D25"/>
		<stop  offset="0.7987" style="stop-color:#051014"/>
		<stop  offset="0.8027" style="stop-color:#020709"/>
		<stop  offset="0.8084" style="stop-color:#000102"/>
		<stop  offset="0.8242" style="stop-color:#000000"/>
		<stop  offset="0.8252" style="stop-color:#000304"/>
		<stop  offset="0.8343" style="stop-color:#001829"/>
		<stop  offset="0.8445" style="stop-color:#002A48"/>
		<stop  offset="0.8558" style="stop-color:#003A64"/>
		<stop  offset="0.8686" style="stop-color:#00477A"/>
		<stop  offset="0.8836" style="stop-color:#00518B"/>
		<stop  offset="0.902" style="stop-color:#005896"/>
		<stop  offset="0.928" style="stop-color:#005C9D"/>
		<stop  offset="1" style="stop-color:#005D9F"/>
	</linearGradient>
	<path fill="url(#SVGID_5_)" d="M37.474,36.834c0,0.551-0.444,0.98-0.989,0.955l-10.273-0.482c-0.543-0.025-0.989-0.496-0.989-1.045
		V11.949c0-0.55,0.439-1.076,0.976-1.169l10.3-1.792c0.537-0.093,0.976,0.281,0.976,0.831V36.834z"/>
	<path opacity="0.37" fill="#FFFFFF" d="M26.491,5.949c0.914-0.486,7.541-2.213,9.753-2.049s2.131,3.443,2.295,4.59
		c0.084,0.587,0.226,8.361,0.227,16.078c-6.5-6.125-8.938-8.188-14.5-14C24.328,8.88,25.328,6.568,26.491,5.949z"/>
	
		<line fill="none" stroke="#FFFFFF" stroke-width="0.3" stroke-linecap="round" stroke-miterlimit="10" x1="29.921" y1="39.568" x2="32.046" y2="39.725"/>
	<path stroke="#231815" stroke-width="0.1" stroke-miterlimit="10" d="M31.976,6.404c0.001-0.134-0.104-0.22-0.235-0.192
		l-1.405,0.305c-0.13,0.028-0.238,0.161-0.24,0.294v0.046c-0.001,0.134,0.104,0.22,0.235,0.192l1.405-0.305
		c0.13-0.028,0.238-0.161,0.24-0.294V6.404z"/>
	<g>
		<defs>
			<path id="SVGID_6_" d="M31.976,6.404c0.001-0.134-0.104-0.22-0.235-0.192l-1.405,0.305c-0.13,0.028-0.238,0.161-0.24,0.294v0.046
				c-0.001,0.134,0.104,0.22,0.235,0.192l1.405-0.305c0.13-0.028,0.238-0.161,0.24-0.294V6.404z"/>
		</defs>
		<clipPath id="SVGID_7_">
			<use xlink:href="#SVGID_6_"  overflow="visible"/>
		</clipPath>
		<path clip-path="url(#SVGID_7_)" fill="#C7C8C9" d="M32.101,6.466c0.001-0.134-0.104-0.22-0.235-0.192l-1.405,0.305
			c-0.13,0.028-0.238,0.161-0.24,0.294V6.92c-0.001,0.134,0.104,0.22,0.235,0.192l1.405-0.305c0.13-0.028,0.238-0.161,0.24-0.294
			V6.466z"/>
	</g>
	<linearGradient id="SVGID_8_" gradientUnits="userSpaceOnUse" x1="16.7197" y1="60.3418" x2="38.8441" y2="45.3422">
		<stop  offset="0" style="stop-color:#CFCFCF"/>
		<stop  offset="1" style="stop-color:#000000"/>
	</linearGradient>
	<path fill="url(#SVGID_8_)" d="M25.203,43.131c0.585-0.533,4.197,1.039,6.563,1.25c2.812,0.25,5-0.063,6-0.25
		s1.938-0.063,1.938,1.625c0,1.715,0,9.063-1,10.625s-2.375,2.438-5.437,2.063c-3.063-0.375-7.438-1.875-7.875-3.5
		C24.797,52.74,24.515,43.756,25.203,43.131z"/>
	<path fill="#010202" fill-opacity="0.53" stroke="#000000" stroke-width="0.2" stroke-miterlimit="10" d="M25.64,43.693
		c1.028-0.514,3.375,1.438,7.063,1.625c3.687,0.188,5.625-0.5,6.375-0.313s0.563,2.563,0.5,3.25s-0.188,5.625-1.75,6.5
		s-3.844,0.75-5.437,0.438c-1.594-0.313-4.235-0.99-5.5-1.875c-1.25-0.875-1.625-3.25-1.563-4.625S25.265,43.881,25.64,43.693z"/>
	<g>
		<g>
			<path fill-rule="evenodd" clip-rule="evenodd" stroke="#1E1E1E" stroke-width="0.1" stroke-miterlimit="10" d="M25.557,44.217
				c0.229-0.188,0.729-0.188,0.958,0.271c0.208,0.457-0.021,1.332-0.021,1.332s-0.438,0.313-0.875-0.104
				C25.328,44.904,25.557,44.217,25.557,44.217z"/>
			<linearGradient id="SVGID_9_" gradientUnits="userSpaceOnUse" x1="25.979" y1="45.2725" x2="25.3642" y2="45.6826">
				<stop  offset="0" style="stop-color:#FFFFFF"/>
				<stop  offset="1" style="stop-color:#000000"/>
			</linearGradient>
			<path opacity="0.42" fill-rule="evenodd" clip-rule="evenodd" fill="url(#SVGID_9_)" d="M25.515,44.904
				c0,0,0.063,0.541,0.5,1.021C26.015,45.926,25.39,45.904,25.515,44.904z"/>
			<linearGradient id="SVGID_10_" gradientUnits="userSpaceOnUse" x1="26.9531" y1="44.4238" x2="25.5645" y2="45.3503">
				<stop  offset="0" style="stop-color:#FFFFFF"/>
				<stop  offset="1" style="stop-color:#000000"/>
			</linearGradient>
			<path fill-rule="evenodd" clip-rule="evenodd" fill="url(#SVGID_10_)" d="M25.599,44.301l0.875,1.52c0,0,0.25-0.896-0.042-1.438
				C25.953,43.926,25.557,44.238,25.599,44.301z"/>
		</g>
		<g>
			<path fill-rule="evenodd" clip-rule="evenodd" stroke="#1E1E1E" stroke-width="0.1" stroke-miterlimit="10" d="M26.87,44.697
				c0.229-0.188,0.729-0.189,0.958,0.27c0.208,0.459-0.021,1.334-0.021,1.334s-0.438,0.313-0.875-0.104
				C26.64,45.385,26.87,44.697,26.87,44.697z"/>
			<linearGradient id="SVGID_11_" gradientUnits="userSpaceOnUse" x1="27.291" y1="45.752" x2="26.6771" y2="46.1615">
				<stop  offset="0" style="stop-color:#FFFFFF"/>
				<stop  offset="1" style="stop-color:#000000"/>
			</linearGradient>
			<path opacity="0.42" fill-rule="evenodd" clip-rule="evenodd" fill="url(#SVGID_11_)" d="M26.828,45.385
				c0,0,0.063,0.541,0.5,1.02C27.328,46.404,26.703,46.385,26.828,45.385z"/>
			<linearGradient id="SVGID_12_" gradientUnits="userSpaceOnUse" x1="28.2646" y1="44.9033" x2="26.8761" y2="45.8298">
				<stop  offset="0" style="stop-color:#FFFFFF"/>
				<stop  offset="1" style="stop-color:#000000"/>
			</linearGradient>
			<path fill-rule="evenodd" clip-rule="evenodd" fill="url(#SVGID_12_)" d="M26.911,44.779l0.875,1.521c0,0,0.25-0.896-0.042-1.438
				C27.265,44.404,26.87,44.717,26.911,44.779z"/>
		</g>
		<g>
			<path fill-rule="evenodd" clip-rule="evenodd" stroke="#1E1E1E" stroke-width="0.1" stroke-miterlimit="10" d="M28.182,45.113
				c0.229-0.188,0.729-0.188,0.958,0.271c0.208,0.457-0.021,1.332-0.021,1.332s-0.438,0.313-0.875-0.104
				C27.953,45.801,28.182,45.113,28.182,45.113z"/>
			<linearGradient id="SVGID_13_" gradientUnits="userSpaceOnUse" x1="28.6035" y1="46.168" x2="27.9887" y2="46.5781">
				<stop  offset="0" style="stop-color:#FFFFFF"/>
				<stop  offset="1" style="stop-color:#000000"/>
			</linearGradient>
			<path opacity="0.42" fill-rule="evenodd" clip-rule="evenodd" fill="url(#SVGID_13_)" d="M28.14,45.801
				c0,0,0.063,0.541,0.5,1.021C28.64,46.822,28.015,46.801,28.14,45.801z"/>
			<linearGradient id="SVGID_14_" gradientUnits="userSpaceOnUse" x1="29.5781" y1="45.3203" x2="28.1895" y2="46.2468">
				<stop  offset="0" style="stop-color:#FFFFFF"/>
				<stop  offset="1" style="stop-color:#000000"/>
			</linearGradient>
			<path fill-rule="evenodd" clip-rule="evenodd" fill="url(#SVGID_14_)" d="M28.224,45.197l0.875,1.52c0,0,0.25-0.896-0.042-1.438
				C28.578,44.822,28.182,45.135,28.224,45.197z"/>
		</g>
		<g>
			<path fill-rule="evenodd" clip-rule="evenodd" stroke="#1E1E1E" stroke-width="0.1017" stroke-miterlimit="10" d="M29.474,45.408
				c0.229-0.193,0.729-0.193,0.958,0.281c0.208,0.473-0.021,1.377-0.021,1.377s-0.438,0.324-0.875-0.107
				C29.244,46.119,29.474,45.408,29.474,45.408z"/>
			<linearGradient id="SVGID_15_" gradientUnits="userSpaceOnUse" x1="29.9106" y1="46.4951" x2="29.2683" y2="46.9237">
				<stop  offset="0" style="stop-color:#FFFFFF"/>
				<stop  offset="1" style="stop-color:#000000"/>
			</linearGradient>
			<path opacity="0.42" fill-rule="evenodd" clip-rule="evenodd" fill="url(#SVGID_15_)" d="M29.432,46.119
				c0,0,0.063,0.561,0.5,1.057C29.932,47.176,29.307,47.154,29.432,46.119z"/>
			<linearGradient id="SVGID_16_" gradientUnits="userSpaceOnUse" x1="30.8916" y1="45.6279" x2="29.4537" y2="46.5873">
				<stop  offset="0" style="stop-color:#FFFFFF"/>
				<stop  offset="1" style="stop-color:#000000"/>
			</linearGradient>
			<path fill-rule="evenodd" clip-rule="evenodd" fill="url(#SVGID_16_)" d="M29.515,45.494l0.875,1.572c0,0,0.25-0.926-0.042-1.486
				C29.869,45.107,29.474,45.43,29.515,45.494z"/>
		</g>
		<g>
			<path fill-rule="evenodd" clip-rule="evenodd" stroke="#1E1E1E" stroke-width="0.1011" stroke-miterlimit="10" d="M30.828,45.658
				c0.229-0.193,0.729-0.193,0.958,0.275c0.208,0.469-0.021,1.363-0.021,1.363s-0.438,0.32-0.875-0.105
				C30.599,46.361,30.828,45.658,30.828,45.658z"/>
			<linearGradient id="SVGID_17_" gradientUnits="userSpaceOnUse" x1="31.2593" y1="46.7334" x2="30.6276" y2="47.1548">
				<stop  offset="0" style="stop-color:#FFFFFF"/>
				<stop  offset="1" style="stop-color:#000000"/>
			</linearGradient>
			<path opacity="0.42" fill-rule="evenodd" clip-rule="evenodd" fill="url(#SVGID_17_)" d="M30.786,46.361
				c0,0,0.063,0.553,0.5,1.043C31.286,47.404,30.661,47.383,30.786,46.361z"/>
			<linearGradient id="SVGID_18_" gradientUnits="userSpaceOnUse" x1="32.2378" y1="45.873" x2="30.8177" y2="46.8205">
				<stop  offset="0" style="stop-color:#FFFFFF"/>
				<stop  offset="1" style="stop-color:#000000"/>
			</linearGradient>
			<path fill-rule="evenodd" clip-rule="evenodd" fill="url(#SVGID_18_)" d="M30.87,45.742l0.875,1.555c0,0,0.25-0.916-0.042-1.469
				C31.224,45.359,30.828,45.678,30.87,45.742z"/>
		</g>
		<g>
			<path fill-rule="evenodd" clip-rule="evenodd" stroke="#1E1E1E" stroke-width="0.1011" stroke-miterlimit="10" d="M32.266,45.867
				c0.229-0.193,0.729-0.193,0.958,0.275c0.208,0.469-0.021,1.363-0.021,1.363s-0.438,0.32-0.875-0.105
				C32.036,46.57,32.266,45.867,32.266,45.867z"/>
			<linearGradient id="SVGID_19_" gradientUnits="userSpaceOnUse" x1="32.6968" y1="46.9424" x2="32.0651" y2="47.3638">
				<stop  offset="0" style="stop-color:#FFFFFF"/>
				<stop  offset="1" style="stop-color:#000000"/>
			</linearGradient>
			<path opacity="0.42" fill-rule="evenodd" clip-rule="evenodd" fill="url(#SVGID_19_)" d="M32.224,46.57
				c0,0,0.063,0.553,0.5,1.043C32.724,47.613,32.099,47.592,32.224,46.57z"/>
			<linearGradient id="SVGID_20_" gradientUnits="userSpaceOnUse" x1="33.6748" y1="46.0811" x2="32.2538" y2="47.0291">
				<stop  offset="0" style="stop-color:#FFFFFF"/>
				<stop  offset="1" style="stop-color:#000000"/>
			</linearGradient>
			<path fill-rule="evenodd" clip-rule="evenodd" fill="url(#SVGID_20_)" d="M32.307,45.951l0.875,1.555
				c0,0,0.251-0.916-0.041-1.469C32.661,45.568,32.266,45.887,32.307,45.951z"/>
		</g>
		<g>
			<path fill-rule="evenodd" clip-rule="evenodd" stroke="#1E1E1E" stroke-width="0.1011" stroke-miterlimit="10" d="M33.62,45.992
				c0.229-0.193,0.729-0.193,0.957,0.275c0.209,0.469-0.02,1.363-0.02,1.363s-0.438,0.32-0.875-0.105
				C33.391,46.695,33.62,45.992,33.62,45.992z"/>
			<linearGradient id="SVGID_21_" gradientUnits="userSpaceOnUse" x1="34.0508" y1="47.0674" x2="33.4187" y2="47.4891">
				<stop  offset="0" style="stop-color:#FFFFFF"/>
				<stop  offset="1" style="stop-color:#000000"/>
			</linearGradient>
			<path opacity="0.42" fill-rule="evenodd" clip-rule="evenodd" fill="url(#SVGID_21_)" d="M33.578,46.695
				c0,0,0.063,0.553,0.499,1.043C34.077,47.738,33.453,47.717,33.578,46.695z"/>
			<linearGradient id="SVGID_22_" gradientUnits="userSpaceOnUse" x1="35.0293" y1="46.2061" x2="33.6083" y2="47.1541">
				<stop  offset="0" style="stop-color:#FFFFFF"/>
				<stop  offset="1" style="stop-color:#000000"/>
			</linearGradient>
			<path fill-rule="evenodd" clip-rule="evenodd" fill="url(#SVGID_22_)" d="M33.662,46.076l0.874,1.555c0,0,0.25-0.916-0.041-1.469
				C34.015,45.693,33.62,46.012,33.662,46.076z"/>
		</g>
		<g>
			<path fill-rule="evenodd" clip-rule="evenodd" stroke="#1E1E1E" stroke-width="0.1067" stroke-miterlimit="10" d="M35.083,45.936
				c0.242-0.203,0.77-0.203,1.011,0.291c0.221,0.496-0.021,1.439-0.021,1.439s-0.462,0.338-0.925-0.111
				C34.841,46.678,35.083,45.936,35.083,45.936z"/>
			<linearGradient id="SVGID_23_" gradientUnits="userSpaceOnUse" x1="35.5381" y1="47.0713" x2="34.8713" y2="47.5161">
				<stop  offset="0" style="stop-color:#FFFFFF"/>
				<stop  offset="1" style="stop-color:#000000"/>
			</linearGradient>
			<path opacity="0.42" fill-rule="evenodd" clip-rule="evenodd" fill="url(#SVGID_23_)" d="M35.038,46.678
				c0,0,0.066,0.584,0.528,1.102C35.566,47.779,34.906,47.756,35.038,46.678z"/>
			<linearGradient id="SVGID_24_" gradientUnits="userSpaceOnUse" x1="36.5713" y1="46.1631" x2="35.0721" y2="47.1633">
				<stop  offset="0" style="stop-color:#FFFFFF"/>
				<stop  offset="1" style="stop-color:#000000"/>
			</linearGradient>
			<path fill-rule="evenodd" clip-rule="evenodd" fill="url(#SVGID_24_)" d="M35.127,46.025l0.924,1.641
				c0,0,0.264-0.967-0.044-1.551C35.5,45.621,35.083,45.957,35.127,46.025z"/>
		</g>
		<g>
			<path fill-rule="evenodd" clip-rule="evenodd" stroke="#1E1E1E" stroke-width="0.1067" stroke-miterlimit="10" d="M36.521,45.854
				c0.242-0.203,0.77-0.205,1.012,0.291c0.221,0.494-0.021,1.439-0.021,1.439s-0.461,0.338-0.924-0.111
				C36.278,46.596,36.521,45.854,36.521,45.854z"/>
			<linearGradient id="SVGID_25_" gradientUnits="userSpaceOnUse" x1="36.9756" y1="46.9902" x2="36.3102" y2="47.4342">
				<stop  offset="0" style="stop-color:#FFFFFF"/>
				<stop  offset="1" style="stop-color:#000000"/>
			</linearGradient>
			<path opacity="0.42" fill-rule="evenodd" clip-rule="evenodd" fill="url(#SVGID_25_)" d="M36.476,46.596
				c0,0,0.066,0.584,0.529,1.102C37.005,47.697,36.345,47.674,36.476,46.596z"/>
			<linearGradient id="SVGID_26_" gradientUnits="userSpaceOnUse" x1="38.0098" y1="46.0801" x2="36.5101" y2="47.0806">
				<stop  offset="0" style="stop-color:#FFFFFF"/>
				<stop  offset="1" style="stop-color:#000000"/>
			</linearGradient>
			<path fill-rule="evenodd" clip-rule="evenodd" fill="url(#SVGID_26_)" d="M36.565,45.943l0.924,1.641
				c0,0,0.264-0.969-0.045-1.553C36.938,45.537,36.521,45.875,36.565,45.943z"/>
		</g>
		<g>
			<path fill-rule="evenodd" clip-rule="evenodd" stroke="#1E1E1E" stroke-width="0.1101" stroke-miterlimit="10" d="M38.048,45.668
				c0.25-0.209,0.794-0.209,1.044,0.301c0.228,0.512-0.022,1.484-0.022,1.484s-0.476,0.35-0.953-0.115
				C37.798,46.434,38.048,45.668,38.048,45.668z"/>
			<linearGradient id="SVGID_27_" gradientUnits="userSpaceOnUse" x1="38.5166" y1="46.8398" x2="37.8294" y2="47.2983">
				<stop  offset="0" style="stop-color:#FFFFFF"/>
				<stop  offset="1" style="stop-color:#000000"/>
			</linearGradient>
			<path opacity="0.42" fill-rule="evenodd" clip-rule="evenodd" fill="url(#SVGID_27_)" d="M38.002,46.434
				c0,0,0.068,0.604,0.546,1.137C38.548,47.57,37.867,47.547,38.002,46.434z"/>
			<linearGradient id="SVGID_28_" gradientUnits="userSpaceOnUse" x1="39.583" y1="45.9043" x2="38.0389" y2="46.9345">
				<stop  offset="0" style="stop-color:#FFFFFF"/>
				<stop  offset="1" style="stop-color:#000000"/>
			</linearGradient>
			<path fill-rule="evenodd" clip-rule="evenodd" fill="url(#SVGID_28_)" d="M38.095,45.762l0.953,1.691c0,0,0.271-0.998-0.047-1.6
				C38.479,45.344,38.048,45.691,38.095,45.762z"/>
		</g>
		<g>
			<path fill-rule="evenodd" clip-rule="evenodd" stroke="#1E1E1E" stroke-width="0.1" stroke-miterlimit="10" d="M25.557,46.529
				c0.229-0.188,0.729-0.188,0.958,0.271c0.208,0.457-0.021,1.332-0.021,1.332s-0.438,0.313-0.875-0.104
				C25.328,47.217,25.557,46.529,25.557,46.529z"/>
			<linearGradient id="SVGID_29_" gradientUnits="userSpaceOnUse" x1="25.979" y1="47.585" x2="25.3642" y2="47.9951">
				<stop  offset="0" style="stop-color:#FFFFFF"/>
				<stop  offset="1" style="stop-color:#000000"/>
			</linearGradient>
			<path opacity="0.42" fill-rule="evenodd" clip-rule="evenodd" fill="url(#SVGID_29_)" d="M25.515,47.217
				c0,0,0.063,0.541,0.5,1.021C26.015,48.238,25.39,48.217,25.515,47.217z"/>
			<linearGradient id="SVGID_30_" gradientUnits="userSpaceOnUse" x1="26.9531" y1="46.7363" x2="25.5645" y2="47.6628">
				<stop  offset="0" style="stop-color:#FFFFFF"/>
				<stop  offset="1" style="stop-color:#000000"/>
			</linearGradient>
			<path fill-rule="evenodd" clip-rule="evenodd" fill="url(#SVGID_30_)" d="M25.599,46.613l0.875,1.52c0,0,0.25-0.896-0.042-1.438
				C25.953,46.238,25.557,46.551,25.599,46.613z"/>
		</g>
		<g>
			<path fill-rule="evenodd" clip-rule="evenodd" stroke="#1E1E1E" stroke-width="0.1" stroke-miterlimit="10" d="M26.87,47.01
				c0.229-0.188,0.729-0.189,0.958,0.27c0.208,0.459-0.021,1.334-0.021,1.334s-0.438,0.313-0.875-0.104
				C26.64,47.697,26.87,47.01,26.87,47.01z"/>
			<linearGradient id="SVGID_31_" gradientUnits="userSpaceOnUse" x1="27.2915" y1="48.0654" x2="26.6776" y2="48.475">
				<stop  offset="0" style="stop-color:#FFFFFF"/>
				<stop  offset="1" style="stop-color:#000000"/>
			</linearGradient>
			<path opacity="0.42" fill-rule="evenodd" clip-rule="evenodd" fill="url(#SVGID_31_)" d="M26.828,47.697
				c0,0,0.063,0.541,0.5,1.02C27.328,48.717,26.703,48.697,26.828,47.697z"/>
			<linearGradient id="SVGID_32_" gradientUnits="userSpaceOnUse" x1="28.2651" y1="47.2158" x2="26.8765" y2="48.1423">
				<stop  offset="0" style="stop-color:#FFFFFF"/>
				<stop  offset="1" style="stop-color:#000000"/>
			</linearGradient>
			<path fill-rule="evenodd" clip-rule="evenodd" fill="url(#SVGID_32_)" d="M26.911,47.092l0.875,1.521c0,0,0.25-0.896-0.042-1.438
				C27.265,46.717,26.87,47.029,26.911,47.092z"/>
		</g>
		<g>
			<path fill-rule="evenodd" clip-rule="evenodd" stroke="#1E1E1E" stroke-width="0.1" stroke-miterlimit="10" d="M28.182,47.426
				c0.229-0.188,0.729-0.188,0.958,0.271c0.208,0.457-0.021,1.332-0.021,1.332s-0.438,0.313-0.875-0.104
				C27.953,48.113,28.182,47.426,28.182,47.426z"/>
			<linearGradient id="SVGID_33_" gradientUnits="userSpaceOnUse" x1="28.604" y1="48.4805" x2="27.9892" y2="48.8906">
				<stop  offset="0" style="stop-color:#FFFFFF"/>
				<stop  offset="1" style="stop-color:#000000"/>
			</linearGradient>
			<path opacity="0.42" fill-rule="evenodd" clip-rule="evenodd" fill="url(#SVGID_33_)" d="M28.14,48.113
				c0,0,0.063,0.541,0.5,1.021C28.64,49.135,28.015,49.113,28.14,48.113z"/>
			<linearGradient id="SVGID_34_" gradientUnits="userSpaceOnUse" x1="29.5781" y1="47.6338" x2="28.1895" y2="48.5602">
				<stop  offset="0" style="stop-color:#FFFFFF"/>
				<stop  offset="1" style="stop-color:#000000"/>
			</linearGradient>
			<path fill-rule="evenodd" clip-rule="evenodd" fill="url(#SVGID_34_)" d="M28.224,47.51l0.875,1.52c0,0,0.25-0.896-0.042-1.438
				C28.578,47.135,28.182,47.447,28.224,47.51z"/>
		</g>
		<g>
			<path fill-rule="evenodd" clip-rule="evenodd" stroke="#1E1E1E" stroke-width="0.1017" stroke-miterlimit="10" d="M29.474,47.721
				c0.229-0.193,0.729-0.193,0.958,0.281c0.208,0.473-0.021,1.377-0.021,1.377s-0.438,0.324-0.875-0.107
				C29.244,48.432,29.474,47.721,29.474,47.721z"/>
			<linearGradient id="SVGID_35_" gradientUnits="userSpaceOnUse" x1="29.9102" y1="48.8066" x2="29.2678" y2="49.2352">
				<stop  offset="0" style="stop-color:#FFFFFF"/>
				<stop  offset="1" style="stop-color:#000000"/>
			</linearGradient>
			<path opacity="0.42" fill-rule="evenodd" clip-rule="evenodd" fill="url(#SVGID_35_)" d="M29.432,48.432
				c0,0,0.063,0.561,0.5,1.057C29.932,49.488,29.307,49.467,29.432,48.432z"/>
			<linearGradient id="SVGID_36_" gradientUnits="userSpaceOnUse" x1="30.8916" y1="47.9404" x2="29.4537" y2="48.8998">
				<stop  offset="0" style="stop-color:#FFFFFF"/>
				<stop  offset="1" style="stop-color:#000000"/>
			</linearGradient>
			<path fill-rule="evenodd" clip-rule="evenodd" fill="url(#SVGID_36_)" d="M29.515,47.807l0.875,1.572c0,0,0.25-0.926-0.042-1.486
				C29.869,47.42,29.474,47.742,29.515,47.807z"/>
		</g>
		<g>
			<path fill-rule="evenodd" clip-rule="evenodd" stroke="#1E1E1E" stroke-width="0.1011" stroke-miterlimit="10" d="M30.828,47.971
				c0.229-0.193,0.729-0.193,0.958,0.275c0.208,0.469-0.021,1.363-0.021,1.363s-0.438,0.32-0.875-0.105
				C30.599,48.674,30.828,47.971,30.828,47.971z"/>
			<linearGradient id="SVGID_37_" gradientUnits="userSpaceOnUse" x1="31.2593" y1="49.0469" x2="30.6276" y2="49.4683">
				<stop  offset="0" style="stop-color:#FFFFFF"/>
				<stop  offset="1" style="stop-color:#000000"/>
			</linearGradient>
			<path opacity="0.42" fill-rule="evenodd" clip-rule="evenodd" fill="url(#SVGID_37_)" d="M30.786,48.674
				c0,0,0.063,0.553,0.5,1.043C31.286,49.717,30.661,49.695,30.786,48.674z"/>
			<linearGradient id="SVGID_38_" gradientUnits="userSpaceOnUse" x1="32.2378" y1="48.1855" x2="30.8177" y2="49.133">
				<stop  offset="0" style="stop-color:#FFFFFF"/>
				<stop  offset="1" style="stop-color:#000000"/>
			</linearGradient>
			<path fill-rule="evenodd" clip-rule="evenodd" fill="url(#SVGID_38_)" d="M30.87,48.055l0.875,1.555c0,0,0.25-0.916-0.042-1.469
				C31.224,47.672,30.828,47.99,30.87,48.055z"/>
		</g>
		<g>
			<path fill-rule="evenodd" clip-rule="evenodd" stroke="#1E1E1E" stroke-width="0.1011" stroke-miterlimit="10" d="M32.182,48.18
				c0.229-0.193,0.729-0.193,0.958,0.275c0.208,0.469-0.021,1.363-0.021,1.363s-0.437,0.32-0.875-0.105
				C31.953,48.883,32.182,48.18,32.182,48.18z"/>
			<linearGradient id="SVGID_39_" gradientUnits="userSpaceOnUse" x1="32.6128" y1="49.2549" x2="31.9811" y2="49.6763">
				<stop  offset="0" style="stop-color:#FFFFFF"/>
				<stop  offset="1" style="stop-color:#000000"/>
			</linearGradient>
			<path opacity="0.42" fill-rule="evenodd" clip-rule="evenodd" fill="url(#SVGID_39_)" d="M32.14,48.883
				c0,0,0.063,0.553,0.5,1.043C32.64,49.926,32.015,49.904,32.14,48.883z"/>
			<linearGradient id="SVGID_40_" gradientUnits="userSpaceOnUse" x1="33.5918" y1="48.3955" x2="32.1721" y2="49.3427">
				<stop  offset="0" style="stop-color:#FFFFFF"/>
				<stop  offset="1" style="stop-color:#000000"/>
			</linearGradient>
			<path fill-rule="evenodd" clip-rule="evenodd" fill="url(#SVGID_40_)" d="M32.224,48.264l0.875,1.555
				c0,0,0.251-0.916-0.042-1.469C32.578,47.881,32.182,48.199,32.224,48.264z"/>
		</g>
		<g>
			<path fill-rule="evenodd" clip-rule="evenodd" stroke="#1E1E1E" stroke-width="0.1011" stroke-miterlimit="10" d="M33.62,48.305
				c0.229-0.193,0.729-0.193,0.957,0.275c0.209,0.469-0.02,1.363-0.02,1.363s-0.438,0.32-0.875-0.105
				C33.391,49.008,33.62,48.305,33.62,48.305z"/>
			<linearGradient id="SVGID_41_" gradientUnits="userSpaceOnUse" x1="34.0518" y1="49.3799" x2="33.4197" y2="49.8016">
				<stop  offset="0" style="stop-color:#FFFFFF"/>
				<stop  offset="1" style="stop-color:#000000"/>
			</linearGradient>
			<path opacity="0.42" fill-rule="evenodd" clip-rule="evenodd" fill="url(#SVGID_41_)" d="M33.578,49.008
				c0,0,0.063,0.553,0.499,1.043C34.077,50.051,33.453,50.029,33.578,49.008z"/>
			<linearGradient id="SVGID_42_" gradientUnits="userSpaceOnUse" x1="35.0293" y1="48.5186" x2="33.6083" y2="49.4666">
				<stop  offset="0" style="stop-color:#FFFFFF"/>
				<stop  offset="1" style="stop-color:#000000"/>
			</linearGradient>
			<path fill-rule="evenodd" clip-rule="evenodd" fill="url(#SVGID_42_)" d="M33.662,48.389l0.874,1.555c0,0,0.25-0.916-0.041-1.469
				C34.015,48.006,33.62,48.324,33.662,48.389z"/>
		</g>
		<g>
			<path fill-rule="evenodd" clip-rule="evenodd" stroke="#1E1E1E" stroke-width="0.1067" stroke-miterlimit="10" d="M34.999,48.395
				c0.242-0.203,0.77-0.203,1.011,0.291c0.221,0.496-0.021,1.439-0.021,1.439s-0.462,0.338-0.925-0.111
				C34.757,49.137,34.999,48.395,34.999,48.395z"/>
			<linearGradient id="SVGID_43_" gradientUnits="userSpaceOnUse" x1="35.4541" y1="49.5303" x2="34.7873" y2="49.9751">
				<stop  offset="0" style="stop-color:#FFFFFF"/>
				<stop  offset="1" style="stop-color:#000000"/>
			</linearGradient>
			<path opacity="0.42" fill-rule="evenodd" clip-rule="evenodd" fill="url(#SVGID_43_)" d="M34.954,49.137
				c0,0,0.066,0.584,0.528,1.102C35.482,50.238,34.822,50.215,34.954,49.137z"/>
			<linearGradient id="SVGID_44_" gradientUnits="userSpaceOnUse" x1="36.4873" y1="48.6211" x2="34.9881" y2="49.6213">
				<stop  offset="0" style="stop-color:#FFFFFF"/>
				<stop  offset="1" style="stop-color:#000000"/>
			</linearGradient>
			<path fill-rule="evenodd" clip-rule="evenodd" fill="url(#SVGID_44_)" d="M35.043,48.484l0.924,1.641
				c0,0,0.264-0.967-0.044-1.551C35.416,48.08,34.999,48.416,35.043,48.484z"/>
		</g>
		<g>
			<path fill-rule="evenodd" clip-rule="evenodd" stroke="#1E1E1E" stroke-width="0.1067" stroke-miterlimit="10" d="M36.458,48.332
				c0.242-0.203,0.77-0.203,1.012,0.291c0.221,0.496-0.021,1.439-0.021,1.439s-0.461,0.338-0.924-0.111
				C36.216,49.074,36.458,48.332,36.458,48.332z"/>
			<linearGradient id="SVGID_45_" gradientUnits="userSpaceOnUse" x1="36.9121" y1="49.4678" x2="36.2467" y2="49.9117">
				<stop  offset="0" style="stop-color:#FFFFFF"/>
				<stop  offset="1" style="stop-color:#000000"/>
			</linearGradient>
			<path opacity="0.42" fill-rule="evenodd" clip-rule="evenodd" fill="url(#SVGID_45_)" d="M36.413,49.074
				c0,0,0.066,0.584,0.529,1.102C36.942,50.176,36.282,50.152,36.413,49.074z"/>
			<linearGradient id="SVGID_46_" gradientUnits="userSpaceOnUse" x1="37.9463" y1="48.5586" x2="36.448" y2="49.5582">
				<stop  offset="0" style="stop-color:#FFFFFF"/>
				<stop  offset="1" style="stop-color:#000000"/>
			</linearGradient>
			<path fill-rule="evenodd" clip-rule="evenodd" fill="url(#SVGID_46_)" d="M36.503,48.422l0.924,1.641
				c0,0,0.264-0.967-0.045-1.551C36.876,48.018,36.458,48.354,36.503,48.422z"/>
		</g>
		<g>
			<path fill-rule="evenodd" clip-rule="evenodd" stroke="#1E1E1E" stroke-width="0.1101" stroke-miterlimit="10" d="M37.943,48.23
				c0.25-0.209,0.794-0.209,1.044,0.301c0.228,0.512-0.022,1.484-0.022,1.484s-0.476,0.35-0.953-0.115
				C37.693,48.996,37.943,48.23,37.943,48.23z"/>
			<linearGradient id="SVGID_47_" gradientUnits="userSpaceOnUse" x1="38.4131" y1="49.4023" x2="37.7259" y2="49.8608">
				<stop  offset="0" style="stop-color:#FFFFFF"/>
				<stop  offset="1" style="stop-color:#000000"/>
			</linearGradient>
			<path opacity="0.42" fill-rule="evenodd" clip-rule="evenodd" fill="url(#SVGID_47_)" d="M37.897,48.996
				c0,0,0.068,0.604,0.546,1.137C38.443,50.133,37.763,50.109,37.897,48.996z"/>
			<linearGradient id="SVGID_48_" gradientUnits="userSpaceOnUse" x1="39.4785" y1="48.4658" x2="37.934" y2="49.4963">
				<stop  offset="0" style="stop-color:#FFFFFF"/>
				<stop  offset="1" style="stop-color:#000000"/>
			</linearGradient>
			<path fill-rule="evenodd" clip-rule="evenodd" fill="url(#SVGID_48_)" d="M37.99,48.324l0.953,1.691c0,0,0.271-0.998-0.047-1.6
				C38.375,47.906,37.943,48.254,37.99,48.324z"/>
		</g>
		<g>
			<path fill-rule="evenodd" clip-rule="evenodd" stroke="#1E1E1E" stroke-width="0.1" stroke-miterlimit="10" d="M25.599,48.801
				c0.229-0.188,0.729-0.189,0.958,0.27c0.208,0.459-0.021,1.334-0.021,1.334s-0.438,0.313-0.875-0.104
				C25.369,49.488,25.599,48.801,25.599,48.801z"/>
			<linearGradient id="SVGID_49_" gradientUnits="userSpaceOnUse" x1="26.0195" y1="49.8555" x2="25.4056" y2="50.2651">
				<stop  offset="0" style="stop-color:#FFFFFF"/>
				<stop  offset="1" style="stop-color:#000000"/>
			</linearGradient>
			<path opacity="0.42" fill-rule="evenodd" clip-rule="evenodd" fill="url(#SVGID_49_)" d="M25.557,49.488
				c0,0,0.063,0.541,0.5,1.02C26.057,50.508,25.432,50.488,25.557,49.488z"/>
			<linearGradient id="SVGID_50_" gradientUnits="userSpaceOnUse" x1="26.9941" y1="49.0078" x2="25.6055" y2="49.9343">
				<stop  offset="0" style="stop-color:#FFFFFF"/>
				<stop  offset="1" style="stop-color:#000000"/>
			</linearGradient>
			<path fill-rule="evenodd" clip-rule="evenodd" fill="url(#SVGID_50_)" d="M25.64,48.883l0.875,1.521c0,0,0.25-0.896-0.042-1.438
				C25.994,48.508,25.599,48.82,25.64,48.883z"/>
		</g>
		<g>
			<path fill-rule="evenodd" clip-rule="evenodd" stroke="#1E1E1E" stroke-width="0.1" stroke-miterlimit="10" d="M26.911,49.279
				c0.229-0.188,0.729-0.188,0.958,0.271c0.208,0.457-0.021,1.332-0.021,1.332s-0.438,0.313-0.875-0.104
				C26.682,49.967,26.911,49.279,26.911,49.279z"/>
			<linearGradient id="SVGID_51_" gradientUnits="userSpaceOnUse" x1="27.333" y1="50.335" x2="26.7182" y2="50.7451">
				<stop  offset="0" style="stop-color:#FFFFFF"/>
				<stop  offset="1" style="stop-color:#000000"/>
			</linearGradient>
			<path opacity="0.42" fill-rule="evenodd" clip-rule="evenodd" fill="url(#SVGID_51_)" d="M26.869,49.967
				c0,0,0.063,0.541,0.5,1.021C27.369,50.988,26.744,50.967,26.869,49.967z"/>
			<linearGradient id="SVGID_52_" gradientUnits="userSpaceOnUse" x1="28.3071" y1="49.4863" x2="26.9185" y2="50.4128">
				<stop  offset="0" style="stop-color:#FFFFFF"/>
				<stop  offset="1" style="stop-color:#000000"/>
			</linearGradient>
			<path fill-rule="evenodd" clip-rule="evenodd" fill="url(#SVGID_52_)" d="M26.953,49.363l0.875,1.52c0,0,0.25-0.896-0.042-1.438
				C27.307,48.988,26.911,49.301,26.953,49.363z"/>
		</g>
		<g>
			<path fill-rule="evenodd" clip-rule="evenodd" stroke="#1E1E1E" stroke-width="0.1" stroke-miterlimit="10" d="M28.224,49.697
				c0.229-0.188,0.729-0.189,0.958,0.27c0.208,0.459-0.021,1.334-0.021,1.334s-0.438,0.313-0.875-0.104
				C27.994,50.385,28.224,49.697,28.224,49.697z"/>
			<linearGradient id="SVGID_53_" gradientUnits="userSpaceOnUse" x1="28.645" y1="50.752" x2="28.0311" y2="51.1615">
				<stop  offset="0" style="stop-color:#FFFFFF"/>
				<stop  offset="1" style="stop-color:#000000"/>
			</linearGradient>
			<path opacity="0.42" fill-rule="evenodd" clip-rule="evenodd" fill="url(#SVGID_53_)" d="M28.182,50.385
				c0,0,0.063,0.541,0.5,1.02C28.682,51.404,28.057,51.385,28.182,50.385z"/>
			<linearGradient id="SVGID_54_" gradientUnits="userSpaceOnUse" x1="29.6196" y1="49.9043" x2="28.231" y2="50.8307">
				<stop  offset="0" style="stop-color:#FFFFFF"/>
				<stop  offset="1" style="stop-color:#000000"/>
			</linearGradient>
			<path fill-rule="evenodd" clip-rule="evenodd" fill="url(#SVGID_54_)" d="M28.265,49.779l0.875,1.521c0,0,0.25-0.896-0.042-1.438
				C28.619,49.404,28.224,49.717,28.265,49.779z"/>
		</g>
		<g>
			<path fill-rule="evenodd" clip-rule="evenodd" stroke="#1E1E1E" stroke-width="0.1017" stroke-miterlimit="10" d="M29.515,49.992
				c0.229-0.193,0.729-0.195,0.958,0.279c0.208,0.475-0.021,1.379-0.021,1.379s-0.438,0.322-0.875-0.107
				C29.286,50.703,29.515,49.992,29.515,49.992z"/>
			<linearGradient id="SVGID_55_" gradientUnits="userSpaceOnUse" x1="29.9512" y1="51.0781" x2="29.3102" y2="51.5058">
				<stop  offset="0" style="stop-color:#FFFFFF"/>
				<stop  offset="1" style="stop-color:#000000"/>
			</linearGradient>
			<path opacity="0.42" fill-rule="evenodd" clip-rule="evenodd" fill="url(#SVGID_55_)" d="M29.473,50.703
				c0,0,0.063,0.559,0.5,1.055C29.973,51.758,29.348,51.736,29.473,50.703z"/>
			<linearGradient id="SVGID_56_" gradientUnits="userSpaceOnUse" x1="30.9331" y1="50.2119" x2="29.4948" y2="51.1716">
				<stop  offset="0" style="stop-color:#FFFFFF"/>
				<stop  offset="1" style="stop-color:#000000"/>
			</linearGradient>
			<path fill-rule="evenodd" clip-rule="evenodd" fill="url(#SVGID_56_)" d="M29.557,50.078l0.875,1.572c0,0,0.25-0.928-0.042-1.486
				C29.911,49.689,29.515,50.014,29.557,50.078z"/>
		</g>
		<g>
			<path fill-rule="evenodd" clip-rule="evenodd" stroke="#1E1E1E" stroke-width="0.1011" stroke-miterlimit="10" d="M30.87,50.365
				c0.229-0.191,0.729-0.193,0.958,0.277c0.208,0.469-0.021,1.363-0.021,1.363s-0.438,0.32-0.875-0.105
				C30.64,51.068,30.87,50.365,30.87,50.365z"/>
			<linearGradient id="SVGID_57_" gradientUnits="userSpaceOnUse" x1="31.3018" y1="51.4414" x2="30.6683" y2="51.864">
				<stop  offset="0" style="stop-color:#FFFFFF"/>
				<stop  offset="1" style="stop-color:#000000"/>
			</linearGradient>
			<path opacity="0.42" fill-rule="evenodd" clip-rule="evenodd" fill="url(#SVGID_57_)" d="M30.828,51.068
				c0,0,0.063,0.555,0.5,1.045C31.328,52.113,30.703,52.092,30.828,51.068z"/>
			<linearGradient id="SVGID_58_" gradientUnits="userSpaceOnUse" x1="32.2803" y1="50.5801" x2="30.8579" y2="51.5291">
				<stop  offset="0" style="stop-color:#FFFFFF"/>
				<stop  offset="1" style="stop-color:#000000"/>
			</linearGradient>
			<path fill-rule="evenodd" clip-rule="evenodd" fill="url(#SVGID_58_)" d="M30.911,50.451l0.875,1.555c0,0,0.25-0.918-0.042-1.471
				C31.265,50.066,30.87,50.387,30.911,50.451z"/>
		</g>
		<g>
			<path fill-rule="evenodd" clip-rule="evenodd" stroke="#1E1E1E" stroke-width="0.1011" stroke-miterlimit="10" d="M32.223,50.658
				c0.229-0.193,0.729-0.193,0.958,0.275c0.208,0.469-0.021,1.363-0.021,1.363s-0.437,0.32-0.875-0.105
				C31.994,51.361,32.223,50.658,32.223,50.658z"/>
			<linearGradient id="SVGID_59_" gradientUnits="userSpaceOnUse" x1="32.6543" y1="51.7334" x2="32.0226" y2="52.1548">
				<stop  offset="0" style="stop-color:#FFFFFF"/>
				<stop  offset="1" style="stop-color:#000000"/>
			</linearGradient>
			<path opacity="0.42" fill-rule="evenodd" clip-rule="evenodd" fill="url(#SVGID_59_)" d="M32.181,51.361
				c0,0,0.063,0.553,0.5,1.043C32.681,52.404,32.056,52.383,32.181,51.361z"/>
			<linearGradient id="SVGID_60_" gradientUnits="userSpaceOnUse" x1="33.6318" y1="50.873" x2="32.2126" y2="51.8199">
				<stop  offset="0" style="stop-color:#FFFFFF"/>
				<stop  offset="1" style="stop-color:#000000"/>
			</linearGradient>
			<path fill-rule="evenodd" clip-rule="evenodd" fill="url(#SVGID_60_)" d="M32.265,50.742l0.875,1.555
				c0,0,0.251-0.916-0.042-1.469C32.619,50.359,32.223,50.678,32.265,50.742z"/>
		</g>
		<g>
			<path fill-rule="evenodd" clip-rule="evenodd" stroke="#1E1E1E" stroke-width="0.1011" stroke-miterlimit="10" d="M33.6,50.803
				c0.229-0.191,0.728-0.193,0.956,0.277c0.209,0.469-0.02,1.363-0.02,1.363s-0.438,0.32-0.874-0.105
				C33.369,51.506,33.6,50.803,33.6,50.803z"/>
			<linearGradient id="SVGID_61_" gradientUnits="userSpaceOnUse" x1="34.0303" y1="51.8779" x2="33.3964" y2="52.3008">
				<stop  offset="0" style="stop-color:#FFFFFF"/>
				<stop  offset="1" style="stop-color:#000000"/>
			</linearGradient>
			<path opacity="0.42" fill-rule="evenodd" clip-rule="evenodd" fill="url(#SVGID_61_)" d="M33.557,51.506
				c0,0,0.063,0.555,0.499,1.045C34.056,52.551,33.432,52.529,33.557,51.506z"/>
			<linearGradient id="SVGID_62_" gradientUnits="userSpaceOnUse" x1="35.0098" y1="51.0186" x2="33.587" y2="51.9678">
				<stop  offset="0" style="stop-color:#FFFFFF"/>
				<stop  offset="1" style="stop-color:#000000"/>
			</linearGradient>
			<path fill-rule="evenodd" clip-rule="evenodd" fill="url(#SVGID_62_)" d="M33.641,50.889l0.874,1.555c0,0,0.25-0.918-0.041-1.471
				C33.993,50.504,33.6,50.824,33.641,50.889z"/>
		</g>
		<g>
			<path fill-rule="evenodd" clip-rule="evenodd" stroke="#1E1E1E" stroke-width="0.1067" stroke-miterlimit="10" d="M34.999,50.811
				c0.242-0.203,0.77-0.203,1.012,0.291c0.221,0.496-0.021,1.439-0.021,1.439s-0.461,0.338-0.924-0.111
				C34.757,51.553,34.999,50.811,34.999,50.811z"/>
			<linearGradient id="SVGID_63_" gradientUnits="userSpaceOnUse" x1="35.4541" y1="51.9473" x2="34.7887" y2="52.3912">
				<stop  offset="0" style="stop-color:#FFFFFF"/>
				<stop  offset="1" style="stop-color:#000000"/>
			</linearGradient>
			<path opacity="0.42" fill-rule="evenodd" clip-rule="evenodd" fill="url(#SVGID_63_)" d="M34.954,51.553
				c0,0,0.066,0.584,0.529,1.102C35.483,52.654,34.823,52.631,34.954,51.553z"/>
			<linearGradient id="SVGID_64_" gradientUnits="userSpaceOnUse" x1="36.4873" y1="51.0381" x2="34.9894" y2="52.0374">
				<stop  offset="0" style="stop-color:#FFFFFF"/>
				<stop  offset="1" style="stop-color:#000000"/>
			</linearGradient>
			<path fill-rule="evenodd" clip-rule="evenodd" fill="url(#SVGID_64_)" d="M35.044,50.9l0.924,1.641c0,0,0.264-0.967-0.045-1.551
				C35.417,50.496,34.999,50.832,35.044,50.9z"/>
		</g>
		<g>
			<path fill-rule="evenodd" clip-rule="evenodd" stroke="#1E1E1E" stroke-width="0.1067" stroke-miterlimit="10" d="M36.415,50.729
				c0.242-0.203,0.77-0.205,1.012,0.291c0.221,0.494-0.021,1.439-0.021,1.439s-0.461,0.338-0.924-0.111
				C36.173,51.471,36.415,50.729,36.415,50.729z"/>
			<linearGradient id="SVGID_65_" gradientUnits="userSpaceOnUse" x1="36.8691" y1="51.8643" x2="36.2037" y2="52.3082">
				<stop  offset="0" style="stop-color:#FFFFFF"/>
				<stop  offset="1" style="stop-color:#000000"/>
			</linearGradient>
			<path opacity="0.42" fill-rule="evenodd" clip-rule="evenodd" fill="url(#SVGID_65_)" d="M36.37,51.471
				c0,0,0.066,0.584,0.529,1.102C36.899,52.572,36.239,52.549,36.37,51.471z"/>
			<linearGradient id="SVGID_66_" gradientUnits="userSpaceOnUse" x1="37.9053" y1="50.9551" x2="36.4052" y2="51.9559">
				<stop  offset="0" style="stop-color:#FFFFFF"/>
				<stop  offset="1" style="stop-color:#000000"/>
			</linearGradient>
			<path fill-rule="evenodd" clip-rule="evenodd" fill="url(#SVGID_66_)" d="M36.46,50.818l0.924,1.641c0,0,0.264-0.969-0.045-1.553
				C36.833,50.412,36.415,50.75,36.46,50.818z"/>
		</g>
		<g>
			<path fill-rule="evenodd" clip-rule="evenodd" stroke="#1E1E1E" stroke-width="0.1101" stroke-miterlimit="10" d="M37.84,50.627
				c0.25-0.209,0.793-0.211,1.043,0.301c0.229,0.51-0.021,1.484-0.021,1.484s-0.477,0.348-0.953-0.115
				C37.59,51.393,37.84,50.627,37.84,50.627z"/>
			<linearGradient id="SVGID_67_" gradientUnits="userSpaceOnUse" x1="38.3076" y1="51.7998" x2="37.6222" y2="52.2571">
				<stop  offset="0" style="stop-color:#FFFFFF"/>
				<stop  offset="1" style="stop-color:#000000"/>
			</linearGradient>
			<path opacity="0.42" fill-rule="evenodd" clip-rule="evenodd" fill="url(#SVGID_67_)" d="M37.793,51.393
				c0,0,0.068,0.602,0.547,1.137C38.34,52.529,37.658,52.504,37.793,51.393z"/>
			<linearGradient id="SVGID_68_" gradientUnits="userSpaceOnUse" x1="39.376" y1="50.8613" x2="37.8297" y2="51.893">
				<stop  offset="0" style="stop-color:#FFFFFF"/>
				<stop  offset="1" style="stop-color:#000000"/>
			</linearGradient>
			<path fill-rule="evenodd" clip-rule="evenodd" fill="url(#SVGID_68_)" d="M37.887,50.719l0.953,1.693
				c0,0,0.271-0.998-0.047-1.602C38.271,50.301,37.84,50.648,37.887,50.719z"/>
		</g>
		<g>
			<path fill-rule="evenodd" clip-rule="evenodd" stroke="#1E1E1E" stroke-width="0.1043" stroke-miterlimit="10" d="M26.708,51.406
				c0.296-0.158,1.089,0.111,1.386,0.498c0.27,0.385,0.095,1.229,0.095,1.229s-0.688,0.135-1.254-0.213
				C26.556,52.234,26.708,51.406,26.708,51.406z"/>
			<linearGradient id="SVGID_69_" gradientUnits="userSpaceOnUse" x1="27.2456" y1="52.5234" x2="26.6615" y2="52.9132">
				<stop  offset="0" style="stop-color:#FFFFFF"/>
				<stop  offset="1" style="stop-color:#000000"/>
			</linearGradient>
			<path opacity="0.42" fill-rule="evenodd" clip-rule="evenodd" fill="url(#SVGID_69_)" d="M26.736,52.213
				c-0.012-0.068,0.259,0.582,0.647,0.859C27.561,53.076,26.564,53.109,26.736,52.213z"/>
			<linearGradient id="SVGID_70_" gradientUnits="userSpaceOnUse" x1="28.3823" y1="51.6836" x2="26.9227" y2="52.6575">
				<stop  offset="0" style="stop-color:#FFFFFF"/>
				<stop  offset="1" style="stop-color:#000000"/>
			</linearGradient>
			<path fill-rule="evenodd" clip-rule="evenodd" fill="url(#SVGID_70_)" d="M26.761,51.477l1.4,1.656
				c0.012-0.076,0.208-0.75-0.238-1.357C27.303,51.391,26.708,51.424,26.761,51.477z"/>
		</g>
		<g>
			<path fill-rule="evenodd" clip-rule="evenodd" stroke="#1E1E1E" stroke-width="0.0932" stroke-miterlimit="10" d="M28.557,52.154
				c0.245-0.152,0.958,0.084,1.229,0.334c0.224,0.371-0.005,1.334-0.005,1.334s-0.569,0.129-1.038-0.207
				C28.431,52.955,28.557,52.154,28.557,52.154z"/>
			<linearGradient id="SVGID_71_" gradientUnits="userSpaceOnUse" x1="28.9697" y1="53.2705" x2="28.5184" y2="53.5716">
				<stop  offset="0" style="stop-color:#FFFFFF"/>
				<stop  offset="1" style="stop-color:#000000"/>
			</linearGradient>
			<path opacity="0.42" fill-rule="evenodd" clip-rule="evenodd" fill="url(#SVGID_71_)" d="M28.581,52.934
				c-0.01-0.066,0.214,0.563,0.535,0.828C29.262,53.766,28.438,53.799,28.581,52.934z"/>
			<linearGradient id="SVGID_72_" gradientUnits="userSpaceOnUse" x1="30.1387" y1="52.3779" x2="28.7274" y2="53.3195">
				<stop  offset="0" style="stop-color:#FFFFFF"/>
				<stop  offset="1" style="stop-color:#000000"/>
			</linearGradient>
			<path fill-rule="evenodd" clip-rule="evenodd" fill="url(#SVGID_72_)" d="M28.601,52.223l1.158,1.6
				c0.01-0.074,0.131-0.689-0.035-1.314C29.21,52.137,28.557,52.172,28.601,52.223z"/>
		</g>
		<g>
			<path fill-rule="evenodd" clip-rule="evenodd" stroke="#1E1E1E" stroke-width="0.0947" stroke-miterlimit="10" d="M33.743,53.15
				c0.259-0.148,1.054-0.215,1.313,0.15c0.167,0.5-0.021,1.48-0.021,1.48s-0.601,0.127-1.095-0.201
				C33.611,53.934,33.743,53.15,33.743,53.15z"/>
			<linearGradient id="SVGID_73_" gradientUnits="userSpaceOnUse" x1="34.1943" y1="54.2256" x2="33.7035" y2="54.5531">
				<stop  offset="0" style="stop-color:#FFFFFF"/>
				<stop  offset="1" style="stop-color:#000000"/>
			</linearGradient>
			<path opacity="0.42" fill-rule="evenodd" clip-rule="evenodd" fill="url(#SVGID_73_)" d="M33.769,53.912
				c-0.011-0.064,0.226,0.551,0.565,0.811C34.487,54.727,33.618,54.76,33.769,53.912z"/>
			<linearGradient id="SVGID_74_" gradientUnits="userSpaceOnUse" x1="35.5205" y1="53.2422" x2="33.8334" y2="54.3678">
				<stop  offset="0" style="stop-color:#FFFFFF"/>
				<stop  offset="1" style="stop-color:#000000"/>
			</linearGradient>
			<path fill-rule="evenodd" clip-rule="evenodd" fill="url(#SVGID_74_)" d="M33.79,53.217l1.223,1.564
				c0.01-0.072,0.213-0.797-0.081-1.523C34.389,52.895,33.743,53.166,33.79,53.217z"/>
		</g>
		<g>
			<path fill-rule="evenodd" clip-rule="evenodd" stroke="#1E1E1E" stroke-width="0.0959" stroke-miterlimit="10" d="M35.44,53.225
				c0.357-0.111,1.459-0.16,1.818,0.111c0.231,0.369-0.03,1.096-0.03,1.096s-0.929,0.34-1.612,0.096
				C35.159,54.047,35.44,53.225,35.44,53.225z"/>
			<linearGradient id="SVGID_75_" gradientUnits="userSpaceOnUse" x1="36.1416" y1="54.0918" x2="35.251" y2="54.686">
				<stop  offset="0" style="stop-color:#FFFFFF"/>
				<stop  offset="1" style="stop-color:#000000"/>
			</linearGradient>
			<path opacity="0.42" fill-rule="evenodd" clip-rule="evenodd" fill="url(#SVGID_75_)" d="M35.378,54.033
				c-0.015-0.049,0.313,0.406,0.783,0.6C36.373,54.637,35.17,54.66,35.378,54.033z"/>
			<linearGradient id="SVGID_76_" gradientUnits="userSpaceOnUse" x1="37.7266" y1="52.959" x2="35.2843" y2="54.5884">
				<stop  offset="0" style="stop-color:#FFFFFF"/>
				<stop  offset="1" style="stop-color:#000000"/>
			</linearGradient>
			<path fill-rule="evenodd" clip-rule="evenodd" fill="url(#SVGID_76_)" d="M35.557,53.426l1.521,0.957
				c0.11-0.295,0.415-0.541,0.009-1.078C36.286,53.176,35.64,53.301,35.557,53.426z"/>
		</g>
		<path fill-rule="evenodd" clip-rule="evenodd" stroke="#1E1E1E" stroke-width="0.0959" stroke-miterlimit="10" d="M30.39,52.467
			c-0.313,0.041-0.437,1.25-0.146,1.563s2.396,0.625,2.875,0.563c0.479-0.063,0.334-0.98,0.334-1.209s-0.334-0.5-0.708-0.52
			C32.37,52.842,31.432,52.758,30.39,52.467z"/>
		<linearGradient id="SVGID_77_" gradientUnits="userSpaceOnUse" x1="33.7725" y1="51.8779" x2="29.6826" y2="54.6066">
			<stop  offset="0" style="stop-color:#FFFFFF"/>
			<stop  offset="1" style="stop-color:#000000"/>
		</linearGradient>
		<path fill-rule="evenodd" clip-rule="evenodd" fill="url(#SVGID_77_)" d="M30.245,52.82c0,0,2.021,1.354,3.125,0.875
			c0,0-0.02-0.666-0.562-0.688c-0.542-0.02-2.333-0.332-2.396-0.416C30.411,52.592,30.245,52.611,30.245,52.82z"/>
		<linearGradient id="SVGID_78_" gradientUnits="userSpaceOnUse" x1="31.2622" y1="53.7939" x2="30.4493" y2="54.1281">
			<stop  offset="0" style="stop-color:#FFFFFF"/>
			<stop  offset="1" style="stop-color:#000000"/>
		</linearGradient>
		<path fill-rule="evenodd" clip-rule="evenodd" fill="url(#SVGID_78_)" d="M30.161,53.57c0,0,0.896,0.709,1.313,0.813
			C31.474,54.383,30.14,54.174,30.161,53.57z"/>
	</g>
	<path fill="#FFFFFF" d="M38.577,28.443c0,0-0.188,10.469-0.554,11.643c-0.338,1.084-1.134,2.639-3.884,2.607
		c0,0,2.89-0.02,3.781-2.938C38.265,38.631,38.577,28.443,38.577,28.443z"/>
	<path fill="#FFFFFF" d="M35.327,3.912c0,0,1.625-0.25,2.25,0.688s0.969,2.563,1,5.094C38.577,9.693,38.765,3.568,35.327,3.912z"/>
	<ellipse fill="#020000" cx="31.265" cy="57.037" rx="0.188" ry="0.219"/>
</g>
</svg>
