<?xml version="1.0" encoding="utf-8"?>
<!-- Generator: Adobe Illustrator 15.0.2, SVG Export Plug-In . SVG Version: 6.00 Build 0)  -->
<!DOCTYPE svg PUBLIC "-//W3C//DTD SVG 1.1//EN" "http://www.w3.org/Graphics/SVG/1.1/DTD/svg11.dtd">
<svg version="1.1" id="_x30_4_3_" xmlns="http://www.w3.org/2000/svg" xmlns:xlink="http://www.w3.org/1999/xlink" x="0px" y="0px"
	 width="64px" height="64px" viewBox="0 0 64 64" enable-background="new 0 0 64 64" xml:space="preserve">
<polygon fill="#249AFC" points="27.615,55.511 27.615,33.607 18.025,33.607 18.025,55.511 16.262,55.511 16.262,58.215 
	29.377,58.215 29.377,55.511 "/>
<polygon fill="#249AFC" points="45.636,49.445 45.636,31.823 36.046,31.823 36.046,49.445 34.283,49.445 34.283,52.149 
	47.398,52.149 47.398,49.445 "/>
<g>
	<path fill="#249AFC" d="M52.365,28.61c0,13.012-9.119,19.15-20.365,19.15c-11.248,0-20.365-6.139-20.365-19.15
		c0-13.014,8.778-26.595,20.025-26.595C42.908,2.016,52.365,15.597,52.365,28.61z"/>
	<g>
		<rect x="47.398" y="31.823" fill="#249AFC" width="10.901" height="5.901"/>
		<path fill="#249AFC" d="M54.694,19.773v16.791c0,1.665,1.449,3.016,3.237,3.016c1.787,0,3.236-1.351,3.236-3.016V19.773H54.694z"
			/>
		<rect x="55.759" y="17.725" fill="#249AFC" width="4.508" height="3.033"/>
		<polygon fill="#249AFC" points="59.831,11.085 59.831,14.773 59.119,14.773 59.119,12.396 56.742,12.396 56.742,14.773 
			56.056,14.773 56.056,11.085 53.382,11.085 53.382,17.725 53.813,17.725 56.056,17.725 56.742,17.725 56.742,18.749 
			59.119,18.749 59.119,17.725 59.831,17.725 62.05,17.725 62.505,17.725 62.505,11.085 		"/>
	</g>
	<g>
		<rect x="5.7" y="31.823" fill="#249AFC" width="10.901" height="5.901"/>
		<path fill="#249AFC" d="M9.306,19.773v16.791c0,1.665-1.449,3.016-3.237,3.016c-1.787,0-3.236-1.351-3.236-3.016V19.773H9.306z"/>
		<rect x="3.733" y="17.725" fill="#249AFC" width="4.508" height="3.033"/>
		<polygon fill="#249AFC" points="4.169,11.085 4.169,14.773 4.881,14.773 4.881,12.396 7.258,12.396 7.258,14.773 7.944,14.773 
			7.944,11.085 10.618,11.085 10.618,17.725 10.188,17.725 7.944,17.725 7.258,17.725 7.258,18.749 4.881,18.749 4.881,17.725 
			4.169,17.725 1.95,17.725 1.495,17.725 1.495,11.085 		"/>
	</g>
	<g>
		
			<rect x="14.017" y="5.351" transform="matrix(0.7352 -0.6778 0.6778 0.7352 -3.3162 12.951)" fill="#249AFC" width="1.804" height="10.738"/>
		
			<rect x="48.18" y="5.351" transform="matrix(-0.735 -0.6781 0.6781 -0.735 77.8848 51.8811)" fill="#249AFC" width="1.803" height="10.738"/>
	</g>
	<path fill="#FFFFFF" d="M44.777,15.798c0,0.929-0.752,1.681-1.681,1.681H21.468c-0.928,0-1.681-0.752-1.681-1.681l0,0
		c0-0.928,0.752-1.68,1.681-1.68h21.629C44.025,14.118,44.777,14.87,44.777,15.798L44.777,15.798z"/>
	<path fill="#FFFFFF" d="M19.864,31.823c0.124,0.481,0.292,1.747,0.503,2.217c1.732,3.867,6.286,6.394,11.633,6.394
		c5.196,0,9.641-2.67,11.479-6.394c0.283-0.575,0.506-1.622,0.658-2.217H19.864z"/>
</g>
<circle fill="#F5B32C" stroke="#E75513" stroke-width="0.2" stroke-miterlimit="10" cx="35.358" cy="15.798" r="1.68"/>
</svg>
