<?xml version="1.0" encoding="utf-8"?>
<!-- Generator: Adobe Illustrator 15.0.2, SVG Export Plug-In . SVG Version: 6.00 Build 0)  -->
<!DOCTYPE svg PUBLIC "-//W3C//DTD SVG 1.1//EN" "http://www.w3.org/Graphics/SVG/1.1/DTD/svg11.dtd">
<svg version="1.1" id="_x30_1" xmlns="http://www.w3.org/2000/svg" xmlns:xlink="http://www.w3.org/1999/xlink" x="0px" y="0px"
	 width="64px" height="64px" viewBox="0 0 64 64" enable-background="new 0 0 64 64" xml:space="preserve">
<g>
	<path fill="#C20D23" stroke="#330E03" stroke-width="1.5614" stroke-miterlimit="10" d="M9.798,22.849c0,0-1.681-6.549-0.467-6.822
		c1.214-0.273,3.83,1.091,3.83,1.091s-0.653-2.865,1.215-1.364c1.868,1.501,2.242,4.775,2.242,4.775l0.28,3.002
		C16.897,23.531,13.255,21.076,9.798,22.849z"/>
	<path fill="#F19500" stroke="#330E03" stroke-width="1.5614" stroke-miterlimit="10" d="M29.228,59.543l1.681-1.821l-6.258-6.171
		l-1.868,0.607l4.39,5.464l-1.961,2.729c-2.71-0.809-7.567,2.023-7.567,2.023h8.967l1.518-1.645l2.499,0.33L29.228,59.543z"/>
	<path fill="#C20D23" stroke="#330E03" stroke-width="1.5614" stroke-miterlimit="10" d="M10.589,27.78l2.055,2.125
		c0,0-0.206,8.092-1.85,9.407c0,0-3.082,6.372-4.315,3.136c-1.233-3.236,2.466-8.092,2.466-8.092S6.48,30.713,10.589,27.78z"/>
	<path fill="#FFFFFF" stroke="#330E03" stroke-width="1.5614" stroke-miterlimit="10" d="M28.672,52.446l0.211,1.71
		c0,0-23.101,1.341-18.194-18.337c0,0-0.902-3.79,0.044-5.612l-4.46-2.36l-0.21-1.708c0,0,1.824-3.748,5.679-4.328
		c7.398-1.114,9.882,3.317,13.563,13.453l1.962,0.606"/>
	<path display="none" fill="#FFFFFF" stroke="#330E03" stroke-width="1.5614" stroke-miterlimit="10" d="M27.266,35.872
		c0,0,2.709-9.812,10.345-8.252l-0.21,1.139c0,0,5.364-6.378,10.412-5.695l-0.106,1.139l3.785,0.342c0,0-1.682,2.619-2.522,3.758
		c0,0,3.995,1.252,3.26,5.922l-3.26-0.684l0.736,1.822l-2.314,0.113c0,0,1.998,6.15-0.21,9.908l-1.578-3.303
		c0,0,1.264,3.418-0.947,6.721L43.5,44.133c0,0,0.946,4.215-2.419,7.974l-1.051-3.873c0,0,0.209,4.441-1.788,7.061l-5.257-2.163
		l-0.106,1.479l-4.207-2.164"/>
	
		<line display="none" fill="none" stroke="#CDCCCB" stroke-width="1.5614" stroke-miterlimit="10" x1="31.844" y1="52.766" x2="31.844" y2="51.652"/>
	<path display="none" fill="none" stroke="#CDCCCB" stroke-width="1.5614" stroke-miterlimit="10" d="M37.634,53.776
		c0,0,1.309-0.403,1.309-12.139"/>
	
		<line display="none" fill="none" stroke="#CDCCCB" stroke-width="1.5614" stroke-miterlimit="10" x1="41.744" y1="49.022" x2="42.678" y2="44.471"/>
	
		<line display="none" fill="none" stroke="#CDCCCB" stroke-width="1.5614" stroke-miterlimit="10" x1="44.827" y1="45.078" x2="44.359" y2="42.751"/>
	
		<line display="none" fill="none" stroke="#CDCCCB" stroke-width="1.5614" stroke-miterlimit="10" x1="46.882" y1="41.031" x2="46.135" y2="34.76"/>
	
		<line display="none" fill="none" stroke="#CDCCCB" stroke-width="1.5614" stroke-miterlimit="10" x1="47.909" y1="33.95" x2="47.629" y2="32.635"/>
	<path fill="#F6B42C" stroke="#330E03" stroke-width="1.5614" stroke-miterlimit="10" d="M9.892,29.341l-2.864-3.585
		c0,0-3.634,2.494-2.422,5.766L9.892,29.341z"/>
	
		<ellipse fill="none" stroke="#330E03" stroke-width="0.7807" stroke-miterlimit="10" cx="15.903" cy="25.228" rx="1.014" ry="1.439"/>
	
		<line fill="none" stroke="#F85A83" stroke-width="2.3421" stroke-miterlimit="10" x1="15.964" y1="29.196" x2="17.178" y2="28.387"/>
	<line fill="none" stroke="#F85A83" stroke-width="2.3421" stroke-miterlimit="10" x1="17.271" y1="29.5" x2="19.233" y2="28.69"/>
	<path fill="none" stroke="#CDCCCB" stroke-width="1.5614" stroke-miterlimit="10" d="M12.228,29.904c0,0-1.308,2.63-0.094,5.968
		c0,0-2.241,5.968,0.654,10.724c2.896,4.753,10.742,6.271,15.225,5.967"/>
</g>
<g id="しっぽ">
	<path fill="#FFFFFF" stroke="#330E03" stroke-width="1.5614" stroke-miterlimit="10" d="M25.304,35.266l1.962,0.606
		c0,0,2.709-9.812,10.345-8.252l-0.21,1.139c0,0,5.364-6.378,10.412-5.695l-0.106,1.139l3.785,0.342c0,0-1.682,2.619-2.522,3.758
		c0,0,3.995,1.252,3.26,5.922l-3.26-0.684l0.736,1.822l-2.314,0.113c0,0,1.998,6.15-0.21,9.908l-1.578-3.303
		c0,0,1.264,3.418-0.947,6.721L43.5,44.133c0,0,0.946,4.215-2.419,7.974l-1.051-3.873c0,0,0.209,4.441-1.788,7.061l-5.257-2.163
		l-0.106,1.479l-4.207-2.164"/>
	
		<line fill="none" stroke="#CDCCCB" stroke-width="1.5614" stroke-miterlimit="10" x1="31.844" y1="52.766" x2="31.844" y2="51.652"/>
	<path fill="none" stroke="#CDCCCB" stroke-width="1.5614" stroke-miterlimit="10" d="M37.634,53.776c0,0,1.309-0.403,1.309-12.139"
		/>
	
		<line fill="none" stroke="#CDCCCB" stroke-width="1.5614" stroke-miterlimit="10" x1="41.744" y1="49.022" x2="42.678" y2="44.471"/>
	
		<line fill="none" stroke="#CDCCCB" stroke-width="1.5614" stroke-miterlimit="10" x1="44.827" y1="45.078" x2="44.359" y2="42.751"/>
	
		<line fill="none" stroke="#CDCCCB" stroke-width="1.5614" stroke-miterlimit="10" x1="46.882" y1="41.031" x2="46.135" y2="34.76"/>
	
		<line fill="none" stroke="#CDCCCB" stroke-width="1.5614" stroke-miterlimit="10" x1="47.909" y1="33.95" x2="47.629" y2="32.635"/>
</g>
</svg>
