<?xml version="1.0" encoding="utf-8"?>
<!-- Generator: Adobe Illustrator 15.0.2, SVG Export Plug-In . SVG Version: 6.00 Build 0)  -->
<!DOCTYPE svg PUBLIC "-//W3C//DTD SVG 1.1//EN" "http://www.w3.org/Graphics/SVG/1.1/DTD/svg11.dtd">
<svg version="1.1" id="_x30_4_x28_02_x29_" xmlns="http://www.w3.org/2000/svg" xmlns:xlink="http://www.w3.org/1999/xlink" x="0px"
	 y="0px" width="64px" height="64px" viewBox="0 0 64 64" enable-background="new 0 0 64 64" xml:space="preserve">
<path fill="#F19500" stroke="#330E03" stroke-width="1.5614" stroke-miterlimit="10" d="M29.228,59.543l1.681-1.821l-6.258-6.171
	l-1.868,0.607l4.39,5.464l-1.961,2.729c-2.71-0.809-7.567,2.023-7.567,2.023h8.967l1.518-1.645l2.499,0.33L29.228,59.543z"/>
<g>
	<path fill="#C20D23" stroke="#330E03" stroke-width="1.5614" stroke-miterlimit="10" d="M14.719,18.322
		c0,0,0.336-6.753,1.577-6.654c1.24,0.1,3.334,2.178,3.334,2.178s0.225-2.93,1.564-0.943c1.34,1.987,0.726,5.226,0.726,5.226
		l-0.623,2.949C21.297,21.077,18.546,17.652,14.719,18.322z"/>
	<path fill="#C20D23" stroke="#330E03" stroke-width="1.5614" stroke-miterlimit="10" d="M14.013,23.265l1.333,2.638
		c0,0-2.595,7.668-4.555,8.436c0,0-4.833,5.171-5.051,1.716c-0.219-3.457,4.754-6.998,4.754-6.998S9.219,24.849,14.013,23.265z"/>
	<path fill="#FFFFFF" stroke="#330E03" stroke-width="1.5614" stroke-miterlimit="10" d="M26.164,35.531l-0.316-0.755
		c-0.511-10.771-1.57-15.74-8.966-16.869c-3.854-0.589-6.706,2.449-6.706,2.449L9.87,22.05l3.56,3.576
		c-1.444,1.459-1.706,5.347-1.706,5.347c-10.52,17.336,11.94,22.904,11.94,22.904l0.306-1.692c0,0,2.812,1.601,5.353-0.087"/>
	<path fill="#F6B42C" stroke="#330E03" stroke-width="1.5614" stroke-miterlimit="10" d="M12.884,24.549l-1.672-4.272
		c0,0-4.21,1.304-4.023,4.788L12.884,24.549z"/>
	
		<ellipse transform="matrix(0.9551 0.2964 -0.2964 0.9551 7.5331 -4.8756)" fill="none" stroke="#330E03" stroke-width="0.7807" stroke-miterlimit="10" cx="19.844" cy="22.403" rx="1.014" ry="1.44"/>
	
		<line fill="none" stroke="#F85A83" stroke-width="2.3421" stroke-miterlimit="10" x1="18.726" y1="26.21" x2="20.125" y2="25.798"/>
	
		<line fill="none" stroke="#F85A83" stroke-width="2.3421" stroke-miterlimit="10" x1="19.885" y1="26.888" x2="21.998" y2="26.697"/>
	<path fill="none" stroke="#CDCCCB" stroke-width="1.5614" stroke-miterlimit="10" d="M14.947,25.78c0,0-2.028,2.124-1.858,5.672
		c0,0-3.91,5.036-2.554,10.434c1.356,5.399,8.4,9.174,12.772,10.212"/>
</g>
<g>
	<path fill="#FFFFFF" stroke="#330E03" stroke-width="1.5614" stroke-miterlimit="10" d="M25.304,35.266l1.962,0.606
		c0,0,2.709-9.812,10.345-8.252l-0.21,1.139c0,0,5.364-6.378,10.412-5.695l-0.106,1.139l3.785,0.342c0,0-1.682,2.619-2.522,3.758
		c0,0,3.995,1.252,3.26,5.922l-3.26-0.684l0.736,1.822l-2.314,0.113c0,0,1.998,6.15-0.21,9.908l-1.578-3.303
		c0,0,1.264,3.418-0.947,6.721L43.5,44.133c0,0,0.946,4.215-2.419,7.974l-1.051-3.873c0,0,0.209,4.441-1.788,7.061l-5.257-2.163
		l-0.106,1.479l-4.207-2.164"/>
	
		<line fill="none" stroke="#CDCCCB" stroke-width="1.5614" stroke-miterlimit="10" x1="31.844" y1="52.766" x2="31.844" y2="51.652"/>
	<path fill="none" stroke="#CDCCCB" stroke-width="1.5614" stroke-miterlimit="10" d="M37.634,53.776c0,0,1.309-0.403,1.309-12.139"
		/>
	
		<line fill="none" stroke="#CDCCCB" stroke-width="1.5614" stroke-miterlimit="10" x1="41.744" y1="49.022" x2="42.678" y2="44.471"/>
	
		<line fill="none" stroke="#CDCCCB" stroke-width="1.5614" stroke-miterlimit="10" x1="44.827" y1="45.078" x2="44.359" y2="42.751"/>
	
		<line fill="none" stroke="#CDCCCB" stroke-width="1.5614" stroke-miterlimit="10" x1="46.882" y1="41.031" x2="46.135" y2="34.76"/>
	
		<line fill="none" stroke="#CDCCCB" stroke-width="1.5614" stroke-miterlimit="10" x1="47.909" y1="33.95" x2="47.629" y2="32.635"/>
</g>
</svg>
