<?xml version="1.0" encoding="utf-8"?>
<!-- Generator: Adobe Illustrator 15.0.2, SVG Export Plug-In . SVG Version: 6.00 Build 0)  -->
<!DOCTYPE svg PUBLIC "-//W3C//DTD SVG 1.1//EN" "http://www.w3.org/Graphics/SVG/1.1/DTD/svg11.dtd">
<svg version="1.1" id="レイヤー_1" xmlns="http://www.w3.org/2000/svg" xmlns:xlink="http://www.w3.org/1999/xlink" x="0px"
	 y="0px" width="64px" height="64px" viewBox="0 0 64 64" enable-background="new 0 0 64 64" xml:space="preserve">
<g>
	<linearGradient id="SVGID_1_" gradientUnits="userSpaceOnUse" x1="18.6572" y1="20.1528" x2="45.6661" y2="55.8013">
		<stop  offset="0" style="stop-color:#FFC37F"/>
		<stop  offset="0.0111" style="stop-color:#FFC37D"/>
		<stop  offset="0.2844" style="stop-color:#FFCA4A"/>
		<stop  offset="0.4911" style="stop-color:#FFCE2B"/>
		<stop  offset="0.6061" style="stop-color:#FFD01F"/>
		<stop  offset="0.8424" style="stop-color:#FF8000"/>
		<stop  offset="0.8657" style="stop-color:#FF8A11"/>
		<stop  offset="0.9116" style="stop-color:#FFA53C"/>
		<stop  offset="0.9751" style="stop-color:#FFD181"/>
		<stop  offset="1" style="stop-color:#FFE39E"/>
	</linearGradient>
	<path fill="url(#SVGID_1_)" stroke="#921B03" stroke-width="1.4244" stroke-miterlimit="10" d="M56.168,37.783
		c0,13.348-10.82,24.168-24.168,24.168S7.832,51.131,7.832,37.783c0-13.348,10.765-17.931,21.855-23.894
		C41.444,7.569,56.168,24.435,56.168,37.783z"/>
	<linearGradient id="SVGID_2_" gradientUnits="userSpaceOnUse" x1="19.1626" y1="13.6631" x2="41.1483" y2="56.3025">
		<stop  offset="0" style="stop-color:#FF9100"/>
		<stop  offset="0.1312" style="stop-color:#FF9304;stop-opacity:0.8688"/>
		<stop  offset="0.2575" style="stop-color:#FF980F;stop-opacity:0.7425"/>
		<stop  offset="0.3819" style="stop-color:#FFA023;stop-opacity:0.6181"/>
		<stop  offset="0.5051" style="stop-color:#FFAC3E;stop-opacity:0.4949"/>
		<stop  offset="0.6274" style="stop-color:#FFBB61;stop-opacity:0.3726"/>
		<stop  offset="0.7491" style="stop-color:#FFCE8C;stop-opacity:0.2509"/>
		<stop  offset="0.8704" style="stop-color:#FFE4BF;stop-opacity:0.1296"/>
		<stop  offset="0.9885" style="stop-color:#FFFCF9;stop-opacity:0.0115"/>
		<stop  offset="1" style="stop-color:#FFFFFF;stop-opacity:0"/>
	</linearGradient>
	<path fill="url(#SVGID_2_)" d="M53.053,37.255c0,12.015-9.738,21.755-21.754,21.755c-12.015,0-21.755-9.74-21.755-21.755
		s13.101-17.125,20.81-21.577C40.758,9.67,53.053,25.24,53.053,37.255z"/>
	
		<linearGradient id="SVGID_3_" gradientUnits="userSpaceOnUse" x1="23.166" y1="29.7393" x2="35.1462" y2="52.9738" gradientTransform="matrix(0.4491 -0.8935 0.8935 0.4491 -15.6039 34.1777)">
		<stop  offset="0" style="stop-color:#FFB600"/>
		<stop  offset="0.2908" style="stop-color:#FFD05A;stop-opacity:0.7092"/>
		<stop  offset="0.545" style="stop-color:#FFE4A0;stop-opacity:0.455"/>
		<stop  offset="0.7548" style="stop-color:#FFF3D4;stop-opacity:0.2452"/>
		<stop  offset="0.9125" style="stop-color:#FFFCF3;stop-opacity:0.0875"/>
		<stop  offset="1" style="stop-color:#FFFFFF;stop-opacity:0"/>
	</linearGradient>
	<path fill="url(#SVGID_3_)" d="M40.254,19.03c5.868,2.95,8.903,8.764,6.779,12.989c-2.122,4.223-8.6,5.258-14.468,2.308
		c-5.866-2.948-8.901-8.763-6.778-12.987C27.91,17.115,34.387,16.082,40.254,19.03z"/>
	<ellipse fill="#8E5313" cx="23.589" cy="24.684" rx="4.052" ry="3.44"/>
	<g>
		<path fill="#00903A" stroke="#006934" stroke-width="0.9496" stroke-miterlimit="10" d="M26.135,2.049
			c0,0-14.257,1.252-11.572,14.298c0,0,7.354,0.81,9.508-2.138C26.225,11.262,26.135,2.049,26.135,2.049z"/>
		<path fill="#006934" d="M25.518,3.061c0,0-8.857,2.107-10.228,12.604C15.29,15.666,16.302,8.616,25.518,3.061z"/>
		<path fill="#006934" d="M23.135,10.661c0,0-6.246-1.904-7.046,1.55C16.089,12.211,17.152,6.655,23.135,10.661z"/>
		<path fill="#006934" d="M23.194,8.446c0,0-2.248-3.357-4.483-0.011C18.711,8.435,20.576,4.229,23.194,8.446z"/>
		<path fill="#006934" d="M15.45,9.083c0,0,2.17-1.418,2.377,0.97C17.827,10.054,16.242,8.062,15.45,9.083z"/>
		<path fill="#006934" d="M19.206,7.384c0,0,0.938-2.043-1.263-1.164C15.743,7.1,19.483,5.554,19.206,7.384z"/>
		<path fill="#006934" d="M21.995,5.215c0,0,0.938-2.043-1.263-1.164C18.531,4.932,22.272,3.385,21.995,5.215z"/>
		<path fill="#006934" d="M25.757,6.219c0,0-2.247-3.358-4.483-0.012C21.273,6.207,23.138,2.002,25.757,6.219z"/>
	</g>
	<path fill="#936134" stroke="#40210F" stroke-width="0.9496" stroke-miterlimit="10" d="M11.802,14.549l2.803-1.323
		c0,0,9.573,7.317,11.831,10.975c0,0-1.401,3.503-5.138,2.179C21.298,26.38,17.251,18.597,11.802,14.549z"/>
	
		<linearGradient id="SVGID_4_" gradientUnits="userSpaceOnUse" x1="-3.0493" y1="-0.918" x2="5.3307" y2="15.3344" gradientTransform="matrix(0.3037 0.035 -0.0819 0.7105 14.7184 27.8861)">
		<stop  offset="0" style="stop-color:#FFB600"/>
		<stop  offset="0.2908" style="stop-color:#FFD05A;stop-opacity:0.7092"/>
		<stop  offset="0.545" style="stop-color:#FFE4A0;stop-opacity:0.455"/>
		<stop  offset="0.7548" style="stop-color:#FFF3D4;stop-opacity:0.2452"/>
		<stop  offset="0.9125" style="stop-color:#FFFCF3;stop-opacity:0.0875"/>
		<stop  offset="1" style="stop-color:#FFFFFF;stop-opacity:0"/>
	</linearGradient>
	<path fill="url(#SVGID_4_)" d="M16.384,34.148c-0.376,3.264-1.495,5.815-2.5,5.7c-1.004-0.116-1.513-2.856-1.137-6.119
		c0.377-3.264,1.496-5.815,2.5-5.7C16.252,28.145,16.761,30.885,16.384,34.148z"/>
	<g id="layer1" transform="translate(-241.83035,-280.77737)">
		<path id="text2413" fill="#6B2D03" d="M281.107,317.43c0.032,3.513,0.151,5.947,0.359,7.309c0.435,2.827,1.378,4.132,2.833,3.908
			c1.022-0.156,2.002-0.921,2.937-2.29l0.504,0.24c-0.495,1.894-0.999,3.171-1.51,3.84c-0.513,0.667-1.127,1.057-1.847,1.167
			c-1.103,0.168-1.991-0.374-2.667-1.63c-0.674-1.255-1.144-2.736-1.406-4.446c-0.257-1.678-0.377-3.959-0.359-6.841
			c-1.44,2.021-3.164,5.082-5.169,9.185c-1.246,2.549-2.107,4.136-2.584,4.765s-1.098,1.002-1.865,1.12
			c-1.167,0.179-1.838-0.309-2.016-1.456c-0.093-0.61,0.053-1.208,0.438-1.8c0.384-0.59,1.349-1.607,2.893-3.058
			c-0.001-3.319-0.115-5.721-0.344-7.208c-0.432-2.815-1.382-4.108-2.853-3.883c-1.007,0.152-1.979,0.916-2.913,2.286l-0.527-0.239
			c0.814-3.118,1.933-4.787,3.355-5.004c1.087-0.167,1.971,0.373,2.653,1.618c0.682,1.246,1.155,2.731,1.419,4.458
			c0.26,1.693,0.387,3.966,0.381,6.812c1.609-2.208,3.289-5.174,5.042-8.895c1.162-2.452,2.024-4.061,2.587-4.826
			c0.561-0.765,1.226-1.207,1.993-1.324c0.527-0.081,0.973,0.023,1.336,0.311c0.363,0.289,0.582,0.672,0.654,1.151
			c0.099,0.639-0.052,1.258-0.451,1.86C283.582,315.16,282.624,316.116,281.107,317.43L281.107,317.43z"/>
	</g>
</g>
</svg>
