<?xml version="1.0" encoding="utf-8"?>
<!-- Generator: Adobe Illustrator 15.0.2, SVG Export Plug-In . SVG Version: 6.00 Build 0)  -->
<!DOCTYPE svg PUBLIC "-//W3C//DTD SVG 1.1//EN" "http://www.w3.org/Graphics/SVG/1.1/DTD/svg11.dtd">
<svg version="1.1" id="レイヤー_1" xmlns="http://www.w3.org/2000/svg" xmlns:xlink="http://www.w3.org/1999/xlink" x="0px"
	 y="0px" width="64px" height="64px" viewBox="0 0 64 64" enable-background="new 0 0 64 64" xml:space="preserve">
<g>
	<linearGradient id="SVGID_1_" gradientUnits="userSpaceOnUse" x1="49.4844" y1="26.0107" x2="60.4922" y2="26.0107">
		<stop  offset="0" style="stop-color:#FFFFFF"/>
		<stop  offset="0.1722" style="stop-color:#FFEDD5"/>
		<stop  offset="0.3535" style="stop-color:#FFDCAE"/>
		<stop  offset="0.4485" style="stop-color:#FFD69F"/>
		<stop  offset="1" style="stop-color:#BF784D"/>
	</linearGradient>
	<path fill="url(#SVGID_1_)" d="M49.804,23.813c0,0,6.479-4.258,9.872-3.543c3.396,0.714-4.803,8.24-6.288,11
		C51.904,34.03,48.417,25.837,49.804,23.813z"/>
	<linearGradient id="SVGID_2_" gradientUnits="userSpaceOnUse" x1="41.2725" y1="51.1748" x2="53.6904" y2="51.1748">
		<stop  offset="0" style="stop-color:#FFFFFF"/>
		<stop  offset="0.1722" style="stop-color:#FFEDD5"/>
		<stop  offset="0.3535" style="stop-color:#FFDCAE"/>
		<stop  offset="0.4485" style="stop-color:#FFD69F"/>
		<stop  offset="1" style="stop-color:#BF784D"/>
	</linearGradient>
	<path fill="url(#SVGID_2_)" d="M41.272,45.646c0,0,7.488,14.206,8.211,12.238c0.723-1.965,4.207-8.576,4.207-8.576l-6.629-5.029
		L41.272,45.646z"/>
	<path fill="none" stroke="#3F2916" stroke-width="0.545" stroke-miterlimit="10" d="M49.804,23.813c0,0,6.479-4.258,9.872-3.543
		c3.396,0.714-4.803,8.24-6.288,11C51.904,34.03,48.417,25.837,49.804,23.813z"/>
	<g>
		
			<line fill="none" stroke="#825923" stroke-width="0.5384" stroke-miterlimit="10" x1="51.623" y1="25.208" x2="54.565" y2="23.066"/>
		
			<line fill="none" stroke="#825923" stroke-width="0.5384" stroke-miterlimit="10" x1="51.786" y1="26.321" x2="55.759" y2="24.842"/>
		
			<line fill="none" stroke="#825923" stroke-width="0.5384" stroke-miterlimit="10" x1="51.924" y1="27.794" x2="55.091" y2="27.053"/>
	</g>
	<path fill="none" stroke="#3F2916" stroke-width="0.545" stroke-miterlimit="10" d="M41.272,45.646c0,0,7.488,14.206,8.211,12.238
		c0.723-1.965,4.207-8.576,4.207-8.576l-6.629-5.029L41.272,45.646z"/>
	<g>
		
			<line fill="none" stroke="#825923" stroke-width="0.5943" stroke-miterlimit="10" x1="49.483" y1="49.28" x2="52.72" y2="51.176"/>
		
			<line fill="none" stroke="#825923" stroke-width="0.5943" stroke-miterlimit="10" x1="47.975" y1="50.266" x2="51.604" y2="53.262"/>
		
			<line fill="none" stroke="#825923" stroke-width="0.5943" stroke-miterlimit="10" x1="47.66" y1="51.628" x2="50.206" y2="55.907"/>
	</g>
	<linearGradient id="SVGID_3_" gradientUnits="userSpaceOnUse" x1="31.6943" y1="42.0742" x2="34.1959" y2="5.6206">
		<stop  offset="0" style="stop-color:#FFFFFF"/>
		<stop  offset="0.1722" style="stop-color:#FFEDD5"/>
		<stop  offset="0.3535" style="stop-color:#FFDCAE"/>
		<stop  offset="0.4485" style="stop-color:#FFD69F"/>
		<stop  offset="1" style="stop-color:#9F5000"/>
	</linearGradient>
	<path fill="url(#SVGID_3_)" stroke="#3F2916" stroke-width="0.545" stroke-miterlimit="10" d="M55.731,41.089l-1.185-0.682
		c1.558,0.68,7.042,3.871,7.042,3.871l-2.002-10.303c0,0,2.592-6.2,1.878-6.2c-0.716,0-4.021,2.771-4.021,2.771
		c-1.117-0.559-1.067-1.251-2.454-0.537l2.113-1.091l-3.659-0.269c-0.948-0.429-1.587-0.717-1.587-0.717l4.73-2.056l-5.784,0.226
		c-0.032-0.1-0.074-0.194-0.107-0.292l5.036-2.898l-5.815,0.885c-0.036-0.082-0.079-0.159-0.115-0.239l4.75-3.497l-5.767,1.554
		c-0.039-0.064-0.079-0.127-0.116-0.192l4.392-4.063l-5.635,2.22c-0.037-0.049-0.073-0.1-0.109-0.15l3.959-4.586l-5.414,2.87
		c-0.034-0.037-0.066-0.077-0.103-0.113l3.459-5.058l-5.107,3.492c-0.031-0.027-0.061-0.057-0.092-0.084l2.898-5.465l-4.722,4.075
		c-0.027-0.019-0.056-0.036-0.083-0.055l2.287-5.806l-4.28,4.626c-0.02-0.01-0.041-0.019-0.062-0.03l1.642-6.089l-3.771,5.124
		c-0.013-0.005-0.025-0.009-0.037-0.015l0.956-6.29l-3.198,5.555c-0.004-0.001-0.01-0.003-0.017-0.005l0.25-6.404l-2.569,5.912
		l-0.474-6.43l-1.894,6.163l-1.189-6.335l-1.189,6.335l-1.892-6.163l-0.472,6.43l-2.57-5.912l0.25,6.441l-3.216-5.587l0.97,6.373
		l-3.821-5.192l1.677,6.225l-4.378-4.732l2.364,5.998l-4.88-4.212l3.006,5.67c-0.003,0.003-0.008,0.006-0.011,0.009l-5.296-3.622
		l3.606,5.274c-0.005,0.007-0.012,0.013-0.018,0.02l-5.645-2.993l4.136,4.791c-0.012,0.015-0.021,0.03-0.032,0.046l-5.889-2.32
		l4.614,4.269c-0.013,0.023-0.026,0.044-0.039,0.067L4.963,20.06L9.91,23.7c-0.7,0.574-1.406,1.059-1.875,1.127
		c-1.251,0.179-3.128-0.983-3.396-1.072c-0.269-0.09-2.68,0.759-1.519,2.256s3.127,2.479,3.127,3.729
		c0,0.741-0.107,2.762,0.131,4.124L2.411,35.08l5.114,0.378c0.016,0.155,0.059,0.36,0.146,0.604l-4.743,2.062l5.762-0.222
		c0.026,0.104,0.057,0.209,0.085,0.314l-4.993,2.873l5.625-0.856c0.042,0.115,0.081,0.229,0.125,0.345l-4.569,3.362l5.406-1.457
		c0.062,0.122,0.121,0.245,0.185,0.365l-4.098,3.794l5.141-2.026c0.081,0.123,0.167,0.243,0.25,0.366l-3.605,4.176l4.819-2.557
		c0.103,0.124,0.199,0.252,0.304,0.374l-3.066,4.483l4.432-3.027c0.124,0.119,0.255,0.229,0.382,0.346L12.6,53.516l4.02-3.47
		c0.144,0.109,0.291,0.218,0.438,0.325l-1.942,4.93l3.563-3.851c0.167,0.1,0.325,0.211,0.495,0.308l-1.357,5.036l3.067-4.169
		c0.184,0.083,0.375,0.151,0.562,0.229l-0.779,5.118l2.566-4.457c0.199,0.064,0.397,0.13,0.599,0.188l-0.199,5.125l2.034-4.679
		c0.212,0.041,0.421,0.087,0.636,0.122l0.373,5.073l1.486-4.843c0.219,0.017,0.439,0.017,0.659,0.029l0.936,4.986l0.934-4.977
		c0.222-0.01,0.442-0.019,0.662-0.033l1.486,4.837l0.371-5.039c0.222-0.034,0.444-0.061,0.662-0.1l2.01,4.622l-0.196-5.042
		c0.217-0.058,0.44-0.103,0.654-0.167l2.507,4.353l-0.759-4.981c0.208-0.086,0.416-0.168,0.621-0.259l2.989,4.062l-1.313-4.872
		c0.194-0.105,0.376-0.232,0.568-0.345l3.444,3.724l-1.865-4.735c0.176-0.124,0.345-0.258,0.517-0.388l3.866,3.338L44.51,48.98
		c0.157-0.14,0.313-0.279,0.464-0.423l4.243,2.9l-2.921-4.271c0.135-0.153,0.28-0.294,0.41-0.452l4.568,2.423l-3.409-3.946
		c0.113-0.16,0.227-0.32,0.334-0.484l4.86,1.915l-3.86-3.571c0.089-0.166,0.159-0.339,0.244-0.507l5.107,1.376l-3.901-2.871
		c0.771-0.125,1.569-0.258,2.365-0.394L55.731,41.089z"/>
	<linearGradient id="SVGID_4_" gradientUnits="userSpaceOnUse" x1="32.1978" y1="28.8999" x2="32.1978" y2="8.4542">
		<stop  offset="0" style="stop-color:#FFE49F;stop-opacity:0"/>
		<stop  offset="0.1754" style="stop-color:#D4B374;stop-opacity:0.1754"/>
		<stop  offset="0.3693" style="stop-color:#AA854B;stop-opacity:0.3693"/>
		<stop  offset="0.5548" style="stop-color:#8A602A;stop-opacity:0.5548"/>
		<stop  offset="0.7268" style="stop-color:#724613;stop-opacity:0.7268"/>
		<stop  offset="0.8803" style="stop-color:#643605;stop-opacity:0.8803"/>
		<stop  offset="1" style="stop-color:#5F3000"/>
	</linearGradient>
	<path fill="url(#SVGID_4_)" d="M61.465,27.775c-0.716,0-4.021,2.771-4.021,2.771c-1.117-0.559-1.067-1.251-2.454-0.537l2.113-1.091
		l-3.659-0.269c-0.948-0.429-1.587-0.717-1.587-0.717l4.73-2.056l-5.784,0.226c-0.032-0.1-0.074-0.194-0.107-0.292l5.036-2.898
		l-5.815,0.885c-0.036-0.082-0.079-0.159-0.115-0.239l4.75-3.497l-5.767,1.554c-0.039-0.064-0.079-0.127-0.116-0.192l4.392-4.063
		l-5.635,2.22c-0.037-0.049-0.073-0.1-0.109-0.15l3.959-4.586l-5.414,2.87c-0.034-0.037-0.066-0.077-0.103-0.113l3.459-5.058
		l-5.107,3.492c-0.031-0.027-0.061-0.057-0.092-0.084l2.898-5.465l-4.722,4.075c-0.027-0.019-0.056-0.036-0.083-0.055l2.287-5.806
		l-4.28,4.626c-0.02-0.01-0.041-0.019-0.062-0.03l1.642-6.089l-3.771,5.124c-0.013-0.005-0.025-0.009-0.037-0.015l0.956-6.29
		l-3.198,5.555c-0.004-0.001-0.01-0.003-0.017-0.005l0.25-6.404l-2.569,5.912l-0.474-6.43l-1.894,6.163l-1.189-6.335l-1.189,6.335
		l-1.892-6.163l-0.472,6.43l-2.57-5.912l0.25,6.441l-3.216-5.587l0.97,6.373l-3.821-5.192l1.677,6.225l-4.378-4.732l2.364,5.998
		l-4.88-4.212l3.006,5.67c-0.003,0.003-0.008,0.006-0.011,0.009l-5.296-3.622l3.606,5.274c-0.005,0.007-0.012,0.013-0.018,0.02
		l-5.645-2.993l4.136,4.791c-0.012,0.015-0.021,0.03-0.032,0.046l-5.889-2.32l4.614,4.269c-0.013,0.023-0.026,0.044-0.039,0.067
		L4.963,20.06L9.91,23.7c-0.7,0.574-1.406,1.059-1.875,1.127c-1.251,0.179-3.128-0.983-3.396-1.072
		c-0.269-0.09-2.68,0.759-1.519,2.256c0.604,0.779,1.422,1.418,2.072,2.029c2.952-0.705,7.27-1.92,7.852-3.143v2.703
		c2.056-0.639,3.908-1.405,4.273-2.173v2.536c0.938-0.681,1.782-1.543,2.268-2.595c0.184-1.147,0.428-2.036,0.428-2.036
		c0.029,0.749-0.143,1.422-0.428,2.036c-0.22,1.369-0.35,3.097,0.113,4.152c1.442-1.504,3.056-3.192,3.346-3.51
		c0.471-0.516-0.406,3.418-0.645,4.461c1.185-1.071,2.6-2.55,3.173-3.946c0.133-0.65,0.257-1.098,0.257-1.098
		c-0.01,0.354-0.104,0.723-0.257,1.098c-0.192,0.929-0.4,2.272-0.297,3.334l2.695-2.126l0.365,3.419l1.157-1.644l0.842-4.611
		l3.457,6.028l0.175,0.072c0.228-0.699,0.431-1.49,0.48-2.251l1.352,2.715l1.049-3.045l1.136,2.184l1.621-3.397l0.862,5.015
		l1.417-3.801l1.946,2.697l0.592-3.381l2.994,5.277l1.452,0.114c0.378-0.477,0.616-0.782,0.616-0.782l0.369,0.862l9.734,0.771
		C59.587,33.976,62.179,27.775,61.465,27.775z"/>
	<g>
		<path fill="#C9B099" d="M15.561,39.831c0,0.765-0.797,1.381-1.78,1.381s-1.78-0.616-1.78-1.381c0-0.76,0.797-1.378,1.78-1.378
			S15.561,39.071,15.561,39.831z"/>
		<ellipse fill="#C9B099" cx="23.961" cy="42.346" rx="2.351" ry="1.821"/>
		<ellipse fill="#C9B099" cx="32.197" cy="39.163" rx="1.781" ry="1.38"/>
		<ellipse fill="#C9B099" cx="50.359" cy="38.899" rx="1.78" ry="1.38"/>
		<ellipse fill="#C9B099" cx="18.576" cy="37.8" rx="1.419" ry="1.102"/>
		<ellipse fill="#C9B099" cx="40.212" cy="41.709" rx="1.738" ry="1.374"/>
		<ellipse fill="#C9B099" cx="28.579" cy="49.976" rx="2.583" ry="2.004"/>
		<ellipse fill="#C9B099" cx="41.748" cy="47.267" rx="1.38" ry="1.069"/>
		<g>
			<ellipse fill="#7C5224" cx="33.046" cy="23.333" rx="1.781" ry="1.31"/>
			<ellipse fill="#7C5224" cx="25.869" cy="20.191" rx="2.352" ry="1.732"/>
			<ellipse fill="#7C5224" cx="23.518" cy="26.132" rx="1.78" ry="1.31"/>
			<ellipse fill="#7C5224" cx="47.246" cy="23.533" rx="1.78" ry="1.31"/>
			<ellipse fill="#7C5224" cx="22.542" cy="15.975" rx="1.419" ry="1.044"/>
			<ellipse fill="#7C5224" cx="39.138" cy="26.564" rx="2.061" ry="1.517"/>
			<ellipse fill="#7C5224" cx="31.419" cy="14.932" rx="2.583" ry="1.901"/>
			<ellipse fill="#7C5224" cx="40.211" cy="20.187" rx="1.381" ry="1.017"/>
		</g>
	</g>
	<ellipse fill="#AD9392" cx="18.955" cy="22.193" rx="4.089" ry="4.37"/>
	<ellipse fill="#FFFFFF" cx="18.576" cy="21.977" rx="3.966" ry="4.154"/>
	<circle fill="#231815" cx="17.593" cy="20.896" r="1.787"/>
	<g>
		<g>
			<polyline fill="#EDDABC" points="45.953,36.771 50.84,42.868 43.846,38.066 			"/>
			<polyline fill="#EDDABC" points="43.729,42.348 48.618,48.443 41.622,43.643 			"/>
			<polyline fill="#EDDABC" points="39.533,47.873 44.421,53.97 37.426,49.169 			"/>
		</g>
		<g>
			<polyline fill="#EDDABC" points="36.964,47.029 37.15,53.104 35.049,46.853 			"/>
			<polyline fill="#EDDABC" points="32.976,49.458 33.16,55.535 31.061,49.28 			"/>
			<polyline fill="#EDDABC" points="27.785,50.938 27.97,57.01 25.869,50.759 			"/>
		</g>
		<g>
			<polyline fill="#EDDABC" points="25.83,46.597 23.471,52.196 24.163,45.638 			"/>
			<polyline fill="#EDDABC" points="21.193,47.146 18.833,52.748 19.526,46.186 			"/>
			<polyline fill="#EDDABC" points="15.857,46.333 13.5,51.931 14.19,45.371 			"/>
		</g>
		<g>
			<polyline fill="#EDDABC" points="42.674,18.749 47.546,16.22 42.862,20.618 			"/>
			<polyline fill="#EDDABC" points="45.326,21.557 50.198,19.025 45.515,23.426 			"/>
			<polyline fill="#EDDABC" points="47.417,25.862 52.289,23.333 47.606,27.733 			"/>
		</g>
		<g>
			<polyline fill="#EDDABC" points="42.886,24.514 48.658,24.504 42.432,26.356 			"/>
			<polyline fill="#EDDABC" points="44.587,28.428 50.358,28.417 44.133,30.269 			"/>
			<polyline fill="#EDDABC" points="45.209,33.473 50.98,33.462 44.754,35.316 			"/>
		</g>
		<g>
			<polyline fill="#EDDABC" points="41.468,31.455 45.77,33.848 41.042,32.795 			"/>
			<polyline fill="#EDDABC" points="42.541,35.411 46.842,37.802 42.112,36.749 			"/>
			<polyline fill="#EDDABC" points="42.756,39.856 47.057,42.245 42.321,41.196 			"/>
		</g>
		<g>
			<polyline fill="#EDDABC" points="37.537,34.359 40.212,39.669 36.419,35.536 			"/>
			<polyline fill="#EDDABC" points="36.387,39.315 39.058,44.623 35.265,40.49 			"/>
			<polyline fill="#EDDABC" points="34.175,44.257 36.849,49.565 33.046,45.433 			"/>
		</g>
		<g>
			<polyline fill="#EDDABC" points="32.554,41.188 32.616,47.267 30.641,40.973 			"/>
			<polyline fill="#EDDABC" points="28.518,43.536 28.58,49.615 26.606,43.32 			"/>
			<polyline fill="#EDDABC" points="23.298,44.913 23.362,50.987 21.385,44.695 			"/>
		</g>
		<g>
			<polyline fill="#EDDABC" points="18.694,45.392 13.58,48.673 17.861,43.657 			"/>
			<polyline fill="#EDDABC" points="14.559,43.221 9.444,46.503 13.729,41.486 			"/>
			<polyline fill="#EDDABC" points="10.621,39.529 5.509,42.813 9.79,37.794 			"/>
		</g>
		<g>
			<polyline fill="#A3875F" points="31.012,12.248 34.413,6.672 32.496,13.82 			"/>
			<polyline fill="#A3875F" points="35.74,13.015 39.139,7.439 37.223,14.585 			"/>
			<polyline fill="#A3875F" points="40.905,15.52 44.303,9.944 42.389,17.093 			"/>
		</g>
		<g>
			<polyline fill="#A3875F" points="20.757,14.572 20.062,9.951 22.299,14.762 			"/>
			<polyline fill="#A3875F" points="23.71,12.846 23.009,8.227 25.248,13.039 			"/>
			<polyline fill="#A3875F" points="27.699,11.883 27.001,7.26 29.239,12.075 			"/>
		</g>
	</g>
	<linearGradient id="SVGID_5_" gradientUnits="userSpaceOnUse" x1="21.8623" y1="26.2739" x2="42.7714" y2="14.5682">
		<stop  offset="0" style="stop-color:#FFFFFF"/>
		<stop  offset="0.1722" style="stop-color:#FFEDD5"/>
		<stop  offset="0.3535" style="stop-color:#FFDCAE"/>
		<stop  offset="0.4485" style="stop-color:#FFD69F"/>
		<stop  offset="1" style="stop-color:#BF784D"/>
	</linearGradient>
	<path fill="url(#SVGID_5_)" d="M32.55,15.506c0,0,9.448-6.138,9.193-3.694c-0.258,2.443-4.594,10.841-4.594,10.841l-2.902,0.714
		C34.247,23.368,35.32,15.864,32.55,15.506z"/>
	<path fill="none" stroke="#3F2916" stroke-width="0.545" stroke-miterlimit="10" d="M32.55,15.506c0,0,9.448-6.138,9.193-3.694
		c-0.258,2.443-4.594,10.841-4.594,10.841"/>
	<g>
		
			<line fill="none" stroke="#825923" stroke-width="0.5384" stroke-miterlimit="10" x1="34.188" y1="17.6" x2="37.132" y2="15.458"/>
		
			<line fill="none" stroke="#825923" stroke-width="0.5384" stroke-miterlimit="10" x1="34.353" y1="18.712" x2="38.325" y2="17.233"/>
		
			<line fill="none" stroke="#825923" stroke-width="0.5384" stroke-miterlimit="10" x1="34.489" y1="20.187" x2="37.657" y2="19.445"/>
	</g>
	<g>
		
			<line fill="none" stroke="#3F2916" stroke-width="0.545" stroke-miterlimit="10" x1="56.122" y1="32.408" x2="60.803" y2="30.852"/>
		
			<line fill="none" stroke="#3F2916" stroke-width="0.545" stroke-miterlimit="10" x1="55.782" y1="34.173" x2="59.587" y2="34.887"/>
		
			<line fill="none" stroke="#3F2916" stroke-width="0.545" stroke-miterlimit="10" x1="55.253" y1="36.435" x2="60.58" y2="38.545"/>
	</g>
	<path fill="#40210F" d="M4.823,27.053c0,0,2.234,0.676,2.681,2.29c0.447,1.614,0.353,4.817-0.446,4.119
		c-0.799-0.7-0.27-2.605-0.761-4.119C5.807,27.829,4.377,27.796,4.823,27.053z"/>
	<path fill="#D1AC7C" d="M7.482,35.394c0,0,0.467,0.057,1.399-1.067c0.685-0.829,1.215-0.779,1.215-0.779s0.11,0.566-0.479,1.245
		C9.029,35.47,7.482,35.394,7.482,35.394z"/>
	
		<line fill="none" stroke="#3F2916" stroke-width="0.545" stroke-miterlimit="10" x1="55.253" y1="38.545" x2="61.048" y2="41.494"/>
</g>
</svg>
