<?xml version="1.0" encoding="utf-8"?>
<!-- Generator: Adobe Illustrator 15.0.2, SVG Export Plug-In . SVG Version: 6.00 Build 0)  -->
<!DOCTYPE svg PUBLIC "-//W3C//DTD SVG 1.1//EN" "http://www.w3.org/Graphics/SVG/1.1/DTD/svg11.dtd">
<svg version="1.1" id="レイヤー_1" xmlns="http://www.w3.org/2000/svg" xmlns:xlink="http://www.w3.org/1999/xlink" x="0px"
	 y="0px" width="64px" height="64px" viewBox="0 0 64 64" enable-background="new 0 0 64 64" xml:space="preserve">
<g>
	<g>
		<g>
			<g>
				<g>
					<path fill="#F2A72F" d="M13.512,26.705c-1.853,2.032-3.573,1.454-3.822-1.285L8.13,8.286C7.881,5.547,9.757,4.164,12.3,5.211
						l10.504,4.328c2.542,1.048,3.107,3.567,1.254,5.6L13.512,26.705z"/>
					<path fill="none" stroke="#471A03" stroke-width="2" stroke-miterlimit="10" d="M13.512,26.705
						c-1.853,2.032-3.573,1.454-3.822-1.285L8.13,8.286C7.881,5.547,9.757,4.164,12.3,5.211l10.504,4.328
						c2.542,1.048,3.107,3.567,1.254,5.6L13.512,26.705z"/>
				</g>
				<g>
					<path fill="#F2A72F" d="M49.26,26.302c1.754,2.118,3.484,1.621,3.847-1.105l2.248-16.934c0.362-2.726-1.421-4.097-3.962-3.046
						l-9.972,4.124c-2.541,1.051-3.186,3.644-1.432,5.762L49.26,26.302z"/>
					<path fill="none" stroke="#471A03" stroke-width="2" stroke-miterlimit="10" d="M49.26,26.302
						c1.754,2.118,3.484,1.621,3.847-1.105l2.248-16.934c0.362-2.726-1.421-4.097-3.962-3.046l-9.972,4.124
						c-2.541,1.051-3.186,3.644-1.432,5.762L49.26,26.302z"/>
				</g>
			</g>
		</g>
		<defs>
			<filter id="Adobe_OpacityMaskFilter" filterUnits="userSpaceOnUse" x="7.108" y="3.861" width="49.293" height="25.058">
				
					<feColorMatrix  type="matrix" values="-1 0 0 0 1  0 -1 0 0 1  0 0 -1 0 1  0 0 0 1 0" color-interpolation-filters="sRGB" result="source"/>
			</filter>
		</defs>
		<mask maskUnits="userSpaceOnUse" x="7.108" y="3.861" width="49.293" height="25.058" id="SVGID_1_">
			<g filter="url(#Adobe_OpacityMaskFilter)">
				<image overflow="visible" width="54" height="30" xlink:href="E00E7F75.jpg"  transform="matrix(1 0 0 1 5 1)">
				</image>
			</g>
		</mask>
		<g opacity="0.23" mask="url(#SVGID_1_)">
			<g>
				<g>
					<path fill="#FF7C66" d="M13.512,26.705c-1.853,2.032-3.573,1.454-3.822-1.285L8.13,8.286C7.881,5.547,9.757,4.164,12.3,5.211
						l10.504,4.328c2.542,1.048,3.107,3.567,1.254,5.6L13.512,26.705z"/>
					<path fill="none" stroke="#FF7C66" stroke-width="2" stroke-miterlimit="10" d="M13.512,26.705
						c-1.853,2.032-3.573,1.454-3.822-1.285L8.13,8.286C7.881,5.547,9.757,4.164,12.3,5.211l10.504,4.328
						c2.542,1.048,3.107,3.567,1.254,5.6L13.512,26.705z"/>
				</g>
				<g>
					<path fill="#FF7C66" d="M49.26,26.302c1.754,2.118,3.484,1.621,3.847-1.105l2.248-16.934c0.362-2.726-1.421-4.097-3.962-3.046
						l-9.972,4.124c-2.541,1.051-3.186,3.644-1.432,5.762L49.26,26.302z"/>
					<path fill="none" stroke="#FF7C66" stroke-width="2" stroke-miterlimit="10" d="M49.26,26.302
						c1.754,2.118,3.484,1.621,3.847-1.105l2.248-16.934c0.362-2.726-1.421-4.097-3.962-3.046l-9.972,4.124
						c-2.541,1.051-3.186,3.644-1.432,5.762L49.26,26.302z"/>
				</g>
			</g>
		</g>
	</g>
	
		<ellipse transform="matrix(0.8248 0.5654 -0.5654 0.8248 19.248 -21.0079)" fill="#D37611" cx="43.528" cy="20.56" rx="5.316" ry="10.997"/>
	
		<ellipse transform="matrix(0.8286 -0.5599 0.5599 0.8286 -8.1714 14.4358)" fill="#D37611" cx="19.486" cy="20.561" rx="5.316" ry="10.998"/>
	<g>
		<g>
			<path fill="#F2A72F" d="M54.552,33.412c0.002-0.115,0.01-0.23,0.01-0.346c0-12.202-10.17-22.093-22.718-22.093
				c-12.545,0-22.716,9.891-22.716,22.093c0,0.115,0.007,0.229,0.009,0.346c-0.943,2.174-1.46,4.521-1.46,6.969
				c0,11.218,10.82,20.313,24.167,20.313s24.169-9.095,24.169-20.313C56.013,37.933,55.497,35.586,54.552,33.412z"/>
			<path fill="none" stroke="#471A03" stroke-width="2.5" stroke-miterlimit="10" d="M54.552,33.412
				c0.002-0.115,0.01-0.23,0.01-0.346c0-12.202-10.17-22.093-22.718-22.093c-12.545,0-22.716,9.891-22.716,22.093
				c0,0.115,0.007,0.229,0.009,0.346c-0.943,2.174-1.46,4.521-1.46,6.969c0,11.218,10.82,20.313,24.167,20.313
				s24.169-9.095,24.169-20.313C56.013,37.933,55.497,35.586,54.552,33.412z"/>
		</g>
		<defs>
			<filter id="Adobe_OpacityMaskFilter_1_" filterUnits="userSpaceOnUse" x="6.427" y="9.723" width="50.836" height="52.22">
				
					<feColorMatrix  type="matrix" values="-1 0 0 0 1  0 -1 0 0 1  0 0 -1 0 1  0 0 0 1 0" color-interpolation-filters="sRGB" result="source"/>
			</filter>
		</defs>
		<mask maskUnits="userSpaceOnUse" x="6.427" y="9.723" width="50.836" height="52.22" id="SVGID_2_">
			<g filter="url(#Adobe_OpacityMaskFilter_1_)">
				<image overflow="visible" width="56" height="57" xlink:href="E00E7F77.jpg"  transform="matrix(1 0 0 1 4 7)">
				</image>
			</g>
		</mask>
		<g opacity="0.23" mask="url(#SVGID_2_)">
			<path fill="#FF7C66" d="M54.552,33.412c0.002-0.115,0.01-0.23,0.01-0.346c0-12.202-10.17-22.093-22.718-22.093
				c-12.545,0-22.716,9.891-22.716,22.093c0,0.115,0.007,0.229,0.009,0.346c-0.943,2.174-1.46,4.521-1.46,6.969
				c0,11.218,10.82,20.313,24.167,20.313s24.169-9.095,24.169-20.313C56.013,37.933,55.497,35.586,54.552,33.412z"/>
			<path fill="none" stroke="#FF7C66" stroke-width="2.5" stroke-miterlimit="10" d="M54.552,33.412
				c0.002-0.115,0.01-0.23,0.01-0.346c0-12.202-10.17-22.093-22.718-22.093c-12.545,0-22.716,9.891-22.716,22.093
				c0,0.115,0.007,0.229,0.009,0.346c-0.943,2.174-1.46,4.521-1.46,6.969c0,11.218,10.82,20.313,24.167,20.313
				s24.169-9.095,24.169-20.313C56.013,37.933,55.497,35.586,54.552,33.412z"/>
		</g>
	</g>
	<g>
		<line fill="none" stroke="#F29600" stroke-width="2" stroke-miterlimit="10" x1="31.845" y1="37.093" x2="31.845" y2="42.297"/>
		<g>
			<path fill="none" stroke="#471A03" stroke-width="2" stroke-miterlimit="10" d="M31.781,42.062c0,2.867-2.325,5.192-5.193,5.192
				s-5.192-2.325-5.192-5.192"/>
			<path fill="none" stroke="#471A03" stroke-width="2" stroke-miterlimit="10" d="M42.294,42.062c0,2.867-2.324,5.192-5.192,5.192
				s-5.193-2.325-5.193-5.192"/>
		</g>
		<path fill="#F29600" d="M37.161,54.157c0-1.868-2.38-3.383-5.316-3.383s-5.317,1.515-5.317,3.383s2.381,0,5.317,0
			S37.161,56.025,37.161,54.157z"/>
	</g>
	<g>
		<g>
			<path fill="none" stroke="#F29600" stroke-miterlimit="10" d="M53.617,33.484c0.001-0.109,0.009-0.221,0.009-0.33
				c0-11.7-9.751-21.184-21.782-21.184c-12.028,0-21.78,9.484-21.78,21.184c0,0.109,0.007,0.219,0.009,0.33
				c-0.905,2.086-1.4,4.336-1.4,6.682c0,10.756,10.375,19.477,23.172,19.477s23.174-8.721,23.174-19.477
				C55.018,37.82,54.523,35.57,53.617,33.484z"/>
		</g>
		<defs>
			<filter id="Adobe_OpacityMaskFilter_2_" filterUnits="userSpaceOnUse" x="8.172" y="11.47" width="47.346" height="48.672">
				
					<feColorMatrix  type="matrix" values="-1 0 0 0 1  0 -1 0 0 1  0 0 -1 0 1  0 0 0 1 0" color-interpolation-filters="sRGB" result="source"/>
			</filter>
		</defs>
		<mask maskUnits="userSpaceOnUse" x="8.172" y="11.47" width="47.346" height="48.672" id="SVGID_3_">
			<g filter="url(#Adobe_OpacityMaskFilter_2_)">
				<image overflow="visible" width="52" height="54" xlink:href="E00E7F72.jpg"  transform="matrix(1 0 0 1 6 9)">
				</image>
			</g>
		</mask>
		<g opacity="0.23" mask="url(#SVGID_3_)">
			<path fill="none" stroke="#FF7C66" stroke-miterlimit="10" d="M53.617,33.484c0.001-0.109,0.009-0.221,0.009-0.33
				c0-11.7-9.751-21.184-21.782-21.184c-12.028,0-21.78,9.484-21.78,21.184c0,0.109,0.007,0.219,0.009,0.33
				c-0.905,2.086-1.4,4.336-1.4,6.682c0,10.756,10.375,19.477,23.172,19.477s23.174-8.721,23.174-19.477
				C55.018,37.82,54.523,35.57,53.617,33.484z"/>
		</g>
	</g>
	<path fill="#471A03" d="M35.921,34.711c0,1.868-3.181,3.382-4.076,3.382c-1.093,0-4.076-1.514-4.076-3.382
		c0-1.867,1.825-1.177,4.076-1.177C34.097,33.534,35.921,32.844,35.921,34.711z"/>
	<path fill="none" stroke="#F29600" stroke-width="2" stroke-miterlimit="10" d="M18.198,34.751c0,0,12.773-8.889,27.293,0"/>
	<g>
		<g>
			<ellipse fill="#772603" cx="21.094" cy="28.368" rx="2.896" ry="3.996"/>
			<ellipse fill="#FFFFFF" cx="20.261" cy="26.771" rx="1.063" ry="1.597"/>
		</g>
		<g>
			<ellipse fill="#772603" cx="42.595" cy="28.368" rx="2.896" ry="3.996"/>
			<ellipse fill="#FFFFFF" cx="41.762" cy="26.771" rx="1.063" ry="1.597"/>
		</g>
	</g>
	<g>
		<g>
			<line fill="#F2A72F" stroke="#471A03" stroke-width="2" stroke-miterlimit="10" x1="0.835" y1="31.131" x2="15.06" y2="32.451"/>
			
				<line fill="#F2A72F" stroke="#471A03" stroke-width="2" stroke-miterlimit="10" x1="0.795" y1="37.128" x2="14.866" y2="36.039"/>
			
				<line fill="#F2A72F" stroke="#471A03" stroke-width="2" stroke-miterlimit="10" x1="1.013" y1="42.705" x2="15.398" y2="39.353"/>
		</g>
		<g>
			
				<line fill="#F2A72F" stroke="#471A03" stroke-width="2" stroke-miterlimit="10" x1="63.166" y1="31.131" x2="48.941" y2="32.451"/>
			
				<line fill="#F2A72F" stroke="#471A03" stroke-width="2" stroke-miterlimit="10" x1="63.205" y1="37.128" x2="49.135" y2="36.039"/>
			
				<line fill="#F2A72F" stroke="#471A03" stroke-width="2" stroke-miterlimit="10" x1="62.988" y1="42.705" x2="48.603" y2="39.353"/>
		</g>
	</g>
</g>
</svg>
