<?xml version="1.0" encoding="iso-8859-1"?>
<!-- Generator: Adobe Illustrator 15.0.2, SVG Export Plug-In . SVG Version: 6.00 Build 0)  -->
<!DOCTYPE svg PUBLIC "-//W3C//DTD SVG 1.1//EN" "http://www.w3.org/Graphics/SVG/1.1/DTD/svg11.dtd">
<svg version="1.1" id="&#x30EC;&#x30A4;&#x30E4;&#x30FC;_1"
	 xmlns="http://www.w3.org/2000/svg" xmlns:xlink="http://www.w3.org/1999/xlink" x="0px" y="0px" width="64px" height="64px"
	 viewBox="0 0 64 64" style="enable-background:new 0 0 64 64;" xml:space="preserve">
<g>
	<path style="fill:#C30D23;stroke:#330E03;stroke-width:2;stroke-miterlimit:10;" d="M8.252,11.509c0,0-2.153-8.389-0.598-8.739
		s4.905,1.398,4.905,1.398s-0.837-3.67,1.556-1.748c2.393,1.922,2.872,6.117,2.872,6.117l0.358,3.845
		C17.345,12.382,12.68,9.237,8.252,11.509z"/>
	<path style="fill:#F29600;stroke:#330E03;stroke-width:2;stroke-miterlimit:10;" d="M33.139,58.509l2.153-2.332l-8.016-7.904
		l-2.393,0.778l5.623,6.997l-2.512,3.497c-3.47-1.036-9.691,2.592-9.691,2.592h11.486l1.945-2.106l3.2,0.422L33.139,58.509z"/>
	<path style="fill:#C30D23;stroke:#330E03;stroke-width:2;stroke-miterlimit:10;" d="M9.266,17.824l2.632,2.721
		c0,0-0.263,10.365-2.369,12.049c0,0-3.948,8.163-5.527,4.017C2.422,32.466,7.16,26.246,7.16,26.246S4.001,21.582,9.266,17.824z"/>
	<path style="fill:#FFFFFF;stroke:#330E03;stroke-width:2;stroke-miterlimit:10;" d="M3.467,15.724c0,0,2.336-4.8,7.274-5.543
		c9.476-1.426,12.658,4.249,17.373,17.232l2.513,0.777c0,0,3.47-12.568,13.25-10.57l-0.269,1.459c0,0,6.871-8.169,13.336-7.294
		l-0.136,1.459l4.849,0.438c0,0-2.153,3.355-3.231,4.813c0,0,5.118,1.604,4.175,7.585l-4.175-0.875l0.943,2.333l-2.965,0.146
		c0,0,2.56,7.877-0.269,12.691l-2.021-4.23c0,0,1.618,4.377-1.213,8.607l-1.48-5.982c0,0,1.212,5.398-3.098,10.213l-1.347-4.961
		c0,0,0.269,5.69-2.29,9.045l-6.734-2.771l-0.136,1.896l-5.388-2.771l0.269,2.188c0,0-29.589,1.718-23.303-23.486
		c0,0-1.156-4.855,0.056-7.188l-5.713-3.023L3.467,15.724z"/>
	<path style="fill:#F7B52C;stroke:#330E03;stroke-width:2;stroke-miterlimit:10;" d="M8.372,19.824l-3.668-4.591
		c0,0-4.655,3.194-3.103,7.385L8.372,19.824z"/>
	<ellipse style="fill:none;stroke:#330E03;stroke-miterlimit:10;" cx="16.072" cy="14.261" rx="1.298" ry="2.138"/>
	<line style="fill:none;stroke:#F95A84;stroke-width:3;stroke-miterlimit:10;" x1="16.149" y1="19.638" x2="17.705" y2="18.602"/>
	<line style="fill:none;stroke:#F95A84;stroke-width:3;stroke-miterlimit:10;" x1="17.824" y1="20.027" x2="20.337" y2="18.991"/>
	<path style="fill:none;stroke:#CECDCC;stroke-width:2;stroke-miterlimit:10;" d="M11.363,20.545c0,0-1.675,3.369-0.12,7.645
		c0,0-2.871,7.644,0.838,13.735c3.709,6.089,13.759,8.032,19.502,7.644"/>
	<line style="fill:none;stroke:#CECDCC;stroke-width:2;stroke-miterlimit:10;" x1="36.489" y1="49.828" x2="36.489" y2="48.403"/>
	<path style="fill:none;stroke:#CECDCC;stroke-width:2;stroke-miterlimit:10;" d="M43.906,51.124c0,0,1.676-0.519,1.676-15.549"/>
	<line style="fill:none;stroke:#CECDCC;stroke-width:2;stroke-miterlimit:10;" x1="49.171" y1="45.033" x2="50.367" y2="39.203"/>
	<line style="fill:none;stroke:#CECDCC;stroke-width:2;stroke-miterlimit:10;" x1="53.119" y1="39.981" x2="52.521" y2="37.001"/>
	<line style="fill:none;stroke:#CECDCC;stroke-width:2;stroke-miterlimit:10;" x1="55.752" y1="34.798" x2="54.795" y2="26.765"/>
	<line style="fill:none;stroke:#CECDCC;stroke-width:2;stroke-miterlimit:10;" x1="57.067" y1="25.728" x2="56.709" y2="24.044"/>
</g>
</svg>
