<?xml version="1.0" encoding="utf-8"?>
<!-- Generator: Adobe Illustrator 15.0.2, SVG Export Plug-In . SVG Version: 6.00 Build 0)  -->
<!DOCTYPE svg PUBLIC "-//W3C//DTD SVG 1.1//EN" "http://www.w3.org/Graphics/SVG/1.1/DTD/svg11.dtd">
<svg version="1.1" id="レイヤー_1" xmlns="http://www.w3.org/2000/svg" xmlns:xlink="http://www.w3.org/1999/xlink" x="0px"
	 y="0px" width="64px" height="64px" viewBox="0 0 64 64" enable-background="new 0 0 64 64" xml:space="preserve">
<g>
	<linearGradient id="SVGID_1_" gradientUnits="userSpaceOnUse" x1="31.9995" y1="3.9321" x2="31.9995" y2="59.669">
		<stop  offset="0" style="stop-color:#FF2B30"/>
		<stop  offset="1" style="stop-color:#BD0000"/>
	</linearGradient>
	
		<circle fill-rule="evenodd" clip-rule="evenodd" fill="url(#SVGID_1_)" stroke="#930303" stroke-width="2" stroke-miterlimit="10" cx="32" cy="32" r="29.14"/>
	<linearGradient id="SVGID_2_" gradientUnits="userSpaceOnUse" x1="32.3481" y1="32.8828" x2="23.2204" y2="9.7546">
		<stop  offset="0" style="stop-color:#FF3F3F"/>
		<stop  offset="1" style="stop-color:#9C0000"/>
	</linearGradient>
	<circle fill-rule="evenodd" clip-rule="evenodd" fill="url(#SVGID_2_)" cx="32" cy="31.999" r="25.41"/>
	<g>
		<path fill="#FFFFFF" d="M27.999,21.121c-1.114,0.321-2.175,0.621-3.183,0.899v4.532l2.154-2.604l2.635,2.121
			c0.407,0.3,0.611,0.536,0.611,0.707c0,0.45-0.226,0.675-0.675,0.675h-4.726v0.996c1.222,0.408,2.068,0.814,2.54,1.222
			c0.6,0.578,0.899,1.211,0.899,1.896c0,0.557-0.161,1.082-0.481,1.575c-0.472,0.472-0.943,0.706-1.415,0.706
			c-0.643,0-1.082-0.652-1.317-1.96c-0.064-0.301-0.14-0.589-0.226-0.868v15.459c0,0.258-0.246,0.428-0.738,0.515
			c-2.121,0.235-3.204,0.354-3.246,0.354c-0.536,0-0.804-0.343-0.804-1.028v-9.16c-1.179,1.35-2.282,2.4-3.311,3.149l-0.257-0.257
			c0.792-1.907,1.489-4.082,2.089-6.524c0.429-1.671,0.781-3.685,1.061-6.042c-0.793,0.021-1.597,0.096-2.411,0.226l-0.481-1.415
			c1.093,0.15,2.195,0.225,3.311,0.225v-3.599c-1.157,0.192-2.186,0.289-3.086,0.289l-0.128-0.289
			c2.57-1.329,4.981-2.968,7.231-4.918c0.535-0.535,0.91-0.985,1.125-1.35l3.76,3.664c0.235,0.236,0.354,0.429,0.354,0.578
			c-0.021,0.236-0.183,0.354-0.482,0.354C28.694,21.249,28.428,21.207,27.999,21.121z M29.67,28.866
			c0.707,1.779,1.178,3.226,1.414,4.339c0.129,0.45,0.225,0.943,0.289,1.479v-8.035c0-0.899-0.043-1.8-0.128-2.699l4.757,0.482
			c0.599,0.063,0.899,0.257,0.899,0.578c0,0.235-0.14,0.429-0.418,0.578c-0.193,0.086-0.311,0.236-0.353,0.45v6.429
			c1.563-3.129,2.858-6.257,3.888-9.386c0.643-2.035,1.061-3.632,1.254-4.789l5.271,2.957c0.343,0.215,0.514,0.439,0.514,0.675
			c0,0.322-0.139,0.536-0.418,0.643c-0.149,0.086-0.396,0.161-0.738,0.226c-3.15,6.792-5.86,11.635-8.131,14.527
			c-0.515,0.642-1.062,1.253-1.639,1.832v1.639c0.063,0.429,0.213,0.675,0.449,0.739c0.644,0.043,1.318,0.064,2.024,0.064
			l1.639-0.161c0.621,0,0.997-0.343,1.126-1.029c0.192-1.156,0.321-2.217,0.385-3.181h0.804c0,1.929,0.128,3.149,0.387,3.663
			c0.192,0.494,0.577,0.848,1.156,1.062c-0.472,2.099-0.986,3.385-1.543,3.856c-0.686,0.407-1.521,0.61-2.507,0.61l-1.446,0.064
			c-2.807,0-4.585-0.129-5.334-0.386c-1.137-0.449-1.759-1.339-1.865-2.668c-1.393,1.093-2.871,2.111-4.435,3.054l-0.387-0.514
			c1.779-1.844,3.376-3.707,4.789-5.593v-2.668c-0.172,0.45-0.482,0.836-0.933,1.157c-0.642,0.449-1.413,0.675-2.313,0.675
			c-0.386,0-0.792-0.203-1.221-0.61c-0.279-0.364-0.418-0.804-0.418-1.318c0-1.049,0.471-2.366,1.414-3.952
			c0.921-1.499,1.382-2.807,1.382-3.921c0-0.235-0.032-0.525-0.097-0.868H29.67z M31.888,16.653
			c3.043,0.643,5.046,1.329,6.011,2.057c0.941,0.729,1.413,1.532,1.413,2.411c0,0.771-0.215,1.489-0.643,2.153
			c-0.621,0.621-1.253,0.932-1.896,0.932c-1.093,0-1.842-0.856-2.249-2.571c-0.536-1.843-1.543-3.386-3.021-4.628L31.888,16.653z
			 M42.429,30.763c2.186,1.093,3.6,2.143,4.243,3.149c0.579,0.814,0.867,1.735,0.867,2.764c0,0.729-0.235,1.393-0.706,1.993
			c-0.559,0.578-1.222,0.867-1.993,0.867c-0.343,0-0.675-0.268-0.997-0.803c-0.3-0.451-0.482-1.457-0.546-3.021
			c-0.129-1.649-0.558-3.074-1.286-4.274L42.429,30.763z"/>
	</g>
</g>
</svg>
