<?xml version="1.0" encoding="utf-8"?>
<!-- Generator: Adobe Illustrator 15.0.2, SVG Export Plug-In . SVG Version: 6.00 Build 0)  -->
<!DOCTYPE svg PUBLIC "-//W3C//DTD SVG 1.1//EN" "http://www.w3.org/Graphics/SVG/1.1/DTD/svg11.dtd">
<svg version="1.1" id="レイヤー_1" xmlns="http://www.w3.org/2000/svg" xmlns:xlink="http://www.w3.org/1999/xlink" x="0px"
	 y="0px" width="64px" height="64px" viewBox="0 0 64 64" enable-background="new 0 0 64 64" xml:space="preserve">
<g>
	<g>
		<g>
			<path fill="#B7660D" d="M54.771,31.314c0.002-0.115,0.01-0.23,0.01-0.346c0-12.202-10.17-22.093-22.717-22.093
				c-12.545,0-22.716,9.891-22.716,22.093c0,0.115,0.007,0.229,0.009,0.346c-0.944,2.174-1.46,4.521-1.46,6.969
				c0,11.218,10.82,20.313,24.167,20.313c13.346,0,24.168-9.095,24.168-20.313C56.231,35.835,55.716,33.488,54.771,31.314z"/>
			<path fill="none" stroke="#3A1903" stroke-width="2.5" stroke-miterlimit="10" d="M54.771,31.314
				c0.002-0.115,0.01-0.23,0.01-0.346c0-12.202-10.17-22.093-22.717-22.093c-12.545,0-22.716,9.891-22.716,22.093
				c0,0.115,0.007,0.229,0.009,0.346c-0.944,2.174-1.46,4.521-1.46,6.969c0,11.218,10.82,20.313,24.167,20.313
				c13.346,0,24.168-9.095,24.168-20.313C56.231,35.835,55.716,33.488,54.771,31.314z"/>
		</g>
		<defs>
			<filter id="Adobe_OpacityMaskFilter" filterUnits="userSpaceOnUse" x="6.646" y="7.625" width="50.835" height="52.221">
				
					<feColorMatrix  type="matrix" values="-1 0 0 0 1  0 -1 0 0 1  0 0 -1 0 1  0 0 0 1 0" color-interpolation-filters="sRGB" result="source"/>
			</filter>
		</defs>
		<mask maskUnits="userSpaceOnUse" x="6.646" y="7.625" width="50.835" height="52.221" id="SVGID_1_">
			<g filter="url(#Adobe_OpacityMaskFilter)">
				<image overflow="visible" width="56" height="57" xlink:href="E1EE45BD.jpg"  transform="matrix(1 0 0 1 4 5)">
				</image>
			</g>
		</mask>
		<g opacity="0.23" mask="url(#SVGID_1_)">
			<path fill="#FF7C66" d="M54.771,31.314c0.002-0.115,0.01-0.23,0.01-0.346c0-12.202-10.17-22.093-22.717-22.093
				c-12.545,0-22.716,9.891-22.716,22.093c0,0.115,0.007,0.229,0.009,0.346c-0.944,2.174-1.46,4.521-1.46,6.969
				c0,11.218,10.82,20.313,24.167,20.313c13.346,0,24.168-9.095,24.168-20.313C56.231,35.835,55.716,33.488,54.771,31.314z"/>
			<path fill="none" stroke="#FF7C66" stroke-width="2.5" stroke-miterlimit="10" d="M54.771,31.314
				c0.002-0.115,0.01-0.23,0.01-0.346c0-12.202-10.17-22.093-22.717-22.093c-12.545,0-22.716,9.891-22.716,22.093
				c0,0.115,0.007,0.229,0.009,0.346c-0.944,2.174-1.46,4.521-1.46,6.969c0,11.218,10.82,20.313,24.167,20.313
				c13.346,0,24.168-9.095,24.168-20.313C56.231,35.835,55.716,33.488,54.771,31.314z"/>
		</g>
	</g>
	<path fill="#FFF0E6" d="M49.491,43.905c-3.032-8.491-4.531-10.331-11.99-15.377c-4.68-3.166-2.439-12.121-2.714-17.869
		c-1.853-0.787-3.328-0.787-5.574-0.245c0,5.588,0.773,14.287-3.574,18.278c-6.286,5.772-7.787,7.706-10.442,15.213
		c-9.721,4.529,6.891,13.64,16.361,13.64C41.027,57.545,58.065,47.545,49.491,43.905z"/>
	<g>
		<path fill="#C8BB9B" d="M37.316,55.502c0-1.868-2.38-3.383-5.316-3.383c-2.936,0-5.317,1.515-5.317,3.383s2.381,0,5.317,0
			C34.937,55.502,37.316,57.37,37.316,55.502z"/>
		<g>
			<path fill="none" stroke="#592C17" stroke-width="2" stroke-miterlimit="10" d="M18.354,50.783
				c0.328,1.557,4.126,3.819,7.377,0.79c2.95-2.752,6.506-7.771,6.506-7.771"/>
			<path fill="none" stroke="#592C17" stroke-width="2" stroke-miterlimit="10" d="M45.646,50.783
				c-0.328,1.557-4.125,3.819-7.377,0.79c-2.949-2.752-6.505-7.771-6.505-7.771"/>
		</g>
		<line fill="none" stroke="#592C17" stroke-width="2" stroke-miterlimit="10" x1="32" y1="44.731" x2="32" y2="34.995"/>
	</g>
	<path fill="none" stroke="#B7660D" stroke-miterlimit="10" d="M21.412,32.027c0,0,9.228-8.952,21.933,0"/>
	<g>
		<g>
			<path fill="none" stroke="#70430D" stroke-miterlimit="10" d="M53.772,31.386c0.001-0.109,0.009-0.221,0.009-0.33
				c0-11.7-9.751-21.184-21.782-21.184c-12.028,0-21.78,9.484-21.78,21.184c0,0.109,0.007,0.219,0.009,0.33
				c-0.905,2.086-1.4,4.336-1.4,6.682c0,10.756,10.375,19.477,23.172,19.477s23.174-8.721,23.174-19.477
				C55.173,35.723,54.679,33.473,53.772,31.386z"/>
		</g>
		<defs>
			<filter id="Adobe_OpacityMaskFilter_1_" filterUnits="userSpaceOnUse" x="8.327" y="9.372" width="47.346" height="48.673">
				
					<feColorMatrix  type="matrix" values="-1 0 0 0 1  0 -1 0 0 1  0 0 -1 0 1  0 0 0 1 0" color-interpolation-filters="sRGB" result="source"/>
			</filter>
		</defs>
		<mask maskUnits="userSpaceOnUse" x="8.327" y="9.372" width="47.346" height="48.673" id="SVGID_2_">
			<g filter="url(#Adobe_OpacityMaskFilter_1_)">
				<image overflow="visible" width="52" height="54" xlink:href="E1EE45C3.jpg"  transform="matrix(1 0 0 1 6 7)">
				</image>
			</g>
		</mask>
		<g opacity="0.23" mask="url(#SVGID_2_)">
			<path fill="none" stroke="#FF7C66" stroke-miterlimit="10" d="M53.772,31.386c0.001-0.109,0.009-0.221,0.009-0.33
				c0-11.7-9.751-21.184-21.782-21.184c-12.028,0-21.78,9.484-21.78,21.184c0,0.109,0.007,0.219,0.009,0.33
				c-0.905,2.086-1.4,4.336-1.4,6.682c0,10.756,10.375,19.477,23.172,19.477s23.174-8.721,23.174-19.477
				C55.173,35.723,54.679,33.473,53.772,31.386z"/>
		</g>
	</g>
	<path fill="#3A1903" d="M36.076,32.613c0,1.869-3.181,3.382-4.076,3.382c-1.093,0-4.077-1.514-4.077-3.382
		c0-1.867,1.826-2.177,4.077-2.177C34.252,30.436,36.076,30.746,36.076,32.613z"/>
	<g>
		<g>
			<ellipse fill="#40210F" cx="21.25" cy="26.27" rx="2.896" ry="3.996"/>
			<ellipse fill="#FFFFFF" cx="20.417" cy="24.672" rx="1.063" ry="1.597"/>
		</g>
		<g>
			<ellipse fill="#40210F" cx="42.75" cy="26.27" rx="2.896" ry="3.996"/>
			<ellipse fill="#FFFFFF" cx="41.917" cy="24.672" rx="1.063" ry="1.597"/>
		</g>
	</g>
	<g>
		<path fill="#B7660D" stroke="#3A1903" stroke-width="2" stroke-miterlimit="10" d="M38.569,7.563
			c2.754-1.002,9.04-3.152,13.197-1.63c6.639,2.431,12.795,11.428,9.836,25.746c-2.787,13.489-11.583-2.49-12.705-9.466
			C47.553,13.853,33.592,9.375,38.569,7.563z"/>
		<path fill="#B7660D" stroke="#3A1903" stroke-width="2" stroke-miterlimit="10" d="M25.431,7.563
			c-2.754-1.002-9.04-3.152-13.197-1.63C5.595,8.364-0.562,17.361,2.397,31.679c2.787,13.489,11.583-2.49,12.705-9.466
			C16.447,13.853,30.408,9.375,25.431,7.563z"/>
	</g>
	<path fill="#A35B13" d="M5.737,34.721c-2.248-1.257-3.278-9.591-1.305-17.005c0,0,4.051-0.007,7.125,7.496
		C10.316,32.537,6.992,35.423,5.737,34.721z"/>
	<path fill="#A35B13" d="M58.286,34.721c2.248-1.257,3.277-9.591,1.305-17.005c0,0-4.052-0.007-7.125,7.496
		C53.707,32.537,57.031,35.423,58.286,34.721z"/>
</g>
</svg>
