<?xml version="1.0" encoding="utf-8"?>
<!-- Generator: Adobe Illustrator 15.0.2, SVG Export Plug-In . SVG Version: 6.00 Build 0)  -->
<!DOCTYPE svg PUBLIC "-//W3C//DTD SVG 1.1//EN" "http://www.w3.org/Graphics/SVG/1.1/DTD/svg11.dtd">
<svg version="1.1" id="レイヤー_1" xmlns="http://www.w3.org/2000/svg" xmlns:xlink="http://www.w3.org/1999/xlink" x="0px"
	 y="0px" width="64px" height="64px" viewBox="0 0 64 64" enable-background="new 0 0 64 64" xml:space="preserve">
<g>
	<g>
		<g>
			<path fill="#A1AAB7" d="M56.013,31.992c-3.116,21.037-14.32,28.282-24.021,28.282c-9.454,0-20.963-7.253-24.023-28.282
				C5.561,15.454,18.723,3.726,31.991,3.726C45.257,3.726,58.513,15.119,56.013,31.992z"/>
			<path fill="none" stroke="#231815" stroke-width="0.9854" stroke-miterlimit="10" d="M56.013,31.992
				c-3.116,21.037-14.32,28.282-24.021,28.282c-9.454,0-20.963-7.253-24.023-28.282C5.561,15.454,18.723,3.726,31.991,3.726
				C45.257,3.726,58.513,15.119,56.013,31.992z"/>
		</g>
		<defs>
			<filter id="Adobe_OpacityMaskFilter" filterUnits="userSpaceOnUse" x="7.188" y="3.233" width="49.623" height="57.535">
				
					<feColorMatrix  type="matrix" values="-1 0 0 0 1  0 -1 0 0 1  0 0 -1 0 1  0 0 0 1 0" color-interpolation-filters="sRGB" result="source"/>
			</filter>
		</defs>
		<mask maskUnits="userSpaceOnUse" x="7.188" y="3.233" width="49.623" height="57.535" id="SVGID_1_">
			<g filter="url(#Adobe_OpacityMaskFilter)">
				<image overflow="visible" width="54" height="62" xlink:href="11D72AC.jpg"  transform="matrix(1 0 0 1 5 1)">
				</image>
			</g>
		</mask>
		<g opacity="0.23" mask="url(#SVGID_1_)">
			<path fill="#444472" d="M56.013,31.992c-3.116,21.037-14.32,28.282-24.021,28.282c-9.454,0-20.963-7.253-24.023-28.282
				C5.561,15.454,18.723,3.726,31.991,3.726C45.257,3.726,58.513,15.119,56.013,31.992z"/>
			<path fill="none" stroke="#444472" stroke-width="0.9854" stroke-miterlimit="10" d="M56.013,31.992
				c-3.116,21.037-14.32,28.282-24.021,28.282c-9.454,0-20.963-7.253-24.023-28.282C5.561,15.454,18.723,3.726,31.991,3.726
				C45.257,3.726,58.513,15.119,56.013,31.992z"/>
		</g>
	</g>
	<g>
		<g>
			
				<ellipse transform="matrix(-0.7634 -0.6459 0.6459 -0.7634 56.2212 87.6895)" fill="#4D555B" cx="44.171" cy="33.548" rx="7.632" ry="10.98"/>
			<g>
				<image overflow="visible" opacity="0.45" width="25" height="27" xlink:href="11D72AC.png"  transform="matrix(1 0 0 1 32 19)">
				</image>
				<g>
					<linearGradient id="SVGID_2_" gradientUnits="userSpaceOnUse" x1="41.0605" y1="27.0249" x2="47.8643" y2="39.2378">
						<stop  offset="0" style="stop-color:#004DBF"/>
						<stop  offset="1" style="stop-color:#00021F"/>
					</linearGradient>
					<path fill="url(#SVGID_2_)" d="M50.302,36.538c-3.123,4.87-8.397,7.061-11.781,4.891c-3.386-2.17-3.6-7.876-0.479-12.746
						c3.122-4.871,8.397-7.061,11.782-4.891C53.209,25.961,53.422,31.668,50.302,36.538z"/>
					
						<ellipse transform="matrix(0.842 0.5395 -0.5395 0.842 24.5732 -18.6779)" fill="none" stroke="#00000C" stroke-width="1.0795" stroke-miterlimit="10" cx="44.172" cy="32.61" rx="7.28" ry="10.474"/>
				</g>
			</g>
			<linearGradient id="SVGID_3_" gradientUnits="userSpaceOnUse" x1="44.959" y1="25.0474" x2="47.0076" y2="30.948">
				<stop  offset="0" style="stop-color:#FFFFFF"/>
				<stop  offset="1" style="stop-color:#00021F;stop-opacity:0"/>
			</linearGradient>
			<path fill="url(#SVGID_3_)" d="M44.688,24.59c-2.48,0.938-3.881,3.318-3.126,5.319c0.756,1.999,3.381,2.86,5.862,1.923
				s3.883-3.318,3.127-5.318C49.795,24.513,47.171,23.652,44.688,24.59z"/>
		</g>
		<g>
			
				<ellipse transform="matrix(-0.842 0.5395 -0.5395 -0.842 55.753 50.7664)" fill="#4D555B" cx="20.442" cy="33.548" rx="7.632" ry="10.98"/>
			<g>
				<image overflow="visible" opacity="0.45" width="25" height="27" xlink:href="11D72AB.png"  transform="matrix(1 0 0 1 7 19)">
				</image>
				<g>
					
						<linearGradient id="SVGID_4_" gradientUnits="userSpaceOnUse" x1="66.9199" y1="27.0249" x2="73.7236" y2="39.2378" gradientTransform="matrix(-1 0 0 1 89.8594 0)">
						<stop  offset="0" style="stop-color:#004DBF"/>
						<stop  offset="1" style="stop-color:#00021F"/>
					</linearGradient>
					<path fill="url(#SVGID_4_)" d="M13.698,36.538c3.123,4.87,8.397,7.061,11.781,4.891c3.386-2.17,3.6-7.876,0.479-12.746
						c-3.122-4.871-8.397-7.061-11.782-4.891C10.791,25.961,10.578,31.668,13.698,36.538z"/>
					
						<ellipse transform="matrix(-0.842 0.5395 -0.5395 -0.842 54.1165 49.3704)" fill="none" stroke="#00000C" stroke-width="1.0795" stroke-miterlimit="10" cx="19.828" cy="32.61" rx="7.28" ry="10.474"/>
				</g>
			</g>
			
				<linearGradient id="SVGID_5_" gradientUnits="userSpaceOnUse" x1="70.8184" y1="25.0469" x2="72.8672" y2="30.9482" gradientTransform="matrix(-1 0 0 1 89.8594 0)">
				<stop  offset="0" style="stop-color:#FFFFFF"/>
				<stop  offset="1" style="stop-color:#00021F;stop-opacity:0"/>
			</linearGradient>
			<path fill="url(#SVGID_5_)" d="M19.312,24.59c2.48,0.938,3.881,3.318,3.126,5.319c-0.756,1.999-3.381,2.86-5.862,1.923
				s-3.883-3.318-3.127-5.318C14.205,24.513,16.829,23.652,19.312,24.59z"/>
		</g>
	</g>
	<path fill="#030D19" stroke="#44484C" stroke-width="0.5" stroke-miterlimit="1" d="M32,53.47c-2.823,0-5.327-1.258-6.927-3.201
		c-0.005,0.104-0.016,0.203-0.016,0.309c0,3.863,3.108,6.997,6.943,6.997c3.834,0,6.943-3.134,6.943-6.997
		c0-0.105-0.012-0.205-0.016-0.309C37.326,52.212,34.824,53.47,32,53.47z"/>
	<path fill="#778189" d="M32,59.627c0,0,11.398,1.886,18.757-12.295C50.757,47.332,44.328,57.004,32,59.627z"/>
</g>
</svg>
