<?xml version="1.0" encoding="utf-8"?>
<!-- Generator: Adobe Illustrator 15.0.2, SVG Export Plug-In . SVG Version: 6.00 Build 0)  -->
<!DOCTYPE svg PUBLIC "-//W3C//DTD SVG 1.1//EN" "http://www.w3.org/Graphics/SVG/1.1/DTD/svg11.dtd">
<svg version="1.1" id="レイヤー_1" xmlns="http://www.w3.org/2000/svg" xmlns:xlink="http://www.w3.org/1999/xlink" x="0px"
	 y="0px" width="64px" height="64px" viewBox="0 0 64 64" enable-background="new 0 0 64 64" xml:space="preserve">
<g>
	<g>
		<g>
			<path fill="#9E71F4" d="M45.613,52.109c-0.758,1.279-0.909,3.141,0.909,3.992c1.819,0.797,3.639,0.318,5.533,0.371
				c1.896,0.055,2.502,1.172,2.198,2.395c-0.303,1.436-2.652,2.234-4.548,2.607c-3.335,0.584-7.958,0.158-9.625-2.129
				c-1.289-1.756-0.835-4.043-0.835-5.904c0-1.225-0.228-2.555,0.076-3.725"/>
		</g>
		<g>
			<path fill="#9E71F4" d="M33.865,48.334c-4.7,0.373-3.259,4.893-4.245,7.021c-1.137,2.607-6.822,0.852-9.626,1.809
				c-2.274,0.744-3.108,2.607-0.758,3.725c1.895,0.957,4.245,1.064,6.519,1.064c3.411,0,8.413,0,10.915-1.861
				c1.516-1.064,1.591-2.289,1.971-3.672"/>
		</g>
		<g>
			<path fill="#9E71F4" d="M17.721,58.867c-2.274,0-4.017-0.586-5.912-1.383c-3.335-1.383-5.836-3.777-4.32-6.65
				c0.682-1.275,2.35-2.393,4.396-2.5c2.88-0.16,3.183,1.596,4.093,3.031c0.833,1.385,2.274,2.395,4.472,2.395
				c2.274,0,4.775-0.426,5.836-1.967c0.816-1.207,1.95-4.736,3.398-7.533c3.5,0.221,10.018,0.221,23.434-0.287
				c1.137,1.328,0.984,3.084,2.35,4.307c1.288,1.117,2.956,0.641,4.699,0.852c2.198,0.266,2.805,2.023,1.668,3.246
				c-0.835,0.904-1.972,1.383-3.411,1.383h-1.44c2.047,0.053,3.184,0.533,3.639,2.021c0.53,1.756-1.062,2.82-3.486,2.926
				c-1.062,0.053-2.502,0.268-3.487-0.053"/>
		</g>
	</g>
	<g>
		<g>
			<g>
				<path fill="#734BE2" d="M13.726,58.071c3.418,1.228,6.028-0.669,9.449-0.736c2.527-0.05,4.618-0.471,6.313-2.444
					c0.647-0.753-0.448-1.85-1.102-1.09c-1.885,2.194-4.269,1.854-6.904,2.066c-2.735,0.221-4.473,1.742-7.348,0.71
					C13.192,56.238,12.793,57.736,13.726,58.071L13.726,58.071z"/>
			</g>
		</g>
		<g>
			<g>
				<path fill="#734BE2" d="M20.699,61.528c3.954,0.778,8.017,1.051,11.945,0.006c3.999-1.063,4.802-4.357,6.591-7.547
					c0.488-0.872-0.853-1.647-1.342-0.775c-1.622,2.893-2.137,5.551-5.65,6.826c-3.397,1.233-7.691,0.674-11.135-0.004
					C20.132,59.842,19.719,61.336,20.699,61.528L20.699,61.528z"/>
			</g>
		</g>
		<g>
			<g>
				<path fill="#734BE2" d="M52.27,58.301c0.271,0.311-3.018,1.619-3.295,1.704c-1.828,0.563-3.84,0.556-5.658-0.023
					c-0.954-0.305-1.357,1.192-0.408,1.494c2.662,0.849,5.562,0.536,8.103-0.566c1.416-0.614,3.887-1.947,2.349-3.71
					C52.702,56.446,51.615,57.551,52.27,58.301L52.27,58.301z"/>
			</g>
		</g>
		<g>
			<g>
				<path fill="#734BE2" d="M58.71,55.883c-0.193,1.448-2.612,1.571-3.691,1.679c-0.985,0.097-1.004,1.647-0.012,1.549
					c2.163-0.214,4.908-0.631,5.252-3.216C60.392,54.904,58.84,54.907,58.71,55.883L58.71,55.883z"/>
			</g>
		</g>
		<g>
			<g>
				<path fill="#734BE2" d="M60.48,50.394c-0.781,1.078-1.875,2.145-3.265,2.273c-0.987,0.091-1.005,1.641-0.012,1.549
					c2.011-0.186,3.475-1.47,4.618-3.047C62.409,50.359,61.062,49.593,60.48,50.394L60.48,50.394z"/>
			</g>
		</g>
		<g>
			<g>
				<path fill="#734BE2" d="M51.855,43.809c-3.292,1.348-6.484,1.682-10.015,1.771c-3.314,0.083-8.298,0.337-11.303-1.056
					c-0.899-0.417-1.682,0.921-0.774,1.342c2.93,1.358,7.477,1.21,10.613,1.273c4.172,0.085,8.021-0.255,11.879-1.835
					C53.168,44.932,52.778,43.431,51.855,43.809L51.855,43.809z"/>
			</g>
		</g>
	</g>
	<g>
		<g>
			<g>
				<path fill="#20037A" d="M48.64,43.843c1.998-0.029,3.844-0.039,4.701,2.198c0.407,1.062,0.813,1.938,1.581,2.789
					c0.438,0.483,1.313,0.817,1.942,0.895c0.817,0.101,1.609,0.115,2.433,0.122c3.492,0.031,1.119,3.001-0.868,3.139
					c-0.992,0.068-1.008,1.618-0.012,1.549c1.655-0.113,3.762-0.657,4.479-2.377c0.667-1.598-0.152-2.914-1.669-3.557
					c-0.846-0.358-1.867-0.303-2.762-0.311c-2.847-0.025-3.293-2.136-4.263-4.117c-1.046-2.136-3.566-1.909-5.551-1.879
					C47.651,42.309,47.642,43.858,48.64,43.843L48.64,43.843z"/>
			</g>
		</g>
		<g>
			<g>
				<path fill="#20037A" d="M48.185,49.374c2.26,0.054,2.394,0.865,3.279,2.544c0.592,1.123,1.398,1.701,2.549,2.179
					c1.771,0.735,4.981-0.331,5.86,1.885c1.001,2.525-4.43,2.321-5.415,2.139c-0.977-0.182-1.391,1.313-0.408,1.494
					c2.319,0.431,4.696,0.4,6.52-1.273c1.109-1.019,1.195-2.961,0.124-4.047c-2.216-2.245-6.699-0.121-7.99-3.422
					c-0.868-2.22-2.118-2.991-4.507-3.047C47.194,47.801,47.188,49.351,48.185,49.374L48.185,49.374z"/>
			</g>
		</g>
		<g>
			<g>
				<path fill="#20037A" d="M44.942,51.722c-2.283,4.662,2.485,5.725,6.166,5.535c1.403-0.322,1.881,0.495,1.433,2.453
					c-0.836,0.585-2.053,0.796-3.035,1.017c-1.743,0.391-3.703,0.245-5.44-0.067c-2.579-0.463-3.993-2.006-4.122-4.66
					c-0.092-1.906-0.164-4.205,0.126-6.078c0.151-0.978-1.342-1.395-1.494-0.408c-0.289,1.859-0.079,3.724-0.164,5.601
					c-0.071,1.585,0.015,3.521,1.125,4.783c2.279,2.593,6.17,2.773,9.374,2.47c2.578-0.245,5.83-1.17,6.192-4.092
					c0.107-0.864-0.594-1.86-1.362-2.176c-1.617-0.664-9.549,0.671-7.456-3.602C46.722,51.604,45.383,50.823,44.942,51.722
					L44.942,51.722z"/>
			</g>
		</g>
		<g>
			<g>
				<path fill="#20037A" d="M33.665,47.586c-1.678,0.269-2.776,0.798-3.656,2.26c-1.177,1.954,0.226,5.388-2.714,6.135
					c-1.924,0.49-10.198-1.124-10.188,2.9c0.011,4.756,8.736,3.883,11.705,3.81c4.799-0.119,9.278-0.939,10.576-6.066
					c0.246-0.969-1.249-1.377-1.494-0.408c-1.315,5.193-6.882,4.92-11.167,4.961c-0.779,0.006-1.557,0-2.336-0.018
					c-0.454-0.026-0.908-0.054-1.362-0.08c-2.827,0.285-3.35-0.853-1.568-3.415c1.44-0.184,2.956-0.01,4.404-0.017
					c1.784-0.007,3.424-0.348,4.427-1.904c1.604-2.491-0.661-5.951,3.774-6.661C35.052,48.925,34.642,47.43,33.665,47.586
					L33.665,47.586z"/>
			</g>
		</g>
		<g>
			<g>
				<path fill="#20037A" d="M28.039,44.475c-0.288,3.979-2.004,7.971-6.436,8.472c-3.979,0.449-4.262-2.53-6.388-4.246
					c-1.95-1.573-5.091-1.561-7.024,0.188c-6.534,5.913,4.761,10.508,9.525,10.753c1,0.052,1.004-1.498,0.011-1.549
					c-2.521-0.131-4.463-0.779-6.735-1.844C7.868,55,7.84,52.67,10.907,49.261c2.851-1.024,3.525,0.96,4.402,2.497
					c1.113,1.948,3.037,2.579,5.135,2.776c6.067,0.573,8.761-4.744,9.145-10.048C29.661,43.486,28.11,43.484,28.039,44.475
					L28.039,44.475z"/>
			</g>
		</g>
	</g>
	<path fill="#B994FF" d="M11.96,50.781c1.829-0.473,2.708,3.191,5.182,3.564c2.474,0.371,4.823,0.586,6.491,0.32
		c1.667-0.268-1.082,1.221-6.263,0.477C12.188,54.398,10.521,51.154,11.96,50.781z"/>
	<path fill="#B994FF" d="M31.818,53.855c0.439-1.508,1.228-3.926,2.396-3.5s0.228,3.193-1.198,4.311
		c-1.424,1.115-0.894,2.781-2.334,3.199c-1.44,0.416-5.002,1.055-5.002,0.471c0-0.586,3.941-0.055,4.472-1.225
		C30.682,55.941,31.265,55.752,31.818,53.855z"/>
	<path fill="#B994FF" d="M41.104,53.855c-0.024,1.98,0.568,4.578,2.009,4.715s0.531-0.449,0-1.459s-0.304-4.787-1.062-4.787
		S41.112,53.205,41.104,53.855z"/>
	<path fill="#B994FF" d="M48.488,52.652c0.985-0.174,4.244,2.129,2.046,2.395S47.275,52.865,48.488,52.652z"/>
	<path fill="#FFFFFF" d="M35.835,50.693c0,0.543-0.584,0.98-1.307,0.98c-0.722,0-1.308-0.438-1.308-0.98
		c0-0.537,0.586-0.977,1.308-0.977C35.251,49.717,35.835,50.156,35.835,50.693z"/>
	<ellipse fill="#FFFFFF" cx="35.874" cy="53.043" rx="0.569" ry="0.398"/>
	<ellipse fill="#FFFFFF" cx="10.942" cy="51.873" rx="1.938" ry="1.568"/>
</g>
<g>
	<linearGradient id="SVGID_1_" gradientUnits="userSpaceOnUse" x1="36.29" y1="20.8574" x2="55.9976" y2="69.6716">
		<stop  offset="0" style="stop-color:#997FFF"/>
		<stop  offset="1" style="stop-color:#6E30BF"/>
	</linearGradient>
	<path fill="url(#SVGID_1_)" stroke="#20037A" stroke-width="1.8494" stroke-miterlimit="10" d="M57.664,29.942
		c0,9.75-4.568,15.708-17.466,15.708c-12.085,0-17.922-6.066-17.922-15.816c0-9.75,7.633-17.653,17.901-17.653
		C50.443,12.181,57.664,20.192,57.664,29.942z"/>
	<g>
		<g>
			<path fill="#734BE2" d="M30.136,43.822c5.099,2.403,10.765,1.923,16.221,1.188c5.402-0.726,8.664-4.444,11.015-8.99
				c1.093-2.113-2.105-3.973-3.203-1.85c-2.066,3.997-4.254,6.118-8.769,7.268c-3.938,1.002-9.771,0.897-13.414-0.819
				C29.842,39.609,27.975,42.804,30.136,43.822L30.136,43.822z"/>
		</g>
	</g>
	<path fill="#B994FF" d="M40.403,42.984c-0.414-1.193,4.317-1.078,8.368-4.119c4.05-3.041,3.731-5.479,5.14-4.854
		c1.408,0.627-0.915,5.506-4.533,7.432C45.816,43.34,40.639,43.666,40.403,42.984z"/>
</g>
<path fill="none" stroke="#20037A" stroke-width="1.8494" stroke-miterlimit="10" d="M57.664,29.942
	c0,9.75-4.568,15.708-17.466,15.708c-12.085,0-17.922-6.066-17.922-15.816c0-9.75,7.633-17.653,17.901-17.653
	C50.443,12.181,57.664,20.192,57.664,29.942z"/>
<path fill="#BA173A" d="M34.214,42.068"/>
<g>
	<ellipse fill="#3D030C" cx="46.227" cy="25.317" rx="2.438" ry="3.168"/>
	<ellipse fill="#3D030C" cx="28.118" cy="25.317" rx="2.438" ry="3.168"/>
	<ellipse fill="#FFFFFF" cx="27.427" cy="23.587" rx="0.816" ry="1.06"/>
	<ellipse fill="#FFFFFF" cx="45.41" cy="23.588" rx="0.816" ry="1.059"/>
</g>
<ellipse fill="#FFFFFF" cx="48.645" cy="19.748" rx="0.985" ry="0.795"/>
<g>
	<linearGradient id="SVGID_2_" gradientUnits="userSpaceOnUse" x1="26.9893" y1="27.522" x2="33.0529" y2="37.5276">
		<stop  offset="0" style="stop-color:#6B6B6B"/>
		<stop  offset="1" style="stop-color:#000000"/>
	</linearGradient>
	<path fill="url(#SVGID_2_)" d="M33.957,29.423c-0.795,0-1.52,0.381-2.079,1.005c-1.53,1.706-1.691,4-3.494,4.781
		c-1.32,0.572-2.743-0.02-3.376-1.494c-0.043,0.307-0.069,0.621-0.069,0.945c0,2.891,2.011,4.988,4.207,5.445
		c1.002,0.209,3.165,0,5.289-1.406c1.178-0.78,2.723-2.813,2.723-5.112C37.157,31.288,35.725,29.423,33.957,29.423z"/>
	<linearGradient id="SVGID_3_" gradientUnits="userSpaceOnUse" x1="40.4941" y1="23.5679" x2="42.0103" y2="36.301">
		<stop  offset="0" style="stop-color:#6B6B6B"/>
		<stop  offset="1" style="stop-color:#000000"/>
	</linearGradient>
	<path fill="url(#SVGID_3_)" d="M37.857,29.273c1.065,0,2.037,0.399,2.788,1.054c2.053,1.79,2.267,4.196,4.686,5.017
		c1.77,0.6,3.679-0.02,4.528-1.568c0.058,0.322,0.093,0.652,0.093,0.992c0,3.033-2.697,5.234-5.642,5.713
		c-1.344,0.221-4.245,0-7.095-1.475c-1.579-0.818-3.653-2.951-3.653-5.364C33.563,31.229,35.487,29.273,37.857,29.273z"/>
</g>
<g>
	<path fill="none" stroke="#0A0201" stroke-width="0.5189" stroke-miterlimit="10" d="M57.139,25.271h-2.913
		c-0.053-4.337-3.659-7.838-8.107-7.838c-4.479,0-8.11,3.552-8.11,7.933c0,4.382,3.631,7.935,8.11,7.935
		c3.538,0,6.538-2.218,7.647-5.307h3.373V25.271z M46.118,30.679c-2.998,0-5.43-2.379-5.43-5.313c0-2.934,2.432-5.313,5.43-5.313
		c3.002,0,5.434,2.379,5.434,5.313C51.552,28.3,49.12,30.679,46.118,30.679z"/>
	<linearGradient id="SVGID_4_" gradientUnits="userSpaceOnUse" x1="45.4893" y1="16.7734" x2="49.3719" y2="33.5261">
		<stop  offset="0" style="stop-color:#F3F3F3"/>
		<stop  offset="1" style="stop-color:#6B6B6B"/>
	</linearGradient>
	<path fill="url(#SVGID_4_)" d="M57.139,25.271h-2.913c-0.053-4.337-3.659-7.838-8.107-7.838c-4.479,0-8.11,3.552-8.11,7.933
		c0,4.382,3.631,7.935,8.11,7.935c3.538,0,6.538-2.218,7.647-5.307h3.373V25.271z M46.118,30.679c-2.998,0-5.43-2.379-5.43-5.313
		c0-2.934,2.432-5.313,5.43-5.313c3.002,0,5.434,2.379,5.434,5.313C51.552,28.3,49.12,30.679,46.118,30.679z"/>
</g>
<path fill="#231815" d="M36.733,10.247c-0.175,0.203-0.418,0.422-0.702,0.644c-0.204-4.241-2.199-8.859-4.321-9.589
	c-3.649-0.787-6.977-0.626-10.317,3.068c-2.563,2.835,0.707,9.495,2.369,12.443c-0.738,0.172-1.427,0.256-1.984,0.182
	c-3.182-0.422-4.625,4.863-0.815,5.255s17.163-1.92,19.73-10.708C41.537,9.893,38.485,8.202,36.733,10.247z"/>
<path fill="#050100" d="M22.464,5.083c0,0,6.066-0.901,7.787-2.459s-2.623,0.246-4.59,0.983S22.464,5.083,22.464,5.083z"/>
<path fill="#050100" d="M20.661,22.05c-0.916,0.009,0.574-0.902,2.049-1.066s12.95-2.951,17.458-9.754l0.523,0.313
	C40.692,11.543,37.219,21.887,20.661,22.05z"/>
<path fill="#40210F" d="M24.657,17.055c0,0,6.458,1.263,10.84-4.735c0,0-0.001-2.446-0.462-3.63c0,0-4.292,6.639-11.915,5.603
	L24.657,17.055z"/>
</svg>
