<?xml version="1.0" encoding="utf-8"?>
<!-- Generator: Adobe Illustrator 15.0.2, SVG Export Plug-In . SVG Version: 6.00 Build 0)  -->
<!DOCTYPE svg PUBLIC "-//W3C//DTD SVG 1.1//EN" "http://www.w3.org/Graphics/SVG/1.1/DTD/svg11.dtd">
<svg version="1.1" xmlns="http://www.w3.org/2000/svg" xmlns:xlink="http://www.w3.org/1999/xlink" x="0px" y="0px" width="64px"
	 height="64px" viewBox="0 0 64 64" enable-background="new 0 0 64 64" xml:space="preserve">
<g id="レイヤー_1">
</g>
<g id="先行して">
	<g id="giorgio">
		<g>
			<path fill-rule="evenodd" clip-rule="evenodd" d="M13.08,25.367c0.08,0,0.16,0,0.24,0c0,0.08,0,0.16,0,0.24
				c-0.08,0-0.16,0-0.24,0C13.08,25.527,13.08,25.447,13.08,25.367z"/>
			<path fill-rule="evenodd" clip-rule="evenodd" d="M12.839,25.847c0.08,0,0.16,0,0.24,0c0,0.08,0,0.16,0,0.24
				c-0.08,0-0.16,0-0.24,0C12.839,26.007,12.839,25.927,12.839,25.847z"/>
			<path fill-rule="evenodd" clip-rule="evenodd" d="M27.72,26.086c0.938,1.143,3.005,1.155,4.56,1.68
				c0.716,0.604,1.378,1.262,2.521,1.44c0.105,0.294,0.359,0.44,0.239,0.96c-1.446-0.423-2.075,0.084-3.24,0.48
				c0.2-1.12-0.792-1.048-1.32-1.44c-0.099,0.702-0.545,1.055-0.96,1.44c-0.433-0.248-1.173-0.187-1.56-0.48
				c0.038-0.598,0.035-1.155-0.48-1.2c-0.415,0.105-0.528,0.512-0.84,0.72c-0.446,0.006-0.475-0.405-1.08-0.24c0-0.32,0-0.64,0-0.96
				c1.052,0.546,1.379-0.781,2.88-0.48c-0.065-0.415-0.414-0.546-0.96-0.48c0-0.2,0-0.4,0-0.6c0.038-0.318-0.672,0.112-0.48-0.36
				c-0.313,0.327-1.042,0.238-1.68,0.24c0-0.16,0-0.32,0-0.48c-0.515,0.445-1.28,0.64-2.16,0.72
				C24.297,25.873,25.617,25.925,27.72,26.086z M28.919,29.207c0,0.08,0,0.16,0,0.24c0.146,0.014,0.284,0.036,0.24,0.24
				c0.08,0,0.16,0,0.24,0c0.014-0.146,0.036-0.284,0.24-0.24c0-0.08,0-0.16,0-0.24c-0.146-0.014-0.284-0.036-0.24-0.24
				c-0.08,0-0.16,0-0.24,0C29.146,29.113,29.124,29.251,28.919,29.207z"/>
			<path fill-rule="evenodd" clip-rule="evenodd" d="M12.6,26.327c0.08,0,0.16,0,0.24,0c0,0.16,0,0.32,0,0.48c-0.08,0-0.16,0-0.24,0
				C12.6,26.646,12.6,26.487,12.6,26.327z"/>
			<path fill-rule="evenodd" clip-rule="evenodd" fill="#FFFFFF" d="M29.16,28.967c0.08,0,0.16,0,0.24,0
				c-0.044,0.204,0.094,0.226,0.24,0.24c0,0.08,0,0.16,0,0.24c-0.204-0.044-0.227,0.093-0.24,0.24c-0.08,0-0.16,0-0.24,0
				c0.044-0.204-0.094-0.226-0.24-0.24c0-0.08,0-0.16,0-0.24C29.124,29.251,29.146,29.113,29.16,28.967z"/>
			<path fill-rule="evenodd" clip-rule="evenodd" d="M33.6,31.606c0.936,0.145,1.299,0.861,1.2,2.04c-0.24,0-0.48,0-0.721,0
				c-0.021,0.341,0.406,0.234,0.24,0.72c-0.85,0.07-2.032-0.191-2.52,0.24c-0.361,0.121-0.212-0.268-0.24-0.479
				c-0.294,0.105-0.44,0.359-0.96,0.239c0.231-1.368,2.249-0.95,2.52-2.28C33.532,32.18,33.692,32.02,33.6,31.606z"/>
			<path fill-rule="evenodd" clip-rule="evenodd" fill="#FFFFFF" d="M43.92,31.606c0.64,0,1.279,0,1.92,0
				c0.175,0.695-0.28,0.761-0.24,1.32c-0.823,0.184-0.931-0.349-1.68-0.24C43.92,32.327,43.92,31.967,43.92,31.606z"/>
			<path fill-rule="evenodd" clip-rule="evenodd" fill="#FFFFFF" d="M39.6,31.847c0.08,0,0.16,0,0.24,0c0,0.08,0,0.16,0,0.24
				c-0.08,0-0.16,0-0.24,0C39.6,32.007,39.6,31.927,39.6,31.847z"/>
			<path fill-rule="evenodd" clip-rule="evenodd" fill="#FFFFFF" d="M41.52,32.687c0.485-0.166,0.38,0.261,0.72,0.24
				c-0.052,0.268-0.212,0.428-0.479,0.479C41.78,33.066,41.354,33.173,41.52,32.687z"/>
			<path fill-rule="evenodd" clip-rule="evenodd" fill="#FFFFFF" d="M43.199,33.167c0.341-0.021,0.234,0.405,0.721,0.239
				c0.149,0.75-0.332,0.869-0.601,1.2c-0.453,0.174-0.23-0.329-0.6-0.24C42.832,33.919,43.392,33.918,43.199,33.167z"/>
			<path fill-rule="evenodd" clip-rule="evenodd" d="M34.56,42.646c0.9,0.396,2.686-0.904,3.84,0c-0.218,1.182-0.882,1.918-1.2,3
				c-0.772,0.133-1.12-0.159-1.68-0.24c-0.114-0.714,0.116-1.083,0.48-1.319c-0.972-0.349-1.306-1.335-2.881-1.08
				c0.081-0.521,0.005-0.885-0.6-0.72c-0.12-0.521,0.134-0.666,0.24-0.96c0.52,0,1.041,0,1.56,0
				C34.506,41.653,35.179,42.251,34.56,42.646z M34.319,42.526c0.114-0.434-0.473-0.167-0.72-0.239
				C33.486,42.721,34.072,42.454,34.319,42.526z"/>
			<path fill-rule="evenodd" clip-rule="evenodd" fill="#FFFFFF" d="M33.6,42.287c0.247,0.072,0.834-0.194,0.72,0.239
				C34.072,42.454,33.486,42.721,33.6,42.287z"/>
			<path fill-rule="evenodd" clip-rule="evenodd" fill="#FFFFFF" d="M38.88,47.087c0.159,0,0.319,0,0.479,0
				c-0.166,0.485,0.261,0.379,0.24,0.72c-0.554,1.286-1.505,2.175-2.16,3.36c-0.268-0.053-0.428-0.213-0.479-0.48
				C37.989,49.876,38.332,48.379,38.88,47.087z"/>
			<path fill-rule="evenodd" clip-rule="evenodd" d="M28.68,60.646c0.16,0,0.32,0,0.48,0c0,0.08,0,0.16,0,0.24
				c-0.16,0-0.32,0-0.48,0C28.68,60.807,28.68,60.727,28.68,60.646z"/>
			<path fill-rule="evenodd" clip-rule="evenodd" d="M33.6,63.047c0.16,0,0.32,0,0.479,0c0,0.08,0,0.16,0,0.24
				c-0.159,0-0.319,0-0.479,0C33.6,63.207,33.6,63.127,33.6,63.047z"/>
			<path fill-rule="evenodd" clip-rule="evenodd" d="M61.319,62.327c0,0.56,0,1.119,0,1.68c-7,0-14,0-21,0
				c-0.651-2.468-1.44-4.799-2.399-6.96c-0.872-0.072-1.563,0.037-2.16,0.24c0,0.359,0,0.72,0,1.079c0.037,0.163,0.3,0.1,0.479,0.12
				c-0.557,1.764-0.563,4.078-2.88,4.08c-0.334-0.985-1.155-1.484-1.8-2.16c-0.311,0.33-1.129,0.151-1.44,0.48
				c-2.438-1.242-3.383-3.978-6-5.04c0.218,0.422,0.661,0.618,0.48,1.44c-0.24,0-0.48,0-0.72,0c-1.086-1.515-1.705-3.495-3.12-4.681
				c-0.477-2.314-1.306-4.478-0.72-7.2c0.436,0.365,0.567,1.033,0.96,1.44c0.114,0.434-0.473,0.167-0.72,0.24
				c0.476,0.764,1.243,1.237,1.2,2.52c1.321,0.84,2.525,1.796,3.12,3.36c1.524,0.956,2.683,2.276,4.8,2.64c0,0.16,0,0.32,0,0.48
				c0.68,0,1.36,0,2.04,0c0.265-0.016,0.051-0.51,0.12-0.721c0.56,0,1.12,0,1.68,0c1.006-0.994,2.628-1.372,3-3
				c-0.921,0.199-1.252,0.988-1.92,1.44c-0.509-1.532-0.107-2.77,0.24-4.08c0.383-0.103,0.455,0.104,0.6,0.24
				c0.09-0.431,0.476-0.564,0.841-0.72c0.095-2.144-3.79-1.202-4.44-2.641c-0.324,0.313-0.885,0.306-0.96-0.24
				c-1.192,0.757-2.088-0.549-3.6-0.239c0-0.32,0-0.641,0-0.96c0.946-0.056,1.746-0.893,2.64-0.601
				c0.223,0.544-0.432,0.209-0.48,0.48c2.665,0.976,5.948,1.332,8.64,2.279c0.058-0.782,0.797-0.883,0.6-1.92
				c0.559,0.159,0.401-0.398,0.96-0.239c-0.054,1.014,0.623,1.297,0.48,2.399c1.272-0.647,1.079-2.761,2.399-3.359
				c0.806-2.955,2.808-4.713,3.12-8.16c-0.995-0.116-1.474,0.286-1.68,0.96c-0.24,0-0.48,0-0.72,0
				c-0.027-0.213,0.12-0.602-0.24-0.48c0.827-1.547-1.226-2.076-1.92-2.88c0.18-0.78-0.303-0.897-0.24-1.56
				c-0.455,0.345-0.762,0.838-1.2,1.201c0.421,0.898,0.486,2.153,1.44,2.52c-0.088,1.692,0.474,2.293,0,3.6
				c-0.698,0.178-0.668-0.371-1.32-0.239c-0.449,1.11-0.801,2.319-1.8,2.88c1.231-1.538-0.323-3.194,0-5.28
				c1.122-1.585,0.601-3.591,1.2-5.4c0.447-0.032,0.795-0.164,0.96-0.48c1.798,0.319,4.15-0.78,6.239-0.96
				c-0.083-0.92-0.191-0.707,0-1.56c-0.077-0.122-0.275-0.124-0.239-0.36c-0.414-0.014-0.307,0.494-0.721,0.48
				c0.045-0.204-0.093-0.227-0.239-0.24c0.368-0.831,1.521-1.976,2.537-2.16c0.297-1.934,0.103-3.889-0.617-6.12
				c-0.3-0.7-1.376-0.625-1.44-1.56c-1.987,0.147-2.48-1.199-4.56-0.96c-1.153-1.007-2.813-1.507-3.84-2.64
				c-0.648-0.128-0.891,0.15-1.32,0.24c-1.453-0.417-2.88-1.905-4.68-1.2c-0.409-0.071-0.698-0.262-0.96-0.48
				c-1.569,0.471-2.586,1.494-3.72,2.4c0.164,0.723-0.237,0.883-0.24,1.44c-0.24,0-0.48,0-0.72,0
				c-0.183,0.824,0.349,0.931,0.24,1.68c-0.501,0.778-0.865,1.695-1.44,2.4c-2.4-0.08-2.375,2.266-3.84,3.12
				c-0.348,2.741-0.31,5.803,0.24,8.28c-0.398,0.039-0.738,0.018-0.84-0.24c-0.548,2.588,1.101,4.019,0.84,6.72
				c-0.974-1.387-1.734-2.985-2.52-4.561c-0.234,0.587-0.606,1.342-0.12,2.16c0.021,0.341-0.406,0.234-0.24,0.72
				c0.422,0.458,0.177,1.584,0.24,2.4c-1.511,3.249-3.188,6.332-3.12,11.16c0.754,0.966,1.956,1.484,2.64,2.52
				c0.602,4.638,2.662,7.819,5.28,10.44c-7.56,0-15.12,0-22.68,0c0-4.521,0-9.04,0-13.561c0.08,0,0.16,0,0.24,0
				c3.032-0.808,5.472-2.207,8.64-2.88c2.476-1.964,3.857-5.022,6.6-6.72c0.11-0.786,0.947-2.07,0.24-2.88
				c-0.876-0.484-2.135-0.585-3.12-0.96c-1.135-2.451-0.877-7.411,0-9.96c0.422,3.699-1,6.905,0.48,9.24
				c0.96-0.161,1.374,0.226,2.16,0.239c0.079-1.08-0.159-2.479,0.12-3.359c0.3,0.26-0.174,1.294,0.72,0.96
				c0.733-0.571-0.3-1.852-0.6-2.521c-0.041-1.76,0.105-4.344-0.12-5.52c1.356,0.125,1.303,1.657,1.8,2.64
				c0.738-1.966-0.588-3.224-1.2-4.56c-0.888,0.034-2.029,0.449-2.4,0.6c0.458-0.622,0.699-1.461,1.2-2.04
				c-0.071-1.569,0.31-3.698,0.448-5.477c1.978-4.182,2.06-8.776,5.552-11.443c2.529-1.191,4.575-2.865,7.8-3.36
				c2.44,0,4.88,0,7.32,0c1.928,0.671,3.879,1.321,5.88,1.92c0.04,0.679,1.011,0.429,0.96,1.2c1.336-0.057,1.595,0.965,2.64,1.2
				c2.556,3.765,4.443,8.196,5.521,13.44c0,1.16,0,2.32,0,3.48c0.09,0.37-0.414,0.146-0.24,0.6c0,0.68,0,1.36,0,2.04
				c-0.293,1.067-0.618,2.102-0.72,3.36c-2.123,5.038-3.979,10.343-7.2,14.28c-0.169,1.392-1.266,1.854-1.2,3.479
				c1.4,2.28,3.908,3.452,5.76,5.28c-0.169,0.431-0.329,0.87-0.24,1.561c0.446,0.474,0.791,1.049,1.2,1.56
				c4.554,1.047,7.938,3.263,11.641,5.16C60.15,61.655,60.756,61.971,61.319,62.327z M43.92,32.687
				c0.749-0.109,0.856,0.424,1.68,0.24c-0.04-0.56,0.415-0.625,0.24-1.32c-0.641,0-1.28,0-1.92,0
				C43.92,31.967,43.92,32.327,43.92,32.687z M39.6,32.086c0.08,0,0.16,0,0.24,0c0-0.08,0-0.16,0-0.24c-0.08,0-0.16,0-0.24,0
				C39.6,31.927,39.6,32.007,39.6,32.086z M41.76,33.406c0.268-0.052,0.428-0.212,0.479-0.479c-0.34,0.021-0.234-0.406-0.72-0.24
				C41.354,33.173,41.78,33.066,41.76,33.406z M42.72,34.366c0.369-0.089,0.146,0.414,0.6,0.24c0.269-0.331,0.75-0.45,0.601-1.2
				c-0.486,0.166-0.38-0.26-0.721-0.239C43.392,33.918,42.832,33.919,42.72,34.366z M36.96,50.687
				c0.052,0.268,0.212,0.428,0.479,0.48c0.655-1.186,1.606-2.074,2.16-3.36c0.021-0.341-0.406-0.234-0.24-0.72
				c-0.16,0-0.32,0-0.479,0C38.332,48.379,37.989,49.876,36.96,50.687z"/>
		</g>
	</g>
</g>
</svg>
