<?xml version="1.0" encoding="utf-8"?>
<!-- Generator: Adobe Illustrator 15.0.2, SVG Export Plug-In . SVG Version: 6.00 Build 0)  -->
<!DOCTYPE svg PUBLIC "-//W3C//DTD SVG 1.1//EN" "http://www.w3.org/Graphics/SVG/1.1/DTD/svg11.dtd">
<svg version="1.1" id="レイヤー_1" xmlns="http://www.w3.org/2000/svg" xmlns:xlink="http://www.w3.org/1999/xlink" x="0px"
	 y="0px" width="64px" height="64px" viewBox="0 0 64 64" enable-background="new 0 0 64 64" xml:space="preserve">
<g>
	<g>
		<defs>
			<filter id="Adobe_OpacityMaskFilter" filterUnits="userSpaceOnUse" x="3.564" y="55.168" width="56.404" height="5.049">
				<feFlood  style="flood-color:white;flood-opacity:1" result="back"/>
				<feBlend  in="SourceGraphic" in2="back" mode="normal"/>
			</filter>
		</defs>
		<mask maskUnits="userSpaceOnUse" x="3.564" y="55.168" width="56.404" height="5.049" id="SVGID_1_">
			<g filter="url(#Adobe_OpacityMaskFilter)">
				
					<image overflow="visible" width="127" height="18" xlink:href="CFCB40B2.jpg"  transform="matrix(0.4788 0 0 0.5376 1.5698 52.9287)">
				</image>
			</g>
		</mask>
		<g mask="url(#SVGID_1_)">
			<ellipse fill="#717071" cx="31.767" cy="57.692" rx="28.202" ry="2.524"/>
		</g>
	</g>
	<g>
		<path fill="#F4E1D0" d="M48.407,7.273c1.748,1.217,1.436,2.213-0.694,2.213H15.82c-2.13,0-2.355-0.857-0.5-1.905l3.352-1.894
			c1.855-1.048,5.115-1.905,7.246-1.905h13.604c2.13,0,5.304,0.996,7.052,2.213L48.407,7.273z"/>
		<path fill="none" stroke="#161212" stroke-width="0.9683" stroke-miterlimit="3" d="M48.407,7.273
			c1.748,1.217,1.436,2.213-0.694,2.213H15.82c-2.13,0-2.355-0.857-0.5-1.905l3.352-1.894c1.855-1.048,5.115-1.905,7.246-1.905
			h13.604c2.13,0,5.304,0.996,7.052,2.213L48.407,7.273z"/>
	</g>
	<g>
		<g>
			<rect x="57.803" y="38.413" fill="#E85513" width="1.262" height="2.894"/>
		</g>
		<g>
			<rect x="4.469" y="38.413" fill="#E85513" width="1.262" height="2.894"/>
		</g>
	</g>
	<g>
		<g>
			<path fill="#E85513" d="M52.551,5.751c-0.537,0-1.477,0-2.35,0c0-0.65,0.525-1.176,1.176-1.176
				C52.025,4.575,52.551,5.101,52.551,5.751z"/>
			<rect x="50.201" y="5.751" fill="#B3B3B4" width="2.35" height="0.547"/>
		</g>
		<g>
			<path fill="#E85513" d="M13.333,5.751c-0.537,0-1.477,0-2.351,0c0-0.65,0.526-1.176,1.176-1.176
				C12.807,4.575,13.333,5.101,13.333,5.751z"/>
			<rect x="10.982" y="5.751" fill="#B3B3B4" width="2.351" height="0.547"/>
		</g>
	</g>
	<g>
		<g>
			<path fill="#E85513" d="M29.453,5.751c-0.537,0-1.478,0-2.352,0c0-0.65,0.526-1.176,1.176-1.176
				C28.927,4.575,29.453,5.101,29.453,5.751z"/>
			<rect x="27.102" y="5.751" fill="#B3B3B4" width="2.352" height="0.547"/>
		</g>
		<g>
			<path fill="#E85513" d="M36.432,5.751c-0.537,0-1.477,0-2.35,0c0-0.65,0.525-1.176,1.176-1.176
				C35.906,4.575,36.432,5.101,36.432,5.751z"/>
			<rect x="34.082" y="5.751" fill="#B3B3B4" width="2.35" height="0.547"/>
		</g>
		<g>
			<path fill="#E85513" d="M32.942,5.751c-0.537,0-1.477,0-2.351,0c0-0.65,0.526-1.176,1.177-1.176
				C32.417,4.575,32.942,5.101,32.942,5.751z"/>
			<rect x="30.591" y="5.751" fill="#B3B3B4" width="2.351" height="0.547"/>
		</g>
	</g>
	<g>
		<g>
			<g>
				<path fill="#383838" d="M15.057,57.115c0,0.484-0.396,0.881-0.881,0.881H8.212c-0.484,0-0.881-0.396-0.881-0.881V46.458
					c0-0.484,0.396-0.881,0.881-0.881h5.963c0.484,0,0.881,0.396,0.881,0.881V57.115z"/>
				<path fill="none" stroke="#110E0E" stroke-width="0.8809" stroke-miterlimit="3" d="M15.057,57.115
					c0,0.484-0.396,0.881-0.881,0.881H8.212c-0.484,0-0.881-0.396-0.881-0.881V46.458c0-0.484,0.396-0.881,0.881-0.881h5.963
					c0.484,0,0.881,0.396,0.881,0.881V57.115z"/>
			</g>
			<g>
				
					<line fill="#383838" stroke="#110E0E" stroke-width="0.8809" stroke-miterlimit="3" x1="9.281" y1="57.693" x2="9.281" y2="44.553"/>
				
					<line fill="#383838" stroke="#110E0E" stroke-width="0.8809" stroke-miterlimit="3" x1="13.107" y1="57.996" x2="13.107" y2="44.553"/>
			</g>
		</g>
		<g>
			<g>
				<path fill="#383838" d="M56.285,57.115c0,0.484-0.396,0.881-0.881,0.881h-5.965c-0.484,0-0.881-0.396-0.881-0.881V46.458
					c0-0.484,0.396-0.881,0.881-0.881h5.965c0.484,0,0.881,0.396,0.881,0.881V57.115z"/>
				<path fill="none" stroke="#110E0E" stroke-width="0.8809" stroke-miterlimit="3" d="M56.285,57.115
					c0,0.484-0.396,0.881-0.881,0.881h-5.965c-0.484,0-0.881-0.396-0.881-0.881V46.458c0-0.484,0.396-0.881,0.881-0.881h5.965
					c0.484,0,0.881,0.396,0.881,0.881V57.115z"/>
			</g>
			<g>
				
					<line fill="#383838" stroke="#110E0E" stroke-width="0.8809" stroke-miterlimit="3" x1="50.51" y1="57.693" x2="50.51" y2="44.553"/>
				
					<line fill="#383838" stroke="#110E0E" stroke-width="0.8809" stroke-miterlimit="3" x1="54.336" y1="57.996" x2="54.336" y2="44.553"/>
			</g>
		</g>
	</g>
	<g>
		<path fill="#F4E1D0" d="M57.879,26.232c0,2.728-2.231,4.959-4.959,4.959H10.614c-2.728,0-4.959-2.231-4.959-4.959V11.594
			c0-2.728,2.231-4.959,4.959-4.959H52.92c2.728,0,4.959,2.231,4.959,4.959V26.232z"/>
		<path fill="none" stroke="#161212" stroke-width="0.9683" stroke-miterlimit="3" d="M57.879,26.232
			c0,2.728-2.231,4.959-4.959,4.959H10.614c-2.728,0-4.959-2.231-4.959-4.959V11.594c0-2.728,2.231-4.959,4.959-4.959H52.92
			c2.728,0,4.959,2.231,4.959,4.959V26.232z"/>
	</g>
	<linearGradient id="SVGID_2_" gradientUnits="userSpaceOnUse" x1="18.624" y1="9.3384" x2="44.5843" y2="9.3384">
		<stop  offset="0" style="stop-color:#000000"/>
		<stop  offset="1" style="stop-color:#000000;stop-opacity:0"/>
	</linearGradient>
	<rect x="31.767" y="7.683" fill="url(#SVGID_2_)" width="25.667" height="3.312"/>
	<g>
		<g>
			<path fill="#042C3D" d="M56.252,20.735c0,1.953-1.598,3.551-3.551,3.551H10.833c-1.953,0-3.551-1.598-3.551-3.551v-5.136
				c0-1.953,1.598-3.551,3.551-3.551h41.868c1.953,0,3.551,1.598,3.551,3.551V20.735z"/>
		</g>
		<path opacity="0.69" fill="#C7C8C9" d="M31.767,24.27H11.033c-2.063,0-3.751-1.521-3.751-3.379v-5.542
			c0-1.859,1.688-3.38,3.751-3.38h20.734V24.27z"/>
	</g>
	<g>
		<path fill="#D39037" d="M5.702,47.874c0,0.465,0.38,0.845,0.844,0.845h50.441c0.465,0,0.845-0.38,0.845-0.845V28.083
			c0-0.464-0.38-0.844-0.845-0.844H6.546c-0.464,0-0.844,0.38-0.844,0.844V47.874z"/>
		<path fill="none" stroke="#161212" stroke-width="0.9112" stroke-miterlimit="3" d="M5.702,47.874c0,0.465,0.38,0.845,0.844,0.845
			h50.441c0.465,0,0.845-0.38,0.845-0.845V28.083c0-0.464-0.38-0.844-0.845-0.844H6.546c-0.464,0-0.844,0.38-0.844,0.844V47.874z"/>
	</g>
	<g>
		<rect x="6.208" y="33.395" fill="#966A1E" width="51.119" height="14.871"/>
		<rect x="6.208" y="33.395" fill="#C4872D" width="25.56" height="14.799"/>
	</g>
	<g>
		<linearGradient id="SVGID_3_" gradientUnits="userSpaceOnUse" x1="31.8203" y1="9.0625" x2="31.8203" y2="13.0272">
			<stop  offset="0" style="stop-color:#000000"/>
			<stop  offset="1" style="stop-color:#000000;stop-opacity:0"/>
		</linearGradient>
		<path fill="url(#SVGID_3_)" d="M57.434,14.581c0,1.973-1.919,3.586-4.265,3.586H10.472c-2.345,0-4.264-1.614-4.264-3.586
			c0-1.973,1.919-3.587,4.264-3.587h42.697C55.515,10.994,57.434,12.608,57.434,14.581z"/>
	</g>
	<g>
		<g>
			<path fill="#F4E1D0" d="M6.277,24.741c0,0.496-0.406,0.902-0.902,0.902H2.461c-0.496,0-0.902-0.406-0.902-0.902v-4.576
				c0-0.496,0.406-0.902,0.902-0.902h2.914c0.496,0,0.902,0.406,0.902,0.902V24.741z"/>
			<path fill="none" stroke="#161212" stroke-width="0.9023" stroke-miterlimit="3" d="M6.277,24.741
				c0,0.496-0.406,0.902-0.902,0.902H2.461c-0.496,0-0.902-0.406-0.902-0.902v-4.576c0-0.496,0.406-0.902,0.902-0.902h2.914
				c0.496,0,0.902,0.406,0.902,0.902V24.741z"/>
		</g>
		<g>
			<polygon fill="none" stroke="#161212" stroke-width="0.7113" stroke-miterlimit="3" points="4.453,26.301 4.453,24.412 
				3.5,24.412 3.5,26.301 3.5,27 4.453,27 7.708,27 7.708,26.301 			"/>
			<polygon fill="#C7C8C9" points="4.453,26.301 4.453,24.412 3.5,24.412 3.5,26.301 3.5,27 4.453,27 7.708,27 7.708,26.301 			"/>
		</g>
	</g>
	<g>
		<g>
			<path fill="#F4E1D0" d="M57.26,24.741c0,0.496,0.406,0.902,0.902,0.902h3.377c0.496,0,0.902-0.406,0.902-0.902v-4.576
				c0-0.496-0.406-0.902-0.902-0.902h-3.377c-0.496,0-0.902,0.406-0.902,0.902V24.741z"/>
			<path fill="none" stroke="#161212" stroke-width="0.9455" stroke-miterlimit="3" d="M57.26,24.741
				c0,0.496,0.406,0.902,0.902,0.902h3.377c0.496,0,0.902-0.406,0.902-0.902v-4.576c0-0.496-0.406-0.902-0.902-0.902h-3.377
				c-0.496,0-0.902,0.406-0.902,0.902V24.741z"/>
		</g>
		<g>
			<polygon fill="none" stroke="#161212" stroke-width="0.7454" stroke-miterlimit="3" points="59.264,26.301 59.264,24.412 
				60.309,24.412 60.309,26.301 60.309,27 59.264,27 55.689,27 55.689,26.301 			"/>
			<polygon fill="#C7C8C9" points="59.264,26.301 59.264,24.412 60.309,24.412 60.309,26.301 60.309,27 59.264,27 55.689,27 
				55.689,26.301 			"/>
		</g>
	</g>
	<g>
		<rect x="6.208" y="27.758" fill="#E5A338" width="51.119" height="8.814"/>
		<rect x="6.208" y="27.758" fill="#F4BC69" width="25.56" height="8.814"/>
	</g>
	<g>
		<rect x="7.211" y="47.311" fill="#878787" width="49.111" height="2.656"/>
		<rect x="7.211" y="47.311" fill="#DADBDB" width="24.393" height="2.656"/>
		<g>
			
				<rect x="7.211" y="47.311" fill="none" stroke="#161212" stroke-width="0.581" stroke-miterlimit="3" width="49.111" height="2.815"/>
		</g>
	</g>
	<linearGradient id="SVGID_4_" gradientUnits="userSpaceOnUse" x1="31.7666" y1="24.5522" x2="31.7666" y2="29.2655">
		<stop  offset="0" style="stop-color:#000000"/>
		<stop  offset="1" style="stop-color:#000000;stop-opacity:0"/>
	</linearGradient>
	<rect x="6.208" y="27.238" fill="url(#SVGID_4_)" width="51.119" height="5.632"/>
	
		<rect x="5.63" y="25.881" fill="#F4E1D0" stroke="#161212" stroke-width="0.8809" stroke-miterlimit="3" width="52.274" height="2.238"/>
	<g>
		<polygon points="54.729,45.131 8.807,45.131 8.227,41.016 55.371,41.016 		"/>
		<g>
			
				<line fill="#231815" stroke="#9D9D9E" stroke-width="0.2643" stroke-miterlimit="3" x1="15.875" y1="42.817" x2="47.213" y2="42.817"/>
			
				<line fill="#231815" stroke="#9D9D9E" stroke-width="0.2643" stroke-miterlimit="3" x1="15.875" y1="43.517" x2="47.213" y2="43.517"/>
			
				<line fill="#231815" stroke="#9D9D9E" stroke-width="0.2643" stroke-miterlimit="3" x1="15.875" y1="44.218" x2="47.213" y2="44.218"/>
			
				<line fill="#231815" stroke="#9D9D9E" stroke-width="0.2643" stroke-miterlimit="3" x1="15.875" y1="42.117" x2="47.213" y2="42.117"/>
		</g>
		<g>
			<g>
				<rect x="10.864" y="41.595" fill="#3A2824" width="6.354" height="2.959"/>
				<radialGradient id="SVGID_5_" cx="12.6479" cy="43.0742" r="2.2834" gradientUnits="userSpaceOnUse">
					<stop  offset="0.3818" style="stop-color:#FFFFFF"/>
					<stop  offset="0.428" style="stop-color:#DEDEDE"/>
					<stop  offset="0.5149" style="stop-color:#A5A5A5"/>
					<stop  offset="0.6021" style="stop-color:#747474"/>
					<stop  offset="0.6878" style="stop-color:#4C4C4C"/>
					<stop  offset="0.7714" style="stop-color:#2D2D2D"/>
					<stop  offset="0.8525" style="stop-color:#171717"/>
					<stop  offset="0.93" style="stop-color:#0A0A0A"/>
					<stop  offset="1" style="stop-color:#050505"/>
				</radialGradient>
				<circle fill="url(#SVGID_5_)" cx="12.705" cy="43.073" r="1.48"/>
				<radialGradient id="SVGID_6_" cx="15.6079" cy="43.0742" r="2.283" gradientUnits="userSpaceOnUse">
					<stop  offset="0.3818" style="stop-color:#FFFFFF"/>
					<stop  offset="0.428" style="stop-color:#DEDEDE"/>
					<stop  offset="0.5149" style="stop-color:#A5A5A5"/>
					<stop  offset="0.6021" style="stop-color:#747474"/>
					<stop  offset="0.6878" style="stop-color:#4C4C4C"/>
					<stop  offset="0.7714" style="stop-color:#2D2D2D"/>
					<stop  offset="0.8525" style="stop-color:#171717"/>
					<stop  offset="0.93" style="stop-color:#0A0A0A"/>
					<stop  offset="1" style="stop-color:#050505"/>
				</radialGradient>
				<circle fill="url(#SVGID_6_)" cx="15.665" cy="43.073" r="1.48"/>
				<rect x="9.493" y="41.595" fill="#FC5908" width="1.733" height="2.959"/>
			</g>
			<g>
				<rect x="46.4" y="41.594" fill="#3A2824" width="6.283" height="2.959"/>
				
					<radialGradient id="SVGID_7_" cx="-20.1841" cy="43.0732" r="2.2838" gradientTransform="matrix(-0.989 0 0 1 30.9594 0)" gradientUnits="userSpaceOnUse">
					<stop  offset="0.3818" style="stop-color:#FFFFFF"/>
					<stop  offset="0.428" style="stop-color:#DEDEDE"/>
					<stop  offset="0.5149" style="stop-color:#A5A5A5"/>
					<stop  offset="0.6021" style="stop-color:#747474"/>
					<stop  offset="0.6878" style="stop-color:#4C4C4C"/>
					<stop  offset="0.7714" style="stop-color:#2D2D2D"/>
					<stop  offset="0.8525" style="stop-color:#171717"/>
					<stop  offset="0.93" style="stop-color:#0A0A0A"/>
					<stop  offset="1" style="stop-color:#050505"/>
				</radialGradient>
				<ellipse fill="url(#SVGID_7_)" cx="50.864" cy="43.072" rx="1.464" ry="1.48"/>
				
					<radialGradient id="SVGID_8_" cx="-17.2236" cy="43.0732" r="2.2834" gradientTransform="matrix(-0.989 0 0 1 30.9594 0)" gradientUnits="userSpaceOnUse">
					<stop  offset="0.3818" style="stop-color:#FFFFFF"/>
					<stop  offset="0.428" style="stop-color:#DEDEDE"/>
					<stop  offset="0.5149" style="stop-color:#A5A5A5"/>
					<stop  offset="0.6021" style="stop-color:#747474"/>
					<stop  offset="0.6878" style="stop-color:#4C4C4C"/>
					<stop  offset="0.7714" style="stop-color:#2D2D2D"/>
					<stop  offset="0.8525" style="stop-color:#171717"/>
					<stop  offset="0.93" style="stop-color:#0A0A0A"/>
					<stop  offset="1" style="stop-color:#050505"/>
				</radialGradient>
				<ellipse fill="url(#SVGID_8_)" cx="47.937" cy="43.072" rx="1.464" ry="1.48"/>
				<rect x="52.328" y="41.594" fill="#FC5908" width="1.713" height="2.959"/>
			</g>
		</g>
		<g>
			
				<rect x="25.81" y="41.781" fill="none" stroke="#231815" stroke-width="0.4404" stroke-miterlimit="3" width="11.915" height="2.772"/>
			<rect x="25.81" y="41.781" fill="#FFFFFF" width="11.915" height="2.772"/>
		</g>
	</g>
	<g>
		<g>
			<path fill="none" stroke="#845614" stroke-width="0.4404" stroke-miterlimit="3" d="M48.949,32.553
				c0,0.484-0.396,0.881-0.881,0.881H34.74c-0.484,0-0.881-0.396-0.881-0.881V30.43c0-0.484,0.396-0.881,0.881-0.881h13.328
				c0.484,0,0.881,0.396,0.881,0.881V32.553z"/>
			<path fill="#F2B45A" d="M48.949,32.553c0,0.484-0.396,0.881-0.881,0.881H34.74c-0.484,0-0.881-0.396-0.881-0.881V30.43
				c0-0.484,0.396-0.881,0.881-0.881h13.328c0.484,0,0.881,0.396,0.881,0.881V32.553z"/>
		</g>
		<g>
			<path fill-rule="evenodd" clip-rule="evenodd" fill="#E40012" stroke="#333333" stroke-width="0.0527" stroke-miterlimit="3" d="
				M39.996,30.034c0.42,0,0.84,0,1.26,0c0.281,0.063,0.357,0.531,0.434,0.826c0.094,0.354,0.176,0.675,0.238,0.953
				c0.105-0.251,0.174-0.583,0.268-0.938c0.078-0.305,0.139-0.76,0.434-0.84c0.42,0,0.84,0,1.26,0c0,0.971,0,1.942,0,2.914
				c-0.303,0-0.607,0-0.91,0c-0.01-0.72,0.018-1.476-0.014-2.171c-0.188,0.729-0.363,1.467-0.574,2.171c-0.303,0-0.607,0-0.91,0
				c-0.189-0.731-0.373-1.465-0.574-2.186c-0.01,0.725,0.02,1.484-0.014,2.186c-0.295-0.01-0.625,0.019-0.896-0.015
				C39.996,31.967,39.996,31,39.996,30.034z"/>
			<path fill-rule="evenodd" clip-rule="evenodd" fill="#E40012" stroke="#333333" stroke-width="0.0527" stroke-miterlimit="3" d="
				M45.232,30.034c0.404,0,0.805,0,1.205,0c0,0.289,0,0.579,0,0.869c-0.395,0.044-0.691-0.078-0.979,0.042
				c-0.41,0.169-0.383,0.932-0.016,1.092c0.258,0.113,0.646,0.001,0.994,0.043c0,0.289,0,0.577,0,0.868c-0.396,0-0.793,0-1.189,0
				C43.789,32.875,43.799,30.111,45.232,30.034z"/>
			<path fill-rule="evenodd" clip-rule="evenodd" fill="#E40012" stroke="#333333" stroke-width="0.0527" stroke-miterlimit="3" d="
				M37.434,30.034c0.756,0,1.512,0,2.268,0c0,0.271,0,0.542,0,0.812c-0.406,0-0.813,0-1.217,0c0,0.099,0,0.196,0,0.294
				c0.287,0.034,0.594-0.057,0.811,0.029c0.324,0.126,0.361,0.784-0.041,0.896c-0.242,0.067-0.445-0.021-0.77,0.015
				c0,0.289,0,0.577,0,0.868c-0.342,0-0.682,0-1.023,0c0-0.169-0.027-0.757-0.027-0.868c-0.475,0.002-1.021,0.077-1.064-0.351
				c0-0.08,0-0.159,0-0.238c0.045-0.427,0.59-0.352,1.064-0.351C37.434,30.771,37.434,30.402,37.434,30.034z"/>
		</g>
	</g>
</g>
</svg>
