<?xml version="1.0" encoding="iso-8859-1"?>
<!-- Generator: Adobe Illustrator 15.0.2, SVG Export Plug-In . SVG Version: 6.00 Build 0)  -->
<!DOCTYPE svg PUBLIC "-//W3C//DTD SVG 1.1//EN" "http://www.w3.org/Graphics/SVG/1.1/DTD/svg11.dtd">
<svg version="1.1" id="&#x30EC;&#x30A4;&#x30E4;&#x30FC;_1"
	 xmlns="http://www.w3.org/2000/svg" xmlns:xlink="http://www.w3.org/1999/xlink" x="0px" y="0px" width="64px" height="64px"
	 viewBox="0 0 64 64" style="enable-background:new 0 0 64 64;" xml:space="preserve">
<g>
	<polygon style="fill:#A85535;stroke:#3F0B02;stroke-width:2;stroke-miterlimit:5;" points="15.908,10.706 10.615,7.875 
		10.984,14.768 	"/>
	<polygon style="fill:#A85535;stroke:#3F0B02;stroke-width:2;stroke-miterlimit:5;" points="7.907,8.86 12.215,9.349 10.114,16.368 
			"/>
	<path style="fill:#A85535;stroke:#3F0B02;stroke-width:2;stroke-miterlimit:10;" d="M23.663,35.692L17.877,35.2l-3.693,7.878
		l0.862,2.215c0,0,4.554,1.724,6.031,3.447l1.723-0.493l1.969,0.493l1.97,1.107l-0.739-4.678l-2.092-0.246c0,0-1.354,1.478-2.216,0
		l-2.954-1.107l-0.492-1.97C18.247,41.847,21.939,41.601,23.663,35.692z"/>
	<polygon style="fill:#A85535;stroke:#3F0B02;stroke-width:2;stroke-miterlimit:10;" points="35.725,33.724 41.141,46.401 
		34.125,50.217 31.171,53.54 34.863,54.278 36.34,52.187 41.633,48.986 43.233,44.678 43.233,29.785 	"/>
	<g>
		<line style="fill:none;stroke:#3F0B02;stroke-width:2;stroke-miterlimit:10;" x1="13.077" y1="10.46" x2="18" y2="9.844"/>
		<path style="fill:none;stroke:#3F0B02;stroke-width:2;stroke-miterlimit:10;" d="M14.923,11.444c0,0,2.215-0.615,4.431-0.246"/>
		<path style="fill:none;stroke:#3F0B02;stroke-width:2;stroke-miterlimit:10;" d="M16.523,12.183c0,0,4.062,0.861,4.554,1.231"/>
		<path style="fill:none;stroke:#3F0B02;stroke-width:2;stroke-miterlimit:10;" d="M16.77,13.906c0,0,3.816,0.369,5.662,0.738"/>
		<path style="fill:none;stroke:#3F0B02;stroke-width:2;stroke-miterlimit:10;" d="M20.216,15.875c0,0,0.493,0.123,2.708,0.246"/>
		<path style="fill:none;stroke:#3F0B02;stroke-width:2;stroke-miterlimit:10;" d="M21.078,17.106c0,0,0.615,0.739,4.677,0.616"/>
		<polyline style="fill:none;stroke:#3F0B02;stroke-width:2;stroke-miterlimit:7;" points="21.57,18.337 28.709,18.46 
			24.155,19.322 		"/>
		<path style="fill:none;stroke:#3F0B02;stroke-width:2;stroke-miterlimit:10;" d="M25.386,20.184c0,0,3.323-0.492,4.431-0.615"/>
	</g>
	<path style="fill:none;stroke:#3F0B02;stroke-miterlimit:10;" d="M46.557,30.523c0,0,5.047-0.492,7.139,2.461
		c2.093,2.954,3.692,11.816,7.017,11.201"/>
	<path style="fill:none;stroke:#3F0B02;stroke-width:4;stroke-miterlimit:10;" d="M44.833,27.569c0,0,7.386-0.615,10.094,2.585
		c2.708,3.2,0.369,8.862,3.077,10.585c2.708,1.723,4.431-0.369,4.431-0.369"/>
	<path style="fill:#A85535;stroke:#3F0B02;stroke-width:2;stroke-miterlimit:10;" d="M6.676,22.399c0,0-2.215,2.831-3.446,1.477
		c-1.104-1.215-2.339-1.724-1.231-3.693s6.524-8.862,6.524-8.862s3.077-2.954,7.139-0.615c4.062,2.338,8.001,7.877,8.001,7.877
		l8.124,3.816c0,0,11.201,0,13.293,0.246c2.093,0.246,6.647,3.2,6.154,8.493c-0.492,5.292-6.4,9.97-6.4,9.97l0.492,6.277
		c0,0-5.169,6.77-5.046,8.37l-4.801,0.369l4.309-6.4l0.246-14.647l-10.339,3.569l-10.955-1.354c0,0-3.692,1.846-6.4,1.723
		c0,0-3.939,1.847-1.723,5.785l0.246,1.601l1.846,0.246l-0.369,5.047l-5.662-5.539l0.246-6.894c0,0,3.447-3.2,8.985-5.046
		c0,0-2.584-2.954-1.107-7.509l-3.077-7.508L6.676,22.399z"/>
	<path style="fill:none;stroke:#FFB497;stroke-miterlimit:10;" d="M3.845,19.691l3.693-5.047c0,0,1.846-3.2,4.677-3.569
		c1.125-0.146,3.323,0.985,5.662,3.446c2.595,2.731,5.046,5.785,5.046,5.785l8.247,3.2L45.448,24"/>
	<polyline style="fill:none;stroke:#8E321C;stroke-width:2;stroke-miterlimit:10;" points="19.601,35.446 30.186,36.924 
		40.648,32.984 41.879,34.216 	"/>
	<path style="fill:none;stroke:#8E321C;stroke-width:2;stroke-miterlimit:10;" d="M43.11,40.124c0,0,5.046-3.939,6.277-8.37"/>
</g>
</svg>
