<?xml version="1.0" encoding="utf-8"?>
<!-- Generator: Adobe Illustrator 15.0.2, SVG Export Plug-In . SVG Version: 6.00 Build 0)  -->
<!DOCTYPE svg PUBLIC "-//W3C//DTD SVG 1.1//EN" "http://www.w3.org/Graphics/SVG/1.1/DTD/svg11.dtd">
<svg version="1.1" id="レイヤー_1" xmlns="http://www.w3.org/2000/svg" xmlns:xlink="http://www.w3.org/1999/xlink" x="0px"
	 y="0px" width="64px" height="64px" viewBox="0 0 64 64" enable-background="new 0 0 64 64" xml:space="preserve">
<g>
	<g>
		<defs>
			<filter id="Adobe_OpacityMaskFilter" filterUnits="userSpaceOnUse" x="3.084" y="44.852" width="57.832" height="7.581">
				<feFlood  style="flood-color:white;flood-opacity:1" result="back"/>
				<feBlend  in="SourceGraphic" in2="back" mode="normal"/>
			</filter>
		</defs>
		<mask maskUnits="userSpaceOnUse" x="3.084" y="44.852" width="57.832" height="7.581" id="SVGID_1_">
			<g filter="url(#Adobe_OpacityMaskFilter)">
				<image overflow="visible" width="62" height="13" xlink:href="B268648A.jpg"  transform="matrix(1 0 0 1 1 42)">
				</image>
			</g>
		</mask>
		<g mask="url(#SVGID_1_)">
			<ellipse fill="#888888" cx="32" cy="48.643" rx="28.916" ry="3.79"/>
		</g>
	</g>
	<g>
		<g>
			<path fill="#354A6D" stroke="#0A142B" stroke-width="0.8068" stroke-miterlimit="10" d="M46.443,23.86l7.647,12.887l6.095,13.928
				c0,0,1.315,1.33,1.43-1.217l-3.992-13.619l-5.68-14.198C51.943,21.641,49.085,18.871,46.443,23.86z"/>
			
				<line fill="#354A6D" stroke="#0A142B" stroke-width="0.8068" stroke-miterlimit="10" x1="47.925" y1="21.979" x2="50.563" y2="26.022"/>
			
				<line fill="#354A6D" stroke="#0A142B" stroke-width="0.8068" stroke-miterlimit="10" x1="52.035" y1="29.231" x2="53.677" y2="32.479"/>
			
				<line fill="#354A6D" stroke="#0A142B" stroke-width="0.8068" stroke-miterlimit="10" x1="55.225" y1="35.277" x2="56.214" y2="37.943"/>
			
				<line fill="#354A6D" stroke="#0A142B" stroke-width="0.8068" stroke-miterlimit="10" x1="57.395" y1="40.909" x2="58.36" y2="44.601"/>
			
				<line fill="#354A6D" stroke="#0A142B" stroke-width="0.8068" stroke-miterlimit="10" x1="59.502" y1="47.095" x2="59.781" y2="49.122"/>
			
				<line fill="#354A6D" stroke="#0A142B" stroke-width="0.8068" stroke-miterlimit="10" x1="52.769" y1="23.704" x2="54.86" y2="26.413"/>
			
				<line fill="#354A6D" stroke="#0A142B" stroke-width="0.8068" stroke-miterlimit="10" x1="55.13" y1="29.605" x2="56.609" y2="31.597"/>
			
				<line fill="#354A6D" stroke="#0A142B" stroke-width="0.8068" stroke-miterlimit="10" x1="56.792" y1="33.762" x2="58.652" y2="36.363"/>
			
				<line fill="#354A6D" stroke="#0A142B" stroke-width="0.8068" stroke-miterlimit="10" x1="58.581" y1="39.106" x2="60.233" y2="40.837"/>
			
				<line fill="#354A6D" stroke="#0A142B" stroke-width="0.8068" stroke-miterlimit="10" x1="59.829" y1="43.368" x2="61.847" y2="45.722"/>
			
				<line fill="#354A6D" stroke="#0A142B" stroke-width="0.8068" stroke-miterlimit="10" x1="61.033" y1="46.856" x2="62.56" y2="49.001"/>
			
				<line fill="#354A6D" stroke="#0A142B" stroke-width="0.8068" stroke-miterlimit="10" x1="47.47" y1="25.593" x2="48.649" y2="30.574"/>
			
				<line fill="#354A6D" stroke="#0A142B" stroke-width="0.8068" stroke-miterlimit="10" x1="50.104" y1="30.029" x2="51.318" y2="34.99"/>
			
				<line fill="#354A6D" stroke="#0A142B" stroke-width="0.8068" stroke-miterlimit="10" x1="52.257" y1="33.656" x2="54.071" y2="39.166"/>
			
				<line fill="#354A6D" stroke="#0A142B" stroke-width="0.8068" stroke-miterlimit="10" x1="54.59" y1="38.767" x2="55.49" y2="42.956"/>
			
				<line fill="#354A6D" stroke="#0A142B" stroke-width="0.8068" stroke-miterlimit="10" x1="56.861" y1="42.37" x2="57.176" y2="46.114"/>
			
				<line fill="#354A6D" stroke="#0A142B" stroke-width="0.8068" stroke-miterlimit="10" x1="58.2" y1="46.581" x2="58.476" y2="49.856"/>
			
				<line fill="#354A6D" stroke="#0A142B" stroke-width="0.8068" stroke-miterlimit="10" x1="59.405" y1="48.892" x2="59.594" y2="51.132"/>
		</g>
		<g>
			<path fill="#354A6D" stroke="#0A142B" stroke-width="0.8068" stroke-miterlimit="10" d="M38.385,21.513L46.032,34.4l6.095,13.928
				c0,0,1.315,1.33,1.43-1.217l-3.992-13.619l-5.68-14.198C43.885,19.294,41.026,16.524,38.385,21.513z"/>
			
				<line fill="#354A6D" stroke="#0A142B" stroke-width="0.8068" stroke-miterlimit="10" x1="39.866" y1="19.632" x2="42.504" y2="23.675"/>
			
				<line fill="#354A6D" stroke="#0A142B" stroke-width="0.8068" stroke-miterlimit="10" x1="43.977" y1="26.884" x2="45.618" y2="30.133"/>
			
				<line fill="#354A6D" stroke="#0A142B" stroke-width="0.8068" stroke-miterlimit="10" x1="47.166" y1="32.931" x2="48.155" y2="35.597"/>
			
				<line fill="#354A6D" stroke="#0A142B" stroke-width="0.8068" stroke-miterlimit="10" x1="49.336" y1="38.563" x2="50.302" y2="42.254"/>
			
				<line fill="#354A6D" stroke="#0A142B" stroke-width="0.8068" stroke-miterlimit="10" x1="51.443" y1="44.748" x2="51.723" y2="46.775"/>
			
				<line fill="#354A6D" stroke="#0A142B" stroke-width="0.8068" stroke-miterlimit="10" x1="44.71" y1="21.357" x2="46.802" y2="24.066"/>
			
				<line fill="#354A6D" stroke="#0A142B" stroke-width="0.8068" stroke-miterlimit="10" x1="47.071" y1="27.259" x2="48.551" y2="29.25"/>
			
				<line fill="#354A6D" stroke="#0A142B" stroke-width="0.8068" stroke-miterlimit="10" x1="48.733" y1="31.415" x2="50.594" y2="34.017"/>
			
				<line fill="#354A6D" stroke="#0A142B" stroke-width="0.8068" stroke-miterlimit="10" x1="50.522" y1="36.76" x2="52.175" y2="38.49"/>
			
				<line fill="#354A6D" stroke="#0A142B" stroke-width="0.8068" stroke-miterlimit="10" x1="51.771" y1="41.021" x2="53.788" y2="43.375"/>
			
				<line fill="#354A6D" stroke="#0A142B" stroke-width="0.8068" stroke-miterlimit="10" x1="52.975" y1="44.51" x2="54.501" y2="46.654"/>
			
				<line fill="#354A6D" stroke="#0A142B" stroke-width="0.8068" stroke-miterlimit="10" x1="39.411" y1="23.246" x2="40.591" y2="28.227"/>
			
				<line fill="#354A6D" stroke="#0A142B" stroke-width="0.8068" stroke-miterlimit="10" x1="42.045" y1="27.682" x2="43.26" y2="32.644"/>
			
				<line fill="#354A6D" stroke="#0A142B" stroke-width="0.8068" stroke-miterlimit="10" x1="44.198" y1="31.31" x2="46.013" y2="36.819"/>
			
				<line fill="#354A6D" stroke="#0A142B" stroke-width="0.8068" stroke-miterlimit="10" x1="46.531" y1="36.42" x2="47.432" y2="40.609"/>
			
				<line fill="#354A6D" stroke="#0A142B" stroke-width="0.8068" stroke-miterlimit="10" x1="48.803" y1="40.023" x2="49.117" y2="43.768"/>
			
				<line fill="#354A6D" stroke="#0A142B" stroke-width="0.8068" stroke-miterlimit="10" x1="50.142" y1="44.234" x2="50.417" y2="47.51"/>
			
				<line fill="#354A6D" stroke="#0A142B" stroke-width="0.8068" stroke-miterlimit="10" x1="51.347" y1="46.545" x2="51.535" y2="48.785"/>
		</g>
		<g>
			<path fill="#354A6D" stroke="#0A142B" stroke-width="0.8068" stroke-miterlimit="10" d="M20.449,24.283l-9.041,12.503
				L4.122,50.411c0,0-1.535,1.264-1.608-1.292l4.87-13.425l6.818-13.917C14.202,21.777,17.535,19.153,20.449,24.283z"/>
			
				<line fill="#354A6D" stroke="#0A142B" stroke-width="0.8068" stroke-miterlimit="10" x1="18.795" y1="22.324" x2="15.686" y2="26.234"/>
			
				<line fill="#354A6D" stroke="#0A142B" stroke-width="0.8068" stroke-miterlimit="10" x1="13.928" y1="29.369" x2="11.978" y2="32.536"/>
			
				<line fill="#354A6D" stroke="#0A142B" stroke-width="0.8068" stroke-miterlimit="10" x1="10.143" y1="35.256" x2="8.95" y2="37.873"/>
			
				<line fill="#354A6D" stroke="#0A142B" stroke-width="0.8068" stroke-miterlimit="10" x1="7.534" y1="40.782" x2="6.345" y2="44.426"/>
			
				<line fill="#354A6D" stroke="#0A142B" stroke-width="0.8068" stroke-miterlimit="10" x1="4.984" y1="46.863" x2="4.619" y2="48.878"/>
			
				<line fill="#354A6D" stroke="#0A142B" stroke-width="0.8068" stroke-miterlimit="10" x1="13.211" y1="23.799" x2="10.756" y2="26.402"/>
			
				<line fill="#354A6D" stroke="#0A142B" stroke-width="0.8068" stroke-miterlimit="10" x1="10.377" y1="29.584" x2="8.639" y2="31.5"/>
			
				<line fill="#354A6D" stroke="#0A142B" stroke-width="0.8068" stroke-miterlimit="10" x1="8.382" y1="33.658" x2="6.195" y2="36.165"/>
			
				<line fill="#354A6D" stroke="#0A142B" stroke-width="0.8068" stroke-miterlimit="10" x1="6.216" y1="38.915" x2="4.287" y2="40.563"/>
			
				<line fill="#354A6D" stroke="#0A142B" stroke-width="0.8068" stroke-miterlimit="10" x1="4.69" y1="43.117" x2="2.33" y2="45.367"/>
			
				<line fill="#354A6D" stroke="#0A142B" stroke-width="0.8068" stroke-miterlimit="10" x1="3.237" y1="46.544" x2="1.44" y2="48.612"/>
			
				<line fill="#354A6D" stroke="#0A142B" stroke-width="0.8068" stroke-miterlimit="10" x1="19.234" y1="25.964" x2="17.775" y2="30.889"/>
			
				<line fill="#354A6D" stroke="#0A142B" stroke-width="0.8068" stroke-miterlimit="10" x1="16.122" y1="30.268" x2="14.622" y2="35.171"/>
			
				<line fill="#354A6D" stroke="#0A142B" stroke-width="0.8068" stroke-miterlimit="10" x1="13.576" y1="33.788" x2="11.377" y2="39.208"/>
			
				<line fill="#354A6D" stroke="#0A142B" stroke-width="0.8068" stroke-miterlimit="10" x1="10.793" y1="38.782" x2="9.67" y2="42.929"/>
			
				<line fill="#354A6D" stroke="#0A142B" stroke-width="0.8068" stroke-miterlimit="10" x1="8.112" y1="42.271" x2="7.668" y2="46.003"/>
			
				<line fill="#354A6D" stroke="#0A142B" stroke-width="0.8068" stroke-miterlimit="10" x1="6.485" y1="46.417" x2="6.097" y2="49.681"/>
			
				<line fill="#354A6D" stroke="#0A142B" stroke-width="0.8068" stroke-miterlimit="10" x1="5.055" y1="48.668" x2="4.789" y2="50.9"/>
		</g>
		<g>
			<path fill="#354A6D" stroke="#0A142B" stroke-width="0.8068" stroke-miterlimit="10" d="M29.492,22.168l-9.041,12.503
				l-7.286,13.625c0,0-1.535,1.264-1.608-1.293l4.87-13.424l6.818-13.917C23.245,19.662,26.578,17.038,29.492,22.168z"/>
			
				<line fill="#354A6D" stroke="#0A142B" stroke-width="0.8068" stroke-miterlimit="10" x1="27.838" y1="20.209" x2="24.729" y2="24.119"/>
			
				<line fill="#354A6D" stroke="#0A142B" stroke-width="0.8068" stroke-miterlimit="10" x1="22.971" y1="27.254" x2="21.021" y2="30.42"/>
			
				<line fill="#354A6D" stroke="#0A142B" stroke-width="0.8068" stroke-miterlimit="10" x1="19.186" y1="33.141" x2="17.993" y2="35.758"/>
			
				<line fill="#354A6D" stroke="#0A142B" stroke-width="0.8068" stroke-miterlimit="10" x1="16.577" y1="38.667" x2="15.388" y2="42.31"/>
			
				<line fill="#354A6D" stroke="#0A142B" stroke-width="0.8068" stroke-miterlimit="10" x1="14.027" y1="44.747" x2="13.662" y2="46.763"/>
			
				<line fill="#354A6D" stroke="#0A142B" stroke-width="0.8068" stroke-miterlimit="10" x1="22.254" y1="21.684" x2="19.799" y2="24.287"/>
			
				<line fill="#354A6D" stroke="#0A142B" stroke-width="0.8068" stroke-miterlimit="10" x1="19.42" y1="27.469" x2="17.682" y2="29.385"/>
			
				<line fill="#354A6D" stroke="#0A142B" stroke-width="0.8068" stroke-miterlimit="10" x1="17.425" y1="31.542" x2="15.238" y2="34.05"/>
			
				<line fill="#354A6D" stroke="#0A142B" stroke-width="0.8068" stroke-miterlimit="10" x1="15.259" y1="36.8" x2="13.33" y2="38.448"/>
			
				<line fill="#354A6D" stroke="#0A142B" stroke-width="0.8068" stroke-miterlimit="10" x1="13.733" y1="41.001" x2="11.373" y2="43.251"/>
			
				<line fill="#354A6D" stroke="#0A142B" stroke-width="0.8068" stroke-miterlimit="10" x1="12.28" y1="44.429" x2="10.483" y2="46.497"/>
			
				<line fill="#354A6D" stroke="#0A142B" stroke-width="0.8068" stroke-miterlimit="10" x1="28.277" y1="23.849" x2="26.818" y2="28.773"/>
			
				<line fill="#354A6D" stroke="#0A142B" stroke-width="0.8068" stroke-miterlimit="10" x1="25.165" y1="28.153" x2="23.665" y2="33.056"/>
			
				<line fill="#354A6D" stroke="#0A142B" stroke-width="0.8068" stroke-miterlimit="10" x1="22.619" y1="31.672" x2="20.42" y2="37.093"/>
			
				<line fill="#354A6D" stroke="#0A142B" stroke-width="0.8068" stroke-miterlimit="10" x1="19.836" y1="36.667" x2="18.713" y2="40.813"/>
			
				<line fill="#354A6D" stroke="#0A142B" stroke-width="0.8068" stroke-miterlimit="10" x1="17.155" y1="40.155" x2="16.711" y2="43.888"/>
			
				<line fill="#354A6D" stroke="#0A142B" stroke-width="0.8068" stroke-miterlimit="10" x1="15.528" y1="44.302" x2="15.14" y2="47.565"/>
			
				<line fill="#354A6D" stroke="#0A142B" stroke-width="0.8068" stroke-miterlimit="10" x1="14.098" y1="46.552" x2="13.832" y2="48.784"/>
		</g>
		<path fill="#354A6D" stroke="#0A142B" stroke-width="0.8068" stroke-miterlimit="10" d="M38.383,31.533
			c-0.525,8.395-0.971,15.668-0.227,15.745c0.743,0.073,2.049-6.855,2.918-15.474c1.342-13.314,0.971-15.667,0.228-15.743
			C40.559,15.989,39.506,13.564,38.383,31.533z"/>
		<path fill="#354A6D" stroke="#0A142B" stroke-width="0.8068" stroke-miterlimit="10" d="M27.858,31.475
			c0.372,8.403,0.684,15.685-0.104,15.753c-0.787,0.065-2.019-6.881-2.749-15.512c-1.128-13.334-0.684-15.683,0.104-15.75
			C25.897,15.9,27.063,13.487,27.858,31.475z"/>
		<g>
			<g>
				<g>
					<path fill="#354A6D" d="M19.863,17.263c0,0,3.222-4.582,6.818-4.832c0,0,1.723-2.244,3.896,0.498h2.997
						c0,0,1.797-2.619,4.344-0.124c0,0,3.972-0.78,6.146,4.458c6.332,4.024,2.032,4.094,0,9.976
						c-3.198-1.746-12.063,3.186-12.063,3.186S25.687,25,19.863,27.239C18.3,21.287,13.408,19,19.863,17.263z"/>
					<path fill="none" stroke="#0A142B" stroke-width="0.7733" stroke-miterlimit="10" d="M19.863,17.263
						c0,0,3.222-4.582,6.818-4.832c0,0,1.723-2.244,3.896,0.498h2.997c0,0,1.797-2.619,4.344-0.124c0,0,3.972-0.78,6.146,4.458
						c6.332,4.024,2.032,4.094,0,9.976c-3.198-1.746-12.063,3.186-12.063,3.186S25.687,25,19.863,27.239
						C18.3,21.287,13.408,19,19.863,17.263z"/>
				</g>
				<defs>
					<filter id="Adobe_OpacityMaskFilter_1_" filterUnits="userSpaceOnUse" x="16.228" y="11.18" width="31.545" height="19.714">
						
							<feColorMatrix  type="matrix" values="-1 0 0 0 1  0 -1 0 0 1  0 0 -1 0 1  0 0 0 1 0" color-interpolation-filters="sRGB" result="source"/>
					</filter>
				</defs>
				<mask maskUnits="userSpaceOnUse" x="16.228" y="11.18" width="31.545" height="19.714" id="SVGID_2_">
					<g filter="url(#Adobe_OpacityMaskFilter_1_)">
						<image overflow="visible" width="36" height="24" xlink:href="B268648E.jpg"  transform="matrix(1 0 0 1 14 9)">
						</image>
					</g>
				</mask>
				<g opacity="0.49" mask="url(#SVGID_2_)">
					<path fill="#0B032D" d="M19.863,17.263c0,0,3.222-4.582,6.818-4.832c0,0,1.723-2.244,3.896,0.498h2.997
						c0,0,1.797-2.619,4.344-0.124c0,0,3.972-0.78,6.146,4.458c6.332,4.024,2.032,4.094,0,9.976
						c-3.198-1.746-12.063,3.186-12.063,3.186S25.687,25,19.863,27.239C18.3,21.287,13.408,19,19.863,17.263z"/>
					<path fill="none" stroke="#0B032D" stroke-width="0.7733" stroke-miterlimit="10" d="M19.863,17.263
						c0,0,3.222-4.582,6.818-4.832c0,0,1.723-2.244,3.896,0.498h2.997c0,0,1.797-2.619,4.344-0.124c0,0,3.972-0.78,6.146,4.458
						c6.332,4.024,2.032,4.094,0,9.976c-3.198-1.746-12.063,3.186-12.063,3.186S25.687,25,19.863,27.239
						C18.3,21.287,13.408,19,19.863,17.263z"/>
				</g>
			</g>
			<polygon fill="#990D07" points="19.261,19.468 21.576,17.755 23.843,26.517 20.564,26.992 			"/>
			<polygon fill="#990D07" points="43.091,18.991 45.403,19.632 44.447,26.884 38.98,27.811 			"/>
			<path fill="#990D07" d="M27.094,25.751l1.072-4.542l2.447-0.732c0,0,1.319,1.584,2.129-0.295l4.164,1.624v4.993l-4.925,2.125
				L27.094,25.751z"/>
			<g>
				<g>
					<g>
						<g>
							<circle fill="#679908" cx="27.705" cy="20.33" r="3.437"/>
							<circle fill="none" stroke="#182801" stroke-width="0.6872" stroke-miterlimit="10" cx="27.705" cy="20.33" r="3.437"/>
						</g>
						<defs>
							<filter id="Adobe_OpacityMaskFilter_2_" filterUnits="userSpaceOnUse" x="23.925" y="16.55" width="7.561" height="7.56">
								
									<feColorMatrix  type="matrix" values="-1 0 0 0 1  0 -1 0 0 1  0 0 -1 0 1  0 0 0 1 0" color-interpolation-filters="sRGB" result="source"/>
							</filter>
						</defs>
						<mask maskUnits="userSpaceOnUse" x="23.925" y="16.55" width="7.561" height="7.56" id="SVGID_3_">
							<g filter="url(#Adobe_OpacityMaskFilter_2_)">
								<image overflow="visible" width="13" height="13" xlink:href="B2686489.jpg"  transform="matrix(1 0 0 1 21 14)">
								</image>
							</g>
						</mask>
						<g mask="url(#SVGID_3_)">
							<circle fill="#438906" cx="27.705" cy="20.33" r="3.437"/>
							<circle fill="none" stroke="#438906" stroke-width="0.6872" stroke-miterlimit="10" cx="27.705" cy="20.33" r="3.437"/>
						</g>
					</g>
					<ellipse fill="#277506" cx="28.006" cy="20.716" rx="2.019" ry="1.933"/>
					<circle fill="#FFFFFF" cx="26.674" cy="18.784" r="1.117"/>
				</g>
				<g>
					<g>
						<g>
							<circle fill="#679908" cx="36.295" cy="20.33" r="3.436"/>
							<circle fill="none" stroke="#182801" stroke-width="0.6872" stroke-miterlimit="10" cx="36.295" cy="20.33" r="3.436"/>
						</g>
						<defs>
							<filter id="Adobe_OpacityMaskFilter_3_" filterUnits="userSpaceOnUse" x="32.516" y="16.55" width="7.56" height="7.56">
								
									<feColorMatrix  type="matrix" values="-1 0 0 0 1  0 -1 0 0 1  0 0 -1 0 1  0 0 0 1 0" color-interpolation-filters="sRGB" result="source"/>
							</filter>
						</defs>
						<mask maskUnits="userSpaceOnUse" x="32.516" y="16.55" width="7.56" height="7.56" id="SVGID_4_">
							<g filter="url(#Adobe_OpacityMaskFilter_3_)">
								<image overflow="visible" width="13" height="13" xlink:href="B268648B.jpg"  transform="matrix(1 0 0 1 30 14)">
								</image>
							</g>
						</mask>
						<g mask="url(#SVGID_4_)">
							<circle fill="#438906" cx="36.295" cy="20.33" r="3.436"/>
							<circle fill="none" stroke="#438906" stroke-width="0.6872" stroke-miterlimit="10" cx="36.295" cy="20.33" r="3.436"/>
						</g>
					</g>
					<ellipse fill="#277506" cx="36.595" cy="20.716" rx="2.019" ry="1.933"/>
					<circle fill="#FFFFFF" cx="35.264" cy="18.784" r="1.117"/>
				</g>
			</g>
			<g>
				<g>
					<g>
						<g>
							<circle fill="#679908" cx="43.091" cy="17.755" r="2.537"/>
							<circle fill="none" stroke="#182801" stroke-width="0.5074" stroke-miterlimit="10" cx="43.091" cy="17.755" r="2.537"/>
						</g>
						<defs>
							<filter id="Adobe_OpacityMaskFilter_4_" filterUnits="userSpaceOnUse" x="40.3" y="14.964" width="5.582" height="5.582">
								
									<feColorMatrix  type="matrix" values="-1 0 0 0 1  0 -1 0 0 1  0 0 -1 0 1  0 0 0 1 0" color-interpolation-filters="sRGB" result="source"/>
							</filter>
						</defs>
						<mask maskUnits="userSpaceOnUse" x="40.3" y="14.964" width="5.582" height="5.582" id="SVGID_5_">
							<g filter="url(#Adobe_OpacityMaskFilter_4_)">
								<image overflow="visible" width="10" height="11" xlink:href="B2686488.jpg"  transform="matrix(1 0 0 1 38 12)">
								</image>
							</g>
						</mask>
						<g mask="url(#SVGID_5_)">
							<circle fill="#438906" cx="43.091" cy="17.755" r="2.537"/>
							<circle fill="none" stroke="#438906" stroke-width="0.5074" stroke-miterlimit="10" cx="43.091" cy="17.755" r="2.537"/>
						</g>
					</g>
					<ellipse fill="#277506" cx="43.313" cy="18.041" rx="1.491" ry="1.427"/>
					<circle fill="#FFFFFF" cx="42.33" cy="16.614" r="0.825"/>
				</g>
				<g>
					<g>
						<g>
							<circle fill="#679908" cx="20.564" cy="17.755" r="2.537"/>
							<circle fill="none" stroke="#182801" stroke-width="0.5074" stroke-miterlimit="10" cx="20.564" cy="17.755" r="2.537"/>
						</g>
						<defs>
							<filter id="Adobe_OpacityMaskFilter_5_" filterUnits="userSpaceOnUse" x="17.773" y="14.964" width="5.582" height="5.582">
								
									<feColorMatrix  type="matrix" values="-1 0 0 0 1  0 -1 0 0 1  0 0 -1 0 1  0 0 0 1 0" color-interpolation-filters="sRGB" result="source"/>
							</filter>
						</defs>
						<mask maskUnits="userSpaceOnUse" x="17.773" y="14.964" width="5.582" height="5.582" id="SVGID_6_">
							<g filter="url(#Adobe_OpacityMaskFilter_5_)">
								<image overflow="visible" width="11" height="11" xlink:href="B2686496.jpg"  transform="matrix(1 0 0 1 15 12)">
								</image>
							</g>
						</mask>
						<g mask="url(#SVGID_6_)">
							<circle fill="#438906" cx="20.564" cy="17.755" r="2.537"/>
							<circle fill="none" stroke="#438906" stroke-width="0.5074" stroke-miterlimit="10" cx="20.564" cy="17.755" r="2.537"/>
						</g>
					</g>
					<ellipse fill="#277506" cx="20.787" cy="18.041" rx="1.491" ry="1.427"/>
					<circle fill="#FFFFFF" cx="19.803" cy="16.614" r="0.825"/>
				</g>
			</g>
			<g>
				<polygon opacity="0.57" fill="#17253A" points="38.536,12.377 39.821,16.042 40.84,13.367 				"/>
				<polygon opacity="0.57" fill="#17253A" points="24.96,12.377 24.135,17.04 23.337,13.916 				"/>
				<polygon opacity="0.57" fill="#17253A" points="30.228,12.679 30.893,15.907 30.893,12.679 				"/>
				<polygon opacity="0.57" fill="#17253A" points="34.056,12.679 33.284,16.042 33.284,12.679 				"/>
			</g>
		</g>
		<g>
			<g>
				<path fill="#B58852" stroke="#0A142B" stroke-width="1.2074" stroke-miterlimit="10" d="M37.167,27.973
					c-0.153,1.582-0.839,2.814-1.532,2.752c-0.691-0.062-1.128-1.396-0.976-2.978c0.153-1.582,0.839-2.814,1.531-2.752
					C36.884,25.057,37.32,26.391,37.167,27.973z"/>
				<path fill="#B58852" stroke="#0A142B" stroke-width="1.2074" stroke-miterlimit="10" d="M39.447,27.667
					c-0.153,1.582-0.838,2.814-1.532,2.752c-0.692-0.063-1.129-1.396-0.976-2.978s0.839-2.815,1.531-2.752
					C39.164,24.751,39.602,26.084,39.447,27.667z"/>
				<path fill="#B58852" stroke="#0A142B" stroke-width="1.2074" stroke-miterlimit="10" d="M41.7,27.653
					c-0.153,1.582-0.839,2.814-1.532,2.752c-0.692-0.062-1.129-1.396-0.977-2.978c0.153-1.582,0.839-2.814,1.531-2.752
					C41.417,24.738,41.854,26.071,41.7,27.653z"/>
				<path fill="#B58852" stroke="#0A142B" stroke-width="1.2074" stroke-miterlimit="10" d="M43.878,28.409
					c-0.153,1.582-0.839,2.814-1.533,2.752c-0.691-0.062-1.128-1.396-0.976-2.978c0.154-1.582,0.839-2.814,1.531-2.752
					C43.595,25.493,44.031,26.827,43.878,28.409z"/>
			</g>
			<path fill="#354A6D" stroke="#0A142B" stroke-width="0.8343" stroke-miterlimit="10" d="M42.318,37.783
				c-1.544,4.585-4.904,7.646-7.504,6.833c-2.598-0.814-2.382-4.986-1.908-9.777c1.187-11.942,4.905-7.647,7.504-6.833
				C43.01,28.819,44.705,30.697,42.318,37.783z"/>
			<g>
				
					<ellipse fill="#B58852" stroke="#0A142B" stroke-width="1.2074" stroke-miterlimit="10" cx="23.842" cy="28.1" rx="1.259" ry="2.877"/>
				
					<ellipse fill="#B58852" stroke="#0A142B" stroke-width="1.2074" stroke-miterlimit="10" cx="26.083" cy="27.591" rx="1.259" ry="2.877"/>
				
					<ellipse fill="#B58852" stroke="#0A142B" stroke-width="1.2074" stroke-miterlimit="10" cx="28.325" cy="27.376" rx="1.259" ry="2.877"/>
				
					<ellipse fill="#B58852" stroke="#0A142B" stroke-width="1.2074" stroke-miterlimit="10" cx="30.566" cy="27.933" rx="1.259" ry="2.877"/>
			</g>
			<path fill="#354A6D" stroke="#0A142B" stroke-width="0.836" stroke-miterlimit="10" d="M32.969,35.08
				c0.011,4.831-0.011,9.023-2.667,9.643c-2.657,0.621-5.769-2.691-6.951-7.396c-1.828-7.27,0.01-9.023,2.667-9.644
				C28.674,27.063,32.946,24.74,32.969,35.08z"/>
		</g>
		<g>
			<path fill="#354A6D" stroke="#0A142B" stroke-width="0.8068" stroke-miterlimit="10" d="M12.389,18.228l6.278,15.021l8.182,12.93
				c0,0,0.311,2.35-1.978,1.855l-9.274-9.65L6.91,26.013C6.91,26.013,6.344,20.938,12.389,18.228z"/>
			
				<line fill="#354A6D" stroke="#0A142B" stroke-width="0.8068" stroke-miterlimit="10" x1="9.798" y1="19.988" x2="11.613" y2="25.063"/>
			
				<line fill="#354A6D" stroke="#0A142B" stroke-width="0.8068" stroke-miterlimit="10" x1="13.453" y1="28.147" x2="15.221" y2="31.495"/>
			
				<line fill="#354A6D" stroke="#0A142B" stroke-width="0.8068" stroke-miterlimit="10" x1="16.654" y1="34.588" x2="18.335" y2="36.793"/>
			
				<line fill="#354A6D" stroke="#0A142B" stroke-width="0.8068" stroke-miterlimit="10" x1="20.157" y1="39.368" x2="22.743" y2="41.808"/>
			
				<line fill="#354A6D" stroke="#0A142B" stroke-width="0.8068" stroke-miterlimit="10" x1="24.176" y1="44.196" x2="25.761" y2="45.157"/>
			
				<line fill="#354A6D" stroke="#0A142B" stroke-width="0.8068" stroke-miterlimit="10" x1="8.171" y1="27.811" x2="9.18" y2="31.706"/>
			
				<line fill="#354A6D" stroke="#0A142B" stroke-width="0.8068" stroke-miterlimit="10" x1="11.782" y1="32.955" x2="12.561" y2="35.729"/>
			
				<line fill="#354A6D" stroke="#0A142B" stroke-width="0.8068" stroke-miterlimit="10" x1="14.326" y1="36.572" x2="15.389" y2="40.086"/>
			
				<line fill="#354A6D" stroke="#0A142B" stroke-width="0.8068" stroke-miterlimit="10" x1="17.823" y1="40.698" x2="18.264" y2="43.667"/>
			
				<line fill="#354A6D" stroke="#0A142B" stroke-width="0.8068" stroke-miterlimit="10" x1="20.724" y1="43.718" x2="21.469" y2="47.408"/>
			
				<line fill="#354A6D" stroke="#0A142B" stroke-width="0.8068" stroke-miterlimit="10" x1="22.979" y1="46.463" x2="23.86" y2="49.349"/>
			
				<line fill="#354A6D" stroke="#0A142B" stroke-width="0.8068" stroke-miterlimit="10" x1="13.234" y1="20.246" x2="16.808" y2="23.347"/>
			
				<line fill="#354A6D" stroke="#0A142B" stroke-width="0.8068" stroke-miterlimit="10" x1="15.396" y1="25.417" x2="18.926" y2="28.567"/>
			
				<line fill="#354A6D" stroke="#0A142B" stroke-width="0.8068" stroke-miterlimit="10" x1="17.161" y1="29.647" x2="20.782" y2="33.854"/>
			
				<line fill="#354A6D" stroke="#0A142B" stroke-width="0.8068" stroke-miterlimit="10" x1="20.102" y1="34.538" x2="23.166" y2="37.007"/>
			
				<line fill="#354A6D" stroke="#0A142B" stroke-width="0.8068" stroke-miterlimit="10" x1="21.771" y1="38.94" x2="24.825" y2="40.404"/>
			
				<line fill="#354A6D" stroke="#0A142B" stroke-width="0.8068" stroke-miterlimit="10" x1="24.57" y1="42.083" x2="27.242" y2="43.363"/>
			
				<line fill="#354A6D" stroke="#0A142B" stroke-width="0.8068" stroke-miterlimit="10" x1="25.803" y1="44.522" x2="27.63" y2="45.399"/>
		</g>
		<g>
			<path fill="#354A6D" stroke="#0A142B" stroke-width="0.8305" stroke-miterlimit="10" d="M51.357,18.361l-5.035,15.011
				l-7.074,13.45c0,0-0.126,2.22,2.096,1.332l8.407-10.644l7.617-13.034C57.368,24.477,57.533,19.702,51.357,18.361z"/>
			
				<line fill="#354A6D" stroke="#0A142B" stroke-width="0.8305" stroke-miterlimit="10" x1="54.05" y1="19.487" x2="52.652" y2="24.5"/>
			
				<line fill="#354A6D" stroke="#0A142B" stroke-width="0.8305" stroke-miterlimit="10" x1="51.074" y1="27.687" x2="49.589" y2="31.104"/>
			
				<line fill="#354A6D" stroke="#0A142B" stroke-width="0.8305" stroke-miterlimit="10" x1="48.412" y1="34.221" x2="46.923" y2="36.567"/>
			
				<line fill="#354A6D" stroke="#0A142B" stroke-width="0.8305" stroke-miterlimit="10" x1="45.324" y1="39.284" x2="42.961" y2="42.021"/>
			
				<line fill="#354A6D" stroke="#0A142B" stroke-width="0.8305" stroke-miterlimit="10" x1="41.731" y1="44.493" x2="40.242" y2="45.678"/>
			
				<line fill="#354A6D" stroke="#0A142B" stroke-width="0.8305" stroke-miterlimit="10" x1="56.262" y1="26.371" x2="55.568" y2="30.144"/>
			
				<line fill="#354A6D" stroke="#0A142B" stroke-width="0.8305" stroke-miterlimit="10" x1="53.095" y1="31.789" x2="52.542" y2="34.49"/>
			
				<line fill="#354A6D" stroke="#0A142B" stroke-width="0.8305" stroke-miterlimit="10" x1="50.865" y1="35.603" x2="50.087" y2="39.038"/>
			
				<line fill="#354A6D" stroke="#0A142B" stroke-width="0.8305" stroke-miterlimit="10" x1="47.732" y1="40.064" x2="47.526" y2="42.879"/>
			
				<line fill="#354A6D" stroke="#0A142B" stroke-width="0.8305" stroke-miterlimit="10" x1="45.102" y1="43.395" x2="44.652" y2="46.929"/>
			
				<line fill="#354A6D" stroke="#0A142B" stroke-width="0.8305" stroke-miterlimit="10" x1="43.088" y1="46.349" x2="42.441" y2="49.172"/>
			
				<line fill="#354A6D" stroke="#0A142B" stroke-width="0.8305" stroke-miterlimit="10" x1="50.678" y1="20.379" x2="47.392" y2="23.911"/>
			
				<line fill="#354A6D" stroke="#0A142B" stroke-width="0.8305" stroke-miterlimit="10" x1="48.946" y1="25.546" x2="45.704" y2="29.117"/>
			
				<line fill="#354A6D" stroke="#0A142B" stroke-width="0.8305" stroke-miterlimit="10" x1="44.28" y1="34.331" x2="47.53" y2="29.773"/>
			
				<line fill="#354A6D" stroke="#0A142B" stroke-width="0.8305" stroke-miterlimit="10" x1="45.006" y1="34.831" x2="42.172" y2="37.686"/>
			
				<line fill="#354A6D" stroke="#0A142B" stroke-width="0.8305" stroke-miterlimit="10" x1="40.798" y1="41.125" x2="43.699" y2="39.198"/>
			
				<line fill="#354A6D" stroke="#0A142B" stroke-width="0.8305" stroke-miterlimit="10" x1="38.639" y1="44.308" x2="41.177" y2="42.622"/>
			
				<line fill="#354A6D" stroke="#0A142B" stroke-width="0.8305" stroke-miterlimit="10" x1="40.152" y1="45.103" x2="38.415" y2="46.259"/>
		</g>
		<path fill="#354A6D" stroke="#0A142B" stroke-width="3.0559" stroke-miterlimit="10" d="M22.889,35.033
			c0,0,3.215-5.02,9.596-2.375"/>
		<path fill="#354A6D" stroke="#0A142B" stroke-width="3.0559" stroke-miterlimit="10" d="M23.653,39.702
			c0,0,3.012-4.277,9.16-1.647"/>
		<path fill="#354A6D" stroke="#0A142B" stroke-width="3.0559" stroke-miterlimit="10" d="M33.527,32.722
			c0,0,5.13-3.106,9.764,1.784"/>
		<path fill="#354A6D" stroke="#0A142B" stroke-width="3.0559" stroke-miterlimit="10" d="M32.784,38.229
			c0,0,5.996-2.736,9.593,0.912"/>
	</g>
</g>
</svg>
