<?xml version="1.0" encoding="utf-8"?>
<!-- Generator: Adobe Illustrator 15.0.2, SVG Export Plug-In . SVG Version: 6.00 Build 0)  -->
<!DOCTYPE svg PUBLIC "-//W3C//DTD SVG 1.1//EN" "http://www.w3.org/Graphics/SVG/1.1/DTD/svg11.dtd">
<svg version="1.1" id="レイヤー_1" xmlns="http://www.w3.org/2000/svg" xmlns:xlink="http://www.w3.org/1999/xlink" x="0px"
	 y="0px" width="64px" height="64px" viewBox="0 0 64 64" enable-background="new 0 0 64 64" xml:space="preserve">
<g>
	<path fill-rule="evenodd" clip-rule="evenodd" fill="#E40012" d="M57.12,38.72c-0.563,16.482-25.775,20.963-40.96,13.92
		c-5.208-2.415-9.628-7.271-8.96-14.08c-3.862-0.486-6.737-4.628-5.44-8.8c1.537-4.942,11.834-5.722,15.2-1.92
		c1.382-0.75,2.941-1.325,4.48-1.92c-1.032-2.598-2.005-7.084-3.84-9.44c-0.172-0.22-0.958-0.924-0.96-0.96
		c-0.044-0.607,1.223-1.619,1.6-1.76c3.063,2.697,4.127,7.393,5.92,11.36c2.099,0.019,3.682-0.479,5.76-0.48
		c1.423-7.008-2.63-11.063-5.44-14.88c0.426-0.427,1.377-1.23,1.651-1.809c1.143,0.923,1.919,2.1,2.829,3.25
		c1.574,1.988,3.432,5.405,3.84,8.16c0.299,2.015-0.697,5.055,1.12,5.76c1.273,0.1,2.068-0.278,3.36-0.16
		c1.01-3.852,1.904-8.644,3.84-11.52c1.322-1.965,1.553-1.944,2.751-1.336c0.588,1.511,0.289,1.339-1.312,3.256
		c-1.93,2.312-1.311,6.435-2.399,9.6c2.869,0.194,4.62,3.937,7.68,2.88c0.934-0.322,1.3-1.638,2.24-2.08
		c3.871-1.82,7.7,0.445,10.56,1.92C63.706,31.084,61.835,38.395,57.12,38.72z M10.56,36.8c-2.652,6.406,1.859,10.312,5.76,12.48
		c2.236,1.243,4.84,2.637,7.52,3.2c5.843,1.226,13.852,0.523,18.561-0.961c5.782-1.822,14.277-7.632,10.239-15.199
		c-3.361-6.301-13.47-9.155-23.2-8.48C21.711,28.376,12.866,31.231,10.56,36.8z M9.12,28.48c-0.625,0.097-2.744,0.239-3.36,0.48
		c-2.226,0.872-1.772,6.688,1.44,6.08c0.907-0.171,2.507-2.115,3.36-2.88c1.238-1.111,2.112-2.135,3.04-3.2
		C12.133,28.164,10.517,28.263,9.12,28.48z M49.92,29.44c2.276,1.937,4.721,3.707,6.4,6.24c0.273-0.366,1.221-0.059,1.76-0.16
		c1.294-0.848,1.207-4.315,0.479-5.76C56.519,28.586,51.913,27.426,49.92,29.44z"/>
	<path fill-rule="evenodd" clip-rule="evenodd" fill="#FFFFFF" d="M29.44,27.84c9.73-0.674,19.838,2.179,23.2,8.48
		c4.038,7.567-4.457,13.377-10.239,15.199c-4.709,1.484-12.718,2.187-18.561,0.961c-2.68-0.563-5.284-1.957-7.52-3.2
		c-3.901-2.169-8.412-6.074-5.76-12.48C12.866,31.231,21.711,28.376,29.44,27.84z M18.72,36.16c0.055,1.979,2.524,3.445,4.16,3.2
		c1.526-0.229,3.028-2.416,2.72-4c-0.288-1.483-2.255-3.001-4.32-2.561C20.188,33.759,18.671,34.407,18.72,36.16z M36,36.32
		c0.131,1.55,2.194,3.321,3.68,3.199c1.479-0.121,3.292-2.206,3.2-3.68c-0.098-1.58-1.86-3.511-4.32-3.04
		C37.395,33.771,35.834,34.356,36,36.32z M28.16,42.88c0.233,3.213,5.997,3.191,5.6-0.479c-0.15-1.396-1.968-2.448-3.2-2.24
		C29.178,40.393,28.047,41.32,28.16,42.88z M43.68,44.48c-3.004,3.329-8.66,5.386-14.4,5.119c-4.279-0.198-7.688-1.881-10.4-4.159
		c3.147,7.216,17.763,6.006,23.2,1.76c0.863-0.675,2.024-1.552,2.08-2.561C43.955,44.631,43.938,44.435,43.68,44.48z"/>
	<path fill-rule="evenodd" clip-rule="evenodd" fill="#FFFFFF" d="M13.6,28.96c-0.928,1.065-1.802,2.089-3.04,3.2
		c-0.853,0.765-2.453,2.709-3.36,2.88c-3.213,0.607-3.667-5.208-1.44-6.08c0.616-0.241,2.735-0.383,3.36-0.48
		C10.517,28.263,12.133,28.164,13.6,28.96z"/>
	<path fill-rule="evenodd" clip-rule="evenodd" fill="#FFFFFF" d="M58.56,29.76c0.728,1.445,0.814,4.912-0.479,5.76
		c-0.539,0.102-1.486-0.206-1.76,0.16c-1.68-2.533-4.124-4.303-6.4-6.24C51.913,27.426,56.519,28.586,58.56,29.76z"/>
	<path fill-rule="evenodd" clip-rule="evenodd" fill="#E40012" d="M21.28,32.8c2.065-0.441,4.032,1.077,4.32,2.561
		c0.308,1.584-1.194,3.771-2.72,4c-1.636,0.245-4.104-1.221-4.16-3.2C18.671,34.407,20.065,33.278,21.28,32.8z"/>
	<path fill-rule="evenodd" clip-rule="evenodd" fill="#E40012" d="M38.56,32.8c2.46-0.471,4.223,1.46,4.32,3.04
		c0.092,1.474-1.721,3.559-3.2,3.68c-1.485,0.122-3.549-1.649-3.68-3.199C35.834,34.356,37.115,33.36,38.56,32.8z"/>
	<path fill-rule="evenodd" clip-rule="evenodd" fill="#E40012" d="M30.56,40.16c1.232-0.208,3.049,0.845,3.2,2.24
		c0.397,3.671-5.367,3.692-5.6,0.479C28.047,41.32,29.178,40.393,30.56,40.16z"/>
	<path fill-rule="evenodd" clip-rule="evenodd" fill="#E40012" d="M44.16,44.64c-0.056,1.009-1.217,1.886-2.08,2.561
		c-5.438,4.246-20.053,5.456-23.2-1.76c2.712,2.278,6.121,3.961,10.4,4.159c5.74,0.267,11.396-1.79,14.4-5.119
		C43.938,44.435,43.955,44.631,44.16,44.64z"/>
</g>
</svg>
