<?xml version="1.0" encoding="utf-8"?>
<!-- Generator: Adobe Illustrator 15.0.2, SVG Export Plug-In . SVG Version: 6.00 Build 0)  -->
<!DOCTYPE svg PUBLIC "-//W3C//DTD SVG 1.1//EN" "http://www.w3.org/Graphics/SVG/1.1/DTD/svg11.dtd">
<svg version="1.1" id="レイヤー_1" xmlns="http://www.w3.org/2000/svg" xmlns:xlink="http://www.w3.org/1999/xlink" x="0px"
	 y="0px" width="64px" height="64px" viewBox="0 0 64 64" enable-background="new 0 0 64 64" xml:space="preserve">
<g>
	
		<rect x="2.386" y="3.476" fill="#F9ACBE" stroke="#231815" stroke-width="0.9011" stroke-miterlimit="10" width="30.049" height="57.049"/>
	<polygon fill="#E5809D" stroke="#231815" stroke-width="0.9011" stroke-miterlimit="1" points="40.091,14.541 32.435,3.476 
		32.435,60.524 40.091,60.524 	"/>
	<g>
		<polygon fill="#A82658" points="20.305,9.384 20.305,16.014 13.961,16.014 13.961,9.384 10.444,9.384 10.444,26.16 13.961,26.16 
			13.961,19.53 20.305,19.53 20.305,26.16 23.821,26.16 23.821,9.384 		"/>
		<polygon fill="#A82658" points="13.188,8.62 13.961,9.384 11.494,13.359 		"/>
		<polygon fill="#A82658" points="23.049,8.62 23.821,9.384 22.117,12.908 		"/>
		<polygon fill="#A82658" points="9.672,25.395 10.444,26.16 11.494,24.055 		"/>
		<polygon fill="#A82658" points="19.532,25.395 20.305,26.16 21.707,24.055 		"/>
		<polygon fill="#F4256A" points="19.532,8.62 19.532,15.25 13.188,15.25 13.188,8.62 9.672,8.62 9.672,25.395 13.188,25.395 
			13.188,18.766 19.532,18.766 19.532,25.395 23.049,25.395 23.049,8.62 		"/>
	</g>
	
		<rect x="32.435" y="32.082" fill="#F9ACBE" stroke="#231815" stroke-width="0.9011" stroke-miterlimit="10" width="23.255" height="28.442"/>
	<polygon fill="#E5809D" stroke="#231815" stroke-width="0.9011" stroke-miterlimit="1" points="61.614,37.599 55.689,32.082 
		55.689,60.524 61.614,60.524 	"/>
	<rect x="2.771" y="42.032" fill="#E54294" width="29.229" height="4.918"/>
	<linearGradient id="SVGID_1_" gradientUnits="userSpaceOnUse" x1="17.0142" y1="48.9668" x2="17.0142" y2="60.1057">
		<stop  offset="0" style="stop-color:#BFEBFF"/>
		<stop  offset="0.3619" style="stop-color:#7FA7BF"/>
		<stop  offset="0.5697" style="stop-color:#5F859E"/>
		<stop  offset="0.6646" style="stop-color:#6088A2"/>
		<stop  offset="0.7501" style="stop-color:#6491AD"/>
		<stop  offset="0.832" style="stop-color:#6A9FBF"/>
		<stop  offset="0.9116" style="stop-color:#72B4D9"/>
		<stop  offset="0.989" style="stop-color:#7DCFFA"/>
		<stop  offset="1" style="stop-color:#7FD3FF"/>
	</linearGradient>
	
		<rect x="8.881" y="48.836" fill="url(#SVGID_1_)" stroke="#231815" stroke-width="0.8402" stroke-miterlimit="10" width="16.267" height="11.688"/>
	
		<line fill="#F9ACBE" stroke="#231815" stroke-width="0.852" stroke-miterlimit="10" x1="17.015" y1="48.836" x2="17.015" y2="60.524"/>
	<g>
		<g>
			<rect x="5.147" y="30.573" fill="#561A33" width="2.787" height="4.099"/>
			<rect x="22" y="30.573" fill="#561A33" width="2.787" height="4.099"/>
			<rect x="26.213" y="30.574" fill="#561A33" width="2.787" height="4.099"/>
			<rect x="17.787" y="30.573" fill="#561A33" width="2.787" height="4.099"/>
			<rect x="13.573" y="30.573" fill="#561A33" width="2.787" height="4.099"/>
			<rect x="9.36" y="30.573" fill="#561A33" width="2.787" height="4.099"/>
		</g>
		<g>
			<rect x="5.147" y="36.557" fill="#561A33" width="2.787" height="4.099"/>
			<rect x="22" y="36.557" fill="#561A33" width="2.787" height="4.099"/>
			<rect x="26.213" y="36.557" fill="#561A33" width="2.787" height="4.1"/>
			<rect x="17.787" y="36.557" fill="#561A33" width="2.787" height="4.099"/>
			<rect x="13.573" y="36.557" fill="#561A33" width="2.787" height="4.099"/>
			<rect x="9.36" y="36.557" fill="#561A33" width="2.787" height="4.099"/>
		</g>
		<rect x="26.213" y="24.958" fill="#561A33" width="2.787" height="4.1"/>
		<rect x="26.212" y="19.384" fill="#561A33" width="2.788" height="4.1"/>
		<rect x="26.213" y="13.811" fill="#561A33" width="2.787" height="4.1"/>
		<rect x="26.212" y="8.237" fill="#561A33" width="2.788" height="4.1"/>
		<rect x="5.147" y="24.958" fill="#561A33" width="2.788" height="4.1"/>
		<rect x="5.147" y="19.384" fill="#561A33" width="2.787" height="4.1"/>
		<rect x="5.147" y="13.811" fill="#561A33" width="2.788" height="4.1"/>
		<rect x="5.147" y="8.237" fill="#561A33" width="2.787" height="4.1"/>
	</g>
	<g>
		<rect x="34.869" y="34.655" fill="#561A33" width="2.787" height="4.098"/>
		<rect x="49.788" y="34.655" fill="#561A33" width="2.787" height="4.098"/>
		<rect x="44.814" y="34.655" fill="#561A33" width="2.787" height="4.098"/>
		<rect x="39.842" y="34.655" fill="#561A33" width="2.787" height="4.098"/>
		<rect x="34.869" y="46.787" fill="#561A33" width="2.787" height="4.098"/>
		<rect x="49.788" y="46.787" fill="#561A33" width="2.787" height="4.098"/>
		<rect x="44.814" y="46.787" fill="#561A33" width="2.787" height="4.098"/>
		<rect x="39.842" y="46.787" fill="#561A33" width="2.787" height="4.098"/>
		<rect x="34.869" y="40.638" fill="#561A33" width="2.787" height="4.1"/>
		<rect x="49.788" y="40.638" fill="#561A33" width="2.787" height="4.1"/>
		<rect x="44.815" y="40.638" fill="#561A33" width="2.787" height="4.1"/>
		<rect x="39.842" y="40.638" fill="#561A33" width="2.787" height="4.1"/>
	</g>
	<path fill="none" stroke="#C30D23" stroke-width="1.9529" stroke-miterlimit="10" d="M51.81,13.379c0,0,0.04-8.463,5.71-8.463
		c3.452,0,5.48,7.276,1.192,12.878c-5.237,6.836-6.902,7.834-6.902,7.834s-1.547-0.712-6.664-7.834
		c-4.39-6.109-2.499-12.934,1.548-12.878C51.85,4.985,51.81,13.379,51.81,13.379z"/>
	<path fill="none" stroke="#FFFFFF" stroke-width="0.3906" stroke-miterlimit="10" d="M51.81,13.379c0,0,0.04-8.463,5.71-8.463
		c3.452,0,5.48,7.278,1.192,12.878c-5.237,6.836-6.902,7.834-6.902,7.834s-2.024-1.282-6.664-7.834
		c-4.354-6.146-2.499-12.934,1.548-12.878C51.85,4.985,51.81,13.379,51.81,13.379z"/>
	<g>
		<g>
			<linearGradient id="SVGID_2_" gradientUnits="userSpaceOnUse" x1="51.8906" y1="3.8359" x2="51.8906" y2="26.2752">
				<stop  offset="0" style="stop-color:#FFFFFF"/>
				<stop  offset="0.5091" style="stop-color:#BF0014"/>
				<stop  offset="0.6151" style="stop-color:#C20318"/>
				<stop  offset="0.7229" style="stop-color:#CB0C24"/>
				<stop  offset="0.8316" style="stop-color:#DB1B39"/>
				<stop  offset="0.9402" style="stop-color:#F13155"/>
				<stop  offset="1" style="stop-color:#FF3F68"/>
			</linearGradient>
			<path fill="url(#SVGID_2_)" d="M51.81,13.379c0,0,0.04-8.463,5.71-8.463c3.452,0,5.48,7.278,1.192,12.878
				c-5.237,6.836-6.902,7.834-6.902,7.834s-2.024-1.282-6.664-7.834c-4.354-6.146-2.499-12.934,1.548-12.878
				C51.85,4.985,51.81,13.379,51.81,13.379z"/>
		</g>
		<defs>
			<filter id="Adobe_OpacityMaskFilter" filterUnits="userSpaceOnUse" x="42.644" y="4.916" width="18.495" height="20.713">
				
					<feColorMatrix  type="matrix" values="-1 0 0 0 1  0 -1 0 0 1  0 0 -1 0 1  0 0 0 1 0" color-interpolation-filters="sRGB" result="source"/>
			</filter>
		</defs>
		<mask maskUnits="userSpaceOnUse" x="42.644" y="4.916" width="18.495" height="20.713" id="SVGID_3_">
			<g filter="url(#Adobe_OpacityMaskFilter)">
				<image overflow="visible" width="24" height="26" xlink:href="2F664C62.jpg"  transform="matrix(1 0 0 1 40 2)">
				</image>
			</g>
		</mask>
		<g opacity="0.13" mask="url(#SVGID_3_)">
			<path fill="#EF032A" d="M51.81,13.379c0,0,0.04-8.463,5.71-8.463c3.452,0,5.48,7.278,1.192,12.878
				c-5.237,6.836-6.902,7.834-6.902,7.834s-2.024-1.282-6.664-7.834c-4.354-6.146-2.499-12.934,1.548-12.878
				C51.85,4.985,51.81,13.379,51.81,13.379z"/>
		</g>
	</g>
	<g opacity="0.18">
		<defs>
			<path id="SVGID_4_" opacity="0.18" d="M51.81,13.379c0,0,0.04-8.463,5.71-8.463c3.452,0,5.48,7.278,1.192,12.878
				c-5.237,6.836-6.902,7.834-6.902,7.834s-2.024-1.282-6.664-7.834c-4.354-6.146-2.499-12.934,1.548-12.878
				C51.85,4.985,51.81,13.379,51.81,13.379z"/>
		</defs>
		<clipPath id="SVGID_5_">
			<use xlink:href="#SVGID_4_"  overflow="visible"/>
		</clipPath>
		<path clip-path="url(#SVGID_5_)" fill="#FFFFFF" d="M62.399,2.625c0,12.891-4.768,13.603-10.65,13.603
			c-5.881,0-10.65-0.712-10.65-13.603c0-7.513,4.77-13.603,10.65-13.603C57.632-10.978,62.399-4.888,62.399,2.625z"/>
	</g>
</g>
</svg>
