<?xml version="1.0" encoding="utf-8"?>
<!-- Generator: Adobe Illustrator 15.0.2, SVG Export Plug-In . SVG Version: 6.00 Build 0)  -->
<!DOCTYPE svg PUBLIC "-//W3C//DTD SVG 1.1//EN" "http://www.w3.org/Graphics/SVG/1.1/DTD/svg11.dtd">
<svg version="1.1" id="レイヤー_1" xmlns="http://www.w3.org/2000/svg" xmlns:xlink="http://www.w3.org/1999/xlink" x="0px"
	 y="0px" width="64px" height="64px" viewBox="0 0 64 64" enable-background="new 0 0 64 64" xml:space="preserve">
<g>
	<linearGradient id="SVGID_1_" gradientUnits="userSpaceOnUse" x1="31.9995" y1="3.981" x2="31.9995" y2="60.0013">
		<stop  offset="0" style="stop-color:#1FBAFF"/>
		<stop  offset="1" style="stop-color:#0070FF"/>
	</linearGradient>
	<path fill="url(#SVGID_1_)" stroke="#0F50F4" stroke-width="2" stroke-miterlimit="10" d="M61.179,49.587
		c0,6.401-5.19,11.592-11.592,11.592H14.414c-6.402,0-11.592-5.19-11.592-11.592V14.414c0-6.402,5.19-11.592,11.592-11.592h35.173
		c6.401,0,11.592,5.19,11.592,11.592V49.587z"/>
	<g>
		<path opacity="0.28" fill="#FFFFFF" d="M3.668,14.001c-0.031,0.341-0.052,0.686-0.052,1.035v12.166
			c0.005,0.005,0.011,0.011,0.016,0.017L3.668,14.001z"/>
		<path opacity="0.28" fill="#FFFFFF" d="M59.151,23.856c1.148-5.605,1.181-9.097,1.181-9.847C59.812,8.263,54.988,3.76,49.108,3.76
			H14.893c-5.87,0-10.687,4.484-11.222,10.213c0.019,0.336,0.48,3.897,1.249,9.956C11.913,30.744,21.462,34.951,32,34.951
			C42.573,34.951,52.15,30.714,59.151,23.856z"/>
		<path opacity="0.28" fill="#FFFFFF" d="M60.332,14.012l0.037,13.203c0.005-0.005,0.01-0.01,0.015-0.014V15.036
			C60.384,14.69,60.361,14.35,60.332,14.012z"/>
	</g>
	<path fill="#FFFFFF" d="M3.67,27.736c0,0-0.006-10.549-0.027-13.388C3.617,10.87,6.776,3.828,13.666,3.828
		c6.413,0,16.231,0,16.231,0S17.624,4.615,13.665,5.406c-3.958,0.792-7.239,5.838-8.156,8.948C4.177,18.876,3.67,27.736,3.67,27.736
		z"/>
	<path fill="#0D62B7" d="M60.016,37.634c0,0,0.006,9.886,0.026,12.548c0.025,3.259-3.034,9.86-9.706,9.86c-6.21,0-15.717,0-15.717,0
		s11.886-0.737,15.719-1.48c3.832-0.742,7.008-5.471,7.896-8.386C59.525,45.937,60.016,37.634,60.016,37.634z"/>
	<g>
		<circle fill="#FFFFFF" cx="32" cy="11.882" r="4.049"/>
		<path fill="#FFFFFF" d="M22.834,34.429c0,0,0-11.919,0-13.69c0-1.771,2.109-3.922,3.923-3.922c1.813,0,9.412,0,10.339,0
			c0.929,0,4.07,1.349,4.07,4.07s0,12.553,0,13.542c0,0.988-0.696,2.062-1.854,1.854c-0.77-0.14-1.74-0.759-1.74-1.742
			c0-0.98,0-11.272,0-11.272h-0.645c0,0,0,30.367,0,31.294c0,0.929-1.247,1.603-2.175,1.603s-2.381-0.929-2.381-1.772
			c0-0.843,0-18.303,0-18.303h-0.978c0,0,0,17.545,0,18.39c0,0.842-1.72,1.686-2.564,1.686c-0.843,0-1.982-0.759-1.982-1.981
			c0-1.225,0-31.084,0-31.084h-0.555c0,0,0,10.339,0,11.329c0,0.988-0.759,1.854-1.918,1.854
			C23.515,36.283,22.834,35.379,22.834,34.429z"/>
	</g>
</g>
</svg>
