<?xml version="1.0" encoding="utf-8"?>
<!-- Generator: Adobe Illustrator 15.0.2, SVG Export Plug-In . SVG Version: 6.00 Build 0)  -->
<!DOCTYPE svg PUBLIC "-//W3C//DTD SVG 1.1//EN" "http://www.w3.org/Graphics/SVG/1.1/DTD/svg11.dtd">
<svg version="1.1" id="レイヤー_1" xmlns="http://www.w3.org/2000/svg" xmlns:xlink="http://www.w3.org/1999/xlink" x="0px"
	 y="0px" width="64px" height="64px" viewBox="0 0 64 64" enable-background="new 0 0 64 64" xml:space="preserve">
<line fill="none" stroke="#231815" stroke-width="3" stroke-miterlimit="10" x1="14.482" y1="56.075" x2="18.931" y2="50.469"/>
<path fill="none" stroke="#231815" stroke-width="1.5" stroke-miterlimit="10" d="M18.411,51.152l-5.23,6.554
	c0,0,13.474,8.381,28.089-3.228s24.579,0.522,11.934,4.293"/>
<g>
	
		<radialGradient id="SVGID_1_" cx="27.6743" cy="4.5264" r="17.389" gradientTransform="matrix(0.7951 0.6065 -0.6065 0.7951 25.9683 -12.8487)" gradientUnits="userSpaceOnUse">
		<stop  offset="0" style="stop-color:#D8D8D8"/>
		<stop  offset="0.1939" style="stop-color:#7B7B7B"/>
		<stop  offset="0.5758" style="stop-color:#000000"/>
		<stop  offset="1" style="stop-color:#5C5C5C"/>
	</radialGradient>
	<circle fill="url(#SVGID_1_)" stroke="#231815" stroke-width="0.8721" stroke-miterlimit="10" cx="46.698" cy="14.067" r="9.058"/>
	<g>
		<path fill="none" stroke="#3E3A39" stroke-width="0.5" stroke-miterlimit="10" d="M49.139,5.344c0,0,6.756,4.296,5.84,12.386"/>
		<path fill="none" stroke="#3E3A39" stroke-width="0.5" stroke-miterlimit="10" d="M46.641,5.017c0,0,8.058,6.782,6.315,15.592"/>
		<path fill="none" stroke="#3E3A39" stroke-width="0.5" stroke-miterlimit="10" d="M44.506,5.282c0,0,5.439,6.457,6.09,16.958"/>
		<path fill="none" stroke="#3E3A39" stroke-width="0.5" stroke-miterlimit="10" d="M42.929,5.829c0,0,2.174,12.354,5.95,17.027"/>
		<path fill="none" stroke="#3E3A39" stroke-width="0.5" stroke-miterlimit="10" d="M40.977,7.049c0,0-2.5,5.521,2.651,15.542"/>
		<path fill="none" stroke="#3E3A39" stroke-width="0.5" stroke-miterlimit="10" d="M39.272,9.284c0,0-1.361,6.896,0.721,9.979"/>
		<path fill="none" stroke="#3E3A39" stroke-width="0.5" stroke-miterlimit="10" d="M37.835,12.507c0,0,4.878-8.542,14.356-5.642"/>
		<path fill="none" stroke="#3E3A39" stroke-width="0.5" stroke-miterlimit="10" d="M37.64,14.283c0,0,6.753-7.982,16.467-5.43"/>
		<path fill="none" stroke="#3E3A39" stroke-width="0.5" stroke-miterlimit="10" d="M55.318,11.294c0,0-9.62-1.134-17.541,6.278"/>
		<path fill="none" stroke="#3E3A39" stroke-width="0.5" stroke-miterlimit="10" d="M56.047,14.568c0,0-6.284-0.4-17.005,4.526"/>
		<path fill="none" stroke="#3E3A39" stroke-width="0.5" stroke-miterlimit="10" d="M39.927,20.295c0,0,9.494-0.41,15.518-3.175"/>
		<path fill="none" stroke="#3E3A39" stroke-width="0.5" stroke-miterlimit="10" d="M41.348,21.894c0,0,6.724,0.727,12.32-2.03"/>
	</g>
	
		<linearGradient id="SVGID_2_" gradientUnits="userSpaceOnUse" x1="28.2476" y1="36.3301" x2="37.6149" y2="36.3301" gradientTransform="matrix(0.7951 0.6065 -0.6065 0.7951 25.9683 -12.8487)">
		<stop  offset="0.0848" style="stop-color:#7B7B7B"/>
		<stop  offset="0.6" style="stop-color:#000000"/>
		<stop  offset="0.6707" style="stop-color:#080808"/>
		<stop  offset="0.7812" style="stop-color:#1E1E1E"/>
		<stop  offset="0.9169" style="stop-color:#424242"/>
		<stop  offset="1" style="stop-color:#5C5C5C"/>
	</linearGradient>
	<path fill="url(#SVGID_2_)" stroke="#231815" stroke-width="0.8721" stroke-miterlimit="10" d="M48.014,22.545l-9.841-7.506
		l-23.25,35.064c0,0,0.925,2.133,2.167,3.08c1.242,0.945,3.569,1.295,3.569,1.295L48.014,22.545z"/>
	<circle fill="none" stroke="#231815" stroke-width="0.8721" stroke-miterlimit="10" cx="46.698" cy="14.067" r="9.058"/>
	<g>
		<path fill="none" stroke="#231815" stroke-width="1.5" stroke-miterlimit="10" d="M53.701,21.11c0,0-6.142-4.117-8.098-5.609
			c-1.956-1.492-7.55-6.326-7.55-6.326l1.094-1.434c0,0,5.594,4.834,7.55,6.326c1.956,1.492,8.098,5.609,8.098,5.609L53.701,21.11z"
			/>
		
			<linearGradient id="SVGID_3_" gradientUnits="userSpaceOnUse" x1="22.9658" y1="9.5059" x2="42.6455" y2="9.5059" gradientTransform="matrix(0.7951 0.6065 -0.6065 0.7951 25.9683 -12.8487)">
			<stop  offset="0" style="stop-color:#FFFFFF"/>
			<stop  offset="0.503" style="stop-color:#5B5B5B"/>
			<stop  offset="1" style="stop-color:#FFFFFF"/>
		</linearGradient>
		<path fill="url(#SVGID_3_)" d="M53.701,21.11c0,0-6.142-4.117-8.098-5.609c-1.956-1.492-7.55-6.326-7.55-6.326l1.094-1.434
			c0,0,5.594,4.834,7.55,6.326c1.956,1.492,8.098,5.609,8.098,5.609L53.701,21.11z"/>
	</g>
	<g>
		<path fill="none" stroke="#231815" stroke-width="1.5" stroke-miterlimit="10" d="M46.999,24.153c0,0-4.009-2.605-5.272-3.568
			c-1.264-0.964-4.835-4.142-4.835-4.142l0.875-1.147c0,0,3.572,3.178,4.835,4.141c1.264,0.964,5.272,3.569,5.272,3.569
			L46.999,24.153z"/>
		
			<linearGradient id="SVGID_4_" gradientUnits="userSpaceOnUse" x1="26.4492" y1="16.124" x2="39.1621" y2="16.124" gradientTransform="matrix(0.7951 0.6065 -0.6065 0.7951 25.9683 -12.8487)">
			<stop  offset="0" style="stop-color:#FFFFFF"/>
			<stop  offset="0.503" style="stop-color:#5B5B5B"/>
			<stop  offset="1" style="stop-color:#FFFFFF"/>
		</linearGradient>
		<path fill="url(#SVGID_4_)" d="M46.999,24.153c0,0-4.009-2.605-5.272-3.568c-1.264-0.964-4.835-4.142-4.835-4.142l0.875-1.147
			c0,0,3.572,3.178,4.835,4.141c1.264,0.964,5.272,3.569,5.272,3.569L46.999,24.153z"/>
	</g>
	<path fill="none" stroke="#231815" stroke-width="0.9042" stroke-miterlimit="10" d="M32.469,23.597c0,0,2.539,2.99,8.801,6.713"/>
	<path fill="none" stroke="#231815" stroke-width="0.9042" stroke-miterlimit="10" d="M35.724,19.059c0,0,2.287,3.187,9.062,6.912"
		/>
	
		<ellipse transform="matrix(0.7951 0.6065 -0.6065 0.7951 26.7685 -15.1445)" fill="#F6F6F6" stroke="#3E3A39" stroke-width="0.6409" stroke-miterlimit="10" cx="35.794" cy="32.039" rx="1.37" ry="2.418"/>
	
		<ellipse transform="matrix(0.7951 0.6065 -0.6065 0.7951 34.7929 -0.6856)" fill="#F6F6F6" stroke="#3E3A39" stroke-width="0.6947" stroke-miterlimit="10" cx="18.411" cy="51.151" rx="1.799" ry="0.859"/>
</g>
</svg>
