<?xml version="1.0" encoding="utf-8"?>
<!-- Generator: Adobe Illustrator 15.0.2, SVG Export Plug-In . SVG Version: 6.00 Build 0)  -->
<!DOCTYPE svg PUBLIC "-//W3C//DTD SVG 1.1//EN" "http://www.w3.org/Graphics/SVG/1.1/DTD/svg11.dtd">
<svg version="1.1" id="レイヤー_1" xmlns="http://www.w3.org/2000/svg" xmlns:xlink="http://www.w3.org/1999/xlink" x="0px"
	 y="0px" width="64px" height="64px" viewBox="0 0 64 64" enable-background="new 0 0 64 64" xml:space="preserve">
<g>
	<circle fill="#750404" cx="32" cy="32" r="30.123"/>
	<circle fill="#FFFFFF" cx="32" cy="32" r="25.328"/>
	<g>
		<path d="M24.79,44.527c0,1.33-0.304,2.368-0.913,3.115c-0.589,0.748-1.287,1.122-2.092,1.122c-0.825,0-1.523-0.346-2.092-1.038
			c-0.629-0.748-0.943-1.772-0.943-3.074V25.459c-0.629,0.583-1.297,0.873-2.004,0.873c-0.923,0-1.65-0.388-2.181-1.163
			c-0.55-0.775-0.825-1.73-0.825-2.866c0-1.883,0.608-3.254,1.827-4.113l3.801-2.784c0.786-0.554,1.601-0.831,2.446-0.831
			c1.984,0,2.976,1.468,2.976,4.403V44.527z"/>
		<path d="M50.359,37.84c0,3.517-1.032,6.23-3.095,8.142c-1.966,1.854-4.646,2.783-8.045,2.783c-3.418,0-6.17-0.983-8.251-2.949
			c-2.043-1.912-3.065-4.459-3.065-7.644c0-1.439,0.285-2.909,0.855-4.403c0.589-1.468,1.307-2.617,2.151-3.448
			c-0.629-0.554-1.14-1.33-1.533-2.326c-0.451-1.108-0.677-2.257-0.677-3.448c0-3.046,1.041-5.498,3.124-7.353
			c1.924-1.745,4.333-2.617,7.219-2.617c3.104,0,5.62,0.845,7.545,2.534c1.983,1.801,2.977,4.238,2.977,7.312
			c0,1.108-0.227,2.216-0.679,3.324c-0.432,1.108-0.981,1.98-1.648,2.617c0.863,0.721,1.581,1.689,2.149,2.908
			C50.035,34.683,50.359,36.206,50.359,37.84z M44.466,37.674c0-1.385-0.61-2.424-1.828-3.116c-0.942-0.554-2.112-0.831-3.506-0.831
			c-1.396,0-2.574,0.305-3.537,0.914c-1.178,0.748-1.768,1.814-1.768,3.199c0,1.246,0.59,2.243,1.768,2.991
			c1.04,0.692,2.25,1.037,3.625,1.037c1.356,0,2.555-0.373,3.596-1.121C43.915,39.944,44.466,38.919,44.466,37.674z M43.581,24.546
			c0-0.941-0.413-1.662-1.238-2.16c-0.806-0.499-1.837-0.748-3.094-0.748c-1.298,0-2.357,0.222-3.183,0.665
			c-0.943,0.498-1.414,1.246-1.414,2.243c0,0.969,0.471,1.717,1.414,2.243c0.825,0.499,1.837,0.748,3.035,0.748
			c1.296,0,2.349-0.25,3.153-0.748C43.14,26.263,43.581,25.515,43.581,24.546z"/>
	</g>
	<path fill="#DADBDB" d="M24.979,55.826c0,0,14.708,7.234,27.273-6.368s3.029-27.784,3.029-27.784S60.795,56.616,24.979,55.826z"/>
	<path fill="#E20000" d="M32,3.434C16.223,3.434,3.434,16.223,3.434,32S16.223,60.566,32,60.566S60.566,47.777,60.566,32
		S47.777,3.434,32,3.434z M31.999,7.806c5.688,0,10.913,1.967,15.044,5.252L13.058,47.043C9.773,42.913,7.806,37.688,7.806,32
		C7.806,18.639,18.638,7.806,31.999,7.806z M31.999,56.193c-5.76,0-11.046-2.016-15.201-5.376l34.018-34.019
		c3.361,4.155,5.377,9.442,5.377,15.202C56.193,45.363,45.363,56.193,31.999,56.193z"/>
	<g>
		<path fill="none" d="M42.255,26.789c0.885-0.526,1.326-1.274,1.326-2.243c0-0.163-0.029-0.31-0.054-0.458l-3.383,3.383
			C40.972,27.369,41.68,27.146,42.255,26.789z"/>
		<path fill="none" d="M42.638,34.558c-0.942-0.554-2.112-0.831-3.506-0.831c-1.396,0-2.574,0.305-3.537,0.914
			c-1.178,0.748-1.768,1.814-1.768,3.199c0,1.246,0.59,2.243,1.768,2.991c1.04,0.692,2.25,1.037,3.625,1.037
			c1.356,0,2.555-0.373,3.596-1.121c1.1-0.803,1.65-1.828,1.65-3.073C44.466,36.289,43.855,35.25,42.638,34.558z"/>
		<path fill="none" d="M36.066,22.303c-0.943,0.498-1.414,1.246-1.414,2.243c0,0.278,0.05,0.533,0.128,0.775l3.646-3.646
			C37.498,21.751,36.709,21.958,36.066,22.303z"/>
		<path fill="none" d="M27.988,39.627l-3.199,3.199v1.701c0,1.33-0.304,2.368-0.913,3.115c-0.589,0.748-1.287,1.122-2.092,1.122
			c-0.78,0-1.442-0.32-1.994-0.939l-2.992,2.992c4.154,3.36,9.441,5.376,15.201,5.376c13.364,0,24.194-10.83,24.194-24.193
			c0-5.76-2.016-11.047-5.377-15.202l-2.488,2.489c0.819,1.45,1.235,3.158,1.235,5.134c0,1.108-0.227,2.216-0.679,3.324
			c-0.432,1.108-0.981,1.98-1.648,2.617c0.863,0.721,1.581,1.689,2.149,2.908c0.649,1.413,0.974,2.937,0.974,4.57
			c0,3.517-1.032,6.23-3.095,8.142c-1.966,1.854-4.646,2.783-8.045,2.783c-3.418,0-6.17-0.983-8.251-2.949"/>
		<path fill="none" d="M16.745,26.332c-0.923,0-1.65-0.388-2.181-1.163c-0.55-0.775-0.825-1.73-0.825-2.866
			c0-1.883,0.608-3.254,1.827-4.113l3.801-2.784c0.786-0.554,1.601-0.831,2.446-0.831c1.984,0,2.976,1.468,2.976,4.403v16.333
			l5.575-5.575c-0.385-0.478-0.717-1.054-0.989-1.743c-0.451-1.108-0.677-2.257-0.677-3.448c0-3.046,1.041-5.498,3.124-7.353
			c1.924-1.745,4.333-2.617,7.219-2.617c2.049,0,3.836,0.376,5.372,1.112l2.629-2.629c-4.131-3.285-9.355-5.252-15.044-5.252
			C18.638,7.806,7.806,18.639,7.806,32c0,5.688,1.967,10.913,5.252,15.042l5.691-5.69V25.459
			C18.12,26.042,17.452,26.332,16.745,26.332z"/>
		<path fill="#4F0B0B" d="M24.79,35.312l-6.041,6.041v3.3c0,1.302,0.314,2.326,0.943,3.074c0.031,0.038,0.066,0.063,0.098,0.099
			l5-4.999V35.312z"/>
		<path fill="#4F0B0B" d="M39.102,27.537c-1.198,0-2.21-0.25-3.035-0.748c-0.672-0.375-1.094-0.868-1.286-1.468l-4.416,4.416
			c0.171,0.213,0.35,0.413,0.544,0.583c-0.845,0.831-1.563,1.98-2.151,3.448c-0.57,1.494-0.855,2.964-0.855,4.403
			c0,0.503,0.035,0.984,0.085,1.455l12.156-12.156C39.814,27.511,39.471,27.537,39.102,27.537z"/>
		<path fill="#4F0B0B" d="M39.249,21.638c1.257,0,2.288,0.249,3.094,0.748c0.683,0.413,1.067,0.986,1.185,1.702l4.801-4.8
			c-0.456-0.806-1.032-1.534-1.741-2.178c-0.654-0.574-1.383-1.042-2.173-1.421l-5.987,5.987
			C38.69,21.653,38.962,21.638,39.249,21.638z"/>
	</g>
</g>
</svg>
