<?xml version="1.0" encoding="utf-8"?>
<!-- Generator: Adobe Illustrator 15.0.2, SVG Export Plug-In . SVG Version: 6.00 Build 0)  -->
<!DOCTYPE svg PUBLIC "-//W3C//DTD SVG 1.1//EN" "http://www.w3.org/Graphics/SVG/1.1/DTD/svg11.dtd">
<svg version="1.1" id="レイヤー_1" xmlns="http://www.w3.org/2000/svg" xmlns:xlink="http://www.w3.org/1999/xlink" x="0px"
	 y="0px" width="64px" height="64px" viewBox="0 0 64 64" enable-background="new 0 0 64 64" xml:space="preserve">
<g>
	<path fill="#FF506E" stroke="#9E0404" stroke-width="1.9425" stroke-miterlimit="10" d="M56.104,21.59
		c0,10.24-4.799,16.499-18.346,16.499c-12.694,0-18.825-6.372-18.825-16.612c0-10.241,8.018-18.543,18.801-18.543
		C48.519,2.934,56.104,11.349,56.104,21.59z"/>
	<g>
		<g>
			<path fill="#FF506E" d="M43.446,47.544c-0.797,1.91-0.955,4.697,0.956,5.971c1.91,1.193,3.821,0.477,5.811,0.557
				c1.991,0.08,2.628,1.752,2.309,3.584c-0.317,2.148-2.786,3.342-4.776,3.898c-3.503,0.879-8.359,0.24-10.109-3.184
				c-1.354-2.625-0.878-6.051-0.878-8.836c0-1.832-0.238-3.82,0.081-5.574"/>
		</g>
		<g>
			<path fill="#FF506E" d="M31.107,41.89c-4.936,0.559-3.423,7.326-4.458,10.51c-1.194,3.9-7.165,1.273-10.111,2.707
				c-2.388,1.115-3.264,3.9-0.796,5.574c1.991,1.432,4.458,1.592,6.847,1.592c3.582,0,8.836,0,11.463-2.787
				c1.592-1.592,1.673-3.424,2.07-5.494"/>
		</g>
		<g>
			<path fill="#FF506E" d="M14.15,57.655c-2.388,0-4.219-0.877-6.21-2.07c-3.503-2.07-6.13-5.652-4.537-9.951
				c0.716-1.91,2.467-3.584,4.617-3.744c3.025-0.238,3.343,2.389,4.299,4.539c0.875,2.07,2.388,3.584,4.697,3.584
				c2.388,0,5.016-0.639,6.13-2.947c0.857-1.803,2.049-7.086,3.569-11.271c3.675,0.33,10.521,0.33,24.612-0.432
				c1.194,1.99,1.035,4.617,2.468,6.449c1.354,1.672,3.105,0.955,4.937,1.273c2.309,0.398,2.946,3.027,1.752,4.857
				c-0.877,1.352-2.07,2.07-3.583,2.07h-1.513c2.149,0.078,3.344,0.797,3.822,3.025c0.557,2.627-1.115,4.219-3.662,4.377
				c-1.115,0.08-2.628,0.398-3.663-0.078"/>
		</g>
	</g>
	<g>
		<g>
			<g>
				<path fill="#E53956" d="M9.683,56.187c3.945,2.055,6.181-0.898,10.119-1.01c3.187-0.09,5.311-1.031,6.971-3.803
					c0.645-1.076-1.039-2.047-1.683-0.971c-1.738,2.9-3.912,2.615-6.92,2.938c-2.855,0.309-4.445,2.762-7.516,1.164
					C9.546,53.929,8.57,55.608,9.683,56.187L9.683,56.187z"/>
			</g>
		</g>
		<g>
			<g>
				<path fill="#E53956" d="M17.237,61.458c3.97,1.119,9.107,1.881,12.944-0.127c4.608-2.41,5.032-6.887,6.798-11.301
					c0.467-1.166-1.414-1.662-1.873-0.514c-1.404,3.508-1.73,7.334-5.048,9.689c-3.32,2.355-8.716,1.391-12.309,0.379
					C16.541,59.245,16.033,61.12,17.237,61.458L17.237,61.458z"/>
			</g>
		</g>
		<g>
			<g>
				<path fill="#E53956" d="M50.172,56.474c0.711,1.145-2.078,2.484-2.841,2.875c-1.844,0.947-4.125,1.113-6.027,0.252
					c-1.131-0.514-2.113,1.164-0.971,1.682c2.774,1.258,5.692,0.918,8.352-0.447c1.854-0.951,4.612-3.012,3.163-5.346
					C51.188,54.429,49.509,55.407,50.172,56.474L50.172,56.474z"/>
			</g>
		</g>
		<g>
			<g>
				<path fill="#E53956" d="M57.044,53.19c-0.184,2.078-2.246,2.488-3.977,2.729c-1.239,0.174-0.722,2.049,0.502,1.877
					c2.752-0.385,5.148-1.551,5.418-4.592C59.098,51.952,57.154,51.952,57.044,53.19L57.044,53.19z"/>
			</g>
		</g>
		<g>
			<g>
				<path fill="#E53956" d="M58.926,45.069c-0.643,1.264-1.695,3.295-3.292,3.492c-0.524,0.066-0.975,0.385-0.979,0.965
					c-0.003,0.477,0.438,1.045,0.965,0.979c2.446-0.303,3.945-2.412,4.987-4.465C61.173,44.927,59.494,43.95,58.926,45.069
					L58.926,45.069z"/>
			</g>
		</g>
		<g>
			<g>
				<path fill="#E53956" d="M49.721,35.401c-3.438,1.842-6.3,2.414-10.235,2.557c-3.314,0.117-8.925,0.307-11.793-1.605
					c-1.044-0.695-2.009,0.99-0.972,1.682c3.072,2.049,9.208,1.902,12.75,1.865c4.354-0.045,7.476-0.811,11.234-2.822
					C51.809,36.487,50.824,34.812,49.721,35.401L49.721,35.401z"/>
			</g>
		</g>
	</g>
	<g>
		<g>
			<g>
				<path fill="#9E0404" d="M46.624,34.981c2.69-0.057,3.885,0.229,4.693,3.064c0.437,1.535,0.762,2.906,1.64,4.258
					c0.657,1.01,1.758,1.395,2.871,1.59c0.644,0.111,1.338,0.066,1.989,0.074c4.573,0.059,1.405,4.846-0.91,5.072
					c-1.235,0.123-1.258,2.066-0.014,1.943c4.199-0.412,7.441-5.865,3.031-8.527c-1.874-1.131-4.182,0.572-5.761-1.857
					c-0.938-1.447-0.835-3.42-1.609-4.955c-1.308-2.593-3.229-2.662-5.917-2.604C45.386,33.064,45.372,35.009,46.624,34.981
					L46.624,34.981z"/>
			</g>
		</g>
		<g>
			<g>
				<path fill="#9E0404" d="M46.146,43.261c3.767,0.148,2.646,5.686,6.081,7.072c1.675,0.678,4.551,0.211,5.647,1.795
					c0.865,1.248,0.381,2.842-0.508,3.879c-1.148,1.338-3.101,1.1-4.589,0.711c-1.214-0.316-1.725,1.559-0.514,1.873
					c2.576,0.672,5.062,0.439,6.875-1.674c1.548-1.805,1.343-4.428,0.056-6.287c-2.26-3.26-6.817-0.027-8.168-4.957
					c-0.748-2.73-1.904-4.238-4.867-4.355C44.905,41.269,44.898,43.212,46.146,43.261L46.146,43.261z"/>
			</g>
		</g>
		<g>
			<g>
				<path fill="#9E0404" d="M42.51,47.286c-0.751,2.123-0.869,4.254,0.433,6.176c0.465,0.688,1.563,1.375,2.351,1.498
					c1.15,0.18,1.396,0.215,2.559,0.197c2.694-0.043,5.955,1.691,2.018,4.467c-3.304,2.328-9.227,1.771-11.396-1.746
					c-1.239-2.01-0.834-5.008-0.762-7.266c0.07-2.227-0.172-4.426,0.099-6.645c0.151-1.244-1.794-1.242-1.943-0.014
					c-0.313,2.57-0.052,5.174-0.134,7.76c-0.081,2.533,0.083,4.801,1.064,7.148c1.423,3.402,6.281,4.361,9.502,3.924
					c3.787-0.516,7.662-2.508,7.179-6.85c-0.117-1.053-1-2.426-2.125-2.637c-1.199-0.225-2.262-0.178-3.488-0.086
					c-4.595,0.342-4.367-2.908-3.482-5.414C44.802,46.616,42.924,46.114,42.51,47.286L42.51,47.286z"/>
			</g>
		</g>
		<g>
			<g>
				<path fill="#9E0404" d="M30.855,40.952c-4.529,0.93-4.493,5.557-4.805,9.336c-0.571,6.91-11.224,0.072-12.542,6.697
					c-1.217,6.119,7.114,6.297,11.168,6.242c6.67-0.092,11.167-2.119,12.383-8.979c0.218-1.227-1.655-1.746-1.873-0.514
					c-0.6,3.379-1.647,5.725-5.086,6.881c-2.352,0.789-5.05,0.68-7.504,0.684c-1.113,0.016-2.221-0.059-3.323-0.225
					c-2.715-0.379-3.631-5.193-0.508-5.463c1.707-0.148,3.414,0.109,5.125-0.078c7.12-0.779,1.336-11.445,7.468-12.705
					C32.587,42.575,32.077,40.7,30.855,40.952L30.855,40.952z"/>
			</g>
		</g>
		<g>
			<g>
				<path fill="#9E0404" d="M24.83,36.118c-0.142,3.682-1.04,7.102-2.525,10.463c-1.543,3.492-6.84,2.949-8.656,0.34
					c-0.727-1.043-1.097-2.564-1.632-3.748c-1.205-2.66-4.954-2.895-7.035-1.129c-8.043,6.828,1.423,16.014,9.162,16.582
					c1.252,0.092,1.255-1.852,0.014-1.943c-3.261-0.238-6.049-1.791-8.359-4.039c-1.194-1.248-1.828-2.754-1.899-4.516
					c-0.364-4.631,5.54-6.463,7.102-2.389c0.841,2.193,2.283,4.828,4.919,5.123c8.552,0.955,10.584-7.781,10.853-14.73
					C26.821,34.876,24.878,34.87,24.83,36.118L24.83,36.118z"/>
			</g>
		</g>
	</g>
	<g>
		<g>
			<path fill="#E53956" d="M29.343,34.196c2.03,2.367,5.168,3.297,8.198,3.35c2.51,0.041,2.528-3.844,0.027-3.887
				c-2.097-0.035-4.09-0.589-5.493-2.225C30.444,29.534,27.719,32.306,29.343,34.196L29.343,34.196z"/>
		</g>
	</g>
	<g>
		<g>
			<path fill="#E53956" d="M27.19,36.169c4.772,2.293,10.243,2.164,15.405,1.469c6.488-0.873,10.258-3.984,13.201-9.662
				c1.149-2.219-2.21-4.171-3.365-1.942c-2.175,4.196-4.467,6.425-9.211,7.634c-4.121,1.049-10.272,0.971-14.088-0.863
				C26.887,31.726,24.928,35.083,27.19,36.169L27.19,36.169z"/>
		</g>
	</g>
	<path fill="none" stroke="#9E0404" stroke-width="1.9425" stroke-miterlimit="10" d="M56.104,21.59
		c0,10.24-4.799,16.499-18.346,16.499c-12.694,0-18.825-6.372-18.825-16.612c0-10.241,8.018-18.543,18.801-18.543
		C48.519,2.934,56.104,11.349,56.104,21.59z"/>
	<g>
		<g>
			<path fill="#E53956" d="M21.419,34.886c3.188-0.072,6.358,0.01,9.513-0.545c2.469-0.434,1.442-4.183-1.006-3.753
				c-2.794,0.491-5.654,0.348-8.479,0.411C18.943,31.055,18.916,34.94,21.419,34.886L21.419,34.886z"/>
		</g>
	</g>
	<path fill="none" stroke="#9E0404" stroke-width="1.9425" stroke-miterlimit="10" d="M30.231,26.967c0,0-10.668-0.216-12.658-1.921
		l-0.945,10.585c0,0,10.594-1.844,14.845-0.896"/>
	
		<ellipse fill="#FF506E" stroke="#9E0404" stroke-width="1.9425" stroke-miterlimit="10" cx="13.781" cy="29.933" rx="7.853" ry="8.566"/>
	<ellipse fill="#820404" cx="13.542" cy="29.739" rx="3.086" ry="3.507"/>
	<path fill="#BA173A" d="M31.473,34.327"/>
	<g>
		<ellipse fill="#3D030C" cx="44.091" cy="16.732" rx="2.561" ry="3.328"/>
		<ellipse fill="#3D030C" cx="25.07" cy="16.732" rx="2.561" ry="3.328"/>
		<ellipse fill="#FFFFFF" cx="24.344" cy="14.916" rx="0.857" ry="1.112"/>
		<ellipse fill="#FFFFFF" cx="43.233" cy="14.916" rx="0.857" ry="1.112"/>
	</g>
	<path fill="#E53956" d="M13.542,37.433c0,0,6.906-5.65,7.215-8.171C20.757,29.261,21.135,37.353,13.542,37.433z"/>
	<ellipse fill="#FFFFFF" cx="41.944" cy="7.818" rx="2.786" ry="1.91"/>
	<path fill="#FF92AC" d="M37.974,35.29c-0.435-1.252,4.534-1.133,8.79-4.328c4.254-3.193,3.919-5.755,5.398-5.097
		c1.479,0.656-0.962,5.781-4.762,7.803C43.659,35.663,38.221,36.005,37.974,35.29z"/>
	<ellipse fill="#FFFFFF" cx="46.631" cy="10.882" rx="1.035" ry="0.835"/>
	<path fill="#FF92AC" d="M8.099,45.554c1.921-0.707,2.845,4.777,5.443,5.334c2.598,0.559,5.065,0.877,6.817,0.479
		s-1.136,1.828-6.579,0.715S6.587,46.11,8.099,45.554z"/>
	<path fill="#FF92AC" d="M28.958,50.153c0.461-2.258,1.289-5.875,2.516-5.236c1.227,0.637,0.239,4.777-1.257,6.449
		c-1.497,1.672-0.94,4.162-2.453,4.787s-5.254,1.58-5.254,0.705s4.14-0.08,4.697-1.832C27.763,53.276,28.376,52.993,28.958,50.153z"
		/>
	<path fill="#FF92AC" d="M38.71,50.153c-0.026,2.965,0.597,6.854,2.108,7.059c1.514,0.203,0.558-0.672,0-2.186
		c-0.558-1.51-0.318-7.164-1.114-7.164S38.718,49.183,38.71,50.153z"/>
	<path fill="#FF92AC" d="M46.465,48.353c1.036-0.256,4.459,3.186,2.149,3.586C46.307,52.333,45.192,48.673,46.465,48.353z"/>
	<ellipse fill="#FFFFFF" cx="31.803" cy="45.425" rx="1.374" ry="1.465"/>
	<circle fill="#FFFFFF" cx="33.216" cy="48.938" r="0.597"/>
	<ellipse fill="#FFFFFF" cx="7.03" cy="47.188" rx="2.035" ry="2.346"/>
	<ellipse fill="#FFFFFF" cx="10.823" cy="24.855" rx="1.575" ry="1.411"/>
	<g>
		<g>
			<path fill="#FF92AC" d="M15.247,25.792c1.639,0.252,2.186,1.867,2.15,3.355c-0.03,1.255,1.913,1.263,1.943,0.014
				c0.055-2.289-1.093-4.859-3.581-5.243C14.534,23.729,14.011,25.602,15.247,25.792L15.247,25.792z"/>
		</g>
	</g>
</g>
</svg>
