<?xml version="1.0" encoding="utf-8"?>
<!-- Generator: Adobe Illustrator 15.0.2, SVG Export Plug-In . SVG Version: 6.00 Build 0)  -->
<!DOCTYPE svg PUBLIC "-//W3C//DTD SVG 1.1//EN" "http://www.w3.org/Graphics/SVG/1.1/DTD/svg11.dtd">
<svg version="1.1" id="レイヤー_1" xmlns="http://www.w3.org/2000/svg" xmlns:xlink="http://www.w3.org/1999/xlink" x="0px"
	 y="0px" width="64px" height="64px" viewBox="0 0 64 64" enable-background="new 0 0 64 64" xml:space="preserve">
<g>
	<g>
		<path fill="#420707" d="M27.601,14.383c-8.543-2.175-8.247-4.359-12.227-1.99c-4.99,2.971-2.853,6.311-4.164,12.207
			c-1.098,4.941,6.432,5.471,8.185,1.22c0.888-2.153,2.723-3.085,4.304-3.116C32.583,22.53,30.379,15.09,27.601,14.383z"/>
		<path fill="#420707" d="M8.313,16.185c1.86,1.707,2.086,4.489,1.532,5.092c-0.729,0.796-3.345,0.619-5.206-1.088
			c-1.86-1.708-2.545-3.987-1.532-5.093C4.122,13.991,6.453,14.478,8.313,16.185z"/>
		<path fill="#420707" d="M11.474,7.413c1.276,2.179,0.673,4.904-0.034,5.317c-0.931,0.546-3.378-0.391-4.655-2.571
			C5.507,7.981,5.523,5.6,6.818,4.842C8.112,4.083,10.197,5.234,11.474,7.413z"/>
		<path fill="#420707" d="M18.235,4.342c1.049,2.297,0.175,4.949-0.57,5.289c-0.98,0.449-3.323-0.729-4.373-3.027
			c-1.051-2.295-0.796-4.663,0.568-5.287C15.225,0.693,17.183,2.047,18.235,4.342z"/>
		<path fill="#420707" d="M26.46,6.733c0.534,2.468-0.889,4.87-1.689,5.042c-1.054,0.229-3.088-1.423-3.624-3.892
			c-0.534-2.469,0.223-4.726,1.688-5.043C24.303,2.522,25.925,4.265,26.46,6.733z"/>
	</g>
	<g>
		<path fill="#420707" d="M56.622,29.757c-7.428-2.616-7.001-4.59-10.716-2.72c-4.658,2.347-3.013,5.557-4.62,10.852
			c-1.35,4.436,5.304,5.477,7.182,1.717c0.95-1.9,2.651-2.619,4.061-2.529C60.438,37.572,59.038,30.608,56.622,29.757z"/>
		<path fill="#420707" d="M39.346,29.982c1.523,1.697,1.515,4.256,0.977,4.768c-0.708,0.674-3.021,0.318-4.545-1.377
			c-1.524-1.696-1.962-3.833-0.979-4.769C35.784,27.668,37.819,28.285,39.346,29.982z"/>
		<path fill="#420707" d="M42.814,22.199c0.971,2.085,0.228,4.532-0.432,4.857c-0.868,0.431-2.972-0.607-3.942-2.694
			c-0.97-2.085-0.776-4.26,0.431-4.858C40.079,18.908,41.845,20.113,42.814,22.199z"/>
		<path fill="#420707" d="M49.057,19.891c0.758,2.176-0.219,4.535-0.906,4.79c-0.905,0.341-2.896-0.911-3.657-3.088
			c-0.761-2.176-0.356-4.321,0.902-4.791C46.656,16.333,48.295,17.715,49.057,19.891z"/>
		<path fill="#420707" d="M56.185,22.682c0.289,2.295-1.157,4.387-1.882,4.486c-0.954,0.131-2.637-1.53-2.926-3.825
			c-0.288-2.297,0.555-4.304,1.882-4.486C54.584,18.675,55.897,20.387,56.185,22.682z"/>
	</g>
	<g>
		<path fill="#420707" d="M52.703,59.766c-6.992-1.829-6.719-3.59-10.024-1.712c-4.146,2.356-2.437,5.072-3.596,9.824
			c-0.974,3.98,5.211,4.472,6.711,1.054c0.76-1.73,2.281-2.468,3.581-2.479C56.687,66.388,54.979,60.36,52.703,59.766z"/>
		<path fill="#420707" d="M36.818,61.055c1.505,1.396,1.652,3.644,1.187,4.129c-0.608,0.633-2.759,0.469-4.267-0.925
			c-1.503-1.394-2.035-3.242-1.186-4.126C33.402,59.248,35.313,59.663,36.818,61.055z"/>
		<path fill="#420707" d="M39.542,54.001c1.019,1.77,0.483,3.963-0.105,4.29c-0.771,0.437-2.771-0.343-3.789-2.114
			c-1.019-1.77-0.972-3.692,0.103-4.293C36.825,51.281,38.521,52.228,39.542,54.001z"/>
		<path fill="#420707" d="M45.146,51.574c0.829,1.867,0.071,4.001-0.545,4.267c-0.812,0.358-2.721-0.614-3.553-2.479
			c-0.832-1.862-0.59-3.773,0.543-4.267C42.724,48.604,44.313,49.716,45.146,51.574z"/>
		<path fill="#420707" d="M51.874,53.579c0.402,1.995-0.801,3.926-1.46,4.056c-0.87,0.179-2.52-1.176-2.924-3.175
			c-0.405-1.998,0.247-3.813,1.461-4.057C50.159,50.157,51.471,51.58,51.874,53.579z"/>
	</g>
</g>
</svg>
