<?xml version="1.0" encoding="iso-8859-1"?>
<!-- Generator: Adobe Illustrator 15.0.2, SVG Export Plug-In . SVG Version: 6.00 Build 0)  -->
<!DOCTYPE svg PUBLIC "-//W3C//DTD SVG 1.1//EN" "http://www.w3.org/Graphics/SVG/1.1/DTD/svg11.dtd">
<svg version="1.1" id="&#x30EC;&#x30A4;&#x30E4;&#x30FC;_1"
	 xmlns="http://www.w3.org/2000/svg" xmlns:xlink="http://www.w3.org/1999/xlink" x="0px" y="0px" width="64px" height="64px"
	 viewBox="0 0 64 64" style="enable-background:new 0 0 64 64;" xml:space="preserve">
<g>
	<polygon style="fill:#3E3A39;stroke:#000000;stroke-width:1.5;stroke-miterlimit:10;" points="6.875,9.438 5.25,9.438 
		3.875,11.188 6.875,11.188 	"/>
	<path style="fill:#1A1A1A;stroke:#000000;stroke-width:1.5;stroke-miterlimit:10;" d="M57.375,52.625c0,0-8.597,2-10.25,2
		c-1.652,0-3.361-0.926-4.125-2v-0.882l13.987-0.806L57.375,52.625z"/>
	<polygon style="fill:none;stroke:#000000;stroke-width:1.5;stroke-miterlimit:10;" points="54,12.063 56.625,10.313 58.875,10.063 
		59.5,12.188 	"/>
	<polygon style="fill:#F7F7F7;stroke:#000000;stroke-miterlimit:10;" points="25.438,11.625 34.938,11.625 35.125,18.688 
		26.5,18.688 	"/>
	<path style="fill:#3E3A39;stroke:#000000;stroke-width:1.5;stroke-miterlimit:2;" d="M29,23.188l0.75,3.875c0,0-0.25,2.75-3.25,2.5
		l0.625,0.625c0,0,3.625,0.625,4.875-3.375c0,0,4.375-0.25,5.125-2.125C37.125,24.688,37.75,19.188,29,23.188z"/>
	<path style="fill:#3E3A39;stroke:#000000;stroke-width:1.5;stroke-miterlimit:10;" d="M57.5,12.938H37.25l1.875,3.375h-17.25
		l0.625-3.875H3.875L1.75,18.063l0.875,2.375c-0.25,0.75,0.5,2.875,0.5,2.875h13.75c1.75,0.25,2.25,3,2.125,4.875s1.5,5.25,1.5,5.25
		h14.375c2.25-1,5,0.375,5.375,0.875s0,3.25,0.25,3.625s2.5,1.875,2.25,3.25s0.25,2.875,0.625,3.75s2.25,2.125,1,3.625
		s-1.25,2.375-1.25,2.375l3.25,1.563l11-2.188l1.25,0.875c3-2.75,1.25-12.75,0.375-13.875s-2.125-4-4.25-8S57,22.188,57,22.188
		l3.625-0.125l1.5-1.125v-5.625L57.5,12.938z M35.875,30.688c-1.25,0.875-2.375,0.875-2.375,0.875H23.125
		c-2.375-0.25-2.125-4.375-2-5.5S24,23.438,24,23.438s11.375-0.375,12.5,0.375S37.125,29.813,35.875,30.688z"/>
	<polygon style="fill:#595757;stroke:#000000;stroke-width:1.5;stroke-miterlimit:2;" points="1.625,18.688 62.375,18.688 
		62.375,14.938 60,11.438 35,11.438 34.688,13.625 25.938,13.625 25.25,11.188 2.5,11.188 	"/>
	<line style="fill:#3E3A39;stroke:#000000;stroke-miterlimit:10;" x1="2.875" y1="21.313" x2="19" y2="21.313"/>
	<line style="fill:none;stroke:#000000;stroke-width:2;stroke-miterlimit:10;" x1="39.57" y1="15.063" x2="42.305" y2="18.688"/>
	<line style="fill:none;stroke:#000000;stroke-width:2;stroke-miterlimit:10;" x1="51.971" y1="15.063" x2="54.705" y2="18.688"/>
	<line style="fill:none;stroke:#000000;stroke-width:2;stroke-miterlimit:10;" x1="48.87" y1="15.063" x2="51.604" y2="18.688"/>
	<line style="fill:none;stroke:#000000;stroke-width:2;stroke-miterlimit:10;" x1="45.771" y1="15.063" x2="48.505" y2="18.688"/>
	<line style="fill:none;stroke:#000000;stroke-width:2;stroke-miterlimit:10;" x1="42.67" y1="15.063" x2="45.404" y2="18.688"/>
	<line style="fill:none;stroke:#000000;stroke-width:2;stroke-miterlimit:10;" x1="55.07" y1="15.063" x2="57.805" y2="18.688"/>
	<rect x="29.125" y="19.813" style="fill:#3E3A39;stroke:#000000;stroke-miterlimit:10;" width="3.75" height="2.125"/>
	<path style="fill:#717071;" d="M38.375,22.938l15-0.5c0,0-5.375,6.375-12.375,8.25L38.375,22.938z"/>
	<line style="fill:none;stroke:#000000;stroke-miterlimit:10;" x1="41.25" y1="34.813" x2="45.25" y2="33.438"/>
	<line style="fill:none;stroke:#000000;stroke-miterlimit:10;" x1="41.125" y1="37.938" x2="45.875" y2="36.313"/>
	<line style="fill:none;stroke:#000000;stroke-miterlimit:10;" x1="42.625" y1="40.063" x2="47.375" y2="38.813"/>
	<line style="fill:none;stroke:#000000;stroke-miterlimit:10;" x1="43.125" y1="44.063" x2="46.875" y2="42.813"/>
	<polygon style="fill:none;stroke:#000000;stroke-miterlimit:10;" points="47.375,49.563 46.875,46.688 57,41.313 57.75,48.063 	"/>
	<polyline style="fill:#070505;stroke:#000000;stroke-miterlimit:10;" points="15.875,18.938 17.5,23.188 25.375,23.188 	"/>
	<rect x="41.5" y="18.938" style="stroke:#000000;stroke-width:1.5;stroke-miterlimit:10;" width="10.875" height="1.875"/>
	<line style="fill:none;stroke:#9E9E9F;stroke-miterlimit:10;" x1="60.75" y1="14.938" x2="16.125" y2="14.938"/>
	<polyline style="fill:none;stroke:#3E3A39;stroke-miterlimit:10;" points="14.5,11.688 16.375,16.063 15.25,16.688 2.125,16.688 	
		"/>
</g>
</svg>
