<?xml version="1.0" encoding="utf-8"?>
<!-- Generator: Adobe Illustrator 15.0.2, SVG Export Plug-In . SVG Version: 6.00 Build 0)  -->
<!DOCTYPE svg PUBLIC "-//W3C//DTD SVG 1.1//EN" "http://www.w3.org/Graphics/SVG/1.1/DTD/svg11.dtd">
<svg version="1.1" id="レイヤー_1" xmlns="http://www.w3.org/2000/svg" xmlns:xlink="http://www.w3.org/1999/xlink" x="0px"
	 y="0px" width="64px" height="64px" viewBox="0 0 64 64" enable-background="new 0 0 64 64" xml:space="preserve">
<g>
	<defs>
		<filter id="Adobe_OpacityMaskFilter" filterUnits="userSpaceOnUse" x="28.607" y="42.821" width="27.657" height="5.577">
			<feFlood  style="flood-color:white;flood-opacity:1" result="back"/>
			<feBlend  in="SourceGraphic" in2="back" mode="normal"/>
		</filter>
	</defs>
	<mask maskUnits="userSpaceOnUse" x="28.607" y="42.821" width="27.657" height="5.577" id="SVGID_1_">
		<g filter="url(#Adobe_OpacityMaskFilter)">
			<image overflow="visible" width="33" height="10" xlink:href="666BAF4.jpg"  transform="matrix(1 0 0 1 26.1885 40.6807)">
			</image>
		</g>
	</mask>
	<g mask="url(#SVGID_1_)">
		<ellipse fill="#B5B5B6" cx="42.435" cy="45.609" rx="13.828" ry="2.789"/>
	</g>
</g>
<g>
	<linearGradient id="SVGID_2_" gradientUnits="userSpaceOnUse" x1="11.9541" y1="13.5654" x2="17.7206" y2="5.9898">
		<stop  offset="0" style="stop-color:#613824"/>
		<stop  offset="1" style="stop-color:#F2DBC7"/>
	</linearGradient>
	<path fill="url(#SVGID_2_)" stroke="#40210F" stroke-miterlimit="10" d="M11.728,12.998c0,0-0.123-2.764,0.942-3.021
		s2.541,2.222,2.541,2.222L11.728,12.998z"/>
	<linearGradient id="SVGID_3_" gradientUnits="userSpaceOnUse" x1="36.2773" y1="48.5127" x2="40.457" y2="64.9883">
		<stop  offset="0" style="stop-color:#613824"/>
		<stop  offset="1" style="stop-color:#F2DBC7"/>
	</linearGradient>
	<path fill="url(#SVGID_3_)" stroke="#40210F" stroke-miterlimit="10" d="M56.596,32.614c0,0-0.237,4.99,0.91,6.056
		s5.245,6.229,3.442,9.918s-4.18,4.919-9.426,5.41s-16.722-3.197-19.918-4.509c-3.196-1.312-8.519-3.279-17.087-1.394
		s-1.437-1.64,1.432-2.459s11.168-0.409,17.019,1.968s13.392,3.36,17.49,3.278s8.238-2.295,6.373-5.983s-5.139-5.688-9.406-4.672"/>
	<g>
		<path fill="none" stroke="#40210F" stroke-miterlimit="10" d="M2.67,18.817c0.044-0.654,0.82-0.984,1.885-1.558
			s4.098-2.787,4.59-3.524s2.787-2.458,5.082-2.377s6.066,5.082,8.525,4.836s2.869-0.574,4.098-0.574s3.607,0.983,5.164,0.819
			s7.131-1.885,10.82-0.983s9.917,3.197,12.868,9.344s0,15.984-7.541,16.476s-8.36-4.771-12.131-6.935s-6.475-2.118-8.442-1.731
			s-8.361-2.646-9.017-4.122c0,0-4.098-5.229-5.41-5.721s-2.787-0.983-3.935-1.721c-1.885,0.819-5.328-0.902-5.328-0.902
			S2.588,20.031,2.67,18.817z"/>
		<linearGradient id="SVGID_4_" gradientUnits="userSpaceOnUse" x1="33.3457" y1="16.3228" x2="24.657" y2="38.9468">
			<stop  offset="0" style="stop-color:#613824"/>
			<stop  offset="1" style="stop-color:#F2DBC7"/>
		</linearGradient>
		<path fill="url(#SVGID_4_)" d="M2.67,18.817c0.044-0.654,0.82-0.984,1.885-1.558s4.098-2.787,4.59-3.524s2.787-2.458,5.082-2.377
			s6.066,5.082,8.525,4.836s2.869-0.574,4.098-0.574s3.607,0.983,5.164,0.819s7.131-1.885,10.82-0.983s9.917,3.197,12.868,9.344
			s0,15.984-7.541,16.476s-8.36-4.771-12.131-6.935s-6.475-2.118-8.442-1.731s-8.361-2.646-9.017-4.122c0,0-4.098-5.229-5.41-5.721
			s-2.787-0.983-3.935-1.721c-1.885,0.819-5.328-0.902-5.328-0.902S2.588,20.031,2.67,18.817z"/>
	</g>
	<path fill="#F7ECE2" d="M2.67,18.817c0,0,2.131,0.394,3.606,0s4.344-0.661,6.065,0.087s4.951,0.912,5.836,4.191
		s1.623,5.082,4.246,5.656s6.475,0.41,7.951,0s1.066,2.131,3.771,2.705s5.164,2.885,5.164,2.885s0.82,3.919,2.377,4.656
		c0,0-3.771-3-5.656-4.656c-1.885-1.656-5.666-2.1-7.054-1.916s-7.72-0.731-9.75-3.181s-4.603-6.073-7.602-7.053l-2.396-1.146
		c0,0-5.573,0.164-6.557-1.476V18.817z"/>
	<path fill="#7C4731" d="M9.718,16.27c-0.23-0.203,0.397-0.957,1.009-1.286c0.612-0.328,1.419,0.085,1.615,0.026
		c0.196-0.06-0.586,0.854-0.586,0.854S10.262,16.751,9.718,16.27z"/>
	<ellipse fill="#231815" cx="11.204" cy="15.965" rx="1.137" ry="1.066"/>
	<polygon fill="#D6B89F" points="30.098,30.431 37.122,34.342 28.758,32.301 	"/>
	<ellipse fill="#F7ECE2" cx="19.596" cy="17.481" rx="0.779" ry="0.451"/>
	<ellipse fill="#F7ECE2" cx="20.671" cy="20.514" rx="1.075" ry="0.697"/>
	
		<ellipse transform="matrix(0.99 0.1408 -0.1408 0.99 3.2837 -3.3579)" fill="#F7ECE2" cx="25.375" cy="21.53" rx="1.23" ry="0.574"/>
	
		<ellipse transform="matrix(0.99 0.1407 -0.1407 0.99 2.8787 -3.8869)" fill="#F7ECE2" cx="28.923" cy="18.412" rx="1.516" ry="0.717"/>
	
		<ellipse transform="matrix(0.9857 0.1683 -0.1683 0.9857 4.3524 -5.0331)" fill="#F7ECE2" cx="31.875" cy="23.166" rx="1.68" ry="0.942"/>
	<path fill="#F7ECE2" d="M35.87,26.55c-0.203-0.035-0.402-0.053-0.598-0.06c-0.174-0.055-0.355-0.103-0.548-0.136
		c-1.235-0.211-2.327,0.143-2.437,0.79c-0.054,0.317,1.582,2.65,2.988,2.89c1.539,0.263,2.92-0.304,3.084-1.266
		C38.523,27.806,37.409,26.813,35.87,26.55z"/>
	
		<ellipse transform="matrix(0.9858 0.1682 -0.1682 0.9858 3.6025 -5.5168)" fill="#F7ECE2" cx="34.365" cy="18.506" rx="1.414" ry="0.86"/>
	
		<ellipse transform="matrix(0.9857 0.1683 -0.1683 0.9857 3.5818 -6.407)" fill="#F7ECE2" cx="39.597" cy="17.932" rx="2.5" ry="1.39"/>
	<path fill="none" stroke="#40210F" stroke-width="0.8" stroke-miterlimit="10" d="M2.67,18.817c0.044-0.654,0.82-0.984,1.885-1.558
		s4.098-2.787,4.59-3.524s2.787-2.458,5.082-2.377s6.066,5.082,8.525,4.836s2.869-0.574,4.098-0.574s3.607,0.983,5.164,0.819
		s7.131-1.885,10.82-0.983s9.917,3.197,12.868,9.344s0,15.984-7.541,16.476s-8.36-4.771-12.131-6.935s-6.475-2.118-8.442-1.731
		s-8.361-2.646-9.017-4.122c0,0-4.098-5.229-5.41-5.721s-2.787-0.983-3.935-1.721c-1.885,0.819-5.328-0.902-5.328-0.902
		S2.588,20.031,2.67,18.817z"/>
	<circle fill="#FFFFFF" cx="10.972" cy="15.391" r="0.382"/>
	<g>
		<g>
			<path fill="#F7ECE2" d="M43.161,22.358c0,0,2.214,2.456,0.656,3.974s-7.38,5.59-5.329,10.111s5.866,5.177,5.885,5.259
				s0,1.64,0,1.64s-1.982,1.147-3.154,1.312s-3.023,0.41-3.163,1.476l0.762,0.983c0,0,0.984-0.001,1.722-0.574
				c0,0,1.394,0.491,2.049,0.164s5.327-2.377,5.655-3.196s-0.164-1.886,1.64-2.951s6.065-3.361,5-6.722"/>
		</g>
		<linearGradient id="SVGID_5_" gradientUnits="userSpaceOnUse" x1="49.1592" y1="25.6938" x2="45.1418" y2="39.7136">
			<stop  offset="0" style="stop-color:#613824"/>
			<stop  offset="1" style="stop-color:#FFF2E3"/>
		</linearGradient>
		<path fill="url(#SVGID_5_)" d="M56.063,32.45c1.078-7.611-2.414-10.567-3.313-11.239s-4.578-5.024-8.505-3.541
			s-1.524,4.771-0.427,6.803c0.975,2.251-2.633,3.266-4.939,6.808c-1.999,3.069-1.543,7.374,4.532,9.339
			C49.23,42.503,54.949,40.308,56.063,32.45z"/>
	</g>
	<linearGradient id="SVGID_6_" gradientUnits="userSpaceOnUse" x1="14.4277" y1="14.4951" x2="22.7886" y2="3.5112">
		<stop  offset="0" style="stop-color:#613824"/>
		<stop  offset="1" style="stop-color:#F2DBC7"/>
	</linearGradient>
	<path fill="url(#SVGID_6_)" stroke="#40210F" stroke-miterlimit="10" d="M13.735,12.768c0,0-0.082-2.624,2.623-2.787
		s2.131,3.771,0,5.41"/>
	
		<ellipse transform="matrix(0.189 0.982 -0.982 0.189 96.0042 -17.4348)" fill="#F7ECE2" cx="58.558" cy="49.406" rx="1.007" ry="0.694"/>
	<path fill="#F7ECE2" d="M54.395,53.039c-0.62,0.119-1.172-0.031-1.232-0.337c-0.058-0.306,0.398-0.65,1.021-0.77
		c0.618-0.119,1.171,0.031,1.229,0.337C55.473,52.575,55.017,52.919,54.395,53.039z"/>
	
		<ellipse transform="matrix(0.1895 0.9819 -0.9819 0.1895 91.9018 -7.0312)" fill="#F7ECE2" cx="50.21" cy="52.153" rx="0.727" ry="1.032"/>
	
		<ellipse transform="matrix(0.189 0.982 -0.982 0.189 95.037 -20.8418)" fill="#F7ECE2" cx="60.136" cy="47.113" rx="1.194" ry="0.846"/>
	<path fill="#F7ECE2" d="M54.936,41.2c-0.344,0.066-0.695-0.257-0.785-0.721c-0.089-0.465,0.117-0.896,0.463-0.962
		c0.342-0.065,0.694,0.257,0.783,0.722C55.486,40.704,55.28,41.134,54.936,41.2z"/>
	
		<ellipse transform="matrix(0.6539 0.7565 -0.7565 0.6539 52.4348 -28.8698)" fill="#F7ECE2" cx="57.775" cy="42.881" rx="1.209" ry="0.683"/>
	
		<ellipse transform="matrix(-0.2415 0.9704 -0.9704 -0.2415 104.0789 22.4327)" fill="#F7ECE2" cx="43.272" cy="51.892" rx="0.675" ry="0.464"/>
	
		<ellipse transform="matrix(0.8318 0.5551 -0.5551 0.8318 36.8425 -17.2671)" fill="#F7ECE2" cx="46.91" cy="52.153" rx="0.81" ry="0.457"/>
	
		<ellipse transform="matrix(0.8316 0.5554 -0.5554 0.8316 33.1579 -11.4624)" fill="#F7ECE2" cx="35.48" cy="48.946" rx="0.675" ry="0.465"/>
	
		<ellipse transform="matrix(0.8318 0.5551 -0.5551 0.8318 34.9407 -13.4113)" fill="#F7ECE2" cx="39.598" cy="50.943" rx="0.81" ry="0.457"/>
	<path fill="#683E33" d="M17.67,17.217c0,0,2.232,4.313-2.924,5.563C14.746,22.779,17.371,21.211,17.67,17.217z"/>
	
		<ellipse transform="matrix(0.8316 0.5554 -0.5554 0.8316 28.731 -0.9674)" fill="#F7ECE2" cx="15.96" cy="46.886" rx="0.456" ry="0.314"/>
	<path fill="#683E33" d="M27.418,22.358c0,0,2.605,4.232,2.33,5.837C29.748,28.196,31.429,23.687,27.418,22.358z"/>
	
		<ellipse transform="matrix(0.9704 0.2417 -0.2417 0.9704 12.4231 -6.0823)" fill="#F7ECE2" cx="31.005" cy="47.599" rx="0.81" ry="0.457"/>
	<path fill="none" stroke="#40210F" stroke-miterlimit="10" d="M15.957,14.489c0,0,3.522,4.672-1.439,7.869"/>
	<g>
		<path fill="none" stroke="#40210F" stroke-width="2" stroke-miterlimit="10" d="M26.932,23.096
			c1.721,1.065,2.377,6.558,1.885,8.115s-3.688,2.295-5.492,3.131s-4.59,1.049-4.59,1.049c-0.082,0.819-1.639,1.312-1.639,1.312
			l0.514-1.394l-1.907,1.394c-0.164-0.738,1.147-1.722,1.147-1.722c-0.41,0.082-2.295,0.984-2.295,0.984
			c-0.328-0.573,1.557-1.623,1.557-1.623c-0.41-0.147-1.557,0.639-1.557,0.639c0.164-1.394,1.475-1.147,2.459-1.311
			c0.984-0.164,1.967-1.148,3.197-2.377s-0.574-3.852,0.492-5.574"/>
		<path fill="#F7ECE2" d="M26.932,23.096c1.721,1.065,2.377,6.558,1.885,8.115s-3.688,2.295-5.492,3.131s-4.59,1.049-4.59,1.049
			c-0.082,0.819-1.639,1.312-1.639,1.312l0.514-1.394l-1.907,1.394c-0.164-0.738,1.147-1.722,1.147-1.722
			c-0.41,0.082-2.295,0.984-2.295,0.984c-0.328-0.573,1.557-1.623,1.557-1.623c-0.41-0.147-1.557,0.639-1.557,0.639
			c0.164-1.394,1.475-1.147,2.459-1.311c0.984-0.164,1.967-1.148,3.197-2.377s-0.574-3.852,0.492-5.574"/>
	</g>
	<linearGradient id="SVGID_7_" gradientUnits="userSpaceOnUse" x1="25.8042" y1="24.5967" x2="23.4268" y2="32.6294">
		<stop  offset="0" style="stop-color:#613824"/>
		<stop  offset="1" style="stop-color:#FFF2E3"/>
	</linearGradient>
	<path fill="url(#SVGID_7_)" d="M20.671,25.177c0,0-0.782,1.868,0.035,5.254c0,0-0.911,1.381-2.304,2.539
		c-0.082,1.203,7.693,1.766,10.416-1.759c0,0,0.931-4.917-1.399-7.655C26.049,21.946,21.951,21.947,20.671,25.177z"/>
	<path fill="#F7ECE2" d="M25.411,25.765c-0.278-0.061-0.346-0.524-0.15-1.035s0.579-0.877,0.857-0.816
		c0.277,0.06,0.344,0.523,0.149,1.035C26.072,25.459,25.688,25.825,25.411,25.765z"/>
	<path fill="#F7ECE2" d="M23.506,29.355c-0.438-0.155-0.503-0.816-0.145-1.477c0.356-0.661,1.003-1.07,1.442-0.916
		c0.438,0.155,0.504,0.817,0.146,1.478C24.592,29.102,23.945,29.511,23.506,29.355z"/>
	<path fill="#F7ECE2" d="M23.985,32.116c-0.425,0.003-0.693-0.5-0.599-1.127c0.093-0.625,0.512-1.134,0.937-1.138
		c0.425-0.003,0.694,0.5,0.601,1.125S24.41,32.112,23.985,32.116z"/>
	<path fill="#F7ECE2" d="M21.479,27.287c-0.283-0.035-0.392-0.49-0.244-1.017c0.148-0.527,0.496-0.926,0.778-0.892
		c0.282,0.035,0.391,0.49,0.244,1.017C22.11,26.922,21.761,27.321,21.479,27.287z"/>
	<path fill="#F7ECE2" d="M26.901,31.852c-0.404-0.131-0.501-0.693-0.214-1.258c0.285-0.564,0.844-0.915,1.249-0.785
		c0.404,0.131,0.5,0.693,0.215,1.257C27.864,31.63,27.306,31.982,26.901,31.852z"/>
	<g>
		
			<ellipse transform="matrix(0.9792 0.2028 -0.2028 0.9792 4.9211 -9.0358)" fill="#F7ECE2" cx="46.553" cy="19.496" rx="2.008" ry="1.394"/>
		<g>
			
				<ellipse transform="matrix(0.7467 0.6652 -0.6652 0.7467 29.1016 -29.0923)" fill="#F7ECE2" cx="52.749" cy="23.664" rx="1.47" ry="0.78"/>
			
				<ellipse transform="matrix(0.7467 0.6652 -0.6652 0.7467 31.3942 -27.7696)" fill="#F7ECE2" cx="52.156" cy="27.333" rx="1.055" ry="0.586"/>
			
				<ellipse transform="matrix(0.7466 0.6653 -0.6653 0.7466 28.4415 -26.5109)" fill="#F7ECE2" cx="49.022" cy="24.081" rx="1.488" ry="0.63"/>
		</g>
		<g>
			
				<ellipse transform="matrix(0.189 0.982 -0.982 0.189 76.3498 -26.6139)" fill="#F7ECE2" cx="54.288" cy="32.917" rx="1.47" ry="0.78"/>
			
				<ellipse transform="matrix(0.1888 0.982 -0.982 0.1888 76.6801 -21.8866)" fill="#F7ECE2" cx="51.588" cy="35.471" rx="1.055" ry="0.587"/>
			
				<ellipse transform="matrix(0.189 0.982 -0.982 0.189 71.8492 -25.0249)" fill="#F7ECE2" cx="51.074" cy="30.984" rx="1.488" ry="0.629"/>
		</g>
		<g>
			
				<ellipse transform="matrix(0.189 0.982 -0.982 0.189 70.183 -16.8224)" fill="#F7ECE2" cx="45.276" cy="34.078" rx="1.47" ry="1.012"/>
			<path fill="#F7ECE2" d="M41.863,37.843c-0.411,0.079-0.834-0.32-0.945-0.893c-0.109-0.572,0.135-1.101,0.548-1.18
				c0.409-0.078,0.833,0.32,0.943,0.893C42.52,37.236,42.275,37.763,41.863,37.843z"/>
			
				<ellipse transform="matrix(0.1889 0.982 -0.982 0.1889 65.1769 -14.3096)" fill="#F7ECE2" cx="41.251" cy="32.301" rx="1.489" ry="0.816"/>
		</g>
		<g>
			
				<ellipse transform="matrix(0.189 0.982 -0.982 0.189 68.4503 -24.7872)" fill="#F7ECE2" cx="49.231" cy="29.047" rx="1.194" ry="0.846"/>
			<path fill="#F7ECE2" d="M46.364,32.122c-0.344,0.066-0.695-0.257-0.785-0.721c-0.089-0.465,0.117-0.895,0.463-0.961
				c0.342-0.065,0.694,0.257,0.783,0.721C46.915,31.626,46.709,32.055,46.364,32.122z"/>
			
				<ellipse transform="matrix(0.1891 0.982 -0.982 0.1891 64.3255 -22.6525)" fill="#F7ECE2" cx="45.878" cy="27.62" rx="1.209" ry="0.682"/>
		</g>
	</g>
	<g>
		<path fill="none" stroke="#40210F" stroke-miterlimit="10" d="M43.161,22.358c0,0,2.214,2.456,0.656,3.974
			s-7.38,5.59-5.329,10.111s5.866,5.177,5.885,5.259s0,1.64,0,1.64s-1.982,1.147-3.154,1.312s-3.023,0.41-3.163,1.476l0.762,0.983
			c0,0,0.984-0.001,1.722-0.574c0,0,1.394,0.491,2.049,0.164s5.327-2.377,5.655-3.196s-0.816-1.418,0.987-2.483
			c1.096,0.699,6.832-2.697,7.365-8.408"/>
	</g>
	<path fill="none" stroke="#FFF5E9" stroke-width="0.5" stroke-miterlimit="10" d="M5.785,18.43c0,0,6.065-0.916,9.098-0.019"/>
	<path fill="none" stroke="#FFF5E9" stroke-width="0.5" stroke-miterlimit="10" d="M5.785,19.153c0,0,7.951,0.264,11.885,1.767"/>
	<path fill="none" stroke="#FFF5E9" stroke-width="0.5" stroke-miterlimit="10" d="M6.276,20.037c0,0,5.082,2.198,6.394,7.251"/>
	<path fill="none" stroke="#FFF5E9" stroke-width="0.5" stroke-miterlimit="10" d="M6.845,19.676c0,0,5.165,0.461,9.017,2.489"/>
	<path fill="none" stroke="#FFF5E9" stroke-width="0.5" stroke-miterlimit="10" d="M4.391,17.031c0,0-0.574-1.977-1.229-2.021"/>
	<path fill="none" stroke="#FFF5E9" stroke-width="0.5" stroke-miterlimit="10" d="M4.138,17.481c0,0-0.247-0.844-1.472-0.983"/>
	<linearGradient id="SVGID_8_" gradientUnits="userSpaceOnUse" x1="4.4829" y1="16.3618" x2="6.0212" y2="14.3409">
		<stop  offset="0" style="stop-color:#613824"/>
		<stop  offset="1" style="stop-color:#F2DBC7"/>
	</linearGradient>
	
		<line fill="url(#SVGID_8_)" stroke="#FFF5E9" stroke-width="0.5" stroke-miterlimit="10" x1="4.801" y1="16.498" x2="4.801" y2="15.391"/>
	<path fill="none" stroke="#FFF5E9" stroke-width="0.5" stroke-miterlimit="10" d="M5.785,19.817c0,0,3.688,6.366,3.688,11.167"/>
	<path fill="#AD3451" d="M4.138,18.018c0,0-0.977,1.356-1.531,1.191C2.525,17.896,3.162,17.481,4.138,18.018z"/>
	
		<ellipse transform="matrix(0.9827 -0.1851 0.1851 0.9827 -8.1493 4.5648)" fill="#F7ECE2" cx="20.374" cy="45.929" rx="0.456" ry="0.314"/>
	
		<ellipse transform="matrix(0.9858 0.1682 -0.1682 0.9858 4.9146 -6.4873)" fill="#F7ECE2" cx="40.757" cy="25.771" rx="1.237" ry="1.097"/>
	<path fill="#5E1B1B" d="M14.517,13.445l1.026,1.044c0,0,2.127-1.806,0.905-2.557C15.257,11.199,14.517,13.445,14.517,13.445z"/>
</g>
</svg>
