<?xml version="1.0" encoding="iso-8859-1"?>
<!-- Generator: Adobe Illustrator 15.0.2, SVG Export Plug-In . SVG Version: 6.00 Build 0)  -->
<!DOCTYPE svg PUBLIC "-//W3C//DTD SVG 1.1//EN" "http://www.w3.org/Graphics/SVG/1.1/DTD/svg11.dtd">
<svg version="1.1" id="&#x30EC;&#x30A4;&#x30E4;&#x30FC;_1"
	 xmlns="http://www.w3.org/2000/svg" xmlns:xlink="http://www.w3.org/1999/xlink" x="0px" y="0px" width="64px" height="64px"
	 viewBox="0 0 64 64" style="enable-background:new 0 0 64 64;" xml:space="preserve">
<g>
	<path style="fill:#FFFFFF;stroke:#C8C9CA;stroke-width:1.1201;stroke-miterlimit:10;" d="M62.277,45.263
		c0-0.015,0.002-0.026,0.002-0.041c0-1.438-0.471-2.661-1.132-3.157c-0.313-1.375-0.779-2.802-1.409-4.271
		c-0.07-0.205-0.149-0.396-0.241-0.567c-0.068-0.15-0.117-0.294-0.19-0.445c-2.889-6.066-7.268-14.497-12.521-21.245
		c-0.22-1.4-0.894-2.426-1.699-2.426c-0.088,0-0.171,0.025-0.255,0.048c-4.461-5.131-9.452-8.81-14.647-8.81
		c-4.466,0-9.26,3.798-13.562,9.177c-0.113-0.043-0.23-0.067-0.35-0.067c-0.894,0-1.626,1.251-1.758,2.882
		c-0.144,0.204-0.289,0.404-0.432,0.612c-0.284,0.125-0.538,0.383-0.751,0.731c-0.311-0.508-0.71-0.826-1.152-0.826
		c-0.988,0-1.786,1.521-1.786,3.399c0,0.771,0.14,1.474,0.367,2.044c-0.624,1.104-1.219,2.221-1.784,3.344
		c-0.221-0.174-0.463-0.272-0.717-0.272c-1.045,0-1.889,1.609-1.889,3.597c0,0.651,0.098,1.254,0.257,1.781
		c-0.666,1.602-1.256,3.172-1.754,4.684c-0.805,0.282-1.414,1.616-1.414,3.229c0,0.477,0.056,0.928,0.151,1.335
		c-0.334,1.54-0.528,2.944-0.57,4.177c-0.708,0.412-1.225,1.649-1.225,3.134c0,1.816,0.772,3.292,1.729,3.292
		c0.056,0,0.108-0.021,0.162-0.031c0.129,0.499,0.273,0.977,0.435,1.426c-0.053,0.316-0.089,0.646-0.089,0.996
		c0,1.817,0.773,3.29,1.729,3.29c0.058,0,0.112-0.021,0.167-0.031c0.066,0.021,0.114,0.031,0.114,0.031
		c0.19-0.029,0.353-0.1,0.497-0.195c0.395,0.428,0.809,0.819,1.25,1.158c0.295,1.004,0.853,1.691,1.501,1.691
		c0.058,0,0.111-0.021,0.167-0.032c0.067,0.02,0.115,0.032,0.115,0.032c0.26-0.04,0.469-0.157,0.644-0.316
		c1.54,0.62,3.192,0.895,4.827,0.895c5.041,0,33.323,0,38.924,0c3.673-1.092,7.136-5.357,7.636-11.4
		C62.282,47.283,62.292,45.719,62.277,45.263z"/>
	<g>
		<ellipse style="fill:#FFFFFF;" cx="56.523" cy="53.88" rx="1.785" ry="3.4"/>
		<path style="fill:#DBDCDC;" d="M58.299,53.793c0,0,0.214,3.226-1.483,3.487c0,0-0.967-0.213-1.141-0.868
			C55.675,56.412,57.297,56.365,58.299,53.793z"/>
	</g>
	<g>
		<g>
			<ellipse style="fill:#FFFFFF;" cx="54.214" cy="53.882" rx="1.785" ry="3.398"/>
			<path style="fill:#DBDCDC;" d="M55.99,53.793c0,0,0.213,3.227-1.484,3.487c0,0-0.967-0.213-1.142-0.868
				C53.364,56.412,54.989,56.366,55.99,53.793z"/>
		</g>
		<g>
			<ellipse style="fill:#FFFFFF;" cx="58.309" cy="50.483" rx="1.785" ry="3.398"/>
			<path style="fill:#DBDCDC;" d="M60.085,50.395c0,0,0.214,3.228-1.484,3.487c0,0-0.967-0.215-1.141-0.869
				C57.46,53.013,59.082,52.968,60.085,50.395z"/>
		</g>
		<g>
			<ellipse style="fill:#FFFFFF;" cx="51.169" cy="53.836" rx="1.784" ry="3.401"/>
			<path style="fill:#DBDCDC;" d="M52.945,53.748c0,0,0.213,3.228-1.484,3.489c0,0-0.968-0.215-1.142-0.87
				C50.319,56.367,51.944,56.321,52.945,53.748z"/>
		</g>
		<g>
			<path style="fill:#FFFFFF;" d="M50.646,53.837c0,1.876-0.799,3.4-1.783,3.4c-0.988,0-1.785-1.524-1.785-3.4
				c0-1.877,0.797-3.397,1.785-3.397C49.847,50.439,50.646,51.96,50.646,53.837z"/>
			<path style="fill:#DBDCDC;" d="M50.637,53.748c0,0,0.213,3.229-1.483,3.489c0,0-0.968-0.215-1.143-0.87
				C48.011,56.367,49.635,56.322,50.637,53.748z"/>
		</g>
		<g>
			<path style="fill:#FFFFFF;" d="M54.738,50.439c0,1.875-0.797,3.397-1.783,3.397s-1.785-1.522-1.785-3.397
				c0-1.88,0.799-3.4,1.785-3.4S54.738,48.56,54.738,50.439z"/>
			<path style="fill:#DBDCDC;" d="M54.73,50.351c0,0,0.213,3.227-1.484,3.486c0,0-0.967-0.214-1.142-0.867
				C52.104,52.97,53.729,52.924,54.73,50.351z"/>
		</g>
	</g>
	<g>
		<g>
			<ellipse style="fill:#FFFFFF;" cx="9.214" cy="55.781" rx="1.727" ry="3.293"/>
			<path style="fill:#DBDCDC;" d="M10.934,55.697c0,0,0.206,3.123-1.438,3.377c0,0-0.937-0.207-1.105-0.839
				C8.39,58.235,9.963,58.188,10.934,55.697z"/>
		</g>
		<g>
			<ellipse style="fill:#FFFFFF;" cx="5.684" cy="53.13" rx="1.727" ry="3.291"/>
			<path style="fill:#DBDCDC;" d="M7.403,53.046c0,0,0.207,3.124-1.437,3.375c0,0-0.937-0.208-1.106-0.84
				C4.86,55.581,6.433,55.536,7.403,53.046z"/>
		</g>
		<g>
			<ellipse style="fill:#FFFFFF;" cx="10.942" cy="52.491" rx="1.728" ry="3.292"/>
			<path style="fill:#DBDCDC;" d="M12.663,52.406c0,0,0.205,3.124-1.438,3.377c0,0-0.936-0.208-1.105-0.841
				C10.12,54.942,11.692,54.898,12.663,52.406z"/>
		</g>
	</g>
	<g>
		<g>
			<path style="fill:#FFFFFF;" d="M58.087,48.761c0,1.877-0.798,3.399-1.782,3.399c-0.988,0-1.786-1.522-1.786-3.399
				c0-1.879,0.798-3.399,1.786-3.399C57.289,45.361,58.087,46.882,58.087,48.761z"/>
			<path style="fill:#DBDCDC;" d="M58.08,48.673c0,0,0.211,3.227-1.485,3.487c0,0-0.967-0.215-1.142-0.869
				C55.453,51.291,57.077,51.245,58.08,48.673z"/>
		</g>
		<g>
			<ellipse style="fill:#FFFFFF;" cx="60.397" cy="45.361" rx="1.785" ry="3.399"/>
			<path style="fill:#DBDCDC;" d="M62.174,45.272c0,0,0.213,3.228-1.484,3.488c0,0-0.968-0.216-1.142-0.868
				C59.548,47.893,61.172,47.847,62.174,45.272z"/>
		</g>
		<g>
			<path style="fill:#FFFFFF;" d="M55.041,48.715c0,1.88-0.798,3.402-1.783,3.402c-0.986,0-1.784-1.522-1.784-3.402
				c0-1.876,0.798-3.398,1.784-3.398C54.243,45.316,55.041,46.839,55.041,48.715z"/>
			<path style="fill:#DBDCDC;" d="M55.034,48.63c0,0,0.212,3.225-1.485,3.487c0,0-0.967-0.215-1.142-0.869
				C52.407,51.248,54.032,51.2,55.034,48.63z"/>
		</g>
		<g>
			<ellipse style="fill:#FFFFFF;" cx="50.949" cy="48.717" rx="1.784" ry="3.4"/>
			<path style="fill:#DBDCDC;" d="M52.726,48.63c0,0,0.212,3.227-1.484,3.487c0,0-0.967-0.215-1.143-0.869
				C50.099,51.248,51.724,51.202,52.726,48.63z"/>
		</g>
		<g>
			<ellipse style="fill:#FFFFFF;" cx="55.042" cy="45.318" rx="1.785" ry="3.398"/>
			<path style="fill:#DBDCDC;" d="M56.819,45.229c0,0,0.212,3.229-1.485,3.487c0,0-0.967-0.215-1.141-0.868
				C54.193,47.849,55.817,47.804,56.819,45.229z"/>
		</g>
	</g>
	<g>
		<g>
			<ellipse style="fill:#FFFFFF;" cx="9.768" cy="50.868" rx="1.728" ry="3.29"/>
			<path style="fill:#DBDCDC;" d="M11.488,50.781c0,0,0.206,3.126-1.438,3.377c0,0-0.937-0.209-1.106-0.841
				C8.945,53.317,10.518,53.272,11.488,50.781z"/>
		</g>
		<g>
			<ellipse style="fill:#FFFFFF;" cx="5.997" cy="51.972" rx="1.728" ry="3.293"/>
			<path style="fill:#DBDCDC;" d="M7.717,51.888c0,0,0.206,3.123-1.438,3.377c0,0-0.937-0.207-1.105-0.841
				C5.174,54.424,6.747,54.377,7.717,51.888z"/>
		</g>
		<g>
			<ellipse style="fill:#FFFFFF;" cx="3.447" cy="47.447" rx="1.728" ry="3.292"/>
			<path style="fill:#DBDCDC;" d="M5.167,47.361c0,0,0.206,3.126-1.438,3.378c0,0-0.937-0.208-1.105-0.842
				C2.624,49.897,4.196,49.854,5.167,47.361z"/>
		</g>
		<g>
			<ellipse style="fill:#FFFFFF;" cx="8.548" cy="47.533" rx="1.728" ry="3.292"/>
			<path style="fill:#DBDCDC;" d="M10.268,47.448c0,0,0.205,3.125-1.438,3.377c0,0-0.937-0.208-1.105-0.842
				C7.725,49.983,9.296,49.94,10.268,47.448z"/>
		</g>
	</g>
	<g>
		<g>
			<ellipse style="fill:#FFFFFF;" cx="53.772" cy="41.639" rx="1.784" ry="3.4"/>
			<path style="fill:#DBDCDC;" d="M55.549,41.552c0,0,0.212,3.227-1.484,3.487c0,0-0.968-0.215-1.143-0.869
				C52.922,44.17,54.547,44.124,55.549,41.552z"/>
		</g>
		<g>
			<ellipse style="fill:#FFFFFF;" cx="58.147" cy="39.784" rx="1.785" ry="3.399"/>
			<path style="fill:#DBDCDC;" d="M59.923,39.696c0,0,0.213,3.227-1.483,3.487c0,0-0.968-0.215-1.142-0.869
				C57.298,42.314,58.92,42.269,59.923,39.696z"/>
		</g>
		<g>
			<path style="fill:#FFFFFF;" d="M52.019,43.841c0,1.878-0.799,3.4-1.782,3.4c-0.988,0-1.785-1.522-1.785-3.4
				c0-1.877,0.797-3.398,1.785-3.398C51.22,40.442,52.019,41.964,52.019,43.841z"/>
			<path style="fill:#DBDCDC;" d="M52.012,43.754c0,0,0.212,3.226-1.486,3.487c0,0-0.967-0.214-1.14-0.868
				C49.386,46.373,51.009,46.326,52.012,43.754z"/>
		</g>
		<g>
			<path style="fill:#FFFFFF;" d="M49.709,45.498c0,1.876-0.798,3.398-1.781,3.398c-0.989,0-1.787-1.522-1.787-3.398
				c0-1.88,0.798-3.398,1.787-3.398C48.911,42.1,49.709,43.618,49.709,45.498z"/>
			<path style="fill:#DBDCDC;" d="M49.702,45.409c0,0,0.211,3.228-1.485,3.487c0,0-0.967-0.215-1.141-0.868
				C47.076,48.028,48.699,47.983,49.702,45.409z"/>
		</g>
		<g>
			<ellipse style="fill:#FFFFFF;" cx="51.553" cy="37.417" rx="1.784" ry="3.399"/>
			<path style="fill:#DBDCDC;" d="M53.33,37.33c0,0,0.212,3.227-1.486,3.486c0,0-0.967-0.215-1.141-0.868
				C50.703,39.948,52.326,39.902,53.33,37.33z"/>
		</g>
	</g>
	<g>
		<g>
			<path style="fill:#FFFFFF;" d="M50.81,38.002c0,1.878-0.797,3.399-1.783,3.399c-0.988,0-1.785-1.521-1.785-3.399
				s0.797-3.398,1.785-3.398C50.013,34.604,50.81,36.124,50.81,38.002z"/>
			<path style="fill:#DBDCDC;" d="M50.802,37.914c0,0,0.212,3.228-1.484,3.487c0,0-0.969-0.215-1.142-0.869
				C48.176,40.532,49.8,40.487,50.802,37.914z"/>
		</g>
		<g>
			<path style="fill:#FFFFFF;" d="M54.903,34.604c0,1.876-0.798,3.398-1.782,3.398c-0.987,0-1.786-1.522-1.786-3.398
				c0-1.88,0.799-3.399,1.786-3.399C54.105,31.204,54.903,32.724,54.903,34.604z"/>
			<path style="fill:#DBDCDC;" d="M54.897,34.515c0,0,0.211,3.227-1.486,3.487c0,0-0.967-0.215-1.141-0.868
				C52.271,37.134,53.895,37.089,54.897,34.515z"/>
		</g>
		<g>
			<ellipse style="fill:#FFFFFF;" cx="45.98" cy="37.957" rx="1.784" ry="3.401"/>
			<path style="fill:#DBDCDC;" d="M47.757,37.871c0,0,0.211,3.225-1.485,3.487c0,0-0.968-0.215-1.141-0.869
				C45.131,40.489,46.753,40.441,47.757,37.871z"/>
		</g>
		<g>
			<path style="fill:#FFFFFF;" d="M45.456,37.96c0,1.876-0.798,3.398-1.782,3.398c-0.988,0-1.786-1.522-1.786-3.398
				c0-1.88,0.798-3.399,1.786-3.399C44.658,34.561,45.456,36.08,45.456,37.96z"/>
			<path style="fill:#DBDCDC;" d="M45.448,37.871c0,0,0.212,3.228-1.484,3.487c0,0-0.969-0.215-1.142-0.869
				C42.822,40.489,44.445,40.444,45.448,37.871z"/>
		</g>
		<g>
			<ellipse style="fill:#FFFFFF;" cx="47.766" cy="34.561" rx="1.784" ry="3.399"/>
			<path style="fill:#DBDCDC;" d="M49.542,34.472c0,0,0.212,3.228-1.485,3.488c0,0-0.968-0.215-1.142-0.869
				C46.915,37.091,48.54,37.045,49.542,34.472z"/>
		</g>
	</g>
	<g>
		<g>
			<path style="fill:#FFFFFF;" d="M13.73,41.628c0,1.816-0.772,3.289-1.726,3.289c-0.956,0-1.729-1.473-1.729-3.289
				c0-1.82,0.772-3.292,1.729-3.292C12.958,38.336,13.73,39.808,13.73,41.628z"/>
			<path style="fill:#DBDCDC;" d="M13.724,41.542c0,0,0.206,3.125-1.438,3.375c0,0-0.937-0.207-1.105-0.84
				C11.18,44.077,12.753,44.033,13.724,41.542z"/>
		</g>
		<g>
			<ellipse style="fill:#FFFFFF;" cx="8.233" cy="42.732" rx="1.728" ry="3.292"/>
			<path style="fill:#DBDCDC;" d="M9.953,42.647c0,0,0.206,3.125-1.438,3.377c0,0-0.937-0.207-1.106-0.842
				C7.41,45.183,8.982,45.137,9.953,42.647z"/>
		</g>
		<g>
			<ellipse style="fill:#FFFFFF;" cx="5.091" cy="38.804" rx="1.728" ry="3.291"/>
			<path style="fill:#DBDCDC;" d="M6.812,38.719c0,0,0.205,3.124-1.438,3.376c0,0-0.937-0.208-1.105-0.841
				C4.269,41.254,5.841,41.21,6.812,38.719z"/>
		</g>
		<g>
			<ellipse style="fill:#FFFFFF;" cx="10.783" cy="38.293" rx="1.728" ry="3.292"/>
			<path style="fill:#DBDCDC;" d="M12.503,38.209c0,0,0.206,3.123-1.438,3.376c0,0-0.936-0.208-1.104-0.841
				C9.961,40.744,11.533,40.7,12.503,38.209z"/>
		</g>
	</g>
	<g>
		<g>
			<ellipse style="fill:#FFFFFF;" cx="45.143" cy="28.42" rx="1.689" ry="3.218"/>
			<path style="fill:#DBDCDC;" d="M46.825,28.337c0,0,0.2,3.055-1.406,3.301c0,0-0.915-0.203-1.08-0.822
				C44.339,30.815,45.876,30.771,46.825,28.337z"/>
		</g>
		<g>
			<ellipse style="fill:#FFFFFF;" cx="49.688" cy="26.749" rx="1.689" ry="3.217"/>
			<path style="fill:#DBDCDC;" d="M51.369,26.665c0,0,0.201,3.055-1.406,3.301c0,0-0.914-0.202-1.08-0.821
				C48.883,29.145,50.421,29.102,51.369,26.665z"/>
		</g>
		<g>
			<path style="fill:#FFFFFF;" d="M42.206,31.191c0,1.779-0.756,3.222-1.688,3.222c-0.935,0-1.69-1.442-1.69-3.222
				c0-1.775,0.756-3.217,1.69-3.217C41.45,27.975,42.206,29.416,42.206,31.191z"/>
			<path style="fill:#DBDCDC;" d="M42.2,31.111c0,0,0.2,3.053-1.407,3.302c0,0-0.916-0.203-1.079-0.822
				C39.714,33.591,41.251,33.545,42.2,31.111z"/>
		</g>
		<g>
			<ellipse style="fill:#FFFFFF;" cx="34.954" cy="30.861" rx="1.689" ry="3.22"/>
			<path style="fill:#DBDCDC;" d="M36.637,30.778c0,0,0.2,3.056-1.405,3.303c0,0-0.916-0.203-1.081-0.823
				C34.15,33.258,35.687,33.214,36.637,30.778z"/>
		</g>
		<g>
			<ellipse style="fill:#FFFFFF;" cx="43.454" cy="21.581" rx="1.688" ry="3.218"/>
			<path style="fill:#DBDCDC;" d="M45.136,21.498c0,0,0.201,3.055-1.406,3.301c0,0-0.915-0.203-1.079-0.822
				C42.65,23.977,44.188,23.934,45.136,21.498z"/>
		</g>
	</g>
	<g>
		<g>
			<ellipse style="fill:#FFFFFF;" cx="15.716" cy="32.193" rx="1.888" ry="3.596"/>
			<path style="fill:#DBDCDC;" d="M17.596,32.101c0,0,0.225,3.413-1.571,3.688c0,0-1.023-0.228-1.208-0.919
				C14.817,34.87,16.535,34.822,17.596,32.101z"/>
		</g>
		<g>
			<ellipse style="fill:#FFFFFF;" cx="11.595" cy="33.399" rx="1.888" ry="3.6"/>
			<path style="fill:#DBDCDC;" d="M13.476,33.308c0,0,0.224,3.414-1.572,3.691c0,0-1.023-0.228-1.208-0.919
				C10.696,36.08,12.415,36.03,13.476,33.308z"/>
		</g>
		<g>
			<ellipse style="fill:#FFFFFF;" cx="8.162" cy="29.108" rx="1.887" ry="3.597"/>
			<path style="fill:#DBDCDC;" d="M10.043,29.016c0,0,0.224,3.414-1.572,3.689c0,0-1.024-0.228-1.208-0.92
				C7.263,31.785,8.981,31.736,10.043,29.016z"/>
		</g>
		<g>
			<ellipse style="fill:#FFFFFF;" cx="12.494" cy="26.706" rx="1.888" ry="3.597"/>
			<path style="fill:#DBDCDC;" d="M14.374,26.612c0,0,0.224,3.415-1.572,3.69c0,0-1.023-0.228-1.208-0.919
				C11.594,29.384,13.313,29.335,14.374,26.612z"/>
		</g>
	</g>
	<g>
		<ellipse style="fill:#FFFFFF;" cx="56.523" cy="53.88" rx="1.785" ry="3.4"/>
		<path style="fill:#DBDCDC;" d="M58.299,53.793c0,0,0.214,3.226-1.483,3.487c0,0-0.967-0.213-1.141-0.868
			C55.675,56.412,57.297,56.365,58.299,53.793z"/>
	</g>
	<g>
		<g>
			<ellipse style="fill:#FFFFFF;" cx="54.214" cy="53.882" rx="1.785" ry="3.398"/>
			<path style="fill:#DBDCDC;" d="M55.99,53.793c0,0,0.213,3.227-1.484,3.487c0,0-0.967-0.213-1.142-0.868
				C53.364,56.412,54.989,56.366,55.99,53.793z"/>
		</g>
		<g>
			<ellipse style="fill:#FFFFFF;" cx="58.309" cy="50.483" rx="1.785" ry="3.398"/>
			<path style="fill:#DBDCDC;" d="M60.085,50.395c0,0,0.214,3.228-1.484,3.487c0,0-0.967-0.215-1.141-0.869
				C57.46,53.013,59.082,52.968,60.085,50.395z"/>
		</g>
		<g>
			<ellipse style="fill:#FFFFFF;" cx="51.169" cy="53.836" rx="1.784" ry="3.401"/>
			<path style="fill:#DBDCDC;" d="M52.945,53.748c0,0,0.213,3.228-1.484,3.489c0,0-0.968-0.215-1.142-0.87
				C50.319,56.367,51.944,56.321,52.945,53.748z"/>
		</g>
		<g>
			<path style="fill:#FFFFFF;" d="M50.646,53.837c0,1.876-0.799,3.4-1.783,3.4c-0.988,0-1.785-1.524-1.785-3.4
				c0-1.877,0.797-3.397,1.785-3.397C49.847,50.439,50.646,51.96,50.646,53.837z"/>
			<path style="fill:#DBDCDC;" d="M50.637,53.748c0,0,0.213,3.229-1.483,3.489c0,0-0.968-0.215-1.143-0.87
				C48.011,56.367,49.635,56.322,50.637,53.748z"/>
		</g>
		<g>
			<path style="fill:#FFFFFF;" d="M54.738,50.439c0,1.875-0.797,3.397-1.783,3.397s-1.785-1.522-1.785-3.397
				c0-1.88,0.799-3.4,1.785-3.4S54.738,48.56,54.738,50.439z"/>
			<path style="fill:#DBDCDC;" d="M54.73,50.351c0,0,0.213,3.227-1.484,3.486c0,0-0.967-0.214-1.142-0.867
				C52.104,52.97,53.729,52.924,54.73,50.351z"/>
		</g>
	</g>
	<g>
		<g>
			<ellipse style="fill:#FFFFFF;" cx="9.214" cy="55.781" rx="1.727" ry="3.293"/>
			<path style="fill:#DBDCDC;" d="M10.934,55.697c0,0,0.206,3.123-1.438,3.377c0,0-0.937-0.207-1.105-0.839
				C8.39,58.235,9.963,58.188,10.934,55.697z"/>
		</g>
		<g>
			<ellipse style="fill:#FFFFFF;" cx="5.684" cy="53.13" rx="1.727" ry="3.291"/>
			<path style="fill:#DBDCDC;" d="M7.403,53.046c0,0,0.207,3.124-1.437,3.375c0,0-0.937-0.208-1.106-0.84
				C4.86,55.581,6.433,55.536,7.403,53.046z"/>
		</g>
		<g>
			<ellipse style="fill:#FFFFFF;" cx="10.942" cy="52.491" rx="1.728" ry="3.292"/>
			<path style="fill:#DBDCDC;" d="M12.663,52.406c0,0,0.205,3.124-1.438,3.377c0,0-0.936-0.208-1.105-0.841
				C10.12,54.942,11.692,54.898,12.663,52.406z"/>
		</g>
	</g>
	<g>
		<g>
			<path style="fill:#FFFFFF;" d="M58.087,48.761c0,1.877-0.798,3.399-1.782,3.399c-0.988,0-1.786-1.522-1.786-3.399
				c0-1.879,0.798-3.399,1.786-3.399C57.289,45.361,58.087,46.882,58.087,48.761z"/>
			<path style="fill:#DBDCDC;" d="M58.08,48.673c0,0,0.211,3.227-1.485,3.487c0,0-0.967-0.215-1.142-0.869
				C55.453,51.291,57.077,51.245,58.08,48.673z"/>
		</g>
		<g>
			<ellipse style="fill:#FFFFFF;" cx="60.397" cy="45.361" rx="1.785" ry="3.399"/>
			<path style="fill:#DBDCDC;" d="M62.174,45.272c0,0,0.213,3.228-1.484,3.488c0,0-0.968-0.216-1.142-0.868
				C59.548,47.893,61.172,47.847,62.174,45.272z"/>
		</g>
		<g>
			<path style="fill:#FFFFFF;" d="M55.041,48.715c0,1.88-0.798,3.402-1.783,3.402c-0.986,0-1.784-1.522-1.784-3.402
				c0-1.876,0.798-3.398,1.784-3.398C54.243,45.316,55.041,46.839,55.041,48.715z"/>
			<path style="fill:#DBDCDC;" d="M55.034,48.63c0,0,0.212,3.225-1.485,3.487c0,0-0.967-0.215-1.142-0.869
				C52.407,51.248,54.032,51.2,55.034,48.63z"/>
		</g>
		<g>
			<ellipse style="fill:#FFFFFF;" cx="50.949" cy="48.717" rx="1.784" ry="3.4"/>
			<path style="fill:#DBDCDC;" d="M52.726,48.63c0,0,0.212,3.227-1.484,3.487c0,0-0.967-0.215-1.143-0.869
				C50.099,51.248,51.724,51.202,52.726,48.63z"/>
		</g>
		<g>
			<ellipse style="fill:#FFFFFF;" cx="55.042" cy="45.318" rx="1.785" ry="3.398"/>
			<path style="fill:#DBDCDC;" d="M56.819,45.229c0,0,0.212,3.229-1.485,3.487c0,0-0.967-0.215-1.141-0.868
				C54.193,47.849,55.817,47.804,56.819,45.229z"/>
		</g>
	</g>
	<g>
		<g>
			<ellipse style="fill:#FFFFFF;" cx="9.768" cy="50.868" rx="1.728" ry="3.29"/>
			<path style="fill:#DBDCDC;" d="M11.488,50.781c0,0,0.206,3.126-1.438,3.377c0,0-0.937-0.209-1.106-0.841
				C8.945,53.317,10.518,53.272,11.488,50.781z"/>
		</g>
		<g>
			<ellipse style="fill:#FFFFFF;" cx="5.997" cy="51.972" rx="1.728" ry="3.293"/>
			<path style="fill:#DBDCDC;" d="M7.717,51.888c0,0,0.206,3.123-1.438,3.377c0,0-0.937-0.207-1.105-0.841
				C5.174,54.424,6.747,54.377,7.717,51.888z"/>
		</g>
		<g>
			<ellipse style="fill:#FFFFFF;" cx="3.447" cy="47.447" rx="1.728" ry="3.292"/>
			<path style="fill:#DBDCDC;" d="M5.167,47.361c0,0,0.206,3.126-1.438,3.378c0,0-0.937-0.208-1.105-0.842
				C2.624,49.897,4.196,49.854,5.167,47.361z"/>
		</g>
		<g>
			<ellipse style="fill:#FFFFFF;" cx="8.548" cy="47.533" rx="1.728" ry="3.292"/>
			<path style="fill:#DBDCDC;" d="M10.268,47.448c0,0,0.205,3.125-1.438,3.377c0,0-0.937-0.208-1.105-0.842
				C7.725,49.983,9.296,49.94,10.268,47.448z"/>
		</g>
	</g>
	<g>
		<g>
			<ellipse style="fill:#FFFFFF;" cx="50.505" cy="39.622" rx="1.784" ry="3.399"/>
			<path style="fill:#DBDCDC;" d="M52.282,39.534c0,0,0.211,3.227-1.484,3.487c0,0-0.969-0.215-1.143-0.868
				C49.655,42.153,51.279,42.107,52.282,39.534z"/>
		</g>
		<g>
			<ellipse style="fill:#FFFFFF;" cx="54.88" cy="37.768" rx="1.784" ry="3.399"/>
			<path style="fill:#DBDCDC;" d="M56.656,37.679c0,0,0.213,3.228-1.484,3.488c0,0-0.967-0.215-1.141-0.869
				C54.031,40.298,55.652,40.252,56.656,37.679z"/>
		</g>
		<g>
			<ellipse style="fill:#FFFFFF;" cx="46.968" cy="41.823" rx="1.784" ry="3.401"/>
			<path style="fill:#DBDCDC;" d="M48.744,41.737c0,0,0.212,3.226-1.485,3.487c0,0-0.967-0.214-1.141-0.869
				C46.118,44.355,47.741,44.309,48.744,41.737z"/>
		</g>
		<g>
			<ellipse style="fill:#FFFFFF;" cx="44.658" cy="43.48" rx="1.784" ry="3.399"/>
			<path style="fill:#DBDCDC;" d="M46.436,43.393c0,0,0.21,3.228-1.485,3.487c0,0-0.968-0.215-1.142-0.869
				C43.809,46.011,45.432,45.966,46.436,43.393z"/>
		</g>
		<g>
			<path style="fill:#FFFFFF;" d="M50.069,35.4c0,1.876-0.799,3.398-1.782,3.398c-0.988,0-1.785-1.522-1.785-3.398
				c0-1.879,0.797-3.399,1.785-3.399C49.271,32.001,50.069,33.521,50.069,35.4z"/>
			<path style="fill:#DBDCDC;" d="M50.063,35.313c0,0,0.212,3.227-1.486,3.486c0,0-0.967-0.215-1.14-0.867
				C47.437,37.932,49.06,37.886,50.063,35.313z"/>
		</g>
	</g>
	<g>
		<g>
			<path style="fill:#FFFFFF;" d="M13.73,41.628c0,1.816-0.772,3.289-1.726,3.289c-0.956,0-1.729-1.473-1.729-3.289
				c0-1.82,0.772-3.292,1.729-3.292C12.958,38.336,13.73,39.808,13.73,41.628z"/>
			<path style="fill:#DBDCDC;" d="M13.724,41.542c0,0,0.206,3.125-1.438,3.375c0,0-0.937-0.207-1.105-0.84
				C11.18,44.077,12.753,44.033,13.724,41.542z"/>
		</g>
		<g>
			<ellipse style="fill:#FFFFFF;" cx="8.233" cy="42.732" rx="1.728" ry="3.292"/>
			<path style="fill:#DBDCDC;" d="M9.953,42.647c0,0,0.206,3.125-1.438,3.377c0,0-0.937-0.207-1.106-0.842
				C7.41,45.183,8.982,45.137,9.953,42.647z"/>
		</g>
		<g>
			<ellipse style="fill:#FFFFFF;" cx="5.091" cy="38.804" rx="1.728" ry="3.291"/>
			<path style="fill:#DBDCDC;" d="M6.812,38.719c0,0,0.205,3.124-1.438,3.376c0,0-0.937-0.208-1.105-0.841
				C4.269,41.254,5.841,41.21,6.812,38.719z"/>
		</g>
		<g>
			<ellipse style="fill:#FFFFFF;" cx="10.783" cy="38.293" rx="1.728" ry="3.292"/>
			<path style="fill:#DBDCDC;" d="M12.503,38.209c0,0,0.206,3.123-1.438,3.376c0,0-0.936-0.208-1.104-0.841
				C9.961,40.744,11.533,40.7,12.503,38.209z"/>
		</g>
	</g>
	<g>
		<g>
			<ellipse style="fill:#FFFFFF;" cx="45.143" cy="28.42" rx="1.689" ry="3.218"/>
			<path style="fill:#DBDCDC;" d="M46.825,28.337c0,0,0.2,3.055-1.406,3.301c0,0-0.915-0.203-1.08-0.822
				C44.339,30.815,45.876,30.771,46.825,28.337z"/>
		</g>
		<g>
			<ellipse style="fill:#FFFFFF;" cx="49.688" cy="26.749" rx="1.689" ry="3.217"/>
			<path style="fill:#DBDCDC;" d="M51.369,26.665c0,0,0.201,3.055-1.406,3.301c0,0-0.914-0.202-1.08-0.821
				C48.883,29.145,50.421,29.102,51.369,26.665z"/>
		</g>
		<g>
			<path style="fill:#FFFFFF;" d="M42.206,31.191c0,1.779-0.756,3.222-1.688,3.222c-0.935,0-1.69-1.442-1.69-3.222
				c0-1.775,0.756-3.217,1.69-3.217C41.45,27.975,42.206,29.416,42.206,31.191z"/>
			<path style="fill:#DBDCDC;" d="M42.2,31.111c0,0,0.2,3.053-1.407,3.302c0,0-0.916-0.203-1.079-0.822
				C39.714,33.591,41.251,33.545,42.2,31.111z"/>
		</g>
		<g>
			<ellipse style="fill:#FFFFFF;" cx="34.954" cy="30.861" rx="1.689" ry="3.22"/>
			<path style="fill:#DBDCDC;" d="M36.637,30.778c0,0,0.2,3.056-1.405,3.303c0,0-0.916-0.203-1.081-0.823
				C34.15,33.258,35.687,33.214,36.637,30.778z"/>
		</g>
		<g>
			<ellipse style="fill:#FFFFFF;" cx="43.454" cy="21.581" rx="1.688" ry="3.218"/>
			<path style="fill:#DBDCDC;" d="M45.136,21.498c0,0,0.201,3.055-1.406,3.301c0,0-0.915-0.203-1.079-0.822
				C42.65,23.977,44.188,23.934,45.136,21.498z"/>
		</g>
	</g>
	<g>
		<g>
			<ellipse style="fill:#FFFFFF;" cx="15.716" cy="32.193" rx="1.888" ry="3.596"/>
			<path style="fill:#DBDCDC;" d="M17.596,32.101c0,0,0.225,3.413-1.571,3.688c0,0-1.023-0.228-1.208-0.919
				C14.817,34.87,16.535,34.822,17.596,32.101z"/>
		</g>
		<g>
			<ellipse style="fill:#FFFFFF;" cx="11.595" cy="33.399" rx="1.888" ry="3.6"/>
			<path style="fill:#DBDCDC;" d="M13.476,33.308c0,0,0.224,3.414-1.572,3.691c0,0-1.023-0.228-1.208-0.919
				C10.696,36.08,12.415,36.03,13.476,33.308z"/>
		</g>
		<g>
			<ellipse style="fill:#FFFFFF;" cx="8.162" cy="29.108" rx="1.887" ry="3.597"/>
			<path style="fill:#DBDCDC;" d="M10.043,29.016c0,0,0.224,3.414-1.572,3.689c0,0-1.024-0.228-1.208-0.92
				C7.263,31.785,8.981,31.736,10.043,29.016z"/>
		</g>
		<g>
			<ellipse style="fill:#FFFFFF;" cx="12.494" cy="26.706" rx="1.888" ry="3.597"/>
			<path style="fill:#DBDCDC;" d="M14.374,26.612c0,0,0.224,3.415-1.572,3.69c0,0-1.023-0.228-1.208-0.919
				C11.594,29.384,13.313,29.335,14.374,26.612z"/>
		</g>
	</g>
	<g>
		<ellipse style="fill:#FFFFFF;" cx="23.913" cy="54.639" rx="1.784" ry="3.401"/>
		<path style="fill:#DBDCDC;" d="M25.689,54.553c0,0,0.213,3.226-1.483,3.487c0,0-0.967-0.215-1.141-0.869
			C23.065,57.171,24.687,57.124,25.689,54.553z"/>
	</g>
	<g>
		<g>
			<ellipse style="fill:#FFFFFF;" cx="21.605" cy="54.641" rx="1.784" ry="3.399"/>
			<path style="fill:#DBDCDC;" d="M23.381,54.553c0,0,0.212,3.227-1.484,3.487c0,0-0.967-0.215-1.142-0.869
				C20.755,57.171,22.379,57.125,23.381,54.553z"/>
		</g>
		<g>
			<ellipse style="fill:#FFFFFF;" cx="25.699" cy="51.242" rx="1.785" ry="3.398"/>
			<path style="fill:#DBDCDC;" d="M27.475,51.153c0,0,0.213,3.229-1.484,3.487c0,0-0.967-0.215-1.141-0.868
				C24.85,53.772,26.472,53.728,27.475,51.153z"/>
		</g>
		<g>
			<ellipse style="fill:#FFFFFF;" cx="18.559" cy="54.595" rx="1.784" ry="3.401"/>
			<path style="fill:#DBDCDC;" d="M20.336,54.508c0,0,0.212,3.227-1.484,3.488c0,0-0.968-0.216-1.142-0.87
				C17.709,57.126,19.333,57.08,20.336,54.508z"/>
		</g>
		<g>
			<ellipse style="fill:#FFFFFF;" cx="16.251" cy="54.597" rx="1.784" ry="3.399"/>
			<path style="fill:#DBDCDC;" d="M18.028,54.508c0,0,0.212,3.228-1.484,3.488c0,0-0.968-0.216-1.142-0.87
				C15.401,57.126,17.025,57.081,18.028,54.508z"/>
		</g>
		<g>
			<ellipse style="fill:#FFFFFF;" cx="20.345" cy="51.198" rx="1.784" ry="3.398"/>
			<path style="fill:#DBDCDC;" d="M22.121,51.109c0,0,0.212,3.228-1.485,3.487c0,0-0.967-0.214-1.142-0.868
				C19.494,53.729,21.119,53.683,22.121,51.109z"/>
		</g>
	</g>
	<g>
		<g>
			<path style="fill:#FFFFFF;" d="M25.477,49.521c0,1.875-0.797,3.397-1.782,3.397c-0.988,0-1.786-1.522-1.786-3.397
				c0-1.88,0.798-3.4,1.786-3.4C24.679,46.12,25.477,47.641,25.477,49.521z"/>
			<path style="fill:#DBDCDC;" d="M25.47,49.432c0,0,0.211,3.227-1.485,3.486c0,0-0.967-0.214-1.141-0.867
				C22.844,52.051,24.467,52.005,25.47,49.432z"/>
		</g>
		<g>
			<ellipse style="fill:#FFFFFF;" cx="27.788" cy="46.12" rx="1.785" ry="3.4"/>
			<path style="fill:#DBDCDC;" d="M29.564,46.032c0,0,0.212,3.228-1.484,3.488c0,0-0.968-0.216-1.142-0.869
				C26.938,48.651,28.562,48.605,29.564,46.032z"/>
		</g>
		<g>
			<path style="fill:#FFFFFF;" d="M22.432,49.475c0,1.879-0.798,3.402-1.783,3.402c-0.987,0-1.785-1.523-1.785-3.402
				c0-1.876,0.798-3.399,1.785-3.399C21.634,46.075,22.432,47.599,22.432,49.475z"/>
			<path style="fill:#DBDCDC;" d="M22.424,49.389c0,0,0.212,3.225-1.484,3.488c0,0-0.967-0.215-1.142-0.869
				C19.797,52.008,21.422,51.96,22.424,49.389z"/>
		</g>
		<g>
			<ellipse style="fill:#FFFFFF;" cx="18.339" cy="49.477" rx="1.784" ry="3.4"/>
			<path style="fill:#DBDCDC;" d="M20.116,49.389c0,0,0.212,3.228-1.484,3.488c0,0-0.967-0.215-1.142-0.869
				C17.489,52.008,19.114,51.962,20.116,49.389z"/>
		</g>
		<g>
			<path style="fill:#FFFFFF;" d="M24.217,46.078c0,1.876-0.797,3.398-1.782,3.398c-0.988,0-1.787-1.522-1.787-3.398
				c0-1.88,0.799-3.398,1.787-3.398C23.419,42.68,24.217,44.198,24.217,46.078z"/>
			<path style="fill:#DBDCDC;" d="M24.21,45.989c0,0,0.211,3.228-1.485,3.487c0,0-0.967-0.215-1.141-0.869
				C21.584,48.607,23.207,48.563,24.21,45.989z"/>
		</g>
	</g>
	<g>
		<g>
			<ellipse style="fill:#FFFFFF;" cx="20.343" cy="44.443" rx="1.784" ry="3.4"/>
			<path style="fill:#DBDCDC;" d="M22.12,44.355c0,0,0.212,3.228-1.485,3.488c0,0-0.968-0.215-1.142-0.869
				C19.493,46.975,21.118,46.929,22.12,44.355z"/>
		</g>
		<g>
			<ellipse style="fill:#FFFFFF;" cx="24.718" cy="42.59" rx="1.785" ry="3.398"/>
			<path style="fill:#DBDCDC;" d="M26.494,42.501c0,0,0.213,3.228-1.484,3.487c0,0-0.967-0.214-1.141-0.869
				C23.869,45.119,25.491,45.073,26.494,42.501z"/>
		</g>
		<g>
			<path style="fill:#FFFFFF;" d="M18.59,46.646c0,1.877-0.799,3.399-1.783,3.399c-0.988,0-1.785-1.522-1.785-3.399
				c0-1.878,0.797-3.399,1.785-3.399C17.791,43.247,18.59,44.769,18.59,46.646z"/>
			<path style="fill:#DBDCDC;" d="M18.583,46.56c0,0,0.212,3.226-1.486,3.486c0,0-0.967-0.214-1.141-0.867
				C15.956,49.179,17.579,49.13,18.583,46.56z"/>
		</g>
		<g>
			<ellipse style="fill:#FFFFFF;" cx="14.496" cy="48.302" rx="1.784" ry="3.399"/>
			<path style="fill:#DBDCDC;" d="M16.273,48.214c0,0,0.211,3.229-1.486,3.487c0,0-0.967-0.214-1.141-0.869
				C13.647,50.832,15.27,50.787,16.273,48.214z"/>
		</g>
		<g>
			<ellipse style="fill:#FFFFFF;" cx="18.124" cy="40.222" rx="1.784" ry="3.399"/>
			<path style="fill:#DBDCDC;" d="M19.9,40.134c0,0,0.212,3.227-1.485,3.487c0,0-0.967-0.216-1.141-0.868
				C17.274,42.753,18.897,42.707,19.9,40.134z"/>
		</g>
	</g>
	<g>
		<ellipse style="fill:#FFFFFF;" cx="23.913" cy="54.639" rx="1.784" ry="3.401"/>
		<path style="fill:#DBDCDC;" d="M25.689,54.553c0,0,0.213,3.226-1.483,3.487c0,0-0.967-0.215-1.141-0.869
			C23.065,57.171,24.687,57.124,25.689,54.553z"/>
	</g>
	<g>
		<g>
			<ellipse style="fill:#FFFFFF;" cx="21.605" cy="54.641" rx="1.784" ry="3.399"/>
			<path style="fill:#DBDCDC;" d="M23.381,54.553c0,0,0.212,3.227-1.484,3.487c0,0-0.967-0.215-1.142-0.869
				C20.755,57.171,22.379,57.125,23.381,54.553z"/>
		</g>
		<g>
			<ellipse style="fill:#FFFFFF;" cx="25.699" cy="51.242" rx="1.785" ry="3.398"/>
			<path style="fill:#DBDCDC;" d="M27.475,51.153c0,0,0.213,3.229-1.484,3.487c0,0-0.967-0.215-1.141-0.868
				C24.85,53.772,26.472,53.728,27.475,51.153z"/>
		</g>
		<g>
			<ellipse style="fill:#FFFFFF;" cx="18.559" cy="54.595" rx="1.784" ry="3.401"/>
			<path style="fill:#DBDCDC;" d="M20.336,54.508c0,0,0.212,3.227-1.484,3.488c0,0-0.968-0.216-1.142-0.87
				C17.709,57.126,19.333,57.08,20.336,54.508z"/>
		</g>
		<g>
			<ellipse style="fill:#FFFFFF;" cx="16.251" cy="54.597" rx="1.784" ry="3.399"/>
			<path style="fill:#DBDCDC;" d="M18.028,54.508c0,0,0.212,3.228-1.484,3.488c0,0-0.968-0.216-1.142-0.87
				C15.401,57.126,17.025,57.081,18.028,54.508z"/>
		</g>
		<g>
			<ellipse style="fill:#FFFFFF;" cx="20.345" cy="51.198" rx="1.784" ry="3.398"/>
			<path style="fill:#DBDCDC;" d="M22.121,51.109c0,0,0.212,3.228-1.485,3.487c0,0-0.967-0.214-1.142-0.868
				C19.494,53.729,21.119,53.683,22.121,51.109z"/>
		</g>
	</g>
	<g>
		<g>
			<path style="fill:#FFFFFF;" d="M25.477,49.521c0,1.875-0.797,3.397-1.782,3.397c-0.988,0-1.786-1.522-1.786-3.397
				c0-1.88,0.798-3.4,1.786-3.4C24.679,46.12,25.477,47.641,25.477,49.521z"/>
			<path style="fill:#DBDCDC;" d="M25.47,49.432c0,0,0.211,3.227-1.485,3.486c0,0-0.967-0.214-1.141-0.867
				C22.844,52.051,24.467,52.005,25.47,49.432z"/>
		</g>
		<g>
			<ellipse style="fill:#FFFFFF;" cx="27.788" cy="46.12" rx="1.785" ry="3.4"/>
			<path style="fill:#DBDCDC;" d="M29.564,46.032c0,0,0.212,3.228-1.484,3.488c0,0-0.968-0.216-1.142-0.869
				C26.938,48.651,28.562,48.605,29.564,46.032z"/>
		</g>
		<g>
			<path style="fill:#FFFFFF;" d="M22.432,49.475c0,1.879-0.798,3.402-1.783,3.402c-0.987,0-1.785-1.523-1.785-3.402
				c0-1.876,0.798-3.399,1.785-3.399C21.634,46.075,22.432,47.599,22.432,49.475z"/>
			<path style="fill:#DBDCDC;" d="M22.424,49.389c0,0,0.212,3.225-1.484,3.488c0,0-0.967-0.215-1.142-0.869
				C19.797,52.008,21.422,51.96,22.424,49.389z"/>
		</g>
		<g>
			<ellipse style="fill:#FFFFFF;" cx="18.339" cy="49.477" rx="1.784" ry="3.4"/>
			<path style="fill:#DBDCDC;" d="M20.116,49.389c0,0,0.212,3.228-1.484,3.488c0,0-0.967-0.215-1.142-0.869
				C17.489,52.008,19.114,51.962,20.116,49.389z"/>
		</g>
		<g>
			<path style="fill:#FFFFFF;" d="M24.217,46.078c0,1.876-0.797,3.398-1.782,3.398c-0.988,0-1.787-1.522-1.787-3.398
				c0-1.88,0.799-3.398,1.787-3.398C23.419,42.68,24.217,44.198,24.217,46.078z"/>
			<path style="fill:#DBDCDC;" d="M24.21,45.989c0,0,0.211,3.228-1.485,3.487c0,0-0.967-0.215-1.141-0.869
				C21.584,48.607,23.207,48.563,24.21,45.989z"/>
		</g>
	</g>
	<g>
		<ellipse style="fill:#FFFFFF;" cx="40.067" cy="54.537" rx="1.785" ry="3.399"/>
		<path style="fill:#DBDCDC;" d="M41.844,54.45c0,0,0.213,3.226-1.482,3.486c0,0-0.967-0.214-1.143-0.867
			C39.219,57.069,40.842,57.022,41.844,54.45z"/>
	</g>
	<g>
		<g>
			<path style="fill:#FFFFFF;" d="M39.542,54.539c0,1.875-0.795,3.397-1.782,3.397c-0.986,0-1.785-1.522-1.785-3.397
				c0-1.88,0.799-3.4,1.785-3.4C38.747,51.139,39.542,52.659,39.542,54.539z"/>
			<path style="fill:#DBDCDC;" d="M39.536,54.45c0,0,0.213,3.227-1.485,3.486c0,0-0.967-0.214-1.142-0.867
				C36.909,57.069,38.534,57.023,39.536,54.45z"/>
		</g>
		<g>
			<ellipse style="fill:#FFFFFF;" cx="41.853" cy="51.139" rx="1.785" ry="3.4"/>
			<path style="fill:#DBDCDC;" d="M43.63,51.051c0,0,0.214,3.228-1.483,3.488c0,0-0.968-0.216-1.142-0.87
				C41.005,53.669,42.627,53.624,43.63,51.051z"/>
		</g>
		<g>
			<ellipse style="fill:#FFFFFF;" cx="34.714" cy="54.493" rx="1.783" ry="3.399"/>
			<path style="fill:#DBDCDC;" d="M36.491,54.405c0,0,0.213,3.227-1.485,3.487c0,0-0.968-0.215-1.143-0.868
				C33.863,57.024,35.488,56.979,36.491,54.405z"/>
		</g>
		<g>
			<path style="fill:#FFFFFF;" d="M34.189,54.494c0,1.875-0.798,3.398-1.782,3.398c-0.988,0-1.785-1.523-1.785-3.398
				c0-1.878,0.797-3.399,1.785-3.399C33.392,51.095,34.189,52.616,34.189,54.494z"/>
			<path style="fill:#DBDCDC;" d="M34.183,54.405c0,0,0.213,3.228-1.484,3.487c0,0-0.968-0.215-1.142-0.868
				C31.556,57.024,33.179,56.979,34.183,54.405z"/>
		</g>
		<g>
			<ellipse style="fill:#FFFFFF;" cx="36.499" cy="51.095" rx="1.784" ry="3.399"/>
			<path style="fill:#DBDCDC;" d="M38.276,51.007c0,0,0.212,3.227-1.485,3.487c0,0-0.968-0.215-1.142-0.869
				C35.649,53.625,37.274,53.579,38.276,51.007z"/>
		</g>
	</g>
	<g>
		<g>
			<ellipse style="fill:#FFFFFF;" cx="39.848" cy="49.417" rx="1.785" ry="3.399"/>
			<path style="fill:#DBDCDC;" d="M41.625,49.328c0,0,0.211,3.228-1.485,3.488c0,0-0.967-0.215-1.142-0.869
				C38.998,51.947,40.621,51.901,41.625,49.328z"/>
		</g>
		<g>
			<ellipse style="fill:#FFFFFF;" cx="43.942" cy="46.018" rx="1.785" ry="3.399"/>
			<path style="fill:#DBDCDC;" d="M45.719,45.93c0,0,0.212,3.228-1.483,3.487c0,0-0.969-0.215-1.142-0.869
				C43.094,48.548,44.717,48.502,45.719,45.93z"/>
		</g>
		<g>
			<path style="fill:#FFFFFF;" d="M38.587,49.371c0,1.88-0.799,3.402-1.783,3.402c-0.986,0-1.785-1.522-1.785-3.402
				c0-1.876,0.799-3.398,1.785-3.398C37.788,45.973,38.587,47.495,38.587,49.371z"/>
			<path style="fill:#DBDCDC;" d="M38.578,49.286c0,0,0.212,3.225-1.483,3.487c0,0-0.967-0.215-1.142-0.869
				C35.953,51.904,37.576,51.856,38.578,49.286z"/>
		</g>
		<g>
			<ellipse style="fill:#FFFFFF;" cx="34.495" cy="49.373" rx="1.785" ry="3.4"/>
			<path style="fill:#DBDCDC;" d="M36.27,49.286c0,0,0.213,3.227-1.482,3.487c0,0-0.967-0.215-1.143-0.869
				C33.645,51.904,35.269,51.858,36.27,49.286z"/>
		</g>
		<g>
			<path style="fill:#FFFFFF;" d="M40.371,45.976c0,1.875-0.797,3.397-1.782,3.397c-0.986,0-1.785-1.522-1.785-3.397
				c0-1.88,0.799-3.399,1.785-3.399C39.574,42.576,40.371,44.096,40.371,45.976z"/>
			<path style="fill:#DBDCDC;" d="M40.365,45.887c0,0,0.21,3.228-1.485,3.486c0,0-0.967-0.214-1.142-0.868
				C37.738,48.505,39.361,48.46,40.365,45.887z"/>
		</g>
	</g>
	<g>
		<ellipse style="fill:#FFFFFF;" cx="40.067" cy="54.537" rx="1.785" ry="3.399"/>
		<path style="fill:#DBDCDC;" d="M41.844,54.45c0,0,0.213,3.226-1.482,3.486c0,0-0.967-0.214-1.143-0.867
			C39.219,57.069,40.842,57.022,41.844,54.45z"/>
	</g>
	<g>
		<g>
			<path style="fill:#FFFFFF;" d="M39.542,54.539c0,1.875-0.795,3.397-1.782,3.397c-0.986,0-1.785-1.522-1.785-3.397
				c0-1.88,0.799-3.4,1.785-3.4C38.747,51.139,39.542,52.659,39.542,54.539z"/>
			<path style="fill:#DBDCDC;" d="M39.536,54.45c0,0,0.213,3.227-1.485,3.486c0,0-0.967-0.214-1.142-0.867
				C36.909,57.069,38.534,57.023,39.536,54.45z"/>
		</g>
		<g>
			<ellipse style="fill:#FFFFFF;" cx="41.853" cy="51.139" rx="1.785" ry="3.4"/>
			<path style="fill:#DBDCDC;" d="M43.63,51.051c0,0,0.214,3.228-1.483,3.488c0,0-0.968-0.216-1.142-0.87
				C41.005,53.669,42.627,53.624,43.63,51.051z"/>
		</g>
		<g>
			<ellipse style="fill:#FFFFFF;" cx="34.714" cy="54.493" rx="1.783" ry="3.399"/>
			<path style="fill:#DBDCDC;" d="M36.491,54.405c0,0,0.213,3.227-1.485,3.487c0,0-0.968-0.215-1.143-0.868
				C33.863,57.024,35.488,56.979,36.491,54.405z"/>
		</g>
		<g>
			<path style="fill:#FFFFFF;" d="M34.189,54.494c0,1.875-0.798,3.398-1.782,3.398c-0.988,0-1.785-1.523-1.785-3.398
				c0-1.878,0.797-3.399,1.785-3.399C33.392,51.095,34.189,52.616,34.189,54.494z"/>
			<path style="fill:#DBDCDC;" d="M34.183,54.405c0,0,0.213,3.228-1.484,3.487c0,0-0.968-0.215-1.142-0.868
				C31.556,57.024,33.179,56.979,34.183,54.405z"/>
		</g>
		<g>
			<ellipse style="fill:#FFFFFF;" cx="36.499" cy="51.095" rx="1.784" ry="3.399"/>
			<path style="fill:#DBDCDC;" d="M38.276,51.007c0,0,0.212,3.227-1.485,3.487c0,0-0.968-0.215-1.142-0.869
				C35.649,53.625,37.274,53.579,38.276,51.007z"/>
		</g>
	</g>
	<g>
		<g>
			<ellipse style="fill:#FFFFFF;" cx="39.848" cy="49.417" rx="1.785" ry="3.399"/>
			<path style="fill:#DBDCDC;" d="M41.625,49.328c0,0,0.211,3.228-1.485,3.488c0,0-0.967-0.215-1.142-0.869
				C38.998,51.947,40.621,51.901,41.625,49.328z"/>
		</g>
		<g>
			<ellipse style="fill:#FFFFFF;" cx="43.942" cy="46.018" rx="1.785" ry="3.399"/>
			<path style="fill:#DBDCDC;" d="M45.719,45.93c0,0,0.212,3.228-1.483,3.487c0,0-0.969-0.215-1.142-0.869
				C43.094,48.548,44.717,48.502,45.719,45.93z"/>
		</g>
		<g>
			<path style="fill:#FFFFFF;" d="M38.587,49.371c0,1.88-0.799,3.402-1.783,3.402c-0.986,0-1.785-1.522-1.785-3.402
				c0-1.876,0.799-3.398,1.785-3.398C37.788,45.973,38.587,47.495,38.587,49.371z"/>
			<path style="fill:#DBDCDC;" d="M38.578,49.286c0,0,0.212,3.225-1.483,3.487c0,0-0.967-0.215-1.142-0.869
				C35.953,51.904,37.576,51.856,38.578,49.286z"/>
		</g>
		<g>
			<ellipse style="fill:#FFFFFF;" cx="34.495" cy="49.373" rx="1.785" ry="3.4"/>
			<path style="fill:#DBDCDC;" d="M36.27,49.286c0,0,0.213,3.227-1.482,3.487c0,0-0.967-0.215-1.143-0.869
				C33.645,51.904,35.269,51.858,36.27,49.286z"/>
		</g>
		<g>
			<path style="fill:#FFFFFF;" d="M40.371,45.976c0,1.875-0.797,3.397-1.782,3.397c-0.986,0-1.785-1.522-1.785-3.397
				c0-1.88,0.799-3.399,1.785-3.399C39.574,42.576,40.371,44.096,40.371,45.976z"/>
			<path style="fill:#DBDCDC;" d="M40.365,45.887c0,0,0.21,3.228-1.485,3.486c0,0-0.967-0.214-1.142-0.868
				C37.738,48.505,39.361,48.46,40.365,45.887z"/>
		</g>
	</g>
	<g>
		<ellipse style="fill:#FFFFFF;" cx="32.284" cy="53.729" rx="1.785" ry="3.4"/>
		<path style="fill:#DBDCDC;" d="M34.06,53.643c0,0,0.213,3.227-1.483,3.487c0,0-0.967-0.214-1.141-0.868
			C31.435,56.262,33.058,56.215,34.06,53.643z"/>
	</g>
	<g>
		<g>
			<ellipse style="fill:#FFFFFF;" cx="29.975" cy="53.731" rx="1.784" ry="3.398"/>
			<path style="fill:#DBDCDC;" d="M31.751,53.643c0,0,0.212,3.228-1.484,3.487c0,0-0.967-0.214-1.142-0.868
				C29.125,56.262,30.75,56.216,31.751,53.643z"/>
		</g>
		<g>
			<ellipse style="fill:#FFFFFF;" cx="34.069" cy="50.332" rx="1.785" ry="3.399"/>
			<path style="fill:#DBDCDC;" d="M35.846,50.243c0,0,0.214,3.228-1.484,3.488c0,0-0.967-0.216-1.141-0.869
				C33.221,52.862,34.843,52.817,35.846,50.243z"/>
		</g>
		<g>
			<ellipse style="fill:#FFFFFF;" cx="26.93" cy="53.686" rx="1.784" ry="3.4"/>
			<path style="fill:#DBDCDC;" d="M28.707,53.599c0,0,0.212,3.227-1.485,3.487c0,0-0.968-0.215-1.142-0.869
				C26.08,56.217,27.704,56.171,28.707,53.599z"/>
		</g>
		<g>
			<ellipse style="fill:#FFFFFF;" cx="24.622" cy="53.687" rx="1.784" ry="3.399"/>
			<path style="fill:#DBDCDC;" d="M26.398,53.599c0,0,0.212,3.228-1.484,3.487c0,0-0.968-0.215-1.142-0.869
				C23.772,56.217,25.395,56.172,26.398,53.599z"/>
		</g>
		<g>
			<path style="fill:#FFFFFF;" d="M30.499,50.288c0,1.876-0.797,3.398-1.783,3.398c-0.986,0-1.785-1.522-1.785-3.398
				c0-1.88,0.799-3.4,1.785-3.4C29.702,46.888,30.499,48.408,30.499,50.288z"/>
			<path style="fill:#DBDCDC;" d="M30.491,50.199c0,0,0.212,3.227-1.484,3.487c0,0-0.967-0.215-1.142-0.868
				C27.865,52.818,29.489,52.772,30.491,50.199z"/>
		</g>
	</g>
	<g>
		<g>
			<ellipse style="fill:#FFFFFF;" cx="32.063" cy="48.609" rx="1.784" ry="3.399"/>
			<path style="fill:#DBDCDC;" d="M33.841,48.521c0,0,0.211,3.227-1.486,3.487c0,0-0.967-0.215-1.141-0.869
				C31.214,51.14,32.838,51.094,33.841,48.521z"/>
		</g>
		<g>
			<ellipse style="fill:#FFFFFF;" cx="36.158" cy="45.21" rx="1.785" ry="3.399"/>
			<path style="fill:#DBDCDC;" d="M37.936,45.122c0,0,0.212,3.229-1.485,3.487c0,0-0.968-0.215-1.142-0.868
				C35.309,47.741,36.932,47.695,37.936,45.122z"/>
		</g>
		<g>
			<ellipse style="fill:#FFFFFF;" cx="29.018" cy="48.564" rx="1.784" ry="3.401"/>
			<path style="fill:#DBDCDC;" d="M30.794,48.479c0,0,0.212,3.225-1.485,3.487c0,0-0.967-0.215-1.141-0.868
				C28.168,51.098,29.792,51.049,30.794,48.479z"/>
		</g>
		<g>
			<ellipse style="fill:#FFFFFF;" cx="26.71" cy="48.566" rx="1.784" ry="3.399"/>
			<path style="fill:#DBDCDC;" d="M28.486,48.479c0,0,0.212,3.227-1.484,3.487c0,0-0.967-0.215-1.142-0.868
				C25.86,51.098,27.485,51.052,28.486,48.479z"/>
		</g>
		<g>
			<ellipse style="fill:#FFFFFF;" cx="30.803" cy="45.168" rx="1.784" ry="3.398"/>
			<path style="fill:#DBDCDC;" d="M32.58,45.079c0,0,0.212,3.229-1.485,3.487c0,0-0.967-0.214-1.141-0.869
				C29.954,47.697,31.578,47.652,32.58,45.079z"/>
		</g>
	</g>
	<g>
		<g>
			<ellipse style="fill:#FFFFFF;" cx="28.714" cy="43.534" rx="1.784" ry="3.398"/>
			<path style="fill:#DBDCDC;" d="M30.49,43.446c0,0,0.212,3.227-1.484,3.486c0,0-0.968-0.214-1.142-0.867
				C27.864,46.065,29.488,46.02,30.49,43.446z"/>
		</g>
		<g>
			<path style="fill:#FFFFFF;" d="M34.873,41.68c0,1.876-0.799,3.398-1.783,3.398c-0.987,0-1.786-1.522-1.786-3.398
				c0-1.88,0.799-3.4,1.786-3.4C34.074,38.279,34.873,39.8,34.873,41.68z"/>
			<path style="fill:#DBDCDC;" d="M34.865,41.591c0,0,0.213,3.227-1.485,3.487c0,0-0.967-0.215-1.141-0.868
				C32.239,44.21,33.861,44.164,34.865,41.591z"/>
		</g>
		<g>
			<path style="fill:#FFFFFF;" d="M26.96,45.735c0,1.879-0.799,3.401-1.783,3.401c-0.988,0-1.786-1.522-1.786-3.401
				c0-1.877,0.797-3.398,1.786-3.398C26.162,42.337,26.96,43.858,26.96,45.735z"/>
			<path style="fill:#DBDCDC;" d="M26.953,45.649c0,0,0.212,3.226-1.485,3.487c0,0-0.967-0.215-1.141-0.869
				C24.327,48.268,25.95,48.221,26.953,45.649z"/>
		</g>
		<g>
			<path style="fill:#FFFFFF;" d="M24.65,47.393c0,1.876-0.798,3.399-1.782,3.399c-0.988,0-1.787-1.523-1.787-3.399
				c0-1.879,0.798-3.398,1.787-3.398C23.853,43.994,24.65,45.514,24.65,47.393z"/>
			<path style="fill:#DBDCDC;" d="M24.644,47.304c0,0,0.211,3.229-1.485,3.488c0,0-0.967-0.215-1.141-0.869
				C22.018,49.923,23.641,49.878,24.644,47.304z"/>
		</g>
		<g>
			<ellipse style="fill:#FFFFFF;" cx="26.494" cy="39.312" rx="1.784" ry="3.399"/>
			<path style="fill:#DBDCDC;" d="M28.271,39.224c0,0,0.212,3.227-1.485,3.487c0,0-0.967-0.216-1.141-0.868
				C25.645,41.843,27.268,41.797,28.271,39.224z"/>
		</g>
	</g>
	<g>
		<g>
			<ellipse style="fill:#FFFFFF;" cx="29.843" cy="37.633" rx="1.784" ry="3.4"/>
			<path style="fill:#DBDCDC;" d="M31.619,37.544c0,0,0.212,3.229-1.484,3.489c0,0-0.968-0.216-1.142-0.87
				C28.993,40.163,30.617,40.118,31.619,37.544z"/>
		</g>
		<g>
			<path style="fill:#FFFFFF;" d="M35.721,34.235c0,1.875-0.797,3.397-1.781,3.397c-0.988,0-1.788-1.522-1.788-3.397
				c0-1.88,0.799-3.399,1.788-3.399C34.924,30.836,35.721,32.355,35.721,34.235z"/>
			<path style="fill:#DBDCDC;" d="M35.715,34.146c0,0,0.211,3.227-1.486,3.486c0,0-0.967-0.214-1.141-0.867
				C33.088,36.766,34.712,36.721,35.715,34.146z"/>
		</g>
		<g>
			<ellipse style="fill:#FFFFFF;" cx="26.798" cy="37.588" rx="1.784" ry="3.401"/>
			<path style="fill:#DBDCDC;" d="M28.574,37.502c0,0,0.212,3.225-1.486,3.487c0,0-0.967-0.214-1.141-0.869
				C25.947,40.12,27.571,40.072,28.574,37.502z"/>
		</g>
		<g>
			<ellipse style="fill:#FFFFFF;" cx="24.49" cy="37.59" rx="1.784" ry="3.399"/>
			<path style="fill:#DBDCDC;" d="M26.266,37.502c0,0,0.212,3.229-1.486,3.487c0,0-0.967-0.214-1.141-0.869
				C23.64,40.12,25.263,40.075,26.266,37.502z"/>
		</g>
		<g>
			<path style="fill:#FFFFFF;" d="M30.367,34.192c0,1.875-0.797,3.397-1.783,3.397c-0.988,0-1.786-1.522-1.786-3.397
				c0-1.88,0.797-3.4,1.786-3.4C29.569,30.792,30.367,32.313,30.367,34.192z"/>
			<path style="fill:#DBDCDC;" d="M30.359,34.104c0,0,0.212,3.228-1.484,3.486c0,0-0.968-0.213-1.142-0.867
				C27.733,36.723,29.357,36.677,30.359,34.104z"/>
		</g>
	</g>
	<g>
		<ellipse style="fill:#FFFFFF;" cx="32.284" cy="53.729" rx="1.785" ry="3.4"/>
		<path style="fill:#DBDCDC;" d="M34.06,53.643c0,0,0.213,3.227-1.483,3.487c0,0-0.967-0.214-1.141-0.868
			C31.435,56.262,33.058,56.215,34.06,53.643z"/>
	</g>
	<g>
		<g>
			<ellipse style="fill:#FFFFFF;" cx="29.975" cy="53.731" rx="1.784" ry="3.398"/>
			<path style="fill:#DBDCDC;" d="M31.751,53.643c0,0,0.212,3.228-1.484,3.487c0,0-0.967-0.214-1.142-0.868
				C29.125,56.262,30.75,56.216,31.751,53.643z"/>
		</g>
		<g>
			<ellipse style="fill:#FFFFFF;" cx="34.069" cy="50.332" rx="1.785" ry="3.399"/>
			<path style="fill:#DBDCDC;" d="M35.846,50.243c0,0,0.214,3.228-1.484,3.488c0,0-0.967-0.216-1.141-0.869
				C33.221,52.862,34.843,52.817,35.846,50.243z"/>
		</g>
		<g>
			<ellipse style="fill:#FFFFFF;" cx="26.93" cy="53.686" rx="1.784" ry="3.4"/>
			<path style="fill:#DBDCDC;" d="M28.707,53.599c0,0,0.212,3.227-1.485,3.487c0,0-0.968-0.215-1.142-0.869
				C26.08,56.217,27.704,56.171,28.707,53.599z"/>
		</g>
		<g>
			<ellipse style="fill:#FFFFFF;" cx="24.622" cy="53.687" rx="1.784" ry="3.399"/>
			<path style="fill:#DBDCDC;" d="M26.398,53.599c0,0,0.212,3.228-1.484,3.487c0,0-0.968-0.215-1.142-0.869
				C23.772,56.217,25.395,56.172,26.398,53.599z"/>
		</g>
		<g>
			<path style="fill:#FFFFFF;" d="M30.499,50.288c0,1.876-0.797,3.398-1.783,3.398c-0.986,0-1.785-1.522-1.785-3.398
				c0-1.88,0.799-3.4,1.785-3.4C29.702,46.888,30.499,48.408,30.499,50.288z"/>
			<path style="fill:#DBDCDC;" d="M30.491,50.199c0,0,0.212,3.227-1.484,3.487c0,0-0.967-0.215-1.142-0.868
				C27.865,52.818,29.489,52.772,30.491,50.199z"/>
		</g>
	</g>
	<g>
		<g>
			<ellipse style="fill:#FFFFFF;" cx="32.063" cy="48.609" rx="1.784" ry="3.399"/>
			<path style="fill:#DBDCDC;" d="M33.841,48.521c0,0,0.211,3.227-1.486,3.487c0,0-0.967-0.215-1.141-0.869
				C31.214,51.14,32.838,51.094,33.841,48.521z"/>
		</g>
		<g>
			<ellipse style="fill:#FFFFFF;" cx="36.158" cy="45.21" rx="1.785" ry="3.399"/>
			<path style="fill:#DBDCDC;" d="M37.936,45.122c0,0,0.212,3.229-1.485,3.487c0,0-0.968-0.215-1.142-0.868
				C35.309,47.741,36.932,47.695,37.936,45.122z"/>
		</g>
		<g>
			<ellipse style="fill:#FFFFFF;" cx="29.018" cy="48.564" rx="1.784" ry="3.401"/>
			<path style="fill:#DBDCDC;" d="M30.794,48.479c0,0,0.212,3.225-1.485,3.487c0,0-0.967-0.215-1.141-0.868
				C28.168,51.098,29.792,51.049,30.794,48.479z"/>
		</g>
		<g>
			<ellipse style="fill:#FFFFFF;" cx="26.71" cy="48.566" rx="1.784" ry="3.399"/>
			<path style="fill:#DBDCDC;" d="M28.486,48.479c0,0,0.212,3.227-1.484,3.487c0,0-0.967-0.215-1.142-0.868
				C25.86,51.098,27.485,51.052,28.486,48.479z"/>
		</g>
		<g>
			<ellipse style="fill:#FFFFFF;" cx="30.803" cy="45.168" rx="1.784" ry="3.398"/>
			<path style="fill:#DBDCDC;" d="M32.58,45.079c0,0,0.212,3.229-1.485,3.487c0,0-0.967-0.214-1.141-0.869
				C29.954,47.697,31.578,47.652,32.58,45.079z"/>
		</g>
	</g>
	<g>
		<g>
			<ellipse style="fill:#FFFFFF;" cx="28.714" cy="43.534" rx="1.784" ry="3.398"/>
			<path style="fill:#DBDCDC;" d="M30.49,43.446c0,0,0.212,3.227-1.484,3.486c0,0-0.968-0.214-1.142-0.867
				C27.864,46.065,29.488,46.02,30.49,43.446z"/>
		</g>
		<g>
			<path style="fill:#FFFFFF;" d="M34.873,41.68c0,1.876-0.799,3.398-1.783,3.398c-0.987,0-1.786-1.522-1.786-3.398
				c0-1.88,0.799-3.4,1.786-3.4C34.074,38.279,34.873,39.8,34.873,41.68z"/>
			<path style="fill:#DBDCDC;" d="M34.865,41.591c0,0,0.213,3.227-1.485,3.487c0,0-0.967-0.215-1.141-0.868
				C32.239,44.21,33.861,44.164,34.865,41.591z"/>
		</g>
		<g>
			<path style="fill:#FFFFFF;" d="M26.96,45.735c0,1.879-0.799,3.401-1.783,3.401c-0.988,0-1.786-1.522-1.786-3.401
				c0-1.877,0.797-3.398,1.786-3.398C26.162,42.337,26.96,43.858,26.96,45.735z"/>
			<path style="fill:#DBDCDC;" d="M26.953,45.649c0,0,0.212,3.226-1.485,3.487c0,0-0.967-0.215-1.141-0.869
				C24.327,48.268,25.95,48.221,26.953,45.649z"/>
		</g>
		<g>
			<path style="fill:#FFFFFF;" d="M24.65,47.393c0,1.876-0.798,3.399-1.782,3.399c-0.988,0-1.787-1.523-1.787-3.399
				c0-1.879,0.798-3.398,1.787-3.398C23.853,43.994,24.65,45.514,24.65,47.393z"/>
			<path style="fill:#DBDCDC;" d="M24.644,47.304c0,0,0.211,3.229-1.485,3.488c0,0-0.967-0.215-1.141-0.869
				C22.018,49.923,23.641,49.878,24.644,47.304z"/>
		</g>
		<g>
			<ellipse style="fill:#FFFFFF;" cx="26.494" cy="39.312" rx="1.784" ry="3.399"/>
			<path style="fill:#DBDCDC;" d="M28.271,39.224c0,0,0.212,3.227-1.485,3.487c0,0-0.967-0.216-1.141-0.868
				C25.645,41.843,27.268,41.797,28.271,39.224z"/>
		</g>
	</g>
	<g>
		<g>
			<ellipse style="fill:#FFFFFF;" cx="29.843" cy="37.633" rx="1.784" ry="3.4"/>
			<path style="fill:#DBDCDC;" d="M31.619,37.544c0,0,0.212,3.229-1.484,3.489c0,0-0.968-0.216-1.142-0.87
				C28.993,40.163,30.617,40.118,31.619,37.544z"/>
		</g>
		<g>
			<path style="fill:#FFFFFF;" d="M35.721,34.235c0,1.875-0.797,3.397-1.781,3.397c-0.988,0-1.788-1.522-1.788-3.397
				c0-1.88,0.799-3.399,1.788-3.399C34.924,30.836,35.721,32.355,35.721,34.235z"/>
			<path style="fill:#DBDCDC;" d="M35.715,34.146c0,0,0.211,3.227-1.486,3.486c0,0-0.967-0.214-1.141-0.867
				C33.088,36.766,34.712,36.721,35.715,34.146z"/>
		</g>
		<g>
			<ellipse style="fill:#FFFFFF;" cx="26.798" cy="37.588" rx="1.784" ry="3.401"/>
			<path style="fill:#DBDCDC;" d="M28.574,37.502c0,0,0.212,3.225-1.486,3.487c0,0-0.967-0.214-1.141-0.869
				C25.947,40.12,27.571,40.072,28.574,37.502z"/>
		</g>
		<g>
			<ellipse style="fill:#FFFFFF;" cx="24.49" cy="37.59" rx="1.784" ry="3.399"/>
			<path style="fill:#DBDCDC;" d="M26.266,37.502c0,0,0.212,3.229-1.486,3.487c0,0-0.967-0.214-1.141-0.869
				C23.64,40.12,25.263,40.075,26.266,37.502z"/>
		</g>
		<g>
			<path style="fill:#FFFFFF;" d="M30.367,34.192c0,1.875-0.797,3.397-1.783,3.397c-0.988,0-1.786-1.522-1.786-3.397
				c0-1.88,0.797-3.4,1.786-3.4C29.569,30.792,30.367,32.313,30.367,34.192z"/>
			<path style="fill:#DBDCDC;" d="M30.359,34.104c0,0,0.212,3.228-1.484,3.486c0,0-0.968-0.213-1.142-0.867
				C27.733,36.723,29.357,36.677,30.359,34.104z"/>
		</g>
	</g>
	<g>
		<ellipse style="fill:#FFFFFF;" cx="19.743" cy="20.438" rx="1.785" ry="3.4"/>
		<path style="fill:#DBDCDC;" d="M21.519,20.352c0,0,0.213,3.226-1.483,3.487c0,0-0.967-0.215-1.141-0.868
			C18.895,22.971,20.518,22.924,21.519,20.352z"/>
	</g>
	<g>
		<g>
			<ellipse style="fill:#FFFFFF;" cx="17.435" cy="20.44" rx="1.784" ry="3.398"/>
			<path style="fill:#DBDCDC;" d="M19.211,20.352c0,0,0.212,3.227-1.484,3.487c0,0-0.967-0.215-1.142-0.868
				C16.585,22.971,18.209,22.925,19.211,20.352z"/>
		</g>
		<g>
			<ellipse style="fill:#FFFFFF;" cx="21.529" cy="17.041" rx="1.785" ry="3.399"/>
			<path style="fill:#DBDCDC;" d="M23.306,16.952c0,0,0.213,3.228-1.484,3.488c0,0-0.967-0.216-1.141-0.869
				C20.68,19.571,22.302,19.526,23.306,16.952z"/>
		</g>
		<g>
			<ellipse style="fill:#FFFFFF;" cx="14.39" cy="20.395" rx="1.784" ry="3.4"/>
			<path style="fill:#DBDCDC;" d="M16.166,20.307c0,0,0.212,3.227-1.484,3.488c0,0-0.968-0.216-1.142-0.869
				C13.54,22.926,15.164,22.88,16.166,20.307z"/>
		</g>
		<g>
			<ellipse style="fill:#FFFFFF;" cx="12.082" cy="20.396" rx="1.784" ry="3.399"/>
			<path style="fill:#DBDCDC;" d="M13.858,20.307c0,0,0.212,3.228-1.484,3.488c0,0-0.968-0.216-1.142-0.869
				C11.232,22.926,12.855,22.881,13.858,20.307z"/>
		</g>
		<g>
			<path style="fill:#FFFFFF;" d="M17.958,16.997c0,1.876-0.797,3.398-1.783,3.398c-0.987,0-1.785-1.522-1.785-3.398
				c0-1.88,0.798-3.399,1.785-3.399C17.161,13.598,17.958,15.117,17.958,16.997z"/>
			<path style="fill:#DBDCDC;" d="M17.951,16.908c0,0,0.212,3.227-1.484,3.487c0,0-0.967-0.215-1.142-0.868
				C15.325,19.527,16.949,19.481,17.951,16.908z"/>
		</g>
	</g>
	<g>
		<g>
			<path style="fill:#FFFFFF;" d="M32.166,26.655c0,1.875-0.797,3.398-1.782,3.398c-0.987,0-1.786-1.523-1.786-3.398
				c0-1.88,0.798-3.4,1.786-3.4C31.369,23.255,32.166,24.775,32.166,26.655z"/>
			<path style="fill:#DBDCDC;" d="M32.16,26.566c0,0,0.211,3.227-1.486,3.487c0,0-0.967-0.215-1.141-0.868
				C29.533,29.186,31.156,29.14,32.16,26.566z"/>
		</g>
		<g>
			<ellipse style="fill:#FFFFFF;" cx="34.477" cy="23.255" rx="1.785" ry="3.4"/>
			<path style="fill:#DBDCDC;" d="M36.253,23.167c0,0,0.212,3.228-1.484,3.488c0,0-0.969-0.216-1.141-0.869
				C33.628,25.786,35.251,25.74,36.253,23.167z"/>
		</g>
		<g>
			<ellipse style="fill:#FFFFFF;" cx="27.337" cy="26.609" rx="1.784" ry="3.401"/>
			<path style="fill:#DBDCDC;" d="M29.113,26.523c0,0,0.212,3.225-1.485,3.487c0,0-0.967-0.215-1.142-0.868
				C26.487,29.143,28.111,29.095,29.113,26.523z"/>
		</g>
		<g>
			<ellipse style="fill:#FFFFFF;" cx="25.029" cy="26.611" rx="1.784" ry="3.399"/>
			<path style="fill:#DBDCDC;" d="M26.805,26.523c0,0,0.212,3.227-1.484,3.487c0,0-0.967-0.215-1.142-0.868
				C24.179,29.143,25.803,29.097,26.805,26.523z"/>
		</g>
		<g>
			<path style="fill:#FFFFFF;" d="M30.906,23.213c0,1.876-0.797,3.398-1.782,3.398c-0.987,0-1.787-1.522-1.787-3.398
				c0-1.88,0.799-3.399,1.787-3.399C30.109,19.813,30.906,21.333,30.906,23.213z"/>
			<path style="fill:#DBDCDC;" d="M30.899,23.124c0,0,0.211,3.228-1.485,3.487c0,0-0.967-0.215-1.141-0.869
				C28.273,25.742,29.896,25.697,30.899,23.124z"/>
		</g>
	</g>
	<g>
		<ellipse style="fill:#FFFFFF;" cx="19.743" cy="20.438" rx="1.785" ry="3.4"/>
		<path style="fill:#DBDCDC;" d="M21.519,20.352c0,0,0.213,3.226-1.483,3.487c0,0-0.967-0.215-1.141-0.868
			C18.895,22.971,20.518,22.924,21.519,20.352z"/>
	</g>
	<g>
		<g>
			<ellipse style="fill:#FFFFFF;" cx="20.123" cy="30.318" rx="1.784" ry="3.399"/>
			<path style="fill:#DBDCDC;" d="M21.899,30.23c0,0,0.212,3.227-1.484,3.487c0,0-0.967-0.215-1.142-0.869
				C19.272,32.849,20.897,32.803,21.899,30.23z"/>
		</g>
		<g>
			<ellipse style="fill:#FFFFFF;" cx="24.217" cy="26.919" rx="1.785" ry="3.399"/>
			<path style="fill:#DBDCDC;" d="M25.993,26.831c0,0,0.213,3.228-1.484,3.487c0,0-0.967-0.215-1.141-0.869
				C23.368,29.449,24.99,29.404,25.993,26.831z"/>
		</g>
		<g>
			<ellipse style="fill:#FFFFFF;" cx="17.077" cy="30.272" rx="1.784" ry="3.401"/>
			<path style="fill:#DBDCDC;" d="M18.854,30.186c0,0,0.212,3.227-1.484,3.488c0,0-0.968-0.216-1.142-0.87
				C16.228,32.804,17.852,32.758,18.854,30.186z"/>
		</g>
		<g>
			<ellipse style="fill:#FFFFFF;" cx="14.769" cy="30.274" rx="1.784" ry="3.399"/>
			<path style="fill:#DBDCDC;" d="M16.545,30.186c0,0,0.212,3.228-1.484,3.488c0,0-0.969-0.216-1.142-0.87
				C13.919,32.804,15.542,32.759,16.545,30.186z"/>
		</g>
		<g>
			<path style="fill:#FFFFFF;" d="M20.646,26.876c0,1.875-0.797,3.398-1.783,3.398c-0.986,0-1.785-1.523-1.785-3.398
				c0-1.88,0.798-3.4,1.785-3.4C19.849,23.476,20.646,24.996,20.646,26.876z"/>
			<path style="fill:#DBDCDC;" d="M20.639,26.787c0,0,0.211,3.227-1.485,3.487c0,0-0.967-0.215-1.142-0.869
				C18.012,29.405,19.637,29.359,20.639,26.787z"/>
		</g>
	</g>
	<g>
		<ellipse style="fill:#FFFFFF;" cx="39.572" cy="25.827" rx="1.785" ry="3.401"/>
		<path style="fill:#DBDCDC;" d="M41.349,25.741c0,0,0.212,3.226-1.482,3.487c0,0-0.967-0.215-1.143-0.869
			C38.724,28.359,40.347,28.313,41.349,25.741z"/>
	</g>
	<g>
		<g>
			<ellipse style="fill:#FFFFFF;" cx="40.892" cy="20.047" rx="1.784" ry="3.398"/>
			<path style="fill:#DBDCDC;" d="M42.669,19.958c0,0,0.21,3.228-1.485,3.487c0,0-0.968-0.214-1.142-0.868
				C40.042,22.577,41.665,22.531,42.669,19.958z"/>
		</g>
		<g>
			<ellipse style="fill:#FFFFFF;" cx="44.986" cy="16.647" rx="1.785" ry="3.399"/>
			<path style="fill:#DBDCDC;" d="M46.763,16.559c0,0,0.212,3.229-1.484,3.488c0,0-0.969-0.215-1.142-0.868
				C44.137,19.179,45.761,19.133,46.763,16.559z"/>
		</g>
		<g>
			<path style="fill:#FFFFFF;" d="M39.63,20.001c0,1.88-0.798,3.402-1.782,3.402c-0.986,0-1.785-1.522-1.785-3.402
				c0-1.876,0.799-3.398,1.785-3.398C38.832,16.603,39.63,18.125,39.63,20.001z"/>
			<path style="fill:#DBDCDC;" d="M39.622,19.916c0,0,0.211,3.225-1.483,3.487c0,0-0.967-0.215-1.142-0.869
				C36.997,22.534,38.619,22.486,39.622,19.916z"/>
		</g>
		<g>
			<ellipse style="fill:#FFFFFF;" cx="35.538" cy="20.003" rx="1.784" ry="3.4"/>
			<path style="fill:#DBDCDC;" d="M37.313,19.916c0,0,0.212,3.227-1.482,3.487c0,0-0.967-0.215-1.143-0.869
				C34.688,22.534,36.312,22.488,37.313,19.916z"/>
		</g>
		<g>
			<ellipse style="fill:#FFFFFF;" cx="39.632" cy="16.604" rx="1.784" ry="3.398"/>
			<path style="fill:#DBDCDC;" d="M41.409,16.517c0,0,0.21,3.228-1.486,3.486c0,0-0.967-0.214-1.142-0.868
				C38.781,19.135,40.405,19.09,41.409,16.517z"/>
		</g>
	</g>
	<g>
		<ellipse style="fill:#FFFFFF;" cx="39.572" cy="25.827" rx="1.785" ry="3.401"/>
		<path style="fill:#DBDCDC;" d="M41.349,25.741c0,0,0.212,3.226-1.482,3.487c0,0-0.967-0.215-1.143-0.869
			C38.724,28.359,40.347,28.313,41.349,25.741z"/>
	</g>
	<g>
		<g>
			<ellipse style="fill:#FFFFFF;" cx="40.892" cy="20.047" rx="1.784" ry="3.398"/>
			<path style="fill:#DBDCDC;" d="M42.669,19.958c0,0,0.21,3.228-1.485,3.487c0,0-0.968-0.214-1.142-0.868
				C40.042,22.577,41.665,22.531,42.669,19.958z"/>
		</g>
		<g>
			<ellipse style="fill:#FFFFFF;" cx="44.986" cy="16.647" rx="1.785" ry="3.399"/>
			<path style="fill:#DBDCDC;" d="M46.763,16.559c0,0,0.212,3.229-1.484,3.488c0,0-0.969-0.215-1.142-0.868
				C44.137,19.179,45.761,19.133,46.763,16.559z"/>
		</g>
		<g>
			<path style="fill:#FFFFFF;" d="M39.63,20.001c0,1.88-0.798,3.402-1.782,3.402c-0.986,0-1.785-1.522-1.785-3.402
				c0-1.876,0.799-3.398,1.785-3.398C38.832,16.603,39.63,18.125,39.63,20.001z"/>
			<path style="fill:#DBDCDC;" d="M39.622,19.916c0,0,0.211,3.225-1.483,3.487c0,0-0.967-0.215-1.142-0.869
				C36.997,22.534,38.619,22.486,39.622,19.916z"/>
		</g>
		<g>
			<ellipse style="fill:#FFFFFF;" cx="35.538" cy="20.003" rx="1.784" ry="3.4"/>
			<path style="fill:#DBDCDC;" d="M37.313,19.916c0,0,0.212,3.227-1.482,3.487c0,0-0.967-0.215-1.143-0.869
				C34.688,22.534,36.312,22.488,37.313,19.916z"/>
		</g>
		<g>
			<ellipse style="fill:#FFFFFF;" cx="39.632" cy="16.604" rx="1.784" ry="3.398"/>
			<path style="fill:#DBDCDC;" d="M41.409,16.517c0,0,0.21,3.228-1.486,3.486c0,0-0.967-0.214-1.142-0.868
				C38.781,19.135,40.405,19.09,41.409,16.517z"/>
		</g>
	</g>
	<g>
		<ellipse style="fill:#FFFFFF;" cx="31.788" cy="25.021" rx="1.785" ry="3.4"/>
		<path style="fill:#DBDCDC;" d="M33.563,24.934c0,0,0.214,3.226-1.482,3.487c0,0-0.967-0.215-1.141-0.868
			C30.94,27.553,32.563,27.506,33.563,24.934z"/>
	</g>
	<g>
		<g>
			<ellipse style="fill:#FFFFFF;" cx="29.918" cy="14.947" rx="1.784" ry="3.399"/>
			<path style="fill:#DBDCDC;" d="M31.694,14.86c0,0,0.212,3.227-1.484,3.486c0,0-0.968-0.214-1.142-0.868
				C29.068,17.479,30.693,17.433,31.694,14.86z"/>
		</g>
		<g>
			<ellipse style="fill:#FFFFFF;" cx="34.293" cy="13.094" rx="1.785" ry="3.398"/>
			<path style="fill:#DBDCDC;" d="M36.068,13.005c0,0,0.213,3.228-1.485,3.487c0,0-0.966-0.214-1.14-0.869
				C33.443,15.623,35.065,15.577,36.068,13.005z"/>
		</g>
		<g>
			<ellipse style="fill:#FFFFFF;" cx="26.381" cy="17.149" rx="1.784" ry="3.4"/>
			<path style="fill:#DBDCDC;" d="M28.157,17.063c0,0,0.212,3.226-1.485,3.486c0,0-0.967-0.214-1.141-0.868
				C25.531,19.682,27.154,19.635,28.157,17.063z"/>
		</g>
		<g>
			<ellipse style="fill:#FFFFFF;" cx="24.071" cy="18.807" rx="1.784" ry="3.398"/>
			<path style="fill:#DBDCDC;" d="M25.848,18.719c0,0,0.211,3.228-1.485,3.486c0,0-0.967-0.214-1.141-0.868
				C23.222,21.337,24.845,21.292,25.848,18.719z"/>
		</g>
		<g>
			<ellipse style="fill:#FFFFFF;" cx="27.699" cy="10.726" rx="1.784" ry="3.399"/>
			<path style="fill:#DBDCDC;" d="M29.475,10.638c0,0,0.212,3.227-1.485,3.487c0,0-0.967-0.216-1.141-0.868
				C26.849,13.257,28.472,13.211,29.475,10.638z"/>
		</g>
	</g>
	<g>
		<ellipse style="fill:#FFFFFF;" cx="31.788" cy="25.021" rx="1.785" ry="3.4"/>
		<path style="fill:#DBDCDC;" d="M33.563,24.934c0,0,0.214,3.226-1.482,3.487c0,0-0.967-0.215-1.141-0.868
			C30.94,27.553,32.563,27.506,33.563,24.934z"/>
	</g>
	<g>
		<g>
			<ellipse style="fill:#FFFFFF;" cx="35.273" cy="15.59" rx="1.784" ry="3.399"/>
			<path style="fill:#DBDCDC;" d="M37.049,15.503c0,0,0.213,3.227-1.483,3.486c0,0-0.969-0.214-1.142-0.868
				C34.424,18.121,36.047,18.075,37.049,15.503z"/>
		</g>
		<g>
			<ellipse style="fill:#FFFFFF;" cx="39.648" cy="13.735" rx="1.786" ry="3.398"/>
			<path style="fill:#DBDCDC;" d="M41.424,13.647c0,0,0.213,3.227-1.485,3.486c0,0-0.967-0.214-1.14-0.868
				C38.799,16.266,40.421,16.22,41.424,13.647z"/>
		</g>
		<g>
			<ellipse style="fill:#FFFFFF;" cx="31.736" cy="17.792" rx="1.784" ry="3.4"/>
			<path style="fill:#DBDCDC;" d="M33.511,17.705c0,0,0.213,3.226-1.484,3.487c0,0-0.967-0.215-1.141-0.868
				C30.886,20.324,32.509,20.277,33.511,17.705z"/>
		</g>
		<g>
			<path style="fill:#FFFFFF;" d="M31.209,19.449c0,1.875-0.797,3.398-1.782,3.398c-0.988,0-1.786-1.523-1.786-3.398
				c0-1.88,0.798-3.399,1.786-3.399C30.412,16.05,31.209,17.569,31.209,19.449z"/>
			<path style="fill:#DBDCDC;" d="M31.203,19.36c0,0,0.211,3.228-1.485,3.487c0,0-0.967-0.215-1.141-0.868
				C28.577,21.979,30.2,21.935,31.203,19.36z"/>
		</g>
		<g>
			<ellipse style="fill:#FFFFFF;" cx="33.053" cy="11.367" rx="1.784" ry="3.4"/>
			<path style="fill:#DBDCDC;" d="M34.83,11.28c0,0,0.213,3.227-1.484,3.487c0,0-0.968-0.216-1.142-0.869
				C32.204,13.898,33.827,13.853,34.83,11.28z"/>
		</g>
	</g>
	<g>
		<g>
			<path style="fill:none;stroke:#231815;stroke-width:3.3602;stroke-linecap:round;stroke-linejoin:round;" d="M18.608,37.982
				c0.412,0.713,0.126-1.014,0.534-0.309c0.103,0.178-0.864,1.288-0.788,1.419c0.553,0.958,1.789-2.154,2.275-1.313
				c0.266,0.46-2.86,2.728-2.624,3.137c0.858,1.486,4.956-4.767,5.781-3.338c0.43,0.744-5.873,3.337-5.486,4.006
				c0.845,1.463,5.944-5.445,6.816-3.936c0.545,0.945-8.713,4.617-8.088,5.698c0.856,1.483,9.127-7.541,10.111-5.837
				c0.717,1.242-11.153,5.676-10.521,6.77c0.922,1.598,10.085-8.375,11.19-6.461c0.615,1.065-12.229,6.196-11.446,7.553
				c1.178,2.041,12.062-10.317,13.514-7.802c0.83,1.437-14.579,7.15-13.713,8.65c1.498,2.594,13.3-10.633,14.579-8.417
				c1.038,1.797-15.294,7.732-14.306,9.445c1.216,2.105,14.985-11.222,16.098-9.294c0.786,1.361-17.544,8.276-16.351,10.343
				c1.541,2.669,16.15-13.467,17.944-10.359C35.201,39.8,15.713,48.01,16.584,49.52c1.552,2.688,19.192-14.932,20.86-12.043
				c1.279,2.216-20.697,10.42-19.627,12.272c1.964,3.402,19.557-14.254,20.84-12.031c1.229,2.129-21.872,11.948-20.871,13.682
				c2.193,3.799,21.6-16.551,23.367-13.49c1.772,3.069-24.738,12.074-22.97,15.138c1.662,2.878,22.075-17.055,23.941-13.822
				c1.665,2.885-25.46,13.063-24.013,15.568c2.141,3.708,21.689-15.981,23.187-13.387c1.225,2.122-23.926,11.846-22.515,14.289
				c1.459,2.527,21.313-17.019,23.354-13.483c1.322,2.29-24.362,12.373-23.212,14.365c1.385,2.398,21.179-15.479,22.587-13.041
				c1.13,1.957-23.194,11.381-21.959,13.521c1.98,3.429,20.157-15.19,21.695-12.526c1.138,1.972-22.144,11.081-20.787,13.431
				c1.395,2.416,18.943-15.546,20.938-12.089c1.372,2.376-18.855,10.012-17.889,11.687c1.451,2.514,16.056-13.558,17.912-10.342
				c0.808,1.398-16.293,8.474-15.264,10.255c1.679,2.908,13.671-11.371,15.177-8.763c0.81,1.402-14.567,7.943-13.887,9.122
				c1.143,1.979,12.606-10.807,14.134-8.16c0.812,1.405-12.751,6.297-11.88,7.806c1.298,2.249,10.32-9.214,11.73-6.772
				c0.535,0.927-10.248,6.021-9.616,7.117c1.15,1.992,8.247-7.511,9.437-5.448c0.507,0.878-8.456,4.613-7.988,5.424
				c0.7,1.213,7.202-5.941,7.975-4.604c0.379,0.656-5.557,3.504-5.147,4.212c0.618,1.07,5.038-4.885,5.894-3.403
				c0.302,0.522-4.738,3.272-4.478,3.723c0.733,1.271,3.31-3.344,3.931-2.27c0.187,0.324-2.008,1.935-1.85,2.208
				c0.647,1.122,1.591-1.937,2.032-1.173c0.094,0.163,0.086,1.32,0.165,1.457c0.315,0.548,0.251-0.911,0.583-0.337"/>
		</g>
	</g>
	<g>
		<g>
			<ellipse style="fill:#FFFFFF;" cx="50.505" cy="39.622" rx="1.784" ry="3.399"/>
			<path style="fill:#DBDCDC;" d="M52.282,39.534c0,0,0.211,3.227-1.484,3.487c0,0-0.969-0.215-1.143-0.868
				C49.655,42.153,51.279,42.107,52.282,39.534z"/>
		</g>
		<g>
			<ellipse style="fill:#FFFFFF;" cx="54.88" cy="37.768" rx="1.784" ry="3.399"/>
			<path style="fill:#DBDCDC;" d="M56.656,37.679c0,0,0.213,3.228-1.484,3.488c0,0-0.967-0.215-1.141-0.869
				C54.031,40.298,55.652,40.252,56.656,37.679z"/>
		</g>
		<g>
			<ellipse style="fill:#FFFFFF;" cx="46.968" cy="41.823" rx="1.784" ry="3.401"/>
			<path style="fill:#DBDCDC;" d="M48.744,41.737c0,0,0.212,3.226-1.485,3.487c0,0-0.967-0.214-1.141-0.869
				C46.118,44.355,47.741,44.309,48.744,41.737z"/>
		</g>
		<g>
			<ellipse style="fill:#FFFFFF;" cx="44.658" cy="43.48" rx="1.784" ry="3.399"/>
			<path style="fill:#DBDCDC;" d="M46.436,43.393c0,0,0.21,3.228-1.485,3.487c0,0-0.968-0.215-1.142-0.869
				C43.809,46.011,45.432,45.966,46.436,43.393z"/>
		</g>
		<g>
			<path style="fill:#FFFFFF;" d="M50.069,35.4c0,1.876-0.799,3.398-1.782,3.398c-0.988,0-1.785-1.522-1.785-3.398
				c0-1.879,0.797-3.399,1.785-3.399C49.271,32.001,50.069,33.521,50.069,35.4z"/>
			<path style="fill:#DBDCDC;" d="M50.063,35.313c0,0,0.212,3.227-1.486,3.486c0,0-0.967-0.215-1.14-0.867
				C47.437,37.932,49.06,37.886,50.063,35.313z"/>
		</g>
	</g>
	<g>
		<g>
			<path style="fill:#FFFFFF;" d="M50.81,38.002c0,1.878-0.797,3.399-1.783,3.399c-0.988,0-1.785-1.521-1.785-3.399
				s0.797-3.398,1.785-3.398C50.013,34.604,50.81,36.124,50.81,38.002z"/>
			<path style="fill:#DBDCDC;" d="M50.802,37.914c0,0,0.212,3.228-1.484,3.487c0,0-0.969-0.215-1.142-0.869
				C48.176,40.532,49.8,40.487,50.802,37.914z"/>
		</g>
		<g>
			<path style="fill:#FFFFFF;" d="M54.903,34.604c0,1.876-0.798,3.398-1.782,3.398c-0.987,0-1.786-1.522-1.786-3.398
				c0-1.88,0.799-3.399,1.786-3.399C54.105,31.204,54.903,32.724,54.903,34.604z"/>
			<path style="fill:#DBDCDC;" d="M54.897,34.515c0,0,0.211,3.227-1.486,3.487c0,0-0.967-0.215-1.141-0.868
				C52.271,37.134,53.895,37.089,54.897,34.515z"/>
		</g>
		<g>
			<ellipse style="fill:#FFFFFF;" cx="45.98" cy="37.957" rx="1.784" ry="3.401"/>
			<path style="fill:#DBDCDC;" d="M47.757,37.871c0,0,0.211,3.225-1.485,3.487c0,0-0.968-0.215-1.141-0.869
				C45.131,40.489,46.753,40.441,47.757,37.871z"/>
		</g>
		<g>
			<path style="fill:#FFFFFF;" d="M45.456,37.96c0,1.876-0.798,3.398-1.782,3.398c-0.988,0-1.786-1.522-1.786-3.398
				c0-1.88,0.798-3.399,1.786-3.399C44.658,34.561,45.456,36.08,45.456,37.96z"/>
			<path style="fill:#DBDCDC;" d="M45.448,37.871c0,0,0.212,3.228-1.484,3.487c0,0-0.969-0.215-1.142-0.869
				C42.822,40.489,44.445,40.444,45.448,37.871z"/>
		</g>
		<g>
			<ellipse style="fill:#FFFFFF;" cx="47.766" cy="34.561" rx="1.784" ry="3.399"/>
			<path style="fill:#DBDCDC;" d="M49.542,34.472c0,0,0.212,3.228-1.485,3.488c0,0-0.968-0.215-1.142-0.869
				C46.915,37.091,48.54,37.045,49.542,34.472z"/>
		</g>
	</g>
</g>
</svg>
