<?xml version="1.0" encoding="utf-8"?>
<!-- Generator: Adobe Illustrator 15.0.2, SVG Export Plug-In . SVG Version: 6.00 Build 0)  -->
<!DOCTYPE svg PUBLIC "-//W3C//DTD SVG 1.1//EN" "http://www.w3.org/Graphics/SVG/1.1/DTD/svg11.dtd">
<svg version="1.1" id="レイヤー_1" xmlns="http://www.w3.org/2000/svg" xmlns:xlink="http://www.w3.org/1999/xlink" x="0px"
	 y="0px" width="64px" height="64px" viewBox="0 0 64 64" enable-background="new 0 0 64 64" xml:space="preserve">
<g>
	<g>
		<g>
			
				<linearGradient id="SVGID_1_" gradientUnits="userSpaceOnUse" x1="305.8965" y1="-304.0601" x2="305.8965" y2="-356.8203" gradientTransform="matrix(1 0 0 -1 -274 -298)">
				<stop  offset="0" style="stop-color:#9FE1FF"/>
				<stop  offset="0.2621" style="stop-color:#60A1CE"/>
				<stop  offset="0.5708" style="stop-color:#1B5B97"/>
				<stop  offset="0.7152" style="stop-color:#004082"/>
				<stop  offset="0.7694" style="stop-color:#004487"/>
				<stop  offset="0.8311" style="stop-color:#005094"/>
				<stop  offset="0.8963" style="stop-color:#0064AB"/>
				<stop  offset="0.9636" style="stop-color:#0080CB"/>
				<stop  offset="1" style="stop-color:#0092DF"/>
			</linearGradient>
			<path fill="url(#SVGID_1_)" d="M58.314,50.82c0,4.4-3.601,8-8,8H13.48c-4.4,0-8-3.6-8-8V14.06c0-4.4,3.6-8,8-8h36.834
				c4.399,0,8,3.6,8,8V50.82z"/>
		</g>
		<g opacity="0.22">
			<path fill="#FFFFFF" d="M5.48,26.813c7.381,2.383,16.52,6.126,26.417,6.126c9.898,0,19.037-3.744,26.418-6.126
				c0,0,2.104-13.836-1.918-18.27c-10.805-5.36-37.412-3.354-48.25-0.578C3.723,12.057,5.48,26.813,5.48,26.813z"/>
		</g>
		<g>
			<path fill="none" stroke="#057CDD" stroke-width="2" stroke-miterlimit="10" d="M58.314,50.82c0,4.4-3.601,8-8,8H13.48
				c-4.4,0-8-3.6-8-8V14.06c0-4.4,3.6-8,8-8h36.834c4.399,0,8,3.6,8,8V50.82z"/>
		</g>
	</g>
	<g>
		<path fill="none" stroke="#FFFFFF" stroke-width="3" stroke-miterlimit="10" d="M18.606,16.641c0,0,3.323,1.625,3.323,5.373
			c0,3.749,0,21.366,0,21.366"/>
		<path fill="none" stroke="#FFFFFF" stroke-width="3" stroke-miterlimit="10" d="M21.929,24.575c0,0,2.474-7.588,5.232-7.588
			c2.756,0,3.111,6.464,3.111,7.962c0,1.5,0,18.43,0,18.43"/>
		<path fill="none" stroke="#FFFFFF" stroke-width="3" stroke-miterlimit="10" d="M30.271,24.575c0,0,2.476-7.588,5.233-7.588
			c2.757,0,3.108,6.464,3.108,7.962c0,1.5,0.354,13.824,0.354,18.43c0,3.807,3.338,6.25,9.342,6.25"/>
		<polygon fill="#FFFFFF" points="46.15,46.471 52.344,49.629 46.15,52.787 		"/>
	</g>
</g>
</svg>
