<?xml version="1.0" encoding="utf-8"?>
<!-- Generator: Adobe Illustrator 15.0.2, SVG Export Plug-In . SVG Version: 6.00 Build 0)  -->
<!DOCTYPE svg PUBLIC "-//W3C//DTD SVG 1.1//EN" "http://www.w3.org/Graphics/SVG/1.1/DTD/svg11.dtd">
<svg version="1.1" id="レイヤー_1" xmlns="http://www.w3.org/2000/svg" xmlns:xlink="http://www.w3.org/1999/xlink" x="0px"
	 y="0px" width="64px" height="64px" viewBox="0 0 64 64" enable-background="new 0 0 64 64" xml:space="preserve">
<g>
	<path fill="#FFC392" stroke="#5E2B05" stroke-width="0.9825" stroke-miterlimit="11" d="M60.176,37.09
		c-0.137-0.154-0.281-0.27-0.425-0.363l0.43-1.363c0.095-0.303-0.181-0.658-0.615-0.797c-0.434-0.137-0.863-0.003-0.959,0.299
		l-0.533,1.688c-0.147,0.049-0.237,0.096-0.237,0.096l-1.794-0.605l-0.865,1.328l1.315,1.481c0,0,2.867,1.094,3.148,1.332
		C59.921,40.427,61.192,38.229,60.176,37.09z"/>
	<path fill="#83CFEA" stroke="#3873E8" stroke-width="0.9825" stroke-miterlimit="11" d="M58.394,29.95
		c-2.155,1.882-2.353,0.316-2.353,0.316l-3.49-17.1l1.395-0.348C53.945,12.818,55.909,20.388,58.394,29.95z"/>
	<path fill="#DADBDB" stroke="#717071" stroke-width="0.9825" stroke-miterlimit="11" d="M33.225,32.121l-1.972-2.981l12.289-8.123
		c0,0,2.873-1.199,4.294,1.172c1.422,2.37-0.604,3.339-0.604,3.339l-13.046,8.291L33.225,32.121z"/>
	<path fill="#A0A0A0" d="M33.095,31.031c0,0,11.584-5.976,14.021-7.409l-5.997,8.5l-6.222,1.75L33.095,31.031z"/>
	<path fill="#83CFEA" stroke="#3873E8" stroke-width="0.9825" stroke-miterlimit="11" d="M20.187,31.137l-0.812-2.512
		c0,0-9.859,2.161-18.128,1.535c0.246,1.961,0.164,3.535,0.164,3.535s1.885,1.309,7.182,1.344
		C13.889,35.072,14.727,33.719,20.187,31.137z"/>
	<path fill="#13ADD1" d="M7.469,34.361c0,0,3.82,0.609,8.269-1.307l1.005-2.789C16.743,30.266,10.99,31.879,7.469,34.361z"/>
	<path fill="#717C7F" stroke="#02080C" stroke-width="0.9825" stroke-miterlimit="11" d="M37.862,31.481l-6.102,2.183
		c0,0-2.788-2.469-5.168-1.981l-5.468-0.878l-1.726-1.981l-7.131,3.873c0,0-0.554,1.856,3.765,0.665l6.204,0.703l7.496,4.853
		l7.436-2.622L37.862,31.481z"/>
	<polygon fill="#717C7F" stroke="#02080C" stroke-width="0.9825" stroke-miterlimit="11" points="52.792,30.16 54.873,34.807 
		56.957,36.133 55.78,38.563 52.253,36.652 49.414,32.373 	"/>
	<path fill="#717C7F" stroke="#02080C" stroke-width="0.9825" stroke-miterlimit="11" d="M51.746,24.501l3.127,4.323l-5.044,5.537
		c0,0-3.77,1.638-6.24,1.568l2.278-10.138L51.746,24.501z"/>
	<path fill="#FFC392" stroke="#5E2B05" stroke-width="0.9825" stroke-miterlimit="11" d="M47.141,33.864l1.185,2.39
		c0,0,0.438-0.217,0.986,1.15c0.547,1.368-1.261,2.489-1.492,2.681c-0.23,0.193-2.779-1.627-2.779-1.627s0.556-1.32,0.804-1.934
		l-0.657-2.11L47.141,33.864z"/>
	
		<ellipse transform="matrix(0.9941 -0.1085 0.1085 0.9941 -2.3731 6.1587)" fill="#FFC392" stroke="#5E2B05" stroke-width="0.9825" stroke-miterlimit="11" cx="55.426" cy="24.893" rx="3.613" ry="4.145"/>
	<path fill="#83CFEA" stroke="#3873E8" stroke-width="0.9825" stroke-miterlimit="11" d="M52.872,24.849
		c0,0,3.696,0.348,5.142,1.874l0.934-1.176c0,0-4.803-2.375-6.075-1.925V24.849z"/>
	<path fill="#83CFEA" stroke="#3873E8" stroke-width="0.9825" stroke-miterlimit="11" d="M54.199,24.762c0,0,0.2,1.069,1.204,1.043
		c1.005-0.026,2.533-0.632,2.491-1.793c-0.043-1.16-0.814-2.083-1.063-2.056C56.582,21.984,53.982,22.016,54.199,24.762z"/>
	<path fill="none" stroke="#231815" stroke-width="0.9825" stroke-miterlimit="11" d="M54.873,29.033c0,0,2.879,5.608-3.678,4.662"
		/>
	<path fill="#FFC729" stroke="#664304" stroke-width="0.9825" stroke-miterlimit="6" d="M54.066,19.662c0,0,0.072-1.822,3.069-1.761
		c2.996,0.061,4.287-0.001,4.287-0.001l-2.077,1.804l2.896-0.38l-1.921,2.016l2.398,0.413l-1.46,1.869l0.246,1.925l-3.046-2.854
		l0.058,1.892l-2.086-2.054l-1.396,1.182l-0.702-1.773l-1.31,2.894l-0.671-2.91l-1.157,0.704
		C51.195,22.627,51.57,18.058,54.066,19.662z"/>
	
		<rect x="42.766" y="20.56" transform="matrix(0.8822 -0.4709 0.4709 0.8822 -5.9691 23.2676)" fill="#3E3A39" stroke="#1C0403" stroke-width="0.9825" stroke-miterlimit="11" width="1.51" height="6.009"/>
	<path fill="#83CFEA" stroke="#3873E8" stroke-width="0.9825" stroke-miterlimit="11" d="M59.018,24.501l-1.122,2.482l0.789,0.837
		c0,0,1.416-1.33,1.308-2.325C59.884,24.501,59.018,24.501,59.018,24.501z"/>
	<path fill="#3E3A39" stroke="#1C0403" stroke-width="0.9825" stroke-miterlimit="11" d="M47.115,23.622c0,0,2.499-1.61,3.972-0.847
		c1.474,0.763,2.705,3.702,2.705,3.702l-2.17,1.612l-5.485-3.431L47.115,23.622z"/>
	<path fill="#717C7F" stroke="#02080C" stroke-width="0.9825" stroke-miterlimit="11" d="M43.589,35.93
		c1.766-1.386,0.21-4.987-0.621-5.309c-0.832-0.323-4.958-1.971-6.839,3.858c0,0-4.454,2.248-5.727,2.891
		c0,0-3.318-2.719-6.052-2.391s-2.407-0.525-2.407-0.525s-1.255-1.493-1.909-1.33l-2.901,2.643c0,0-1.327,2.44-0.987,2.487
		c0.341,0.047,3.292-1.366,3.292-1.366l9.97,5.218C29.408,42.104,36.587,41.433,43.589,35.93z"/>
	<path fill="none" stroke="#9D9D9E" stroke-width="0.9825" stroke-miterlimit="10" d="M19.754,35.039l2.615,1.613
		c0,0,6.632,2.888,7.287,3.464s1.596-0.016,1.596-0.016s8.637-2.912,11.667-5.294"/>
	<path fill="#3E3A39" stroke="#1C0403" stroke-width="0.9825" stroke-miterlimit="11" d="M51.367,25.336
		c0,0-3.826,6.051-5.182,6.702c-1.354,0.651-0.888-2.757-0.888-2.757l2.806-2.948l0.381-1.376l1.652-1.336L51.367,25.336z"/>
	<polygon fill="#3E3A39" stroke="#1C0403" stroke-width="0.9825" stroke-miterlimit="11" points="53.792,29.439 52.079,31.866 
		52.31,33.972 50.676,35.492 45.867,30.646 47.701,27.47 51.387,31.241 53.26,28.413 	"/>
	<polygon fill="#3E3A39" stroke="#1C0403" stroke-width="0.9825" stroke-miterlimit="11" points="42.475,31.856 41.855,36.959 
		44.544,37.757 45.187,34.414 	"/>
	<polygon fill="#3E3A39" stroke="#1C0403" stroke-width="0.9825" stroke-miterlimit="11" points="40.053,28.74 43.303,33.695 
		44.298,31.657 43.589,26.205 	"/>
	<path fill="#83CFEA" stroke="#3873E8" stroke-width="0.9825" stroke-miterlimit="11" d="M19.754,34.396l-0.902-1.341l-6.608,4.444
		l-7.818,10.26c0,0,2.085,2.961,4.059,1.822c1.974-1.139,8.713-12.45,8.713-12.45L19.754,34.396z"/>
	<path fill="#3E3A39" stroke="#231815" stroke-width="0.9825" stroke-miterlimit="11" d="M55.153,27.199
		c-1.106-0.751-2.188-1.089-2.415-0.756l-1.116,1.646c-0.225,0.333,0.489,1.213,1.598,1.962c1.107,0.751,2.188,1.09,2.414,0.757
		l1.116-1.647C56.977,28.828,56.261,27.949,55.153,27.199z"/>
	<path fill="#717C7F" stroke="#02080C" stroke-width="0.9825" stroke-miterlimit="11" d="M44.893,24.793c0,0,3.84-2.087,4.621,0.052
		c0.78,2.139-1.889,3.847-1.889,3.847l-0.945,0.943l1.641,5.107l-3.646,1.91l-1.746-6.776
		C42.929,29.876,42.669,25.965,44.893,24.793z"/>
	<polygon fill="#13ADD1" points="12.791,37.757 9.434,45.358 5.095,47.733 	"/>
	<g>
		
			<ellipse fill="none" stroke="#76F2FF" stroke-width="0.6542" stroke-miterlimit="10" cx="37.027" cy="22.343" rx="0.934" ry="0.974"/>
		<ellipse fill="#FFFFFF" cx="37.027" cy="22.343" rx="0.934" ry="0.974"/>
	</g>
	<g>
		
			<ellipse fill="none" stroke="#76F2FF" stroke-width="0.9668" stroke-miterlimit="10" cx="33.312" cy="17.749" rx="1.177" ry="1.248"/>
		<ellipse fill="#FFFFFF" cx="33.312" cy="17.749" rx="1.177" ry="1.248"/>
	</g>
	<g>
		
			<ellipse fill="none" stroke="#76F2FF" stroke-width="0.9068" stroke-miterlimit="10" cx="37.495" cy="10.926" rx="2.131" ry="2.152"/>
		<ellipse fill="#FFFFFF" cx="37.495" cy="10.926" rx="2.131" ry="2.152"/>
	</g>
	<path fill="#B7F6F9" d="M32.581,17.749c-0.364,0.375-0.223-0.818,0.731-0.773C34.266,17.022,32.961,17.357,32.581,17.749z"/>
	<path fill="#B7F6F9" d="M37.027,22.536c-0.63,0.584-0.831-0.763-0.628-0.909C36.601,21.48,37.623,21.984,37.027,22.536z"/>
	<path fill="#B7F6F9" d="M37.396,12.747c-1.031,0.227,0.349-3.679,1.118-2.895C39.284,10.635,39.243,12.341,37.396,12.747z"/>
</g>
</svg>
