<?xml version="1.0" encoding="iso-8859-1"?>
<!-- Generator: Adobe Illustrator 15.0.2, SVG Export Plug-In . SVG Version: 6.00 Build 0)  -->
<!DOCTYPE svg PUBLIC "-//W3C//DTD SVG 1.1//EN" "http://www.w3.org/Graphics/SVG/1.1/DTD/svg11.dtd">
<svg version="1.1" id="&#x30EC;&#x30A4;&#x30E4;&#x30FC;_1"
	 xmlns="http://www.w3.org/2000/svg" xmlns:xlink="http://www.w3.org/1999/xlink" x="0px" y="0px" width="64px" height="64px"
	 viewBox="0 0 64 64" style="enable-background:new 0 0 64 64;" xml:space="preserve">
<g>
	
		<ellipse style="fill:#F7B52C;stroke:#40210F;stroke-width:2;stroke-miterlimit:2;" cx="43.063" cy="37.688" rx="16.875" ry="18.125"/>
	<path style="fill:none;stroke:#40210F;stroke-width:2;stroke-miterlimit:2;" d="M45.438,41.063c2.875,0,6.375-6,1.375-8.625
		s-12.875,1.75-10.5,10.125s11.5,11.875,14,11.75"/>
	<path style="fill:#FFD199;stroke:#40210F;stroke-width:2;stroke-miterlimit:2;" d="M51.563,53.188c-4.625-0.25-15.75,0-18.5,0
		c0,0-2.625-5.375-6.5-9.125c3.75,0.75,7.5-7,7.5-9.625s0-6.75-3.75-10.125c-0.143-0.129-0.319-0.247-0.489-0.368l1.364-9.257
		l-3.75-0.25c-0.495,2.309-1.259,5.805-1.724,7.924c-3.208-0.604-7.212-0.289-10.422,1.662c-1.705-4.125-1.711-9.086-1.711-9.086
		L9.339,15.94c-0.706,4.936,1.672,9.066,2.911,10.83c-0.388,0.512-0.751,1.056-1.062,1.667c-4.125,8.125,2.375,12.375,4.25,12.5
		c0,0-2.5,1.875-2.25,3.75c0,0-8.25,1.5-7.125,7.375s6.625,7.5,20.5,7.5c13,0,34.125,0,34.125,0S56.188,53.438,51.563,53.188z"/>
	<circle style="fill:#FFFFFF;stroke:#40210F;stroke-width:2;stroke-miterlimit:2;" cx="9.563" cy="10.688" r="6.25"/>
	<ellipse style="fill:#40210F;" cx="11.739" cy="10.813" rx="3.698" ry="4.125"/>
	<polyline style="fill:none;stroke:#40210F;stroke-width:2;stroke-miterlimit:2;" points="14.563,35.063 18.063,40.563 
		25.063,34.688 	"/>
	<circle style="fill:#FFFFFF;stroke:#40210F;stroke-width:2;stroke-miterlimit:2;" cx="29.438" cy="10.688" r="6.25"/>
	<ellipse style="fill:#40210F;" cx="31.558" cy="10.875" rx="3.754" ry="4.188"/>
	<path style="fill:none;stroke:#F4A44D;stroke-width:2;stroke-miterlimit:10;" d="M11.938,17.813c0,0,0.125,4,2.375,7.75"/>
	<path style="fill:none;stroke:#F4A44D;stroke-width:2;stroke-miterlimit:10;" d="M28.938,18.438l-1,6.25
		c0,0,4.375,2.125,4.25,9.125s-6.25,9.75-6.25,9.75l-1,1.5c0,0,5,6.125,6.75,9.5"/>
	<ellipse style="fill:#FDFEFF;" cx="9.375" cy="7.875" rx="1.563" ry="1.313"/>
	<ellipse style="fill:#FDFEFF;" cx="30.188" cy="7.938" rx="1.625" ry="1.25"/>
	<path style="fill:none;stroke:#F4A44D;stroke-width:2;stroke-miterlimit:10;" d="M52.563,55.313l3,2.125l-9.5,0.375
		c0,0-9.15,0.25-22.297-0.125c-13.147-0.375-14.078-2.75-14.078-2.75"/>
	<path style="fill:none;stroke:#DB7D00;stroke-miterlimit:2;" d="M45.938,39.813c0,0,2.125-1.375,2-4.75s-11.875-2.25-10.875,5.25
		s9.125,11.25,9.625,11.25s4.625-0.125,4.625-0.125l6.25-8"/>
	<polyline style="fill:none;stroke:#DB7D00;stroke-miterlimit:2;" points="29.563,44.563 34.438,51.688 40.688,51.563 	"/>
	<g>
		<line style="fill:none;stroke:#FF66AF;stroke-width:3;stroke-miterlimit:10;" x1="12.227" y1="28.867" x2="13.656" y2="27.679"/>
		<line style="fill:none;stroke:#FF66AF;stroke-width:3;stroke-miterlimit:10;" x1="14.234" y1="28.532" x2="15.898" y2="27.258"/>
	</g>
	<g>
		<line style="fill:none;stroke:#FF66AF;stroke-width:3;stroke-miterlimit:10;" x1="27.477" y1="27.742" x2="28.906" y2="26.554"/>
		<line style="fill:none;stroke:#FF66AF;stroke-width:3;stroke-miterlimit:10;" x1="29.484" y1="27.407" x2="31.148" y2="26.133"/>
	</g>
</g>
</svg>
