<?xml version="1.0" encoding="utf-8"?>
<!-- Generator: Adobe Illustrator 15.0.2, SVG Export Plug-In . SVG Version: 6.00 Build 0)  -->
<!DOCTYPE svg PUBLIC "-//W3C//DTD SVG 1.1//EN" "http://www.w3.org/Graphics/SVG/1.1/DTD/svg11.dtd">
<svg version="1.1" id="レイヤー_1" xmlns="http://www.w3.org/2000/svg" xmlns:xlink="http://www.w3.org/1999/xlink" x="0px"
	 y="0px" width="64px" height="64px" viewBox="0 0 64 64" enable-background="new 0 0 64 64" xml:space="preserve">
<g>
	<g>
		<path fill="#F70000" stroke="#020000" stroke-width="1.0402" stroke-miterlimit="10" d="M20.991,23.207
			c0,0-0.385,8.971-0.896,11.827c-0.594,3.329-2.71,9.417-2.71,9.417l2.686,1.713c0,0,6.123-4.676,9.271-6.783
			c1.886-1.264,10.253-5.381,10.253-5.381s-1.079-0.487-1.3-0.241c-2.161,2.435-18.43,6.561-16.457-10.066
			C21.627,23.567,20.991,23.207,20.991,23.207z M20.924,42.546c0,0-0.544-4.708,2.157-11.131l6.92,4.801
			C30.001,36.216,27.178,39.945,20.924,42.546z"/>
		<g>
			<g>
				
					<line fill="none" stroke="#C8C9CA" stroke-width="0.5419" stroke-miterlimit="10" x1="35.258" y1="4.658" x2="49.934" y2="14.631"/>
				
					<line fill="none" stroke="#C8C9CA" stroke-width="0.5346" stroke-miterlimit="10" x1="33.888" y1="5.435" x2="50.06" y2="16.425"/>
				
					<line fill="none" stroke="#C8C9CA" stroke-width="0.5672" stroke-miterlimit="10" x1="37.106" y1="4.203" x2="49.677" y2="12.747"/>
				
					<line fill="none" stroke="#C8C9CA" stroke-width="0.5605" stroke-miterlimit="10" x1="39.523" y1="4.137" x2="49.271" y2="10.762"/>
				
					<line fill="none" stroke="#C8C9CA" stroke-width="0.5433" stroke-miterlimit="10" x1="32.339" y1="6.091" x2="49.557" y2="17.793"/>
				
					<line fill="none" stroke="#C8C9CA" stroke-width="0.5278" stroke-miterlimit="10" x1="31.075" y1="6.943" x2="49.324" y2="19.346"/>
				
					<line fill="none" stroke="#C8C9CA" stroke-width="0.526" stroke-miterlimit="10" x1="29.899" y1="7.853" x2="48.53" y2="20.515"/>
				
					<line fill="none" stroke="#C8C9CA" stroke-width="0.506" stroke-miterlimit="10" x1="29.307" y1="9.16" x2="47.871" y2="21.776"/>
				
					<line fill="none" stroke="#C8C9CA" stroke-width="0.506" stroke-miterlimit="10" x1="28.31" y1="10.191" x2="47.411" y2="23.174"/>
				
					<line fill="none" stroke="#C8C9CA" stroke-width="0.506" stroke-miterlimit="10" x1="27.202" y1="11.148" x2="46.814" y2="24.477"/>
				
					<line fill="none" stroke="#C8C9CA" stroke-width="0.506" stroke-miterlimit="10" x1="26.407" y1="12.318" x2="46.021" y2="25.647"/>
				
					<line fill="none" stroke="#C8C9CA" stroke-width="0.506" stroke-miterlimit="10" x1="25.615" y1="13.488" x2="45.497" y2="27.001"/>
				
					<line fill="none" stroke="#C8C9CA" stroke-width="0.506" stroke-miterlimit="10" x1="25.13" y1="14.868" x2="44.431" y2="27.985"/>
				
					<line fill="none" stroke="#C8C9CA" stroke-width="0.506" stroke-miterlimit="10" x1="24.025" y1="15.827" x2="43.811" y2="29.274"/>
				
					<line fill="none" stroke="#C8C9CA" stroke-width="0.506" stroke-miterlimit="10" x1="23.541" y1="17.207" x2="42.643" y2="30.189"/>
				
					<line fill="none" stroke="#C8C9CA" stroke-width="0.506" stroke-miterlimit="10" x1="23.279" y1="18.739" x2="41.629" y2="31.212"/>
				
					<line fill="none" stroke="#C8C9CA" stroke-width="0.506" stroke-miterlimit="10" x1="22.802" y1="20.125" x2="40.485" y2="32.142"/>
				
					<line fill="none" stroke="#C8C9CA" stroke-width="0.506" stroke-miterlimit="10" x1="22.593" y1="21.692" x2="38.958" y2="32.814"/>
				
					<line fill="none" stroke="#C8C9CA" stroke-width="0.5261" stroke-miterlimit="10" x1="22.188" y1="23.126" x2="38.333" y2="34.099"/>
				
					<line fill="none" stroke="#C8C9CA" stroke-width="0.5261" stroke-miterlimit="10" x1="22.327" y1="24.93" x2="36.762" y2="34.74"/>
				
					<line fill="none" stroke="#C8C9CA" stroke-width="0.5442" stroke-miterlimit="10" x1="22.005" y1="26.422" x2="34.594" y2="34.977"/>
				
					<line fill="none" stroke="#C8C9CA" stroke-width="0.5272" stroke-miterlimit="10" x1="22.908" y1="28.743" x2="32.261" y2="35.099"/>
			</g>
			<g>
				
					<line fill="none" stroke="#C8C9CA" stroke-width="0.5183" stroke-miterlimit="10" x1="32.057" y1="6.507" x2="22.507" y2="20.559"/>
				
					<line fill="none" stroke="#C8C9CA" stroke-width="0.5183" stroke-miterlimit="10" x1="34.924" y1="4.958" x2="22.042" y2="23.915"/>
				
					<line fill="none" stroke="#C8C9CA" stroke-width="0.5183" stroke-miterlimit="10" x1="37.206" y1="4.272" x2="22.5" y2="25.912"/>
				
					<line fill="none" stroke="#C8C9CA" stroke-width="0.5183" stroke-miterlimit="10" x1="39.244" y1="3.947" x2="22.909" y2="27.982"/>
				
					<line fill="none" stroke="#C8C9CA" stroke-width="0.5183" stroke-miterlimit="10" x1="41.002" y1="4.035" x2="23.479" y2="29.818"/>
				
					<line fill="none" stroke="#C8C9CA" stroke-width="0.5183" stroke-miterlimit="10" x1="42.486" y1="4.523" x2="24.067" y2="31.624"/>
				
					<line fill="none" stroke="#C8C9CA" stroke-width="0.5183" stroke-miterlimit="10" x1="43.866" y1="5.162" x2="25.074" y2="32.814"/>
				
					<line fill="none" stroke="#C8C9CA" stroke-width="0.5183" stroke-miterlimit="10" x1="45.161" y1="5.931" x2="26.291" y2="33.695"/>
				
					<line fill="none" stroke="#C8C9CA" stroke-width="0.5183" stroke-miterlimit="10" x1="46.608" y1="6.475" x2="27.492" y2="34.603"/>
				
					<line fill="none" stroke="#C8C9CA" stroke-width="0.5183" stroke-miterlimit="10" x1="47.524" y1="7.795" x2="29.036" y2="35.001"/>
				
					<line fill="none" stroke="#C8C9CA" stroke-width="0.5183" stroke-miterlimit="10" x1="48.455" y1="9.101" x2="30.502" y2="35.518"/>
				
					<line fill="none" stroke="#C8C9CA" stroke-width="0.5135" stroke-miterlimit="10" x1="49.184" y1="10.702" x2="32.175" y2="35.729"/>
				
					<line fill="none" stroke="#C8C9CA" stroke-width="0.5115" stroke-miterlimit="10" x1="49.87" y1="12.363" x2="34.531" y2="34.933"/>
				
					<line fill="none" stroke="#C8C9CA" stroke-width="0.5183" stroke-miterlimit="10" x1="50.076" y1="14.728" x2="36.567" y2="34.608"/>
				
					<line fill="none" stroke="#C8C9CA" stroke-width="0.5183" stroke-miterlimit="10" x1="49.447" y1="18.327" x2="39.397" y2="33.114"/>
			</g>
		</g>
		<path fill="#F70000" stroke="#020000" stroke-width="1.0561" stroke-miterlimit="10" d="M45.877,4.482
			c-8.348-5.672-15.601-0.71-21.274,7.637c-5.673,8.348-5.785,18.926,0.376,23.114c7.09,4.819,16.311,0.813,21.984-7.536
			C52.638,19.35,54.293,10.202,45.877,4.482z M26.4,33.715c-5.631-3.826-5.671-13.042-0.486-20.671
			C31.098,5.415,37.729,0.88,45.357,6.064c6.519,4.431,5.384,13.221,0.199,20.851C40.372,34.544,32.028,37.54,26.4,33.715z"/>
		<path fill="#3E3A39" stroke="#020000" stroke-width="1.0402" stroke-miterlimit="10" d="M11.042,61.047l-1.104,0.729l-2.714-1.731
			l0.236-1.28c0,0,4.083-6.403,10.208-15.067c0.884-0.183,3.043,1.941,3.043,1.941S12.685,57.845,11.042,61.047z"/>
		<g>
			<path fill="#050200" d="M17.342,43.992c0,0,1.96-0.292,2.979,2.103l-1.362,2.137c0,0-0.017-1.952-3.16-2.017L17.342,43.992z"/>
			<path fill="#050200" d="M15.603,46.719c0,0,1.961-0.293,2.979,2.104l-1.361,2.134c0,0-0.018-1.949-3.161-2.015L15.603,46.719z"/>
			<path fill="#050200" d="M13.496,50.023c0,0,1.96-0.292,2.979,2.104l-1.362,2.135c0,0-0.018-1.949-3.161-2.015L13.496,50.023z"/>
			<path fill="#050200" d="M11.431,53.262c0,0,1.961-0.293,2.98,2.102l-1.362,2.136c0,0-0.018-1.949-3.161-2.017L11.431,53.262z"/>
			<path fill="#050200" d="M9.355,56.516c0,0,1.961-0.293,2.979,2.104l-1.363,2.135c0,0-0.017-1.95-3.16-2.015L9.355,56.516z"/>
		</g>
	</g>
	<g>
		
			<linearGradient id="SVGID_1_" gradientUnits="userSpaceOnUse" x1="52.0547" y1="52.3867" x2="53.0854" y2="59.9267" gradientTransform="matrix(0.9895 0.1444 -0.1444 0.9895 8.4245 -6.5308)">
			<stop  offset="0" style="stop-color:#D5DF00"/>
			<stop  offset="1" style="stop-color:#8EBF00"/>
		</linearGradient>
		
			<circle fill="url(#SVGID_1_)" stroke="#2C3505" stroke-width="0.3445" stroke-miterlimit="10" cx="52.328" cy="57.499" r="4.448"/>
		<path fill="none" stroke="#DADDCC" stroke-width="0.5" stroke-miterlimit="1" d="M51.498,53.212
			c-0.309,0.142-0.281,2.029,1.507,2.874c1.788,0.846,2.734,1.112,3.171,1.547c0.436,0.435,0.123,1.872,0.123,1.872
			s0.805-1.479-0.041-2.145c-0.507-0.399-2.678-1.25-3.221-1.598c-0.978-0.628-1.788-1.33-1.161-2.595
			C51.876,53.168,51.758,53.094,51.498,53.212z"/>
		<path fill="none" stroke="#DADDCC" stroke-width="0.5" stroke-miterlimit="1" d="M47.992,57.295c0,0,2.061,2.398,2.678,3.26
			c0.615,0.859,3.137,1.141,3.137,1.141s-0.819,0.181-1.382,0.128c-0.563-0.054-1.571-0.473-1.958-1.057
			c-0.386-0.584-2.438-2.753-2.546-2.983C47.921,57.783,47.77,57.447,47.992,57.295z"/>
		<circle fill="none" stroke="#2C3505" stroke-width="0.5" stroke-miterlimit="10" cx="52.328" cy="57.499" r="4.448"/>
	</g>
</g>
</svg>
