<?xml version="1.0" encoding="utf-8"?>
<!-- Generator: Adobe Illustrator 15.0.2, SVG Export Plug-In . SVG Version: 6.00 Build 0)  -->
<!DOCTYPE svg PUBLIC "-//W3C//DTD SVG 1.1//EN" "http://www.w3.org/Graphics/SVG/1.1/DTD/svg11.dtd">
<svg version="1.1" id="レイヤー_1" xmlns="http://www.w3.org/2000/svg" xmlns:xlink="http://www.w3.org/1999/xlink" x="0px"
	 y="0px" width="64px" height="64px" viewBox="0 0 64 64" enable-background="new 0 0 64 64" xml:space="preserve">
<g>
	<g>
		<g>
			<path fill="#FFBA98" d="M6.592,39.097c1.667-1.339,10.083-2.873,12.25-1.707c0,0,2.042-7.575,6.813-10.563
				c0,0-0.295-5.458,0.863-10.64c0,0-2.229-5.607-3.02-9.349c0.791-3.466,4.748-5.029,9.677-2.297
				c4.667,2.586,3.385,9.454,2.977,12.797c0.44,2.417,0.208,6.594,0.208,6.594s1.777,0.499,2.802,1.097
				c1.931-0.775,10.847-1.679,13.181-0.935s4.682,4.742,3.633,8.201c2.034,2.626,1.951,6.65-0.556,8.981
				c2.007,1.228,1.143,8.614-5.493,10.389c0.833,1.672-0.018,6.673-6.801,6.006c-2.116,1.5-13.375,1.324-16.787-0.463
				c-2.913,2.463-17.079,4.89-19.746,2.928V39.097z"/>
			<path fill="none" stroke="#420707" stroke-width="1.658" stroke-miterlimit="11" d="M6.592,39.097
				c1.667-1.339,10.083-2.873,12.25-1.707c0,0,2.042-7.575,6.813-10.563c0,0-0.295-5.458,0.863-10.64c0,0-2.229-5.607-3.02-9.349
				c0.791-3.466,4.748-5.029,9.677-2.297c4.667,2.586,3.385,9.454,2.977,12.797c0.44,2.417,0.208,6.594,0.208,6.594
				s1.777,0.499,2.802,1.097c1.931-0.775,10.847-1.679,13.181-0.935s4.682,4.742,3.633,8.201c2.034,2.626,1.951,6.65-0.556,8.981
				c2.007,1.228,1.143,8.614-5.493,10.389c0.833,1.672-0.018,6.673-6.801,6.006c-2.116,1.5-13.375,1.324-16.787-0.463
				c-2.913,2.463-17.079,4.89-19.746,2.928V39.097z"/>
		</g>
		<defs>
			<filter id="Adobe_OpacityMaskFilter" filterUnits="userSpaceOnUse" x="5.763" y="2.318" width="52.474" height="59.363">
				
					<feColorMatrix  type="matrix" values="-1 0 0 0 1  0 -1 0 0 1  0 0 -1 0 1  0 0 0 1 0" color-interpolation-filters="sRGB" result="source"/>
			</filter>
		</defs>
		<mask maskUnits="userSpaceOnUse" x="5.763" y="2.318" width="52.474" height="59.363" id="SVGID_1_">
			<g filter="url(#Adobe_OpacityMaskFilter)">
				<image overflow="visible" width="58" height="64" xlink:href="B9BE90D7.jpg"  transform="matrix(1 0 0 1 3 0)">
				</image>
			</g>
		</mask>
		<g opacity="0.22" mask="url(#SVGID_1_)">
			<path fill="#EF0F54" d="M6.592,39.097c1.667-1.339,10.083-2.873,12.25-1.707c0,0,2.042-7.575,6.813-10.563
				c0,0-0.295-5.458,0.863-10.64c0,0-2.229-5.607-3.02-9.349c0.791-3.466,4.748-5.029,9.677-2.297
				c4.667,2.586,3.385,9.454,2.977,12.797c0.44,2.417,0.208,6.594,0.208,6.594s1.777,0.499,2.802,1.097
				c1.931-0.775,10.847-1.679,13.181-0.935s4.682,4.742,3.633,8.201c2.034,2.626,1.951,6.65-0.556,8.981
				c2.007,1.228,1.143,8.614-5.493,10.389c0.833,1.672-0.018,6.673-6.801,6.006c-2.116,1.5-13.375,1.324-16.787-0.463
				c-2.913,2.463-17.079,4.89-19.746,2.928V39.097z"/>
			<path fill="none" stroke="#EF0F54" stroke-width="1.658" stroke-miterlimit="11" d="M6.592,39.097
				c1.667-1.339,10.083-2.873,12.25-1.707c0,0,2.042-7.575,6.813-10.563c0,0-0.295-5.458,0.863-10.64c0,0-2.229-5.607-3.02-9.349
				c0.791-3.466,4.748-5.029,9.677-2.297c4.667,2.586,3.385,9.454,2.977,12.797c0.44,2.417,0.208,6.594,0.208,6.594
				s1.777,0.499,2.802,1.097c1.931-0.775,10.847-1.679,13.181-0.935s4.682,4.742,3.633,8.201c2.034,2.626,1.951,6.65-0.556,8.981
				c2.007,1.228,1.143,8.614-5.493,10.389c0.833,1.672-0.018,6.673-6.801,6.006c-2.116,1.5-13.375,1.324-16.787-0.463
				c-2.913,2.463-17.079,4.89-19.746,2.928V39.097z"/>
		</g>
	</g>
	<path fill="none" stroke="#420707" stroke-width="1.6" stroke-miterlimit="11" d="M36.359,23.932c0,0,9.649,11.105-0.928,23.959"/>
	<path fill="none" stroke="#420707" stroke-width="1.6" stroke-miterlimit="11" d="M22.781,53.911c0,0,2.649,3.283,4.76,3.771"/>
	<line fill="none" stroke="#420707" stroke-width="1.6" stroke-miterlimit="11" x1="18.842" y1="37.39" x2="18.425" y2="40.368"/>
	<path fill="#DF9270" d="M7.509,59.588c0,0,11.167-1.834,14.917-5.167l2.736,2.74C25.161,57.161,13.925,61.254,7.509,59.588z"/>
	<path fill="#DF9270" d="M18.842,40.368c0,0-0.584,6.054,1.083,8.72C19.925,49.088,15.759,42.648,18.842,40.368z"/>
	<path fill="#DF9270" d="M35.009,7.754c0,0,1.916,3.833,0,9.75h-2.667C32.342,17.504,36.759,12.421,35.009,7.754z"/>
	<path fill="#DF9270" d="M40.386,27.727c0.706-0.639,2.087-0.556,2.438,0.361s2.441,5.75,0,6.5S40.386,27.727,40.386,27.727z"/>
	<path fill="#DF9270" d="M42.188,36.421c0,0,1.82-1.02,2.57-0.51s1.134,7.352-0.767,7.431S37.701,44.088,42.188,36.421z"/>
	<path fill="#DF9270" d="M40.235,49.891c0.903-0.688,3.793-3.271,3.033-5.162s-1.656-1.381-3.033-0.688s-4.238,3.328-3.477,4.464
		S39.785,50.233,40.235,49.891z"/>
	<path fill="#DF9270" d="M38.621,56.8c1.316,0.584,2.729-3.203,2.754-4.919c0.024-1.717-0.907-1.48-2.754-0.985
		C36.775,51.392,35.506,55.419,38.621,56.8z"/>
	<path fill="#DF9270" d="M35.86,24.567c0,0,8.648,10.448-0.852,22.901l-4.833,0.953C30.175,48.421,41.212,39.629,35.86,24.567z"/>
	<polygon fill="#DF9270" points="34.819,57.683 30.175,48.421 36.731,46.75 40.929,57.683 	"/>
	<path fill="none" stroke="#420707" stroke-width="1.6" stroke-miterlimit="11" d="M45.641,25.892c0,0-6.319-0.206-6.183,1.835
		s1.474,6.867,3.021,7.293c0.973,0.268,12.94-2.565,12.94-2.565"/>
	<path fill="none" stroke="#420707" stroke-width="1.6" stroke-miterlimit="11" d="M55.092,41.276c0,0-13.821,5.172-15.202,1.366
		c-0.142-1.808,0.307-6.486,2.589-7.1s10.809-2.58,10.809-2.58"/>
	<path fill="none" stroke="#420707" stroke-width="1.6" stroke-miterlimit="11" d="M49.523,51.845c0,0-11.979-1.445-13.164-2.81
		s2.414-5.123,4.267-5.506"/>
	<path fill="none" stroke="#420707" stroke-width="1.6" stroke-miterlimit="11" d="M44.269,57.093c0,0-6.513,0.867-7.256-3.883
		c-0.653-4.175,2.854-2.676,2.854-2.676"/>
	<path fill="#DF9270" d="M49.176,53.714c0,0-7.276,1.918-9.72,0.707l0.779,1.427C40.235,55.848,48.176,59.174,49.176,53.714z"/>
	<path fill="#DF9270" d="M40.6,52.217c0,0,0.094,2.957,3.992,3.065l-4.356,0.565L40.6,52.217z"/>
	<path fill="#DF9270" d="M36.125,25.352l-3.116-1.847c0,0,2-1.833-0.667-6h3.089C35.432,17.504,35.552,21.837,36.125,25.352z"/>
	<path fill="#DF9270" d="M25.161,48.421c1.983,1.527,6.134,0.48,8.598-0.53s5.528-11.199,5.295-13.251
		C38.194,26.75,35.552,48.754,25.161,48.421z"/>
	<path fill="#DF9270" d="M7.509,52.582v7.006l13.349-1.11C20.857,58.478,10.009,58.743,7.509,52.582z"/>
</g>
</svg>
