<?xml version="1.0" encoding="utf-8"?>
<!-- Generator: Adobe Illustrator 15.0.2, SVG Export Plug-In . SVG Version: 6.00 Build 0)  -->
<!DOCTYPE svg PUBLIC "-//W3C//DTD SVG 1.1//EN" "http://www.w3.org/Graphics/SVG/1.1/DTD/svg11.dtd">
<svg version="1.1" id="レイヤー_1" xmlns="http://www.w3.org/2000/svg" xmlns:xlink="http://www.w3.org/1999/xlink" x="0px"
	 y="0px" width="64px" height="64px" viewBox="0 0 64 64" enable-background="new 0 0 64 64" xml:space="preserve">
<g>
	<g>
		<g>
			<g>
				<path fill="#FFBA98" stroke="#420707" stroke-width="1.6421" stroke-miterlimit="11" d="M41.521,62.457l-1.367-3.816
					c0,0,3.749-1.368,5.506-3.706s3.243-10.494,1.922-14.298c-1.321-3.805-0.789-8.729-1.922-11.631c0,0,1.113-7.524,1.518-11.239
					c0.404-3.714,2.551-10.864,2.385-12.406c-0.165-1.542-3.998-3.853-6.456-0.882c-2.457,2.971-3.273,10.306-3.484,12.086
					s-1.613,8.581-2.688,8.812c-1.073,0.231-4.05,0-4.05,0s-2.074-6.505-2.575-8.953c-0.501-2.448-2.111-10.625-2.076-12.192
					c0.035-1.568-6.473-4.705-6.768,3.301c-0.295,8.006,1.951,9.889,1.951,9.889s0.863,7.712,1.125,8.733
					c0,0-5.351-0.866-6.589,3.255c0,0-5.005,0.261-4.937,6.688c0,0-0.447,8.904,1.296,10.68c0,0,1.591,11.768,7.155,11.862
					l-0.878,3.942L41.521,62.457z"/>
				<path fill="none" stroke="#420707" stroke-width="1.6421" stroke-miterlimit="11" d="M17.952,29.41c0,0,3.69,5.772,4.208,12.972
					c0.293,4.083,0.441,5.136-0.811,5.735s-3.481-0.697-4.553-3.256c-1.072-2.56-0.542-6.086-0.542-6.086l-1.604-0.675"/>
				<path fill="none" stroke="#420707" stroke-width="1.6421" stroke-miterlimit="11" d="M24.541,26.155c0,0,3.126,8.55,3.798,9.944
					c0.672,1.395,0.364,7.724,0.105,8.396c-0.258,0.674-3.171,2.735-5.222-0.647c-2.052-3.384-1.138-3.858-1.138-3.858"/>
				<path fill="none" stroke="#420707" stroke-width="1.6421" stroke-miterlimit="11" d="M32.561,58.597c0,0,4.803,1.431,8.069,0"/>
				
					<line fill="none" stroke="#420707" stroke-width="1.6421" stroke-miterlimit="11" x1="25.313" y1="58.914" x2="21.466" y2="58.641"/>
			</g>
		</g>
		<defs>
			<filter id="Adobe_OpacityMaskFilter" filterUnits="userSpaceOnUse" x="12.142" y="1.471" width="38.25" height="61.939">
				
					<feColorMatrix  type="matrix" values="-1 0 0 0 1  0 -1 0 0 1  0 0 -1 0 1  0 0 0 1 0" color-interpolation-filters="sRGB" result="source"/>
			</filter>
		</defs>
		<mask maskUnits="userSpaceOnUse" x="12.142" y="1.471" width="38.25" height="61.939" id="SVGID_1_">
			<g filter="url(#Adobe_OpacityMaskFilter)">
				<image overflow="visible" width="43" height="67" xlink:href="E9E5A9EF.jpg"  transform="matrix(1 0 0 1 10 -1)">
				</image>
			</g>
		</mask>
		<g opacity="0.19" mask="url(#SVGID_1_)">
			<g>
				<path fill="#F90808" stroke="#F90808" stroke-width="1.6421" stroke-miterlimit="11" d="M41.521,62.457l-1.367-3.816
					c0,0,3.749-1.368,5.506-3.706s3.243-10.494,1.922-14.298c-1.321-3.805-0.789-8.729-1.922-11.631c0,0,1.113-7.524,1.518-11.239
					c0.404-3.714,2.551-10.864,2.385-12.406c-0.165-1.542-3.998-3.853-6.456-0.882c-2.457,2.971-3.273,10.306-3.484,12.086
					s-1.613,8.581-2.688,8.812c-1.073,0.231-4.05,0-4.05,0s-2.074-6.505-2.575-8.953c-0.501-2.448-2.111-10.625-2.076-12.192
					c0.035-1.568-6.473-4.705-6.768,3.301c-0.295,8.006,1.951,9.889,1.951,9.889s0.863,7.712,1.125,8.733
					c0,0-5.351-0.866-6.589,3.255c0,0-5.005,0.261-4.937,6.688c0,0-0.447,8.904,1.296,10.68c0,0,1.591,11.768,7.155,11.862
					l-0.878,3.942L41.521,62.457z"/>
				<path fill="none" stroke="#F90808" stroke-width="1.6421" stroke-miterlimit="11" d="M17.952,29.41c0,0,3.69,5.772,4.208,12.972
					c0.293,4.083,0.441,5.136-0.811,5.735s-3.481-0.697-4.553-3.256c-1.072-2.56-0.542-6.086-0.542-6.086l-1.604-0.675"/>
				<path fill="none" stroke="#F90808" stroke-width="1.6421" stroke-miterlimit="11" d="M24.541,26.155c0,0,3.126,8.55,3.798,9.944
					c0.672,1.395,0.364,7.724,0.105,8.396c-0.258,0.674-3.171,2.735-5.222-0.647c-2.052-3.384-1.138-3.858-1.138-3.858"/>
				<path fill="none" stroke="#F90808" stroke-width="1.6421" stroke-miterlimit="11" d="M32.561,58.597c0,0,4.803,1.431,8.069,0"/>
				
					<line fill="none" stroke="#F90808" stroke-width="1.6421" stroke-miterlimit="11" x1="25.313" y1="58.914" x2="21.466" y2="58.641"/>
			</g>
		</g>
	</g>
	<g>
		<path fill="#DF9270" d="M16.172,41.869c0,0,5.432-1.808,5.709-0.727c0,0,4.946-2.486,6.863-1.166l0.762-1.141l1.132,0.52
			l3.17,3.206c0,0-4.788,2.959-5.453,6.377c0,0-8.506,2.809-10.899-1.261C15.063,43.607,16.172,41.869,16.172,41.869z"/>
		<path fill="#DF9270" d="M47.178,48.263c0,0,0,13.577-14.205,9.781C32.973,58.044,42.481,59.198,47.178,48.263z"/>
		<path fill="#DF9270" d="M25.313,58.126l4.688,0.471c0,0-10.812-3.597-14.113-8.554C15.888,50.043,17.075,60.932,25.313,58.126z"/>
		<path fill="#DF9270" d="M46.097,37.526c0,0-9.762-4.662-12.288-5.089c0,0,4.199-0.145,8.821-0.145
			c-0.555-1.893,2.063-7.428,2.063-7.428s1.568-12.462,2.146-14.526c0.578-2.064,2.692-3.888,2.412-2.587
			c-0.279,1.301-2.668,13.496-2.87,16.212C46.179,26.681,45.673,35.438,46.097,37.526z"/>
		<path fill="#DF9270" d="M32.23,26.155c0,0,2.229,3.332,3.714,2.342c1.486-0.991,2.063-3.467,2.063-3.467L32.23,26.155z"/>
	</g>
	<path fill="#DF9270" d="M28.745,11.577c0,0-0.146,3.879-1.384,4.457c0,0,4.044,8.204,3.219,9.342l1.65,0.778L28.745,11.577z"/>
	<path fill="#DF9270" d="M25.313,61.84H40.4l-0.659-2.607l-10.33-0.843C29.412,58.39,34.407,59.116,25.313,61.84z"/>
	<path fill="#DF9270" d="M41.062,11.577c0,0,0.413,3.053,1.073,3.549c0,0-2.972,4.415-3.468,6.168L41.062,11.577z"/>
	<path fill="#DF9270" d="M47.178,44.013c0,0-3.146,2.271-4.466,5.117c-1.364,2.943-4.584,7.944-9.855,8.584
		C32.856,57.714,48.043,63.565,47.178,44.013z"/>
	<path fill="none" stroke="#420707" stroke-width="1.6421" stroke-miterlimit="11" d="M24.541,26.155c0,0,3.126,8.55,3.798,9.944
		c0.672,1.395,0.364,7.724,0.105,8.396c-0.258,0.674-3.171,2.735-5.222-0.647c-2.052-3.384-1.138-3.858-1.138-3.858"/>
	<g>
		<path fill="none" stroke="#420707" stroke-width="1.6421" stroke-miterlimit="11" d="M41.521,62.457l-1.367-3.816
			c0,0,3.749-1.368,5.506-3.706s3.243-10.494,1.922-14.298c-1.321-3.805-0.789-8.729-1.922-11.631c0,0,1.113-7.524,1.518-11.239
			c0.404-3.714,2.551-10.864,2.385-12.406c-0.165-1.542-3.998-3.853-6.456-0.882c-2.457,2.971-3.273,10.306-3.484,12.086
			s-1.613,8.581-2.688,8.812c-1.073,0.231-4.05,0-4.05,0s-2.074-6.505-2.575-8.953c-0.501-2.448-2.111-10.625-2.076-12.192
			c0.035-1.568-6.473-4.705-6.768,3.301c-0.295,8.006,1.951,9.889,1.951,9.889s0.863,7.712,1.125,8.733c0,0-5.351-0.866-6.589,3.255
			c0,0-5.005,0.261-4.937,6.688c0,0-0.447,8.904,1.296,10.68c0,0,1.591,11.768,7.155,11.862l-0.878,3.942L41.521,62.457z"/>
		<path fill="none" stroke="#420707" stroke-width="1.6421" stroke-miterlimit="11" d="M17.952,29.41c0,0,3.69,5.772,4.208,12.972
			c0.293,4.083,0.441,5.136-0.811,5.735s-3.481-0.697-4.553-3.256c-1.072-2.56-0.542-6.086-0.542-6.086l-1.604-0.675"/>
		<path fill="none" stroke="#420707" stroke-width="1.6421" stroke-miterlimit="11" d="M32.561,58.597c0,0,4.803,1.431,8.069,0"/>
		<path fill="none" stroke="#420707" stroke-width="1.6421" d="M47.178,39.21c0,0-5.365-4.432-8.844-5.055
			c-1.963-0.352-6.497-2.027-7.497-2.274c-1-0.248-2.604-0.642-5.54-0.907c-1.981,0.907-4.089,7.788,5.012,8.02
			c0,0,1.478,2.855,4.743,3.388c0,0-8.046,1.193-6.714,10.697"/>
		
			<line fill="none" stroke="#420707" stroke-width="1.6421" stroke-miterlimit="11" x1="25.313" y1="58.914" x2="21.466" y2="58.641"/>
	</g>
	<path fill="#FFBA98" stroke="#420707" stroke-width="1.6421" d="M47.178,39.21c0,0-5.365-4.432-8.844-5.055
		c-1.963-0.352-6.497-2.027-7.497-2.274c-1-0.248-2.604-0.642-5.54-0.907c-1.981,0.907-4.089,7.788,5.012,8.02
		c0,0,1.478,2.855,4.743,3.388c0,0-8.046,1.193-6.714,10.697"/>
</g>
</svg>
