<?xml version="1.0" encoding="utf-8"?>
<!-- Generator: Adobe Illustrator 15.0.2, SVG Export Plug-In . SVG Version: 6.00 Build 0)  -->
<!DOCTYPE svg PUBLIC "-//W3C//DTD SVG 1.1//EN" "http://www.w3.org/Graphics/SVG/1.1/DTD/svg11.dtd">
<svg version="1.1" id="レイヤー_1" xmlns="http://www.w3.org/2000/svg" xmlns:xlink="http://www.w3.org/1999/xlink" x="0px"
	 y="0px" width="64px" height="64px" viewBox="0 0 64 64" enable-background="new 0 0 64 64" xml:space="preserve">
<linearGradient id="SVGID_1_" gradientUnits="userSpaceOnUse" x1="32" y1="2.9961" x2="32" y2="60.9865">
	<stop  offset="0" style="stop-color:#1FB9FF"/>
	<stop  offset="1" style="stop-color:#0070FF"/>
</linearGradient>
<path fill="url(#SVGID_1_)" stroke="#0F50F3" stroke-width="2" stroke-miterlimit="10" d="M62.205,50.205c0,6.627-5.373,12-12,12
	h-36.41c-6.627,0-12-5.373-12-12v-36.41c0-6.627,5.373-12,12-12h36.41c6.627,0,12,5.373,12,12V50.205z"/>
<g>
	<path opacity="0.28" fill="#FFFFFF" d="M2.672,13.369c-0.032,0.353-0.054,0.709-0.054,1.071v12.594
		c0.006,0.006,0.012,0.012,0.017,0.018L2.672,13.369z"/>
	<path opacity="0.28" fill="#FFFFFF" d="M60.106,23.57c1.188-5.802,1.222-9.417,1.222-10.194C60.79,7.428,55.797,2.767,49.71,2.767
		H14.291c-6.076,0-11.062,4.642-11.617,10.572c0.02,0.349,0.497,4.034,1.293,10.307C11.207,30.701,21.092,35.055,32,35.055
		C42.945,35.055,52.859,30.669,60.106,23.57z"/>
	<path opacity="0.28" fill="#FFFFFF" d="M61.328,13.379l0.039,13.667c0.005-0.005,0.01-0.01,0.015-0.015V14.439
		C61.382,14.082,61.359,13.729,61.328,13.379z"/>
</g>
<path fill="#FFFFFF" d="M2.674,27.586c0,0-0.006-10.919-0.028-13.859c-0.027-3.6,3.244-10.89,10.375-10.89
	c6.639,0,16.803,0,16.803,0S17.118,3.651,13.02,4.471s-7.494,6.043-8.442,9.263C3.198,18.415,2.674,27.586,2.674,27.586z"/>
<path fill="#0D62B6" d="M61.001,37.832c0,0,0.006,10.233,0.027,12.989c0.026,3.373-3.141,10.207-10.048,10.207
	c-6.428,0-16.27,0-16.27,0s12.304-0.764,16.272-1.532c3.967-0.769,7.254-5.663,8.174-8.681
	C60.493,46.427,61.001,37.832,61.001,37.832z"/>
<g>
	<circle fill="#FFFFFF" cx="26.746" cy="14.642" r="3.444"/>
	<path fill="#FFFFFF" d="M50.392,40.745c-1.799,0.956-2.333,1.187-2.333,1.187s-4.354-7.797-4.874-8.837
		c-0.519-1.039-1.494-0.976-2.469-0.976c-0.974,0-10.071,0-10.071,0s0-1.207,0-2.858c2.14,0,6.435,0,7.741,0
		c1.764,0,2.2-2.877,0-2.877c-1.612,0-5.683,0-7.741,0c0-1.605,0-3.243,0-4.465c0-3.445-6.368-3.119-6.368,0c0,0,0,12.28,0,12.994
		c0,0.715,1.04,2.015,2.145,2.015c1.105,0,13.97,0,13.97,0l6.043,9.683c0,0,4.483-2.601,5.648-3.249
		C53.248,42.711,51.71,40.042,50.392,40.745z"/>
	<path fill="#FFFFFF" d="M40.358,40.763h-0.222c-0.943,5.031-5.357,8.842-10.664,8.842c-5.995,0-10.854-4.858-10.854-10.854
		c0-3.318,1.492-6.287,3.839-8.279v-3.586c-4.155,2.4-6.953,6.888-6.953,12.029c0,7.671,6.218,13.889,13.888,13.889
		c5.872,0,10.887-3.646,12.918-8.797L40.358,40.763z"/>
</g>
<g>
	<circle fill="#FFFFFF" cx="26.746" cy="14.642" r="3.444"/>
	<path fill="#FFFFFF" d="M50.392,40.745c-1.799,0.956-2.333,1.187-2.333,1.187s-4.354-7.797-4.874-8.837
		c-0.519-1.039-1.494-0.976-2.469-0.976c-0.974,0-10.071,0-10.071,0s0-1.207,0-2.858c2.14,0,6.435,0,7.741,0
		c1.764,0,2.2-2.877,0-2.877c-1.612,0-5.683,0-7.741,0c0-1.605,0-3.243,0-4.465c0-3.445-6.368-3.119-6.368,0c0,0,0,12.28,0,12.994
		c0,0.715,1.04,2.015,2.145,2.015c1.105,0,13.97,0,13.97,0l6.043,9.683c0,0,4.483-2.601,5.648-3.249
		C53.248,42.711,51.71,40.042,50.392,40.745z"/>
	<path fill="#FFFFFF" d="M40.358,40.763h-0.222c-0.943,5.031-5.357,8.842-10.664,8.842c-5.995,0-10.854-4.858-10.854-10.854
		c0-3.318,1.492-6.287,3.839-8.279v-3.586c-4.155,2.4-6.953,6.888-6.953,12.029c0,7.671,6.218,13.889,13.888,13.889
		c5.872,0,10.887-3.646,12.918-8.797L40.358,40.763z"/>
</g>
</svg>
